<?xml version="1.0" encoding="utf-8"?>
<!-- Generator: Adobe Illustrator 25.4.1, SVG Export Plug-In . SVG Version: 6.00 Build 0)  -->
<svg version="1.1" id="레이어_1" xmlns="http://www.w3.org/2000/svg" xmlns:xlink="http://www.w3.org/1999/xlink" x="0px"
	 y="0px" width="480px" height="70.4px" viewBox="0 0 480 70.4" style="enable-background:new 0 0 480 70.4;" xml:space="preserve">
<g>
	<g>
		<path style="fill:#78C470;" d="M2.7,26.2c0,0,0-2.8,2.7-3.6l20.1-5.4c0,0,2.7-0.7,5.5,0l20.6,5.5c0,0,2.7,0.7,5.5,0.1L76,18.1
			c0,0,2.8-0.7,2.8,2.2v39.8c0,0,0,2.8-2.8,3.5l-19.4,4.6c0,0-2.8,0.7-5.5-0.1L31,62.2c0,0-2.7-0.8-5.4,0L5.4,68.1
			c0,0-2.7,0.8-2.7-2V26.2z"/>
		<g>
			<g>
				<path d="M10,9C9.8,9.1,9.6,9.1,9.4,9.1C9.2,9,9.1,8.9,9,8.7C9,8.4,9,8.3,9.1,8.1C9.2,8,9.4,7.9,9.6,7.8L12.1,7L12,6.7
					c-0.1-0.2,0-0.4,0.1-0.6c0.1-0.2,0.3-0.3,0.6-0.4c0.3-0.1,0.5-0.1,0.7,0c0.2,0.1,0.3,0.3,0.4,0.5l0.1,0.3l2.5-0.8
					c0.3-0.1,0.5-0.1,0.6,0c0.2,0,0.3,0.2,0.4,0.4c0.1,0.2,0,0.4-0.1,0.5c-0.1,0.1-0.3,0.2-0.6,0.3L10,9z M10.9,14.8
					c-0.2,0.1-0.5,0.1-0.6,0.1c-0.2,0-0.3-0.2-0.4-0.4c-0.1-0.2,0-0.4,0.1-0.6c0.1-0.1,0.3-0.2,0.6-0.3l3.4-1.1l-0.2-0.6
					C13.3,12,13,12,12.6,12.1c-0.3,0-0.7,0-1,0c-0.3-0.1-0.5-0.2-0.8-0.3c-0.2-0.2-0.4-0.4-0.5-0.7c-0.1-0.3-0.1-0.7,0.1-0.9
					c0.1-0.3,0.4-0.6,0.7-0.8c0.3-0.2,0.6-0.5,1.1-0.6c0.4-0.2,0.8-0.3,1.2-0.5c0.4-0.1,0.9-0.2,1.3-0.3c0.4-0.1,0.8-0.1,1.2-0.1
					c0.4,0,0.7,0.1,1,0.3c0.3,0.2,0.5,0.4,0.6,0.7c0.1,0.3,0.1,0.6,0,0.8c-0.1,0.2-0.2,0.5-0.4,0.7c-0.2,0.2-0.5,0.4-0.8,0.6
					c-0.3,0.2-0.6,0.3-1,0.5l0.2,0.6l3.4-1.1c0.2-0.1,0.5-0.1,0.6-0.1s0.3,0.2,0.4,0.4c0.1,0.2,0.1,0.4-0.1,0.6
					c-0.1,0.1-0.3,0.2-0.6,0.3L10.9,14.8z M11.7,15.6c-0.1-0.3-0.1-0.5,0.1-0.6c0.1-0.2,0.3-0.3,0.6-0.4c0.3-0.1,0.5-0.1,0.7,0
					c0.2,0.1,0.3,0.2,0.4,0.5l0.2,0.6c0,0.1,0.1,0.1,0.2,0.1l5.1-1.6c0.3-0.1,0.5-0.1,0.6,0c0.2,0.1,0.3,0.2,0.4,0.5
					c0.1,0.3,0.1,0.5,0,0.6c-0.1,0.1-0.3,0.3-0.5,0.3l-6,1.9c-0.3,0.1-0.6,0.1-0.8,0c-0.2-0.1-0.4-0.3-0.5-0.7L11.7,15.6z M15.8,9.4
					c-0.1-0.2-0.3-0.3-0.6-0.3c-0.3,0-0.8,0.1-1.3,0.3c-0.5,0.2-1,0.3-1.2,0.5c-0.3,0.2-0.4,0.4-0.3,0.6c0.1,0.2,0.3,0.3,0.6,0.3
					c0.3,0,0.8-0.1,1.3-0.3c0.5-0.2,1-0.3,1.2-0.5C15.7,9.8,15.8,9.6,15.8,9.4z"/>
			</g>
		</g>
		<g>
			<g>
				<path d="M20.9,6c-0.2,0.1-0.5,0-0.7-0.1c-0.2-0.1-0.3-0.3-0.4-0.5c-0.1-0.2,0-0.5,0.1-0.6c0.1-0.2,0.3-0.3,0.6-0.3l4.3-0.9
					c0.2-0.1,0.5,0,0.7,0.1c0.2,0.1,0.3,0.3,0.4,0.5c0.1,0.3,0,0.5-0.1,0.6c-0.1,0.2-0.3,0.3-0.6,0.3L24,5.4l0.2,0.8
					c0.2,0.7,0.5,1.4,0.9,1.9c0.5,0.5,1.1,0.9,1.9,1.3c0.5,0.2,0.7,0.5,0.6,1c0,0.1-0.1,0.2-0.1,0.3c-0.1,0.1-0.2,0.2-0.3,0.2
					c-0.1,0.1-0.2,0.1-0.3,0.1s-0.2,0-0.4,0c-0.5-0.1-0.9-0.4-1.4-0.7c-0.5-0.3-0.8-0.6-1.2-1c-0.1,0.2-0.2,0.5-0.3,0.7
					c-0.1,0.3-0.2,0.5-0.4,0.7c-0.1,0.2-0.3,0.5-0.5,0.7c-0.2,0.2-0.3,0.4-0.5,0.6c-0.2,0.2-0.4,0.2-0.7,0.2c-0.3,0-0.5-0.1-0.6-0.3
					c-0.3-0.4-0.2-0.8,0.1-1.2c0.6-0.6,0.9-1.3,1.1-2c0.2-0.7,0.2-1.4,0.1-2.2l-0.2-0.8L20.9,6z M26.7,3.5c-0.1-0.3,0-0.5,0.1-0.7
					c0.1-0.2,0.3-0.3,0.6-0.4c0.3-0.1,0.5,0,0.7,0.1c0.2,0.1,0.3,0.3,0.4,0.6l0.5,2.4L30,5.3c0.2-0.1,0.5,0,0.6,0.1
					c0.2,0.1,0.3,0.3,0.4,0.6c0.1,0.3,0,0.5-0.1,0.6c-0.1,0.2-0.3,0.3-0.6,0.3l-0.8,0.2l1.1,5.1c0.1,0.3,0,0.5-0.1,0.7
					c-0.1,0.2-0.3,0.3-0.6,0.4c-0.3,0.1-0.5,0-0.7-0.1c-0.2-0.1-0.3-0.3-0.4-0.6L26.7,3.5z"/>
			</g>
		</g>
		<g>
			<g>
				<path d="M36.6,6.4c0.2,0.1,0.4,0.1,0.5,0.3s0.1,0.3,0.1,0.5l-0.3,1.1c-0.1,0.5-0.1,1.1,0,1.5c0.1,0.5,0.4,1,0.8,1.5
					c0.2,0.3,0.3,0.6,0.1,0.9c0,0.1-0.1,0.1-0.2,0.2c-0.1,0-0.2,0.1-0.3,0.1c-0.1,0-0.2,0-0.3,0c-0.1,0-0.2-0.1-0.2-0.1
					c-0.1-0.1-0.3-0.2-0.4-0.4c-0.1-0.2-0.2-0.3-0.3-0.5c-0.1-0.2-0.2-0.3-0.3-0.5c-0.1-0.2-0.2-0.3-0.2-0.5
					c-0.1,0.1-0.2,0.2-0.4,0.4c-0.1,0.1-0.3,0.2-0.5,0.4c-0.2,0.1-0.3,0.2-0.5,0.3c-0.2,0.1-0.4,0.2-0.5,0.2c-0.1,0-0.2,0-0.3,0
					c-0.1,0-0.2,0-0.3-0.1s-0.1-0.1-0.2-0.1c-0.1-0.1-0.1-0.1-0.1-0.2c0-0.2,0-0.3,0-0.5c0.1-0.1,0.2-0.3,0.4-0.3
					c0.6-0.3,1.1-0.7,1.4-1.1c0.3-0.4,0.6-0.9,0.7-1.4l0.3-1.1c0-0.2,0.1-0.3,0.3-0.4C36.1,6.3,36.3,6.3,36.6,6.4z M39.7,7.4
					c0-0.2,0.1-0.3,0.3-0.4c0.2-0.1,0.3-0.1,0.5-0.1c0.2,0,0.4,0.1,0.5,0.3c0.1,0.1,0.1,0.3,0.1,0.5l-1.6,6.8c0,0.2-0.1,0.3-0.3,0.4
					C39.1,15,38.9,15,38.7,15c-0.2,0-0.4-0.1-0.5-0.3c-0.1-0.1-0.1-0.3-0.1-0.5l0.9-4.1l-1.1-0.3c-0.2,0-0.3-0.1-0.4-0.2
					c-0.1-0.1-0.1-0.3-0.1-0.5c0-0.2,0.1-0.3,0.3-0.4s0.3-0.1,0.5,0l1.1,0.3L39.7,7.4z"/>
			</g>
		</g>
		<g>
			<g>
				<path d="M41.4,15c-0.2,0-0.3-0.1-0.4-0.3c-0.1-0.1-0.1-0.3-0.1-0.5c0-0.2,0.1-0.3,0.3-0.4c0.1-0.1,0.3-0.1,0.5,0l2.5,0.6
					l0.3-1.3l-1.3-0.3c-0.3-0.1-0.5-0.2-0.6-0.3c-0.1-0.2-0.1-0.4,0-0.7l0.6-2.5c0.1-0.3,0.2-0.5,0.3-0.6c0.2-0.1,0.4-0.1,0.7,0
					l4.3,1c0.2,0,0.3,0.1,0.4,0.3c0.1,0.1,0.1,0.3,0.1,0.5c0,0.2-0.1,0.3-0.3,0.4c-0.1,0.1-0.3,0.1-0.5,0L44.5,10c0,0-0.1,0-0.1,0
					c0,0,0,0,0,0.1L44,11.7c0,0,0,0.1,0,0.1c0,0,0,0,0.1,0l3.7,0.9c0.2,0,0.3,0.1,0.4,0.3c0.1,0.1,0.1,0.3,0.1,0.5
					c0,0.2-0.1,0.3-0.3,0.4c-0.1,0.1-0.3,0.1-0.5,0l-1.6-0.4l-0.3,1.3l2.5,0.6c0.2,0,0.3,0.1,0.4,0.3c0.1,0.1,0.1,0.3,0.1,0.5
					c0,0.2-0.1,0.3-0.3,0.4c-0.1,0.1-0.3,0.1-0.5,0L41.4,15z"/>
			</g>
		</g>
		<path style="fill:#FFF697;" d="M7.5,10.6c0,0-1.7,5,1,6.9c0,0-4.2-1.5-6,1c0,0,1.5-4.2-0.8-5.7C1.7,12.7,5.5,14.9,7.5,10.6"/>
		<path style="fill:#231815;" d="M2.6,18.9c-0.1,0-0.1,0-0.2-0.1c-0.2-0.1-0.3-0.3-0.2-0.6c0,0,1.3-3.9-0.6-5.2
			c-0.2-0.1-0.3-0.4-0.1-0.6c0.1-0.2,0.4-0.3,0.6-0.2c0,0,1.4,0.8,2.8,0.3c0.9-0.3,1.7-1.1,2.3-2.3c0.1-0.2,0.4-0.3,0.6-0.2
			C7.9,10.2,8,10.5,8,10.7c0,0-1.6,4.7,0.9,6.3C9,17.2,9.1,17.4,9,17.6c-0.1,0.2-0.3,0.3-0.6,0.2c0,0-3.9-1.3-5.5,0.9
			C2.8,18.8,2.7,18.9,2.6,18.9z M3.1,13.7c0.5,1.1,0.4,2.4,0.2,3.5c1.2-0.7,2.8-0.7,3.9-0.5c-0.7-1.2-0.7-2.8-0.6-4
			c-0.5,0.4-1,0.7-1.6,0.9C4.4,13.8,3.7,13.8,3.1,13.7z"/>
		<g>
			<path style="fill:#78C470;" d="M57.1,5.5c0.3-0.1,0.6,0,0.8,0.1c0.2,0.1,0.3,0.3,0.4,0.7c0.1,0.3,0,0.6-0.2,0.7s-0.4,0.3-0.8,0.3
				l-1.6,0.3l0.1,0.5c0.1,0.3,0.2,0.6,0.3,0.8c0.2,0.2,0.4,0.4,0.6,0.5c0.2,0.1,0.5,0.3,0.8,0.4c0.3,0.1,0.6,0.2,1,0.3
				c0.3,0.1,0.6,0.3,0.7,0.5c0.1,0.2,0.1,0.5,0,0.8c-0.1,0.3-0.3,0.4-0.6,0.5c-0.3,0.1-0.6,0-0.9,0c-0.5-0.1-0.9-0.2-1.4-0.4
				c-0.4-0.2-0.8-0.4-1.2-0.7c-0.2,0.4-0.5,0.8-0.9,1.1c-0.4,0.4-0.7,0.7-1.2,1c-0.3,0.2-0.5,0.3-0.8,0.3c-0.3,0-0.5-0.1-0.7-0.3
				c-0.2-0.2-0.3-0.5-0.3-0.8c0-0.3,0.2-0.5,0.5-0.7c0.3-0.2,0.6-0.5,0.8-0.7c0.3-0.2,0.5-0.5,0.7-0.7c0.2-0.2,0.3-0.5,0.4-0.7
				c0.1-0.3,0.1-0.5,0-0.9l-0.1-0.5l-1.7,0.3c-0.3,0.1-0.6,0-0.8-0.1s-0.3-0.3-0.4-0.7c-0.1-0.3,0-0.6,0.2-0.7
				c0.2-0.2,0.4-0.3,0.8-0.3l1.7-0.3l-0.1-0.6c-0.1-0.3,0-0.6,0.2-0.8c0.2-0.2,0.4-0.3,0.8-0.4c0.3-0.1,0.6,0,0.8,0.1
				c0.2,0.1,0.4,0.4,0.4,0.7l0.1,0.6L57.1,5.5z M61.2,14.7c0-0.1-0.1-0.2-0.2-0.1l-6.3,1c-0.3,0-0.5,0-0.8-0.1
				c-0.2-0.1-0.4-0.4-0.4-0.7c-0.1-0.3,0-0.6,0.2-0.8c0.2-0.2,0.4-0.3,0.7-0.4l7.5-1.2c0.5-0.1,0.8,0,1.1,0.1c0.2,0.2,0.4,0.5,0.5,1
				l0.5,2.8c0.1,0.3,0,0.6-0.2,0.8c-0.2,0.2-0.5,0.4-0.8,0.4c-0.3,0.1-0.6,0-0.9-0.1c-0.2-0.2-0.4-0.4-0.5-0.7L61.2,14.7z M59.6,5.1
				c-0.1-0.3,0-0.6,0.2-0.8c0.2-0.2,0.5-0.4,0.8-0.4c0.3-0.1,0.6,0,0.9,0.1c0.2,0.2,0.4,0.4,0.5,0.7l0.9,5.6c0.1,0.3,0,0.6-0.2,0.8
				c-0.2,0.2-0.5,0.4-0.8,0.4c-0.3,0.1-0.6,0-0.9-0.1c-0.2-0.2-0.4-0.4-0.5-0.7L60.3,9l-1.4,0.2c-0.3,0.1-0.6,0-0.8-0.1
				c-0.2-0.1-0.3-0.3-0.4-0.6c-0.1-0.3,0-0.5,0.2-0.7c0.2-0.2,0.4-0.3,0.7-0.3L60,7.4L59.6,5.1z"/>
		</g>
		<g>
			<path style="fill:#78C470;" d="M70.8,3.8c0.3-0.1,0.6,0,0.8,0.1c0.2,0.1,0.3,0.3,0.4,0.7c0.1,0.3,0,0.6-0.2,0.7
				c-0.2,0.2-0.4,0.3-0.7,0.3l-1.6,0.3l0.1,0.5c0.1,0.3,0.2,0.6,0.3,0.8c0.2,0.2,0.4,0.4,0.6,0.5C70.7,7.8,71,7.9,71.3,8
				c0.3,0.1,0.6,0.2,1,0.3c0.3,0.1,0.6,0.3,0.7,0.5c0.1,0.2,0.1,0.5,0,0.8c-0.1,0.3-0.3,0.4-0.6,0.5c-0.3,0.1-0.6,0-0.9,0
				c-0.5-0.1-0.9-0.2-1.4-0.4c-0.4-0.2-0.8-0.4-1.2-0.7c-0.2,0.4-0.5,0.8-0.9,1.1c-0.4,0.4-0.7,0.7-1.2,1c-0.3,0.2-0.6,0.3-0.8,0.3
				c-0.3,0-0.5-0.1-0.7-0.3c-0.2-0.2-0.3-0.5-0.3-0.8c0-0.3,0.2-0.5,0.5-0.7C65.7,9.5,66,9.2,66.2,9c0.3-0.2,0.5-0.5,0.7-0.7
				c0.2-0.2,0.3-0.5,0.4-0.7c0.1-0.3,0.1-0.5,0-0.9l-0.1-0.5l-1.7,0.3c-0.3,0.1-0.6,0-0.8-0.1c-0.2-0.1-0.3-0.3-0.4-0.7
				c-0.1-0.3,0-0.6,0.2-0.7c0.2-0.2,0.4-0.3,0.7-0.3L67,4.4l-0.1-0.6c-0.1-0.3,0-0.6,0.2-0.8c0.2-0.2,0.4-0.3,0.8-0.4
				c0.3-0.1,0.6,0,0.8,0.1c0.2,0.1,0.4,0.4,0.4,0.7L69.2,4L70.8,3.8z M74.8,12.9c0-0.1-0.1-0.2-0.2-0.1l-6.3,1c-0.3,0-0.5,0-0.8-0.1
				c-0.2-0.1-0.4-0.4-0.4-0.7c-0.1-0.3,0-0.6,0.2-0.8c0.2-0.2,0.4-0.3,0.7-0.4l7.5-1.2c0.5-0.1,0.8,0,1.1,0.1c0.2,0.2,0.4,0.5,0.5,1
				l0.5,2.8c0.1,0.3,0,0.6-0.2,0.9c-0.2,0.2-0.5,0.4-0.8,0.4c-0.3,0.1-0.6,0-0.9-0.1c-0.2-0.2-0.4-0.4-0.5-0.7L74.8,12.9z M73.3,3.4
				c-0.1-0.3,0-0.6,0.2-0.9c0.2-0.2,0.5-0.4,0.8-0.4c0.3-0.1,0.6,0,0.9,0.1c0.2,0.2,0.4,0.4,0.5,0.7l0.9,5.6c0.1,0.3,0,0.6-0.2,0.8
				c-0.2,0.2-0.5,0.4-0.8,0.4c-0.3,0.1-0.6,0-0.9-0.1c-0.2-0.2-0.4-0.4-0.5-0.7l-0.3-1.7l-1.4,0.2c-0.3,0.1-0.6,0-0.8-0.1
				c-0.2-0.1-0.3-0.3-0.4-0.6c-0.1-0.3,0-0.5,0.2-0.7c0.2-0.2,0.4-0.3,0.7-0.3l1.4-0.2L73.3,3.4z"/>
		</g>
		<g>
			<path style="fill:#78C470;" d="M74.5,22.8c0-3.5-3-6.3-6.6-5.9c-2.7,0.3-4.9,2.4-5.2,5.1c-0.2,1.6,0.2,3,1,4.2l4,6.2
				c0.4,0.6,1.3,0.6,1.7,0l4-6.2C74.1,25.2,74.5,24.1,74.5,22.8"/>
			<path style="fill:#FFFFFF;" d="M68.5,33.6c-0.6,0-1.1-0.3-1.5-0.8l-4-6.3c-0.9-1.3-1.4-3-1.2-4.7c0.4-3,2.9-5.5,5.9-5.8
				c1.9-0.2,3.8,0.4,5.2,1.7c1.4,1.3,2.2,3.1,2.2,5c0,1.4-0.4,2.7-1.2,3.9l-4,6.2C69.7,33.4,69.1,33.6,68.5,33.6
				C68.5,33.6,68.5,33.6,68.5,33.6z M68.5,17.7c-0.2,0-0.4,0-0.6,0c-2.3,0.3-4.2,2.1-4.5,4.4c-0.2,1.3,0.2,2.6,0.9,3.6l4,6.3
				c0,0.1,0.1,0.1,0.2,0.1l0,0c0,0,0.1,0,0.2-0.1l4-6.2c0.6-0.9,1-1.9,1-3c0-1.4-0.6-2.8-1.7-3.8C71,18.1,69.8,17.7,68.5,17.7z"/>
			<path style="fill:#FFFFFF;" d="M70.4,22.9c0,1-0.8,1.9-1.9,1.9c-1,0-1.9-0.8-1.9-1.9c0-1,0.8-1.9,1.9-1.9
				C69.6,21,70.4,21.8,70.4,22.9"/>
		</g>
	</g>
</g>
<g>
	<g>
		<path style="fill:#48BBA0;" d="M82.7,26.2c0,0,0-2.8,2.7-3.6l20.1-5.4c0,0,2.7-0.7,5.5,0l20.6,5.5c0,0,2.7,0.7,5.5,0.1l18.9-4.6
			c0,0,2.8-0.7,2.8,2.2v39.8c0,0,0,2.8-2.8,3.5l-19.4,4.6c0,0-2.8,0.7-5.5-0.1L111,62.2c0,0-2.7-0.8-5.4,0l-20.1,5.8
			c0,0-2.7,0.8-2.7-2V26.2z"/>
		<g>
			<g>
				<path d="M90,9c-0.3,0.1-0.5,0.1-0.6,0.1c-0.2,0-0.3-0.2-0.4-0.4c-0.1-0.2,0-0.4,0.1-0.5c0.1-0.1,0.3-0.2,0.6-0.3L92.1,7L92,6.7
					c-0.1-0.2,0-0.4,0.1-0.6c0.1-0.2,0.3-0.3,0.6-0.4c0.3-0.1,0.5-0.1,0.7,0c0.2,0.1,0.3,0.3,0.4,0.5l0.1,0.3l2.5-0.8
					c0.3-0.1,0.5-0.1,0.6,0c0.2,0,0.3,0.2,0.4,0.4c0.1,0.2,0,0.4-0.1,0.5c-0.1,0.1-0.3,0.2-0.6,0.3L90,9z M90.9,14.8
					c-0.2,0.1-0.5,0.1-0.6,0.1c-0.2,0-0.3-0.2-0.4-0.4c-0.1-0.2,0-0.4,0.1-0.6c0.1-0.1,0.3-0.2,0.6-0.3l3.4-1.1l-0.2-0.6
					C93.3,12,93,12,92.6,12.1c-0.3,0-0.7,0-1,0c-0.3-0.1-0.5-0.2-0.8-0.3c-0.2-0.2-0.4-0.4-0.5-0.7c-0.1-0.3-0.1-0.7,0.1-0.9
					c0.1-0.3,0.4-0.6,0.7-0.8c0.3-0.2,0.6-0.5,1.1-0.6c0.4-0.2,0.8-0.3,1.2-0.5c0.4-0.1,0.9-0.2,1.3-0.3c0.4-0.1,0.8-0.1,1.2-0.1
					c0.4,0,0.7,0.1,1,0.3c0.3,0.2,0.5,0.4,0.6,0.7c0.1,0.3,0.1,0.6,0,0.8c-0.1,0.2-0.2,0.5-0.4,0.7c-0.2,0.2-0.5,0.4-0.8,0.6
					c-0.3,0.2-0.6,0.3-1,0.5l0.2,0.6l3.4-1.1c0.2-0.1,0.5-0.1,0.6-0.1c0.2,0,0.3,0.2,0.4,0.4c0.1,0.2,0.1,0.4-0.1,0.6
					c-0.1,0.1-0.3,0.2-0.6,0.3L90.9,14.8z M91.7,15.6c-0.1-0.3-0.1-0.5,0.1-0.6c0.1-0.2,0.3-0.3,0.6-0.4c0.3-0.1,0.5-0.1,0.7,0
					c0.2,0.1,0.3,0.2,0.4,0.5l0.2,0.6c0,0.1,0.1,0.1,0.2,0.1l5.1-1.6c0.3-0.1,0.5-0.1,0.6,0c0.2,0.1,0.3,0.2,0.4,0.5
					c0.1,0.3,0.1,0.5,0,0.6c-0.1,0.1-0.3,0.3-0.5,0.3l-6,1.9c-0.3,0.1-0.6,0.1-0.8,0c-0.2-0.1-0.4-0.3-0.5-0.7L91.7,15.6z M95.8,9.4
					c-0.1-0.2-0.3-0.3-0.6-0.3c-0.3,0-0.8,0.1-1.3,0.3c-0.5,0.2-1,0.3-1.2,0.5c-0.3,0.2-0.4,0.4-0.3,0.6c0.1,0.2,0.3,0.3,0.6,0.3
					c0.3,0,0.8-0.1,1.3-0.3c0.5-0.2,1-0.3,1.2-0.5C95.7,9.8,95.8,9.6,95.8,9.4z"/>
			</g>
		</g>
		<g>
			<g>
				<path d="M100.9,6c-0.2,0.1-0.5,0-0.7-0.1c-0.2-0.1-0.3-0.3-0.4-0.5c-0.1-0.2,0-0.5,0.1-0.6c0.1-0.2,0.3-0.3,0.6-0.3l4.3-0.9
					c0.2-0.1,0.5,0,0.7,0.1c0.2,0.1,0.3,0.3,0.4,0.5c0.1,0.3,0,0.5-0.1,0.6c-0.1,0.2-0.3,0.3-0.6,0.3L104,5.4l0.2,0.8
					c0.2,0.7,0.5,1.4,0.9,1.9c0.5,0.5,1.1,0.9,1.9,1.3c0.5,0.2,0.7,0.5,0.6,1c0,0.1-0.1,0.2-0.1,0.3c-0.1,0.1-0.2,0.2-0.3,0.2
					c-0.1,0.1-0.2,0.1-0.3,0.1c-0.1,0-0.2,0-0.4,0c-0.5-0.1-0.9-0.4-1.4-0.7c-0.5-0.3-0.8-0.6-1.2-1c-0.1,0.2-0.2,0.5-0.3,0.7
					c-0.1,0.3-0.2,0.5-0.4,0.7c-0.1,0.2-0.3,0.5-0.5,0.7c-0.2,0.2-0.3,0.4-0.5,0.6c-0.2,0.2-0.4,0.2-0.7,0.2c-0.3,0-0.5-0.1-0.6-0.3
					c-0.3-0.4-0.2-0.8,0.1-1.2c0.6-0.6,0.9-1.3,1.1-2c0.2-0.7,0.2-1.4,0.1-2.2l-0.2-0.8L100.9,6z M106.7,3.5c-0.1-0.3,0-0.5,0.1-0.7
					c0.1-0.2,0.3-0.3,0.6-0.4c0.3-0.1,0.5,0,0.7,0.1c0.2,0.1,0.3,0.3,0.4,0.6l0.5,2.4l0.8-0.2c0.2-0.1,0.5,0,0.6,0.1
					c0.2,0.1,0.3,0.3,0.4,0.6c0.1,0.3,0,0.5-0.1,0.6c-0.1,0.2-0.3,0.3-0.6,0.3l-0.8,0.2l1.1,5.1c0.1,0.3,0,0.5-0.1,0.7
					c-0.1,0.2-0.3,0.3-0.6,0.4c-0.3,0.1-0.5,0-0.7-0.1c-0.2-0.1-0.3-0.3-0.4-0.6L106.7,3.5z"/>
			</g>
		</g>
		<g>
			<g>
				<path d="M116.6,6.4c0.2,0.1,0.4,0.1,0.5,0.3s0.1,0.3,0.1,0.5l-0.3,1.1c-0.1,0.5-0.1,1.1,0,1.5c0.1,0.5,0.4,1,0.8,1.5
					c0.2,0.3,0.3,0.6,0.1,0.9c0,0.1-0.1,0.1-0.2,0.2s-0.2,0.1-0.3,0.1c-0.1,0-0.2,0-0.3,0c-0.1,0-0.2-0.1-0.2-0.1
					c-0.1-0.1-0.3-0.2-0.4-0.4c-0.1-0.2-0.2-0.3-0.3-0.5c-0.1-0.2-0.2-0.3-0.3-0.5c-0.1-0.2-0.2-0.3-0.2-0.5
					c-0.1,0.1-0.2,0.2-0.4,0.4c-0.1,0.1-0.3,0.2-0.5,0.4c-0.2,0.1-0.3,0.2-0.5,0.3c-0.2,0.1-0.4,0.2-0.5,0.2c-0.1,0-0.2,0-0.3,0
					c-0.1,0-0.2,0-0.3-0.1s-0.1-0.1-0.2-0.1c-0.1-0.1-0.1-0.1-0.1-0.2c0-0.2,0-0.3,0-0.5c0.1-0.1,0.2-0.3,0.4-0.3
					c0.6-0.3,1.1-0.7,1.4-1.1c0.3-0.4,0.6-0.9,0.7-1.4l0.3-1.1c0-0.2,0.1-0.3,0.3-0.4C116.1,6.3,116.3,6.3,116.6,6.4z M119.7,7.4
					c0-0.2,0.1-0.3,0.3-0.4c0.2-0.1,0.3-0.1,0.5-0.1c0.2,0,0.4,0.1,0.5,0.3c0.1,0.1,0.1,0.3,0.1,0.5l-1.6,6.8c0,0.2-0.1,0.3-0.3,0.4
					c-0.2,0.1-0.3,0.1-0.5,0.1c-0.2,0-0.4-0.1-0.5-0.3c-0.1-0.1-0.1-0.3-0.1-0.5l0.9-4.1l-1.1-0.3c-0.2,0-0.3-0.1-0.4-0.2
					s-0.1-0.3-0.1-0.5c0-0.2,0.1-0.3,0.3-0.4s0.3-0.1,0.5,0l1.1,0.3L119.7,7.4z"/>
			</g>
		</g>
		<g>
			<g>
				<path d="M121.4,15c-0.2,0-0.3-0.1-0.4-0.3c-0.1-0.1-0.1-0.3-0.1-0.5c0-0.2,0.1-0.3,0.3-0.4c0.1-0.1,0.3-0.1,0.5,0l2.5,0.6
					l0.3-1.3l-1.3-0.3c-0.3-0.1-0.5-0.2-0.6-0.3c-0.1-0.2-0.1-0.4,0-0.7l0.6-2.5c0.1-0.3,0.2-0.5,0.3-0.6c0.2-0.1,0.4-0.1,0.7,0
					l4.3,1c0.2,0,0.3,0.1,0.4,0.3c0.1,0.1,0.1,0.3,0.1,0.5c0,0.2-0.1,0.3-0.3,0.4c-0.1,0.1-0.3,0.1-0.5,0l-3.6-0.8c0,0-0.1,0-0.1,0
					c0,0,0,0,0,0.1l-0.4,1.6c0,0,0,0.1,0,0.1c0,0,0,0,0.1,0l3.7,0.9c0.2,0,0.3,0.1,0.4,0.3c0.1,0.1,0.1,0.3,0.1,0.5
					c0,0.2-0.1,0.3-0.3,0.4c-0.1,0.1-0.3,0.1-0.5,0l-1.6-0.4l-0.3,1.3l2.5,0.6c0.2,0,0.3,0.1,0.4,0.3c0.1,0.1,0.1,0.3,0.1,0.5
					c0,0.2-0.1,0.3-0.3,0.4c-0.1,0.1-0.3,0.1-0.5,0L121.4,15z"/>
			</g>
		</g>
		<path style="fill:#FFF697;" d="M87.5,10.6c0,0-1.7,5,1,6.9c0,0-4.2-1.5-6,1c0,0,1.5-4.2-0.8-5.7C81.7,12.7,85.5,14.9,87.5,10.6"/>
		<path style="fill:#231815;" d="M82.6,18.9c-0.1,0-0.1,0-0.2-0.1c-0.2-0.1-0.3-0.3-0.2-0.6c0,0,1.3-3.9-0.6-5.2
			c-0.2-0.1-0.3-0.4-0.1-0.6c0.1-0.2,0.4-0.3,0.6-0.2c0,0,1.4,0.8,2.8,0.3c0.9-0.3,1.7-1.1,2.3-2.3c0.1-0.2,0.4-0.3,0.6-0.2
			c0.2,0.1,0.3,0.3,0.3,0.6c0,0-1.6,4.7,0.9,6.3c0.2,0.1,0.3,0.4,0.1,0.6c-0.1,0.2-0.3,0.3-0.6,0.2c0,0-3.9-1.3-5.5,0.9
			C82.8,18.8,82.7,18.9,82.6,18.9z M83.1,13.7c0.5,1.1,0.4,2.4,0.2,3.5c1.2-0.7,2.8-0.7,3.9-0.5c-0.7-1.2-0.7-2.8-0.6-4
			c-0.5,0.4-1,0.7-1.6,0.9C84.4,13.8,83.7,13.8,83.1,13.7z"/>
		<g>
			<path style="fill:#48BBA0;" d="M137.1,5.5c0.3-0.1,0.6,0,0.8,0.1s0.3,0.3,0.4,0.7c0.1,0.3,0,0.6-0.2,0.7s-0.4,0.3-0.8,0.3
				l-1.6,0.3l0.1,0.5c0.1,0.3,0.2,0.6,0.3,0.8c0.2,0.2,0.4,0.4,0.6,0.5c0.2,0.1,0.5,0.3,0.8,0.4c0.3,0.1,0.6,0.2,1,0.3
				c0.3,0.1,0.6,0.3,0.7,0.5c0.1,0.2,0.1,0.5,0,0.8c-0.1,0.3-0.3,0.4-0.6,0.5c-0.3,0.1-0.6,0-0.9,0c-0.5-0.1-0.9-0.2-1.4-0.4
				c-0.4-0.2-0.8-0.4-1.2-0.7c-0.2,0.4-0.5,0.8-0.9,1.1c-0.4,0.4-0.7,0.7-1.2,1c-0.3,0.2-0.5,0.3-0.8,0.3c-0.3,0-0.5-0.1-0.7-0.3
				c-0.2-0.2-0.3-0.5-0.3-0.8c0-0.3,0.2-0.5,0.5-0.7c0.3-0.2,0.6-0.5,0.8-0.7c0.3-0.2,0.5-0.5,0.7-0.7c0.2-0.2,0.3-0.5,0.4-0.7
				c0.1-0.3,0.1-0.5,0-0.9l-0.1-0.5l-1.7,0.3c-0.3,0.1-0.6,0-0.8-0.1c-0.2-0.1-0.3-0.3-0.4-0.7c-0.1-0.3,0-0.6,0.2-0.7
				c0.2-0.2,0.4-0.3,0.8-0.3l1.7-0.3l-0.1-0.6c-0.1-0.3,0-0.6,0.2-0.8c0.2-0.2,0.4-0.3,0.8-0.4c0.3-0.1,0.6,0,0.8,0.1
				c0.2,0.1,0.4,0.4,0.4,0.7l0.1,0.6L137.1,5.5z M141.2,14.7c0-0.1-0.1-0.2-0.2-0.1l-6.3,1c-0.3,0-0.5,0-0.8-0.1
				c-0.2-0.1-0.4-0.4-0.4-0.7c-0.1-0.3,0-0.6,0.2-0.8c0.2-0.2,0.4-0.3,0.7-0.4l7.5-1.2c0.5-0.1,0.8,0,1.1,0.1c0.2,0.2,0.4,0.5,0.5,1
				l0.5,2.8c0.1,0.3,0,0.6-0.2,0.8c-0.2,0.2-0.5,0.4-0.8,0.4c-0.3,0.1-0.6,0-0.9-0.1c-0.2-0.2-0.4-0.4-0.5-0.7L141.2,14.7z
				 M139.6,5.1c-0.1-0.3,0-0.6,0.2-0.8c0.2-0.2,0.5-0.4,0.8-0.4c0.3-0.1,0.6,0,0.9,0.1c0.2,0.2,0.4,0.4,0.5,0.7l0.9,5.6
				c0.1,0.3,0,0.6-0.2,0.8c-0.2,0.2-0.5,0.4-0.8,0.4c-0.3,0.1-0.6,0-0.9-0.1c-0.2-0.2-0.4-0.4-0.5-0.7L140.3,9l-1.4,0.2
				c-0.3,0.1-0.6,0-0.8-0.1c-0.2-0.1-0.3-0.3-0.4-0.6c-0.1-0.3,0-0.5,0.2-0.7c0.2-0.2,0.4-0.3,0.7-0.3l1.4-0.2L139.6,5.1z"/>
		</g>
		<g>
			<path style="fill:#48BBA0;" d="M150.8,3.8c0.3-0.1,0.6,0,0.8,0.1c0.2,0.1,0.3,0.3,0.4,0.7c0.1,0.3,0,0.6-0.2,0.7
				s-0.4,0.3-0.7,0.3l-1.6,0.3l0.1,0.5c0.1,0.3,0.2,0.6,0.3,0.8c0.2,0.2,0.4,0.4,0.6,0.5c0.2,0.1,0.5,0.3,0.8,0.4
				c0.3,0.1,0.6,0.2,1,0.3c0.3,0.1,0.6,0.3,0.7,0.5c0.1,0.2,0.1,0.5,0,0.8c-0.1,0.3-0.3,0.4-0.6,0.5c-0.3,0.1-0.6,0-0.9,0
				c-0.5-0.1-0.9-0.2-1.4-0.4c-0.4-0.2-0.8-0.4-1.2-0.7c-0.2,0.4-0.5,0.8-0.9,1.1c-0.4,0.4-0.7,0.7-1.2,1c-0.3,0.2-0.6,0.3-0.8,0.3
				c-0.3,0-0.5-0.1-0.7-0.3c-0.2-0.2-0.3-0.5-0.3-0.8c0-0.3,0.2-0.5,0.5-0.7c0.3-0.2,0.6-0.5,0.8-0.7c0.3-0.2,0.5-0.5,0.7-0.7
				c0.2-0.2,0.3-0.5,0.4-0.7c0.1-0.3,0.1-0.5,0-0.9l-0.1-0.5l-1.7,0.3c-0.3,0.1-0.6,0-0.8-0.1c-0.2-0.1-0.3-0.3-0.4-0.7
				c-0.1-0.3,0-0.6,0.2-0.7c0.2-0.2,0.4-0.3,0.7-0.3l1.7-0.3l-0.1-0.6c-0.1-0.3,0-0.6,0.2-0.8c0.2-0.2,0.4-0.3,0.8-0.4
				c0.3-0.1,0.6,0,0.8,0.1c0.2,0.1,0.4,0.4,0.4,0.7l0.1,0.6L150.8,3.8z M154.8,12.9c0-0.1-0.1-0.2-0.2-0.1l-6.3,1
				c-0.3,0-0.5,0-0.8-0.1c-0.2-0.1-0.4-0.4-0.4-0.7c-0.1-0.3,0-0.6,0.2-0.8c0.2-0.2,0.4-0.3,0.7-0.4l7.5-1.2c0.5-0.1,0.8,0,1.1,0.1
				c0.2,0.2,0.4,0.5,0.5,1l0.5,2.8c0.1,0.3,0,0.6-0.2,0.9c-0.2,0.2-0.5,0.4-0.8,0.4c-0.3,0.1-0.6,0-0.9-0.1
				c-0.2-0.2-0.4-0.4-0.5-0.7L154.8,12.9z M153.3,3.4c-0.1-0.3,0-0.6,0.2-0.9c0.2-0.2,0.5-0.4,0.8-0.4c0.3-0.1,0.6,0,0.9,0.1
				c0.2,0.2,0.4,0.4,0.5,0.7l0.9,5.6c0.1,0.3,0,0.6-0.2,0.8c-0.2,0.2-0.5,0.4-0.8,0.4c-0.3,0.1-0.6,0-0.9-0.1
				c-0.2-0.2-0.4-0.4-0.5-0.7l-0.3-1.7l-1.4,0.2c-0.3,0.1-0.6,0-0.8-0.1c-0.2-0.1-0.3-0.3-0.4-0.6c-0.1-0.3,0-0.5,0.2-0.7
				c0.2-0.2,0.4-0.3,0.7-0.3l1.4-0.2L153.3,3.4z"/>
		</g>
		<g>
			<path style="fill:#48BBA0;" d="M154.5,22.8c0-3.5-3-6.3-6.6-5.9c-2.7,0.3-4.9,2.4-5.2,5.1c-0.2,1.6,0.2,3,1,4.2l4,6.2
				c0.4,0.6,1.3,0.6,1.7,0l4-6.2C154.1,25.2,154.5,24.1,154.5,22.8"/>
			<path style="fill:#FFFFFF;" d="M148.5,33.6c-0.6,0-1.1-0.3-1.5-0.8l-4-6.3c-0.9-1.3-1.4-3-1.2-4.7c0.4-3,2.9-5.5,5.9-5.8
				c1.9-0.2,3.8,0.4,5.2,1.7c1.4,1.3,2.2,3.1,2.2,5c0,1.4-0.4,2.7-1.2,3.9l-4,6.2C149.7,33.4,149.1,33.6,148.5,33.6
				C148.5,33.6,148.5,33.6,148.5,33.6z M148.5,17.7c-0.2,0-0.4,0-0.6,0c-2.3,0.3-4.2,2.1-4.5,4.4c-0.2,1.3,0.2,2.6,0.9,3.6l4,6.3
				c0,0.1,0.1,0.1,0.2,0.1l0,0c0,0,0.1,0,0.2-0.1l4-6.2c0.6-0.9,1-1.9,1-3c0-1.4-0.6-2.8-1.7-3.8C151,18.1,149.8,17.7,148.5,17.7z"
				/>
			<path style="fill:#FFFFFF;" d="M150.4,22.9c0,1-0.8,1.9-1.9,1.9c-1,0-1.9-0.8-1.9-1.9c0-1,0.8-1.9,1.9-1.9
				C149.6,21,150.4,21.8,150.4,22.9"/>
		</g>
	</g>
</g>
<g>
	<g>
		<path style="fill:#EF858C;" d="M162.7,26.2c0,0,0-2.8,2.7-3.6l20.1-5.4c0,0,2.7-0.7,5.5,0l20.6,5.5c0,0,2.7,0.7,5.5,0.1l18.9-4.6
			c0,0,2.8-0.7,2.8,2.2v39.8c0,0,0,2.8-2.8,3.5l-19.4,4.6c0,0-2.8,0.7-5.5-0.1L191,62.2c0,0-2.7-0.8-5.4,0l-20.1,5.8
			c0,0-2.7,0.8-2.7-2V26.2z"/>
		<g>
			<g>
				<path d="M170,9c-0.3,0.1-0.5,0.1-0.6,0.1c-0.2,0-0.3-0.2-0.4-0.4c-0.1-0.2,0-0.4,0.1-0.5c0.1-0.1,0.3-0.2,0.6-0.3l2.5-0.8
					L172,6.7c-0.1-0.2,0-0.4,0.1-0.6c0.1-0.2,0.3-0.3,0.6-0.4c0.3-0.1,0.5-0.1,0.7,0c0.2,0.1,0.3,0.3,0.4,0.5l0.1,0.3l2.5-0.8
					c0.3-0.1,0.5-0.1,0.6,0c0.2,0,0.3,0.2,0.4,0.4c0.1,0.2,0,0.4-0.1,0.5c-0.1,0.1-0.3,0.2-0.6,0.3L170,9z M170.9,14.8
					c-0.2,0.1-0.5,0.1-0.6,0.1c-0.2,0-0.3-0.2-0.4-0.4c-0.1-0.2-0.1-0.4,0.1-0.6c0.1-0.1,0.3-0.2,0.6-0.3l3.4-1.1l-0.2-0.6
					c-0.4,0.1-0.7,0.1-1.1,0.2c-0.3,0-0.7,0-1,0c-0.3-0.1-0.5-0.2-0.8-0.3c-0.2-0.2-0.4-0.4-0.5-0.7c-0.1-0.3-0.1-0.7,0.1-0.9
					c0.1-0.3,0.4-0.6,0.7-0.8c0.3-0.2,0.6-0.5,1.1-0.6c0.4-0.2,0.8-0.3,1.2-0.5c0.4-0.1,0.9-0.2,1.3-0.3c0.4-0.1,0.8-0.1,1.2-0.1
					c0.4,0,0.7,0.1,1,0.3c0.3,0.2,0.5,0.4,0.6,0.7c0.1,0.3,0.1,0.6,0,0.8c-0.1,0.2-0.2,0.5-0.4,0.7c-0.2,0.2-0.5,0.4-0.8,0.6
					c-0.3,0.2-0.6,0.3-1,0.5l0.2,0.6l3.4-1.1c0.2-0.1,0.5-0.1,0.6-0.1s0.3,0.2,0.4,0.4c0.1,0.2,0.1,0.4-0.1,0.6
					c-0.1,0.1-0.3,0.2-0.6,0.3L170.9,14.8z M171.7,15.6c-0.1-0.3-0.1-0.5,0.1-0.6c0.1-0.2,0.3-0.3,0.6-0.4c0.3-0.1,0.5-0.1,0.7,0
					c0.2,0.1,0.3,0.2,0.4,0.5l0.2,0.6c0,0.1,0.1,0.1,0.2,0.1l5.1-1.6c0.3-0.1,0.5-0.1,0.6,0c0.2,0.1,0.3,0.2,0.4,0.5
					c0.1,0.3,0.1,0.5,0,0.6c-0.1,0.1-0.3,0.3-0.5,0.3l-6,1.9c-0.3,0.1-0.6,0.1-0.8,0c-0.2-0.1-0.4-0.3-0.5-0.7L171.7,15.6z
					 M175.8,9.4c-0.1-0.2-0.3-0.3-0.6-0.3c-0.3,0-0.8,0.1-1.3,0.3c-0.5,0.2-1,0.3-1.2,0.5c-0.3,0.2-0.4,0.4-0.3,0.6
					c0.1,0.2,0.3,0.3,0.6,0.3c0.3,0,0.8-0.1,1.3-0.3c0.5-0.2,1-0.3,1.2-0.5C175.7,9.8,175.8,9.6,175.8,9.4z"/>
			</g>
		</g>
		<g>
			<g>
				<path d="M180.9,6c-0.2,0.1-0.5,0-0.7-0.1c-0.2-0.1-0.3-0.3-0.4-0.5c-0.1-0.2,0-0.5,0.1-0.6c0.1-0.2,0.3-0.3,0.6-0.3l4.3-0.9
					c0.2-0.1,0.5,0,0.7,0.1c0.2,0.1,0.3,0.3,0.4,0.5c0.1,0.3,0,0.5-0.1,0.6s-0.3,0.3-0.6,0.3L184,5.4l0.2,0.8
					c0.2,0.7,0.5,1.4,0.9,1.9c0.5,0.5,1.1,0.9,1.9,1.3c0.5,0.2,0.7,0.5,0.6,1c0,0.1-0.1,0.2-0.1,0.3c-0.1,0.1-0.2,0.2-0.3,0.2
					c-0.1,0.1-0.2,0.1-0.3,0.1c-0.1,0-0.2,0-0.4,0c-0.5-0.1-0.9-0.4-1.4-0.7c-0.5-0.3-0.8-0.6-1.2-1c-0.1,0.2-0.2,0.5-0.3,0.7
					c-0.1,0.3-0.2,0.5-0.4,0.7c-0.1,0.2-0.3,0.5-0.5,0.7c-0.2,0.2-0.3,0.4-0.5,0.6c-0.2,0.2-0.4,0.2-0.7,0.2c-0.3,0-0.5-0.1-0.6-0.3
					c-0.3-0.4-0.2-0.8,0.1-1.2c0.6-0.6,0.9-1.3,1.1-2c0.2-0.7,0.2-1.4,0.1-2.2l-0.2-0.8L180.9,6z M186.7,3.5c-0.1-0.3,0-0.5,0.1-0.7
					c0.1-0.2,0.3-0.3,0.6-0.4c0.3-0.1,0.5,0,0.7,0.1c0.2,0.1,0.3,0.3,0.4,0.6l0.5,2.4l0.8-0.2c0.2-0.1,0.5,0,0.6,0.1
					c0.2,0.1,0.3,0.3,0.4,0.6c0.1,0.3,0,0.5-0.1,0.6c-0.1,0.2-0.3,0.3-0.6,0.3l-0.8,0.2l1.1,5.1c0.1,0.3,0,0.5-0.1,0.7
					c-0.1,0.2-0.3,0.3-0.6,0.4c-0.3,0.1-0.5,0-0.7-0.1c-0.2-0.1-0.3-0.3-0.4-0.6L186.7,3.5z"/>
			</g>
		</g>
		<g>
			<g>
				<path d="M196.6,6.4c0.2,0.1,0.4,0.1,0.5,0.3c0.1,0.1,0.1,0.3,0.1,0.5l-0.3,1.1c-0.1,0.5-0.1,1.1,0,1.5c0.1,0.5,0.4,1,0.8,1.5
					c0.2,0.3,0.3,0.6,0.1,0.9c0,0.1-0.1,0.1-0.2,0.2s-0.2,0.1-0.3,0.1c-0.1,0-0.2,0-0.3,0c-0.1,0-0.2-0.1-0.2-0.1
					c-0.1-0.1-0.3-0.2-0.4-0.4c-0.1-0.2-0.2-0.3-0.3-0.5c-0.1-0.2-0.2-0.3-0.3-0.5c-0.1-0.2-0.2-0.3-0.2-0.5
					c-0.1,0.1-0.2,0.2-0.4,0.4c-0.1,0.1-0.3,0.2-0.5,0.4c-0.2,0.1-0.3,0.2-0.5,0.3c-0.2,0.1-0.4,0.2-0.5,0.2c-0.1,0-0.2,0-0.3,0
					c-0.1,0-0.2,0-0.3-0.1c-0.1,0-0.1-0.1-0.2-0.1c-0.1-0.1-0.1-0.1-0.1-0.2c0-0.2,0-0.3,0-0.5c0.1-0.1,0.2-0.3,0.4-0.3
					c0.6-0.3,1.1-0.7,1.4-1.1c0.3-0.4,0.6-0.9,0.7-1.4l0.3-1.1c0-0.2,0.1-0.3,0.3-0.4C196.1,6.3,196.3,6.3,196.6,6.4z M199.7,7.4
					c0-0.2,0.1-0.3,0.3-0.4c0.2-0.1,0.3-0.1,0.5-0.1c0.2,0,0.4,0.1,0.5,0.3c0.1,0.1,0.1,0.3,0.1,0.5l-1.6,6.8c0,0.2-0.1,0.3-0.3,0.4
					c-0.2,0.1-0.3,0.1-0.5,0.1c-0.2,0-0.4-0.1-0.5-0.3c-0.1-0.1-0.1-0.3-0.1-0.5l0.9-4.1l-1.1-0.3c-0.2,0-0.3-0.1-0.4-0.2
					s-0.1-0.3-0.1-0.5c0-0.2,0.1-0.3,0.3-0.4c0.1-0.1,0.3-0.1,0.5,0l1.1,0.3L199.7,7.4z"/>
			</g>
		</g>
		<g>
			<g>
				<path d="M201.4,15c-0.2,0-0.3-0.1-0.4-0.3c-0.1-0.1-0.1-0.3-0.1-0.5c0-0.2,0.1-0.3,0.3-0.4c0.1-0.1,0.3-0.1,0.5,0l2.5,0.6
					l0.3-1.3l-1.3-0.3c-0.3-0.1-0.5-0.2-0.6-0.3c-0.1-0.2-0.1-0.4,0-0.7l0.6-2.5c0.1-0.3,0.2-0.5,0.3-0.6c0.2-0.1,0.4-0.1,0.7,0
					l4.3,1c0.2,0,0.3,0.1,0.4,0.3c0.1,0.1,0.1,0.3,0.1,0.5c0,0.2-0.1,0.3-0.3,0.4c-0.1,0.1-0.3,0.1-0.5,0l-3.6-0.8c0,0-0.1,0-0.1,0
					c0,0,0,0,0,0.1l-0.4,1.6c0,0,0,0.1,0,0.1c0,0,0,0,0.1,0l3.7,0.9c0.2,0,0.3,0.1,0.4,0.3c0.1,0.1,0.1,0.3,0.1,0.5
					c0,0.2-0.1,0.3-0.3,0.4c-0.1,0.1-0.3,0.1-0.5,0l-1.6-0.4l-0.3,1.3l2.5,0.6c0.2,0,0.3,0.1,0.4,0.3c0.1,0.1,0.1,0.3,0.1,0.5
					c0,0.2-0.1,0.3-0.3,0.4c-0.1,0.1-0.3,0.1-0.5,0L201.4,15z"/>
			</g>
		</g>
		<path style="fill:#FFF697;" d="M167.5,10.6c0,0-1.7,5,1,6.9c0,0-4.2-1.5-6,1c0,0,1.5-4.2-0.8-5.7
			C161.7,12.7,165.5,14.9,167.5,10.6"/>
		<path style="fill:#231815;" d="M162.6,18.9c-0.1,0-0.1,0-0.2-0.1c-0.2-0.1-0.3-0.3-0.2-0.6c0,0,1.3-3.9-0.6-5.2
			c-0.2-0.1-0.3-0.4-0.1-0.6c0.1-0.2,0.4-0.3,0.6-0.2c0,0,1.4,0.8,2.8,0.3c0.9-0.3,1.7-1.1,2.3-2.3c0.1-0.2,0.4-0.3,0.6-0.2
			c0.2,0.1,0.3,0.3,0.3,0.6c0,0-1.6,4.7,0.9,6.3c0.2,0.1,0.3,0.4,0.1,0.6c-0.1,0.2-0.3,0.3-0.6,0.2c0,0-3.9-1.3-5.5,0.9
			C162.8,18.8,162.7,18.9,162.6,18.9z M163.1,13.7c0.5,1.1,0.4,2.4,0.2,3.5c1.2-0.7,2.8-0.7,3.9-0.5c-0.7-1.2-0.7-2.8-0.6-4
			c-0.5,0.4-1,0.7-1.6,0.9C164.4,13.8,163.7,13.8,163.1,13.7z"/>
		<g>
			<path style="fill:#EF858C;" d="M217.1,5.5c0.3-0.1,0.6,0,0.8,0.1s0.3,0.3,0.4,0.7c0.1,0.3,0,0.6-0.2,0.7s-0.4,0.3-0.8,0.3
				l-1.6,0.3l0.1,0.5c0.1,0.3,0.2,0.6,0.3,0.8c0.2,0.2,0.4,0.4,0.6,0.5c0.2,0.1,0.5,0.3,0.8,0.4c0.3,0.1,0.6,0.2,1,0.3
				c0.3,0.1,0.6,0.3,0.7,0.5c0.1,0.2,0.1,0.5,0,0.8c-0.1,0.3-0.3,0.4-0.6,0.5c-0.3,0.1-0.6,0-0.9,0c-0.5-0.1-0.9-0.2-1.4-0.4
				c-0.4-0.2-0.8-0.4-1.2-0.7c-0.2,0.4-0.5,0.8-0.9,1.1c-0.4,0.4-0.7,0.7-1.2,1c-0.3,0.2-0.5,0.3-0.8,0.3c-0.3,0-0.5-0.1-0.7-0.3
				c-0.2-0.2-0.3-0.5-0.3-0.8c0-0.3,0.2-0.5,0.5-0.7c0.3-0.2,0.6-0.5,0.8-0.7c0.3-0.2,0.5-0.5,0.7-0.7c0.2-0.2,0.3-0.5,0.4-0.7
				c0.1-0.3,0.1-0.5,0-0.9l-0.1-0.5l-1.7,0.3c-0.3,0.1-0.6,0-0.8-0.1c-0.2-0.1-0.3-0.3-0.4-0.7c-0.1-0.3,0-0.6,0.2-0.7
				c0.2-0.2,0.4-0.3,0.8-0.3l1.7-0.3l-0.1-0.6c-0.1-0.3,0-0.6,0.2-0.8c0.2-0.2,0.4-0.3,0.8-0.4c0.3-0.1,0.6,0,0.8,0.1
				c0.2,0.1,0.4,0.4,0.4,0.7l0.1,0.6L217.1,5.5z M221.2,14.7c0-0.1-0.1-0.2-0.2-0.1l-6.3,1c-0.3,0-0.5,0-0.8-0.1
				c-0.2-0.1-0.4-0.4-0.4-0.7c-0.1-0.3,0-0.6,0.2-0.8c0.2-0.2,0.4-0.3,0.7-0.4l7.5-1.2c0.5-0.1,0.8,0,1.1,0.1c0.2,0.2,0.4,0.5,0.5,1
				l0.5,2.8c0.1,0.3,0,0.6-0.2,0.8c-0.2,0.2-0.5,0.4-0.8,0.4c-0.3,0.1-0.6,0-0.9-0.1c-0.2-0.2-0.4-0.4-0.5-0.7L221.2,14.7z
				 M219.6,5.1c-0.1-0.3,0-0.6,0.2-0.8c0.2-0.2,0.5-0.4,0.8-0.4c0.3-0.1,0.6,0,0.9,0.1c0.2,0.2,0.4,0.4,0.5,0.7l0.9,5.6
				c0.1,0.3,0,0.6-0.2,0.8c-0.2,0.2-0.5,0.4-0.8,0.4c-0.3,0.1-0.6,0-0.9-0.1c-0.2-0.2-0.4-0.4-0.5-0.7L220.3,9l-1.4,0.2
				c-0.3,0.1-0.6,0-0.8-0.1c-0.2-0.1-0.3-0.3-0.4-0.6c-0.1-0.3,0-0.5,0.2-0.7c0.2-0.2,0.4-0.3,0.7-0.3l1.4-0.2L219.6,5.1z"/>
		</g>
		<g>
			<path style="fill:#EF858C;" d="M230.8,3.8c0.3-0.1,0.6,0,0.8,0.1c0.2,0.1,0.3,0.3,0.4,0.7c0.1,0.3,0,0.6-0.2,0.7
				s-0.4,0.3-0.7,0.3l-1.6,0.3l0.1,0.5c0.1,0.3,0.2,0.6,0.3,0.8c0.2,0.2,0.4,0.4,0.6,0.5c0.2,0.1,0.5,0.3,0.8,0.4
				c0.3,0.1,0.6,0.2,1,0.3c0.3,0.1,0.6,0.3,0.7,0.5c0.1,0.2,0.1,0.5,0,0.8c-0.1,0.3-0.3,0.4-0.6,0.5c-0.3,0.1-0.6,0-0.9,0
				c-0.5-0.1-0.9-0.2-1.4-0.4c-0.4-0.2-0.8-0.4-1.2-0.7c-0.2,0.4-0.5,0.8-0.9,1.1c-0.4,0.4-0.7,0.7-1.2,1c-0.3,0.2-0.6,0.3-0.8,0.3
				c-0.3,0-0.5-0.1-0.7-0.3c-0.2-0.2-0.3-0.5-0.3-0.8c0-0.3,0.2-0.5,0.5-0.7c0.3-0.2,0.6-0.5,0.8-0.7c0.3-0.2,0.5-0.5,0.7-0.7
				c0.2-0.2,0.3-0.5,0.4-0.7c0.1-0.3,0.1-0.5,0-0.9l-0.1-0.5l-1.7,0.3c-0.3,0.1-0.6,0-0.8-0.1c-0.2-0.1-0.3-0.3-0.4-0.7
				c-0.1-0.3,0-0.6,0.2-0.7c0.2-0.2,0.4-0.3,0.7-0.3l1.7-0.3l-0.1-0.6c-0.1-0.3,0-0.6,0.2-0.8c0.2-0.2,0.4-0.3,0.8-0.4
				c0.3-0.1,0.6,0,0.8,0.1c0.2,0.1,0.4,0.4,0.4,0.7l0.1,0.6L230.8,3.8z M234.8,12.9c0-0.1-0.1-0.2-0.2-0.1l-6.3,1
				c-0.3,0-0.5,0-0.8-0.1c-0.2-0.1-0.4-0.4-0.4-0.7c-0.1-0.3,0-0.6,0.2-0.8c0.2-0.2,0.4-0.3,0.7-0.4l7.5-1.2c0.5-0.1,0.8,0,1.1,0.1
				c0.2,0.2,0.4,0.5,0.5,1l0.5,2.8c0.1,0.3,0,0.6-0.2,0.9c-0.2,0.2-0.5,0.4-0.8,0.4c-0.3,0.1-0.6,0-0.9-0.1
				c-0.2-0.2-0.4-0.4-0.5-0.7L234.8,12.9z M233.3,3.4c-0.1-0.3,0-0.6,0.2-0.9c0.2-0.2,0.5-0.4,0.8-0.4c0.3-0.1,0.6,0,0.9,0.1
				c0.2,0.2,0.4,0.4,0.5,0.7l0.9,5.6c0.1,0.3,0,0.6-0.2,0.8c-0.2,0.2-0.5,0.4-0.8,0.4c-0.3,0.1-0.6,0-0.9-0.1
				c-0.2-0.2-0.4-0.4-0.5-0.7l-0.3-1.7l-1.4,0.2c-0.3,0.1-0.6,0-0.8-0.1c-0.2-0.1-0.3-0.3-0.4-0.6c-0.1-0.3,0-0.5,0.2-0.7
				c0.2-0.2,0.4-0.3,0.7-0.3l1.4-0.2L233.3,3.4z"/>
		</g>
		<g>
			<path style="fill:#EF858C;" d="M234.5,22.8c0-3.5-3-6.3-6.6-5.9c-2.7,0.3-4.9,2.4-5.2,5.1c-0.2,1.6,0.2,3,1,4.2l4,6.2
				c0.4,0.6,1.3,0.6,1.7,0l4-6.2C234.1,25.2,234.5,24.1,234.5,22.8"/>
			<path style="fill:#FFFFFF;" d="M228.5,33.6c-0.6,0-1.1-0.3-1.5-0.8l-4-6.3c-0.9-1.3-1.4-3-1.2-4.7c0.4-3,2.9-5.5,5.9-5.8
				c1.9-0.2,3.8,0.4,5.2,1.7c1.4,1.3,2.2,3.1,2.2,5c0,1.4-0.4,2.7-1.2,3.9l-4,6.2C229.7,33.4,229.1,33.6,228.5,33.6
				C228.5,33.6,228.5,33.6,228.5,33.6z M228.5,17.7c-0.2,0-0.4,0-0.6,0c-2.3,0.3-4.2,2.1-4.5,4.4c-0.2,1.3,0.2,2.6,0.9,3.6l4,6.3
				c0,0.1,0.1,0.1,0.2,0.1l0,0c0,0,0.1,0,0.2-0.1l4-6.2c0.6-0.9,1-1.9,1-3c0-1.4-0.6-2.8-1.7-3.8C231,18.1,229.8,17.7,228.5,17.7z"
				/>
			<path style="fill:#FFFFFF;" d="M230.4,22.9c0,1-0.8,1.9-1.9,1.9c-1,0-1.9-0.8-1.9-1.9c0-1,0.8-1.9,1.9-1.9
				C229.6,21,230.4,21.8,230.4,22.9"/>
		</g>
	</g>
</g>
<g>
	<g>
		<path style="fill:#6ABC6E;" d="M242.7,26.2c0,0,0-2.8,2.7-3.6l20.1-5.4c0,0,2.7-0.7,5.5,0l20.6,5.5c0,0,2.7,0.7,5.5,0.1l18.9-4.6
			c0,0,2.8-0.7,2.8,2.2v39.8c0,0,0,2.8-2.8,3.5l-19.4,4.6c0,0-2.8,0.7-5.5-0.1L271,62.2c0,0-2.7-0.8-5.4,0l-20.1,5.8
			c0,0-2.7,0.8-2.7-2V26.2z"/>
		<g>
			<g>
				<path d="M250,9c-0.3,0.1-0.5,0.1-0.6,0.1c-0.2,0-0.3-0.2-0.4-0.4c-0.1-0.2,0-0.4,0.1-0.5c0.1-0.1,0.3-0.2,0.6-0.3l2.5-0.8
					L252,6.7c-0.1-0.2,0-0.4,0.1-0.6c0.1-0.2,0.3-0.3,0.6-0.4c0.3-0.1,0.5-0.1,0.7,0c0.2,0.1,0.3,0.3,0.4,0.5l0.1,0.3l2.5-0.8
					c0.3-0.1,0.5-0.1,0.6,0c0.2,0,0.3,0.2,0.4,0.4c0.1,0.2,0,0.4-0.1,0.5c-0.1,0.1-0.3,0.2-0.6,0.3L250,9z M250.9,14.8
					c-0.2,0.1-0.5,0.1-0.6,0.1c-0.2,0-0.3-0.2-0.4-0.4c-0.1-0.2-0.1-0.4,0.1-0.6c0.1-0.1,0.3-0.2,0.6-0.3l3.4-1.1l-0.2-0.6
					c-0.4,0.1-0.7,0.1-1.1,0.2c-0.3,0-0.7,0-1,0c-0.3-0.1-0.5-0.2-0.8-0.3c-0.2-0.2-0.4-0.4-0.5-0.7c-0.1-0.3-0.1-0.7,0.1-0.9
					c0.1-0.3,0.4-0.6,0.7-0.8c0.3-0.2,0.6-0.5,1.1-0.6c0.4-0.2,0.8-0.3,1.2-0.5c0.4-0.1,0.9-0.2,1.3-0.3c0.4-0.1,0.8-0.1,1.2-0.1
					c0.4,0,0.7,0.1,1,0.3c0.3,0.2,0.5,0.4,0.6,0.7c0.1,0.3,0.1,0.6,0,0.8c-0.1,0.2-0.2,0.5-0.4,0.7c-0.2,0.2-0.5,0.4-0.8,0.6
					c-0.3,0.2-0.6,0.3-1,0.5l0.2,0.6l3.4-1.1c0.2-0.1,0.5-0.1,0.6-0.1c0.2,0,0.3,0.2,0.4,0.4c0.1,0.2,0.1,0.4-0.1,0.6
					c-0.1,0.1-0.3,0.2-0.6,0.3L250.9,14.8z M251.7,15.6c-0.1-0.3-0.1-0.5,0.1-0.6c0.1-0.2,0.3-0.3,0.6-0.4c0.3-0.1,0.5-0.1,0.7,0
					c0.2,0.1,0.3,0.2,0.4,0.5l0.2,0.6c0,0.1,0.1,0.1,0.2,0.1l5.1-1.6c0.3-0.1,0.5-0.1,0.6,0c0.2,0.1,0.3,0.2,0.4,0.5
					c0.1,0.3,0.1,0.5,0,0.6c-0.1,0.1-0.3,0.3-0.5,0.3l-6,1.9c-0.3,0.1-0.6,0.1-0.8,0c-0.2-0.1-0.4-0.3-0.5-0.7L251.7,15.6z
					 M255.8,9.4c-0.1-0.2-0.3-0.3-0.6-0.3c-0.3,0-0.8,0.1-1.3,0.3c-0.5,0.2-1,0.3-1.2,0.5c-0.3,0.2-0.4,0.4-0.3,0.6
					c0.1,0.2,0.3,0.3,0.6,0.3c0.3,0,0.8-0.1,1.3-0.3c0.5-0.2,1-0.3,1.2-0.5C255.7,9.8,255.8,9.6,255.8,9.4z"/>
			</g>
		</g>
		<g>
			<g>
				<path d="M260.9,6c-0.2,0.1-0.5,0-0.7-0.1c-0.2-0.1-0.3-0.3-0.4-0.5c-0.1-0.2,0-0.5,0.1-0.6c0.1-0.2,0.3-0.3,0.6-0.3l4.3-0.9
					c0.2-0.1,0.5,0,0.7,0.1c0.2,0.1,0.3,0.3,0.4,0.5c0.1,0.3,0,0.5-0.1,0.6s-0.3,0.3-0.6,0.3L264,5.4l0.2,0.8
					c0.2,0.7,0.5,1.4,0.9,1.9c0.5,0.5,1.1,0.9,1.9,1.3c0.5,0.2,0.7,0.5,0.6,1c0,0.1-0.1,0.2-0.1,0.3c-0.1,0.1-0.2,0.2-0.3,0.2
					c-0.1,0.1-0.2,0.1-0.3,0.1c-0.1,0-0.2,0-0.4,0c-0.5-0.1-0.9-0.4-1.4-0.7c-0.5-0.3-0.8-0.6-1.2-1c-0.1,0.2-0.2,0.5-0.3,0.7
					c-0.1,0.3-0.2,0.5-0.4,0.7c-0.1,0.2-0.3,0.5-0.5,0.7c-0.2,0.2-0.3,0.4-0.5,0.6c-0.2,0.2-0.4,0.2-0.7,0.2c-0.3,0-0.5-0.1-0.6-0.3
					c-0.3-0.4-0.2-0.8,0.1-1.2c0.6-0.6,0.9-1.3,1.1-2c0.2-0.7,0.2-1.4,0.1-2.2l-0.2-0.8L260.9,6z M266.7,3.5c-0.1-0.3,0-0.5,0.1-0.7
					c0.1-0.2,0.3-0.3,0.6-0.4c0.3-0.1,0.5,0,0.7,0.1c0.2,0.1,0.3,0.3,0.4,0.6l0.5,2.4l0.8-0.2c0.2-0.1,0.5,0,0.6,0.1
					c0.2,0.1,0.3,0.3,0.4,0.6c0.1,0.3,0,0.5-0.1,0.6c-0.1,0.2-0.3,0.3-0.6,0.3l-0.8,0.2l1.1,5.1c0.1,0.3,0,0.5-0.1,0.7
					c-0.1,0.2-0.3,0.3-0.6,0.4c-0.3,0.1-0.5,0-0.7-0.1c-0.2-0.1-0.3-0.3-0.4-0.6L266.7,3.5z"/>
			</g>
		</g>
		<g>
			<g>
				<path d="M276.6,6.4c0.2,0.1,0.4,0.1,0.5,0.3c0.1,0.1,0.1,0.3,0.1,0.5l-0.3,1.1c-0.1,0.5-0.1,1.1,0,1.5c0.1,0.5,0.4,1,0.8,1.5
					c0.2,0.3,0.3,0.6,0.1,0.9c0,0.1-0.1,0.1-0.2,0.2s-0.2,0.1-0.3,0.1c-0.1,0-0.2,0-0.3,0c-0.1,0-0.2-0.1-0.2-0.1
					c-0.1-0.1-0.3-0.2-0.4-0.4c-0.1-0.2-0.2-0.3-0.3-0.5c-0.1-0.2-0.2-0.3-0.3-0.5c-0.1-0.2-0.2-0.3-0.2-0.5
					c-0.1,0.1-0.2,0.2-0.4,0.4c-0.1,0.1-0.3,0.2-0.5,0.4c-0.2,0.1-0.3,0.2-0.5,0.3c-0.2,0.1-0.4,0.2-0.5,0.2c-0.1,0-0.2,0-0.3,0
					c-0.1,0-0.2,0-0.3-0.1s-0.1-0.1-0.2-0.1c-0.1-0.1-0.1-0.1-0.1-0.2c0-0.2,0-0.3,0-0.5c0.1-0.1,0.2-0.3,0.4-0.3
					c0.6-0.3,1.1-0.7,1.4-1.1c0.3-0.4,0.6-0.9,0.7-1.4l0.3-1.1c0-0.2,0.1-0.3,0.3-0.4C276.1,6.3,276.3,6.3,276.6,6.4z M279.7,7.4
					c0-0.2,0.1-0.3,0.3-0.4c0.2-0.1,0.3-0.1,0.5-0.1c0.2,0,0.4,0.1,0.5,0.3c0.1,0.1,0.1,0.3,0.1,0.5l-1.6,6.8c0,0.2-0.1,0.3-0.3,0.4
					c-0.2,0.1-0.3,0.1-0.5,0.1c-0.2,0-0.4-0.1-0.5-0.3c-0.1-0.1-0.1-0.3-0.1-0.5l0.9-4.1l-1.1-0.3c-0.2,0-0.3-0.1-0.4-0.2
					s-0.1-0.3-0.1-0.5c0-0.2,0.1-0.3,0.3-0.4c0.1-0.1,0.3-0.1,0.5,0l1.1,0.3L279.7,7.4z"/>
			</g>
		</g>
		<g>
			<g>
				<path d="M281.4,15c-0.2,0-0.3-0.1-0.4-0.3c-0.1-0.1-0.1-0.3-0.1-0.5c0-0.2,0.1-0.3,0.3-0.4c0.1-0.1,0.3-0.1,0.5,0l2.5,0.6
					l0.3-1.3l-1.3-0.3c-0.3-0.1-0.5-0.2-0.6-0.3c-0.1-0.2-0.1-0.4,0-0.7l0.6-2.5c0.1-0.3,0.2-0.5,0.3-0.6c0.2-0.1,0.4-0.1,0.7,0
					l4.3,1c0.2,0,0.3,0.1,0.4,0.3c0.1,0.1,0.1,0.3,0.1,0.5c0,0.2-0.1,0.3-0.3,0.4c-0.1,0.1-0.3,0.1-0.5,0l-3.6-0.8c0,0-0.1,0-0.1,0
					c0,0,0,0,0,0.1l-0.4,1.6c0,0,0,0.1,0,0.1c0,0,0,0,0.1,0l3.7,0.9c0.2,0,0.3,0.1,0.4,0.3c0.1,0.1,0.1,0.3,0.1,0.5
					c0,0.2-0.1,0.3-0.3,0.4c-0.1,0.1-0.3,0.1-0.5,0l-1.6-0.4l-0.3,1.3l2.5,0.6c0.2,0,0.3,0.1,0.4,0.3c0.1,0.1,0.1,0.3,0.1,0.5
					c0,0.2-0.1,0.3-0.3,0.4c-0.1,0.1-0.3,0.1-0.5,0L281.4,15z"/>
			</g>
		</g>
		<path style="fill:#FFF697;" d="M247.5,10.6c0,0-1.7,5,1,6.9c0,0-4.2-1.5-6,1c0,0,1.5-4.2-0.8-5.7
			C241.7,12.7,245.5,14.9,247.5,10.6"/>
		<path style="fill:#231815;" d="M242.6,18.9c-0.1,0-0.1,0-0.2-0.1c-0.2-0.1-0.3-0.3-0.2-0.6c0,0,1.3-3.9-0.6-5.2
			c-0.2-0.1-0.3-0.4-0.1-0.6c0.1-0.2,0.4-0.3,0.6-0.2c0,0,1.4,0.8,2.8,0.3c0.9-0.3,1.7-1.1,2.3-2.3c0.1-0.2,0.4-0.3,0.6-0.2
			c0.2,0.1,0.3,0.3,0.3,0.6c0,0-1.6,4.7,0.9,6.3c0.2,0.1,0.3,0.4,0.1,0.6c-0.1,0.2-0.3,0.3-0.6,0.2c0,0-3.9-1.3-5.5,0.9
			C242.8,18.8,242.7,18.9,242.6,18.9z M243.1,13.7c0.5,1.1,0.4,2.4,0.2,3.5c1.2-0.7,2.8-0.7,3.9-0.5c-0.7-1.2-0.7-2.8-0.6-4
			c-0.5,0.4-1,0.7-1.6,0.9C244.4,13.8,243.7,13.8,243.1,13.7z"/>
		<g>
			<path style="fill:#6ABC6E;" d="M297.1,5.5c0.3-0.1,0.6,0,0.8,0.1s0.3,0.3,0.4,0.7c0.1,0.3,0,0.6-0.2,0.7s-0.4,0.3-0.8,0.3
				l-1.6,0.3l0.1,0.5c0.1,0.3,0.2,0.6,0.3,0.8c0.2,0.2,0.4,0.4,0.6,0.5c0.2,0.1,0.5,0.3,0.8,0.4c0.3,0.1,0.6,0.2,1,0.3
				c0.3,0.1,0.6,0.3,0.7,0.5c0.1,0.2,0.1,0.5,0,0.8c-0.1,0.3-0.3,0.4-0.6,0.5c-0.3,0.1-0.6,0-0.9,0c-0.5-0.1-0.9-0.2-1.4-0.4
				c-0.4-0.2-0.8-0.4-1.2-0.7c-0.2,0.4-0.5,0.8-0.9,1.1c-0.4,0.4-0.7,0.7-1.2,1c-0.3,0.2-0.5,0.3-0.8,0.3c-0.3,0-0.5-0.1-0.7-0.3
				c-0.2-0.2-0.3-0.5-0.3-0.8c0-0.3,0.2-0.5,0.5-0.7c0.3-0.2,0.6-0.5,0.8-0.7c0.3-0.2,0.5-0.5,0.7-0.7c0.2-0.2,0.3-0.5,0.4-0.7
				c0.1-0.3,0.1-0.5,0-0.9l-0.1-0.5l-1.7,0.3c-0.3,0.1-0.6,0-0.8-0.1c-0.2-0.1-0.3-0.3-0.4-0.7c-0.1-0.3,0-0.6,0.2-0.7
				c0.2-0.2,0.4-0.3,0.8-0.3l1.7-0.3l-0.1-0.6c-0.1-0.3,0-0.6,0.2-0.8c0.2-0.2,0.4-0.3,0.8-0.4s0.6,0,0.8,0.1
				c0.2,0.1,0.4,0.4,0.4,0.7l0.1,0.6L297.1,5.5z M301.2,14.7c0-0.1-0.1-0.2-0.2-0.1l-6.3,1c-0.3,0-0.5,0-0.8-0.1
				c-0.2-0.1-0.4-0.4-0.4-0.7c-0.1-0.3,0-0.6,0.2-0.8c0.2-0.2,0.4-0.3,0.7-0.4l7.5-1.2c0.5-0.1,0.8,0,1.1,0.1c0.2,0.2,0.4,0.5,0.5,1
				l0.5,2.8c0.1,0.3,0,0.6-0.2,0.8s-0.5,0.4-0.8,0.4c-0.3,0.1-0.6,0-0.9-0.1c-0.2-0.2-0.4-0.4-0.5-0.7L301.2,14.7z M299.6,5.1
				c-0.1-0.3,0-0.6,0.2-0.8c0.2-0.2,0.5-0.4,0.8-0.4s0.6,0,0.9,0.1c0.2,0.2,0.4,0.4,0.5,0.7l0.9,5.6c0.1,0.3,0,0.6-0.2,0.8
				c-0.2,0.2-0.5,0.4-0.8,0.4c-0.3,0.1-0.6,0-0.9-0.1c-0.2-0.2-0.4-0.4-0.5-0.7L300.3,9l-1.4,0.2c-0.3,0.1-0.6,0-0.8-0.1
				c-0.2-0.1-0.3-0.3-0.4-0.6c-0.1-0.3,0-0.5,0.2-0.7c0.2-0.2,0.4-0.3,0.7-0.3l1.4-0.2L299.6,5.1z"/>
		</g>
		<g>
			<path style="fill:#6ABC6E;" d="M310.8,3.8c0.3-0.1,0.6,0,0.8,0.1c0.2,0.1,0.3,0.3,0.4,0.7c0.1,0.3,0,0.6-0.2,0.7
				s-0.4,0.3-0.7,0.3l-1.6,0.3l0.1,0.5c0.1,0.3,0.2,0.6,0.3,0.8c0.2,0.2,0.4,0.4,0.6,0.5c0.2,0.1,0.5,0.3,0.8,0.4
				c0.3,0.1,0.6,0.2,1,0.3c0.3,0.1,0.6,0.3,0.7,0.5c0.1,0.2,0.1,0.5,0,0.8c-0.1,0.3-0.3,0.4-0.6,0.5c-0.3,0.1-0.6,0-0.9,0
				c-0.5-0.1-0.9-0.2-1.4-0.4c-0.4-0.2-0.8-0.4-1.2-0.7c-0.2,0.4-0.5,0.8-0.9,1.1c-0.4,0.4-0.7,0.7-1.2,1c-0.3,0.2-0.6,0.3-0.8,0.3
				c-0.3,0-0.5-0.1-0.7-0.3c-0.2-0.2-0.3-0.5-0.3-0.8c0-0.3,0.2-0.5,0.5-0.7c0.3-0.2,0.6-0.5,0.8-0.7c0.3-0.2,0.5-0.5,0.7-0.7
				c0.2-0.2,0.3-0.5,0.4-0.7c0.1-0.3,0.1-0.5,0-0.9l-0.1-0.5l-1.7,0.3c-0.3,0.1-0.6,0-0.8-0.1c-0.2-0.1-0.3-0.3-0.4-0.7
				c-0.1-0.3,0-0.6,0.2-0.7c0.2-0.2,0.4-0.3,0.7-0.3l1.7-0.3l-0.1-0.6c-0.1-0.3,0-0.6,0.2-0.8c0.2-0.2,0.4-0.3,0.8-0.4
				c0.3-0.1,0.6,0,0.8,0.1c0.2,0.1,0.4,0.4,0.4,0.7l0.1,0.6L310.8,3.8z M314.8,12.9c0-0.1-0.1-0.2-0.2-0.1l-6.3,1
				c-0.3,0-0.5,0-0.8-0.1c-0.2-0.1-0.4-0.4-0.4-0.7c-0.1-0.3,0-0.6,0.2-0.8c0.2-0.2,0.4-0.3,0.7-0.4l7.5-1.2c0.5-0.1,0.8,0,1.1,0.1
				c0.2,0.2,0.4,0.5,0.5,1l0.5,2.8c0.1,0.3,0,0.6-0.2,0.9c-0.2,0.2-0.5,0.4-0.8,0.4c-0.3,0.1-0.6,0-0.9-0.1
				c-0.2-0.2-0.4-0.4-0.5-0.7L314.8,12.9z M313.3,3.4c-0.1-0.3,0-0.6,0.2-0.9c0.2-0.2,0.5-0.4,0.8-0.4c0.3-0.1,0.6,0,0.9,0.1
				c0.2,0.2,0.4,0.4,0.5,0.7l0.9,5.6c0.1,0.3,0,0.6-0.2,0.8c-0.2,0.2-0.5,0.4-0.8,0.4c-0.3,0.1-0.6,0-0.9-0.1
				c-0.2-0.2-0.4-0.4-0.5-0.7l-0.3-1.7l-1.4,0.2c-0.3,0.1-0.6,0-0.8-0.1c-0.2-0.1-0.3-0.3-0.4-0.6c-0.1-0.3,0-0.5,0.2-0.7
				c0.2-0.2,0.4-0.3,0.7-0.3l1.4-0.2L313.3,3.4z"/>
		</g>
		<g>
			<path style="fill:#6ABC6E;" d="M314.5,22.8c0-3.5-3-6.3-6.6-5.9c-2.7,0.3-4.9,2.4-5.2,5.1c-0.2,1.6,0.2,3,1,4.2l4,6.2
				c0.4,0.6,1.3,0.6,1.7,0l4-6.2C314.1,25.2,314.5,24.1,314.5,22.8"/>
			<path style="fill:#FFFFFF;" d="M308.5,33.6c-0.6,0-1.1-0.3-1.5-0.8l-4-6.3c-0.9-1.3-1.4-3-1.2-4.7c0.4-3,2.9-5.5,5.9-5.8
				c1.9-0.2,3.8,0.4,5.2,1.7c1.4,1.3,2.2,3.1,2.2,5c0,1.4-0.4,2.7-1.2,3.9l-4,6.2C309.7,33.4,309.1,33.6,308.5,33.6
				C308.5,33.6,308.5,33.6,308.5,33.6z M308.5,17.7c-0.2,0-0.4,0-0.6,0c-2.3,0.3-4.2,2.1-4.5,4.4c-0.2,1.3,0.2,2.6,0.9,3.6l4,6.3
				c0,0.1,0.1,0.1,0.2,0.1l0,0c0,0,0.1,0,0.2-0.1l4-6.2c0.6-0.9,1-1.9,1-3c0-1.4-0.6-2.8-1.7-3.8C311,18.1,309.8,17.7,308.5,17.7z"
				/>
			<path style="fill:#FFFFFF;" d="M310.4,22.9c0,1-0.8,1.9-1.9,1.9c-1,0-1.9-0.8-1.9-1.9c0-1,0.8-1.9,1.9-1.9
				C309.6,21,310.4,21.8,310.4,22.9"/>
		</g>
	</g>
</g>
<g>
	<g>
		<path style="fill:#7484C0;" d="M322.7,26.2c0,0,0-2.8,2.7-3.6l20.1-5.4c0,0,2.7-0.7,5.5,0l20.6,5.5c0,0,2.7,0.7,5.5,0.1l18.9-4.6
			c0,0,2.8-0.7,2.8,2.2v39.8c0,0,0,2.8-2.8,3.5l-19.4,4.6c0,0-2.8,0.7-5.5-0.1L351,62.2c0,0-2.7-0.8-5.4,0l-20.1,5.8
			c0,0-2.7,0.8-2.7-2V26.2z"/>
		<g>
			<g>
				<path d="M330,9c-0.3,0.1-0.5,0.1-0.6,0.1c-0.2,0-0.3-0.2-0.4-0.4c-0.1-0.2,0-0.4,0.1-0.5c0.1-0.1,0.3-0.2,0.6-0.3l2.5-0.8
					L332,6.7c-0.1-0.2,0-0.4,0.1-0.6c0.1-0.2,0.3-0.3,0.6-0.4c0.3-0.1,0.5-0.1,0.7,0c0.2,0.1,0.3,0.3,0.4,0.5l0.1,0.3l2.5-0.8
					c0.3-0.1,0.5-0.1,0.6,0c0.2,0,0.3,0.2,0.4,0.4c0.1,0.2,0,0.4-0.1,0.5c-0.1,0.1-0.3,0.2-0.6,0.3L330,9z M330.9,14.8
					c-0.2,0.1-0.5,0.1-0.6,0.1c-0.2,0-0.3-0.2-0.4-0.4c-0.1-0.2,0-0.4,0.1-0.6c0.1-0.1,0.3-0.2,0.6-0.3l3.4-1.1l-0.2-0.6
					c-0.4,0.1-0.7,0.1-1.1,0.2c-0.3,0-0.7,0-1,0c-0.3-0.1-0.5-0.2-0.8-0.3c-0.2-0.2-0.4-0.4-0.5-0.7c-0.1-0.3-0.1-0.7,0.1-0.9
					c0.1-0.3,0.4-0.6,0.7-0.8c0.3-0.2,0.6-0.5,1.1-0.6c0.4-0.2,0.8-0.3,1.2-0.5c0.4-0.1,0.9-0.2,1.3-0.3c0.4-0.1,0.8-0.1,1.2-0.1
					c0.4,0,0.7,0.1,1,0.3c0.3,0.2,0.5,0.4,0.6,0.7c0.1,0.3,0.1,0.6,0,0.8c-0.1,0.2-0.2,0.5-0.4,0.7c-0.2,0.2-0.5,0.4-0.8,0.6
					c-0.3,0.2-0.6,0.3-1,0.5l0.2,0.6l3.4-1.1c0.2-0.1,0.5-0.1,0.6-0.1c0.2,0,0.3,0.2,0.4,0.4c0.1,0.2,0.1,0.4-0.1,0.6
					c-0.1,0.1-0.3,0.2-0.6,0.3L330.9,14.8z M331.7,15.6c-0.1-0.3-0.1-0.5,0.1-0.6c0.1-0.2,0.3-0.3,0.6-0.4c0.3-0.1,0.5-0.1,0.7,0
					c0.2,0.1,0.3,0.2,0.4,0.5l0.2,0.6c0,0.1,0.1,0.1,0.2,0.1l5.1-1.6c0.3-0.1,0.5-0.1,0.6,0c0.2,0.1,0.3,0.2,0.4,0.5
					c0.1,0.3,0.1,0.5,0,0.6c-0.1,0.1-0.3,0.3-0.5,0.3l-6,1.9c-0.3,0.1-0.6,0.1-0.8,0c-0.2-0.1-0.4-0.3-0.5-0.7L331.7,15.6z
					 M335.8,9.4c-0.1-0.2-0.3-0.3-0.6-0.3c-0.3,0-0.8,0.1-1.3,0.3c-0.5,0.2-1,0.3-1.2,0.5c-0.3,0.2-0.4,0.4-0.3,0.6
					c0.1,0.2,0.3,0.3,0.6,0.3c0.3,0,0.8-0.1,1.3-0.3c0.5-0.2,1-0.3,1.2-0.5C335.7,9.8,335.8,9.6,335.8,9.4z"/>
			</g>
		</g>
		<g>
			<g>
				<path d="M340.9,6c-0.2,0.1-0.5,0-0.7-0.1c-0.2-0.1-0.3-0.3-0.4-0.5c-0.1-0.2,0-0.5,0.1-0.6c0.1-0.2,0.3-0.3,0.6-0.3l4.3-0.9
					c0.2-0.1,0.5,0,0.7,0.1c0.2,0.1,0.3,0.3,0.4,0.5c0.1,0.3,0,0.5-0.1,0.6s-0.3,0.3-0.6,0.3L344,5.4l0.2,0.8
					c0.2,0.7,0.5,1.4,0.9,1.9c0.5,0.5,1.1,0.9,1.9,1.3c0.5,0.2,0.7,0.5,0.6,1c0,0.1-0.1,0.2-0.1,0.3c-0.1,0.1-0.2,0.2-0.3,0.2
					c-0.1,0.1-0.2,0.1-0.3,0.1c-0.1,0-0.2,0-0.4,0c-0.5-0.1-0.9-0.4-1.4-0.7c-0.5-0.3-0.8-0.6-1.2-1c-0.1,0.2-0.2,0.5-0.3,0.7
					c-0.1,0.3-0.2,0.5-0.4,0.7c-0.1,0.2-0.3,0.5-0.5,0.7c-0.2,0.2-0.3,0.4-0.5,0.6c-0.2,0.2-0.4,0.2-0.7,0.2c-0.3,0-0.5-0.1-0.6-0.3
					c-0.3-0.4-0.2-0.8,0.1-1.2c0.6-0.6,0.9-1.3,1.1-2c0.2-0.7,0.2-1.4,0.1-2.2l-0.2-0.8L340.9,6z M346.7,3.5c-0.1-0.3,0-0.5,0.1-0.7
					c0.1-0.2,0.3-0.3,0.6-0.4c0.3-0.1,0.5,0,0.7,0.1c0.2,0.1,0.3,0.3,0.4,0.6l0.5,2.4l0.8-0.2c0.2-0.1,0.5,0,0.6,0.1
					c0.2,0.1,0.3,0.3,0.4,0.6c0.1,0.3,0,0.5-0.1,0.6c-0.1,0.2-0.3,0.3-0.6,0.3l-0.8,0.2l1.1,5.1c0.1,0.3,0,0.5-0.1,0.7
					c-0.1,0.2-0.3,0.3-0.6,0.4c-0.3,0.1-0.5,0-0.7-0.1c-0.2-0.1-0.3-0.3-0.4-0.6L346.7,3.5z"/>
			</g>
		</g>
		<g>
			<g>
				<path d="M356.6,6.4c0.2,0.1,0.4,0.1,0.5,0.3c0.1,0.1,0.1,0.3,0.1,0.5l-0.3,1.1c-0.1,0.5-0.1,1.1,0,1.5c0.1,0.5,0.4,1,0.8,1.5
					c0.2,0.3,0.3,0.6,0.1,0.9c0,0.1-0.1,0.1-0.2,0.2s-0.2,0.1-0.3,0.1c-0.1,0-0.2,0-0.3,0c-0.1,0-0.2-0.1-0.2-0.1
					c-0.1-0.1-0.3-0.2-0.4-0.4c-0.1-0.2-0.2-0.3-0.3-0.5c-0.1-0.2-0.2-0.3-0.3-0.5c-0.1-0.2-0.2-0.3-0.2-0.5
					c-0.1,0.1-0.2,0.2-0.4,0.4c-0.1,0.1-0.3,0.2-0.5,0.4c-0.2,0.1-0.3,0.2-0.5,0.3c-0.2,0.1-0.4,0.2-0.5,0.2c-0.1,0-0.2,0-0.3,0
					c-0.1,0-0.2,0-0.3-0.1s-0.1-0.1-0.2-0.1c-0.1-0.1-0.1-0.1-0.1-0.2c0-0.2,0-0.3,0-0.5c0.1-0.1,0.2-0.3,0.4-0.3
					c0.6-0.3,1.1-0.7,1.4-1.1c0.3-0.4,0.6-0.9,0.7-1.4l0.3-1.1c0-0.2,0.1-0.3,0.3-0.4C356.1,6.3,356.3,6.3,356.6,6.4z M359.7,7.4
					c0-0.2,0.1-0.3,0.3-0.4c0.2-0.1,0.3-0.1,0.5-0.1c0.2,0,0.4,0.1,0.5,0.3c0.1,0.1,0.1,0.3,0.1,0.5l-1.6,6.8c0,0.2-0.1,0.3-0.3,0.4
					c-0.2,0.1-0.3,0.1-0.5,0.1c-0.2,0-0.4-0.1-0.5-0.3c-0.1-0.1-0.1-0.3-0.1-0.5l0.9-4.1l-1.1-0.3c-0.2,0-0.3-0.1-0.4-0.2
					s-0.1-0.3-0.1-0.5c0-0.2,0.1-0.3,0.3-0.4c0.1-0.1,0.3-0.1,0.5,0l1.1,0.3L359.7,7.4z"/>
			</g>
		</g>
		<g>
			<g>
				<path d="M361.4,15c-0.2,0-0.3-0.1-0.4-0.3c-0.1-0.1-0.1-0.3-0.1-0.5c0-0.2,0.1-0.3,0.3-0.4c0.1-0.1,0.3-0.1,0.5,0l2.5,0.6
					l0.3-1.3l-1.3-0.3c-0.3-0.1-0.5-0.2-0.6-0.3c-0.1-0.2-0.1-0.4,0-0.7l0.6-2.5c0.1-0.3,0.2-0.5,0.3-0.6c0.2-0.1,0.4-0.1,0.7,0
					l4.3,1c0.2,0,0.3,0.1,0.4,0.3c0.1,0.1,0.1,0.3,0.1,0.5c0,0.2-0.1,0.3-0.3,0.4c-0.1,0.1-0.3,0.1-0.5,0l-3.6-0.8c0,0-0.1,0-0.1,0
					c0,0,0,0,0,0.1l-0.4,1.6c0,0,0,0.1,0,0.1c0,0,0,0,0.1,0l3.7,0.9c0.2,0,0.3,0.1,0.4,0.3c0.1,0.1,0.1,0.3,0.1,0.5
					c0,0.2-0.1,0.3-0.3,0.4c-0.1,0.1-0.3,0.1-0.5,0l-1.6-0.4l-0.3,1.3l2.5,0.6c0.2,0,0.3,0.1,0.4,0.3c0.1,0.1,0.1,0.3,0.1,0.5
					c0,0.2-0.1,0.3-0.3,0.4c-0.1,0.1-0.3,0.1-0.5,0L361.4,15z"/>
			</g>
		</g>
		<path style="fill:#FFF697;" d="M327.5,10.6c0,0-1.7,5,1,6.9c0,0-4.2-1.5-6,1c0,0,1.5-4.2-0.8-5.7
			C321.7,12.7,325.5,14.9,327.5,10.6"/>
		<path style="fill:#231815;" d="M322.6,18.9c-0.1,0-0.1,0-0.2-0.1c-0.2-0.1-0.3-0.3-0.2-0.6c0,0,1.3-3.9-0.6-5.2
			c-0.2-0.1-0.3-0.4-0.1-0.6c0.1-0.2,0.4-0.3,0.6-0.2c0,0,1.4,0.8,2.8,0.3c0.9-0.3,1.7-1.1,2.3-2.3c0.1-0.2,0.4-0.3,0.6-0.2
			c0.2,0.1,0.3,0.3,0.3,0.6c0,0-1.6,4.7,0.9,6.3c0.2,0.1,0.3,0.4,0.1,0.6c-0.1,0.2-0.3,0.3-0.6,0.2c0,0-3.9-1.3-5.5,0.9
			C322.8,18.8,322.7,18.9,322.6,18.9z M323.1,13.7c0.5,1.1,0.4,2.4,0.2,3.5c1.2-0.7,2.8-0.7,3.9-0.5c-0.7-1.2-0.7-2.8-0.6-4
			c-0.5,0.4-1,0.7-1.6,0.9C324.4,13.8,323.7,13.8,323.1,13.7z"/>
		<g>
			<path style="fill:#7484C0;" d="M377.1,5.5c0.3-0.1,0.6,0,0.8,0.1s0.3,0.3,0.4,0.7c0.1,0.3,0,0.6-0.2,0.7s-0.4,0.3-0.8,0.3
				l-1.6,0.3l0.1,0.5c0.1,0.3,0.2,0.6,0.3,0.8c0.2,0.2,0.4,0.4,0.6,0.5c0.2,0.1,0.5,0.3,0.8,0.4c0.3,0.1,0.6,0.2,1,0.3
				c0.3,0.1,0.6,0.3,0.7,0.5c0.1,0.2,0.1,0.5,0,0.8c-0.1,0.3-0.3,0.4-0.6,0.5c-0.3,0.1-0.6,0-0.9,0c-0.5-0.1-0.9-0.2-1.4-0.4
				c-0.4-0.2-0.8-0.4-1.2-0.7c-0.2,0.4-0.5,0.8-0.9,1.1c-0.4,0.4-0.7,0.7-1.2,1c-0.3,0.2-0.5,0.3-0.8,0.3c-0.3,0-0.5-0.1-0.7-0.3
				c-0.2-0.2-0.3-0.5-0.3-0.8c0-0.3,0.2-0.5,0.5-0.7c0.3-0.2,0.6-0.5,0.8-0.7c0.3-0.2,0.5-0.5,0.7-0.7c0.2-0.2,0.3-0.5,0.4-0.7
				c0.1-0.3,0.1-0.5,0-0.9l-0.1-0.5l-1.7,0.3c-0.3,0.1-0.6,0-0.8-0.1c-0.2-0.1-0.3-0.3-0.4-0.7c-0.1-0.3,0-0.6,0.2-0.7
				c0.2-0.2,0.4-0.3,0.8-0.3l1.7-0.3l-0.1-0.6c-0.1-0.3,0-0.6,0.2-0.8c0.2-0.2,0.4-0.3,0.8-0.4s0.6,0,0.8,0.1
				c0.2,0.1,0.4,0.4,0.4,0.7l0.1,0.6L377.1,5.5z M381.2,14.7c0-0.1-0.1-0.2-0.2-0.1l-6.3,1c-0.3,0-0.5,0-0.8-0.1
				c-0.2-0.1-0.4-0.4-0.4-0.7c-0.1-0.3,0-0.6,0.2-0.8c0.2-0.2,0.4-0.3,0.7-0.4l7.5-1.2c0.5-0.1,0.8,0,1.1,0.1c0.2,0.2,0.4,0.5,0.5,1
				l0.5,2.8c0.1,0.3,0,0.6-0.2,0.8s-0.5,0.4-0.8,0.4c-0.3,0.1-0.6,0-0.9-0.1c-0.2-0.2-0.4-0.4-0.5-0.7L381.2,14.7z M379.6,5.1
				c-0.1-0.3,0-0.6,0.2-0.8c0.2-0.2,0.5-0.4,0.8-0.4s0.6,0,0.9,0.1c0.2,0.2,0.4,0.4,0.5,0.7l0.9,5.6c0.1,0.3,0,0.6-0.2,0.8
				c-0.2,0.2-0.5,0.4-0.8,0.4c-0.3,0.1-0.6,0-0.9-0.1c-0.2-0.2-0.4-0.4-0.5-0.7L380.3,9l-1.4,0.2c-0.3,0.1-0.6,0-0.8-0.1
				c-0.2-0.1-0.3-0.3-0.4-0.6c-0.1-0.3,0-0.5,0.2-0.7c0.2-0.2,0.4-0.3,0.7-0.3l1.4-0.2L379.6,5.1z"/>
		</g>
		<g>
			<path style="fill:#7484C0;" d="M390.8,3.8c0.3-0.1,0.6,0,0.8,0.1c0.2,0.1,0.3,0.3,0.4,0.7c0.1,0.3,0,0.6-0.2,0.7
				s-0.4,0.3-0.7,0.3l-1.6,0.3l0.1,0.5c0.1,0.3,0.2,0.6,0.3,0.8c0.2,0.2,0.4,0.4,0.6,0.5c0.2,0.1,0.5,0.3,0.8,0.4
				c0.3,0.1,0.6,0.2,1,0.3c0.3,0.1,0.6,0.3,0.7,0.5c0.1,0.2,0.1,0.5,0,0.8c-0.1,0.3-0.3,0.4-0.6,0.5c-0.3,0.1-0.6,0-0.9,0
				c-0.5-0.1-0.9-0.2-1.4-0.4c-0.4-0.2-0.8-0.4-1.2-0.7c-0.2,0.4-0.5,0.8-0.9,1.1c-0.4,0.4-0.7,0.7-1.2,1c-0.3,0.2-0.6,0.3-0.8,0.3
				c-0.3,0-0.5-0.1-0.7-0.3c-0.2-0.2-0.3-0.5-0.3-0.8c0-0.3,0.2-0.5,0.5-0.7c0.3-0.2,0.6-0.5,0.8-0.7c0.3-0.2,0.5-0.5,0.7-0.7
				c0.2-0.2,0.3-0.5,0.4-0.7c0.1-0.3,0.1-0.5,0-0.9l-0.1-0.5l-1.7,0.3c-0.3,0.1-0.6,0-0.8-0.1c-0.2-0.1-0.3-0.3-0.4-0.7
				c-0.1-0.3,0-0.6,0.2-0.7c0.2-0.2,0.4-0.3,0.7-0.3l1.7-0.3l-0.1-0.6c-0.1-0.3,0-0.6,0.2-0.8c0.2-0.2,0.4-0.3,0.8-0.4
				c0.3-0.1,0.6,0,0.8,0.1c0.2,0.1,0.4,0.4,0.4,0.7l0.1,0.6L390.8,3.8z M394.8,12.9c0-0.1-0.1-0.2-0.2-0.1l-6.3,1
				c-0.3,0-0.5,0-0.8-0.1c-0.2-0.1-0.4-0.4-0.4-0.7c-0.1-0.3,0-0.6,0.2-0.8c0.2-0.2,0.4-0.3,0.7-0.4l7.5-1.2c0.5-0.1,0.8,0,1.1,0.1
				c0.2,0.2,0.4,0.5,0.5,1l0.5,2.8c0.1,0.3,0,0.6-0.2,0.9c-0.2,0.2-0.5,0.4-0.8,0.4c-0.3,0.1-0.6,0-0.9-0.1
				c-0.2-0.2-0.4-0.4-0.5-0.7L394.8,12.9z M393.3,3.4c-0.1-0.3,0-0.6,0.2-0.9c0.2-0.2,0.5-0.4,0.8-0.4c0.3-0.1,0.6,0,0.9,0.1
				c0.2,0.2,0.4,0.4,0.5,0.7l0.9,5.6c0.1,0.3,0,0.6-0.2,0.8c-0.2,0.2-0.5,0.4-0.8,0.4c-0.3,0.1-0.6,0-0.9-0.1
				c-0.2-0.2-0.4-0.4-0.5-0.7l-0.3-1.7l-1.4,0.2c-0.3,0.1-0.6,0-0.8-0.1c-0.2-0.1-0.3-0.3-0.4-0.6c-0.1-0.3,0-0.5,0.2-0.7
				c0.2-0.2,0.4-0.3,0.7-0.3l1.4-0.2L393.3,3.4z"/>
		</g>
		<g>
			<path style="fill:#7484C0;" d="M394.5,22.8c0-3.5-3-6.3-6.6-5.9c-2.7,0.3-4.9,2.4-5.2,5.1c-0.2,1.6,0.2,3,1,4.2l4,6.2
				c0.4,0.6,1.3,0.6,1.7,0l4-6.2C394.1,25.2,394.5,24.1,394.5,22.8"/>
			<path style="fill:#FFFFFF;" d="M388.5,33.6c-0.6,0-1.1-0.3-1.5-0.8l-4-6.3c-0.9-1.3-1.4-3-1.2-4.7c0.4-3,2.9-5.5,5.9-5.8
				c1.9-0.2,3.8,0.4,5.2,1.7c1.4,1.3,2.2,3.1,2.2,5c0,1.4-0.4,2.7-1.2,3.9l-4,6.2C389.7,33.4,389.1,33.6,388.5,33.6
				C388.5,33.6,388.5,33.6,388.5,33.6z M388.5,17.7c-0.2,0-0.4,0-0.6,0c-2.3,0.3-4.2,2.1-4.5,4.4c-0.2,1.3,0.2,2.6,0.9,3.6l4,6.3
				c0,0.1,0.1,0.1,0.2,0.1l0,0c0,0,0.1,0,0.2-0.1l4-6.2c0.6-0.9,1-1.9,1-3c0-1.4-0.6-2.8-1.7-3.8C391,18.1,389.8,17.7,388.5,17.7z"
				/>
			<path style="fill:#FFFFFF;" d="M390.4,22.9c0,1-0.8,1.9-1.9,1.9c-1,0-1.9-0.8-1.9-1.9c0-1,0.8-1.9,1.9-1.9
				C389.6,21,390.4,21.8,390.4,22.9"/>
		</g>
	</g>
</g>
<g>
	<g>
		<path style="fill:#6C9BD2;" d="M402.7,26.2c0,0,0-2.8,2.7-3.6l20.1-5.4c0,0,2.7-0.7,5.5,0l20.6,5.5c0,0,2.7,0.7,5.5,0.1l18.9-4.6
			c0,0,2.8-0.7,2.8,2.2v39.8c0,0,0,2.8-2.8,3.5l-19.4,4.6c0,0-2.8,0.7-5.5-0.1L431,62.2c0,0-2.7-0.8-5.4,0l-20.1,5.8
			c0,0-2.7,0.8-2.7-2V26.2z"/>
		<g>
			<g>
				<path d="M410,9c-0.3,0.1-0.5,0.1-0.6,0.1c-0.2,0-0.3-0.2-0.4-0.4c-0.1-0.2,0-0.4,0.1-0.5c0.1-0.1,0.3-0.2,0.6-0.3l2.5-0.8
					L412,6.7c-0.1-0.2,0-0.4,0.1-0.6c0.1-0.2,0.3-0.3,0.6-0.4c0.3-0.1,0.5-0.1,0.7,0c0.2,0.1,0.3,0.3,0.4,0.5l0.1,0.3l2.5-0.8
					c0.3-0.1,0.5-0.1,0.6,0c0.2,0,0.3,0.2,0.4,0.4c0.1,0.2,0,0.4-0.1,0.5c-0.1,0.1-0.3,0.2-0.6,0.3L410,9z M410.9,14.8
					c-0.2,0.1-0.5,0.1-0.6,0.1c-0.2,0-0.3-0.2-0.4-0.4c-0.1-0.2,0-0.4,0.1-0.6c0.1-0.1,0.3-0.2,0.6-0.3l3.4-1.1l-0.2-0.6
					c-0.4,0.1-0.7,0.1-1.1,0.2c-0.3,0-0.7,0-1,0c-0.3-0.1-0.5-0.2-0.8-0.3c-0.2-0.2-0.4-0.4-0.5-0.7c-0.1-0.3-0.1-0.7,0.1-0.9
					c0.1-0.3,0.4-0.6,0.7-0.8c0.3-0.2,0.6-0.5,1.1-0.6c0.4-0.2,0.8-0.3,1.2-0.5c0.4-0.1,0.9-0.2,1.3-0.3c0.4-0.1,0.8-0.1,1.2-0.1
					c0.4,0,0.7,0.1,1,0.3c0.3,0.2,0.5,0.4,0.6,0.7c0.1,0.3,0.1,0.6,0,0.8c-0.1,0.2-0.2,0.5-0.4,0.7c-0.2,0.2-0.5,0.4-0.8,0.6
					c-0.3,0.2-0.6,0.3-1,0.5l0.2,0.6l3.4-1.1c0.2-0.1,0.5-0.1,0.6-0.1c0.2,0,0.3,0.2,0.4,0.4c0.1,0.2,0.1,0.4-0.1,0.6
					c-0.1,0.1-0.3,0.2-0.6,0.3L410.9,14.8z M411.7,15.6c-0.1-0.3-0.1-0.5,0.1-0.6c0.1-0.2,0.3-0.3,0.6-0.4c0.3-0.1,0.5-0.1,0.7,0
					c0.2,0.1,0.3,0.2,0.4,0.5l0.2,0.6c0,0.1,0.1,0.1,0.2,0.1l5.1-1.6c0.3-0.1,0.5-0.1,0.6,0c0.2,0.1,0.3,0.2,0.4,0.5
					c0.1,0.3,0.1,0.5,0,0.6c-0.1,0.1-0.3,0.3-0.5,0.3l-6,1.9c-0.3,0.1-0.6,0.1-0.8,0c-0.2-0.1-0.4-0.3-0.5-0.7L411.7,15.6z
					 M415.8,9.4c-0.1-0.2-0.3-0.3-0.6-0.3c-0.3,0-0.8,0.1-1.3,0.3c-0.5,0.2-1,0.3-1.2,0.5c-0.3,0.2-0.4,0.4-0.3,0.6
					c0.1,0.2,0.3,0.3,0.6,0.3c0.3,0,0.8-0.1,1.3-0.3c0.5-0.2,1-0.3,1.2-0.5C415.7,9.8,415.8,9.6,415.8,9.4z"/>
			</g>
		</g>
		<g>
			<g>
				<path d="M420.9,6c-0.2,0.1-0.5,0-0.7-0.1c-0.2-0.1-0.3-0.3-0.4-0.5c-0.1-0.2,0-0.5,0.1-0.6c0.1-0.2,0.3-0.3,0.6-0.3l4.3-0.9
					c0.2-0.1,0.5,0,0.7,0.1c0.2,0.1,0.3,0.3,0.4,0.5c0.1,0.3,0,0.5-0.1,0.6s-0.3,0.3-0.6,0.3L424,5.4l0.2,0.8
					c0.2,0.7,0.5,1.4,0.9,1.9c0.5,0.5,1.1,0.9,1.9,1.3c0.5,0.2,0.7,0.5,0.6,1c0,0.1-0.1,0.2-0.1,0.3c-0.1,0.1-0.2,0.2-0.3,0.2
					c-0.1,0.1-0.2,0.1-0.3,0.1c-0.1,0-0.2,0-0.4,0c-0.5-0.1-0.9-0.4-1.4-0.7c-0.5-0.3-0.8-0.6-1.2-1c-0.1,0.2-0.2,0.5-0.3,0.7
					c-0.1,0.3-0.2,0.5-0.4,0.7c-0.1,0.2-0.3,0.5-0.5,0.7c-0.2,0.2-0.3,0.4-0.5,0.6c-0.2,0.2-0.4,0.2-0.7,0.2c-0.3,0-0.5-0.1-0.6-0.3
					c-0.3-0.4-0.2-0.8,0.1-1.2c0.6-0.6,0.9-1.3,1.1-2c0.2-0.7,0.2-1.4,0.1-2.2l-0.2-0.8L420.9,6z M426.7,3.5c-0.1-0.3,0-0.5,0.1-0.7
					c0.1-0.2,0.3-0.3,0.6-0.4c0.3-0.1,0.5,0,0.7,0.1c0.2,0.1,0.3,0.3,0.4,0.6l0.5,2.4l0.8-0.2c0.2-0.1,0.5,0,0.6,0.1
					c0.2,0.1,0.3,0.3,0.4,0.6c0.1,0.3,0,0.5-0.1,0.6c-0.1,0.2-0.3,0.3-0.6,0.3l-0.8,0.2l1.1,5.1c0.1,0.3,0,0.5-0.1,0.7
					c-0.1,0.2-0.3,0.3-0.6,0.4c-0.3,0.1-0.5,0-0.7-0.1c-0.2-0.1-0.3-0.3-0.4-0.6L426.7,3.5z"/>
			</g>
		</g>
		<g>
			<g>
				<path d="M436.6,6.4c0.2,0.1,0.4,0.1,0.5,0.3c0.1,0.1,0.1,0.3,0.1,0.5l-0.3,1.1c-0.1,0.5-0.1,1.1,0,1.5c0.1,0.5,0.4,1,0.8,1.5
					c0.2,0.3,0.3,0.6,0.1,0.9c0,0.1-0.1,0.1-0.2,0.2s-0.2,0.1-0.3,0.1c-0.1,0-0.2,0-0.3,0c-0.1,0-0.2-0.1-0.2-0.1
					c-0.1-0.1-0.3-0.2-0.4-0.4c-0.1-0.2-0.2-0.3-0.3-0.5c-0.1-0.2-0.2-0.3-0.3-0.5c-0.1-0.2-0.2-0.3-0.2-0.5
					c-0.1,0.1-0.2,0.2-0.4,0.4c-0.1,0.1-0.3,0.2-0.5,0.4c-0.2,0.1-0.3,0.2-0.5,0.3c-0.2,0.1-0.4,0.2-0.5,0.2c-0.1,0-0.2,0-0.3,0
					c-0.1,0-0.2,0-0.3-0.1s-0.1-0.1-0.2-0.1c-0.1-0.1-0.1-0.1-0.1-0.2c0-0.2,0-0.3,0-0.5c0.1-0.1,0.2-0.3,0.4-0.3
					c0.6-0.3,1.1-0.7,1.4-1.1c0.3-0.4,0.6-0.9,0.7-1.4l0.3-1.1c0-0.2,0.1-0.3,0.3-0.4C436.1,6.3,436.3,6.3,436.6,6.4z M439.7,7.4
					c0-0.2,0.1-0.3,0.3-0.4c0.2-0.1,0.3-0.1,0.5-0.1c0.2,0,0.4,0.1,0.5,0.3c0.1,0.1,0.1,0.3,0.1,0.5l-1.6,6.8c0,0.2-0.1,0.3-0.3,0.4
					c-0.2,0.1-0.3,0.1-0.5,0.1c-0.2,0-0.4-0.1-0.5-0.3c-0.1-0.1-0.1-0.3-0.1-0.5l0.9-4.1l-1.1-0.3c-0.2,0-0.3-0.1-0.4-0.2
					s-0.1-0.3-0.1-0.5c0-0.2,0.1-0.3,0.3-0.4c0.1-0.1,0.3-0.1,0.5,0l1.1,0.3L439.7,7.4z"/>
			</g>
		</g>
		<g>
			<g>
				<path d="M441.4,15c-0.2,0-0.3-0.1-0.4-0.3c-0.1-0.1-0.1-0.3-0.1-0.5c0-0.2,0.1-0.3,0.3-0.4c0.1-0.1,0.3-0.1,0.5,0l2.5,0.6
					l0.3-1.3l-1.3-0.3c-0.3-0.1-0.5-0.2-0.6-0.3c-0.1-0.2-0.1-0.4,0-0.7l0.6-2.5c0.1-0.3,0.2-0.5,0.3-0.6c0.2-0.1,0.4-0.1,0.7,0
					l4.3,1c0.2,0,0.3,0.1,0.4,0.3c0.1,0.1,0.1,0.3,0.1,0.5c0,0.2-0.1,0.3-0.3,0.4c-0.1,0.1-0.3,0.1-0.5,0l-3.6-0.8c0,0-0.1,0-0.1,0
					c0,0,0,0,0,0.1l-0.4,1.6c0,0,0,0.1,0,0.1c0,0,0,0,0.1,0l3.7,0.9c0.2,0,0.3,0.1,0.4,0.3c0.1,0.1,0.1,0.3,0.1,0.5
					c0,0.2-0.1,0.3-0.3,0.4c-0.1,0.1-0.3,0.1-0.5,0l-1.6-0.4l-0.3,1.3l2.5,0.6c0.2,0,0.3,0.1,0.4,0.3c0.1,0.1,0.1,0.3,0.1,0.5
					c0,0.2-0.1,0.3-0.3,0.4c-0.1,0.1-0.3,0.1-0.5,0L441.4,15z"/>
			</g>
		</g>
		<path style="fill:#FFF697;" d="M407.5,10.6c0,0-1.7,5,1,6.9c0,0-4.2-1.5-6,1c0,0,1.5-4.2-0.8-5.7
			C401.7,12.7,405.5,14.9,407.5,10.6"/>
		<path style="fill:#231815;" d="M402.6,18.9c-0.1,0-0.1,0-0.2-0.1c-0.2-0.1-0.3-0.3-0.2-0.6c0,0,1.3-3.9-0.6-5.2
			c-0.2-0.1-0.3-0.4-0.1-0.6c0.1-0.2,0.4-0.3,0.6-0.2c0,0,1.4,0.8,2.8,0.3c0.9-0.3,1.7-1.1,2.3-2.3c0.1-0.2,0.4-0.3,0.6-0.2
			c0.2,0.1,0.3,0.3,0.3,0.6c0,0-1.6,4.7,0.9,6.3c0.2,0.1,0.3,0.4,0.1,0.6c-0.1,0.2-0.3,0.3-0.6,0.2c0,0-3.9-1.3-5.5,0.9
			C402.8,18.8,402.7,18.9,402.6,18.9z M403.1,13.7c0.5,1.1,0.4,2.4,0.2,3.5c1.2-0.7,2.8-0.7,3.9-0.5c-0.7-1.2-0.7-2.8-0.6-4
			c-0.5,0.4-1,0.7-1.6,0.9C404.4,13.8,403.7,13.8,403.1,13.7z"/>
		<g>
			<path style="fill:#6C9BD2;" d="M457.1,5.5c0.3-0.1,0.6,0,0.8,0.1s0.3,0.3,0.4,0.7c0.1,0.3,0,0.6-0.2,0.7s-0.4,0.3-0.8,0.3
				l-1.6,0.3l0.1,0.5c0.1,0.3,0.2,0.6,0.3,0.8c0.2,0.2,0.4,0.4,0.6,0.5c0.2,0.1,0.5,0.3,0.8,0.4c0.3,0.1,0.6,0.2,1,0.3
				c0.3,0.1,0.6,0.3,0.7,0.5c0.1,0.2,0.1,0.5,0,0.8c-0.1,0.3-0.3,0.4-0.6,0.5c-0.3,0.1-0.6,0-0.9,0c-0.5-0.1-0.9-0.2-1.4-0.4
				c-0.4-0.2-0.8-0.4-1.2-0.7c-0.2,0.4-0.5,0.8-0.9,1.1c-0.4,0.4-0.7,0.7-1.2,1c-0.3,0.2-0.5,0.3-0.8,0.3c-0.3,0-0.5-0.1-0.7-0.3
				c-0.2-0.2-0.3-0.5-0.3-0.8c0-0.3,0.2-0.5,0.5-0.7c0.3-0.2,0.6-0.5,0.8-0.7c0.3-0.2,0.5-0.5,0.7-0.7c0.2-0.2,0.3-0.5,0.4-0.7
				c0.1-0.3,0.1-0.5,0-0.9l-0.1-0.5l-1.7,0.3c-0.3,0.1-0.6,0-0.8-0.1c-0.2-0.1-0.3-0.3-0.4-0.7c-0.1-0.3,0-0.6,0.2-0.7
				c0.2-0.2,0.4-0.3,0.8-0.3l1.7-0.3l-0.1-0.6c-0.1-0.3,0-0.6,0.2-0.8c0.2-0.2,0.4-0.3,0.8-0.4s0.6,0,0.8,0.1
				c0.2,0.1,0.4,0.4,0.4,0.7l0.1,0.6L457.1,5.5z M461.2,14.7c0-0.1-0.1-0.2-0.2-0.1l-6.3,1c-0.3,0-0.5,0-0.8-0.1
				c-0.2-0.1-0.4-0.4-0.4-0.7c-0.1-0.3,0-0.6,0.2-0.8c0.2-0.2,0.4-0.3,0.7-0.4l7.5-1.2c0.5-0.1,0.8,0,1.1,0.1c0.2,0.2,0.4,0.5,0.5,1
				l0.5,2.8c0.1,0.3,0,0.6-0.2,0.8s-0.5,0.4-0.8,0.4c-0.3,0.1-0.6,0-0.9-0.1c-0.2-0.2-0.4-0.4-0.5-0.7L461.2,14.7z M459.6,5.1
				c-0.1-0.3,0-0.6,0.2-0.8c0.2-0.2,0.5-0.4,0.8-0.4s0.6,0,0.9,0.1c0.2,0.2,0.4,0.4,0.5,0.7l0.9,5.6c0.1,0.3,0,0.6-0.2,0.8
				c-0.2,0.2-0.5,0.4-0.8,0.4c-0.3,0.1-0.6,0-0.9-0.1c-0.2-0.2-0.4-0.4-0.5-0.7L460.3,9l-1.4,0.2c-0.3,0.1-0.6,0-0.8-0.1
				c-0.2-0.1-0.3-0.3-0.4-0.6c-0.1-0.3,0-0.5,0.2-0.7c0.2-0.2,0.4-0.3,0.7-0.3l1.4-0.2L459.6,5.1z"/>
		</g>
		<g>
			<path style="fill:#6C9BD2;" d="M470.8,3.8c0.3-0.1,0.6,0,0.8,0.1c0.2,0.1,0.3,0.3,0.4,0.7c0.1,0.3,0,0.6-0.2,0.7
				s-0.4,0.3-0.7,0.3l-1.6,0.3l0.1,0.5c0.1,0.3,0.2,0.6,0.3,0.8c0.2,0.2,0.4,0.4,0.6,0.5c0.2,0.1,0.5,0.3,0.8,0.4
				c0.3,0.1,0.6,0.2,1,0.3c0.3,0.1,0.6,0.3,0.7,0.5c0.1,0.2,0.1,0.5,0,0.8c-0.1,0.3-0.3,0.4-0.6,0.5c-0.3,0.1-0.6,0-0.9,0
				c-0.5-0.1-0.9-0.2-1.4-0.4c-0.4-0.2-0.8-0.4-1.2-0.7c-0.2,0.4-0.5,0.8-0.9,1.1c-0.4,0.4-0.7,0.7-1.2,1c-0.3,0.2-0.6,0.3-0.8,0.3
				c-0.3,0-0.5-0.1-0.7-0.3c-0.2-0.2-0.3-0.5-0.3-0.8c0-0.3,0.2-0.5,0.5-0.7c0.3-0.2,0.6-0.5,0.8-0.7c0.3-0.2,0.5-0.5,0.7-0.7
				c0.2-0.2,0.3-0.5,0.4-0.7c0.1-0.3,0.1-0.5,0-0.9l-0.1-0.5l-1.7,0.3c-0.3,0.1-0.6,0-0.8-0.1c-0.2-0.1-0.3-0.3-0.4-0.7
				c-0.1-0.3,0-0.6,0.2-0.7c0.2-0.2,0.4-0.3,0.7-0.3l1.7-0.3l-0.1-0.6c-0.1-0.3,0-0.6,0.2-0.8c0.2-0.2,0.4-0.3,0.8-0.4
				c0.3-0.1,0.6,0,0.8,0.1c0.2,0.1,0.4,0.4,0.4,0.7l0.1,0.6L470.8,3.8z M474.8,12.9c0-0.1-0.1-0.2-0.2-0.1l-6.3,1
				c-0.3,0-0.5,0-0.8-0.1c-0.2-0.1-0.4-0.4-0.4-0.7c-0.1-0.3,0-0.6,0.2-0.8c0.2-0.2,0.4-0.3,0.7-0.4l7.5-1.2c0.5-0.1,0.8,0,1.1,0.1
				c0.2,0.2,0.4,0.5,0.5,1l0.5,2.8c0.1,0.3,0,0.6-0.2,0.9c-0.2,0.2-0.5,0.4-0.8,0.4c-0.3,0.1-0.6,0-0.9-0.1
				c-0.2-0.2-0.4-0.4-0.5-0.7L474.8,12.9z M473.3,3.4c-0.1-0.3,0-0.6,0.2-0.9c0.2-0.2,0.5-0.4,0.8-0.4c0.3-0.1,0.6,0,0.9,0.1
				c0.2,0.2,0.4,0.4,0.5,0.7l0.9,5.6c0.1,0.3,0,0.6-0.2,0.8c-0.2,0.2-0.5,0.4-0.8,0.4c-0.3,0.1-0.6,0-0.9-0.1
				c-0.2-0.2-0.4-0.4-0.5-0.7l-0.3-1.7l-1.4,0.2c-0.3,0.1-0.6,0-0.8-0.1c-0.2-0.1-0.3-0.3-0.4-0.6c-0.1-0.3,0-0.5,0.2-0.7
				c0.2-0.2,0.4-0.3,0.7-0.3l1.4-0.2L473.3,3.4z"/>
		</g>
		<g>
			<path style="fill:#6C9BD2;" d="M474.5,22.8c0-3.5-3-6.3-6.6-5.9c-2.7,0.3-4.9,2.4-5.2,5.1c-0.2,1.6,0.2,3,1,4.2l4,6.2
				c0.4,0.6,1.3,0.6,1.7,0l4-6.2C474.1,25.2,474.5,24.1,474.5,22.8"/>
			<path style="fill:#FFFFFF;" d="M468.5,33.6c-0.6,0-1.1-0.3-1.5-0.8l-4-6.3c-0.9-1.3-1.4-3-1.2-4.7c0.4-3,2.9-5.5,5.9-5.8
				c1.9-0.2,3.8,0.4,5.2,1.7c1.4,1.3,2.2,3.1,2.2,5c0,1.4-0.4,2.7-1.2,3.9l-4,6.2C469.7,33.4,469.1,33.6,468.5,33.6
				C468.5,33.6,468.5,33.6,468.5,33.6z M468.5,17.7c-0.2,0-0.4,0-0.6,0c-2.3,0.3-4.2,2.1-4.5,4.4c-0.2,1.3,0.2,2.6,0.9,3.6l4,6.3
				c0,0.1,0.1,0.1,0.2,0.1l0,0c0,0,0.1,0,0.2-0.1l4-6.2c0.6-0.9,1-1.9,1-3c0-1.4-0.6-2.8-1.7-3.8C471,18.1,469.8,17.7,468.5,17.7z"
				/>
			<path style="fill:#FFFFFF;" d="M470.4,22.9c0,1-0.8,1.9-1.9,1.9c-1,0-1.9-0.8-1.9-1.9c0-1,0.8-1.9,1.9-1.9
				C469.6,21,470.4,21.8,470.4,22.9"/>
		</g>
	</g>
</g>
</svg>
