<?xml version="1.0" encoding="utf-8"?>
<!-- Generator: Adobe Illustrator 23.0.0, SVG Export Plug-In . SVG Version: 6.00 Build 0)  -->
<svg version="1.1" id="레이어_1" xmlns="http://www.w3.org/2000/svg" xmlns:xlink="http://www.w3.org/1999/xlink" x="0px"
	 y="0px" width="93.2px" height="129.6px" viewBox="0 0 93.2 129.6" style="enable-background:new 0 0 93.2 129.6;"
	 xml:space="preserve">
<g>
	
		<path style="fill:#FFFFFF;stroke:#231815;stroke-width:2.8347;stroke-linecap:round;stroke-linejoin:round;stroke-miterlimit:10;" d="
		M56.7,74.3c0,0,2.7,36.2,17.6,30.5C89,99.2,70.1,68,70.1,68"/>
	<g>
		<path style="fill:#F2A8C8;" d="M75.6,99.9c1.2,0.3,1.6-1.5,0.4-1.8C74.8,97.8,74.4,99.6,75.6,99.9z"/>
		<path style="fill:#F2A8C8;" d="M72.9,102.2c1.2,0.3,1.6-1.5,0.4-1.8C72.1,100.2,71.7,102,72.9,102.2z"/>
		<path style="fill:#F2A8C8;" d="M69,102.2c1.2,0.3,1.6-1.5,0.4-1.8C68.2,100.2,67.8,101.9,69,102.2z"/>
		<path style="fill:#F2A8C8;" d="M70,99.5l0.2,0c2.2,0.5,4.5-0.9,5-3c0.5-2.1-0.9-4.3-3.2-4.7l-0.2,0c-2.2-0.5-4.5,0.9-5,3
			C66.3,96.9,67.8,99,70,99.5z"/>
	</g>
	<path style="fill:#FFFFFF;" d="M68.9,73.3c0.1-0.5,0.2-1,0.2-1.5c0-4-2.4-6.7-6.3-8c-1.3-0.4-2.7-0.3-4,0.1c-0.1,0-0.1-0.1-0.2-0.1
		c-1.1-0.6-2.3-0.9-3.4-1c-1.4-0.7-3.2-0.9-4.8-0.6c-1.7-1.3-3.9-1.6-6-1.1c-1.6-1-3.7-1.2-5.5-0.7c-3.7-1.4-8.7-0.2-9.6,4.2
		c0,0,0,0,0,0.1c-2.2,0.4-4.2,1.9-4.8,4.6c-1.4,5.9-1.4,11.2,2.9,15.9c2.8,3.1,7.6,2.3,10.2-0.4c1,0.2,2.1,0.1,3.1-0.3
		c1.4,1,3.1,1.6,5.1,1.6c0.8,0,1.6-0.1,2.3-0.3c2.4,1.3,5.5,1.1,7.7-0.3c1.8,0.2,3.8-0.3,5.4-1.6c3.8,0.6,7.8-1.5,8-6.3
		C69.2,76.2,69.1,74.7,68.9,73.3z"/>
	
		<path style="fill:#D2D2D3;stroke:#231815;stroke-width:2.8347;stroke-linecap:round;stroke-linejoin:round;stroke-miterlimit:10;" d="
		M71.1,106.8c0,0-5.3,15-6.7,16.4c-1.4,1.3-2.6,1.8-6.2,1.8c-3.5,0-6-0.8-6.7-1.7c-0.8-0.9-2.1-13-2.1-13"/>
	<g>
		<g>
			
				<path style="fill:#FFFFFF;stroke:#231815;stroke-width:2.8347;stroke-linecap:round;stroke-linejoin:round;stroke-miterlimit:10;" d="
				M21.9,76.6c-2.7,7.5-4.4,12.9-4.4,19.9c0,11.8,5.6,18.4,26.5,18.4c23.8,0,28.8-6.1,28.8-19.4c0-7.3-2.9-14.5-4.3-18.3"/>
		</g>
	</g>
	
		<path style="fill:#FFFFFF;stroke:#231815;stroke-width:2.8347;stroke-linecap:round;stroke-linejoin:round;stroke-miterlimit:10;" d="
		M24.1,108.3c0,0,3.7,14.8,5.3,16.1c1.6,1.3,4.1,2.7,8.1,2.7s7.6-1.9,8.5-2.9c0.8-0.9,5.3-10.7,5.3-10.7"/>
	<g>
		<g>
			
				<polyline style="fill:#FFFFFF;stroke:#231815;stroke-width:2.8347;stroke-linecap:round;stroke-linejoin:round;stroke-miterlimit:10;" points="
				28.1,20 34.7,5.4 47.4,15.1 			"/>
			
				<path style="fill:#FFFFFF;stroke:#231815;stroke-width:2.8347;stroke-linecap:round;stroke-linejoin:round;stroke-miterlimit:10;" d="
				M79.8,32.9l3.3-18.5l-14.9,2.8c-4-2.9-8.8-5.1-14.7-6.4c-5.7-1.2-11-1.2-15.9-0.1c-7.8,2.1-13,5.9-13,5.9
				c-7.7,5.9-17.3,25-17.8,27.5c-2.7,12.5,4.5,23.2,32.5,28.2c27.8,5,40.2-6.9,41.6-13.4c2.1-9.9,1.8-21-4.2-31.7"/>
			<g>
				<path style="fill:#FCEEF4;" d="M52.5,50.3c0.1-1-0.2-2-0.5-3c0.5,2.3,0.4,2.1-0.2-0.7c-0.8-2.2-2.5-4.4-4.7-5.9
					c-0.2-0.1-0.3-0.2-0.5-0.3c-1.3-1.3-3-2.1-4.8-2.5c-3.8-1.6-8-2.4-11.9-1.5c-3.8,0.9-6.6,2.9-8,5.7c-2.9,4.9-2.1,11.7,3.3,15.1
					c4.7,3,11.1,4.2,16.7,3.1c2.8-0.3,5.4-1.1,7.4-2.9C51.5,55.3,52.3,53.1,52.5,50.3z"/>
				<g>
					
						<polyline style="fill:none;stroke:#231815;stroke-width:2.8347;stroke-linecap:round;stroke-linejoin:round;stroke-miterlimit:10;" points="
						35.5,55.9 29.3,57.4 26.1,54 					"/>
				</g>
				<g>
					<path style="fill:#231815;" d="M26.3,43.2c-0.5,2.2-1.9,3.7-3.2,3.4c-1.3-0.3-2-2.3-1.5-4.4c0.5-2.2-0.7-2.9,0.6-2.6
						C23.5,39.8,26.8,41,26.3,43.2z"/>
					<path style="fill:#231815;" d="M42.9,46.3c-0.8,2.3-0.3,4.5,1.1,4.9c1.3,0.4,3-1,3.8-3.3c0.8-2.3,2.3-2.3,0.9-2.7
						C47.3,44.8,43.6,44.1,42.9,46.3z"/>
				</g>
				<path style="fill:#E64387;" d="M36.9,49.4c-0.3,1.2-3.9,3.3-6.4,2.8c-2.5-0.5-3-3.6-2.7-4.8c0.3-1.2,1.1-0.1,3.6,0.5
					C33.9,48.4,37.1,48.2,36.9,49.4z"/>
			</g>
		</g>
	</g>
	<g>
		
			<path style="fill:#FFFFFF;stroke:#231815;stroke-width:2.8347;stroke-linecap:round;stroke-linejoin:round;stroke-miterlimit:10;" d="
			M22.9,86.5c-8.5-6-25.2-20.2-17.6-28.3c6.4-6.9,18.6,4.2,25.2,13"/>
	</g>
	<g>
		
			<path style="fill:#FFFFFF;stroke:#231815;stroke-width:2.8347;stroke-linecap:round;stroke-linejoin:round;stroke-miterlimit:10;" d="
			M80.7,76.8c0,0,2,7.3,6.9,4.8c4.9-2.5-0.1-11.7-0.1-11.7"/>
		<g>
			
				<path style="fill:#FFFFFF;stroke:#231815;stroke-width:2.8347;stroke-linecap:round;stroke-linejoin:round;stroke-miterlimit:10;" d="
				M65.5,94.2c11.8-9.7,13-22.6,13-22.6s-2.9-3.7-2.9-9.8c0-6.1,2.8-7.4,6.2-7.4c1.5,0,7.6,0.9,5.2,17.2c-0.5,3-2.8,10.5-7.4,17.7
				c-3.3,5.3-8.3,10.9-13.7,14"/>
			
				<path style="fill:#FFFFFF;stroke:#231815;stroke-width:2.8347;stroke-linecap:round;stroke-linejoin:round;stroke-miterlimit:10;" d="
				M78.5,71.6c0,0,2.3-9.1,0.5-11.3"/>
		</g>
	</g>
</g>
</svg>
