<?xml version="1.0" encoding="utf-8"?>
<!-- Generator: Adobe Illustrator 23.0.0, SVG Export Plug-In . SVG Version: 6.00 Build 0)  -->
<svg version="1.1" id="레이어_1" xmlns="http://www.w3.org/2000/svg" xmlns:xlink="http://www.w3.org/1999/xlink" x="0px"
	 y="0px" width="156.7px" height="205px" viewBox="0 0 156.7 205" style="enable-background:new 0 0 156.7 205;"
	 xml:space="preserve">
<g>
	<g>
		<path style="fill:#FFFFFF;stroke:#231815;stroke-width:2.8347;stroke-linecap:round;stroke-linejoin:round;" d="M57.4,84.5
			c0,0-23.2-47.4-46.2-32.7c-20.6,13.2,21.3,68,21.3,68l6.5,8.1"/>
		<g>
			<path style="fill:#CCE5F3;" d="M11.9,61.1c-2.3,0.2-2,3.7,0.3,3.5C14.4,64.5,14.1,61,11.9,61.1z"/>
			<path style="fill:#CCE5F3;" d="M15.3,55.3c-2.3,0.2-2,3.7,0.3,3.5C17.9,58.7,17.6,55.2,15.3,55.3z"/>
			<path style="fill:#CCE5F3;" d="M22.2,53.3c-2.3,0.2-2,3.7,0.3,3.5C24.7,56.6,24.5,53.1,22.2,53.3z"/>
			<path style="fill:#CCE5F3;" d="M22,58.9l-0.3,0c-4.2,0.3-7.4,4.1-7,8.3c0.3,4.2,4.1,7.4,8.3,7.1l0.3,0c4.2-0.3,7.4-4.1,7-8.3
				C29.9,61.7,26.1,58.5,22,58.9z"/>
		</g>
	</g>
	<g>
		<path style="fill:#FFFFFF;stroke:#231815;stroke-width:2.8347;stroke-linecap:round;stroke-linejoin:round;" d="M124.1,124.1
			c26.5-6.4,31.3-43.6,26.6-54.2c-4.7-10.7-29.5-14.3-28.8,17.4"/>
	</g>
	<rect x="35.6" y="82" style="fill:#FFFFFF;" width="95.2" height="36.7"/>
	<path style="fill:#FFFFFF;stroke:#231815;stroke-width:2.8347;stroke-linecap:round;stroke-linejoin:round;" d="M38.3,109.5
		c0,0-8.3,15.8-8.3,34.8c0,26.1,20.9,49,22.7,51.3c7.8,10.2,28.3,5.4,28.3,0c0-3.3,0-19.2,0-19.2h4.5c0,0,0,15.9,0,19.2
		c0,5.4,20.5,10.2,28.3,0c1.8-2.4,22.7-25.3,22.7-51.3c0-19.7-8.3-34.8-8.3-34.8"/>
	<path style="fill:#FFFFFF;stroke:#231815;stroke-width:2.8347;stroke-linecap:round;stroke-linejoin:round;" d="M101.2,174.8
		c0,0-7,3.9-17.7,3.9c-10.7,0-17.7-3.9-17.7-3.9"/>
	<path style="fill:#EEF7FD;" d="M123.3,138.7c3.8,16.4-9.9,30.1-40,30.2C52.5,169,42,156.4,43.1,139c1.4-22,17.9-27.6,40-27.7
		C105.3,111.2,118.4,117.7,123.3,138.7z"/>
	<g>
		<path style="fill:#FFFFFF;stroke:#231815;stroke-width:2.8347;stroke-linecap:round;stroke-linejoin:round;" d="M79.6,100.3
			c27.8,3.4,51.1-3.8,54.4-29.6c4.1-31.8-16.1-53-43.9-56.5C62.2,11,37.5,26.7,33.9,58.5C30.9,84.4,51.8,97,79.6,100.3z"/>
		<g>
			<g>
				<g>
					<path style="fill:#FFFFFF;stroke:#231815;stroke-width:2.8347;stroke-linecap:round;stroke-linejoin:round;" d="M121.4,32.5
						c5.5-0.6,9.5-5.6,8.8-11.1c-0.6-5.5-5.6-9.5-11.1-8.8c-5.5,0.6-9.5,5.6-8.8,11.1"/>
				</g>
			</g>
			<g>
				<g>
					<path style="fill:#FFFFFF;stroke:#231815;stroke-width:2.8347;stroke-linecap:round;stroke-linejoin:round;" d="M55.1,24.8
						c-5.2-2-7.8-7.8-5.8-13c2-5.2,7.8-7.8,13-5.8c5.2,2,7.8,7.8,5.8,13"/>
				</g>
			</g>
		</g>
		<path style="fill:none;stroke:#231815;stroke-width:2.8347;stroke-linecap:round;stroke-linejoin:round;" d="M71.3,68.5
			c-0.3,2.4,4.9,4.3,11.5,5c6.6,0.8,12.1,0.1,12.3-2.3"/>
		<path style="fill:#DEF1FB;" d="M52.2,55.5c0.8-2.5,3-4.1,5.1-5.4c1.8-1.1,3.9-1.1,5.9-1.1c2.6,0,4.9,1.7,6.6,3.5
			c1.7,1.9,2.3,5.3,1.8,7.8c-0.2,1.3-0.7,2.6-1.5,3.6c-0.2,0.5-0.5,0.9-0.8,1.4c-1.2,1.8-3.7,3.2-5.8,3.3c-1.9,0.1-3.8-0.1-5.6-0.9
			c-1-0.5-2.1-1.1-3-1.9c-1.2-1.2-2.2-2.2-2.8-3.8c-0.2-0.7-0.5-1.5-0.6-2.3C51.5,57.8,51.5,57.5,52.2,55.5z"/>
		<path style="fill:#DEF1FB;" d="M116.9,63.4c-0.2-2.7-1.9-4.7-3.7-6.4c-1.5-1.5-3.5-2-5.4-2.5c-2.5-0.6-5.1,0.5-7.2,1.9
			c-2.1,1.5-3.5,4.6-3.6,7.2c-0.1,1.3,0,2.6,0.5,3.9c0.1,0.5,0.3,1,0.4,1.5c0.8,2.1,2.8,4,4.8,4.6c1.8,0.6,3.7,0.9,5.6,0.4
			c1.1-0.2,2.3-0.5,3.3-1.1c1.4-0.8,2.7-1.6,3.6-3c0.4-0.6,0.9-1.3,1.1-2.1C117,65.7,117,65.5,116.9,63.4z"/>
		<path style="fill:#231815;" d="M68.4,51c-0.6,1.7-0.6,3.2,1.3,4c1.7,0.8,3.2-0.1,3.9-1.8c0.7-1.7,0.5-3.6-1.4-4.3
			C70.4,48.4,69.1,49.3,68.4,51z"/>
		<path style="fill:#231815;" d="M102.2,55.1c0.2,1.8-0.2,3.2-2.2,3.6c-1.9,0.3-3.1-0.8-3.4-2.6c-0.3-1.8,0.4-3.6,2.4-3.8
			C100.9,52.1,101.9,53.3,102.2,55.1z"/>
		<path style="fill:#231815;" d="M92.3,62.2c-0.3,2.7-4.1,4.6-8.5,4.1c-4.4-0.5-7.7-3.1-7.4-5.9c0.3-2.7,4.1-4.6,8.5-4.1
			C89.3,56.8,92.6,59.4,92.3,62.2z"/>
	</g>
	<g>
		<path style="fill:#FFFFFF;stroke:#231815;stroke-width:2.8347;stroke-linecap:round;stroke-linejoin:round;" d="M139,83
			c-5,0.5-7.4-0.8-10-5c-2.7-4.3-2.9-9.9,0.6-13.8c4.2-4.7,8.8-6.4,14.2-4c0.6,0.2,1.1,0.5,1.5,0.9c3.4,1.5,7.3,7.9,6.4,12.7"/>
	</g>
</g>
</svg>
