<?xml version="1.0" encoding="utf-8"?>
<!-- Generator: Adobe Illustrator 23.0.0, SVG Export Plug-In . SVG Version: 6.00 Build 0)  -->
<svg version="1.1" id="레이어_1" xmlns="http://www.w3.org/2000/svg" xmlns:xlink="http://www.w3.org/1999/xlink" x="0px"
	 y="0px" width="170.7px" height="95.1px" viewBox="0 0 170.7 95.1" style="enable-background:new 0 0 170.7 95.1;"
	 xml:space="preserve">
<g>
	<rect x="18.7" y="76.3" style="fill:#FFFFFF;" width="138.2" height="16.9"/>
	<g>
		<g>
			<path style="fill:#FFFFFF;stroke:#231815;stroke-width:2.8347;stroke-linecap:round;stroke-linejoin:round;" d="M55.9,77.5
				c0,0-29.3-43.9-50.2-26.2c-11,9.3,1.1,28.1,13,42"/>
			<g>
				<path style="fill:#CCE5F3;" d="M8,60.4c-2.2,0.5-1.5,4,0.8,3.5C10.9,63.3,10.2,59.9,8,60.4z"/>
				<path style="fill:#CCE5F3;" d="M10.6,54.1c-2.2,0.5-1.5,4,0.8,3.5C13.6,57.1,12.9,53.7,10.6,54.1z"/>
				<path style="fill:#CCE5F3;" d="M17.1,51.2c-2.2,0.5-1.5,4,0.8,3.5C20.1,54.1,19.4,50.7,17.1,51.2z"/>
				<path style="fill:#CCE5F3;" d="M17.7,56.7l-0.3,0.1c-4.1,0.9-6.8,5-5.9,9.1c0.9,4.1,5,6.8,9.1,5.9l0.3-0.1
					c4.1-0.9,6.8-5,5.9-9.2C25.9,58.5,21.8,55.9,17.7,56.7z"/>
			</g>
		</g>
		<g>
			<path style="fill:#FFFFFF;stroke:#231815;stroke-width:2.8347;stroke-linecap:round;stroke-linejoin:round;" d="M118.3,84.2
				c0,0,21-48.4,44.7-34.8c12.6,7.2,3.8,28-5.4,43.8"/>
			<g>
				<path style="fill:#CCE5F3;" d="M162.4,58.8c2.3,0.1,2.2,3.6-0.1,3.5C160,62.2,160.2,58.7,162.4,58.8z"/>
				<path style="fill:#CCE5F3;" d="M158.7,53.1c2.3,0.1,2.2,3.6-0.1,3.5C156.3,56.6,156.4,53.1,158.7,53.1z"/>
				<path style="fill:#CCE5F3;" d="M151.8,51.4c2.3,0.1,2.2,3.6-0.1,3.5C149.4,54.8,149.5,51.3,151.8,51.4z"/>
				<path style="fill:#CCE5F3;" d="M152.2,56.9l0.3,0c4.2,0.1,7.6,3.8,7.4,7.9c-0.1,4.2-3.8,7.6-7.9,7.4l-0.3,0
					c-4.2-0.1-7.6-3.8-7.4-8C144.4,60.2,148.1,56.8,152.2,56.9z"/>
			</g>
		</g>
	</g>
	<g>
		<path style="fill:#FFFFFF;stroke:#231815;stroke-width:2.8347;stroke-linecap:round;stroke-linejoin:round;" d="M85.3,93.6
			c28,0,50.2-10,50.4-36C136,25.6,112.6,7,85.3,6.8C58,7,34.7,25.6,34.9,57.6C35.1,83.7,57.4,93.6,85.3,93.6z"/>
		<g>
			<g>
				<g>
					<path style="fill:#FFFFFF;stroke:#231815;stroke-width:2.8347;stroke-linecap:round;stroke-linejoin:round;" d="M118.6,21.2
						c5.4-1.3,8.7-6.7,7.4-12.1c-1.3-5.4-6.7-8.7-12.1-7.4c-5.4,1.3-8.7,6.7-7.4,12.1"/>
				</g>
			</g>
			<g>
				<g>
					<path style="fill:#FFFFFF;stroke:#231815;stroke-width:2.8347;stroke-linecap:round;stroke-linejoin:round;" d="M51.9,21.6
						c-5.4-1.3-8.7-6.8-7.3-12.2c1.3-5.4,6.8-8.7,12.2-7.3c5.4,1.3,8.7,6.8,7.3,12.2"/>
				</g>
			</g>
		</g>
		<path style="fill:none;stroke:#231815;stroke-width:2.8347;stroke-linecap:round;stroke-linejoin:round;" d="M73.3,62.5
			c0,2.4,5.4,3.7,12,3.6c6.7,0,12-1.3,12-3.8"/>
		<path style="fill:#DEF1FB;" d="M52.7,52.4c0.5-2.6,2.5-4.5,4.4-5.9c1.7-1.3,3.7-1.5,5.7-1.8c2.6-0.3,5.1,1.1,6.9,2.7
			c2,1.7,2.9,5,2.7,7.5c0,1.4-0.4,2.6-1,3.8c-0.2,0.5-0.4,1-0.6,1.5c-1,1.9-3.2,3.6-5.3,4c-1.9,0.4-3.8,0.4-5.6-0.2
			c-1.1-0.4-2.3-0.8-3.2-1.5c-1.3-1-2.5-1.9-3.2-3.5c-0.3-0.7-0.7-1.4-0.8-2.2C52.4,54.8,52.3,54.5,52.7,52.4z"/>
		<path style="fill:#DEF1FB;" d="M118,52.4c-0.5-2.6-2.5-4.5-4.4-5.9c-1.7-1.3-3.7-1.5-5.7-1.8c-2.6-0.3-5.1,1.1-6.9,2.7
			c-2,1.7-2.9,5-2.7,7.5c0,1.4,0.4,2.6,1,3.8c0.2,0.5,0.4,1,0.6,1.5c1,1.9,3.2,3.6,5.3,4c1.9,0.4,3.8,0.4,5.6-0.2
			c1.1-0.4,2.3-0.8,3.2-1.5c1.3-1,2.5-1.9,3.2-3.5c0.3-0.7,0.7-1.4,0.8-2.2C118.3,54.8,118.3,54.5,118,52.4z"/>
		<path style="fill:#231815;" d="M68.5,46.1c-0.4,1.6-0.2,3,1.6,3.6c1.7,0.5,3-0.4,3.5-2.1c0.5-1.7,0-3.4-1.8-3.8
			C70.1,43.4,68.9,44.4,68.5,46.1z"/>
		<path style="fill:#231815;" d="M102.2,46.1c0.4,1.6,0.2,3-1.6,3.6c-1.7,0.5-3-0.4-3.5-2.1c-0.5-1.7,0-3.4,1.8-3.8
			C100.6,43.4,101.7,44.4,102.2,46.1z"/>
		<path style="fill:#231815;" d="M93.3,54.2c0,2.8-3.5,5-8,5.1c-4.4,0-8-2.2-8-4.9c0-2.8,3.5-5,8-5.1C89.7,49.2,93.3,51.5,93.3,54.2
			z"/>
	</g>
</g>
</svg>
