<?xml version="1.0" encoding="utf-8"?>
<!-- Generator: Adobe Illustrator 23.0.0, SVG Export Plug-In . SVG Version: 6.00 Build 0)  -->
<svg version="1.1" id="레이어_2" xmlns="http://www.w3.org/2000/svg" xmlns:xlink="http://www.w3.org/1999/xlink" x="0px"
	 y="0px" width="116.2px" height="75.5px" viewBox="0 0 116.2 75.5" style="enable-background:new 0 0 116.2 75.5;"
	 xml:space="preserve">
<g>
	<g>
		
			<path style="fill:#FFFFFF;stroke:#231815;stroke-width:2.8347;stroke-linecap:round;stroke-linejoin:round;stroke-miterlimit:10;" d="
			M89,59.4c-6.1,5.3-13.1,7.2-15.6,4.3c-2.5-2.9,0.4-9.5,6.6-14.7c6.1-5.3,9.5-6.8,12-3.9C94.4,48,95.1,54.2,89,59.4z"/>
		
			<path style="fill:#FFFFFF;stroke:#231815;stroke-width:2.8347;stroke-linecap:round;stroke-linejoin:round;stroke-miterlimit:10;" d="
			M9.8,59.4c6.1,5.3,13.1,7.2,15.6,4.3c2.5-2.9-0.4-9.5-6.6-14.7c-6.1-5.3-9.5-6.8-12-3.9C4.4,48,3.7,54.2,9.8,59.4z"/>
	</g>
	<g>
		<g>
			<path style="fill:#FFE100;" d="M16.9,72c-0.8,0-1.4-0.6-1.4-1.4v-24c0-18.7,15.2-33.9,33.9-33.9s33.9,15.2,33.9,33.9v24
				c0,0.8-0.6,1.4-1.4,1.4H16.9z"/>
			<path style="fill:#231815;" d="M49.4,14.1c17.9,0,32.5,14.6,32.5,32.5v24h-65v-24C16.9,28.7,31.5,14.1,49.4,14.1 M49.4,11.2
				c-19.5,0-35.3,15.9-35.3,35.3v24c0,1.6,1.3,2.8,2.8,2.8h65c1.6,0,2.8-1.3,2.8-2.8v-24C84.8,27.1,68.9,11.2,49.4,11.2L49.4,11.2z"
				/>
		</g>
	</g>
	<g>
		<g>
			
				<path style="fill:none;stroke:#231815;stroke-width:1.4173;stroke-linecap:round;stroke-linejoin:round;stroke-miterlimit:10;" d="
				M57.3,15.5c1-3.9,4.1-8,7.8-10.8"/>
		</g>
		<g>
			
				<path style="fill:none;stroke:#231815;stroke-width:1.4173;stroke-linecap:round;stroke-linejoin:round;stroke-miterlimit:10;" d="
				M41.2,15.5c-1-3.9-4.1-8-7.8-10.8"/>
		</g>
	</g>
	<g>
		<g>
			<g>
				
					<line style="fill:none;stroke:#231815;stroke-width:1.4173;stroke-linecap:round;stroke-linejoin:round;stroke-miterlimit:10;" x1="57.2" y1="29" x2="58.5" y2="29"/>
			</g>
			<g>
				
					<line style="fill:none;stroke:#231815;stroke-width:1.4173;stroke-linecap:round;stroke-linejoin:round;stroke-miterlimit:10;" x1="40.2" y1="29" x2="41.5" y2="29"/>
			</g>
		</g>
		<g>
			<path style="fill:#231815;" d="M42.9,41.6c0,1.4-1,2.5-2.3,2.5c-1.3,0-2.3-1.1-2.3-2.5c0-1.4,1-2.5,2.3-2.5
				C41.9,39.1,42.9,40.2,42.9,41.6z"/>
		</g>
		<g>
			
				<path style="fill:#FFFFFF;stroke:#231815;stroke-width:2.8347;stroke-linecap:round;stroke-linejoin:round;stroke-miterlimit:10;" d="
				M59.5,51.3c0-4.3-7.1-0.9-10.6-0.9c-3.4,0-10-3.4-10,0.9c0,3.4,4.6,6,10.3,6C54.9,57.3,59.5,54.8,59.5,51.3z"/>
			
				<line style="fill:#FFFFFF;stroke:#231815;stroke-width:2.8347;stroke-linecap:round;stroke-linejoin:round;stroke-miterlimit:10;" x1="54.9" y1="53.5" x2="54.9" y2="55.6"/>
		</g>
		
			<polyline style="fill:none;stroke:#231815;stroke-width:2.126;stroke-linecap:round;stroke-linejoin:round;stroke-miterlimit:10;" points="
			59.5,40.2 55.4,41.8 59.5,43.3 		"/>
		<g>
			
				<path style="fill:none;stroke:#008BD5;stroke-width:1.4173;stroke-linecap:round;stroke-linejoin:round;stroke-miterlimit:10;" d="
				M46.2,43.9c0,0.5,0,1-0.1,1.5c-0.7,5-5,8.8-10.2,8.8c-5.7,0-10.3-4.6-10.3-10.3c0-5.7,4.6-10.3,10.3-10.3
				C41.6,33.6,46.2,38.2,46.2,43.9z"/>
			
				<path style="fill:none;stroke:#008BD5;stroke-width:1.4173;stroke-linecap:round;stroke-linejoin:round;stroke-miterlimit:10;" d="
				M73.2,43.9c0,5.7-4.6,10.3-10.3,10.3c-5.7,0-10.3-4.6-10.3-10.3c0-5.7,4.6-10.3,10.3-10.3C68.6,33.6,73.2,38.2,73.2,43.9z"/>
			
				<path style="fill:none;stroke:#008BD5;stroke-width:1.4173;stroke-linecap:round;stroke-linejoin:round;stroke-miterlimit:10;" d="
				M45.5,46.3c1.6-3.2,6.3-3.2,7.9,0"/>
		</g>
	</g>
</g>
<g>
	<path style="fill:none;stroke:#DBDCDC;stroke-width:1.4173;stroke-linecap:round;stroke-linejoin:round;stroke-miterlimit:10;" d="
		M87.2,35.8c0,0,6.7-7.6,12.6-4.7c5.9,2.9-1.7,9.6-5.3,5.3c-2.2-2.7,2.4-10,5.6-12.1"/>
	<g>
		<path style="fill:#E95532;" d="M108.6,18.1c0.1,0,0.1,0,0.2,0c0.1,0,0.1,0,0.2,0c0.4,0,0.7-0.1,1.1-0.1c0.4,0,0.7-0.1,1.1-0.1
			c0.1,0,0.2,0,0.3,0c0.1,0,0.2,0,0.3,0c0.1,0,0.2,0,0.3,0.1c0.1,0,0.2,0.1,0.2,0.1c0.1,0.2,0.1,0.3,0,0.5c-0.1,0.2-0.2,0.3-0.3,0.4
			c-0.2,0.2-0.3,0.4-0.5,0.7c-0.2,0.2-0.4,0.4-0.5,0.6s-0.3,0.4-0.4,0.5c-0.1,0.2-0.2,0.3-0.2,0.4c0,0.1,0,0.3,0.2,0.5
			c0.1,0.2,0.2,0.4,0.4,0.7s0.3,0.5,0.5,0.8c0.2,0.3,0.3,0.5,0.4,0.7c0.1,0.2,0.2,0.4,0.2,0.6c0,0.2,0,0.3-0.2,0.4
			c-0.1,0.1-0.2,0.1-0.3,0.1c-0.1,0-0.2,0-0.3,0c-0.1,0-0.2-0.1-0.3-0.1c-0.1,0-0.2-0.1-0.3-0.1c-0.1,0-0.2,0-0.3-0.1
			c-0.1,0-0.2-0.1-0.3-0.1c-0.1,0-0.2-0.1-0.3-0.1c-0.1,0-0.2-0.1-0.3-0.1c-0.2-0.1-0.5-0.2-0.7-0.2c-0.2-0.1-0.4-0.1-0.7,0
			c-0.1,0-0.2,0-0.2,0.1c-0.1,0.1-0.1,0.1-0.2,0.2c-0.1,0.1-0.1,0.1-0.2,0.2c-0.1,0.1-0.1,0.1-0.2,0.2c-0.1,0.1-0.2,0.2-0.3,0.3
			c-0.2,0.2-0.3,0.3-0.5,0.5c-0.2,0.2-0.4,0.3-0.6,0.5c-0.2,0.2-0.4,0.3-0.6,0.3c-0.2,0.1-0.3,0.1-0.4,0c-0.1,0-0.2-0.2-0.2-0.4
			c0-0.3,0-0.6,0-0.9c0-0.3,0.1-0.6,0.1-0.9c0-0.2,0-0.4,0-0.6c0-0.2-0.1-0.4-0.1-0.6c-0.1-0.2-0.2-0.4-0.3-0.5
			c-0.1-0.1-0.3-0.3-0.4-0.4c-0.2-0.1-0.3-0.2-0.5-0.3c-0.2-0.1-0.3-0.2-0.5-0.3c-0.1-0.1-0.2-0.1-0.3-0.2c-0.1-0.1-0.2-0.1-0.3-0.2
			c-0.1-0.1-0.2-0.1-0.3-0.2c-0.1-0.1-0.2-0.2-0.2-0.3c-0.1-0.2-0.1-0.3,0-0.4c0.1-0.1,0.2-0.3,0.4-0.4c0.2-0.1,0.4-0.2,0.7-0.3
			c0.3-0.1,0.5-0.1,0.8-0.2c0.3-0.1,0.5-0.1,0.7-0.1c0.2,0,0.3-0.1,0.4-0.1c0.1-0.1,0.2-0.1,0.3-0.2c0.1-0.1,0.1-0.2,0.2-0.3
			c0-0.1,0.1-0.3,0.1-0.4c0-0.1,0-0.3,0.1-0.4c0-0.2,0.1-0.4,0.1-0.6c0-0.2,0.1-0.4,0.1-0.6c0-0.2,0.1-0.4,0.1-0.6
			c0.1-0.2,0.1-0.4,0.3-0.5c0.1-0.1,0.2-0.2,0.3-0.2c0.1,0,0.2,0,0.3,0.1c0.1,0.1,0.2,0.2,0.3,0.3c0.1,0.1,0.2,0.3,0.3,0.4
			c0.1,0.2,0.3,0.4,0.4,0.7c0.2,0.2,0.3,0.4,0.4,0.7c0.1,0.2,0.2,0.3,0.3,0.4C108.3,18,108.4,18.1,108.6,18.1z"/>
	</g>
</g>
</svg>
