<?xml version="1.0" encoding="utf-8"?>
<!-- Generator: Adobe Illustrator 23.0.0, SVG Export Plug-In . SVG Version: 6.00 Build 0)  -->
<svg version="1.1" id="레이어_1" xmlns="http://www.w3.org/2000/svg" xmlns:xlink="http://www.w3.org/1999/xlink" x="0px"
	 y="0px" width="186.2px" height="119.8px" viewBox="0 0 186.2 119.8" style="enable-background:new 0 0 186.2 119.8;"
	 xml:space="preserve">
<g>
	<path style="fill:#B75584;stroke:#913A6C;stroke-width:0.5792;stroke-miterlimit:10;" d="M14.8,60.4C5.6,59.8-1.4,60,2.3,64.7
		c3.5,4.9,16.9,15.1,20.8,15.3c4.1,0.1,1.3-1.6,1.7-3.8c0.3-4.8,1.9-10.6,0.6-15.1C24,56.7,22.3,60.5,14.8,60.4z"/>
	<path style="fill:#E56EC4;stroke:#C152A7;stroke-width:0.5792;stroke-miterlimit:10;" d="M20.4,49.9c-5.5,16.6,6,39,19.9,48.7
		c53.7,37.4,120.3,10.2,103.5,5c-35.4-11-38.1-62.4-65.1-75.7C45.8,11.8,25.9,33.3,20.4,49.9z"/>
	<path style="fill:#D7E9FF;" d="M22.5,67.9c-1.2,3.2-1.2,7.1,0.6,11.9c10.3,26.6,48.5,36.2,73.9,38.4c8.1,0.7,18.9,1.6,26.7-1.7
		c2.8-1.2,6.8-3.6,1.6-4.9c-30.7-7.9-37.4-41.4-65.7-52.8C48.3,54.1,27,56.2,22.5,67.9z"/>
	<path style="fill:#FCB322;stroke:#F9A91C;stroke-width:1.1583;stroke-miterlimit:10;" d="M48,7.7c3.2-4.4,11.8-6.3,15-6.1
		c4.8,0.3,9.8,10.3,6.7,13.2c2.3-2.1,6.3-4,9.4-4.2c1.8-0.1,4.2,0.5,5.6,1.8c3,2.9-0.6,6.2-2.9,7.8c2.3-0.8,4.8-1.5,7-0.7
		c2.1,0.8,4,2.8,4.5,5c0.6,2.4-0.4,4.3-1.7,6.2c0.5-0.7,4.4-0.3,5.1-0.1c1.6,0.4,3.1,1.4,3.6,3.1c0.3,1.2-0.1,2.3-0.8,3.3
		c-0.1,0.2-2.6,2.5-1.8,2.7c2.6,0.9,6.4-0.9,7.8,2.7c0.5,3,0,6.2-1.4,9c3.6-0.4,7.1,3,6.8,6.6c-0.1,1.4-0.7,2.9-0.7,4.3
		c0,1.8,0.9,2.5,1.6,4c1.1,2.2,3.7,9.2,2.6,11.5c-4.2-5.6-11.7-15.6-15.4-21.4c-2.2-3.4-4.3-7-7.1-9.9c-6.2-6.6-11.8-13.9-22.5-18.5
		c-12-5.2-24.8,3-25.1-3.6C44.2,19.5,45.2,11.5,48,7.7z"/>
	<g>
		<path style="fill:#FCB322;stroke:#F9A91C;stroke-width:1.1583;stroke-miterlimit:10;" d="M153.8,65c-4.9-0.7-10.6,4.3-12.7,9.3
			c-8,19.2,1.5,38.1,3.4,32.8c3.2-9.3,15.7-15.9,18.2-25.1C165.7,70.6,158.8,65.7,153.8,65z"/>
		<path style="fill:#FCB322;stroke:#F9A91C;stroke-width:1.1583;stroke-miterlimit:10;" d="M184.6,97.4c0.6,4.9-4.6,10.5-9.6,12.5
			c-19.4,7.5-38.3-3.7-32.7-4.2c11.8-1.1,16.3-15.3,25.6-17.5C179.3,85.4,184,92.5,184.6,97.4z"/>
	</g>
	<g>
		
			<ellipse transform="matrix(0.9988 -4.821641e-02 4.821641e-02 0.9988 -2.2349 3.1773)" style="fill:#F7F9EF;" cx="64.7" cy="47.9" rx="8.9" ry="8.9"/>
		<path style="fill:#323138;" d="M66.2,49.1c-0.8,2.3-3.3,3.6-5.6,2.8c-2.3-0.8-3.6-3.3-2.8-5.6c0.8-2.3,3.3-3.6,5.6-2.8
			C65.7,44.3,66.9,46.8,66.2,49.1z"/>
		<g>
			<path style="fill:#F7F9EF;" d="M57.5,43.9c-0.3,0.9,0.2,1.8,1.1,2.1c0.9,0.3,1.8-0.2,2.1-1.1c0.3-0.9-0.2-1.8-1.1-2.1
				C58.7,42.6,57.8,43.1,57.5,43.9z"/>
			<path style="fill:#F7F9EF;" d="M63,51.3c-0.2,0.6,0.1,1.2,0.7,1.4c0.6,0.2,1.2-0.1,1.4-0.7c0.2-0.6-0.1-1.2-0.7-1.4
				C63.9,50.4,63.2,50.7,63,51.3z"/>
		</g>
	</g>
	<g>
		
			<ellipse transform="matrix(0.9883 -0.1528 0.1528 0.9883 -6.8693 5.6326)" style="fill:#F7F9EF;" cx="33.2" cy="47.5" rx="8.2" ry="8.2"/>
		<path style="fill:#323138;" d="M31.8,48.5c0.5,2.2,2.7,3.6,4.9,3.1c2.2-0.5,3.6-2.7,3.1-4.9c-0.5-2.2-2.7-3.6-4.9-3.1
			C32.7,44.1,31.3,46.3,31.8,48.5z"/>
		<g>
			<path style="fill:#F7F9EF;" d="M40.2,44.5c0.2,0.8-0.3,1.7-1.2,1.8c-0.8,0.2-1.7-0.3-1.8-1.2c-0.2-0.8,0.3-1.7,1.2-1.8
				C39.2,43.2,40,43.7,40.2,44.5z"/>
			<path style="fill:#F7F9EF;" d="M34.5,50.8c0.1,0.6-0.2,1.1-0.8,1.2c-0.6,0.1-1.1-0.2-1.2-0.8c-0.1-0.6,0.2-1.1,0.8-1.2
				C33.8,49.9,34.3,50.2,34.5,50.8z"/>
		</g>
	</g>
	<path style="fill:#B75584;stroke:#913A6C;stroke-width:0.5792;stroke-miterlimit:10;" d="M78.7,66.8c-1.6,3.3-0.9,5.5,3,5.9
		c3.7,0.4,10.4-1,16.4-6.1c6.2-4.9,9-11.1,9.9-14.7c0.9-3.9-0.1-5.2-2.5-4.9c-5.3,1.3-11.7,1.9-17,4.6C83,54.4,82.7,59.5,78.7,66.8z
		"/>
	<g>
		<path style="fill:#C5D0D8;" d="M59.9,56.1c0.8,1,1.6,3.5-1.5,6.9c-2,2.2-6.8,4.9-13,4.1c-5-0.7-6.9-2.9-8.7-5.2
			c-1.9-2.3-2.9-6.5-0.4-7.4c2.3-0.8,5.5,2.9,12.3,1.2C55.7,53.9,57.6,53.1,59.9,56.1z"/>
		<path style="fill:#323138;" d="M58.6,57.3c0.7,0.8,1.5,2.7-1.3,5.4c-1.7,1.7-6.1,3.8-11.6,3.2c-4.5-0.5-6.1-2.3-7.8-4
			c-1.7-1.8-2.6-5.1-0.4-5.7c2-0.6,4.9,2.3,11,0.9C54.8,55.6,56.6,55,58.6,57.3z"/>
		<path style="fill:#FA7C65;" d="M40.7,63.3c-0.6,0.9,3,2,6.8,2c3.7,0,7.9-1.1,7.9-2.2c0-1.1-3.1-1.8-6.8-1.8
			C43.8,61.3,41.4,62.2,40.7,63.3z"/>
	</g>
</g>
<g>
</g>
<g>
</g>
<g>
</g>
<g>
</g>
<g>
</g>
<g>
</g>
<g>
</g>
<g>
</g>
<g>
</g>
<g>
</g>
<g>
</g>
<g>
</g>
<g>
</g>
<g>
</g>
<g>
</g>
</svg>
