<?xml version="1.0" encoding="utf-8"?>
<!-- Generator: Adobe Illustrator 23.0.0, SVG Export Plug-In . SVG Version: 6.00 Build 0)  -->
<svg version="1.1" id="레이어_1" xmlns="http://www.w3.org/2000/svg" xmlns:xlink="http://www.w3.org/1999/xlink" x="0px"
	 y="0px" width="165.5px" height="124.2px" viewBox="0 0 165.5 124.2" style="enable-background:new 0 0 165.5 124.2;"
	 xml:space="preserve">
<g>
	<g>
		<g>
			<path style="fill-rule:evenodd;clip-rule:evenodd;fill:#EFF6FF;" d="M142.4,80.6l1.7-9.1l-1.7-9.1h-10.1l-2.6,8l2.6,10.3H142.4z"
				/>
		</g>
		<g>
			<path style="fill-rule:evenodd;clip-rule:evenodd;fill:#FFA53A;" d="M156.1,45.3c0.2-0.2,0.6-0.3,0.8-0.1c1.6,1.3,6.8,6,7.5,14.3
				c0.1,1.4,0.1,2.9-0.1,4.5c-0.2,2.3-0.8,4.7-1.8,7.4c0.8,2.1,1.3,4,1.6,5.8c0.3,1.6,0.4,3.1,0.4,4.5c-0.1,9.3-5.9,14.6-7.6,15.9
				c-0.2,0.2-0.6,0.2-0.8-0.1l-13.7-17V62.3L156.1,45.3z"/>
		</g>
		<g>
			<path style="fill-rule:evenodd;clip-rule:evenodd;fill:#E0831E;" d="M156.1,97.6c0,0,0.5,0.3,0.8,0.1c0.8-0.6,2.6-2.2,4.2-4.7
				c0.7-1.1-17.6-20.1-18.7-21.7v9.3L156.1,97.6L156.1,97.6z"/>
		</g>
		<g>
			<path style="fill-rule:evenodd;clip-rule:evenodd;fill:#FFA53A;" d="M54.7,118.3c7.3,4.9,23.9,6,21.1,3.7
				c-7.2-6.1-11.7-9.1-15.3-17.4c0,0,0,0,0,0c-0.2-0.1-5.7-7.4-5.9-7.5c0,0-5.3,0-10,0C44.2,102,46.7,113,54.7,118.3L54.7,118.3z"/>
		</g>
		<g>
			<path style="fill-rule:evenodd;clip-rule:evenodd;fill:#FFA53A;" d="M132.3,80.6c-19.7,18.7-38.7,25.6-59,28.6
				c36.3,11.7,77.1,13.1,67.4-9.2L132.3,80.6L132.3,80.6z"/>
		</g>
		<g>
			<path style="fill-rule:evenodd;clip-rule:evenodd;fill:#FFA53A;" d="M132.3,62.3l9.4-20.8c10.5-23.2-33.3-25.8-71.2-11.8
				C98.1,30.4,124.3,34,132.3,62.3z"/>
		</g>
		<g>
			<path style="fill-rule:evenodd;clip-rule:evenodd;fill:#FCD051;" d="M115.2,101.6c10.7-6.7,14.8-16,17.1-21.1V62.3
				c-1.4-6.9-4-18.9-14.8-26.7C120,67.6,107.5,67.3,115.2,101.6L115.2,101.6z"/>
		</g>
		<g>
			<path style="fill-rule:evenodd;clip-rule:evenodd;fill:#FCD051;" d="M69.4,107.9c1.3,0.5,2.6,0.9,4,1.3c4.3,0.4,8.2,0.5,11.9,0.4
				C77,70.9,92.3,56.8,85.6,28c-4.5,0.2-9.5,0.7-15,1.7c-0.5,0.2-0.9,0.3-1.4,0.5c1.8,5.7,2.1,7.6-1.1,21.5
				C64.8,65.6,65.1,90.1,69.4,107.9L69.4,107.9z"/>
		</g>
		<g>
			<path style="fill-rule:evenodd;clip-rule:evenodd;fill:#FCD051;" d="M59.8,104.2c0.2,0.1,0.5,0.2,0.7,0.3
				c-4.8-27.4,7.4-59.7,0.1-70.8C42.9,41.9,27.8,54,22.3,69.4C19.9,82.2,37.5,95.1,59.8,104.2L59.8,104.2z M39.2,66.8
				c-2-2-2-5.1,0-7.1c2-2,5.1-2,7.1,0c2,2,2,5.1,0,7.1C44.3,68.7,41.1,68.7,39.2,66.8L39.2,66.8z"/>
		</g>
		<g>
			<path style="fill-rule:evenodd;clip-rule:evenodd;fill:#FCD051;" d="M93.2,109c5.7-0.7,10.5-2,14.7-3.7
				c-6.9-26.9,8.6-45.7,0.3-74.6c-4.1-1.5-9-2.4-14.7-2.8c1.4,4.7,0.6,15.9-2.1,29.4C88.7,70.9,87.9,87.1,93.2,109L93.2,109z"/>
		</g>
		<g>
			<ellipse style="fill:#FFFFFF;" cx="42.5" cy="61.9" rx="8.5" ry="9.2"/>
			<g>
				
					<ellipse transform="matrix(0.9786 -0.2058 0.2058 0.9786 -11.7237 9.5831)" style="fill:#323138;" cx="40.2" cy="61.2" rx="5.5" ry="5.5"/>
				<circle style="fill:#FFFFFF;" cx="42.1" cy="58.9" r="1.2"/>
				<path style="fill:#FFFFFF;" d="M36.2,63.7c0,0.3,0.2,0.5,0.5,0.5c0.3,0,0.5-0.2,0.5-0.5s-0.2-0.5-0.5-0.5
					C36.5,63.2,36.2,63.4,36.2,63.7z"/>
			</g>
		</g>
		<g>
			<path style="fill-rule:evenodd;clip-rule:evenodd;fill:#FFFFFF;" d="M107.9,105.3c2.7-1.1,5.1-2.3,7.3-3.7
				c-5.7-35.2,6.8-35,2.3-66.1c-2.6-1.9-5.7-3.5-9.3-4.8c2.4,12.7,1.8,22.5,0.1,31.4c-1.1,5.5-3.7,11.6-3.6,20.7
				C104.8,92.5,106.1,99.8,107.9,105.3L107.9,105.3z"/>
		</g>
		<g>
			<path style="fill-rule:evenodd;clip-rule:evenodd;fill:#FFFFFF;" d="M85.2,109.6c2.8-0.1,5.5-0.3,8-0.6
				c-5.3-21.9-2.6-38.2,0.2-51.7c2.7-13.5,1.5-24.5,0.1-29.3c-2.5-0.1-5.1-0.2-8,0C89.9,57.2,74.3,71.4,85.2,109.6L85.2,109.6z"/>
		</g>
		<g>
			<path style="fill-rule:evenodd;clip-rule:evenodd;fill:#F7BB26;" d="M59.8,104.2c0.2,0.1,0.5,0.2,0.7,0.3c-0.7-4-1-8.1-1.1-12.2
				c-19.6-8.9-34.1-20.7-32-32.5c0.1-0.3,0.2-0.7,0.4-1c-2.3,3.3-4.2,6.8-5.5,10.5C19.9,82.2,37.5,95.1,59.8,104.2L59.8,104.2z"/>
		</g>
		<g>
			<path style="fill-rule:evenodd;clip-rule:evenodd;fill:#F7BB26;" d="M93.2,109c5.7-0.7,10.5-2,14.7-3.7c-0.6-1.8-1.2-3.9-1.6-6.1
				c-0.1-0.4-0.2-0.8-0.2-1.1c-2.4,0.6-4.9,1.1-7.7,1.4c-2.2,0.3-4.5,0.5-6.9,0.6c0.3,1.6,0.5,3.2,0.9,4.9
				C92.6,106.2,92.9,107.6,93.2,109L93.2,109z"/>
		</g>
		<g>
			<path style="fill-rule:evenodd;clip-rule:evenodd;fill:#D9EEFF;" d="M85.2,109.6c2.8-0.1,5.5-0.3,8-0.6l0,0
				c-0.3-1.4-0.6-2.8-0.9-4.1c-0.3-1.6-0.6-3.3-0.9-4.9c0,0-0.1,0-0.1,0c-0.3,0-0.6,0-1,0c-2.2,0.1-4.4,0-6.8-0.1
				c-0.2,0-0.4,0-0.6,0c0.4,2.3,1,4.6,1.6,7.1C84.8,107.9,85,108.7,85.2,109.6L85.2,109.6z"/>
		</g>
		<g>
			<path style="fill-rule:evenodd;clip-rule:evenodd;fill:#F7BB26;" d="M73.3,109.2c4.3,0.4,8.2,0.5,11.9,0.4
				c-0.2-0.9-0.5-1.7-0.7-2.5c-0.6-2.5-1.2-4.8-1.6-7.1c-1.4-0.1-2.9-0.2-4.4-0.3c-1.3-0.4-2.6-0.9-4-1.3c-2.5-0.9-4.9-1.8-7.3-2.7
				c0,0.3,0.1,0.7,0.1,1v0c0.5,3.9,1.2,7.7,2.1,11.2C70.7,108.3,72,108.8,73.3,109.2L73.3,109.2z"/>
		</g>
		<g>
			<path style="fill-rule:evenodd;clip-rule:evenodd;fill:#FFFFFF;" d="M60.5,104.5c2.9,1.2,5.8,2.3,8.9,3.3
				c-4.2-17.7-4-36.9,0.4-56.2c2-8.6,1.2-15.8-0.6-21.5c-2.9,1.1-5.7,2.3-8.5,3.6c4.6,11.3-3.9,31.4-3.1,49.1
				C58.4,100.6,58.8,99.1,60.5,104.5L60.5,104.5z"/>
		</g>
		<g>
			<path style="fill-rule:evenodd;clip-rule:evenodd;fill:#D9EEFF;" d="M60.5,104.5c2.9,1.2,5.8,2.3,8.9,3.3c-1-4-1.7-8.1-2.2-12.2
				c-0.5-0.2-1-0.4-1.5-0.6c-0.2-0.1-0.5-0.2-0.7-0.3c-2.4-1-4.7-2-6.9-3C58.6,100.3,59.2,100.3,60.5,104.5L60.5,104.5z"/>
		</g>
		<g>
			<path style="fill-rule:evenodd;clip-rule:evenodd;fill:#F7BB26;" d="M132.3,80.6c-2.7,3.9-6.4,8.1-11.9,11.6
				c-1.8,1.1-3.8,2.2-6,3.2c0.2,2,0.5,4.1,0.9,6.3C125.9,94.9,130,85.6,132.3,80.6z"/>
		</g>
		<g>
			<path style="fill-rule:evenodd;clip-rule:evenodd;fill:#D9EEFF;" d="M107.9,105.3c2.7-1.1,5.1-2.3,7.3-3.7
				c-0.4-2.3-0.6-4.4-0.9-6.3c-0.1,0-0.3,0.1-0.4,0.2c-0.3,0.1-0.6,0.3-0.9,0.4c-0.6,0.2-1.2,0.5-1.8,0.7c-1.5,0.5-3.1,1-4.8,1.5
				c-0.2,0-0.3,0.1-0.5,0.1c0.1,0.4,0.1,0.8,0.2,1.1C106.7,101.5,107.3,103.5,107.9,105.3L107.9,105.3z"/>
		</g>
		<g>
			<path style="fill-rule:evenodd;clip-rule:evenodd;fill:#D9EEFF;" d="M142.4,80.6h-10.1v-9.3h10.1V80.6z"/>
		</g>
		<g>
			<path style="fill:#E0831E;" d="M153.4,63.6l10.3-4c0.2-0.1,0.5-0.1,0.7-0.1c0.1,1.4,0.1,2.9-0.1,4.5l-9.4,3.6
				c-0.3,0.1-0.5,0.1-0.8,0.1c-0.9,0-1.7-0.5-2-1.4C151.7,65.3,152.3,64,153.4,63.6z"/>
		</g>
		<g>
			<path style="fill:#E0831E;" d="M153.6,78.5c-1.1-0.3-1.8-1.5-1.4-2.7c0.3-1.1,1.5-1.8,2.7-1.4l9.3,2.8c0.3,1.6,0.4,3.1,0.4,4.5
				c-0.2,0-0.4,0-0.6-0.1L153.6,78.5L153.6,78.5z"/>
		</g>
		<g>
			<path style="fill:#FFFFFF;" d="M27.1,70.3c-0.7,1.9-3.2,2.4-5.6,1.1c-2.4-1.3-3.8-4-3.1-5.9c0.7-1.9,3.2-2.4,5.6-1.1
				C26.4,65.8,27.8,68.4,27.1,70.3z"/>
			<path style="fill:#FFFFFF;" d="M16.7,75.1c0-1.9,2.3-4.6,5.1-6c2.8-1.4,5.2-0.9,5.2,1c0,1.9-2.3,4.6-5.1,6
				C19.1,77.4,16.7,77,16.7,75.1z"/>
		</g>
	</g>
	<g>
		<g>
			
				<ellipse transform="matrix(0.5265 -0.8502 0.8502 0.5265 -39.6019 34.9828)" style="opacity:0.2;fill:#FFFFFF;" cx="11.6" cy="53" rx="5.9" ry="5.9"/>
			<path style="opacity:0.2;fill:#FFFFFF;" d="M13.9,49.3c0.1,0.8-1.2,1.8-2.7,2.7c-1.5,0.9-3,1.5-3.7,1c-0.7-0.5,0.2-2.3,2.3-3.5
				C11.9,48.3,13.9,48.5,13.9,49.3z"/>
		</g>
		<g>
			<circle style="opacity:0.2;fill:#FFFFFF;" cx="19.1" cy="30.9" r="4.9"/>
			<path style="opacity:0.2;fill:#FFFFFF;" d="M21.1,27.8c0.1,0.7-1,1.5-2.3,2.2c-1.3,0.7-2.5,1.3-3.1,0.9c-0.5-0.4,0.1-1.9,1.9-2.9
				C19.3,26.9,21,27.1,21.1,27.8z"/>
		</g>
		<g>
			<circle style="opacity:0.2;fill:#FFFFFF;" cx="4.4" cy="16.2" r="3.4"/>
			<path style="opacity:0.2;fill:#FFFFFF;" d="M5.8,14c0.1,0.5-0.7,1.1-1.6,1.6c-0.9,0.5-1.8,0.9-2.2,0.6c-0.4-0.3,0.1-1.3,1.3-2
				C4.6,13.4,5.7,13.5,5.8,14z"/>
		</g>
		<g>
			<path style="opacity:0.2;fill:#FFFFFF;" d="M15.4,3c0,1.1-0.9,2-2,2c-1.1,0-2-0.9-2-2s0.9-2,2-2C14.5,1,15.4,1.9,15.4,3z"/>
			<path style="opacity:0.2;fill:#FFFFFF;" d="M14.2,1.7c0,0.3-0.4,0.6-0.9,0.9c-0.5,0.3-1,0.5-1.2,0.3c-0.2-0.2,0.1-0.8,0.8-1.2
				C13.5,1.4,14.2,1.4,14.2,1.7z"/>
		</g>
		<g>
			<circle style="opacity:0.2;fill:#FFFFFF;" cx="18.8" cy="14.4" r="2"/>
			<path style="opacity:0.2;fill:#FFFFFF;" d="M19.6,13.1c0,0.3-0.4,0.6-0.9,0.9c-0.5,0.3-1,0.5-1.2,0.3c-0.2-0.2,0.1-0.8,0.8-1.2
				C18.9,12.8,19.5,12.9,19.6,13.1z"/>
		</g>
	</g>
</g>
<g>
</g>
<g>
</g>
<g>
</g>
<g>
</g>
<g>
</g>
<g>
</g>
<g>
</g>
<g>
</g>
<g>
</g>
<g>
</g>
<g>
</g>
<g>
</g>
<g>
</g>
<g>
</g>
<g>
</g>
</svg>
