<?xml version="1.0" encoding="utf-8"?>
<!-- Generator: Adobe Illustrator 23.0.0, SVG Export Plug-In . SVG Version: 6.00 Build 0)  -->
<svg version="1.1" xmlns="http://www.w3.org/2000/svg" xmlns:xlink="http://www.w3.org/1999/xlink" x="0px" y="0px" width="955.8px"
	 height="522.2px" viewBox="0 0 955.8 522.2" style="enable-background:new 0 0 955.8 522.2;" xml:space="preserve">
<g id="레이어_1">
</g>
<g id="레이어_2">
	<g>
		<path style="fill:#9C4B16;" d="M291.6,363c0,17.3,191.9,57.8,359.6,57.8s303.7-45.3,303.7-62.6c0-14-142.6,11.9-310.4,11.9
			S291.6,352.3,291.6,363z"/>
		<g>
			<polygon style="fill:#C97E32;" points="706.9,374.6 725.1,409.6 669.4,413.5 644.4,375.7 			"/>
			
				<polygon style="fill:none;stroke:#9C4B16;stroke-width:1.4638;stroke-linecap:round;stroke-linejoin:round;stroke-miterlimit:10;" points="
				706.9,374.6 725.1,409.6 669.4,413.5 644.4,375.7 			"/>
		</g>
		<g>
			<g>
				<path style="fill:#C4C031;stroke:#BAB331;stroke-width:1.4638;stroke-miterlimit:10;" d="M812.7,418.6l8.9-73.4
					c0,0-11.4-9.4-40.9-9.4c-22.4,0-42.7,8.4-42.7,8.4l8.2,74.4c0,0,16.3,4.8,33.9,4.8C796.4,423.5,812.7,418.6,812.7,418.6z"/>
				<path style="fill:#E10302;" d="M746.2,417.9c0,3.7,15,6.6,33.5,6.6c18.5,0,33.1-2.2,33.1-5.9s-14.6-7.3-33.1-7.3
					C761.2,411.3,746.2,414.2,746.2,417.9z"/>
				<path style="fill:#BAB331;" d="M746.2,343.8c0,6.1,1.5,14.1,5.1,24.3c7.8,22.4,20.4,43,45.6,43c6.2,0,12.1-1.2,17.5-3.3
					l-1.6,13.2c0,0-16.3,4.8-32.7,4.8c-17.6,0-33.9-4.8-33.9-4.8l-8.2-74.4C738.1,346.6,741.2,345.3,746.2,343.8z"/>
			</g>
			<g>
				<path style="fill:#323138;stroke:#2B2B30;stroke-width:1.4638;stroke-miterlimit:10;" d="M735.5,356.6c0,0,0,0.5,0.1,1.4
					c0.1,0.9,0.2,2.3,0.6,4c0.4,1.7,1.1,3.7,2.2,5.9c1.1,2.2,2.6,4.6,4.5,7c1,1.2,2.1,2.3,3.2,3.5c1.2,1.1,2.5,2.3,3.8,3.4
					c2.7,2.2,5.8,4.2,9.2,5.9c0.8,0.5,1.7,0.9,2.6,1.3c0.9,0.4,1.8,0.8,2.7,1.2c1.8,0.8,3.7,1.4,5.6,2c1.9,0.6,3.9,1.1,5.9,1.5
					c2,0.4,4,0.7,6,0.9c2,0.2,4.1,0.3,6.1,0.3c2,0,4.1-0.1,6.1-0.3c1-0.1,2-0.3,3-0.4c1-0.2,2-0.4,3-0.7c1-0.2,1.9-0.5,2.9-0.8
					c0.9-0.3,1.9-0.7,2.8-1.1c1.8-0.8,3.6-1.6,5.2-2.7c0.8-0.5,1.6-1.1,2.3-1.6c0.7-0.6,1.5-1.2,2.1-1.8c2.7-2.5,4.6-5.4,5.9-8.2
					c1.3-2.8,2-5.6,2.3-8.1c0.1-1.2,0.3-2.4,0.3-3.4c0.1-1.1,0-2,0-2.9c0-0.9-0.1-1.6-0.2-2.3c-0.1-0.7-0.2-1.2-0.2-1.7
					c-0.2-0.9-0.2-1.4-0.2-1.4s0,0.5-0.1,1.4c-0.1,0.9-0.2,2.2-0.5,3.9c-0.3,1.7-0.7,3.7-1.4,5.8c-0.7,2.2-1.7,4.5-3.2,6.8
					c-1.5,2.3-3.4,4.5-5.8,6.4c-0.6,0.5-1.2,0.9-1.9,1.3c-0.7,0.4-1.3,0.8-2.1,1.2c-0.7,0.4-1.4,0.7-2.2,1.1
					c-0.8,0.3-1.5,0.6-2.3,0.9c-3.2,1.1-6.6,1.8-10.2,2.1c-1.8,0.2-3.6,0.2-5.4,0.2c-1.8,0-3.7-0.2-5.5-0.4c-3.7-0.4-7.3-1.1-10.9-2
					c-3.5-1-6.9-2.2-10.1-3.6c-1.6-0.7-3.1-1.5-4.6-2.2c-1.5-0.8-2.9-1.6-4.2-2.5c-2.7-1.7-5.1-3.6-7.1-5.5
					c-2.1-1.9-3.8-3.8-5.1-5.7c-1.4-1.8-2.4-3.6-3.1-5.1c-0.7-1.5-1.2-2.7-1.5-3.6C735.6,357.1,735.5,356.6,735.5,356.6z"/>
				<path style="fill:#BAB331;" d="M732,354c0.1,2.6,1.9,4.6,4,4.5c2.1-0.1,3.7-2.3,3.6-4.9c-0.1-2.6-1.9-4.6-4-4.5
					S731.9,351.4,732,354z"/>
				
					<ellipse transform="matrix(0.9989 -4.704434e-02 4.704434e-02 0.9989 -15.8062 39.0784)" style="fill:#BAB331;" cx="822.3" cy="355.3" rx="3.2" ry="4.7"/>
				<ellipse style="fill:#A89F2C;" cx="778.8" cy="352.3" rx="46.7" ry="10.9"/>
				<path style="fill:#BAB331;" d="M733,345.3c5.8,4.5,25.6,9.4,46.7,9.4c20,0,40.1-5.2,46.7-9.4c0.3,1.5-1,5.9-1,7
					c0.1,3.7-20.9,9.4-46.7,9.4c-25.8,0-47.2-5.7-46.7-9.4C732.1,351.9,733,345.3,733,345.3z"/>
				<ellipse style="fill:#BAB331;" cx="779.7" cy="345.3" rx="46.7" ry="10.9"/>
				<ellipse style="fill:#BAB331;" cx="779.8" cy="344.8" rx="41.8" ry="9"/>
				<ellipse style="fill:#57AADD;" cx="779.8" cy="346.9" rx="40.4" ry="6.6"/>
			</g>
		</g>
		<g>
			<path style="fill:#FCB322;stroke:#F9A91C;stroke-width:1.4144;stroke-miterlimit:10;" d="M569.7,301.2l57.2,20.5l14.9-47.7
				c2.9-9.4,12.4-14.4,21.1-11.3c8.7,3.1,13.5,13.2,10.5,22.6l-20.3,65.1l-0.1-0.1l-0.1,0.3c-1.9,6.2-8.3,9.6-14.1,7.5l-78.2-27.9
				L569.7,301.2z"/>
		</g>
		<g>
			<path style="fill:#FCBC98;stroke:#EFAE8E;stroke-width:0.7072;stroke-miterlimit:10;" d="M538.6,304c-6.1,7.7-0.7,22.3,11.6,23.7
				c6,0.7,12.2-2.9,14.1-10.3c1.9-7.4,2.5-12.8-7.1-16.6C551.5,298.6,543.3,298.2,538.6,304z"/>
			<path style="fill:#FCBC98;stroke:#EFAE8E;stroke-width:0.7072;stroke-miterlimit:10;" d="M549.7,293.9c-0.3,2.1,3.8,5.6,7.3,6.4
				c6.8,1.7,8.7,8.1,10.1,6.5c3.2-3.9-1.6-11-7.3-13.6C554,290.7,550,291.5,549.7,293.9z"/>
		</g>
		<g>
			<path style="fill:#896DB5;stroke:#7A63A5;stroke-width:1.1997;stroke-miterlimit:10;" d="M566.4,349.7c3.8-1.5,8.2-2.3,12.3-2.9
				c58.9-8.3,124.8,19,124.8,19s2,19.7-8.4,34.3c-3.4,4.7-21.5,8.5-38.1,5l-61.5-24.2l-2.2,9.1l-32.5,0.8c0,0-3.8-28.3-3.8-28.4
				C556.2,355.8,560.6,352,566.4,349.7z"/>
			<g>
				
					<polygon style="fill:#9F9FA0;stroke:#8C8C8C;stroke-width:1.1997;stroke-linecap:round;stroke-linejoin:round;stroke-miterlimit:10;" points="
					564.1,431.6 588.7,431.6 592.8,391.5 558.4,391.5 				"/>
				
					<rect x="555.7" y="390.7" transform="matrix(-1 -1.224647e-16 1.224647e-16 -1 1150.5446 788.1531)" style="fill:#9F9FA0;stroke:#8C8C8C;stroke-width:1.1997;stroke-linecap:round;stroke-linejoin:round;stroke-miterlimit:10;" width="39.1" height="6.8"/>
			</g>
			<path style="fill:#896DB5;stroke:#7A63A5;stroke-width:1.1997;stroke-miterlimit:10;" d="M575.2,352.7c4.4-1.8,9.8-2.2,14.2-2.7
				c3.7-0.5,7.5-0.6,11.3-0.6c8.3,0,16.5,0.9,24.6,2.2c16.4,2.6,32.4,7,47.9,12c9.4,3,18.8,6.4,27.8,10c0.2,0.1,1.2,0.4,1.3,0.5
				c0,0,4.8,12.3-5.6,26.9c-3.4,4.7-13,9.1-29.6,5.6l-61.5-24.2l-2.2,9.1l-32.5,0.8c0,0-3.9-26-3.9-26
				C566.3,360.9,568.9,355.2,575.2,352.7z"/>
			<g>
				
					<polygon style="fill:#9F9FA0;stroke:#8C8C8C;stroke-width:1.1997;stroke-linecap:round;stroke-linejoin:round;stroke-miterlimit:10;" points="
					576.6,431.8 601.2,431.8 605.3,391.6 571,391.6 				"/>
				
					<rect x="568.3" y="390.8" transform="matrix(-1 -1.224647e-16 1.224647e-16 -1 1175.6855 788.3859)" style="fill:#9F9FA0;stroke:#8C8C8C;stroke-width:1.1997;stroke-linecap:round;stroke-linejoin:round;stroke-miterlimit:10;" width="39.1" height="6.8"/>
			</g>
		</g>
		<g>
			<g>
				<g>
					<g>
						<path style="fill:#46434C;" d="M106.8,148.4c-3.8-12.2-7.4-23.7-6.8-33.7c1-16.2,15.6-28.9,27.3-39.1l1.2-1.1
							c13.9-12.1,9.9-29.6,6.7-43.7C132.3,18.4,130.1,8.6,139,5c0.4-0.1,0.6-0.6,0.4-0.9c-0.1-0.4-0.6-0.6-0.9-0.4
							c-10.1,4-7.6,14.9-4.8,27.5c3.3,14.4,7,30.8-6.2,42.3l-1.2,1.1c-11.9,10.4-26.8,23.2-27.8,40.1c-0.6,10.3,3,21.9,6.9,34.2"/>
					</g>
					<g>
						
							<path style="fill:#9F9FA0;stroke:#8C8C8C;stroke-width:1.4638;stroke-linecap:round;stroke-linejoin:round;stroke-miterlimit:10;" d="
							M106.5,227.6L106.5,227.6c1,0,1.8-0.8,1.8-1.8v-16.8c0-1-0.8-1.8-1.8-1.8l0,0c-1,0-1.8,0.8-1.8,1.8v16.8
							C104.7,226.7,105.5,227.6,106.5,227.6z"/>
						
							<ellipse style="fill:#E53C3C;stroke:#D63C3C;stroke-width:1.4638;stroke-miterlimit:10;" cx="106.5" cy="192.8" rx="14.9" ry="24.6"/>
						<path style="fill:#FCB322;stroke:#F9A91C;stroke-width:1.4638;stroke-miterlimit:10;" d="M106.5,166.7
							c8,0,14.5,10.4,14.8,23.5c-5,0.7-10.4,1-16,1c-4.7,0-9.3-0.3-13.7-0.8C91.9,177.3,98.4,166.7,106.5,166.7z"/>
						
							<path style="fill:#9F9FA0;stroke:#8C8C8C;stroke-width:1.4638;stroke-linecap:round;stroke-linejoin:round;stroke-miterlimit:10;" d="
							M106.5,169.7L106.5,169.7c1,0,1.8-0.8,1.8-1.8v-16.8c0-1-0.8-1.8-1.8-1.8l0,0c-1,0-1.8,0.8-1.8,1.8v16.8
							C104.7,168.9,105.5,169.7,106.5,169.7z"/>
					</g>
				</g>
				<g>
					<g>
						
							<path style="fill:#9F9FA0;stroke:#8C8C8C;stroke-width:1.4638;stroke-linecap:round;stroke-linejoin:round;stroke-miterlimit:10;" d="
							M139,4c190.3,46.4,349.8,173.4,438.7,341.4c4.7,1.7,9.6-0.9,10.7-5.8C494.9,170,330.3,46,139,4z"/>
						<g>
							<path style="fill:#A04D1B;" d="M433.6,150.4c63.1,53.2,115.8,116.4,156,189.4c-1.1,4.9-11.8,8.7-16.5,7
								c-38.2-72.3-85.9-131.8-144.9-190.5L433.6,150.4z"/>
							<path style="fill:none;stroke:#7D3310;stroke-width:1.4638;stroke-miterlimit:10;" d="M433.6,150.4
								c63.1,53.2,115.8,116.4,156,189.4c-1.1,4.9-11.8,8.7-16.5,7c-38.2-72.3-85.9-131.8-144.9-190.5L433.6,150.4z"/>
						</g>
					</g>
					<g>
						<path style="fill:#353438;" d="M507,249.7c0.1,0,0.2,0,0.4-0.1c0.4-0.2,0.5-0.6,0.3-1c-4-7.1-17.5-22.8-28.3-31
							c-1.6-1.2-6.2-4.1-11.9-7.8c-9.2-5.9-20.6-13.2-26.9-17.9c-17-12.9-28.4-21.8-41.9-37.3l-0.6-0.7c-8.4-9.6-18.9-21.6-21.6-34
							c-0.1-0.4-0.4-0.6-0.8-0.6c-4.4,0.5-23.7-8.9-44.9-21.8C312.2,86,291.1,71,287.3,62.9c-0.1-0.3-0.4-0.4-0.7-0.4
							c-29.5-0.2-64.9-23.1-75.6-35.4c-0.2-0.2-0.4-0.3-0.7-0.2c-9.5,1.7-31.8-7.7-49.8-15.3c-7.8-3.3-15.2-6.4-20.5-8.1
							c-0.4-0.1-0.8,0.1-0.9,0.5c-0.1,0.4,0.1,0.8,0.5,0.9c5.2,1.7,12.6,4.8,20.4,8.1c18.8,7.9,40.2,16.9,50.2,15.4
							c11.1,12.5,46.4,35.2,76,35.6c5.6,10.6,34.8,29.1,43.8,34.6c18,11,38.8,21.9,45.1,22.1c3,12.6,13.4,24.5,21.8,34.1l0.6,0.7
							c13.6,15.6,25,24.6,42.2,37.5c6.4,4.8,17.8,12.1,27,18c5.5,3.5,10.3,6.6,11.8,7.8c10.6,8.1,24,23.7,27.9,30.6
							C506.5,249.6,506.7,249.7,507,249.7z"/>
					</g>
					<g>
						<g>
							
								<ellipse transform="matrix(0.6045 -0.7966 0.7966 0.6045 -19.7656 507.3396)" style="fill:#9F9FA0;stroke:#8C8C8C;stroke-width:1.4638;stroke-linecap:round;stroke-linejoin:round;stroke-miterlimit:10;" cx="501.1" cy="273.6" rx="25.4" ry="25.4"/>
							<g>
								<path style="fill:#323138;" d="M479.4,276.3c0.2,1.8,1.8,3,3.6,2.8c1.8-0.2,3-1.8,2.8-3.6c-0.2-1.8-1.8-3-3.6-2.8
									C480.5,272.9,479.2,274.5,479.4,276.3z"/>
								<path style="fill:#323138;" d="M495.8,255.7c0.2,1.8,1.8,3,3.6,2.8c1.8-0.2,3-1.8,2.8-3.6c-0.2-1.8-1.8-3-3.6-2.8
									C496.8,252.4,495.6,254,495.8,255.7z"/>
								<path style="fill:#323138;" d="M500,292.6c0.2,1.8,1.8,3,3.6,2.8c1.8-0.2,3-1.8,2.8-3.6c-0.2-1.8-1.8-3-3.6-2.8
									C501.1,289.2,499.8,290.8,500,292.6z"/>
								<path style="fill:#323138;" d="M516.4,272c0.2,1.8,1.8,3,3.6,2.8c1.8-0.2,3-1.8,2.8-3.6c-0.2-1.8-1.8-3-3.6-2.8
									C517.5,268.7,516.2,270.3,516.4,272z"/>
								<path style="fill:#323138;" d="M510.1,257.3c-1.1,1.4-0.9,3.4,0.5,4.5c1.4,1.1,3.4,0.9,4.5-0.5c1.1-1.4,0.9-3.4-0.5-4.5
									C513.2,255.6,511.2,255.9,510.1,257.3z"/>
								<path style="fill:#323138;" d="M487,286.3c-1.1,1.4-0.9,3.4,0.5,4.5c1.4,1.1,3.4,0.9,4.5-0.5c1.1-1.4,0.9-3.4-0.5-4.5
									C490.2,284.7,488.2,284.9,487,286.3z"/>
								<path style="fill:#323138;" d="M488.6,259.7c1.4,1.1,1.6,3.1,0.5,4.5c-1.1,1.4-3.1,1.6-4.5,0.5c-1.4-1.1-1.6-3.1-0.5-4.5
									C485.2,258.9,487.2,258.6,488.6,259.7z"/>
								<path style="fill:#323138;" d="M517.6,282.8c1.4,1.1,1.6,3.1,0.5,4.5c-1.1,1.4-3.1,1.6-4.5,0.5c-1.4-1.1-1.6-3.1-0.5-4.5
									C514.2,281.9,516.2,281.7,517.6,282.8z"/>
							</g>
							
								<ellipse transform="matrix(0.5551 -0.8318 0.8318 0.5551 -4.6297 538.497)" style="opacity:0.22;fill:#FFFFFF;" cx="501.1" cy="273.6" rx="13.8" ry="13.8"/>
						</g>
						<path style="fill:#323138;stroke:#2B2B30;stroke-width:1.4638;stroke-miterlimit:10;" d="M499.3,272.4c1.1-1,2.9-0.9,3.9,0.3
							l24.6,29.2l20.5-3.5c1.5-0.3,2.9,0.8,3.2,2.3c0.3,1.5-0.8,2.9-2.3,3.2l-21.7,3.7c-0.7,0.1-1.4,0-1.9-0.4
							c-0.4-0.2-10.4-11.4-10.7-11.8l-15.8-19.1C498.1,275.2,498.2,273.4,499.3,272.4z"/>
					</g>
					<g>
						<g>
							<path style="fill:#323138;" d="M370,120.6c-0.4-3.1,1.9-6,5-6.3c3.1-0.4,6,1.9,6.3,5c0.4,3.1-1.9,6-5,6.3
								C373.2,125.9,370.3,123.7,370,120.6z M372.1,120.3c0.2,1.9,2,3.3,3.9,3.1c1.9-0.2,3.3-2,3.1-3.9c-0.2-1.9-2-3.3-3.9-3.1
								C373.3,116.7,371.9,118.4,372.1,120.3z"/>
						</g>
						<g>
							<path style="fill:#323138;" d="M280.9,63.9c-0.4-3.1,1.9-6,5-6.3c3.1-0.4,6,1.9,6.3,5c0.4,3.1-1.9,6-5,6.3
								C284.1,69.3,281.3,67,280.9,63.9z M283.1,63.7c0.2,1.9,2,3.3,3.9,3.1c1.9-0.2,3.3-2,3.1-3.9c-0.2-1.9-2-3.3-3.9-3.1
								C284.3,60,282.9,61.7,283.1,63.7z"/>
						</g>
						<g>
							<path style="fill:#323138;" d="M207.1,28c-0.2-1.8,1.1-3.5,2.9-3.7c1.8-0.2,3.5,1.1,3.7,2.9c0.2,1.8-1.1,3.5-2.9,3.7
								C209,31.1,207.3,29.8,207.1,28z M208.4,27.8c0.1,1.1,1.1,1.9,2.2,1.8c1.1-0.1,1.9-1.1,1.8-2.2c-0.1-1.1-1.1-1.9-2.2-1.8
								C209.1,25.7,208.3,26.7,208.4,27.8z"/>
						</g>
						<g>
							<path style="fill:#323138;" d="M473,216.9c-0.4-3.1,1.9-6,5-6.3c3.1-0.4,6,1.9,6.3,5c0.4,3.1-1.9,6-5,6.3
								C476.2,222.3,473.4,220,473,216.9z M475.2,216.7c0.2,1.9,2,3.3,3.9,3.1c1.9-0.2,3.3-2,3.1-3.9c-0.2-1.9-2-3.3-3.9-3.1
								C476.4,213,475,214.7,475.2,216.7z"/>
						</g>
					</g>
				</g>
			</g>
			<g>
				<path style="fill:#FCBC98;stroke:#EFAE8E;stroke-width:0.7319;stroke-miterlimit:10;" d="M659.4,269.6h9.6
					c4.2,0,7.7-3.5,7.7-7.7v-30.4c0-1.6-1.3-2.9-2.9-2.9h-14.4c-4.2,0-7.7,3.5-7.7,7.7v25.7C651.7,266.1,655.2,269.6,659.4,269.6z"
					/>
				<g>
					<path style="fill:#BAB331;" d="M626.9,171.9c3-3.9,23.6,8.2,40.9,22c17.3,13.8,31.1,34.1,26.9,39.4
						c-4.2,5.3-24.8-6.5-42.1-20.3C635.2,199.2,622.8,177.2,626.9,171.9z"/>
					<path style="fill:none;stroke:#AAA130;stroke-width:0.7319;stroke-miterlimit:10;" d="M626.9,171.9c3-3.9,23.6,8.2,40.9,22
						c17.3,13.8,31.1,34.1,26.9,39.4c-4.2,5.3-24.8-6.5-42.1-20.3C635.2,199.2,622.8,177.2,626.9,171.9z"/>
				</g>
				<path style="fill:#FCBC98;stroke:#EFAE8E;stroke-width:0.7319;stroke-miterlimit:10;" d="M632.5,201.8c7-13.7,21.8-21,34.4-16.6
					c13.7,4.7,22.2,21.8,16,37.6s-28.2,23.9-41.9,19.1c-10.7-3.7-13.3-14.2-12.4-26.4c-1.9,0.2-3.5-2.3-4.6-3.6
					C622.5,210,629.4,207,632.5,201.8z"/>
				<g>
					<path style="fill:#323138;stroke:#2B2B30;stroke-width:1.4638;stroke-miterlimit:10;" d="M648.9,185.5
						c1.2,5.4,2.1,14.2,14.9,20.7c12.9,6.5,6,29.5,11.5,28.5c25.9-4.6,22.5-39.9-2.8-49.9C663.7,181.4,645.5,170.4,648.9,185.5z"/>
				</g>
				<g>
					<path style="fill:#323138;" d="M646.4,202.3c0,0.8,1.8,0.9,3.3,2c1.6,1,2.2,2.7,2.7,2.6c0.4,0,0.8-2.8-1.3-4.6
						C649,200.6,646.3,201.6,646.4,202.3z"/>
				</g>
				<g>
					<path style="fill:#323138;" d="M649.6,211.5c0,2.5-2,4.6-4.6,4.6c-2.5,0-4.6-2-4.6-4.6c0-2.5,2-4.6,4.6-4.6
						C647.6,207,649.6,209,649.6,211.5z"/>
					<g>
						<path style="fill:#FFFFFF;" d="M642.1,209.9c0,0.6,0.5,1.1,1.1,1.1c0.6,0,1.1-0.5,1.1-1.1c0-0.6-0.5-1.1-1.1-1.1
							C642.6,208.7,642.1,209.2,642.1,209.9z"/>
						<path style="fill:#FFFFFF;" d="M641.6,212.2c0,0.3,0.3,0.6,0.6,0.6c0.3,0,0.6-0.3,0.6-0.6c0-0.3-0.3-0.6-0.6-0.6
							C641.8,211.6,641.6,211.9,641.6,212.2z"/>
					</g>
				</g>
				<g style="opacity:0.22;">
					<ellipse style="fill:#EF7D7D;" cx="652.4" cy="222.6" rx="6.3" ry="4.2"/>
				</g>
				<path style="fill:#323138;stroke:#2B2B30;stroke-width:1.4638;stroke-miterlimit:10;" d="M648.4,177.5c-2,1.1-3.9,2.5-6.1,3.5
					c-2.9,1.3-6.2,1.6-9.2,2.8c-0.7,0.3-1.4,0.6-1.9,1.2c-0.5,0.5-0.8,1.4-0.5,2.1c0.2,0.6,0.7,0.9,1.2,1.2c1.4,0.8,3,1.1,4.6,0.9
					c-1.2,0.9-1.5,2.8-0.7,4.2c0.7,1.4,2.3,2.2,3.8,2.2c1.5,0,3-0.6,4.2-1.6c0.7,1.3,2.4,2.1,3.9,1.7c0.9-0.2,1.6-0.8,2.3-1.4
					c2-1.8,3.7-4,5-6.4c1-1.9,1.7-3.9,1.8-6c0.1-1.7-0.3-4.9-2-5.9C653.1,174.9,650,176.7,648.4,177.5z"/>
				
					<path style="fill:#FFFFFF;stroke:#EFAE8E;stroke-width:0.7319;stroke-linecap:round;stroke-linejoin:round;stroke-miterlimit:10;" d="
					M628.5,221.6c3.5,0.8,8.1-0.6,8.7,0.2c0.7,0.7-2.8,6.5-8,5.7C629.4,227.4,628.5,223.3,628.5,221.6z"/>
				<path style="fill:#FCBC98;" d="M663.5,221.9c0,3.3,2.7,6.1,6.1,6.1c3.9,0,7.4-4,8.3-7.6c0.9-3.8-1.6-7.5-6.4-8.2
					C666.9,211.6,663.5,218,663.5,221.9z"/>
				<g>
					<path style="fill:#C4C031;stroke:#BAB331;stroke-width:1.4638;stroke-miterlimit:10;" d="M694.8,175.9
						c4.5,3.9,11.8,16.6,11.3,22.1c-0.4,4.7-5.2,11.5-7,14.9c-6.4-1.3-16.6-13.3-23.5-19.7c-8.6-8-15.7-15.3-18.7-22.2
						c3.1-2.3,11.7-4.7,16.5-7C677.6,161.8,690.2,172.1,694.8,175.9z"/>
					<path style="fill:#C4C031;stroke:#BAB331;stroke-width:1.4638;stroke-miterlimit:10;" d="M663.9,194.7
						c-15.4-15.9-28-22.5-35.6-24.2c0,0,4.9-1.3,11.5-1.4c11.9-0.2,17.7,1.3,17.7,1.3c1.1,5.2,31.5,34.8,41.5,42.4
						c0,0,2.4,18.9-4.5,20.4C694.6,233.3,690,221.6,663.9,194.7z"/>
					<path style="fill:#896DB5;stroke:#7A63A5;stroke-width:1.4638;stroke-miterlimit:10;" d="M664.5,167.4
						c5,10.3,32.3,36.2,38.8,38.9c-1.4,2.6-3.3,6.2-4.1,7.8c-8.6-4-37.7-33-43.9-44.1C656.7,168.9,661.8,168.5,664.5,167.4z"/>
					<path style="fill:#BAB331;" d="M676.2,164.2c5.2,0.4,15.5,9.5,19.5,13c4,3.6,9.9,14.6,10.5,20.7c-4.4-1.4-11.1-6.4-17.7-13.4
						C681,176.6,676.1,168.4,676.2,164.2z"/>
				</g>
				<path style="fill:#EFAE8E;" d="M668.1,220.8c0,1.2,1,2.2,2.3,2.2c1.5,0,2.8-1.5,3.1-2.8c0.3-1.4-1-2.9-2.4-3
					C669.4,217.1,668.1,219.3,668.1,220.8z"/>
				<g>
					<path style="fill:#EFAE8E;" d="M671.5,228.3c0,0,0.1,0,0.1,0c3.1-0.9,5.4-4.4,6.1-9.2c0.4-2.5-0.6-5-2.5-6.5
						c-1.8-1.3-4.1-1.5-6.5-0.4c-0.2,0.1-0.3,0.3-0.2,0.5c0.1,0.2,0.3,0.3,0.5,0.2c2.1-1,4.2-0.8,5.7,0.3c1.6,1.2,2.5,3.6,2.2,5.8
						c-0.7,4.5-2.8,7.8-5.6,8.6c-0.2,0.1-0.3,0.3-0.3,0.5C671.2,228.2,671.3,228.3,671.5,228.3z"/>
				</g>
			</g>
			<g>
				<path style="fill:#FCC000;stroke:#F4B503;stroke-width:1.3255;stroke-miterlimit:10;" d="M667,250.9c22.7,0,41.1,31.8,41.1,71.1
					c0,13.6-0.5,46.5-4.4,57.3c-8-2.3-22.9-5.1-34.7-7.8c-17.8-4.2-35.3-9.4-45.2-16.3c-1.5-6.1,2-19.6,2-33.2
					C625.8,282.8,644.3,250.9,667,250.9z"/>
				<path style="fill:#FCB322;stroke:#F9A91C;stroke-width:1.3255;stroke-miterlimit:10;" d="M651.3,256.1
					c0,4.6,17.5,11.6,37.5,16.5c19.3,4.8,35.6-1.7,35.6-10.8c0-9.1,6.2-33.5-13.6-27.8C689.1,240.3,651.3,247,651.3,256.1z"/>
				<path style="fill:#FCB322;stroke:#F9A91C;stroke-width:1.3255;stroke-miterlimit:10;" d="M579.1,303.7l57.2,18l14.9-41.9
					c2.9-8.2,12.4-12.7,21.1-9.9c8.7,2.7,13.5,11.6,10.5,19.8l-20.3,57.2l-0.1,0l-0.1,0.2c-1.9,5.5-8.3,8.4-14.1,6.6l-78.2-24.5
					L579.1,303.7z"/>
				<g>
					<path style="fill:#FCBC98;stroke:#EFAE8E;stroke-width:0.7319;stroke-miterlimit:10;" d="M546.1,305
						c-6.6,7.7-0.7,22.3,12.5,23.7c6.5,0.7,13-2.9,15.1-10.3c2.1-7.4,2.7-12.8-7.6-16.6C560,299.5,551.2,299.2,546.1,305z"/>
					<path style="fill:#FCBC98;stroke:#EFAE8E;stroke-width:0.7319;stroke-miterlimit:10;" d="M558,294.9c-0.3,2.1,4.1,5.6,7.8,6.4
						c7.2,1.7,9.4,8.1,10.8,6.5c3.4-3.9-1.7-11-7.8-13.6C562.7,291.7,558.4,292.5,558,294.9z"/>
				</g>
			</g>
		</g>
		<g>
			<g>
				<path style="fill:#C97E32;" d="M725.1,409.3c59.7-4.3,107.1-9.9,144.5-17.7c37.4-7.8,64.9-17.8,84.8-30.7
					c-2.9,43-35.2,112.4-68.4,133.3c-43.8,15.3-426.8,14.4-486.1-6.1c-34.1-20.5-87.7-82.8-108.1-122.5
					c44.7,17.5,101.5,34.8,173,42.3S622.2,416.6,725.1,409.3z"/>
				<path style="fill:none;stroke:#9C4B16;stroke-width:1.4638;stroke-miterlimit:10;" d="M725.1,409.3
					c59.7-4.3,107.1-9.9,144.5-17.7c37.4-7.8,64.9-17.8,84.8-30.7c-2.9,43-35.2,112.4-68.4,133.3c-43.8,15.3-426.8,14.4-486.1-6.1
					c-34.1-20.5-87.7-82.8-108.1-122.5c44.7,17.5,101.5,34.8,173,42.3S622.2,416.6,725.1,409.3z"/>
			</g>
			<path style="fill:#9C4B16;" d="M379.3,470.5c62.1,19.7,447.4,21.9,524.2,8.9c-5.6,6.1-11.3,11.2-17,14.8
				c-43.8,15.3-424.7,31-484,10.5c-8.9-5.4-21.4-29.9-32-39.5C373.5,467.2,376.5,469,379.3,470.5z"/>
		</g>
		<g>
			<g>
				<path style="fill:#46434C;" d="M92.6,424.9c5-11.7,7.8-27.4,8.8-38.2c1.5-17.5,4-69.4,6-158.2c0-0.4-0.3-0.7-0.7-0.7
					c0,0,0,0,0,0c-0.4,0-0.7,0.3-0.7,0.7c-2,88.7-4.5,140.6-6,158.1c-0.9,10.7-3.7,26.2-8.7,37.7"/>
			</g>
			<polygon style="fill:#FCB322;stroke:#F9A91C;stroke-width:1.4638;stroke-miterlimit:10;" points="89.7,431.7 93.7,427.7 
				97.8,423.6 92.1,424.3 87.9,420.4 88.8,426 			"/>
		</g>
		<g style="display:none;">
			<g style="display:inline;">
				<path style="fill:#46434C;" d="M44.1,477.8c3.4,0,6.9-0.5,10.4-1.5c13.8-4.1,26.9-16.3,33.4-31.2c6.9-16,10.7-37.4,12-52.2
					c2.1-23.9,5.4-42.9,8.2-164.1c0-0.6-0.4-1-1-1c0,0,0,0,0,0c-0.5,0-1,0.4-1,1c-2.7,121.2-6.1,140.1-8.2,164
					c-1.3,14.6-5,35.8-11.8,51.5c-6.2,14.4-18.8,26.2-32.1,30.1c-9.9,2.9-19.7,1.4-28.3-4.3c-12.4-8.3-16.6-27-16.3-41.8
					c0-0.6-0.4-1-1-1c-0.5,0-1,0.4-1,1c-0.1,7.4,0.8,32.5,17.2,43.5C30.6,475.7,37.2,477.8,44.1,477.8z"/>
			</g>
			<polygon style="display:inline;fill:#FCB322;stroke:#F9A91C;stroke-width:2;stroke-miterlimit:10;" points="8,420.5 4.4,427.5 
				0.9,434.5 8,431.2 15,434.5 11.5,427.5 			"/>
		</g>
		<g>
			
				<path style="fill:#9F9FA0;stroke:#8C8C8C;stroke-width:1.4652;stroke-linecap:round;stroke-linejoin:round;stroke-miterlimit:10;" d="
				M370.6,413.1v1.5c0,1.5,1.2,2.7,2.7,2.7h7.8v-7h-7.8C371.8,410.4,370.6,411.6,370.6,413.1z M375.8,413.9c0,1.1-0.9,2-2,2
				c-1.1,0-2-0.9-2-2s0.9-2,2-2C374.9,411.9,375.8,412.8,375.8,413.9z"/>
			
				<path style="fill:#9F9FA0;stroke:#8C8C8C;stroke-width:1.4652;stroke-linecap:round;stroke-linejoin:round;stroke-miterlimit:10;" d="
				M503.4,410.4h-7.8v7h7.8c1.5,0,2.7-1.2,2.7-2.7v-1.5C506.1,411.6,504.9,410.4,503.4,410.4z M502.8,411.9c1.1,0,2,0.9,2,2
				s-0.9,2-2,2c-1.1,0-2-0.9-2-2S501.7,411.9,502.8,411.9z"/>
			
				<path style="fill:#9F9FA0;stroke:#8C8C8C;stroke-width:1.4652;stroke-linecap:round;stroke-linejoin:round;stroke-miterlimit:10;" d="
				M434,348v7.8h7V348c0-1.5-1.2-2.7-2.7-2.7h-1.5C435.3,345.3,434,346.5,434,348z M435.5,348.6c0-1.1,0.9-2,2-2c1.1,0,2,0.9,2,2
				c0,1.1-0.9,2-2,2C436.4,350.6,435.5,349.7,435.5,348.6z"/>
			
				<path style="fill:#9F9FA0;stroke:#8C8C8C;stroke-width:1.4652;stroke-linecap:round;stroke-linejoin:round;stroke-miterlimit:10;" d="
				M436.8,480.8h1.5c1.5,0,2.7-1.2,2.7-2.7v-7.8h-7v7.8C434,479.6,435.3,480.8,436.8,480.8z M437.6,475.6c1.1,0,2,0.9,2,2
				s-0.9,2-2,2c-1.1,0-2-0.9-2-2S436.4,475.6,437.6,475.6z"/>
			<g>
				<g>
					<path style="fill:#E53C3C;stroke:#D63C3C;stroke-width:1.4652;stroke-miterlimit:10;" d="M378.7,413.1
						c0,32.9,26.7,59.6,59.6,59.6c32.9,0,59.6-26.7,59.6-59.6c0-32.9-26.7-59.6-59.6-59.6C405.4,353.5,378.7,380.1,378.7,413.1z
						 M401.5,413.1c0-20.4,16.5-36.9,36.9-36.9c20.4,0,36.9,16.5,36.9,36.9c0,20.4-16.5,36.9-36.9,36.9
						C418,449.9,401.5,433.4,401.5,413.1z"/>
				</g>
				<g>
					<path style="fill:#FFFFFF;stroke:#EEEBF7;stroke-width:1.4652;stroke-miterlimit:10;" d="M379.2,405.8h23
						c-0.5,2.3-0.7,4.8-0.7,7.2c0,3.1,0.4,6,1.1,8.9h-23.1c-0.4-2.9-0.7-5.9-0.7-8.9C378.7,410.6,378.9,408.2,379.2,405.8z"/>
				</g>
				<g>
					<path style="fill:#FFFFFF;stroke:#EEEBF7;stroke-width:1.4652;stroke-miterlimit:10;" d="M438.3,449.9c2.4,0,4.8-0.2,7.1-0.7
						v23c-2.3,0.3-4.7,0.4-7.1,0.4c-3.1,0-6.1-0.2-9-0.7v-23.1C432.2,449.6,435.2,449.9,438.3,449.9z"/>
				</g>
				<g>
					<path style="fill:#FFFFFF;stroke:#EEEBF7;stroke-width:1.4652;stroke-miterlimit:10;" d="M438.3,376.2c-3.1,0-6.1,0.4-9,1.1
						v-23.1c2.9-0.4,5.9-0.7,9-0.7c2.4,0,4.8,0.1,7.1,0.4v23C443.1,376.4,440.8,376.2,438.3,376.2z"/>
				</g>
				<g>
					<path style="fill:#FFFFFF;stroke:#EEEBF7;stroke-width:1.4652;stroke-miterlimit:10;" d="M475.2,413.1c0-2.5-0.2-4.9-0.7-7.2
						h23c0.3,2.4,0.4,4.8,0.4,7.2c0,3-0.2,6-0.7,8.9h-23.1C474.9,419.1,475.2,416.1,475.2,413.1z"/>
				</g>
			</g>
			<g>
				<path style="fill:#D63C3C;" d="M429.3,448.8C429.3,448.8,429.3,448.8,429.3,448.8l0,10.4c-18.8-3.6-33.6-18.5-37.2-37.3h10.4
					C405.8,435.1,416.2,445.5,429.3,448.8z"/>
				<path style="fill:#D63C3C;" d="M474.1,421.9C474.1,421.9,474.1,421.9,474.1,421.9l10.4,0c-3.7,19.4-19.4,34.6-39.1,37.6v-10.3
					C459.5,446.5,470.7,435.8,474.1,421.9z"/>
				<path style="fill:#D63C3C;" d="M402.2,405.8C402.2,405.8,402.2,405.8,402.2,405.8l-10.3,0c3-19.6,18.1-35.2,37.5-38.9v10.4
					C415.6,380.7,404.9,391.9,402.2,405.8z"/>
				<path style="fill:#D63C3C;" d="M474.5,405.8c-2.9-14.6-14.4-26.1-29.1-29l0,0l0-10.3c20.2,3.1,36.2,19,39.4,39.3L474.5,405.8
					C474.5,405.8,474.5,405.8,474.5,405.8z"/>
				<path style="fill:#EEEBF7;stroke:#EEEBF7;stroke-width:1.4652;stroke-miterlimit:10;" d="M390.8,405.8h11.3l0,0
					c-0.2,0.9-0.4,1.8-0.5,2.7c0,0,0,0,0,0c0,0.3-0.1,0.6-0.1,0.9c0,0,0,0.1,0,0.1c0,0.3-0.1,0.5-0.1,0.8c0,0.1,0,0.1,0,0.2
					c0,0.2,0,0.5,0,0.7c0,0.1,0,0.3,0,0.4c0,0.2,0,0.3,0,0.5c0,0.3,0,0.6,0,0.9c0,0.4,0,0.7,0,1.1c0,0.1,0,0.2,0,0.3
					c0,0.3,0,0.5,0,0.8c0,0.1,0,0.2,0,0.3c0,0.3,0,0.5,0.1,0.8c0,0.1,0,0.2,0,0.3c0,0.3,0.1,0.6,0.1,0.9c0,0,0,0.1,0,0.1
					c0.1,1.1,0.4,2.2,0.6,3.3c0,0,0,0,0,0c0.1,0.4,0.2,0.7,0.3,1.1h-11.4c-0.6-2.9-0.9-5.8-0.9-8.9
					C390.2,410.6,390.4,408.2,390.8,405.8z"/>
				<path style="fill:#EEEBF7;stroke:#EEEBF7;stroke-width:1.4652;stroke-miterlimit:10;" d="M429.3,448.8c0.3,0.1,0.7,0.2,1,0.2
					c0,0,0.1,0,0.1,0c0.3,0.1,0.6,0.1,1,0.2c0,0,0.1,0,0.1,0c0.7,0.1,1.4,0.2,2.2,0.3c0,0,0,0,0.1,0c0.3,0,0.7,0.1,1,0.1
					c0.1,0,0.2,0,0.3,0c0.3,0,0.5,0,0.8,0.1c0.1,0,0.2,0,0.3,0c0.3,0,0.5,0,0.8,0c0.1,0,0.2,0,0.3,0c0.4,0,0.7,0,1.1,0
					c0.3,0,0.6,0,0.9,0c0.2,0,0.3,0,0.5,0c0.1,0,0.3,0,0.4,0c0.2,0,0.4,0,0.6,0c0.1,0,0.2,0,0.3,0c0.2,0,0.5,0,0.7-0.1
					c0,0,0.1,0,0.1,0c0.3,0,0.5-0.1,0.8-0.1c0,0,0,0,0.1,0c0.3,0,0.6-0.1,0.8-0.1c0,0,0,0,0,0c0.6-0.1,1.2-0.2,1.7-0.3v10.3
					c-2.3,0.4-4.7,0.5-7.1,0.5c-3.1,0-6.1-0.3-9-0.9L429.3,448.8C429.3,448.8,429.3,448.8,429.3,448.8z"/>
				<path style="fill:#EEEBF7;stroke:#EEEBF7;stroke-width:1.4652;stroke-miterlimit:10;" d="M445.4,376.9c-0.6-0.1-1.2-0.2-1.7-0.3
					c0,0,0,0,0,0c-0.3,0-0.6-0.1-0.8-0.1c0,0,0,0-0.1,0c-0.3,0-0.5-0.1-0.8-0.1c0,0-0.1,0-0.1,0c-0.2,0-0.5,0-0.7-0.1
					c-0.1,0-0.2,0-0.3,0c-0.2,0-0.4,0-0.6,0c-0.1,0-0.3,0-0.4,0c-0.2,0-0.3,0-0.5,0c-0.3,0-0.6,0-0.9,0c-0.4,0-0.7,0-1.1,0
					c-0.1,0-0.2,0-0.3,0c-0.3,0-0.5,0-0.8,0c-0.1,0-0.2,0-0.3,0c-0.3,0-0.5,0-0.8,0.1c-0.1,0-0.2,0-0.3,0c-0.3,0-0.7,0.1-1,0.1
					c0,0,0,0-0.1,0c-0.7,0.1-1.5,0.2-2.2,0.3c0,0-0.1,0-0.1,0c-0.3,0.1-0.6,0.1-1,0.2c0,0-0.1,0-0.1,0c-0.3,0.1-0.7,0.2-1,0.2v-10.4
					c2.9-0.6,5.9-0.9,9-0.9c2.4,0,4.8,0.2,7.1,0.5L445.4,376.9L445.4,376.9z"/>
				<path style="fill:#EEEBF7;stroke:#EEEBF7;stroke-width:1.4652;stroke-miterlimit:10;" d="M474.1,421.9c0.1-0.3,0.2-0.7,0.2-1.1
					c0,0,0,0,0,0c0.2-1.1,0.4-2.1,0.5-3.2c0,0,0-0.1,0-0.1c0-0.3,0.1-0.6,0.1-0.9c0-0.1,0-0.2,0-0.3c0-0.3,0-0.5,0.1-0.8
					c0-0.1,0-0.2,0-0.3c0-0.3,0-0.5,0-0.8c0-0.1,0-0.2,0-0.3c0-0.4,0-0.7,0-1.1c0-0.3,0-0.6,0-0.9c0-0.2,0-0.3,0-0.5
					c0-0.1,0-0.3,0-0.4c0-0.2,0-0.5,0-0.7c0-0.1,0-0.1,0-0.2c0-0.3,0-0.5-0.1-0.8c0,0,0-0.1,0-0.1c0-0.3-0.1-0.6-0.1-0.9
					c0,0,0,0,0,0c-0.1-0.9-0.3-1.8-0.4-2.7c0,0,0,0,0,0h10.3c0.4,2.4,0.6,4.8,0.6,7.2c0,3-0.3,6-0.8,8.9L474.1,421.9
					C474.1,421.9,474.1,421.9,474.1,421.9z"/>
			</g>
			<g>
				<path style="fill:#323138;" d="M502.8,413.7c0.4,0,0.7-0.3,0.7-0.7c0-11.2-9-12.3-18.6-13.6c-8.6-1.1-18.4-2.4-23.9-10.9
					c-2.9-4.6-3.3-10.7-3.6-16.7c-0.7-11.4-1.3-23.3-19.9-24.6c-0.4,0-0.7,0.2-0.7,0.6c0,0.4,0.2,0.7,0.6,0.7
					c17.4,1.3,18,12,18.7,23.4c0.4,6.1,0.7,12.4,3.8,17.3c5.8,9.1,15.9,10.4,24.8,11.5c9.7,1.3,17.4,2.3,17.4,12.3
					C502.2,413.4,502.5,413.7,502.8,413.7z"/>
			</g>
			<g>
				<path style="fill:#323138;" d="M373.8,413.7c0.3,0,0.6-0.3,0.7-0.6c1.8-17.6,12.4-18.4,23.6-19.3c5.8-0.4,11.8-0.9,16.6-3.7
					c9.3-5.6,10.5-15.7,11.5-24.7c1.1-9.6,1.9-17.1,11.8-16.8c0.4,0,0.7-0.3,0.7-0.6c0-0.4-0.3-0.7-0.6-0.7
					c-11.1-0.3-12.1,8.6-13.2,18c-1,8.7-2.1,18.5-10.8,23.7c-4.5,2.7-10.3,3.1-16,3.6c-11.2,0.8-22.8,1.7-24.8,20.4
					C373.1,413.4,373.4,413.7,373.8,413.7C373.8,413.7,373.8,413.7,373.8,413.7z"/>
			</g>
			<g>
				<path style="fill:#323138;" d="M437.6,479C437.6,479,437.6,479,437.6,479c18.6-1.4,19.3-13.2,19.9-24.6
					c0.3-5.9,0.7-12.1,3.6-16.7c5.5-8.6,15.3-9.7,23.9-10.7c9.5-1.1,18.5-2.1,18.5-13.2c0-0.4-0.3-0.7-0.7-0.7s-0.7,0.3-0.7,0.7
					c0,10-7.6,10.8-17.3,11.9c-8.9,1-19.1,2.2-24.9,11.3c-3.1,4.8-3.5,11.2-3.8,17.3c-0.7,11.4-1.3,22.1-18.7,23.4
					c-0.4,0-0.6,0.3-0.6,0.7C436.9,478.8,437.2,479,437.6,479z"/>
			</g>
			<g>
				<path style="fill:#323138;" d="M437.3,479.1c0.2,0,0.4,0,0.6,0c0.4,0,0.6-0.3,0.6-0.7c0-0.4-0.3-0.6-0.7-0.6
					c-9.9,0.3-10.7-7.2-11.8-16.8c-1-9-2.1-19.2-11.5-24.7c-4.8-2.9-10.9-3.3-16.7-3.6c-11.1-0.7-21.6-1.3-23.4-18.8
					c0-0.4-0.4-0.6-0.7-0.6c-0.4,0-0.6,0.4-0.6,0.7c1.9,18.6,13.5,19.3,24.6,20c5.7,0.3,11.6,0.7,16.1,3.4
					c8.8,5.2,9.9,15.1,10.8,23.7C425.8,470.3,426.8,479.1,437.3,479.1z"/>
			</g>
		</g>
	</g>
</g>
</svg>
