<?xml version="1.0" encoding="utf-8"?>
<!-- Generator: Adobe Illustrator 23.0.0, SVG Export Plug-In . SVG Version: 6.00 Build 0)  -->
<svg version="1.1" id="Layer_1" xmlns="http://www.w3.org/2000/svg" xmlns:xlink="http://www.w3.org/1999/xlink" x="0px" y="0px"
	 width="67.7px" height="63.5px" viewBox="0 0 67.7 63.5" style="enable-background:new 0 0 67.7 63.5;" xml:space="preserve">
<g>
	<path style="fill:#FF7F29;" d="M58.8,26.3v30.5c0,2.1-1.7,3.8-3.8,3.8H12.2c-2.1,0-3.8-1.7-3.8-3.8V26.3v0l15.1-15.1l4.9-4.9
		c2.9-2.9,7.5-2.9,10.3,0l4.9,4.9L58.8,26.3L58.8,26.3z"/>
	<path style="display:none;fill:#F9F9F9;" d="M44.1,56.2h11.7c3.7,0,6.6,3,6.6,6.6v27.7h-25V62.9C37.5,59.2,40.5,56.2,44.1,56.2z"/>
	<path style="fill:#E87528;" d="M59,25.8v30.4c0,2.1-1.7,3.8-3.8,3.8h-1.7c0.3-0.5,0.4-1.1,0.4-1.8V27.8l-20-20
		c-1.4-1.4-3.3-2.1-5.1-2.1C31.7,3,36.2,3,39,5.8L59,25.8z"/>
	<path style="display:none;fill:#E2E0E0;" d="M62.5,62.9v27.7h-7.8V62.9c0-3.7-3-6.6-6.6-6.6h7.8C59.5,56.2,62.5,59.2,62.5,62.9z"/>
	<path d="M67.1,29.2L40.8,2.9C37-1,30.8-1,26.9,2.9L0.6,29.2c-0.8,0.8-0.8,2.2,0,3c0.8,0.8,2.2,0.8,3,0l1.7-1.7v26.9
		c0,3.4,2.7,6.1,6.1,6.1h14h16.9h14c3.4,0,6.1-2.7,6.1-6.1V30.5l1.7,1.7c0.4,0.4,1,0.6,1.5,0.6c0.5,0,1.1-0.2,1.5-0.6
		C67.9,31.3,67.9,30,67.1,29.2z M40.2,59.3H27.5 M27.5,59.3H11.4c-1,0-1.9-0.8-1.9-1.9V26.3L29.9,5.9c2.2-2.2,5.7-2.2,7.9,0
		l20.4,20.4v31.1c0,1-0.8,1.9-1.9,1.9H40.2"/>
</g>
<g>
	<path style="fill:#FFFFFF;" d="M37.3,36.4v1.2h8.8c0.8,0,1.4,0.2,1.7,0.6c0.3,0.4,0.5,0.9,0.5,1.4c0,0.5-0.2,1-0.5,1.4
		c-0.3,0.4-0.9,0.6-1.7,0.6H22.5c-0.8,0-1.3-0.2-1.7-0.6c-0.3-0.4-0.5-0.9-0.5-1.4c0-0.5,0.2-1,0.5-1.4c0.3-0.4,0.9-0.6,1.7-0.6h8.8
		v-1.2h-2.7c-1.1,0-2-0.1-2.8-0.4c-0.8-0.2-1.4-0.6-2-1c-0.5-0.4-0.9-1-1.1-1.6c-0.2-0.6-0.4-1.3-0.4-2c0-0.3,0.1-0.6,0.2-0.9
		c-0.6-0.1-1-0.3-1.3-0.7c-0.3-0.4-0.5-0.8-0.5-1.4c0-0.6,0.2-1.1,0.6-1.5c0.4-0.4,1-0.6,1.7-0.6H31c0.1-0.9,0.4-1.5,1-1.9
		c0.6-0.4,1.3-0.6,2.2-0.6c0.9,0,1.6,0.2,2.2,0.6c0.6,0.4,0.9,1.1,1,1.9h8.1c0.7,0,1.3,0.2,1.7,0.6c0.4,0.4,0.6,0.9,0.6,1.5
		c0,0.6-0.2,1-0.5,1.4c-0.3,0.4-0.8,0.6-1.3,0.7c0.1,0.3,0.2,0.6,0.2,0.9c0,0.7-0.1,1.4-0.4,2c-0.2,0.6-0.6,1.1-1.1,1.6
		c-0.5,0.4-1.2,0.8-2,1c-0.8,0.2-1.7,0.4-2.8,0.4H37.3z M25.4,52.2c-0.8,0-1.5-0.1-2-0.2c-0.5-0.1-0.9-0.3-1.2-0.6
		c-0.3-0.3-0.4-0.7-0.5-1.3c-0.1-0.5-0.1-1.2-0.1-2v-1.3c0-0.8,0-1.5,0.1-2c0.1-0.5,0.3-0.9,0.5-1.3c0.3-0.3,0.7-0.5,1.2-0.6
		c0.5-0.1,1.2-0.2,2-0.2h17.7c0.8,0,1.5,0.1,2,0.2c0.5,0.1,0.9,0.3,1.2,0.6c0.3,0.3,0.4,0.7,0.5,1.3c0.1,0.5,0.1,1.2,0.1,2v5.4H25.4
		z M27.6,47.8c0,0.2,0,0.4,0.1,0.5c0.1,0.1,0.2,0.1,0.4,0.1h12.7v-1.3c0-0.2,0-0.4-0.1-0.4c-0.1-0.1-0.3-0.1-0.5-0.1H28.2
		c-0.2,0-0.4,0-0.4,0.1c-0.1,0.1-0.1,0.2-0.1,0.4V47.8z M29.7,30.1c-0.5,0-0.9,0.1-1.1,0.3c-0.2,0.2-0.4,0.5-0.4,0.8
		c0,0.3,0.1,0.6,0.3,0.8c0.2,0.2,0.6,0.3,1.1,0.3h9.2c0.5,0,0.9-0.1,1.1-0.3c0.2-0.2,0.3-0.5,0.3-0.8c0-0.4-0.1-0.6-0.4-0.8
		c-0.2-0.2-0.6-0.3-1.1-0.3H29.7z"/>
</g>
</svg>
