<?xml version="1.0" encoding="utf-8"?>
<!-- Generator: Adobe Illustrator 23.0.0, SVG Export Plug-In . SVG Version: 6.00 Build 0)  -->
<svg version="1.1" id="레이어_1" xmlns="http://www.w3.org/2000/svg" xmlns:xlink="http://www.w3.org/1999/xlink" x="0px"
	 y="0px" width="386.3px" height="277px" viewBox="0 0 386.3 277" style="enable-background:new 0 0 386.3 277;"
	 xml:space="preserve">
<g style="display:none;">
	<path style="display:inline;fill:#FF5157;stroke:#EF4D61;stroke-width:1.3386;stroke-miterlimit:10;" d="M216.5,223.8
		c1-5.6,2.2-16.7,4-22.2c2-6.1,4-12.2,6.9-17.9c1.4-2.7,15.4-6.5,20.4-5.4c11.4,2.4,34.3-12.2,24.6-18.5c-9.5-6.2-6,8-16.2,9.3
		c-6.8,0.9-6.7-3.5-8.6-4c-5.1-1.5-7.7,3.3-12.5,5.7c7.6-20.1-4.3-32.3-7.5-50.7c-1.6-9.2-9.3-17.3-16.3-12.7
		c-7.2,4.7-3.3,13.8-1.5,16c14.6,17.8,16.5,30,14.1,36c-0.8,1.9-3.9,8.5-6,8.1c-11.4-2-10.7-13.4-13-17.6c-2.3-4.1-3.7-9-7.4-11.9
		c-3.7-2.9-10.8-1.6-11,3.1c-3.4,4.1,0,18.9,13,28.7c5.3,4,10.3,11.5,12,17.9c1.7,6.5,0.6,14.2-4.6,18.3c-1.4-6.4-9.5-21.1-15.2-18
		c-12.7,7,9.1,19.8,9.2,27.7c0.1,3.7-0.7,14.6-1.3,18.2c-1.4,8.2-8.8,7.5-3.2,16.6c1.9,3.1,8.6,2.2,11-0.7
		C210.1,246.7,215.1,231.8,216.5,223.8z"/>
	<path style="display:inline;fill:#FF5157;stroke:#EF4D61;stroke-width:1.3386;stroke-miterlimit:10;" d="M179.6,189.6
		c-0.7-1.2-3-9.5-3.3-10.8c-0.7-4,2.6-7.5,5.3-10.5c2.7-3.1,5-7.8,2.3-10.9c-6.1,0.1-7.9,8.6-12.6,12.5c-1.4-1.7-2.8-3.5-4.2-5.2
		c3.9-9.6,4.5-31.2-5.6-28.8c-7.3,1.7-2.8,14.9-1.4,22.3c-2.5-2.6-5.1-5.4-8.5-6.8c-3.4-1.4-9.6-2-10.1,1.6
		c-1.3,8.4,11.1,14,21.4,27.4c-1.9,3.4-14.8,0-18.7-0.8c-2.5-0.5-4.7-2-7.2-1.9c-3.9,0.2-6.4,4.9-5.4,8.6c1.1,3.7,4.8,6.3,8.6,6.9
		c3.8,0.6,7.7-0.4,11.4-1.6c1.7-0.6,3.6-1.5,5.4-1.1c10.2,2.2,12.6,7.4,14.3,11.6c1.8,4.1,0.1,10-4.3,11c-2.2,0.5-4.8-0.3-6.6,1.1
		c-2.8,2.2-0.3,6.9,3.1,8c3.4,1,6.4-1.4,12.7-3.2c6-1.7,7.3,1.2,10.5,6.5c3.3,5.3,7.3,19.8,12.2,23.5c3.4,0.4,3.9-4.9,2.9-8.2
		c-2.9-9.8-3-18-6.8-27.5C190.9,203.2,185.2,199,179.6,189.6z"/>
	<path style="display:inline;fill:#FF5157;stroke:#EF4D61;stroke-width:1.3386;stroke-miterlimit:10;" d="M210.4,235.8
		c3.7-2.7,7.4-5.4,11.1-8.1c3.7-2.7,7.8-5.9,8.7-10c0.5-2.1,0.1-4.1-0.3-6c-0.6-2.6-1.1-5.3-1.7-7.9c-0.7-3.4-1.4-6.8-1-10.3
		c0.4-3.6,2-7.3,5.1-9.9c1.1-0.9,2.4-1.6,3.8-1.8c3.3-0.4,5.4,2.8,5.3,5.8c-0.1,3.1-1.7,6.1-2.4,9.2c-0.7,3.1-0.4,6.6,2.4,7.9
		c2.6-5.3,7-10.1,12.4-13.3c3.4,3.4,3.4,9.3,0.1,13.7c-1.1,1.4-2.4,2.6-3.7,3.9c-4.4,4.3-8.2,9.1-11.1,14.3c7-0.8,13.8-8.4,20-6.4
		c0.6,3.5-3.9,6.5-7.6,8.3c-3.3,1.6-6.6,3.2-9.9,4.8c-1.4,0.7-2.8,1.4-3.6,2.6c-1.5,2.2,0,4.6,1.1,6.6s1.9,4.9-0.3,6.6
		c-2.4,1.8-5.5,0-7.3-1.8c-2.3-2.3-4.7-5.7-2.5-8.8c-9,2.6-20.7,9.2-14.5,31.1c3.1,11-11.3,9.3-15.5-8
		C196.4,247.6,208.7,237,210.4,235.8z"/>
</g>
<g style="display:none;">
	<path style="display:inline;opacity:0.6;fill:#43AF2C;stroke:#409B2A;stroke-width:1.3386;stroke-miterlimit:10;" d="M120.9,246.4
		c0,0-0.1-0.2-0.2-0.6c0-0.1-0.1-0.2-0.1-0.3c0,0,0,0,0,0l0,0c0-0.1,0-0.1-0.1-0.2c-0.2-0.6-0.3-1.2-0.3-2.1c0-0.9,0.2-2.3,1.3-4.7
		c0.5-1.2,1.3-2.6,2.3-4.2c1-1.7,2.2-3.5,3.7-5.9c0.7-1.2,1.5-2.6,2.4-4.3c0.8-1.7,1.7-3.8,2.4-6.6c0.3-1.4,0.5-3,0.6-4.8
		c0-0.9,0-1.8-0.1-2.7l0-0.3l-0.1-0.4l0-0.1l-0.1-0.3l-0.1-0.5c-0.1-0.4-0.2-0.8-0.2-1.2c-0.1-0.5-0.2-1-0.3-1.6
		c-0.2-1-0.5-1.9-0.8-2.9c-1.1-3.8-3.2-8-5.8-11.2c-1.3-1.6-2.7-3-4-4.1c-1.3-1.1-2.5-2.1-3.6-2.9c-2.2-1.7-3.9-2.9-5.2-4.4
		c-0.7-0.7-1.3-1.5-1.8-2.4l-0.1-0.2l0,0c0,0-0.1-0.1,0,0.1l-0.1-0.1l-0.3-0.5l-0.4-0.8c-0.3-0.5-0.5-1.1-0.8-1.6
		c-1-2.1-1.5-4.1-1.6-5.8c-0.1-1.7,0.2-3.5,1.3-5.7c1-2.2,2.7-4.7,4.4-7.3c1.8-2.7,3.7-5.7,5.2-9.4c0.7-1.8,1.3-3.8,1.7-5.9
		c0.1-0.5,0.2-1,0.2-1.6l0.1-0.8l0-0.6c0.1-0.8,0.1-1.7,0.2-2.5c0.2-3.3,0.3-6.7,0.1-10.2c-0.2-3.4-0.7-6.9-1.7-10
		c-0.9-3.2-2.2-6.1-3.6-8.7c-1.4-2.6-2.9-4.9-4.4-7.1c-0.4-0.5-0.7-1-1.1-1.5c-0.4-0.5-0.7-1-1-1.5c-0.6-0.9-1.2-1.9-1.7-2.9
		c-2.1-3.9-3.2-8.1-3.4-11.9c-0.2-3.8,0.4-7.2,1.2-9.9c0.8-2.7,1.8-4.6,2.5-5.9c0.4-0.6,0.7-1.1,0.9-1.5c0.2-0.3,0.3-0.5,0.3-0.5
		s-0.1,0.1-0.4,0.4c-0.2,0.3-0.6,0.7-1,1.3c-0.9,1.2-2.1,3-3.3,5.6c-1.2,2.6-2.3,6.1-2.6,10.4c-0.3,4.3,0.3,9.2,2.1,14.2
		c0.4,1.2,0.9,2.4,1.6,3.7c0.3,0.7,0.6,1.2,0.9,1.8c0.3,0.6,0.6,1.1,0.9,1.7c1.2,2.2,2.3,4.5,3.2,6.9c1,2.4,1.7,4.9,2.1,7.5
		c0.4,2.6,0.6,5.2,0.4,8c-0.1,2.8-0.5,5.7-1,8.7c-0.1,0.7-0.3,1.5-0.4,2.3l-0.1,0.6l-0.1,0.4c-0.1,0.3-0.1,0.5-0.2,0.8
		c-0.3,1.1-0.8,2.1-1.4,3.1c-1.1,2.1-2.8,4.1-4.8,6.4c-1.9,2.3-4.2,4.7-6.3,8c-1.1,1.6-2.1,3.5-2.9,5.7c-0.8,2.1-1.4,4.6-1.6,7
		c-0.2,2.4-0.1,4.8,0.2,7.1c0.3,2.2,0.8,4.3,1.4,6.3c0.3,1,0.6,1.9,1,2.9l0.5,1.3l0.2,0.6l0.1,0.1l0.1,0.3l0.2,0.4
		c0.8,1.9,1.8,3.7,3,5.4c2.2,3.4,4.9,6.1,6.9,8.1c1,1,1.9,2,2.6,2.8c0.7,0.8,1.2,1.5,1.5,2.2c0.7,1.3,1,2.5,1.3,4.1
		c0.1,0.4,0.1,0.9,0.1,1.2c0,0.2,0,0.3,0,0.5l0.1,0.9c0.1,1.2-0.1,0.1-0.1-0.1c0-0.4,0-0.7,0-0.8c0-0.2-0.1,0.1-0.4,0.6
		c-0.3,0.5-0.8,1.2-1.4,2c-1.4,1.8-2.7,3.5-3.9,5.2c-1.4,1.9-2.8,4-4.1,6.2c-1.3,2.2-2.4,4.6-3.3,7.1c-0.9,2.5-1.5,5.1-1.8,7.5
		c-0.3,2.4-0.4,4.6-0.3,6.5c0.1,1.9,0.3,3.5,0.5,4.7c0.1,0.3,0.1,0.6,0.1,0.9c0.1,0.3,0.1,0.6,0.2,0.9c0.1,0.4,0.2,0.8,0.2,1.1
		c0.1,0.4,0.1,0.6,0.1,0.6l0,0c1.6,7.2,7.9,11.5,14.1,9.7c6.2-1.9,9.9-9.2,8.3-16.4C121.2,247.2,121.1,246.8,120.9,246.4z"/>
	<path style="display:inline;fill:#43AF2C;stroke:#409B2A;stroke-width:1.3386;stroke-miterlimit:10;" d="M98.9,245.7
		c0,0-0.2-0.6-0.6-1.8c-0.3-1.2-0.8-2.9-1.4-5.2c-0.5-2.3-1.1-5.1-1.5-8.3c-0.4-3.3-0.7-7-0.8-11c0-4,0.2-8.3,1.1-12.5
		c0.9-4.1,2.4-8.1,4.7-10.4c0.6-0.6,1.2-1.1,1.9-1.5l0.2-0.1l0.4-0.2l0.8-0.5c0.5-0.3,1-0.5,1.5-0.8c2.1-1.1,4.3-2.1,6.6-3.1
		c2.3-1,4.7-2,7.3-3.4c1.3-0.7,2.7-1.5,4-2.7c1.3-1.1,2.7-2.5,3.7-4.2c1.1-1.7,1.8-3.6,2.3-5.5c0.5-1.9,0.6-3.7,0.7-5.4
		c0.1-1.7,0-3.4-0.1-5c-0.1-0.8-0.1-1.6-0.2-2.4c0-0.1-0.1-0.8-0.1-0.8c0-0.1,0-0.4,0-0.6c0-0.8,0.1-1.6,0.4-2.5
		c0.3-0.8,0.8-1.7,1.4-2.6c1.2-1.8,3-3.4,4.8-5.2c1.8-1.8,3.8-3.5,5.6-6c0.9-1.3,1.7-2.8,2.1-4.5c0.5-1.7,0.5-3.6,0.2-5.3
		c-0.1-0.4-0.2-0.8-0.3-1.2l-0.1-0.3l-0.1-0.2l0-0.1l-0.2-0.4c-0.2-0.5-0.5-1.3-0.8-1.9c-0.6-1.3-1.3-2.6-2.2-3.6
		c-0.9-1-1.7-1.7-2.4-2.4c-0.7-0.7-1.4-1.4-2.1-2.1c-0.3-0.4-0.6-0.7-0.9-1.1c-0.3-0.4-0.6-0.7-0.9-1.1c-0.4-0.6-0.6-1.2-0.7-2
		c-0.1-1.6,0.5-3.4,1-5c1.1-3.2,2.4-6.1,3-8.6c0.3-1.3,0.5-2.4,0.5-3.5c0-1-0.1-1.9-0.3-2.6c-0.2-0.7-0.4-1.1-0.6-1.4
		c-0.2-0.3-0.3-0.4-0.3-0.4s0.1,0.2,0.2,0.5c0.1,0.3,0.3,0.8,0.4,1.5c0.1,0.7,0.2,1.5,0,2.5c-0.1,1-0.4,2-0.8,3.2
		c-0.8,2.3-2.3,4.9-3.8,8.1c-0.4,0.8-0.7,1.7-1.1,2.6c-0.3,1-0.6,2-0.7,3.2c0,0.6,0,1.3,0.1,1.9c0.1,0.3,0.2,0.7,0.3,1
		c0.1,0.3,0.3,0.7,0.4,0.9c0.3,0.5,0.5,1,0.8,1.4c0.3,0.5,0.6,0.9,0.8,1.4c0.6,0.9,1.2,1.9,1.9,2.8c0.7,0.9,1.4,1.7,1.8,2.5
		c0.5,0.8,0.8,1.6,1.1,2.5c0.1,0.5,0.2,0.9,0.3,1.6l0.1,0.5l0,0.1c0,0,0-0.1,0,0l0,0l0,0.2c0,0.2,0.1,0.4,0.1,0.7
		c0.1,0.9,0,1.6-0.3,2.3c-0.3,0.7-0.7,1.4-1.3,2.2c-1.3,1.5-3.1,2.9-5,4.4c-2,1.5-4.1,3.1-6.2,5.5c-1,1.2-2.1,2.6-2.9,4.3
		c-0.8,1.7-1.4,3.7-1.5,5.8c0,0.5-0.1,1-0.1,1.6c0,0.7,0,0.7,0,1.4c0,0.7,0.1,1.3,0.1,2c0,1.3,0,2.6-0.1,3.7
		c-0.1,1.2-0.3,2.3-0.6,3.2c-0.3,0.9-0.7,1.7-1.1,2.3c-0.5,0.6-1,1.2-1.8,1.7c-0.7,0.5-1.6,1-2.6,1.5c-2,0.9-4.3,1.7-6.7,2.5
		c-2.4,0.8-4.9,1.7-7.3,2.8c-0.6,0.3-1.2,0.6-1.9,0.8l-0.8,0.4l-0.4,0.2c-0.2,0.1-0.4,0.2-0.6,0.3c-1.5,0.8-2.9,1.8-4.1,3
		c-2.5,2.3-4.3,5.2-5.7,8.1c-1.4,2.9-2.3,5.8-3,8.6c-1.3,5.6-1.8,10.9-1.9,15.7c-0.1,4.8,0.2,9.1,0.5,13c0.4,3.8,0.9,7.1,1.5,9.8
		c0.5,2.7,1.1,4.8,1.4,6.3c0.4,1.4,0.6,2.2,0.6,2.2c1.1,3.8,4.5,5.8,7.7,4.6c3.2-1.2,5-5.3,3.9-9c0-0.1,0-0.1-0.1-0.2L98.9,245.7z"
		/>
</g>
<g style="display:none;">
	<path style="display:inline;opacity:0.6;fill:#43AF2C;stroke:#409B2A;stroke-width:1.3386;stroke-miterlimit:10;" d="M49.9,247.4
		c0,0-0.1-0.2-0.3-0.5c0-0.1-0.1-0.1-0.1-0.2c0,0,0,0,0,0l0,0c0,0-0.1-0.1-0.1-0.2c-0.3-0.5-0.6-1-0.7-1.8c-0.1-0.8-0.1-2,0.9-4.2
		c0.5-1.1,1.2-2.4,2.2-4c1-1.6,2.2-3.4,3.7-5.7c0.7-1.2,1.5-2.4,2.3-4c0.8-1.6,1.6-3.5,2-6c0.2-1.3,0.3-2.7,0.1-4.1
		c-0.1-0.7-0.3-1.5-0.5-2.2l-0.1-0.3l-0.1-0.3l0-0.1l-0.1-0.2l-0.2-0.4c-0.1-0.3-0.3-0.6-0.4-0.9c-0.2-0.4-0.4-0.8-0.6-1.3
		c-0.4-0.8-0.8-1.5-1.3-2.3c-1.8-3-4.8-6.2-8.3-8.5c-1.8-1.1-3.6-2.1-5.3-2.8c-1.7-0.7-3.3-1.3-4.7-1.8c-2.8-1-5-1.8-6.7-2.8
		c-0.9-0.5-1.7-1.1-2.5-1.7l-0.1-0.1l0,0c0,0-0.1-0.1,0,0.1l-0.1-0.1l-0.4-0.4l-0.6-0.6c-0.4-0.3-0.8-0.8-1.1-1.2
		c-1.4-1.6-2.3-3.2-2.7-4.6c-0.3-1.4-0.2-3,0.8-5.1c0.9-2.1,2.6-4.4,4.4-7c1.8-2.6,3.7-5.5,5-8.9c0.6-1.7,1.1-3.5,1.3-5.3
		c0-0.5,0.1-0.9,0.1-1.4l0-0.7l0-0.5c0-0.7-0.1-1.4-0.1-2.2c-0.2-2.9-0.5-5.8-1.2-8.7c-0.7-2.9-1.8-5.7-3.3-8.2
		c-1.5-2.5-3.4-4.8-5.3-6.7c-2-2-4-3.7-6.1-5.2c-0.5-0.4-1-0.7-1.5-1.1c-0.5-0.4-1-0.7-1.4-1.1c-0.8-0.7-1.7-1.4-2.4-2.1
		c-3-3-4.8-6.3-5.5-9.5c-0.8-3.2-0.5-6.2,0.1-8.6c0.6-2.4,1.6-4.3,2.3-5.5c0.4-0.6,0.6-1.1,0.8-1.4c0.2-0.3,0.3-0.5,0.3-0.5
		s-0.1,0.1-0.4,0.4c-0.3,0.3-0.6,0.7-1.1,1.3c-0.9,1.2-2.2,2.9-3.3,5.4c-1.1,2.4-2,5.6-1.8,9.3c0.2,3.7,1.5,7.8,4.3,11.7
		c0.7,1,1.4,1.9,2.3,2.9c0.5,0.5,0.9,0.9,1.3,1.3c0.4,0.4,0.9,0.8,1.3,1.3c1.7,1.7,3.3,3.4,4.8,5.3c1.4,1.9,2.7,3.9,3.5,6
		c0.9,2.1,1.3,4.3,1.5,6.7c0.2,2.4,0.1,4.9-0.1,7.6c-0.1,0.7-0.1,1.3-0.2,2l-0.1,0.5l-0.1,0.4c0,0.2-0.1,0.5-0.2,0.7
		c-0.3,1-0.7,1.9-1.2,2.9c-1.1,2-2.8,4-4.9,6.3c-2,2.3-4.4,4.7-6.5,7.9c-1,1.6-2,3.4-2.7,5.4c-0.7,2-1,4.1-1,6.2
		c0,2.1,0.5,4.1,1.1,6c0.7,1.8,1.5,3.5,2.5,5.1c0.5,0.8,1,1.5,1.5,2.3l0.8,1l0.3,0.4l0.1,0.1l0.2,0.2l0.2,0.3
		c1.2,1.5,2.7,2.9,4.2,4.1c3.1,2.5,6.6,4.3,9.3,5.7c1.3,0.7,2.5,1.3,3.4,1.9c0.9,0.6,1.6,1.1,2.1,1.6c1,1,1.5,1.9,2,3.3
		c0.1,0.3,0.2,0.7,0.3,1c0,0.1,0.1,0.3,0.1,0.4l0.2,0.8c0.3,1-0.1,0.1-0.1-0.1c-0.1-0.3-0.1-0.6-0.1-0.7c0-0.2-0.1,0.1-0.5,0.6
		c-0.3,0.5-0.8,1.2-1.4,1.9c-1.4,1.8-2.8,3.5-4,5.1c-1.4,1.9-2.9,3.9-4.1,6c-1.3,2.1-2.3,4.4-3.1,6.7c-0.8,2.3-1.2,4.6-1.2,6.7
		c-0.1,2.1,0.1,4,0.4,5.6c0.3,1.6,0.8,2.9,1.2,3.9c0.1,0.3,0.2,0.5,0.3,0.7c0.1,0.3,0.2,0.5,0.3,0.7c0.2,0.4,0.3,0.7,0.4,0.9
		c0.2,0.3,0.2,0.5,0.2,0.5l0,0c2.8,5.8,10.9,8.4,18,5.7c7.1-2.7,10.6-9.6,7.8-15.4C50.3,248,50.1,247.7,49.9,247.4z"/>
	<path style="display:inline;fill:#43AF2C;stroke:#409B2A;stroke-width:1.3386;stroke-miterlimit:10;" d="M23.5,250.7
		c0,0-0.3-0.5-0.9-1.4c-0.6-0.9-1.4-2.3-2.3-4.2c-0.9-1.8-1.9-4.1-2.8-6.8c-0.9-2.7-1.8-5.8-2.3-9.2c-0.5-3.4-0.8-7.1-0.2-10.8
		c0.5-3.7,1.9-7.3,4.3-9.7c0.6-0.6,1.3-1.1,2.1-1.6l0.3-0.2l0.5-0.3l0.9-0.5c0.6-0.3,1.1-0.6,1.7-0.9c2.3-1.3,4.8-2.5,7.4-3.8
		c2.6-1.3,5.4-2.5,8.3-4.2c1.5-0.8,3-1.8,4.4-3c1.5-1.2,2.9-2.6,3.9-4.3c1.1-1.6,1.7-3.4,2-5.1c0.3-1.7,0.3-3.3,0.2-4.8
		c-0.1-1.5-0.4-2.9-0.7-4.2c-0.2-0.7-0.4-1.3-0.6-2c0-0.1-0.2-0.7-0.2-0.7c0-0.1-0.1-0.3-0.1-0.5c-0.1-0.7-0.1-1.4,0.2-2.2
		c0.2-0.8,0.7-1.6,1.3-2.4c1.3-1.7,3.1-3.5,5.1-5.2c2-1.8,4.1-3.7,5.9-6.1c0.9-1.2,1.6-2.6,2-4.2c0.3-1.6,0.1-3.2-0.4-4.5
		c-0.1-0.3-0.3-0.7-0.5-1l-0.1-0.2l-0.1-0.2l-0.1-0.1l-0.2-0.3c-0.3-0.4-0.7-1-1.1-1.5c-0.8-1-1.9-2-3.1-2.6
		c-1.2-0.7-2.2-1.1-3.2-1.6c-1-0.5-1.9-0.9-2.7-1.4c-0.4-0.3-0.8-0.5-1.3-0.8c-0.4-0.3-0.8-0.5-1.2-0.8c-0.6-0.4-0.9-0.9-1-1.6
		c-0.3-1.4,0.1-3,0.6-4.4c0.9-3,2.1-5.6,2.5-7.9c0.2-1.1,0.3-2.2,0.2-3c-0.1-0.9-0.4-1.6-0.7-2.1c-0.3-0.5-0.7-0.9-0.9-1.1
		c-0.2-0.2-0.4-0.3-0.4-0.3s0.1,0.1,0.3,0.4c0.2,0.2,0.5,0.6,0.7,1.2c0.2,0.5,0.4,1.2,0.4,2.1c0,0.8-0.2,1.8-0.6,2.9
		c-0.7,2.1-2.2,4.6-3.6,7.5c-0.3,0.8-0.7,1.5-0.9,2.4c-0.3,0.9-0.5,1.8-0.4,2.9c0,0.5,0.2,1.1,0.4,1.6c0.1,0.3,0.3,0.5,0.5,0.8
		c0.2,0.2,0.5,0.6,0.6,0.7c0.4,0.4,0.8,0.7,1.1,1.1c0.4,0.3,0.8,0.7,1.2,1c0.8,0.7,1.7,1.4,2.6,2c0.9,0.6,1.9,1.2,2.5,1.8
		c0.7,0.6,1.1,1.2,1.6,2c0.2,0.4,0.4,0.7,0.6,1.3l0.2,0.4l0,0.1c0,0,0-0.1,0,0l0,0l0.1,0.1c0.1,0.2,0.1,0.4,0.2,0.5
		c0.2,0.7,0.2,1.4-0.1,2c-0.2,0.6-0.7,1.3-1.3,2.1c-1.3,1.5-3.3,3-5.5,4.6c-2.2,1.6-4.5,3.4-6.7,5.8c-1.1,1.2-2.1,2.6-2.9,4.2
		c-0.8,1.6-1.2,3.4-1.1,5.2c0,0.4,0,0.8,0.1,1.4c0.1,0.6,0.1,0.6,0.2,1.2c0.1,0.6,0.2,1.1,0.3,1.7c0.2,1.1,0.3,2.2,0.3,3.2
		c0,1-0.1,2-0.3,2.8c-0.2,0.8-0.6,1.5-1,2.1c-0.5,0.6-1.1,1.2-1.9,1.8c-0.8,0.6-1.8,1.2-3,1.7c-2.3,1.1-5,2.2-7.7,3.3
		c-2.8,1.1-5.6,2.3-8.4,3.7c-0.7,0.3-1.4,0.7-2.1,1l-0.9,0.5l-0.5,0.2c-0.3,0.1-0.4,0.2-0.7,0.4c-1.7,0.9-3.2,2.1-4.5,3.3
		c-2.7,2.4-4.5,5.2-5.8,7.9c-1.3,2.7-2,5.3-2.5,7.8c-0.9,5-0.7,9.6-0.3,13.7c0.5,4.1,1.3,7.7,2.3,10.9c0.9,3.2,2,5.9,3,8.1
		c1,2.2,1.9,3.9,2.5,5.1c0.7,1.1,1,1.7,1,1.7c1.7,3,6.1,4.1,9.8,2.5c3.7-1.6,5.3-5.4,3.6-8.4c0-0.1-0.1-0.1-0.1-0.2L23.5,250.7z"/>
</g>
<g style="display:none;">
	<g style="display:inline;">
		<g>
			<polygon style="fill:#D69254;" points="86.4,257.9 70.1,261.8 54.8,240.1 41.8,194.6 50.7,168.9 64.1,166.1 77,184.9 97.3,192.5 
				99.1,226.4 			"/>
			<polygon style="fill:#C17E48;" points="41.8,194.6 37.3,187.7 46.4,167.9 50.7,168.9 			"/>
			<path style="fill:#9C4B16;" d="M70.1,261.8H44l-6.7-24.9v-49.1l4.6,6.9l13,45.5C56,239.7,70.1,261.8,70.1,261.8z"/>
			<path style="fill:#C17E48;" d="M67.1,198.1c-2.2,1.1-5,0.8-7.1,2.1c-3.4,2.1-3.6,6.8-3.3,10.8c0.1,1.5,0.2,3,0.5,4.4
				c0.5,1.9,1.4,3.6,2,5.5c1.5,4.4,1.4,9.3,1.2,13.9c4.4-4.2,5.2-11.7,1.6-16.7c-0.5-0.7-1.1-1.4-1.4-2.3c-0.5-1.3-0.2-2.8,0.4-4
				c1.5-3.5,4.6-6.3,8.4-7.3c0.9-0.2,1.8-0.4,2.5-1c0.7-0.6,1-1.5,1.2-2.4c0.8-3.6,1.8-9.9-0.2-13.1c-1.6,0.8-1.4,3.9-2,5.6
				C70.1,195.4,69,197.2,67.1,198.1z"/>
			<path style="fill:#C17E48;" d="M84.5,202.3c-2.5,1.4-4.8,3.1-6.8,5.1c1,8.5,1.6,17.1,1.6,25.7c0.6-5.9,2.5-11.7,5.7-16.7
				c1-1.7,2.2-3.3,3-5c0.8-1.7,1.2-3.6,2.1-5.2c1.1-1.7,2.7-3,3.8-4.8c1.3-2.2,2-4.5,3.7-6.4c-1.9-0.7-3.4,0.9-4.7,2
				C90.3,199.3,87.5,200.7,84.5,202.3z"/>
			<path style="fill:#934318;" d="M46.6,237.1c-2.7-0.4-5.5-0.3-8.2-0.2c3.1,0.5,5.8,2.3,8.8,3.2c1.6,0.5,3.3,0.8,4.9,1.5
				c1.5,0.7,3,2.1,3.2,3.8C54.6,240.3,51.8,237.9,46.6,237.1z"/>
			<polygon style="fill:#C17E48;" points="64.1,166.1 55.2,164 46.4,167.9 50.7,168.9 			"/>
		</g>
		<g>
			<polygon style="fill:#D69254;" points="143.3,224.9 153.7,241.2 151.2,255.9 122.2,259.7 111.8,242.3 118.4,226.4 111.8,212.9 
							"/>
			<polygon style="fill:#9C4B16;" points="151.2,255.9 147.6,262 144.1,268.1 130.1,271.3 116.1,274.5 104.3,272.1 92.4,269.7 
				95.5,249.9 111.8,242.3 117,251 122.2,259.7 136.7,257.8 			"/>
			<polygon style="fill:#C17E48;" points="111.8,212.9 96.7,220.8 90.9,236.3 96,251.3 111.8,242.3 118.4,226.4 			"/>
			<polygon style="fill:#934318;" points="96,251.3 92.4,269.7 83.5,260.5 83.5,242.3 90.9,236.3 			"/>
			<polygon style="fill:#B77446;" points="96.7,220.8 83.5,232.1 83.5,242.3 90.9,236.3 			"/>
		</g>
	</g>
	
		<path style="display:inline;fill:none;stroke:#934318;stroke-width:1.3386;stroke-linecap:round;stroke-linejoin:round;stroke-miterlimit:10;" d="
		M47.2,168.3l8.8-3.8l8.9,2l12.9,18.8l20.4,7.6l0.1,2.4c0,0,0.1,0,0.1,0c0,0-0.1,0.1-0.1,0.1l1.3,24.6l13-6.8l31.6,12l10.4,16.3
		l-2.5,14.8l-3.6,6.1l-3.6,6.1l-14,3.2l-14,3.2l-11.8-2.4l-11.8-2.4l-8.9-9.2v-1.9l-13.4,3.1H44.7L38,237.3v-49.1L47.2,168.3z"/>
</g>
<g>
	<g>
		<g>
			<path style="fill:#B75584;stroke:#A5497A;stroke-width:0.6815;stroke-miterlimit:10;" d="M228.3,223.9c-2.6-2.9,0.1-11,0.6-14.5
				c5.6-42.6,1.5-50.9-5.7-78.3c-2.4-9.1-13.1-20-6.8-26c6.3-6,16.7,11.3,22.4,30.9c10.6,36.6,11,52.4,5.9,83.5
				C244,223.2,237.6,234,228.3,223.9z"/>
			<g style="opacity:0.66;">
				<path style="fill:#EFE3E6;" d="M222.1,106.5c0.7,1.4-0.1,3.2-1.8,4.1c-1.7,0.9-3.6,0.6-4.2-0.8c-0.7-1.3,0.2-3.2,1.8-4.1
					C219.5,104.8,221.4,105.1,222.1,106.5z"/>
			</g>
		</g>
		<g>
			<path style="fill:#B75584;stroke:#A5497A;stroke-width:0.6815;stroke-miterlimit:10;" d="M212.7,229.4
				c-3.1-2.4-1.6-10.9-1.7-14.4c-1.1-43-8.1-53.9-19.4-79.7c-3.7-8.6-14.6-14.1-9.3-21.1c5.3-7,20.1,14.5,26.9,26.7
				c17.9,31.9,19.1,49.8,18.9,81.4C228.1,226.1,223.5,237.8,212.7,229.4z"/>
			<g>
				<path style="fill:#EFE3E6;" d="M188.2,114.6c0.9,1.2,0.4,3.2-1.1,4.3c-1.5,1.2-3.4,1.2-4.3-0.1c-0.9-1.2-0.3-3.2,1.1-4.3
					C185.4,113.3,187.3,113.3,188.2,114.6z"/>
			</g>
		</g>
		<g>
			<path style="fill:#B75584;stroke:#A5497A;stroke-width:0.6815;stroke-miterlimit:10;" d="M255.8,231.1c3-2.5,1.2-10.9,1.1-14.5
				c-0.6-43,8.2-55,18.4-81.3c3.4-8.7,12.8-15,6.2-20.7c-9-7.7-19.5,15.3-25.9,27.8c-16.6,32.6-17.1,50.6-15.7,82.1
				C240.3,228.5,245.3,240,255.8,231.1z"/>
			<g style="opacity:0.67;">
				<path style="fill:#EFE3E6;" d="M275.8,115.4c-0.9,1.3-0.3,3.2,1.3,4.3c1.6,1.1,3.5,1,4.3-0.2c0.8-1.3,0.2-3.2-1.3-4.3
					C278.5,114,276.6,114.1,275.8,115.4z"/>
			</g>
		</g>
		<g>
			<path style="fill:#D866B2;stroke:#C963AC;stroke-width:0.6815;stroke-miterlimit:10;" d="M241,249.6c3.8,0.6,7.8-5.3,8-8.8
				c1.4-24.2,15.3-49.2,40.9-57.7c8.6-2.9,20.3,1.5,19.7-7.4c-0.6-8.9-22.2-6.2-34.4-0.1c-32.1,16.1-37.3,38.1-39.4,64
				C235.4,243.5,234.6,248.6,241,249.6z"/>
			<g>
				<path style="opacity:0.66;fill:#EFE3E6;" d="M304.6,172.7c-1.4,0.5-2.1,2.4-1.5,4.2c0.6,1.9,2.2,2.9,3.6,2.4
					c1.4-0.5,2-2.4,1.4-4.2C307.5,173.3,306,172.2,304.6,172.7z"/>
			</g>
		</g>
		<g>
			<path style="fill:#D866B2;stroke:#C963AC;stroke-width:0.6815;stroke-miterlimit:10;" d="M214.8,234.7c-6.4-1.7-9-8.1-5.9-19.9
				c6.1-23.4,1.5-55.9-15.8-79.9c-5.4-7.5-17.5-15.3-11.7-19.7c6.9-5.3,20.9,9.8,29.7,20.6c22.9,28.2,21.8,67.8,13.4,92.4
				C223.3,231.9,221.1,236.4,214.8,234.7z"/>
			<path style="opacity:0.66;fill:#EFE3E6;" d="M182.7,121.5c1.1,1.3,3.2,1.4,4.6,0.1c1.5-1.3,1.8-3.4,0.7-4.7
				c-1.1-1.3-3.2-1.4-4.6-0.1C181.9,118,181.6,120.1,182.7,121.5z"/>
		</g>
		<g>
			<path style="fill:#D866B2;stroke:#C963AC;stroke-width:0.6815;stroke-miterlimit:10;" d="M249.8,213.3c3.5-1.6,4-8.8,2.3-11.9
				c-11.2-21.3-12.2-50.1,5.1-71.4c5.8-7.2,18-9.9,12.9-17.1c-5-7.2-22,6.9-29.3,18.8c-19,31.2-12.2,52.7-0.7,75.9
				C242,211.1,243.9,216,249.8,213.3z"/>
			<path style="opacity:0.66;fill:#EFE3E6;" d="M263.1,117.7c-1.1-2-0.9-4.3,0.5-5.2c1.4-0.9,3.5,0.1,4.6,2c1.1,2,0.9,4.3-0.5,5.2
				C266.3,120.6,264.3,119.7,263.1,117.7z"/>
		</g>
		<g>
			<path style="fill:#D866B2;stroke:#C963AC;stroke-width:0.6815;stroke-miterlimit:10;" d="M222.3,204.3L222.3,204.3
				c-3.7-0.8-5.7-4.1-4.5-7.5c7.9-22.8,6.7-49.2-1.8-75.6c-1.2-3.8,0.1-8,3-9.2l0,0c2.9-1.2,6.7,1.2,8.2,5.4
				c10,28.5,12.1,57.1,4.2,81.8C230.3,202.9,226,205.1,222.3,204.3z"/>
			<g style="opacity:0.66;">
				<path style="fill:#EFE3E6;" d="M225.6,117.5c0.8,1.8-0.3,4.2-2.6,5.2c-2.3,1.1-4.7,0.4-5.4-1.4c-0.7-1.8,0.4-4.1,2.6-5.2
					C222.4,115.1,224.8,115.7,225.6,117.5z"/>
			</g>
		</g>
		<g>
			<path style="fill:#E56EC4;stroke:#D866B2;stroke-width:0.6815;stroke-miterlimit:10;" d="M233.9,250.1L233.9,250.1
				c3.4-1.1,5.4-4.9,4.5-8.5c-6.2-24.8-8-50.5-5.1-75.9c0.4-3.7-2-7.2-5.6-7.8l0,0c-3.5-0.6-7,2.2-7.4,6.2
				c-3.1,27.1-1.3,54.5,5.4,80.9C226.7,248.9,230.5,251.2,233.9,250.1z"/>
			<path style="opacity:0.66;fill:#EFE3E6;" d="M221.8,162.2c-0.4,1.8,1.5,3.7,4.2,4.3c2.7,0.6,5.1-0.3,5.5-2.1
				c0.4-1.8-1.5-3.7-4.2-4.3C224.6,159.5,222.1,160.5,221.8,162.2z"/>
		</g>
		<g>
			<path style="fill:#D866B2;stroke:#C963AC;stroke-width:0.6815;stroke-miterlimit:10;" d="M239,243.5L239,243.5
				c3.6-0.4,6.2-3.8,6-7.5c-1.6-25.5,1.4-51.2,8.8-75.6c1.1-3.6-0.7-7.5-4.1-8.7l0,0c-3.4-1.3-7.2,0.8-8.4,4.7
				c-8,26-11.2,53.3-9.4,80.6C232.1,241,235.4,243.9,239,243.5z"/>
			<path style="opacity:0.66;fill:#EFE3E6;" d="M243,154.9c-0.7,1.7,0.8,3.9,3.3,5c2.5,1.1,5.1,0.7,5.8-1c0.7-1.7-0.8-3.9-3.3-5
				C246.3,152.8,243.7,153.2,243,154.9z"/>
		</g>
		<g>
			<path style="fill:#D866B2;stroke:#C963AC;stroke-width:0.6815;stroke-miterlimit:10;" d="M219.6,245.6c-3.2,0.8-7.4-2.7-7.9-5.1
				c-3.7-16.5-18.4-32.1-41.5-35.1c-7.8-1-17.5,3.3-17.9-2.9c-0.4-6.2,18.6-6.8,29.9-3.9c29.6,7.5,36.4,22,40.9,39.6
				C223.8,240.8,225,244.2,219.6,245.6z"/>
			<g style="opacity:0.66;">
				<path style="fill:#EFE3E6;" d="M156.3,199.8c1.3,0.2,2,1.4,1.7,2.7c-0.3,1.3-1.6,2.3-2.9,2.1c-1.2-0.2-2-1.4-1.7-2.8
					C153.8,200.6,155,199.7,156.3,199.8z"/>
			</g>
		</g>
		<g>
			<path style="fill:#E56EC4;stroke:#D866B2;stroke-width:0.6815;stroke-miterlimit:10;" d="M225.4,249.4L225.4,249.4
				c-3.6,1.5-6.9-0.7-7.6-4.9c-4.9-28.6-19.4-55.2-40.1-77.2c-3-3.2-4-8.3-2.1-11.4l0,0c1.9-3.1,6.3-3,9.8,0.5
				c23.1,23.2,39.4,51.5,45.3,82C231.5,243,229,247.9,225.4,249.4z"/>
			<g style="opacity:0.66;">
				<path style="fill:#EFE3E6;" d="M182.9,155.7c1.6,1.4,1.8,4.5,0.4,7c-1.4,2.5-3.8,3.4-5.3,2c-1.6-1.4-1.7-4.6-0.4-7
					C178.9,155.2,181.3,154.3,182.9,155.7z"/>
			</g>
		</g>
		<g>
			<path style="fill:#B75584;stroke:#A5497A;stroke-width:0.6815;stroke-miterlimit:10;" d="M247.6,250.4c3.3,0.3,7.5-9.3,7.7-11.5
				c1.6-14.9,14.2-30.6,36.8-36.3c7.6-1.9,17.7,0.5,17.4-4.9c-0.4-5.5-14.7-7.3-25.6-3.3c-28.4,10.5-37.9,28.1-40.2,44.1
				C243.3,240.8,242,249.9,247.6,250.4z"/>
			<g style="opacity:0.66;">
				<path style="fill:#EFE3E6;" d="M305.1,195.8c-1.2,0.3-1.8,1.5-1.3,2.6c0.5,1.1,1.9,1.8,3.1,1.4c1.2-0.3,1.8-1.5,1.3-2.6
					C307.7,196.1,306.3,195.5,305.1,195.8z"/>
			</g>
		</g>
		<g>
			<path style="fill:#E56EC4;stroke:#D866B2;stroke-width:0.6815;stroke-miterlimit:10;" d="M235.9,249.6L235.9,249.6
				c2.9,0.6,5.1-1.1,5.3-3.8c1.1-18.4,9.5-36.5,23.1-52.3c2-2.3,2.2-5.6,0.5-7.3l0,0c-1.7-1.8-5-1.2-7.3,1.3
				c-15.2,16.8-25,36.1-26.6,55.8C230.7,246.2,233,249,235.9,249.6z"/>
			<g>
				<path style="opacity:0.66;fill:#EFE3E6;" d="M259.2,186.8c-1.1,1-1,3,0.3,4.4c1.3,1.4,3.2,1.8,4.2,0.7c1-1,0.9-3-0.3-4.4
					C262.1,186.1,260.3,185.8,259.2,186.8z"/>
			</g>
		</g>
	</g>
	<g>
		<path style="opacity:0.6;fill:#43AF2C;stroke:#409B2A;stroke-width:1.3631;stroke-miterlimit:10;" d="M345.8,232.4
			c0,0-0.1-0.2-0.2-0.7c0-0.1-0.1-0.2-0.1-0.4c0,0,0,0,0,0l0-0.1c0-0.1,0-0.2-0.1-0.2c-0.2-0.7-0.3-1.5-0.3-2.7
			c0-1.1,0.2-2.9,1.3-5.8c0.5-1.5,1.3-3.2,2.3-5.3c1-2.1,2.2-4.4,3.7-7.3c0.7-1.5,1.5-3.2,2.4-5.3c0.8-2.1,1.7-4.7,2.4-8.2
			c0.3-1.7,0.5-3.7,0.6-5.9c0-1.1,0-2.2-0.1-3.3l0-0.4l-0.1-0.5l0-0.1l-0.1-0.3l-0.1-0.6c-0.1-0.5-0.2-1-0.2-1.4
			c-0.1-0.6-0.2-1.3-0.3-1.9c-0.2-1.3-0.5-2.4-0.8-3.6c-1.1-4.7-3.2-9.9-5.8-13.9c-1.3-2-2.7-3.7-4-5.1c-1.3-1.4-2.5-2.6-3.6-3.6
			c-2.2-2.1-3.8-3.6-5.2-5.5c-0.7-0.9-1.3-1.9-1.8-3l-0.1-0.2l0-0.1c0,0-0.1-0.2,0,0.1l-0.1-0.2l-0.3-0.6l-0.4-1
			c-0.3-0.6-0.5-1.3-0.8-1.9c-1-2.7-1.5-5.1-1.6-7.2c-0.1-2.1,0.2-4.3,1.3-7.1c1-2.8,2.7-5.8,4.4-9.1c1.8-3.4,3.7-7.1,5.2-11.7
			c0.7-2.3,1.3-4.8,1.7-7.3c0.1-0.6,0.2-1.3,0.2-1.9l0.1-1l0-0.7c0.1-1,0.1-2.1,0.2-3.1c0.2-4.2,0.3-8.4,0.1-12.6
			c-0.2-4.2-0.7-8.5-1.7-12.5c-0.9-4-2.2-7.6-3.6-10.8c-1.4-3.2-2.9-6.1-4.3-8.8c-0.4-0.6-0.7-1.3-1.1-1.9c-0.4-0.6-0.7-1.3-1-1.8
			c-0.6-1.1-1.2-2.4-1.7-3.6c-2.1-4.9-3.1-10.1-3.4-14.8c-0.2-4.7,0.3-9,1.2-12.3c0.8-3.3,1.8-5.8,2.5-7.4c0.4-0.8,0.7-1.4,0.9-1.8
			c0.2-0.4,0.3-0.6,0.3-0.6s-0.1,0.2-0.4,0.5c-0.2,0.3-0.6,0.9-1,1.6c-0.9,1.5-2.1,3.7-3.3,7c-1.2,3.3-2.3,7.6-2.6,12.9
			c-0.3,5.3,0.3,11.5,2.1,17.6c0.4,1.5,0.9,3,1.6,4.6c0.3,0.8,0.6,1.5,0.9,2.2c0.3,0.7,0.6,1.4,0.9,2.1c1.2,2.7,2.3,5.6,3.2,8.6
			c1,3,1.7,6.1,2.1,9.3c0.4,3.2,0.6,6.5,0.4,10c-0.1,3.5-0.5,7.1-1,10.8c-0.1,0.9-0.3,1.9-0.4,2.8l-0.1,0.7l-0.1,0.5
			c-0.1,0.3-0.1,0.7-0.2,1c-0.3,1.3-0.8,2.6-1.3,3.9c-1.1,2.6-2.8,5.1-4.7,7.9c-1.9,2.8-4.2,5.8-6.3,9.9c-1.1,2-2.1,4.4-2.9,7.1
			c-0.8,2.7-1.4,5.7-1.6,8.7c-0.2,3-0.1,6,0.2,8.8c0.3,2.8,0.8,5.4,1.4,7.8c0.3,1.2,0.6,2.3,1,3.5l0.5,1.6l0.2,0.7l0.1,0.2l0.1,0.4
			l0.2,0.4c0.8,2.4,1.8,4.6,3,6.7c2.2,4.2,4.9,7.5,6.9,10.1c1,1.3,1.9,2.4,2.6,3.4c0.7,1,1.2,1.9,1.5,2.7c0.7,1.6,1,3.1,1.3,5.1
			c0.1,0.5,0.1,1.1,0.1,1.5c0,0.2,0,0.4,0,0.6l0.1,1.1c0.1,1.5-0.1,0.1-0.1-0.2c0-0.5,0-0.8,0-1c0-0.3-0.1,0.1-0.4,0.7
			c-0.3,0.6-0.8,1.5-1.4,2.4c-1.4,2.2-2.7,4.4-3.9,6.5c-1.4,2.4-2.8,4.9-4.1,7.7c-1.3,2.8-2.4,5.8-3.3,8.9c-0.9,3.1-1.5,6.3-1.8,9.3
			c-0.3,3-0.4,5.8-0.3,8.1c0.1,2.4,0.3,4.3,0.5,5.8c0.1,0.4,0.1,0.7,0.1,1.1c0.1,0.4,0.1,0.8,0.2,1.1c0.1,0.5,0.2,1,0.2,1.4
			c0.1,0.5,0.1,0.7,0.1,0.7l0,0c1.6,9,7.9,14.3,14.1,12c6.2-2.3,9.9-11.5,8.3-20.4C346,233.4,345.9,232.9,345.8,232.4z"/>
		<path style="fill:#43AF2C;stroke:#409B2A;stroke-width:1.3631;stroke-miterlimit:10;" d="M340.1,241.3c0,0-0.4-0.7-1-1.9
			c-0.6-1.2-1.5-3.1-2.6-5.6c-1-2.5-2.2-5.6-3.2-9.2c-1.1-3.6-2.1-7.8-2.7-12.5c-0.7-4.6-1-9.7-0.5-14.7c0.5-5,1.9-10,4.5-13.4
			c0.6-0.9,1.4-1.6,2.2-2.3l0.3-0.2l0.5-0.4l1-0.8c0.6-0.4,1.2-0.9,1.8-1.4c2.5-1.8,5.2-3.6,8-5.4c2.8-1.8,5.8-3.6,8.9-6
			c1.6-1.2,3.2-2.5,4.8-4.2c1.6-1.7,3.1-3.7,4.2-6c1.1-2.3,1.8-4.7,2.1-7c0.3-2.3,0.3-4.5,0.1-6.5c-0.2-2-0.5-3.9-0.9-5.8
			c-0.2-0.9-0.4-1.8-0.7-2.7c0-0.1-0.2-0.9-0.2-0.9c0-0.1-0.1-0.4-0.1-0.7c-0.2-1-0.1-1.9,0.1-3c0.2-1.1,0.7-2.2,1.4-3.4
			c1.3-2.4,3.3-4.8,5.4-7.4c2.1-2.6,4.4-5.2,6.2-8.6c0.9-1.7,1.7-3.7,2-5.8c0.3-2.1,0.1-4.3-0.6-6.1c-0.2-0.4-0.3-0.9-0.5-1.3
			l-0.1-0.3l-0.1-0.2l-0.1-0.1l-0.3-0.5c-0.3-0.6-0.8-1.3-1.3-2c-0.9-1.3-2.1-2.6-3.4-3.5c-1.3-0.9-2.5-1.5-3.5-2.1
			c-1.1-0.6-2-1.2-3-1.9c-0.5-0.3-0.9-0.7-1.4-1c-0.4-0.3-0.9-0.7-1.3-1c-0.6-0.6-1-1.2-1.2-2.1c-0.3-1.8,0.1-4.1,0.5-6.1
			c1-4.1,2.1-7.7,2.5-10.8c0.2-1.5,0.3-3,0.2-4.2c-0.1-1.2-0.4-2.2-0.8-2.9c-0.4-0.7-0.7-1.2-1-1.5c-0.3-0.3-0.4-0.4-0.4-0.4
			s0.1,0.2,0.4,0.5c0.2,0.3,0.5,0.8,0.8,1.6c0.3,0.7,0.5,1.7,0.4,2.8c0,1.1-0.2,2.5-0.6,3.9c-0.7,2.9-2.2,6.3-3.7,10.4
			c-0.4,1-0.7,2.1-1,3.3c-0.3,1.2-0.5,2.5-0.4,3.9c0.1,0.7,0.2,1.5,0.5,2.2c0.1,0.4,0.3,0.7,0.5,1c0.2,0.3,0.5,0.8,0.7,0.9
			c0.4,0.5,0.8,1,1.3,1.4c0.4,0.5,0.9,0.9,1.3,1.4c0.9,0.9,1.9,1.8,2.9,2.6c1,0.8,2,1.6,2.8,2.4c0.7,0.8,1.3,1.6,1.8,2.6
			c0.2,0.5,0.4,1,0.7,1.7l0.2,0.5l0,0.1c0,0-0.1-0.1,0,0l0,0l0.1,0.2c0.1,0.2,0.1,0.5,0.2,0.7c0.2,1,0.2,1.8,0,2.7
			c-0.2,0.9-0.7,1.9-1.4,2.9c-1.4,2.1-3.5,4.2-5.8,6.5c-2.3,2.3-4.8,4.8-7.2,8.2c-1.2,1.7-2.2,3.6-3,5.8c-0.8,2.2-1.2,4.7-1.1,7.1
			c0,0.6,0.1,1.2,0.2,1.8c0.1,0.8,0.1,0.8,0.3,1.6c0.1,0.7,0.3,1.5,0.4,2.2c0.2,1.5,0.4,3,0.4,4.3c0,1.4,0,2.7-0.3,3.8
			c-0.2,1.1-0.6,2.1-1.1,2.9c-0.5,0.9-1.1,1.7-2,2.5c-0.9,0.8-2,1.6-3.2,2.5c-2.4,1.6-5.3,3.2-8.3,4.9c-3,1.7-6,3.4-9,5.3
			c-0.8,0.5-1.5,1-2.3,1.5l-1,0.7l-0.5,0.3c-0.3,0.2-0.5,0.3-0.7,0.5c-1.8,1.4-3.4,2.9-4.8,4.7c-2.8,3.4-4.7,7.3-6.1,10.9
			c-1.3,3.7-2,7.3-2.5,10.7c-0.8,6.9-0.6,13.1,0,18.6c0.6,5.6,1.6,10.5,2.8,14.8c1.1,4.3,2.3,8,3.4,10.9c1.1,3,2.1,5.3,2.9,6.8
			c0.7,1.5,1.1,2.3,1.1,2.3c2,4,6.8,5.4,10.7,3.1c4-2.3,5.6-7.5,3.7-11.6c0-0.1-0.1-0.1-0.1-0.2L340.1,241.3z"/>
	</g>
	<g>
		<path style="fill:#896DB5;stroke:#7A63A5;stroke-width:1.3631;stroke-miterlimit:10;" d="M87.2,265.5c3.6-0.2,7.5,0.2,10.7-1.5
			c5.6-3,5.7-12.5,0.2-15.6c-4.9-2.7-10.9-0.3-15.9,2.1c1.2-9.8,4.2-20.2,12.1-26c10.1-7.5,24.4-4.9,36.3-9
			c5.9-2.1,11.3-6,14.2-11.5c2.9-5.5,2.9-12.7-0.8-17.7c-1.6-2.1-3.9-3.8-6.5-3.9c-1.4,0-2.8,0.4-4.1,0.8
			c-6.3,2.2-12.3,5.2-17.7,9.1c-1.4,1-2.9,2.1-4.7,2.4c-1.7,0.3-3.8-0.7-4.1-2.4c-0.2-1,0.2-1.9,0.6-2.8
			c5.4-12.3,14.6-22.4,22.9-32.9c8.3-10.5,16-22.2,17.7-35.5c0.1-1,0.2-2-0.1-3c-0.7-2.4-3.7-3.4-6.1-2.9c-2.4,0.5-4.4,2.3-6.2,4
			c-9.1,8.5-17,18.3-23.5,28.9c-3.4-1.2-5.4-5-5.6-8.7c-0.2-3.6,0.9-7.2,1.9-10.7c4.4-15.5,6.2-31.7,5.3-47.8
			c-0.2-4.7-1.1-10-5-12.5c-5.5-3.6-12.9,0.9-16.2,6.5c-8.4,14.3-2,32.5-4.2,49c-0.6,4.8-2,9.4-2.6,14.1c-1.2,9.9,1,19.9,2.1,29.8
			c1,9.9,0.7,20.7-5,28.9c-4-9-8.1-18.1-12.1-27.1c-1-2.3-2.4-4.8-4.8-5.4c-2.7-0.7-5.3,1.5-6.6,3.9c-2.5,4.6-2.2,10.2-0.4,15.1
			c1.8,4.9,5,9.1,8,13.3c2.5,3.4,5,7.5,3.8,11.5c-3,1.7-6.1-2.1-9.3-3.5c-4.4-2-9.8,0.9-12.2,5.1c-2.4,4.2-2.6,9.3-2.7,14.1
			c6.6,0.6,13.2,1.2,19.8,1.8c1.3,0.1,2.7,0.3,3.6,1.2c0.7,0.7,0.9,1.7,1,2.7c1.1,8.4-2,16.6-4.3,24.7c-1.2,4.3-2.2,9.1-0.2,13.1
			C71.5,277.1,80.7,265.9,87.2,265.5z"/>
		<path style="fill:#896DB5;stroke:#7A63A5;stroke-width:1.3631;stroke-miterlimit:10;" d="M54.5,273.6c-3,0.7-6.3,1.9-9,1.6
			c-4.7-0.5-4.9-6.2-0.2-9.3c4.1-2.8,9.1-2.7,13.4-2.5c-1.1-5.6-3.7-11.1-10.3-12.8c-8.5-2.1-20.4,2.8-30.4,3
			c-4.9,0.1-9.5-1-11.9-3.6c-2.5-2.7-2.5-7,0.6-10.9c1.3-1.6,3.2-3.2,5.4-3.9c1.2-0.4,2.3-0.4,3.4-0.4c5.3-0.2,10.3,0.3,14.9,1.3
			c1.2,0.3,2.5,0.6,3.9,0.3c1.5-0.2,3.2-1.3,3.4-2.4c0.1-0.6-0.2-1.1-0.5-1.6c-4.6-6.1-12.3-10-19.3-14.4c-7-4.4-13.6-9.6-15-17.2
			c-0.1-0.6-0.2-1.2,0.1-1.8c0.6-1.6,3.1-2.9,5.1-3.2s3.7,0.3,5.2,0.9c7.6,3,14.3,7,19.9,11.9c2.9-1.5,4.5-4.3,4.6-6.5
			c0.2-2.2-0.8-4.1-1.6-6c-3.7-8.3-5.4-17.6-4.7-27.5c0.2-2.9,0.8-6.2,4.1-8.7c4.5-3.4,10.8-2.5,13.6,0.1c7.1,6.6,1.9,19.1,3.8,28.5
			c0.6,2.7,1.7,5.2,2.3,7.9c1.1,5.7-0.7,12.2-1.5,18.4c-0.8,6.2-0.5,12.6,4.3,16.2c3.3-6.4,6.7-12.8,10-19.1c0.8-1.6,1.9-3.5,4-4.4
			c2.2-1,4.4-0.3,5.6,0.8c2.1,2.1,1.9,5.6,0.4,9c-1.5,3.4-4.1,6.6-6.6,9.9c-2,2.6-4.2,5.7-3.1,7.8c2.6,0.3,5.1-2.7,7.7-4.3
			c3.7-2.2,8.2-1.8,10.2,0.2c2,2,2.2,5,2.3,7.9c-5.5,1.9-11.1,3.8-16.6,5.7c-1.1,0.4-2.3,0.8-3,1.6c-0.6,0.6-0.7,1.3-0.8,1.9
			c-0.9,5.3,1.8,9.5,3.8,13.8c1.1,2.3,1.9,4.9,0.2,7.8C67.8,276.9,59.9,272.3,54.5,273.6z"/>
	</g>
</g>
<g>
</g>
<g>
</g>
<g>
</g>
<g>
</g>
<g>
</g>
<g>
</g>
<g>
</g>
<g>
</g>
<g>
</g>
<g>
</g>
<g>
</g>
<g>
</g>
<g>
</g>
<g>
</g>
<g>
</g>
</svg>
