<?xml version="1.0" encoding="utf-8"?>
<!-- Generator: Adobe Illustrator 23.0.0, SVG Export Plug-In . SVG Version: 6.00 Build 0)  -->
<svg version="1.1" id="레이어_1" xmlns="http://www.w3.org/2000/svg" xmlns:xlink="http://www.w3.org/1999/xlink" x="0px"
	 y="0px" width="275px" height="212.4px" viewBox="0 0 275 212.4" style="enable-background:new 0 0 275 212.4;"
	 xml:space="preserve">
<g>
	<path style="fill:#FF5157;stroke:#EF4D61;stroke-width:1.3386;stroke-miterlimit:10;" d="M216.1,160.6c1-5.6,2.2-16.7,4-22.2
		c2-6.1,4-12.2,6.9-17.9c1.4-2.7,15.4-6.5,20.4-5.4c11.4,2.4,34.3-12.2,24.6-18.5c-9.5-6.2-6,8-16.2,9.3c-6.8,0.9-6.7-3.5-8.6-4
		c-5.1-1.5-7.7,3.3-12.5,5.7c7.6-20.1-4.3-32.3-7.5-50.7c-1.6-9.2-9.3-17.3-16.3-12.7c-7.2,4.7-3.3,13.8-1.5,16
		c14.6,17.8,16.5,30,14.1,36c-0.8,1.9-3.9,8.5-6,8.1c-11.4-2-10.7-13.4-13-17.6c-2.3-4.1-3.7-9-7.4-11.9c-3.7-2.9-10.8-1.6-11,3.1
		c-3.4,4.1,0,18.9,13,28.7c5.3,4,10.3,11.5,12,17.9c1.7,6.5,0.6,14.2-4.6,18.3c-1.4-6.4-9.5-21.1-15.2-18c-12.7,7,9.1,19.8,9.2,27.7
		c0.1,3.7-0.7,14.6-1.3,18.2c-1.4,8.2-8.8,7.5-3.2,16.6c1.9,3.1,8.6,2.2,11-0.7C209.7,183.5,214.7,168.6,216.1,160.6z"/>
	<path style="fill:#FF5157;stroke:#EF4D61;stroke-width:1.3386;stroke-miterlimit:10;" d="M179.2,126.4c-0.7-1.2-3-9.5-3.3-10.8
		c-0.7-4,2.6-7.5,5.3-10.5c2.7-3.1,5-7.8,2.3-10.9c-6.1,0.1-7.9,8.6-12.6,12.5c-1.4-1.7-2.8-3.5-4.2-5.2c3.9-9.6,4.5-31.2-5.6-28.8
		c-7.3,1.7-2.8,14.9-1.4,22.3c-2.5-2.6-5.1-5.4-8.5-6.8c-3.4-1.4-9.6-2-10.1,1.6c-1.3,8.4,11.1,14,21.4,27.4
		c-1.9,3.4-14.8,0-18.7-0.8c-2.5-0.5-4.7-2-7.2-1.9c-3.9,0.2-6.4,4.9-5.4,8.6c1.1,3.7,4.8,6.3,8.6,6.9c3.8,0.6,7.7-0.4,11.4-1.6
		c1.7-0.6,3.6-1.5,5.4-1.1c10.2,2.2,12.6,7.4,14.3,11.6c1.8,4.1,0.1,10-4.3,11c-2.2,0.5-4.8-0.3-6.6,1.1c-2.8,2.2-0.3,6.9,3.1,8
		c3.4,1,6.4-1.4,12.7-3.2c6-1.7,7.3,1.2,10.5,6.5c3.3,5.3,7.3,19.8,12.2,23.5c3.4,0.4,3.9-4.9,2.9-8.2c-2.9-9.8-3-18-6.8-27.5
		C190.5,139.9,184.8,135.8,179.2,126.4z"/>
	<path style="fill:#FF5157;stroke:#EF4D61;stroke-width:1.3386;stroke-miterlimit:10;" d="M210,172.6c3.7-2.7,7.4-5.4,11.1-8.1
		c3.7-2.7,7.8-5.9,8.7-10c0.5-2.1,0.1-4.1-0.3-6c-0.6-2.6-1.1-5.3-1.7-7.9c-0.7-3.4-1.4-6.8-1-10.3c0.4-3.6,2-7.3,5.1-9.9
		c1.1-0.9,2.4-1.6,3.8-1.8c3.3-0.4,5.4,2.8,5.3,5.8c-0.1,3.1-1.7,6.1-2.4,9.2c-0.7,3.1-0.4,6.6,2.4,7.9c2.6-5.3,7-10.1,12.4-13.3
		c3.4,3.4,3.4,9.3,0.1,13.7c-1.1,1.4-2.4,2.6-3.7,3.9c-4.4,4.3-8.2,9.1-11.1,14.3c7-0.8,13.8-8.4,20-6.4c0.6,3.5-3.9,6.5-7.6,8.3
		c-3.3,1.6-6.6,3.2-9.9,4.8c-1.4,0.7-2.8,1.4-3.6,2.6c-1.5,2.2,0,4.6,1.1,6.6c1.2,2,1.9,4.9-0.3,6.6c-2.4,1.8-5.5,0-7.3-1.8
		c-2.3-2.3-4.7-5.7-2.5-8.8c-9,2.6-20.7,9.2-14.5,31.1c3.1,11-11.3,9.3-15.5-8C196,184.3,208.3,173.8,210,172.6z"/>
</g>
<g>
	<path style="opacity:0.6;fill:#43AF2C;stroke:#409B2A;stroke-width:1.3386;stroke-miterlimit:10;" d="M120.5,183.2
		c0,0-0.1-0.2-0.2-0.6c0-0.1-0.1-0.2-0.1-0.3c0,0,0,0,0,0l0,0c0-0.1,0-0.1-0.1-0.2c-0.2-0.6-0.3-1.2-0.3-2.1c0-0.9,0.2-2.3,1.3-4.7
		c0.5-1.2,1.3-2.6,2.3-4.2c1-1.7,2.2-3.5,3.7-5.9c0.7-1.2,1.5-2.6,2.4-4.3c0.8-1.7,1.7-3.8,2.4-6.6c0.3-1.4,0.5-3,0.6-4.8
		c0-0.9,0-1.8-0.1-2.7l0-0.3l-0.1-0.4l0-0.1l-0.1-0.3l-0.1-0.5c-0.1-0.4-0.2-0.8-0.2-1.2c-0.1-0.5-0.2-1-0.3-1.6
		c-0.2-1-0.5-1.9-0.8-2.9c-1.1-3.8-3.2-8-5.8-11.2c-1.3-1.6-2.7-3-4-4.1c-1.3-1.1-2.5-2.1-3.6-2.9c-2.2-1.7-3.9-2.9-5.2-4.4
		c-0.7-0.7-1.3-1.5-1.8-2.4l-0.1-0.2l0,0c0,0-0.1-0.1,0,0.1l-0.1-0.1l-0.3-0.5l-0.4-0.8c-0.3-0.5-0.5-1.1-0.8-1.6
		c-1-2.1-1.5-4.1-1.6-5.8c-0.1-1.7,0.2-3.5,1.3-5.7c1-2.2,2.7-4.7,4.4-7.3c1.8-2.7,3.7-5.7,5.2-9.4c0.7-1.8,1.3-3.8,1.7-5.9
		c0.1-0.5,0.2-1,0.2-1.6l0.1-0.8l0-0.6c0.1-0.8,0.1-1.7,0.2-2.5c0.2-3.3,0.3-6.7,0.1-10.2c-0.2-3.4-0.7-6.9-1.7-10
		c-0.9-3.2-2.2-6.1-3.6-8.7c-1.4-2.6-2.9-4.9-4.4-7.1c-0.4-0.5-0.7-1-1.1-1.5c-0.4-0.5-0.7-1-1-1.5c-0.6-0.9-1.2-1.9-1.7-2.9
		c-2.1-3.9-3.2-8.1-3.4-11.9c-0.2-3.8,0.4-7.2,1.2-9.9c0.8-2.7,1.8-4.6,2.5-5.9c0.4-0.6,0.7-1.1,0.9-1.5c0.2-0.3,0.3-0.5,0.3-0.5
		s-0.1,0.1-0.4,0.4c-0.2,0.3-0.6,0.7-1,1.3c-0.9,1.2-2.1,3-3.3,5.6c-1.2,2.6-2.3,6.1-2.6,10.4c-0.3,4.3,0.3,9.2,2.1,14.2
		c0.4,1.2,0.9,2.4,1.6,3.7c0.3,0.7,0.6,1.2,0.9,1.8c0.3,0.6,0.6,1.1,0.9,1.7c1.2,2.2,2.3,4.5,3.2,6.9c1,2.4,1.7,4.9,2.1,7.5
		c0.4,2.6,0.6,5.2,0.4,8c-0.1,2.8-0.5,5.7-1,8.7c-0.1,0.7-0.3,1.5-0.4,2.3l-0.1,0.6l-0.1,0.4c-0.1,0.3-0.1,0.5-0.2,0.8
		c-0.3,1.1-0.8,2.1-1.4,3.1c-1.1,2.1-2.8,4.1-4.8,6.4c-1.9,2.3-4.2,4.7-6.3,8c-1.1,1.6-2.1,3.5-2.9,5.7c-0.8,2.1-1.4,4.6-1.6,7
		c-0.2,2.4-0.1,4.8,0.2,7.1c0.3,2.2,0.8,4.3,1.4,6.3c0.3,1,0.6,1.9,1,2.9l0.5,1.3l0.2,0.6l0.1,0.1l0.1,0.3l0.2,0.4
		c0.8,1.9,1.8,3.7,3,5.4c2.2,3.4,4.9,6.1,6.9,8.1c1,1,1.9,2,2.6,2.8c0.7,0.8,1.2,1.5,1.5,2.2c0.7,1.3,1,2.5,1.3,4.1
		c0.1,0.4,0.1,0.9,0.1,1.2c0,0.2,0,0.3,0,0.5l0.1,0.9c0.1,1.2-0.1,0.1-0.1-0.1c0-0.4,0-0.7,0-0.8c0-0.2-0.1,0.1-0.4,0.6
		c-0.3,0.5-0.8,1.2-1.4,2c-1.4,1.8-2.7,3.5-3.9,5.2c-1.4,1.9-2.8,4-4.1,6.2c-1.3,2.2-2.4,4.6-3.3,7.1c-0.9,2.5-1.5,5.1-1.8,7.5
		c-0.3,2.4-0.4,4.6-0.3,6.5c0.1,1.9,0.3,3.5,0.5,4.7c0.1,0.3,0.1,0.6,0.1,0.9c0.1,0.3,0.1,0.6,0.2,0.9c0.1,0.4,0.2,0.8,0.2,1.1
		c0.1,0.4,0.1,0.6,0.1,0.6l0,0c1.6,7.2,7.9,11.5,14.1,9.7c6.2-1.9,9.9-9.2,8.3-16.4C120.8,184,120.6,183.6,120.5,183.2z"/>
	<path style="fill:#43AF2C;stroke:#409B2A;stroke-width:1.3386;stroke-miterlimit:10;" d="M98.5,182.5c0,0-0.2-0.6-0.6-1.8
		c-0.3-1.2-0.8-2.9-1.4-5.2c-0.5-2.3-1.1-5.1-1.5-8.3c-0.4-3.3-0.7-7-0.8-11c0-4,0.2-8.3,1.1-12.5c0.9-4.1,2.4-8.1,4.7-10.4
		c0.6-0.6,1.2-1.1,1.9-1.5l0.2-0.1l0.4-0.2l0.8-0.5c0.5-0.3,1-0.5,1.5-0.8c2.1-1.1,4.3-2.1,6.6-3.1c2.3-1,4.7-2,7.3-3.4
		c1.3-0.7,2.7-1.5,4-2.7c1.3-1.1,2.7-2.5,3.7-4.2c1.1-1.7,1.8-3.6,2.3-5.5c0.5-1.9,0.6-3.7,0.7-5.4c0.1-1.7,0-3.4-0.1-5
		c-0.1-0.8-0.1-1.6-0.2-2.4c0-0.1-0.1-0.8-0.1-0.8c0-0.1,0-0.4,0-0.6c0-0.8,0.1-1.6,0.4-2.5c0.3-0.8,0.8-1.7,1.4-2.6
		c1.2-1.8,3-3.4,4.8-5.2c1.8-1.8,3.8-3.5,5.6-6c0.9-1.3,1.7-2.8,2.1-4.5c0.5-1.7,0.5-3.6,0.2-5.3c-0.1-0.4-0.2-0.8-0.3-1.2l-0.1-0.3
		l-0.1-0.2l0-0.1l-0.2-0.4c-0.2-0.5-0.5-1.3-0.8-1.9c-0.6-1.3-1.3-2.6-2.2-3.6c-0.9-1-1.7-1.7-2.4-2.4c-0.7-0.7-1.4-1.4-2.1-2.1
		c-0.3-0.4-0.6-0.7-0.9-1.1c-0.3-0.4-0.6-0.7-0.9-1.1c-0.4-0.6-0.6-1.2-0.7-2c-0.1-1.6,0.5-3.4,1-5c1.1-3.2,2.4-6.1,3-8.6
		c0.3-1.3,0.5-2.4,0.5-3.5c0-1-0.1-1.9-0.3-2.6c-0.2-0.7-0.4-1.1-0.6-1.4c-0.2-0.3-0.3-0.4-0.3-0.4s0.1,0.2,0.2,0.5
		c0.1,0.3,0.3,0.8,0.4,1.5c0.1,0.7,0.2,1.5,0,2.5c-0.1,1-0.4,2-0.8,3.2c-0.8,2.3-2.3,4.9-3.8,8.1c-0.4,0.8-0.7,1.7-1.1,2.6
		c-0.3,1-0.6,2-0.7,3.2c0,0.6,0,1.3,0.1,1.9c0.1,0.3,0.2,0.7,0.3,1c0.1,0.3,0.3,0.7,0.4,0.9c0.3,0.5,0.5,1,0.8,1.4
		c0.3,0.5,0.6,0.9,0.8,1.4c0.6,0.9,1.2,1.9,1.9,2.8c0.7,0.9,1.4,1.7,1.8,2.5c0.5,0.8,0.8,1.6,1.1,2.5c0.1,0.5,0.2,0.9,0.3,1.6
		l0.1,0.5l0,0.1c0,0,0-0.1,0,0l0,0l0,0.2c0,0.2,0.1,0.4,0.1,0.7c0.1,0.9,0,1.6-0.3,2.3c-0.3,0.7-0.7,1.4-1.3,2.2
		c-1.3,1.5-3.1,2.9-5,4.4c-2,1.5-4.1,3.1-6.2,5.5c-1,1.2-2.1,2.6-2.9,4.3c-0.8,1.7-1.4,3.7-1.5,5.8c0,0.5-0.1,1-0.1,1.6
		c0,0.7,0,0.7,0,1.4c0,0.7,0.1,1.3,0.1,2c0,1.3,0,2.6-0.1,3.7c-0.1,1.2-0.3,2.3-0.6,3.2c-0.3,0.9-0.7,1.7-1.1,2.3
		c-0.5,0.6-1,1.2-1.8,1.7c-0.7,0.5-1.6,1-2.6,1.5c-2,0.9-4.3,1.7-6.7,2.5c-2.4,0.8-4.9,1.7-7.3,2.8c-0.6,0.3-1.2,0.6-1.9,0.8
		l-0.8,0.4l-0.4,0.2c-0.2,0.1-0.4,0.2-0.6,0.3c-1.5,0.8-2.9,1.8-4.1,3c-2.5,2.3-4.3,5.2-5.7,8.1c-1.4,2.9-2.3,5.8-3,8.6
		c-1.3,5.6-1.8,10.9-1.9,15.7c-0.1,4.8,0.2,9.1,0.5,13c0.4,3.8,0.9,7.1,1.5,9.8c0.5,2.7,1.1,4.8,1.4,6.3c0.4,1.4,0.6,2.2,0.6,2.2
		c1.1,3.8,4.5,5.8,7.7,4.6c3.2-1.2,5-5.3,3.9-9c0-0.1,0-0.1-0.1-0.2L98.5,182.5z"/>
</g>
<g>
	<path style="opacity:0.6;fill:#43AF2C;stroke:#409B2A;stroke-width:1.3386;stroke-miterlimit:10;" d="M49.5,184.2
		c0,0-0.1-0.2-0.3-0.5c0-0.1-0.1-0.1-0.1-0.2c0,0,0,0,0,0l0,0c0,0-0.1-0.1-0.1-0.2c-0.3-0.5-0.6-1-0.7-1.8c-0.1-0.8-0.1-2,0.9-4.2
		c0.5-1.1,1.2-2.4,2.2-4c1-1.6,2.2-3.4,3.7-5.7c0.7-1.2,1.5-2.4,2.3-4c0.8-1.6,1.6-3.5,2-6c0.2-1.3,0.3-2.7,0.1-4.1
		c-0.1-0.7-0.3-1.5-0.5-2.2l-0.1-0.3l-0.1-0.3l0-0.1l-0.1-0.2l-0.2-0.4c-0.1-0.3-0.3-0.6-0.4-0.9c-0.2-0.4-0.4-0.8-0.6-1.3
		c-0.4-0.8-0.8-1.5-1.3-2.3c-1.8-3-4.8-6.2-8.3-8.5c-1.8-1.1-3.6-2.1-5.3-2.8c-1.7-0.7-3.3-1.3-4.7-1.8c-2.8-1-5-1.8-6.7-2.8
		c-0.9-0.5-1.7-1.1-2.5-1.7l-0.1-0.1l0,0c0,0-0.1-0.1,0,0.1l-0.1-0.1l-0.4-0.4l-0.6-0.6c-0.4-0.3-0.8-0.8-1.1-1.2
		c-1.4-1.6-2.3-3.2-2.7-4.6c-0.3-1.4-0.2-3,0.8-5.1c0.9-2.1,2.6-4.4,4.4-7c1.8-2.6,3.7-5.5,5-8.9c0.6-1.7,1.1-3.5,1.3-5.3
		c0-0.5,0.1-0.9,0.1-1.4l0-0.7l0-0.5c0-0.7-0.1-1.4-0.1-2.2c-0.2-2.9-0.5-5.8-1.2-8.7c-0.7-2.9-1.8-5.7-3.3-8.2
		c-1.5-2.5-3.4-4.8-5.3-6.7c-2-2-4-3.7-6.1-5.2c-0.5-0.4-1-0.7-1.5-1.1c-0.5-0.4-1-0.7-1.4-1.1c-0.8-0.7-1.7-1.4-2.4-2.1
		c-3-3-4.8-6.3-5.5-9.5c-0.8-3.2-0.5-6.2,0.1-8.6c0.6-2.4,1.6-4.3,2.3-5.5c0.4-0.6,0.6-1.1,0.8-1.4c0.2-0.3,0.3-0.5,0.3-0.5
		s-0.1,0.1-0.4,0.4c-0.3,0.3-0.6,0.7-1.1,1.3C9.4,33.8,8.1,35.6,7,38c-1.1,2.4-2,5.6-1.8,9.3C5.4,51,6.7,55.1,9.5,59
		c0.7,1,1.4,1.9,2.3,2.9c0.5,0.5,0.9,0.9,1.3,1.3c0.4,0.4,0.9,0.8,1.3,1.3c1.7,1.7,3.3,3.4,4.8,5.3c1.4,1.9,2.7,3.9,3.5,6
		c0.9,2.1,1.3,4.3,1.5,6.7c0.2,2.4,0.1,4.9-0.1,7.6c-0.1,0.7-0.1,1.3-0.2,2l-0.1,0.5l-0.1,0.4c0,0.2-0.1,0.5-0.2,0.7
		c-0.3,1-0.7,1.9-1.2,2.9c-1.1,2-2.8,4-4.9,6.3c-2,2.3-4.4,4.7-6.5,7.9c-1,1.6-2,3.4-2.7,5.4c-0.7,2-1,4.1-1,6.2
		c0,2.1,0.5,4.1,1.1,6c0.7,1.8,1.5,3.5,2.5,5.1c0.5,0.8,1,1.5,1.5,2.3l0.8,1l0.3,0.4l0.1,0.1l0.2,0.2l0.2,0.3
		c1.2,1.5,2.7,2.9,4.2,4.1c3.1,2.5,6.6,4.3,9.3,5.7c1.3,0.7,2.5,1.3,3.4,1.9c0.9,0.6,1.6,1.1,2.1,1.6c1,1,1.5,1.9,2,3.3
		c0.1,0.3,0.2,0.7,0.3,1c0,0.1,0.1,0.3,0.1,0.4l0.2,0.8c0.3,1-0.1,0.1-0.1-0.1c-0.1-0.3-0.1-0.6-0.1-0.7c0-0.2-0.1,0.1-0.5,0.6
		c-0.3,0.5-0.8,1.2-1.4,1.9c-1.4,1.8-2.8,3.5-4,5.1c-1.4,1.9-2.9,3.9-4.1,6c-1.3,2.1-2.3,4.4-3.1,6.7c-0.8,2.3-1.2,4.6-1.2,6.7
		c-0.1,2.1,0.1,4,0.4,5.6c0.3,1.6,0.8,2.9,1.2,3.9c0.1,0.3,0.2,0.5,0.3,0.7c0.1,0.3,0.2,0.5,0.3,0.7c0.2,0.4,0.3,0.7,0.4,0.9
		c0.2,0.3,0.2,0.5,0.2,0.5l0,0c2.8,5.8,10.9,8.4,18,5.7c7.1-2.7,10.6-9.6,7.8-15.4C49.9,184.8,49.7,184.5,49.5,184.2z"/>
	<path style="fill:#43AF2C;stroke:#409B2A;stroke-width:1.3386;stroke-miterlimit:10;" d="M23,187.4c0,0-0.3-0.5-0.9-1.4
		c-0.6-0.9-1.4-2.3-2.3-4.2c-0.9-1.8-1.9-4.1-2.8-6.8c-0.9-2.7-1.8-5.8-2.3-9.2c-0.5-3.4-0.8-7.1-0.2-10.8c0.5-3.7,1.9-7.3,4.3-9.7
		c0.6-0.6,1.3-1.1,2.1-1.6l0.3-0.2l0.5-0.3l0.9-0.5c0.6-0.3,1.1-0.6,1.7-0.9c2.3-1.3,4.8-2.5,7.4-3.8c2.6-1.3,5.4-2.5,8.3-4.2
		c1.5-0.8,3-1.8,4.4-3c1.5-1.2,2.9-2.6,3.9-4.3c1.1-1.6,1.7-3.4,2-5.1c0.3-1.7,0.3-3.3,0.2-4.8c-0.1-1.5-0.4-2.9-0.7-4.2
		c-0.2-0.7-0.4-1.3-0.6-2c0-0.1-0.2-0.7-0.2-0.7c0-0.1-0.1-0.3-0.1-0.5c-0.1-0.7-0.1-1.4,0.2-2.2c0.2-0.8,0.7-1.6,1.3-2.4
		c1.3-1.7,3.1-3.5,5.1-5.2c2-1.8,4.1-3.7,5.9-6.1c0.9-1.2,1.6-2.6,2-4.2c0.3-1.6,0.1-3.2-0.4-4.5c-0.1-0.3-0.3-0.7-0.5-1l-0.1-0.2
		l-0.1-0.2l-0.1-0.1L62,82.8c-0.3-0.4-0.7-1-1.1-1.5c-0.8-1-1.9-2-3.1-2.6c-1.2-0.7-2.2-1.1-3.2-1.6c-1-0.5-1.9-0.9-2.7-1.4
		c-0.4-0.3-0.8-0.5-1.3-0.8c-0.4-0.3-0.8-0.5-1.2-0.8c-0.6-0.4-0.9-0.9-1-1.6c-0.3-1.4,0.1-3,0.6-4.4c0.9-3,2.1-5.6,2.5-7.9
		c0.2-1.1,0.3-2.2,0.2-3c-0.1-0.9-0.4-1.6-0.7-2.1c-0.3-0.5-0.7-0.9-0.9-1.1c-0.2-0.2-0.4-0.3-0.4-0.3s0.1,0.1,0.3,0.4
		c0.2,0.2,0.5,0.6,0.7,1.2c0.2,0.5,0.4,1.2,0.4,2.1c0,0.8-0.2,1.8-0.6,2.9c-0.7,2.1-2.2,4.6-3.6,7.5c-0.3,0.8-0.7,1.5-0.9,2.4
		c-0.3,0.9-0.5,1.8-0.4,2.9c0,0.5,0.2,1.1,0.4,1.6c0.1,0.3,0.3,0.5,0.5,0.8c0.2,0.2,0.5,0.6,0.6,0.7c0.4,0.4,0.8,0.7,1.1,1.1
		c0.4,0.3,0.8,0.7,1.2,1c0.8,0.7,1.7,1.4,2.6,2c0.9,0.6,1.9,1.2,2.5,1.8c0.7,0.6,1.1,1.2,1.6,2c0.2,0.4,0.4,0.7,0.6,1.3l0.2,0.4
		l0,0.1c0,0,0-0.1,0,0l0,0l0.1,0.1c0.1,0.2,0.1,0.4,0.2,0.5c0.2,0.7,0.2,1.4-0.1,2c-0.2,0.6-0.7,1.3-1.3,2.1c-1.3,1.5-3.3,3-5.5,4.6
		c-2.2,1.6-4.5,3.4-6.7,5.8c-1.1,1.2-2.1,2.6-2.9,4.2c-0.8,1.6-1.2,3.4-1.1,5.2c0,0.4,0,0.8,0.1,1.4c0.1,0.6,0.1,0.6,0.2,1.2
		c0.1,0.6,0.2,1.1,0.3,1.7c0.2,1.1,0.3,2.2,0.3,3.2c0,1-0.1,2-0.3,2.8c-0.2,0.8-0.6,1.5-1,2.1c-0.5,0.6-1.1,1.2-1.9,1.8
		c-0.8,0.6-1.8,1.2-3,1.7c-2.3,1.1-5,2.2-7.7,3.3c-2.8,1.1-5.6,2.3-8.4,3.7c-0.7,0.3-1.4,0.7-2.1,1l-0.9,0.5l-0.5,0.2
		c-0.3,0.1-0.4,0.2-0.7,0.4c-1.7,0.9-3.2,2.1-4.5,3.3c-2.7,2.4-4.5,5.2-5.8,7.9c-1.3,2.7-2,5.3-2.5,7.8c-0.9,5-0.7,9.6-0.3,13.7
		c0.5,4.1,1.3,7.7,2.3,10.9c0.9,3.2,2,5.9,3,8.1c1,2.2,1.9,3.9,2.5,5.1c0.7,1.1,1,1.7,1,1.7c1.7,3,6.1,4.1,9.8,2.5
		c3.7-1.6,5.3-5.4,3.6-8.4c0-0.1-0.1-0.1-0.1-0.2L23,187.4z"/>
</g>
<g>
	<g>
		<g>
			<polygon style="fill:#D69254;" points="86,194.7 69.7,198.5 54.4,176.9 41.4,131.4 50.3,105.7 63.7,102.9 76.6,121.7 96.9,129.3 
				98.7,163.2 			"/>
			<polygon style="fill:#C17E48;" points="41.4,131.4 36.9,124.5 46,104.6 50.3,105.7 			"/>
			<path style="fill:#9C4B16;" d="M69.7,198.5H43.6l-6.7-24.9v-49.1l4.6,6.9l13,45.5C55.6,176.5,69.7,198.5,69.7,198.5z"/>
			<path style="fill:#C17E48;" d="M66.7,134.9c-2.2,1.1-5,0.8-7.1,2.1c-3.4,2.1-3.6,6.8-3.3,10.8c0.1,1.5,0.2,3,0.5,4.4
				c0.5,1.9,1.4,3.6,2,5.5c1.5,4.4,1.4,9.3,1.2,13.9c4.4-4.2,5.2-11.7,1.6-16.7c-0.5-0.7-1.1-1.4-1.4-2.3c-0.5-1.3-0.2-2.8,0.4-4
				c1.5-3.5,4.6-6.3,8.4-7.3c0.9-0.2,1.8-0.4,2.5-1c0.7-0.6,1-1.5,1.2-2.4c0.8-3.6,1.8-9.9-0.2-13.1c-1.6,0.8-1.4,3.9-2,5.6
				C69.7,132.2,68.6,133.9,66.7,134.9z"/>
			<path style="fill:#C17E48;" d="M84.1,139.1c-2.5,1.4-4.8,3.1-6.8,5.1c1,8.5,1.6,17.1,1.6,25.7c0.6-5.9,2.5-11.7,5.7-16.7
				c1-1.7,2.2-3.3,3-5c0.8-1.7,1.2-3.6,2.1-5.2c1.1-1.7,2.7-3,3.8-4.8c1.3-2.2,2-4.5,3.7-6.4c-1.9-0.7-3.4,0.9-4.7,2
				C89.9,136.1,87.1,137.5,84.1,139.1z"/>
			<path style="fill:#934318;" d="M46.2,173.9c-2.7-0.4-5.5-0.3-8.2-0.2c3.1,0.5,5.8,2.3,8.8,3.2c1.6,0.5,3.3,0.8,4.9,1.5
				c1.5,0.7,3,2.1,3.2,3.8C54.2,177,51.4,174.7,46.2,173.9z"/>
			<polygon style="fill:#C17E48;" points="63.7,102.9 54.8,100.8 46,104.6 50.3,105.7 			"/>
		</g>
		<g>
			<polygon style="fill:#D69254;" points="142.9,161.6 153.3,177.9 150.8,192.7 121.8,196.5 111.4,179.1 118,163.2 111.4,149.7 			
				"/>
			<polygon style="fill:#9C4B16;" points="150.8,192.7 147.2,198.8 143.7,204.9 129.7,208.1 115.7,211.3 103.8,208.9 92,206.4 
				95.1,186.6 111.4,179.1 116.6,187.8 121.8,196.5 136.3,194.6 			"/>
			<polygon style="fill:#C17E48;" points="111.4,149.7 96.3,157.6 90.5,173.1 95.6,188.1 111.4,179.1 118,163.2 			"/>
			<polygon style="fill:#934318;" points="95.6,188.1 92,206.4 83.1,197.3 83.1,179.1 90.5,173.1 			"/>
			<polygon style="fill:#B77446;" points="96.3,157.6 83.1,168.9 83.1,179.1 90.5,173.1 			"/>
		</g>
	</g>
	<path style="fill:none;stroke:#934318;stroke-width:1.3386;stroke-linecap:round;stroke-linejoin:round;stroke-miterlimit:10;" d="
		M46.8,105.1l8.8-3.8l8.9,2l12.9,18.8l20.4,7.6l0.1,2.4c0,0,0.1,0,0.1,0c0,0-0.1,0.1-0.1,0.1l1.3,24.6l13-6.8l31.6,12l10.4,16.3
		l-2.5,14.8l-3.6,6.1l-3.6,6.1l-14,3.2l-14,3.2l-11.8-2.4l-11.8-2.4l-8.9-9.2v-1.9L70.4,199H44.3l-6.7-24.9V125L46.8,105.1z"/>
</g>
<g>
</g>
<g>
</g>
<g>
</g>
<g>
</g>
<g>
</g>
<g>
</g>
<g>
</g>
<g>
</g>
<g>
</g>
<g>
</g>
<g>
</g>
<g>
</g>
<g>
</g>
<g>
</g>
<g>
</g>
</svg>
