<?xml version="1.0" encoding="utf-8"?>
<!-- Generator: Adobe Illustrator 23.0.0, SVG Export Plug-In . SVG Version: 6.00 Build 0)  -->
<svg version="1.1" id="레이어_1" xmlns="http://www.w3.org/2000/svg" xmlns:xlink="http://www.w3.org/1999/xlink" x="0px"
	 y="0px" width="1170px" height="700px" viewBox="0 0 1170 700" style="enable-background:new 0 0 1170 700;" xml:space="preserve">
<rect x="0.4" transform="matrix(-1 -1.224647e-16 1.224647e-16 -1 1169.8746 697.9539)" style="fill:#BAE9F4;" width="1169.1" height="698"/>
<g>
	<path style="fill:#75C7F9;" d="M130.8,337.1c32.5,0,32.5,14.9,65,14.9c32.5,0,32.5-14.9,65-14.9c32.5,0,32.5,14.9,65,14.9
		c32.5,0,32.5-14.9,65-14.9c32.5,0,32.5,14.9,65,14.9c32.5,0,32.5-14.9,64.9-14.9c32.5,0,32.5,14.9,65,14.9
		c32.5,0,32.5-14.9,65-14.9c32.5,0,32.5,14.9,65,14.9c32.5,0,32.5-14.9,65-14.9c32.5,0,32.5,14.9,65,14.9c32.5,0,32.5-14.9,65-14.9
		c32.5,0,32.5,14.9,65,14.9c32.5,0,32.5-14.9,65-14.9c32.5,0,32.5,14.9,64.9,14.9c32.5,0,32.5-14.9,64.9-14.9v328.3H0.9V337.1
		c32.5,0,32.5,14.9,65,14.9C98.3,352,98.3,337.1,130.8,337.1z"/>
</g>
<path style="opacity:0.2;fill:#FFFFFF;" d="M1169.5,244.7C779.8,177.6,390.1,373.8,0.4,306.7c0-33.5,0-96.7,0-130.2
	C390.1,265,779.8,120,1169.5,208.5C1169.5,220.6,1169.5,232.7,1169.5,244.7z"/>
<path style="opacity:0.15;fill:#FFFFFF;" d="M0.4,83.8c372.9-45,779.4,111.3,1169.1,44.2c0-33.5,0-66.9,0-100.4
	C779.8,116.2,390.1-28.8,0.4,59.7C0.4,71.8,0.4,71.8,0.4,83.8z"/>
<g>
	<path style="fill:#64BAF7;" d="M130.5,370.2c32.5,0,32.5,14.9,65,14.9c32.5,0,32.5-14.9,65-14.9c32.5,0,32.5,14.9,65,14.9
		c32.5,0,32.5-14.9,65-14.9c32.5,0,32.5,14.9,65,14.9c32.5,0,32.5-14.9,64.9-14.9c32.5,0,32.5,14.9,65,14.9
		c32.5,0,32.5-14.9,65-14.9c32.5,0,32.5,14.9,65,14.9c32.5,0,32.5-14.9,65-14.9c32.5,0,32.5,14.9,65,14.9c32.5,0,32.5-14.9,65-14.9
		c32.5,0,32.5,14.9,65,14.9c32.5,0,32.5-14.9,65-14.9c32.5,0,32.5,14.9,64.9,14.9c32.5,0,32.5-14.9,64.9-14.9v328.3H0.6V370.2
		c32.5,0,32.5,14.9,65,14.9C98,385.2,98,370.2,130.5,370.2z"/>
</g>
<path style="fill:#5FB7ED;" d="M0.4,545.2c389.7-67.1,779.4,129.1,1169.1,61.9c0-33.5,0-96.7,0-130.2
	C779.8,565.4,390.1,420.5,0.4,509C0.4,521.1,0.4,533.1,0.4,545.2z"/>
<path style="fill:#F9CD53;" d="M0,700l0.4-51.7c602.4,49.7,779.4-83,1169.1-44.8l-0.4,96.5H0z"/>
<g style="display:none;">
	<g style="display:inline;">
		<path style="fill:#B75584;stroke:#913A6C;stroke-width:0.5792;stroke-miterlimit:10;" d="M511.9,446.8c-9.2-0.6-16.2-0.4-12.5,4.3
			c3.5,4.9,16.9,15.1,20.8,15.3c4.1,0.1,1.3-1.6,1.7-3.8c0.3-4.8,1.9-10.6,0.6-15.1C521.1,443,519.4,446.8,511.9,446.8z"/>
		<path style="fill:#E56EC4;stroke:#C152A7;stroke-width:0.5792;stroke-miterlimit:10;" d="M517.5,436.3c-5.5,16.6,6,39,19.9,48.7
			c53.7,37.4,120.3,10.2,103.5,5c-35.4-11-38.1-62.4-65.1-75.7C543,398.2,523.1,419.7,517.5,436.3z"/>
		<path style="fill:#D7E9FF;" d="M519.6,454.3c-1.2,3.2-1.2,7.1,0.6,11.9c10.3,26.6,48.5,36.2,73.9,38.4c8.1,0.7,18.9,1.6,26.7-1.7
			c2.8-1.2,6.8-3.6,1.6-4.9c-30.7-7.9-37.4-41.4-65.7-52.8C545.4,440.4,524.1,442.5,519.6,454.3z"/>
		<path style="fill:#FCB322;stroke:#F9A91C;stroke-width:1.1583;stroke-miterlimit:10;" d="M545.1,394.1c3.2-4.4,11.8-6.3,15-6.1
			c4.8,0.3,9.8,10.3,6.7,13.2c2.3-2.1,6.3-4,9.4-4.2c1.8-0.1,4.2,0.5,5.6,1.8c3,2.9-0.6,6.2-2.9,7.8c2.3-0.8,4.8-1.5,7-0.7
			c2.1,0.8,4,2.8,4.5,5c0.6,2.4-0.4,4.3-1.7,6.2c0.5-0.7,4.4-0.3,5.1-0.1c1.6,0.4,3.1,1.4,3.6,3.1c0.3,1.2-0.1,2.3-0.8,3.3
			c-0.1,0.2-2.6,2.5-1.8,2.7c2.6,0.9,6.4-0.9,7.8,2.7c0.5,3,0,6.2-1.4,9c3.6-0.4,7.1,3,6.8,6.6c-0.1,1.4-0.7,2.9-0.7,4.3
			c0,1.8,0.9,2.5,1.6,4c1.1,2.2,3.7,9.2,2.6,11.5c-4.2-5.6-11.7-15.6-15.4-21.4c-2.2-3.4-4.3-7-7.1-9.9
			c-6.2-6.6-11.8-13.9-22.5-18.5c-12-5.2-24.8,3-25.1-3.6C541.4,405.9,542.4,397.9,545.1,394.1z"/>
		<g>
			<path style="fill:#FCB322;stroke:#F9A91C;stroke-width:1.1583;stroke-miterlimit:10;" d="M651,451.4c-4.9-0.7-10.6,4.3-12.7,9.3
				c-8,19.2,1.5,38.1,3.4,32.8c3.2-9.3,15.7-15.9,18.2-25.1C662.8,456.9,655.9,452,651,451.4z"/>
			<path style="fill:#FCB322;stroke:#F9A91C;stroke-width:1.1583;stroke-miterlimit:10;" d="M681.7,483.8c0.6,4.9-4.6,10.5-9.6,12.5
				c-19.4,7.5-38.3-3.7-32.7-4.2c11.8-1.1,16.3-15.3,25.6-17.5C676.4,471.8,681.1,478.9,681.7,483.8z"/>
		</g>
		<g>
			
				<ellipse transform="matrix(0.9988 -4.821641e-02 4.821641e-02 0.9988 -20.2866 27.5972)" style="fill:#F7F9EF;" cx="561.9" cy="434.3" rx="8.9" ry="8.9"/>
			<path style="fill:#323138;" d="M563.3,435.5c-0.8,2.3-3.3,3.6-5.6,2.8c-2.3-0.8-3.6-3.3-2.8-5.6c0.8-2.3,3.3-3.6,5.6-2.8
				C562.8,430.7,564.1,433.2,563.3,435.5z"/>
			<g>
				<path style="fill:#F7F9EF;" d="M554.7,430.3c-0.3,0.9,0.2,1.8,1.1,2.1c0.9,0.3,1.8-0.2,2.1-1.1c0.3-0.9-0.2-1.8-1.1-2.1
					C555.9,429,554.9,429.4,554.7,430.3z"/>
				<path style="fill:#F7F9EF;" d="M560.2,437.7c-0.2,0.6,0.1,1.2,0.7,1.4c0.6,0.2,1.2-0.1,1.4-0.7c0.2-0.6-0.1-1.2-0.7-1.4
					C561,436.8,560.4,437.1,560.2,437.7z"/>
			</g>
		</g>
		<g>
			
				<ellipse transform="matrix(0.9883 -0.1528 0.1528 0.9883 -60.0662 86.1258)" style="fill:#F7F9EF;" cx="530.4" cy="433.9" rx="8.2" ry="8.2"/>
			<path style="fill:#323138;" d="M528.9,434.9c0.5,2.2,2.7,3.6,4.9,3.1c2.2-0.5,3.6-2.7,3.1-4.9c-0.5-2.2-2.7-3.6-4.9-3.1
				C529.8,430.5,528.4,432.7,528.9,434.9z"/>
			<g>
				<path style="fill:#F7F9EF;" d="M537.4,430.9c0.2,0.8-0.3,1.7-1.2,1.8c-0.8,0.2-1.7-0.3-1.8-1.2c-0.2-0.8,0.3-1.7,1.2-1.8
					C536.3,429.6,537.2,430.1,537.4,430.9z"/>
				<path style="fill:#F7F9EF;" d="M531.6,437.2c0.1,0.6-0.2,1.1-0.8,1.2c-0.6,0.1-1.1-0.2-1.2-0.8c-0.1-0.6,0.2-1.1,0.8-1.2
					C530.9,436.3,531.5,436.6,531.6,437.2z"/>
			</g>
		</g>
		<path style="fill:#B75584;stroke:#913A6C;stroke-width:0.5792;stroke-miterlimit:10;" d="M575.8,453.2c-1.6,3.3-0.9,5.5,3,5.9
			c3.7,0.4,10.4-1,16.4-6.1c6.2-4.9,9-11.1,9.9-14.7c0.9-3.9-0.1-5.2-2.5-4.9c-5.3,1.3-11.7,1.9-17,4.6
			C580.2,440.8,579.8,445.9,575.8,453.2z"/>
		<g>
			<path style="fill:#C5D0D8;" d="M557,442.5c0.8,1,1.6,3.5-1.5,6.9c-2,2.2-6.8,4.9-13,4.1c-5-0.7-6.9-2.9-8.7-5.2
				c-1.9-2.3-2.9-6.5-0.4-7.4c2.3-0.8,5.5,2.9,12.3,1.2C552.8,440.3,554.7,439.5,557,442.5z"/>
			<path style="fill:#323138;" d="M555.7,443.7c0.7,0.8,1.5,2.7-1.3,5.4c-1.7,1.7-6.1,3.8-11.6,3.2c-4.5-0.5-6.1-2.3-7.8-4
				c-1.7-1.8-2.6-5.1-0.4-5.7c2-0.6,4.9,2.3,11,0.9C552,442,553.7,441.4,555.7,443.7z"/>
			<path style="fill:#FA7C65;" d="M537.8,449.6c-0.6,0.9,3,2,6.8,2c3.7,0,7.9-1.1,7.9-2.2c0-1.1-3.1-1.8-6.8-1.8
				C541,447.6,538.6,448.6,537.8,449.6z"/>
		</g>
	</g>
	<g style="display:inline;">
		<g>
			<g>
				<path style="fill:#92B53C;" d="M994.4,428.4c16.7,4.4,19.4,11.8,14.2,21.7c-4.3,8.1-6,10.3-17.2,10.6
					c-12.4,0.4-19.5-11.8-19.1-21.9C972.7,428.3,983.5,425.5,994.4,428.4z"/>
				<path style="fill:#A0CC45;" d="M973.6,434c4.8-2.6,12.8-3,20.4-1.1c8.7,2.2,14.2,4.9,17.2,8.1c-0.6-5.4-5-9.6-16.5-12.6
					C984.1,425.7,975.9,428.3,973.6,434z"/>
			</g>
			<g>
				<path style="fill:#92B53C;" d="M1052.7,518c-17.5,3.6-23.6-2.3-23.6-14.5c0-10,0.5-13,10.7-18.7c11.3-6.3,20.9,4.3,27.7,12.9
					C1073.6,505.7,1064.2,515.6,1052.7,518z"/>
				<path style="fill:#A0CC45;" d="M1069.2,502.4c-3.2,4.8-10.3,9.1-18.2,10.9c-9.1,2-15.5,2-19.8,0.3c3.1,5,9.7,6.8,21.3,4.4
					C1061.9,516,1069.8,509.2,1069.2,502.4z"/>
			</g>
			<g>
				<path style="fill:#92B53C;" d="M1054.3,438.2c15.4,9,16.2,17.1,8.3,25.3c-6.4,6.7-8.7,8.5-20,5.7c-12.5-3.1-12.9-16.6-12.3-26.9
					C1030.8,432.9,1044.1,432.3,1054.3,438.2z"/>
				<path style="fill:#A0CC45;" d="M1031.9,437.9c5.5-1.2,13.6,0.6,20.6,4.6c8.1,4.6,12.9,8.8,14.9,12.8c0.9-5.5-2.9-11-13.1-17
					C1046.2,433.5,1035.8,432.9,1031.9,437.9z"/>
			</g>
			<g>
				<path style="fill:#92B53C;" d="M975.2,518.2c-5.4,10.7-16.5,8.6-19.7,4.8s0.4-12.1,8.1-18.6c7.7-6.5,18-9.5,19.7-4.8
					C984.2,501.9,979.8,509.2,975.2,518.2z"/>
				<path style="fill:#A0CC45;" d="M975.2,518.2c0.2-0.4,0.4-0.7,0.6-1.1c-5.5,3.7-12.3,1.8-14.7-1c-1.9-2.3-1.4-6.1,0.9-10.2
					c-6.6,6.2-9.5,13.6-6.5,17.2C958.7,526.8,969.8,528.9,975.2,518.2z"/>
			</g>
			<path style="fill:#A0CC45;stroke:#98BC40;stroke-width:1.2757;stroke-miterlimit:10;" d="M1095.3,476.7
				c-1.1-13.8-11.1-25.1-17.1-19c-2,2-3.5,3.7-4.5,5c-2.5,0.8-7.8,2-12.7-0.3c-16-7.3-34.9-24.7-70.6-22.3
				c-42,2.7-68.6,22.8-70.1,41.4l7.4,1.5l-7.4,1.9c0.8,14.9,40.6,27,85.9,24.4c27.3-1.6,39.3-8.2,56.4-16.6l14.3,3.7
				c0.4,1.7,0.9,2.8,1.4,2.7C1088.6,497.6,1096.1,487.6,1095.3,476.7z"/>
			<g>
				<path style="fill:#F4B434;" d="M968.1,492.5c7.7-18.9-6.7-24.8-7.1-33.8c-0.4-10.4-1.2-12-4.5-11.8c-0.4,0-6.6,2.6-8.6,3.6
					s-8,4.3-7.9,4.4c0.1,0.1,5,3.7,7.6,6.8c3.6,4.3,10.3,18.9,1.4,32.1c-2.4,3.6-3.8,9-4,9.4c1.6,0.5,5.6,1.5,7.3,2
					c1.7,0.4,5.2,1.2,5.2,1.2C961.4,503.2,965.3,499.5,968.1,492.5z"/>
				<path style="fill:#F7C34F;" d="M965.5,490.7c6.4-20-5.8-15.7-6.2-34.1c-0.1-5.4-2.2-9.3-2.7-9.7c-4.6,1.8-11.5,4.9-15.2,7.2
					c0.2,0.1,0.3,0.3,0.5,0.4c3.1,2.7,6.9,6,8.9,9.1c2,3.1,5.6,11.6,4.7,17.7c-0.7,5.3-3.7,11.5-7.3,17.9c-0.5,0.9-1.5,3.6-1.9,4.5
					c3.2,0.9,6.6,1.8,10.2,2.5C961.1,501.1,963.7,496.3,965.5,490.7z"/>
				<path style="fill:#F4B434;" d="M1028.3,445.7c-2.5-0.9-5.4-1.9-8.4-2.7c-3-0.8-6.2-1.6-9.2-2c-7.1,11.8-9.5,23.2-8.1,34.7
					c1.4,11.4,6.4,22.8,7.1,33.8c3.5-0.3,7.5-0.9,11.4-1.6c3.8-0.7,10.1-2.1,10.1-2.1c1.3-11.2-0.6-20.1-3.9-34.6
					C1024.5,459.7,1025.5,447.8,1028.3,445.7z"/>
				<path style="fill:#F7C34F;" d="M1026.2,444.9c0,0-4.6-1.6-6.9-2.2c-2.3-0.6-4.6-1.1-7.7-1.6c-7.1,11.8-7.7,21.3-6.3,32.6
					c1.4,11.3,4.6,24.2,5.3,35.2c3.5-0.3,6.7-0.7,9.8-1.1s6.7-1.2,9.3-1.9c0.1-10.1,0.8-13.9-2.1-25.4
					C1024.8,469.1,1020.9,457.8,1026.2,444.9z"/>
			</g>
			<g>
				<path style="fill:#FFFFFF;" d="M948.2,470.5c0.2,3.7-2.6,7-6.3,7.2c-3.7,0.2-7-2.6-7.2-6.3c-0.2-3.7,2.6-7,6.3-7.2
					C944.7,464,948,466.8,948.2,470.5z"/>
				<path style="fill:#323138;" d="M943.9,470.8c0.2,2.4-1.6,4.4-4,4.6c-2.4,0.2-4.4-1.6-4.6-4c-0.2-2.4,1.6-4.4,4-4.6
					C941.7,466.6,943.8,468.4,943.9,470.8z"/>
				<path style="fill:#FFFFFF;" d="M942.7,467.6c0.1,0.8-0.6,1.6-1.4,1.6c-0.8,0.1-1.6-0.6-1.6-1.4c-0.1-0.8,0.6-1.6,1.4-1.6
					S942.7,466.7,942.7,467.6z"/>
				<path style="fill:#FFFFFF;" d="M937.8,474.3c0,0.5-0.3,0.9-0.8,0.9c-0.5,0-0.9-0.3-0.9-0.8c0-0.5,0.3-0.9,0.8-0.9
					C937.4,473.5,937.8,473.9,937.8,474.3z"/>
			</g>
			<g>
				<path style="fill:#92B53C;" d="M1010.9,479.8c-0.7,14.9-7.9,18.8-19.7,16.6c-9.7-1.8-12.5-2.7-15.5-12
					c-3.4-10.3,9.1-16.2,19.2-20.2C1004,460.6,1011.4,470,1010.9,479.8z"/>
				<path style="fill:#A0CC45;" d="M999.8,463.6c3.9,3.5,6.4,10.1,6.2,16.8c-0.2,7.8-1.8,13-4.5,16.1c5.6-1.6,8.9-6.7,9.4-16.6
					C1011.3,472,1006.5,464.3,999.8,463.6z"/>
			</g>
			<path style="fill:#92B53C;" d="M1083.7,450c-1.3,0.1-6.2,8.1-7.3,9.6c7.5,0.9,10.1,6.9,11,18.1c0.7,8.7-1.3,18.5-9.2,21.4
				c0.5,0.2,2.9,10.3,6.9,8.4c12.7-5.8,14.6-22.1,13.7-33C1097.6,460.8,1092.2,449.5,1083.7,450z"/>
			<g>
				<path style="fill:#92B53C;" d="M1001.5,508.6c10.9,4.9,9.4,16.1,5.7,19.5c-3.6,3.4-12.1,0.1-18.9-7.3
					c-6.8-7.4-10.3-17.6-5.7-19.5C984.8,500.4,992.4,504.4,1001.5,508.6z"/>
				<path style="fill:#A0CC45;" d="M1001.5,508.6c-0.4-0.2-0.8-0.3-1.1-0.5c3.9,5.4,2.4,12.2-0.4,14.7c-2.2,2-6,1.7-10.2-0.5
					c6.5,6.3,14,8.9,17.4,5.8C1010.9,524.7,1012.4,513.5,1001.5,508.6z"/>
			</g>
			<g>
				<path style="fill:#F4B434;" d="M928.3,481.9c-0.7,1.9-3.2,2.4-5.6,1.1c-2.4-1.3-3.8-4-3.1-5.9s3.2-2.4,5.6-1.1
					C927.6,477.4,929,480,928.3,481.9z"/>
				<path style="fill:#F4B434;" d="M917.9,486.7c0-1.9,2.3-4.6,5.1-6c2.8-1.4,5.2-0.9,5.2,1c0,1.9-2.3,4.6-5.1,6
					C920.2,489,917.9,488.6,917.9,486.7z"/>
			</g>
		</g>
		<g>
			<g>
				
					<ellipse transform="matrix(0.5265 -0.8502 0.8502 0.5265 42.4686 993.1794)" style="opacity:0.2;fill:#FFFFFF;" cx="912.9" cy="458.5" rx="5.9" ry="5.9"/>
				<path style="opacity:0.2;fill:#FFFFFF;" d="M915.2,454.7c0.1,0.8-1.2,1.8-2.7,2.7c-1.5,0.9-3,1.5-3.7,1
					c-0.7-0.5,0.2-2.3,2.3-3.5C913.1,453.7,915.1,453.9,915.2,454.7z"/>
			</g>
			<g>
				<circle style="opacity:0.2;fill:#FFFFFF;" cx="920.4" cy="436.3" r="4.9"/>
				<path style="opacity:0.2;fill:#FFFFFF;" d="M922.3,433.2c0.1,0.7-1,1.5-2.3,2.2c-1.3,0.7-2.5,1.3-3.1,0.9
					c-0.5-0.4,0.1-1.9,1.9-2.9C920.6,432.3,922.2,432.5,922.3,433.2z"/>
			</g>
			<g>
				<circle style="opacity:0.2;fill:#FFFFFF;" cx="905.7" cy="421.6" r="3.4"/>
				<path style="opacity:0.2;fill:#FFFFFF;" d="M907,419.4c0.1,0.5-0.7,1.1-1.6,1.6c-0.9,0.5-1.8,0.9-2.2,0.6
					c-0.4-0.3,0.1-1.3,1.3-2C905.8,418.8,907,419,907,419.4z"/>
			</g>
			<g>
				<path style="opacity:0.2;fill:#FFFFFF;" d="M916.6,408.4c0,1.1-0.9,2-2,2c-1.1,0-2-0.9-2-2c0-1.1,0.9-2,2-2
					C915.7,406.4,916.6,407.3,916.6,408.4z"/>
				<path style="opacity:0.2;fill:#FFFFFF;" d="M915.4,407.1c0,0.3-0.4,0.6-0.9,0.9c-0.5,0.3-1,0.5-1.2,0.3
					c-0.2-0.2,0.1-0.8,0.8-1.2C914.7,406.8,915.4,406.9,915.4,407.1z"/>
			</g>
			<g>
				<circle style="opacity:0.2;fill:#FFFFFF;" cx="920" cy="419.8" r="2"/>
				<path style="opacity:0.2;fill:#FFFFFF;" d="M920.8,418.6c0,0.3-0.4,0.6-0.9,0.9c-0.5,0.3-1,0.5-1.2,0.3
					c-0.2-0.2,0.1-0.8,0.8-1.2C920.1,418.2,920.8,418.3,920.8,418.6z"/>
			</g>
		</g>
	</g>
	<g style="display:inline;">
		<g>
			<g>
				<path style="fill-rule:evenodd;clip-rule:evenodd;fill:#EFF6FF;" d="M709.8,663.7l1.7-9.1l-1.7-9.1h-10.1l-2.6,8l2.6,10.3H709.8
					z"/>
			</g>
			<g>
				<path style="fill-rule:evenodd;clip-rule:evenodd;fill:#FFA53A;" d="M723.5,628.4c0.2-0.2,0.6-0.3,0.8-0.1
					c1.6,1.3,6.8,6,7.5,14.3c0.1,1.4,0.1,2.9-0.1,4.5c-0.2,2.3-0.8,4.7-1.8,7.4c0.8,2.1,1.3,4,1.6,5.8c0.3,1.6,0.4,3.1,0.4,4.5
					c-0.1,9.3-5.9,14.6-7.6,15.9c-0.2,0.2-0.6,0.2-0.8-0.1l-13.7-17v-18.3L723.5,628.4z"/>
			</g>
			<g>
				<path style="fill-rule:evenodd;clip-rule:evenodd;fill:#E0831E;" d="M723.5,680.7c0,0,0.5,0.3,0.8,0.1c0.8-0.6,2.6-2.2,4.2-4.7
					c0.7-1.1-17.6-20.1-18.7-21.7v9.3L723.5,680.7L723.5,680.7z"/>
			</g>
			<g>
				<path style="fill-rule:evenodd;clip-rule:evenodd;fill:#FFA53A;" d="M622,701.4c7.3,4.9,23.9,6,21.1,3.7
					c-7.2-6.1-11.7-9.1-15.3-17.4c0,0,0,0,0,0c-0.2-0.1-5.7-7.4-5.9-7.5c0,0-5.3,0-10,0C611.5,685.2,614.1,696.1,622,701.4
					L622,701.4z"/>
			</g>
			<g>
				<path style="fill-rule:evenodd;clip-rule:evenodd;fill:#FFA53A;" d="M699.7,663.7c-19.7,18.7-38.7,25.6-59,28.6
					c36.3,11.7,77.1,13.1,67.4-9.2L699.7,663.7L699.7,663.7z"/>
			</g>
			<g>
				<path style="fill-rule:evenodd;clip-rule:evenodd;fill:#FFA53A;" d="M699.7,645.4l9.4-20.8c10.5-23.2-33.3-25.8-71.2-11.8
					C665.5,613.5,691.7,617.1,699.7,645.4z"/>
			</g>
			<g>
				<path style="fill-rule:evenodd;clip-rule:evenodd;fill:#FCD051;" d="M682.6,684.8c10.7-6.7,14.8-16,17.1-21.1v-18.3
					c-1.4-6.9-4-18.9-14.8-26.7C687.3,650.7,674.8,650.4,682.6,684.8L682.6,684.8z"/>
			</g>
			<g>
				<path style="fill-rule:evenodd;clip-rule:evenodd;fill:#FCD051;" d="M636.8,691c1.3,0.5,2.6,0.9,4,1.3c4.3,0.4,8.2,0.5,11.9,0.4
					c-8.3-38.6,7.1-52.8,0.3-81.6c-4.5,0.2-9.5,0.7-15,1.7c-0.5,0.2-0.9,0.3-1.4,0.5c1.8,5.7,2.1,7.6-1.1,21.5
					C632.2,648.7,632.5,673.2,636.8,691L636.8,691z"/>
			</g>
			<g>
				<path style="fill-rule:evenodd;clip-rule:evenodd;fill:#FCD051;" d="M627.2,687.4c0.2,0.1,0.5,0.2,0.7,0.3
					c-4.8-27.4,7.4-59.7,0.1-70.8c-17.7,8.2-32.8,20.3-38.3,35.6C587.3,665.3,604.8,678.2,627.2,687.4L627.2,687.4z M606.5,649.9
					c-2-2-2-5.1,0-7.1c2-2,5.1-2,7.1,0c2,2,2,5.1,0,7.1C611.7,651.9,608.5,651.9,606.5,649.9L606.5,649.9z"/>
			</g>
			<g>
				<path style="fill-rule:evenodd;clip-rule:evenodd;fill:#FCD051;" d="M660.6,692.1c5.7-0.7,10.5-2,14.7-3.7
					c-6.9-26.9,8.6-45.7,0.3-74.6c-4.1-1.5-9-2.4-14.7-2.8c1.4,4.7,0.6,15.9-2.1,29.4C656,654,655.3,670.2,660.6,692.1L660.6,692.1z
					"/>
			</g>
			<g>
				<ellipse style="fill:#FFFFFF;" cx="609.9" cy="645" rx="8.5" ry="9.2"/>
				<g>
					
						<ellipse transform="matrix(0.9786 -0.2058 0.2058 0.9786 -119.5678 138.8052)" style="fill:#323138;" cx="607.6" cy="644.3" rx="5.5" ry="5.5"/>
					<circle style="fill:#FFFFFF;" cx="609.5" cy="642.1" r="1.2"/>
					<path style="fill:#FFFFFF;" d="M603.6,646.8c0,0.3,0.2,0.5,0.5,0.5c0.3,0,0.5-0.2,0.5-0.5s-0.2-0.5-0.5-0.5
						C603.8,646.3,603.6,646.5,603.6,646.8z"/>
				</g>
			</g>
			<g>
				<path style="fill-rule:evenodd;clip-rule:evenodd;fill:#FFFFFF;" d="M675.3,688.4c2.7-1.1,5.1-2.3,7.3-3.7
					c-5.7-35.2,6.8-35,2.3-66.1c-2.6-1.9-5.7-3.5-9.3-4.8c2.4,12.7,1.8,22.5,0.1,31.4c-1.1,5.5-3.7,11.6-3.6,20.7
					C672.1,675.6,673.4,682.9,675.3,688.4L675.3,688.4z"/>
			</g>
			<g>
				<path style="fill-rule:evenodd;clip-rule:evenodd;fill:#FFFFFF;" d="M652.6,692.7c2.8-0.1,5.5-0.3,8-0.6
					c-5.3-21.9-2.6-38.2,0.2-51.7c2.7-13.5,1.5-24.5,0.1-29.3c-2.5-0.1-5.1-0.2-8,0C657.3,640.4,641.7,654.5,652.6,692.7
					L652.6,692.7z"/>
			</g>
			<g>
				<path style="fill-rule:evenodd;clip-rule:evenodd;fill:#F7BB26;" d="M627.2,687.4c0.2,0.1,0.5,0.2,0.7,0.3
					c-0.7-4-1-8.1-1.1-12.2c-19.6-8.9-34.1-20.7-32-32.5c0.1-0.3,0.2-0.7,0.4-1c-2.3,3.3-4.2,6.8-5.5,10.5
					C587.3,665.3,604.8,678.2,627.2,687.4L627.2,687.4z"/>
			</g>
			<g>
				<path style="fill-rule:evenodd;clip-rule:evenodd;fill:#F7BB26;" d="M660.6,692.1c5.7-0.7,10.5-2,14.7-3.7
					c-0.6-1.8-1.2-3.9-1.6-6.1c-0.1-0.4-0.2-0.8-0.2-1.1c-2.4,0.6-4.9,1.1-7.7,1.4c-2.2,0.3-4.5,0.5-6.9,0.6
					c0.3,1.6,0.5,3.2,0.9,4.9C660,689.3,660.3,690.7,660.6,692.1L660.6,692.1z"/>
			</g>
			<g>
				<path style="fill-rule:evenodd;clip-rule:evenodd;fill:#D9EEFF;" d="M652.6,692.7c2.8-0.1,5.5-0.3,8-0.6l0,0
					c-0.3-1.4-0.6-2.8-0.9-4.1c-0.3-1.6-0.6-3.3-0.9-4.9c0,0-0.1,0-0.1,0c-0.3,0-0.6,0-1,0c-2.2,0.1-4.4,0-6.8-0.1
					c-0.2,0-0.4,0-0.6,0c0.4,2.3,1,4.6,1.6,7.1C652.1,691,652.4,691.8,652.6,692.7L652.6,692.7z"/>
			</g>
			<g>
				<path style="fill-rule:evenodd;clip-rule:evenodd;fill:#F7BB26;" d="M640.7,692.3c4.3,0.4,8.2,0.5,11.9,0.4
					c-0.2-0.9-0.5-1.7-0.7-2.5c-0.6-2.5-1.2-4.8-1.6-7.1c-1.4-0.1-2.9-0.2-4.4-0.3c-1.3-0.4-2.6-0.9-4-1.3c-2.5-0.9-4.9-1.8-7.3-2.7
					c0,0.3,0.1,0.7,0.1,1v0c0.5,3.9,1.2,7.7,2.1,11.2C638.1,691.4,639.4,691.9,640.7,692.3L640.7,692.3z"/>
			</g>
			<g>
				<path style="fill-rule:evenodd;clip-rule:evenodd;fill:#FFFFFF;" d="M627.9,687.7c2.9,1.2,5.8,2.3,8.9,3.3
					c-4.2-17.7-4-36.9,0.4-56.2c2-8.6,1.2-15.8-0.6-21.5c-2.9,1.1-5.7,2.3-8.5,3.6c4.6,11.3-3.9,31.4-3.1,49.1
					C625.8,683.7,626.2,682.2,627.9,687.7L627.9,687.7z"/>
			</g>
			<g>
				<path style="fill-rule:evenodd;clip-rule:evenodd;fill:#D9EEFF;" d="M627.9,687.7c2.9,1.2,5.8,2.3,8.9,3.3
					c-1-4-1.7-8.1-2.2-12.2c-0.5-0.2-1-0.4-1.5-0.6c-0.2-0.1-0.5-0.2-0.7-0.3c-2.4-1-4.7-2-6.9-3C626,683.4,626.5,683.4,627.9,687.7
					L627.9,687.7z"/>
			</g>
			<g>
				<path style="fill-rule:evenodd;clip-rule:evenodd;fill:#F7BB26;" d="M699.7,663.7c-2.7,3.9-6.4,8.1-11.9,11.6
					c-1.8,1.1-3.8,2.2-6,3.2c0.2,2,0.5,4.1,0.9,6.3C693.2,678,697.4,668.7,699.7,663.7z"/>
			</g>
			<g>
				<path style="fill-rule:evenodd;clip-rule:evenodd;fill:#D9EEFF;" d="M675.3,688.4c2.7-1.1,5.1-2.3,7.3-3.7
					c-0.4-2.3-0.6-4.4-0.9-6.3c-0.1,0-0.3,0.1-0.4,0.2c-0.3,0.1-0.6,0.3-0.9,0.4c-0.6,0.2-1.2,0.5-1.8,0.7c-1.5,0.5-3.1,1-4.8,1.5
					c-0.2,0-0.3,0.1-0.5,0.1c0.1,0.4,0.1,0.8,0.2,1.1C674.1,684.6,674.7,686.6,675.3,688.4L675.3,688.4z"/>
			</g>
			<g>
				<path style="fill-rule:evenodd;clip-rule:evenodd;fill:#D9EEFF;" d="M709.8,663.7h-10.1v-9.3h10.1V663.7z"/>
			</g>
			<g>
				<path style="fill:#E0831E;" d="M720.8,646.7l10.3-4c0.2-0.1,0.5-0.1,0.7-0.1c0.1,1.4,0.1,2.9-0.1,4.5l-9.4,3.6
					c-0.3,0.1-0.5,0.1-0.8,0.1c-0.9,0-1.7-0.5-2-1.4C719.1,648.4,719.7,647.1,720.8,646.7z"/>
			</g>
			<g>
				<path style="fill:#E0831E;" d="M720.9,661.7c-1.1-0.3-1.8-1.5-1.4-2.7c0.3-1.1,1.5-1.8,2.7-1.4l9.3,2.8c0.3,1.6,0.4,3.1,0.4,4.5
					c-0.2,0-0.4,0-0.6-0.1L720.9,661.7L720.9,661.7z"/>
			</g>
			<g>
				<path style="fill:#FFFFFF;" d="M594.5,653.4c-0.7,1.9-3.2,2.4-5.6,1.1c-2.4-1.3-3.8-4-3.1-5.9c0.7-1.9,3.2-2.4,5.6-1.1
					C593.8,648.9,595.2,651.5,594.5,653.4z"/>
				<path style="fill:#FFFFFF;" d="M584.1,658.2c0-1.9,2.3-4.6,5.1-6c2.8-1.4,5.2-0.9,5.2,1c0,1.9-2.3,4.6-5.1,6
					C586.4,660.5,584.1,660.1,584.1,658.2z"/>
			</g>
		</g>
		<g>
			<g>
				
					<ellipse transform="matrix(0.5265 -0.8502 0.8502 0.5265 -266.7024 793.4636)" style="opacity:0.2;fill:#FFFFFF;" cx="579" cy="636.2" rx="5.9" ry="5.9"/>
				<path style="opacity:0.2;fill:#FFFFFF;" d="M581.3,632.4c0.1,0.8-1.2,1.8-2.7,2.7c-1.5,0.9-3,1.5-3.7,1
					c-0.7-0.5,0.2-2.3,2.3-3.5C579.2,631.4,581.2,631.6,581.3,632.4z"/>
			</g>
			<g>
				<circle style="opacity:0.2;fill:#FFFFFF;" cx="586.5" cy="614" r="4.9"/>
				<path style="opacity:0.2;fill:#FFFFFF;" d="M588.4,610.9c0.1,0.7-1,1.5-2.3,2.2c-1.3,0.7-2.5,1.3-3.1,0.9
					c-0.5-0.4,0.1-1.9,1.9-2.9C586.7,610,588.4,610.2,588.4,610.9z"/>
			</g>
			<g>
				<circle style="opacity:0.2;fill:#FFFFFF;" cx="571.8" cy="599.3" r="3.4"/>
				<path style="opacity:0.2;fill:#FFFFFF;" d="M573.2,597.1c0.1,0.5-0.7,1.1-1.6,1.6c-0.9,0.5-1.8,0.9-2.2,0.6
					c-0.4-0.3,0.1-1.3,1.3-2C572,596.5,573.1,596.7,573.2,597.1z"/>
			</g>
			<g>
				<path style="opacity:0.2;fill:#FFFFFF;" d="M582.7,586.1c0,1.1-0.9,2-2,2c-1.1,0-2-0.9-2-2s0.9-2,2-2
					C581.8,584.1,582.7,585,582.7,586.1z"/>
				<path style="opacity:0.2;fill:#FFFFFF;" d="M581.5,584.8c0,0.3-0.4,0.6-0.9,0.9c-0.5,0.3-1,0.5-1.2,0.3
					c-0.2-0.2,0.1-0.8,0.8-1.2C580.9,584.5,581.5,584.6,581.5,584.8z"/>
			</g>
			<g>
				<circle style="opacity:0.2;fill:#FFFFFF;" cx="586.2" cy="597.5" r="2"/>
				<path style="opacity:0.2;fill:#FFFFFF;" d="M586.9,596.3c0,0.3-0.4,0.6-0.9,0.9c-0.5,0.3-1,0.5-1.2,0.3
					c-0.2-0.2,0.1-0.8,0.8-1.2C586.2,595.9,586.9,596,586.9,596.3z"/>
			</g>
		</g>
	</g>
	<g style="display:inline;">
		<g>
			<path style="fill:#EF5137;" d="M275.9,529.8c-4.6,4.4-9.3,22.3,1.7,29.1c7.3,4.4,14.9-3,19.5-7.4s-1.6-6-7.3-12
				S280.4,525.4,275.9,529.8z"/>
			<g>
				<path style="fill:#EF5137;" d="M238.8,509.6c-0.3,11,4.5,20.3,9.2,25.5c4.9,5.3,9.6,6.4,14.1,3.6c4.5-3,8.9-7.3,12.2-12
					c3.3-4.7,5.6-9.8,5.6-16.3c0.2-6.5-1.9-11.7-5-16.5c-3.1-4.8-7.3-9.3-11.7-12.4c-4.4-2.9-9.1-2-14.2,3.1
					C244.1,489.5,238.8,498.6,238.8,509.6z"/>
				<g>
					<path style="fill:#FE87AB;" d="M244.3,509.8c0,1.2,7.1,2.2,15.9,2.2c8.8,0,15.9-1,15.9-2.2c0-1.2-7.1-2.2-15.9-2.2
						C251.5,507.7,244.3,508.6,244.3,509.8z"/>
					
						<ellipse transform="matrix(0.2868 -0.958 0.958 0.2868 -291.0473 607.2241)" style="fill:#FE87AB;" cx="262.3" cy="499.1" rx="2.2" ry="15.9"/>
					<path style="fill:#FE87AB;" d="M246.9,525.4c-0.3-1.2,6.2-4.1,14.6-6.7c8.4-2.5,15.5-3.6,15.9-2.5c0.3,1.2-6.2,4.1-14.6,6.7
						C254.3,525.4,247.2,526.6,246.9,525.4z"/>
				</g>
			</g>
			<path style="fill:#FCC000;stroke:#F4B503;stroke-width:1.1583;stroke-miterlimit:10;" d="M272.7,506.7
				c-0.7,20.3,12.1,37.5,24.3,47c12.8,9.8,25.1,11.9,36.7,6.8c11.7-5.4,22.9-13.3,31.5-21.8c8.5-8.7,14.3-18,14.4-29.9
				c0.3-11.9-5.1-21.5-13.3-30.5c-8.2-8.9-19.1-17.1-30.6-23c-11.4-5.5-23.8-3.8-37,5.4C286.2,469.7,272.8,486.4,272.7,506.7z"/>
			<g>
				<ellipse style="fill:#FFFFFF;" cx="363.7" cy="504.7" rx="9.1" ry="9.8"/>
				<g>
					
						<ellipse transform="matrix(0.6959 -0.7181 0.7181 0.6959 -254.4103 416.141)" style="fill:#323138;" cx="364.2" cy="508.5" rx="5.9" ry="5.9"/>
					<circle style="fill:#FFFFFF;" cx="366.8" cy="506.7" r="1.3"/>
					<path style="fill:#FFFFFF;" d="M367.5,510c0,0.3,0.2,0.5,0.5,0.5c0.3,0,0.5-0.2,0.5-0.5s-0.2-0.5-0.5-0.5
						C367.7,509.5,367.5,509.7,367.5,510z"/>
				</g>
			</g>
			<path style="fill:#896DB5;" d="M353.8,466.9c0.8,5.7,1.8,11.1-0.5,16.3c-2.7,6.2-12.5,7.9-13.7,14.6
				c-1.4,8.2,11.5,13.2,10.8,21.5c-0.3,3.9-3.7,7-4.5,10.8c-1.5,7,5.8,13.4,4.9,20.5c-4.1,0.6-7.6-2.9-9.4-6.6
				c-2.9-5.9-3.3-12.7-2.6-19.2c0.4-4,1.1-8.7-1.7-11.6c-1.2-1.2-2.7-2-4.2-2.9c-4.1-2.8-6.6-7.9-6.3-12.9c0.3-5,3.4-9.7,7.9-12
				c1.8-0.9,3.8-1.5,5.5-2.6c2-1.3,5.1-3,4.7-5.4c-1.2-7.8-4.8-17.2,3.5-13.3C357,467.2,353.8,466.9,353.8,466.9z"/>
			<path style="fill:#896DB5;" d="M324.6,467.6c-1,2.8-3.4,4.9-5.5,7c-1.4,1.4-2.7,3-4,4.6c-2.5,3.3-4.7,7.6-2.9,11.3
				c1.2,2.5,3.9,4,4.7,6.6c0.8,2.6-0.7,5.4-2.5,7.4c-1.9,2-4.2,3.6-5.7,5.9c-2.8,4-2.6,9.8,0.5,13.6c1.1,1.4,2.6,2.5,3.7,4
				c1.7,2.3,2.3,5.4,1.6,8.2c-0.7,2.6-2.5,5.3-1.2,7.7c0.7,1.3,2,2,3.1,2.9c2,1.7,3.3,4.3,3.5,6.9c0.1,1.5-0.3,3.3-1.7,4.1
				c-1.4,0.9-3.3,0.3-4.7-0.6c-1.4-0.9-2.6-2.1-4.2-2.6c-1.5-0.5-3.3-0.2-4.7-1c-0.7-0.4-1.3-1-1.8-1.6c-2-2.6-2.6-6.1-2.6-9.4
				c0-3.3,0.6-6.6,0.8-9.9c0.1-1.2,0-2.4-0.4-3.5c-0.9-2.3-3.4-3.4-5.4-5c-3.1-2.4-5-6.3-5-10.2c0-3.9,1.8-7.8,4.8-10.3
				c2.4-2,5.6-3.3,6.5-6.2c0.8-2.7-0.7-5.5-1.5-8.2c-2.1-7.3,1.8-15.8,8.7-18.9c0.9-0.4,1.8-0.7,2.4-1.5c0.5-0.7,0.6-1.6,0.7-2.5
				c0.2-2.3-0.4-4.7-0.1-7.1C328.2,457.7,327.7,458.6,324.6,467.6z"/>
			<path style="fill:#F4B503;" d="M332.9,546.1c19.3-3.9,27.9-13.8,42.8-21.5c-2.5,5.2-5.6,10.9-10.1,15.5
				c-8.5,8.5-13.9,14.2-25.6,19.6c-11.6,5-32.2,6.6-48.5-9.1c-4.1-3.9-5.9-7.1-7.2-9.7C294,545.1,306.3,551.5,332.9,546.1z"/>
			<path style="fill:#EF5137;" d="M313.8,512.1c-2.1,6,1.8,24.2,14.7,25.2c8.5,0.7,12-9.4,14-15.4c2.1-6-4.1-4.7-12-7.4
				C322.7,511.8,315.9,506.2,313.8,512.1z"/>
			<g>
				<path style="fill:#F76951;" d="M376,510.9c0.7,2.1,3.4,2.6,6,1.2s4.1-4.3,3.3-6.4c-0.7-2.1-3.4-2.6-6-1.2
					C376.8,506,375.3,508.8,376,510.9z"/>
				<path style="fill:#F76951;" d="M387.3,516c0-2.1-2.4-5-5.5-6.4c-3.1-1.5-5.6-1-5.6,1.1c0,2.1,2.4,5,5.5,6.4
					C384.7,518.5,387.2,518,387.3,516z"/>
			</g>
			<g>
				<path style="fill:#F76951;" d="M294.4,464.8c4.4-10.4,16.4-15.5,35.5-17.3c20.2-1.8,27.3,14.6,27.3,21c0,3.7-5.3-5.9-24.8-8
					C304,457.3,292.8,468.5,294.4,464.8z"/>
				<path style="fill:#EF5137;" d="M328.3,453.2c-15.1,1-26.1,3.8-32.7,9.1c5.3-8.6,16.7-13.1,34.2-14.6c20.2-1.8,27.3,14.6,27.3,21
					c0,0.2,0,0.4,0,0.5C354.2,462,345.7,452.1,328.3,453.2z"/>
			</g>
			<g>
				<path style="fill:#FEA190;" d="M323,531.6c0.5,0.3,2.7-2.6,4.8-6.5c2.1-3.9,3.4-7.3,2.9-7.5c-0.5-0.3-2.7,2.6-4.8,6.5
					C323.8,527.9,322.5,531.3,323,531.6z"/>
				<path style="fill:#FEA190;" d="M316.9,526.7c0.4,0.4,3.3-1.7,6.5-4.9c3.1-3.1,5.4-6,4.9-6.4c-0.4-0.4-3.3,1.7-6.5,4.9
					C318.7,523.4,316.5,526.3,316.9,526.7z"/>
				<path style="fill:#FEA190;" d="M330.5,534.2c-0.6-0.1-0.3-3.7,0.6-8.1c0.9-4.3,2.1-7.7,2.7-7.6c0.6,0.1,0.3,3.7-0.6,8.1
					C332.3,530.9,331.1,534.3,330.5,534.2z"/>
			</g>
		</g>
		<g>
			<g>
				<circle style="opacity:0.2;fill:#FFFFFF;" cx="407.6" cy="503.1" r="7"/>
				<path style="opacity:0.2;fill:#FFFFFF;" d="M410.4,498.7c0.1,1-1.4,2.1-3.2,3.2c-1.8,1-3.6,1.8-4.4,1.2
					c-0.8-0.5,0.2-2.7,2.7-4.1C407.9,497.5,410.3,497.7,410.4,498.7z"/>
			</g>
			<g>
				<circle style="opacity:0.2;fill:#FFFFFF;" cx="416.5" cy="476.8" r="5.8"/>
				<path style="opacity:0.2;fill:#FFFFFF;" d="M418.8,473.2c0.1,0.8-1.2,1.8-2.7,2.6c-1.5,0.8-3,1.5-3.6,1
					c-0.6-0.5,0.2-2.2,2.2-3.4C416.7,472.2,418.7,472.4,418.8,473.2z"/>
			</g>
			<g>
				<circle style="opacity:0.2;fill:#FFFFFF;" cx="399.1" cy="459.5" r="4.1"/>
				<path style="opacity:0.2;fill:#FFFFFF;" d="M400.7,456.9c0.1,0.6-0.8,1.2-1.9,1.9c-1,0.6-2.1,1-2.5,0.7
					c-0.5-0.3,0.1-1.6,1.6-2.4C399.3,456.2,400.7,456.3,400.7,456.9z"/>
			</g>
			<g>
				<circle style="opacity:0.2;fill:#FFFFFF;" cx="409.7" cy="443.8" r="2.3"/>
				<path style="opacity:0.2;fill:#FFFFFF;" d="M410.6,442.3c0,0.3-0.5,0.7-1.1,1.1c-0.6,0.3-1.2,0.6-1.5,0.4
					c-0.3-0.2,0.1-0.9,0.9-1.4C409.8,442,410.6,442,410.6,442.3z"/>
			</g>
			<g>
				<circle style="opacity:0.2;fill:#FFFFFF;" cx="416.1" cy="457.3" r="2.3"/>
				<path style="opacity:0.2;fill:#FFFFFF;" d="M417,455.9c0,0.3-0.5,0.7-1.1,1.1c-0.6,0.3-1.2,0.6-1.5,0.4
					c-0.3-0.2,0.1-0.9,0.9-1.4C416.2,455.5,417,455.5,417,455.9z"/>
			</g>
		</g>
	</g>
	<g style="display:inline;">
		<g>
			<g>
				<path style="fill:#FCC000;stroke:#F4B503;stroke-width:1.1583;stroke-miterlimit:10;" d="M745.9,574.4c-2-8.4-0.8-17.3,3.4-24.9
					c2.7-5,8.7-7.8,9.8-6.6c4.3,4.3,5.3,11.1,13,11.9c1.6,0.2,0.7,7.3,0.7,8.9c0,4.3,0.4,14.6-0.7,13.8c-4.7-3.3-8.9,1.4-16.9,7.5
					C751.4,588,747.2,580,745.9,574.4z"/>
				<g>
					<path style="fill:#EF6250;" d="M769.8,565.1l-21.4-1.3c-0.1,0-0.2-0.1-0.2-0.2l0-0.2c0-0.1,0.1-0.2,0.2-0.2l21.4,1.3
						c0.1,0,0.2,0.1,0.2,0.2l0,0.2C770,565,769.9,565.1,769.8,565.1z"/>
					<path style="fill:#EF6250;" d="M769.8,566.8l-21,4.3c-0.1,0-0.2,0-0.2-0.1l0-0.2c0-0.1,0-0.2,0.1-0.2l21-4.3
						c0.1,0,0.2,0,0.2,0.1l0,0.2C769.9,566.7,769.8,566.8,769.8,566.8z"/>
					<path style="fill:#EF6250;" d="M769.9,569.2l-19.2,9.6c-0.1,0-0.2,0-0.2-0.1l-0.1-0.2c0-0.1,0-0.2,0.1-0.2l19.2-9.6
						c0.1,0,0.2,0,0.2,0.1l0.1,0.2C770.1,569.1,770,569.2,769.9,569.2z"/>
					<path style="fill:#EF6250;" d="M749.5,556.2l20.3,6.8c0.1,0,0.2,0,0.2-0.1l0.1-0.2c0-0.1,0-0.2-0.1-0.2l-20.3-6.8
						c-0.1,0-0.2,0-0.2,0.1l-0.1,0.2C749.4,556,749.4,556.1,749.5,556.2z"/>
					<path style="fill:#EF6250;" d="M752,548.6l17.9,11.8c0.1,0.1,0.2,0,0.2,0l0.1-0.2c0.1-0.1,0-0.2,0-0.2l-17.9-11.8
						c-0.1-0.1-0.2,0-0.2,0l-0.1,0.2C751.9,548.5,751.9,548.6,752,548.6z"/>
				</g>
			</g>
			<path style="fill:#FA7C65;stroke:#F05136;stroke-width:1.1583;stroke-miterlimit:10;" d="M863.1,566.9
				c1.7,22.2-15.5,38.1-42.5,38.1c-27,0-56.6-23.7-51.9-46.1c1.4-6.5,26.9-29.7,55.2-29.1C851,530.2,861.3,543.4,863.1,566.9z"/>
			<path style="fill:#FEA190;" d="M855.8,546.9c0,3.9-3.2,7.4-8.4,11c-4.2,2.6-10.4,2.9-16.8,2.9c-6.4,0-16.7-1.3-20.9-3.9
				c-4.2-2.6-5.2-6.1-5.9-10c-0.6-3.4-0.7-8.9,7.5-12.6c10.8-4.4,18.7,2,20.1,1.2c8.5-5.1,14.3-1.4,17.8,0.6
				C852.7,538,855.8,542.9,855.8,546.9z"/>
			<ellipse style="fill:#EF6250;" cx="844.2" cy="545.5" rx="10.3" ry="10"/>
			<path style="fill:#FEA190;" d="M856.7,589.3c0-6.1-10-14.2-18.6-15.8c-15-2.9-36.6,10.8-37.2,27.2c3.3,1.1,11.8,4.4,21.9,4.2
				C845.1,604.3,851.4,595.7,856.7,589.3z"/>
			<ellipse style="fill:#EF6250;" cx="817.3" cy="546.9" rx="10.3" ry="10"/>
			<g>
				<path style="fill:#9F9FA0;" d="M823.3,559.7c-0.6,0.9-1.2,3,1.5,5.8c1.7,1.7,5.9,3.9,11.1,2.9c4.2-0.8,5.7-2.7,7.2-4.7
					c1.5-2,2.2-5.6,0.1-6.2c-1.9-0.6-4.5,2.6-10.3,1.5C826.7,557.7,825,557.1,823.3,559.7z"/>
				<path style="fill:#323138;" d="M824.4,560.7c-0.6,0.7-1.1,2.3,1.3,4.5c1.5,1.4,5.3,3,9.9,2.2c3.8-0.6,5.1-2.2,6.4-3.7
					c1.4-1.6,2-4.4,0.1-4.9c-1.7-0.4-4.1,2.1-9.2,1.2C827.5,559.1,826,558.6,824.4,560.7z"/>
				<path style="fill:#F76951;" d="M839.7,565c0.6,0.7-2.5,1.8-5.6,2c-3.2,0.2-6.7-0.6-6.7-1.6c0-0.9,2.5-1.6,5.7-1.8
					C837,563.5,839,564.2,839.7,565z"/>
			</g>
			<g>
				<path style="fill:#FCC000;stroke:#F4B503;stroke-width:1.1583;stroke-miterlimit:10;" d="M786.2,565.6
					c-1.3-5.5-0.5-11.3,2.2-16.2c1.8-3.3,4.6-3.9,5.3-3.1c2.8,2.8,7,6.2,9.8,9.1c0.7,0.8,0.3,2.2,0.3,3.3c0,2.8,0.3,4.6-0.6,4.9
					c-3.7,1.5-9.4,5.3-12.8,7.3C789.5,571.5,787.1,569.3,786.2,565.6z"/>
				<g>
					<path style="fill:#EF6250;" d="M801.8,559.5l-13.8-0.8c-0.1,0-0.2-0.1-0.2-0.2l0,0c0-0.1,0.1-0.2,0.2-0.2l13.8,0.8
						c0.1,0,0.2,0.1,0.2,0.2l0,0C801.9,559.5,801.9,559.6,801.8,559.5z"/>
					<path style="fill:#EF6250;" d="M801.7,560.7l-13.6,2.8c-0.1,0-0.2,0-0.2-0.1l0,0c0-0.1,0-0.2,0.1-0.2l13.6-2.8
						c0.1,0,0.2,0,0.2,0.1l0,0C801.9,560.6,801.8,560.7,801.7,560.7z"/>
					<path style="fill:#EF6250;" d="M801.9,562.3l-12.4,6.2c-0.1,0-0.2,0-0.2-0.1l0,0c0-0.1,0-0.2,0.1-0.2l12.4-6.2
						c0.1,0,0.2,0,0.2,0.1l0,0C802,562.1,802,562.2,801.9,562.3z"/>
					<path style="fill:#EF6250;" d="M788.6,553.7l13.2,4.4c0.1,0,0.2,0,0.2-0.1l0,0c0-0.1,0-0.2-0.1-0.2l-13.2-4.4
						c-0.1,0-0.2,0-0.2,0.1l0,0C788.5,553.6,788.6,553.7,788.6,553.7z"/>
					<path style="fill:#EF6250;" d="M790.2,548.8l11.6,7.6c0.1,0.1,0.2,0,0.2,0l0,0c0.1-0.1,0-0.2,0-0.2l-11.6-7.6
						c-0.1-0.1-0.2,0-0.2,0l0,0C790.1,548.7,790.2,548.8,790.2,548.8z"/>
				</g>
			</g>
			<g>
				<path style="fill:#FCC000;stroke:#F4B503;stroke-width:1.1583;stroke-miterlimit:10;" d="M875.7,564.5
					c1.3-5.5,0.5-11.3-2.2-16.2c-1.8-3.3-4.6-3.9-5.3-3.1c-2.8,2.8-7,6.2-9.8,9.1c-0.7,0.8-0.3,2.2-0.3,3.3c0,2.8-0.3,4.6,0.6,4.9
					c3.7,1.5,9.4,5.3,12.8,7.3C872.4,570.4,874.9,568.1,875.7,564.5z"/>
				<g>
					<path style="fill:#EF6250;" d="M860.2,558.4l13.8-0.8c0.1,0,0.2-0.1,0.2-0.2l0,0c0-0.1-0.1-0.2-0.2-0.2l-13.8,0.8
						c-0.1,0-0.2,0.1-0.2,0.2l0,0C860,558.4,860.1,558.4,860.2,558.4z"/>
					<path style="fill:#EF6250;" d="M860.2,559.6l13.6,2.8c0.1,0,0.2,0,0.2-0.1l0,0c0-0.1,0-0.2-0.1-0.2l-13.6-2.8
						c-0.1,0-0.2,0-0.2,0.1l0,0C860,559.5,860.1,559.6,860.2,559.6z"/>
					<path style="fill:#EF6250;" d="M860.1,561.1l12.4,6.2c0.1,0,0.2,0,0.2-0.1l0,0c0-0.1,0-0.2-0.1-0.2l-12.4-6.2
						c-0.1,0-0.2,0-0.2,0.1l0,0C860,561,860,561.1,860.1,561.1z"/>
					<path style="fill:#EF6250;" d="M873.3,552.6l-13.2,4.4c-0.1,0-0.2,0-0.2-0.1l0,0c0-0.1,0-0.2,0.1-0.2l13.2-4.4
						c0.1,0,0.2,0,0.2,0.1l0,0C873.4,552.5,873.4,552.6,873.3,552.6z"/>
					<path style="fill:#EF6250;" d="M871.7,547.7l-11.6,7.6c-0.1,0.1-0.2,0-0.2,0l0,0c-0.1-0.1,0-0.2,0-0.2l11.6-7.6
						c0.1-0.1,0.2,0,0.2,0l0,0C871.8,547.6,871.8,547.7,871.7,547.7z"/>
				</g>
			</g>
			<g>
				<path style="fill:#F05136;" d="M800,537.8L800,537.8c1.3,0.7,1.4,2.5,0.2,3.4v0c-1.1,0.9-2.8,0.4-3.3-1l0,0
					C796.4,538.4,798.4,536.9,800,537.8z"/>
				<path style="fill:#F05136;" d="M781.4,557.3L781.4,557.3c1.3,0.7,1.4,2.5,0.2,3.4l0,0c-1.1,0.9-2.8,0.4-3.3-1l0,0
					C777.8,557.9,779.8,556.4,781.4,557.3z"/>
				<path style="fill:#F05136;" d="M792.3,576L792.3,576c1.1-1,2.8-0.6,3.3,0.8v0c0.5,1.4-0.5,2.8-1.9,2.8l0,0
					C791.8,579.6,790.9,577.2,792.3,576z"/>
				<path style="fill:#F05136;" d="M778.7,574.2L778.7,574.2c1.3-0.7,2.9,0.1,3.1,1.5l0,0c0.2,1.4-1.1,2.6-2.5,2.3h0
					C777.5,577.6,777.1,575.1,778.7,574.2z"/>
				<path style="fill:#F05136;" d="M791.4,589.7L791.4,589.7c0.6-1.3,2.4-1.6,3.4-0.5h0c1,1.1,0.6,2.8-0.8,3.3l0,0
					C792.3,593.2,790.6,591.4,791.4,589.7z"/>
				<path style="fill:#F05136;" d="M856,568.8L856,568.8c-1.5,0.1-2.6-1.3-2.1-2.7v0c0.4-1.4,2.1-1.9,3.3-1l0,0
					C858.6,566.2,857.9,568.6,856,568.8z"/>
				<path style="fill:#F05136;" d="M856.4,581.3L856.4,581.3c-1.5-0.1-2.4-1.6-1.8-2.9l0,0c0.6-1.3,2.3-1.7,3.4-0.6l0,0
					C859.3,579.1,858.2,581.4,856.4,581.3z"/>
				<path style="fill:#F05136;" d="M808.3,571.9L808.3,571.9c0.7-1.3,2.5-1.4,3.4-0.3l0,0c0.9,1.1,0.5,2.8-0.9,3.3l0,0
					C809,575.5,807.4,573.5,808.3,571.9z"/>
			</g>
			<g>
				<circle style="fill:#F7F9EF;" cx="819.3" cy="547.9" r="6.9"/>
				<path style="fill:#323138;" d="M817.9,548.4c0,1.9,1.6,3.5,3.5,3.5s3.5-1.6,3.5-3.5c0-1.9-1.6-3.5-3.5-3.5
					S817.9,546.5,817.9,548.4z"/>
				<g>
					<path style="fill:#F7F9EF;" d="M825.6,546.7c0,0.7-0.6,1.3-1.3,1.3c-0.7,0-1.3-0.6-1.3-1.3s0.6-1.3,1.3-1.3
						C825,545.4,825.6,546,825.6,546.7z"/>
					<path style="fill:#F7F9EF;" d="M819.7,550.8c0,0.5-0.4,0.9-0.9,0.9c-0.5,0-0.9-0.4-0.9-0.9s0.4-0.9,0.9-0.9
						C819.3,549.9,819.7,550.3,819.7,550.8z"/>
				</g>
			</g>
			<g>
				
					<ellipse transform="matrix(0.9427 -0.3336 0.3336 0.9427 -133.8905 312.6379)" style="fill:#F7F9EF;" cx="843.4" cy="546.2" rx="6.9" ry="6.9"/>
				<path style="fill:#323138;" d="M844.8,546.8c0,1.9-1.6,3.5-3.5,3.5c-1.9,0-3.5-1.6-3.5-3.5c0-1.9,1.6-3.5,3.5-3.5
					C843.2,543.3,844.8,544.8,844.8,546.8z"/>
				<g>
					<circle style="fill:#F7F9EF;" cx="838.4" cy="545" r="1.3"/>
					<path style="fill:#F7F9EF;" d="M843,549.1c0,0.5,0.4,0.9,0.9,0.9s0.9-0.4,0.9-0.9s-0.4-0.9-0.9-0.9S843,548.6,843,549.1z"/>
				</g>
			</g>
		</g>
		<g>
			<g>
				<circle style="opacity:0.2;fill:#FFFFFF;" cx="863.1" cy="528.3" r="5.8"/>
				<path style="opacity:0.2;fill:#FFFFFF;" d="M865.4,524.6c0.1,0.8-1.2,1.8-2.7,2.6c-1.5,0.8-3,1.5-3.6,1
					c-0.6-0.5,0.2-2.2,2.2-3.4C863.4,523.6,865.4,523.8,865.4,524.6z"/>
			</g>
			<g>
				<circle style="opacity:0.2;fill:#FFFFFF;" cx="845.8" cy="510.9" r="4.1"/>
				<path style="opacity:0.2;fill:#FFFFFF;" d="M847.4,508.3c0.1,0.6-0.8,1.2-1.9,1.9c-1,0.6-2.1,1-2.5,0.7
					c-0.5-0.3,0.1-1.6,1.6-2.4C846,507.6,847.3,507.8,847.4,508.3z"/>
			</g>
			<g>
				<circle style="opacity:0.2;fill:#FFFFFF;" cx="856.4" cy="495.2" r="2.3"/>
				<path style="opacity:0.2;fill:#FFFFFF;" d="M857.3,493.8c0,0.3-0.5,0.7-1.1,1.1c-0.6,0.3-1.2,0.6-1.5,0.4
					c-0.3-0.2,0.1-0.9,0.9-1.4C856.5,493.4,857.3,493.5,857.3,493.8z"/>
			</g>
			<g>
				<circle style="opacity:0.2;fill:#FFFFFF;" cx="862.8" cy="508.8" r="2.3"/>
				<path style="opacity:0.2;fill:#FFFFFF;" d="M863.7,507.3c0,0.3-0.5,0.7-1.1,1.1c-0.6,0.3-1.2,0.6-1.5,0.4
					c-0.3-0.2,0.1-0.9,0.9-1.4C862.9,506.9,863.6,507,863.7,507.3z"/>
			</g>
		</g>
	</g>
</g>
<g>
</g>
<g>
</g>
<g>
</g>
<g>
</g>
<g>
</g>
<g>
</g>
<g>
</g>
<g>
</g>
<g>
</g>
<g>
</g>
<g>
</g>
<g>
</g>
<g>
</g>
<g>
</g>
<g>
</g>
</svg>
