<?xml version="1.0" encoding="utf-8"?>
<!-- Generator: Adobe Illustrator 23.0.0, SVG Export Plug-In . SVG Version: 6.00 Build 0)  -->
<svg version="1.1" id="레이어_1" xmlns="http://www.w3.org/2000/svg" xmlns:xlink="http://www.w3.org/1999/xlink" x="0px"
	 y="0px" width="1170px" height="768px" viewBox="0 0 1170 768" style="enable-background:new 0 0 1170 768;" xml:space="preserve">
<rect x="0.4" transform="matrix(-1 -1.224647e-16 1.224647e-16 -1 1169.8746 765.7552)" style="fill:#BAE9F4;" width="1169.1" height="765.8"/>
<g>
	<path style="fill:#75C7F9;" d="M130.8,369.8c32.5,0,32.5,16.4,65,16.4c32.5,0,32.5-16.4,65-16.4c32.5,0,32.5,16.4,65,16.4
		c32.5,0,32.5-16.4,65-16.4c32.5,0,32.5,16.4,65,16.4c32.5,0,32.5-16.4,64.9-16.4c32.5,0,32.5,16.4,65,16.4
		c32.5,0,32.5-16.4,65-16.4c32.5,0,32.5,16.4,65,16.4c32.5,0,32.5-16.4,65-16.4c32.5,0,32.5,16.4,65,16.4c32.5,0,32.5-16.4,65-16.4
		c32.5,0,32.5,16.4,65,16.4c32.5,0,32.5-16.4,65-16.4c32.5,0,32.5,16.4,64.9,16.4c32.5,0,32.5-16.4,64.9-16.4v360.2H0.9V369.8
		c32.5,0,32.5,16.4,65,16.4C98.3,386.2,98.3,369.8,130.8,369.8z"/>
</g>
<path style="opacity:0.2;fill:#FFFFFF;" d="M1169.5,268.5C779.8,194.8,390.1,410.1,0.4,336.4c0-36.7,0-106.1,0-142.8
	c389.7,97.1,779.4-61.9,1169.1,35.2C1169.5,242,1169.5,255.3,1169.5,268.5z"/>
<path style="opacity:0.15;fill:#FFFFFF;" d="M0.4,92c372.9-49.4,779.4,122.1,1169.1,48.4c0-36.7,0-73.4,0-110.1
	C779.8,127.4,390.1-31.6,0.4,65.5C0.4,78.7,0.4,78.7,0.4,92z"/>
<g>
	<path style="fill:#64BAF7;" d="M130.5,406.2c32.5,0,32.5,16.4,65,16.4c32.5,0,32.5-16.4,65-16.4c32.5,0,32.5,16.4,65,16.4
		c32.5,0,32.5-16.4,65-16.4c32.5,0,32.5,16.4,65,16.4c32.5,0,32.5-16.4,64.9-16.4c32.5,0,32.5,16.4,65,16.4
		c32.5,0,32.5-16.4,65-16.4c32.5,0,32.5,16.4,65,16.4c32.5,0,32.5-16.4,65-16.4c32.5,0,32.5,16.4,65,16.4c32.5,0,32.5-16.4,65-16.4
		c32.5,0,32.5,16.4,65,16.4c32.5,0,32.5-16.4,65-16.4c32.5,0,32.5,16.4,64.9,16.4c32.5,0,32.5-16.4,64.9-16.4v360.2H0.6V406.2
		c32.5,0,32.5,16.4,65,16.4C98,422.6,98,406.2,130.5,406.2z"/>
</g>
<path style="fill:#5FB7ED;" d="M0.4,598.1c389.7-73.7,779.4,141.6,1169.1,67.9c0-36.7,0-106.1,0-142.8
	C779.8,620.4,390.1,461.3,0.4,558.4C0.4,571.7,0.4,584.9,0.4,598.1z"/>
<path style="fill:#F9CD53;" d="M0,768l0.4-56.8c602.4,54.5,779.4-91.1,1169.1-49.1l-0.4,105.9H0z"/>
<g>
</g>
<g>
</g>
<g>
</g>
<g>
</g>
<g>
</g>
<g>
</g>
<g>
</g>
<g>
</g>
<g>
</g>
<g>
</g>
<g>
</g>
<g>
</g>
<g>
</g>
<g>
</g>
<g>
</g>
</svg>
