<?xml version="1.0" encoding="utf-8"?>
<!-- Generator: Adobe Illustrator 23.0.0, SVG Export Plug-In . SVG Version: 6.00 Build 0)  -->
<svg version="1.1" id="레이어_1" xmlns="http://www.w3.org/2000/svg" xmlns:xlink="http://www.w3.org/1999/xlink" x="0px"
	 y="0px" width="92px" height="15px" viewBox="0 0 92 15" style="enable-background:new 0 0 92 15;" xml:space="preserve">
<g style="enable-background:new    ;">
	<path style="fill:#FFFFFF;" d="M6.6,9.6H2.1c-0.4,0-0.7-0.1-0.9-0.4S1,8.8,1,8.5C1,8.3,1,8.2,1,8c0-0.1,0.1-0.3,0.2-0.4
		s0.2-0.2,0.4-0.3c0.2-0.1,0.3-0.1,0.5-0.1h11.7c0.2,0,0.4,0,0.5,0.1s0.3,0.2,0.4,0.3C14.8,7.8,14.9,7.9,15,8c0,0.2,0,0.3,0,0.5
		c0,0.3-0.1,0.6-0.3,0.8s-0.5,0.4-0.9,0.4H9.6v1.9h-3C6.6,11.6,6.6,9.6,6.6,9.6z M13.2,0.7c0.2,0,0.4,0,0.5,0.1
		C13.9,0.9,14,1,14.1,1.1s0.2,0.2,0.2,0.4s0.1,0.3,0.1,0.4c0,0.3-0.1,0.6-0.3,0.8C14,2.9,13.6,3,13.2,3H9.6c0,0.1,0,0.2-0.1,0.3
		c0,0.1-0.1,0.2-0.1,0.3c0.2,0,0.4,0,0.7,0c0.2,0,0.4,0,0.7,0c0.5,0,1,0.1,1.4,0.2c0.4,0.1,0.8,0.3,1.2,0.5c0.4,0.2,0.7,0.6,1,0.9
		s0.5,0.9,0.6,1.4h-3c-0.3-0.5-0.7-0.9-1.2-1.1s-1-0.3-1.6-0.3c-0.2,0-0.3,0-0.5,0s-0.3,0-0.5,0.1C7.7,5.7,7.3,5.9,6.8,6.1
		S5.9,6.4,5.4,6.6C5,6.7,4.5,6.7,4,6.8c-0.5,0-1,0-1.5,0c-0.4,0-0.7-0.2-0.9-0.4s-0.3-0.6-0.3-1c0-0.3,0.1-0.5,0.4-0.7
		c0.2-0.2,0.5-0.3,0.9-0.3c0.5,0,0.9,0,1.4,0s0.9-0.1,1.2-0.2s0.7-0.2,1-0.4C6.4,3.6,6.6,3.3,6.7,3h-4C2.3,3,2,2.9,1.9,2.7
		C1.7,2.4,1.6,2.2,1.6,1.9c0-0.1,0-0.3,0.1-0.4s0.1-0.3,0.2-0.4C2,1,2.1,0.9,2.3,0.8c0.1-0.1,0.3-0.1,0.5-0.1H13.2z M3.9,14.6
		c-0.4,0-0.8,0-1-0.1c-0.3-0.1-0.5-0.2-0.7-0.4s-0.3-0.4-0.3-0.7c-0.1-0.3-0.1-0.6-0.1-1v-0.9c0-0.5,0.2-0.9,0.5-1.1
		c0.3-0.2,0.7-0.3,1.1-0.3s0.8,0.1,1.1,0.3c0.3,0.2,0.4,0.6,0.4,1.1V12c0,0.1,0,0.2,0.1,0.2c0,0,0.1,0.1,0.3,0.1h8.2
		c0.5,0,0.8,0.1,1,0.3s0.3,0.5,0.3,0.8s-0.1,0.6-0.3,0.8s-0.5,0.3-1,0.3L3.9,14.6L3.9,14.6z"/>
	<path style="fill:#FFFFFF;" d="M18.6,13.9c-0.4,0-0.8,0-1.1-0.1c-0.3-0.1-0.5-0.2-0.7-0.4s-0.3-0.4-0.3-0.7c-0.1-0.3-0.1-0.6-0.1-1
		V2.5c0-0.5,0.1-0.9,0.4-1.1C17.1,1.1,17.5,1,17.9,1s0.8,0.1,1,0.4c0.3,0.2,0.4,0.6,0.4,1.1v2.3H22V2.5c0-0.5,0.1-0.9,0.4-1.1
		S23.1,1,23.5,1s0.8,0.1,1.1,0.4C24.8,1.6,25,2,25,2.5V14h-6.4V13.9z M22,11.5V7.2h-2.7v3.9c0,0.2,0,0.3,0.1,0.3s0.2,0.1,0.3,0.1
		C19.7,11.5,22,11.5,22,11.5z M26.6,14.6V2c0-0.5,0.1-0.9,0.4-1.1s0.6-0.4,1.1-0.4c0.4,0,0.8,0.1,1,0.4c0.3,0.3,0.5,0.6,0.5,1.1
		v12.6H26.6z"/>
	<path style="fill:#FFFFFF;" d="M33.3,14.6c-0.3,0-0.6-0.1-0.8-0.2c-0.2-0.1-0.4-0.2-0.6-0.4c-0.2-0.2-0.3-0.4-0.3-0.6
		c-0.1-0.2-0.1-0.5-0.1-0.7l0,0c0-0.5,0.1-1,0.5-1.3c0.3-0.3,0.8-0.5,1.4-0.5h8v-0.3c0-0.2-0.1-0.2-0.3-0.2h-8.6
		c-0.3,0-0.5-0.1-0.6-0.3s-0.2-0.4-0.2-0.6c0-0.2,0.1-0.4,0.2-0.6c0.1-0.2,0.4-0.3,0.7-0.3h4.1V8h-4.4c-0.4,0-0.7-0.1-0.8-0.3
		S31,7.3,31,7s0.1-0.5,0.2-0.7C31.4,6.1,31.7,6,32.1,6H44c0.4,0,0.7,0.1,0.8,0.3C44.9,6.5,45,6.8,45,7c0,0.3-0.1,0.5-0.2,0.7
		S44.3,8,43.9,8h-4.4v0.7h3.2c0.6,0,1.1,0.1,1.3,0.4c0.2,0.2,0.4,0.6,0.4,1v2.3h-9.5c-0.1,0-0.2,0-0.2,0.1s-0.1,0.1-0.1,0.2
		s0,0.1,0.1,0.2c0,0.1,0.1,0.1,0.2,0.1H44c0.3,0,0.5,0.1,0.6,0.3s0.2,0.4,0.2,0.6c0,0.2-0.1,0.4-0.2,0.6c-0.1,0.2-0.3,0.3-0.6,0.3
		H33.3V14.6z M33.5,5.4c-0.4,0-0.7,0-1-0.1S32,5.1,31.9,5c-0.1-0.2-0.2-0.4-0.3-0.6c-0.1-0.3-0.1-0.6-0.1-1V2.8c0-0.4,0-0.7,0.1-1
		c0-0.3,0.1-0.5,0.3-0.6C32,1,32.2,0.9,32.5,0.9c0.3-0.1,0.6-0.1,1-0.1h8.9c0.4,0,0.7,0,1,0.1c0.3,0,0.5,0.1,0.6,0.2
		c0.1,0.2,0.2,0.4,0.3,0.6c0,0.3,0.1,0.6,0.1,1v2.6L33.5,5.4L33.5,5.4z M34.6,3.1c0,0.1,0,0.2,0,0.3s0.1,0.1,0.2,0.1h6.6V3
		c0-0.1,0-0.2,0-0.3s-0.1-0.1-0.2-0.1h-6.3c-0.1,0-0.2,0-0.2,0.1S34.7,2.8,34.6,3.1L34.6,3.1L34.6,3.1z"/>
</g>
<g style="enable-background:new    ;">
	<path style="fill:#FFFF00;" d="M53.4,9c0,0.4,0.1,0.7,0.2,0.9c0.1,0.3,0.3,0.5,0.5,0.7s0.4,0.3,0.7,0.4s0.5,0.1,0.8,0.1
		s0.7,0,0.9-0.1c0.3-0.1,0.5-0.1,0.7-0.2c0.1,0,0.2-0.1,0.4-0.2c0.1-0.1,0.3-0.1,0.4-0.1c0.3,0,0.5,0,0.7,0.1s0.4,0.3,0.6,0.5
		c0.2,0.3,0.2,0.6,0.1,0.9c-0.1,0.3-0.3,0.6-0.5,0.8c-0.4,0.3-0.9,0.6-1.5,0.7c-0.6,0.2-1.2,0.2-1.8,0.2c-0.7,0-1.3-0.1-1.9-0.3
		S52.5,13,52,12.6c-0.5-0.4-0.9-0.9-1.2-1.4c-0.3-0.6-0.4-1.3-0.4-2.1V6c0-0.8,0.1-1.5,0.4-2.1s0.7-1.1,1.2-1.4
		c0.5-0.4,1-0.6,1.7-0.8s1.3-0.3,1.9-0.3c0.7,0,1.3,0.1,1.8,0.2s0.9,0.3,1.2,0.5C58.8,2.4,59,2.6,59.1,3c0.1,0.3,0.1,0.6-0.1,1
		c-0.2,0.3-0.3,0.4-0.6,0.6c-0.3,0.1-0.5,0.1-0.8,0.1c-0.2,0-0.3-0.1-0.5-0.1s-0.3-0.1-0.4-0.2c-0.2-0.1-0.4-0.1-0.6-0.1
		c-0.2,0-0.4,0-0.8,0c-0.3,0-0.5,0-0.8,0.1S54,4.6,53.8,4.8S53.7,5,53.6,5.2c-0.1,0.3-0.2,0.6-0.2,0.9C53.4,6.1,53.4,9,53.4,9z"/>
	<path style="fill:#FFFF00;" d="M60.6,2.4c0-0.5,0.2-0.9,0.5-1.1s0.7-0.4,1.1-0.4S63,1,63.3,1.3s0.5,0.6,0.5,1.1v11.2h-3.1L60.6,2.4
		L60.6,2.4z"/>
	<path style="fill:#FFFF00;" d="M65.3,2.2c0-0.5,0.2-0.8,0.5-1.1c0.2-0.1,0.6-0.2,1-0.2s0.8,0.1,1.1,0.3c0.3,0.2,0.5,0.6,0.5,1.1
		c0,0.3,0,0.5-0.1,0.6c-0.1,0.2-0.2,0.3-0.3,0.4c-0.1,0.1-0.3,0.2-0.5,0.2s-0.4,0.1-0.6,0.1s-0.4,0-0.6-0.1s-0.4-0.1-0.5-0.2
		c-0.1-0.1-0.3-0.3-0.3-0.4C65.3,2.7,65.3,2.5,65.3,2.2z M65.3,5.8c0-0.5,0.2-0.9,0.5-1.1s0.7-0.4,1.1-0.4s0.8,0.1,1.1,0.4
		c0.3,0.2,0.5,0.6,0.5,1.1v7.8h-3.1L65.3,5.8L65.3,5.8z"/>
	<path style="fill:#FFFF00;" d="M72.9,9.7c0,0.3,0,0.6,0.1,0.8s0.2,0.4,0.3,0.5c0.1,0.1,0.3,0.2,0.5,0.2s0.3,0.1,0.5,0.1
		c0.3,0,0.5,0,0.6-0.1s0.4-0.1,0.6-0.2c0.1,0,0.2-0.1,0.3-0.2c0.1-0.1,0.3-0.1,0.4-0.1c0.2,0,0.4,0,0.6,0.1s0.4,0.2,0.5,0.4
		s0.2,0.3,0.2,0.5s0,0.4-0.1,0.5s-0.2,0.3-0.3,0.5c-0.1,0.2-0.3,0.3-0.5,0.4c-0.3,0.2-0.6,0.3-1,0.5s-0.9,0.2-1.4,0.2
		s-1.1-0.1-1.6-0.2c-0.5-0.1-1-0.4-1.5-0.7c-0.4-0.3-0.8-0.7-1.1-1.3c-0.3-0.5-0.4-1.2-0.4-2V8.3c0-0.8,0.1-1.5,0.4-2s0.6-1,1-1.3
		s0.9-0.5,1.4-0.7c0.5-0.1,1.1-0.2,1.6-0.2s1,0.1,1.4,0.2s0.7,0.3,0.9,0.4C76.8,4.9,77,5,77.1,5.1s0.2,0.3,0.3,0.5
		c0.1,0.2,0.1,0.3,0.1,0.5s-0.1,0.3-0.2,0.5C77.2,6.9,77,7,76.8,7.1s-0.4,0.1-0.7,0.1c-0.1,0-0.3-0.1-0.4-0.1S75.5,7,75.4,7
		c-0.2-0.1-0.3-0.1-0.4-0.2c-0.1,0-0.3,0-0.6,0c-0.2,0-0.3,0-0.5,0.1c-0.2,0-0.3,0.1-0.5,0.2c-0.1,0.1-0.3,0.3-0.4,0.5
		c0,0.1-0.1,0.4-0.1,0.7V9.7z"/>
	<path style="fill:#FFFF00;" d="M78.9,2.4c0-0.3,0-0.5,0.1-0.7s0.2-0.3,0.3-0.5S79.6,1,79.8,1c0.2-0.1,0.4-0.1,0.6-0.1
		c0.4,0,0.7,0.1,1,0.4s0.5,0.6,0.5,1.1v5.2l2.7-2.9c0.1-0.1,0.3-0.3,0.5-0.3c0.2-0.1,0.4-0.1,0.5-0.2s0.4,0,0.6,0s0.4,0.1,0.5,0.2
		c0.2,0.1,0.3,0.3,0.4,0.5s0.1,0.4,0.2,0.6c0,0.2,0,0.4-0.1,0.6S87,6.5,86.9,6.6l-2,1.9l3.3,5.1h-3.4l-2-3.2l-0.9,0.9v2.3h-3
		C78.9,13.6,78.9,2.4,78.9,2.4z"/>
	<path style="fill:#FFFF00;" d="M88.8,12.2c0-0.5,0.1-0.8,0.4-1.1s0.7-0.4,1.2-0.4s0.9,0.1,1.2,0.4c0.3,0.3,0.4,0.6,0.4,1.1
		s-0.1,0.8-0.4,1.1s-0.7,0.4-1.2,0.4s-0.9-0.1-1.2-0.4S88.8,12.7,88.8,12.2z M88.8,10V2.1c0-0.2,0-0.5,0.1-0.6s0.2-0.3,0.3-0.5
		c0.1-0.1,0.3-0.2,0.5-0.3s0.4-0.1,0.6-0.1s0.4,0,0.6,0.1s0.4,0.2,0.5,0.3s0.3,0.3,0.3,0.5c0.1,0.2,0.1,0.4,0.1,0.6V10H88.8z"/>
</g>
</svg>
