<?xml version="1.0" encoding="utf-8"?>
<!-- Generator: Adobe Illustrator 23.0.0, SVG Export Plug-In . SVG Version: 6.00 Build 0)  -->
<svg version="1.1" id="Capa_1" xmlns="http://www.w3.org/2000/svg" xmlns:xlink="http://www.w3.org/1999/xlink" x="0px" y="0px"
	 width="509.7px" height="244px" viewBox="0 0 509.7 244" style="enable-background:new 0 0 509.7 244;" xml:space="preserve">
<g>
	<path style="fill:#2C4BE5;" d="M437,121.9L399.9,159C304.1,254.8,136.4,281.3,0,146.7l25-24.8L0.2,97.1
		C130.1-34.6,301-14.2,399.9,84.7L437,121.9z"/>
	<path style="fill:#2C4BE5;" d="M364.3,121.8l88.1,88.1c21.1,21.1,57.3,6.2,57.3-23.7V57.4c0-29.9-36.1-44.9-57.3-23.7L364.3,121.8z
		"/>
</g>
<circle style="fill:#FFFFFF;" cx="72" cy="96.7" r="19.9"/>
<circle style="fill:#464646;" cx="72" cy="96.7" r="13"/>
<circle style="fill:#FFFFFF;" cx="77.2" cy="91.5" r="3.2"/>
<g>
	<path style="fill:#8CB7EA;" d="M253.1,184.3c-13.5-13.6-13.5-35.6,0-49.1c7.3-7.3,7.3-19.2,0-26.5c-13.6-13.6-13.6-35.7,0-49.2
		c3.1-3.1,8.2-3.1,11.3,0c3.1,3.1,3.1,8.2,0,11.3c-7.3,7.3-7.3,19.2,0,26.5c13.6,13.6,13.6,35.7,0,49.2c-7.3,7.3-7.3,19.2,0,26.5
		c3.1,3.1,3.1,8.2,0,11.3C261.3,187.4,256.2,187.4,253.1,184.3z"/>
	<path style="fill:#8CB7EA;" d="M197,184.3c-13.5-13.6-13.5-35.6,0-49.1c7.3-7.3,7.3-19.2,0-26.5c-13.6-13.6-13.6-35.7,0-49.2
		c3.1-3.1,8.2-3.1,11.3,0s3.1,8.2,0,11.3c-7.3,7.3-7.3,19.2,0,26.5c13.6,13.6,13.6,35.7,0,49.2c-7.3,7.3-7.3,19.2,0,26.5
		c3.1,3.1,3.1,8.2,0,11.3C205.2,187.4,200.1,187.4,197,184.3z"/>
	<path style="fill:#8CB7EA;" d="M140.9,184.3c-13.5-13.6-13.5-35.6,0-49.1c7.3-7.3,7.3-19.2,0-26.5c-13.6-13.6-13.6-35.7,0-49.2
		c3.1-3.1,8.2-3.1,11.3,0s3.1,8.2,0,11.3c-7.3,7.3-7.3,19.2,0,26.5c13.6,13.6,13.6,35.7,0,49.2c-7.3,7.3-7.3,19.2,0,26.5
		c3.1,3.1,3.1,8.2,0,11.3C149,187.4,144,187.4,140.9,184.3z"/>
</g>
</svg>
