<?xml version="1.0" encoding="utf-8"?>
<!-- Generator: Adobe Illustrator 23.0.0, SVG Export Plug-In . SVG Version: 6.00 Build 0)  -->
<svg version="1.1" id="레이어_1" xmlns="http://www.w3.org/2000/svg" xmlns:xlink="http://www.w3.org/1999/xlink" x="0px"
	 y="0px" width="63.3px" height="153px" viewBox="0 0 63.3 153" style="enable-background:new 0 0 63.3 153;" xml:space="preserve">
<path style="fill:#FFFFFF;" d="M15.8,101.8L0,3.3C-0.2,1.6,1.2,0,3,0h57.3c1.8,0,3.2,1.6,3,3.3l-15.8,98.5c-0.2,1.5-1.5,2.7-3,2.7
	H18.8C17.3,104.5,16,103.4,15.8,101.8z"/>
<path style="fill:#FFFFFF;" d="M11.6,127v24c0,1.1,0.9,2,2,2h36c1.1,0,2-0.9,2-2v-24c0-1.1-0.9-2-2-2h-36
	C12.5,125,11.6,125.9,11.6,127z"/>
<g>
</g>
<g>
</g>
<g>
</g>
<g>
</g>
<g>
</g>
<g>
</g>
<g>
</g>
<g>
</g>
<g>
</g>
<g>
</g>
<g>
</g>
<g>
</g>
<g>
</g>
<g>
</g>
<g>
</g>
</svg>
