<?xml version="1.0" encoding="utf-8"?>
<!-- Generator: Adobe Illustrator 23.0.0, SVG Export Plug-In . SVG Version: 6.00 Build 0)  -->
<svg version="1.1" id="레이어_1" xmlns="http://www.w3.org/2000/svg" xmlns:xlink="http://www.w3.org/1999/xlink" x="0px"
	 y="0px" width="955.8px" height="700.2px" viewBox="0 0 955.8 700.2" style="enable-background:new 0 0 955.8 700.2;"
	 xml:space="preserve">
<path style="fill:#9C4B16;" d="M291.7,362.8c0,17.3,191.9,57.8,359.6,57.8S955,375.3,955,358c0-14-142.6,11.9-310.4,11.9
	S291.7,352.1,291.7,362.8z"/>
<g>
	<g>
		<polygon style="fill:#C97E32;" points="707.2,371.7 725.5,406.7 669.7,410.6 644.6,372.8 		"/>
		
			<polygon style="fill:none;stroke:#9C4B16;stroke-width:1.4652;stroke-linecap:round;stroke-linejoin:round;stroke-miterlimit:10;" points="
			707.2,371.7 725.5,406.7 669.7,410.6 644.6,372.8 		"/>
	</g>
	<g>
		<g>
			<path style="fill:#C4C031;stroke:#BAB331;stroke-width:1.4652;stroke-miterlimit:10;" d="M813.2,415.8l8.9-73.5
				c0,0-11.4-9.4-41-9.4c-22.4,0-42.7,8.4-42.7,8.4l8.2,74.5c0,0,16.3,4.8,33.9,4.8C796.8,420.6,813.2,415.8,813.2,415.8z"/>
			<path style="fill:#E10302;" d="M746.5,415c0,3.7,15,6.6,33.5,6.6c18.5,0,33.1-2.2,33.1-5.9s-14.6-7.3-33.1-7.3
				C761.5,408.4,746.5,411.4,746.5,415z"/>
			<path style="fill:#BAB331;" d="M746.6,340.9c0,6.1,1.5,14.1,5.1,24.3c7.8,22.5,20.5,43,45.7,43c6.2,0,12.1-1.2,17.5-3.3
				l-1.6,13.2c0,0-16.3,4.8-32.7,4.8c-17.6,0-33.9-4.8-33.9-4.8l-8.2-74.5C738.4,343.7,741.5,342.4,746.6,340.9z"/>
		</g>
		<g>
			<path style="fill:#323138;stroke:#2B2B30;stroke-width:1.4652;stroke-miterlimit:10;" d="M735.8,353.7c0,0,0,0.5,0.1,1.4
				c0.1,0.9,0.2,2.3,0.6,4c0.4,1.7,1.1,3.7,2.2,6c1.1,2.2,2.6,4.6,4.5,7c1,1.2,2.1,2.3,3.2,3.5c1.2,1.1,2.5,2.3,3.8,3.4
				c2.7,2.2,5.8,4.2,9.2,5.9c0.8,0.5,1.7,0.9,2.6,1.3c0.9,0.4,1.8,0.8,2.7,1.2c1.8,0.8,3.7,1.4,5.6,2c1.9,0.6,3.9,1.1,5.9,1.5
				c2,0.4,4,0.7,6,1c2,0.2,4.1,0.3,6.1,0.3c2,0,4.1-0.1,6.1-0.3c1-0.1,2-0.3,3-0.4c1-0.2,2-0.4,3-0.7c1-0.2,1.9-0.5,2.9-0.8
				c0.9-0.3,1.9-0.7,2.8-1.1c1.8-0.8,3.6-1.6,5.2-2.7c0.8-0.5,1.6-1.1,2.3-1.6c0.7-0.6,1.5-1.2,2.1-1.8c2.7-2.5,4.6-5.4,5.9-8.3
				c1.3-2.8,2-5.6,2.3-8.1c0.1-1.2,0.3-2.4,0.3-3.4c0.1-1.1,0-2,0-2.9c0-0.9-0.1-1.6-0.2-2.3c-0.1-0.7-0.2-1.2-0.2-1.7
				c-0.2-0.9-0.2-1.4-0.2-1.4s0,0.5-0.1,1.4c-0.1,0.9-0.2,2.2-0.5,3.9c-0.3,1.7-0.7,3.7-1.4,5.8c-0.7,2.2-1.7,4.5-3.2,6.8
				c-1.5,2.3-3.4,4.5-5.8,6.4c-0.6,0.5-1.2,0.9-1.9,1.3c-0.7,0.4-1.3,0.8-2.1,1.2c-0.7,0.4-1.4,0.7-2.2,1.1
				c-0.8,0.3-1.5,0.6-2.3,0.9c-3.2,1.1-6.6,1.8-10.2,2.1c-1.8,0.2-3.6,0.2-5.4,0.2c-1.8,0-3.7-0.2-5.5-0.4c-3.7-0.4-7.3-1.1-10.9-2
				c-3.5-1-6.9-2.2-10.1-3.6c-1.6-0.7-3.1-1.5-4.6-2.2c-1.5-0.8-2.9-1.6-4.2-2.5c-2.7-1.7-5.1-3.6-7.1-5.5c-2.1-1.9-3.8-3.8-5.1-5.7
				c-1.4-1.9-2.4-3.6-3.1-5.1c-0.7-1.5-1.2-2.7-1.5-3.6C736,354.1,735.8,353.7,735.8,353.7z"/>
			<path style="fill:#BAB331;" d="M732.4,351.1c0.1,2.6,1.9,4.6,4,4.5c2.1-0.1,3.7-2.3,3.6-4.9c-0.1-2.6-1.9-4.6-4-4.5
				S732.3,348.5,732.4,351.1z"/>
			
				<ellipse transform="matrix(0.9989 -4.704432e-02 4.704432e-02 0.9989 -15.6688 39.0957)" style="fill:#BAB331;" cx="822.7" cy="352.4" rx="3.2" ry="4.7"/>
			<ellipse style="fill:#A89F2C;" cx="779.1" cy="349.4" rx="46.8" ry="10.9"/>
			<path style="fill:#BAB331;" d="M733.3,342.4c5.8,4.5,25.7,9.4,46.8,9.4c20.1,0,40.1-5.2,46.8-9.4c0.3,1.5-1,5.9-1,7
				c0.1,3.7-20.9,9.4-46.8,9.4c-25.8,0-47.2-5.7-46.8-9.4C732.4,349,733.3,342.4,733.3,342.4z"/>
			<ellipse style="fill:#BAB331;" cx="780.1" cy="342.4" rx="46.8" ry="10.9"/>
			<ellipse style="fill:#BAB331;" cx="780.2" cy="341.9" rx="41.9" ry="9"/>
			<ellipse style="fill:#57AADD;" cx="780.2" cy="344" rx="40.4" ry="6.6"/>
		</g>
	</g>
	<g>
		<g>
			<g>
				<g>
					<path style="fill:#46434C;" d="M78.8,403.1c0.4,0,0.7-0.3,0.7-0.7c0.2-12.5,7.6-23.1,14.8-33.3c8.1-11.5,16.4-23.4,15.1-38.3
						c-1.1-12.1-7.7-20.7-14.1-29c-6.6-8.6-13.5-17.5-14.3-30.5c-1.6-24.6,7.3-49.4,24.5-68c14.4-15.6,7.6-37.2,1.1-58
						c-3.8-12.2-7.5-23.7-6.8-33.7c1-16.2,15.6-28.9,27.3-39.1l1.2-1.1c13.9-12.1,9.9-29.6,6.7-43.8c-2.8-12.4-5.1-22.3,3.9-25.8
						c0.4-0.1,0.6-0.6,0.4-1c-0.1-0.4-0.6-0.6-1-0.4c-10.1,4-7.6,14.9-4.8,27.5c3.3,14.4,7,30.8-6.2,42.3l-1.2,1.1
						c-11.9,10.4-26.8,23.3-27.8,40.1c-0.6,10.3,3,21.9,6.9,34.3c6.4,20.4,13.1,41.6-0.8,56.6c-17.4,18.9-26.5,44.1-24.9,69.1
						c0.9,13.5,7.8,22.5,14.6,31.3c6.5,8.5,12.7,16.5,13.8,28.2c1.3,14.3-6.9,26-14.8,37.3c-7.3,10.5-14.9,21.3-15.1,34.2
						C78.1,402.8,78.4,403.1,78.8,403.1C78.8,403.1,78.8,403.1,78.8,403.1z"/>
				</g>
				<g>
					
						<path style="fill:#9F9FA0;stroke:#8C8C8C;stroke-width:1.4652;stroke-linecap:round;stroke-linejoin:round;stroke-miterlimit:10;" d="
						M79.1,478.7L79.1,478.7c1,0,1.8-0.8,1.8-1.8v-16.8c0-1-0.8-1.8-1.8-1.8l0,0c-1,0-1.8,0.8-1.8,1.8v16.8
						C77.3,477.9,78.1,478.7,79.1,478.7z"/>
					
						<ellipse style="fill:#E53C3C;stroke:#D63C3C;stroke-width:1.4652;stroke-miterlimit:10;" cx="79.1" cy="443.9" rx="14.9" ry="24.6"/>
					<path style="fill:#FCB322;stroke:#F9A91C;stroke-width:1.4652;stroke-miterlimit:10;" d="M79.1,417.8c8,0,14.5,10.5,14.9,23.5
						c-5.1,0.7-10.4,1-16,1c-4.7,0-9.3-0.3-13.7-0.8C64.5,428.4,71.1,417.8,79.1,417.8z"/>
					
						<path style="fill:#9F9FA0;stroke:#8C8C8C;stroke-width:1.4652;stroke-linecap:round;stroke-linejoin:round;stroke-miterlimit:10;" d="
						M79.1,420.9L79.1,420.9c1,0,1.8-0.8,1.8-1.8v-16.8c0-1-0.8-1.8-1.8-1.8l0,0c-1,0-1.8,0.8-1.8,1.8v16.8
						C77.3,420.1,78.1,420.9,79.1,420.9z"/>
				</g>
			</g>
			<g>
				<g>
					
						<path style="fill:#9F9FA0;stroke:#8C8C8C;stroke-width:1.4652;stroke-linecap:round;stroke-linejoin:round;stroke-miterlimit:10;" d="
						M138.8,0.7c190.5,46.5,350.1,173.6,439.1,341.7c4.7,1.7,9.6-0.9,10.7-5.8C495.1,166.9,330.2,42.8,138.8,0.7z"/>
					<g>
						<path style="fill:#A04D1B;" d="M433.6,147.3c63.2,53.3,115.9,116.5,156.2,189.5c-1.1,4.9-11.8,8.7-16.5,7
							c-38.3-72.3-86-131.9-145-190.7L433.6,147.3z"/>
						<path style="fill:none;stroke:#7D3310;stroke-width:1.4652;stroke-miterlimit:10;" d="M433.6,147.3
							c63.2,53.3,115.9,116.5,156.2,189.5c-1.1,4.9-11.8,8.7-16.5,7c-38.3-72.3-86-131.9-145-190.7L433.6,147.3z"/>
					</g>
				</g>
				<g>
					<path style="fill:#353438;" d="M501.1,238.7c0.1,0,0.2,0,0.4-0.1c0.4-0.2,0.5-0.6,0.3-1c-4-7.1-11.5-14.8-22.3-23
						c-1.6-1.2-6.2-4.1-11.9-7.8c-9.2-5.9-20.6-13.2-26.9-17.9c-17.1-12.9-28.4-21.8-42-37.4l-0.6-0.7c-8.4-9.6-18.9-21.6-21.6-34.1
						c-0.1-0.4-0.4-0.6-0.8-0.6c-4.4,0.5-23.7-8.9-44.9-21.9c-18.5-11.3-39.6-26.3-43.5-34.4c-0.1-0.3-0.4-0.4-0.7-0.4
						c-29.5-0.2-65-23.2-75.7-35.4c-0.2-0.2-0.4-0.3-0.7-0.2c-9.5,1.7-31.9-7.7-49.9-15.3c-7.8-3.3-15.2-6.4-20.5-8.1
						c-0.4-0.1-0.8,0.1-0.9,0.5c-0.1,0.4,0.1,0.8,0.5,0.9c5.2,1.7,12.6,4.8,20.4,8.1c18.9,7.9,40.2,16.9,50.3,15.5
						c11.1,12.5,46.4,35.3,76.1,35.6c5.6,10.6,34.9,29.1,43.8,34.6c18,11,38.8,21.9,45.2,22.1c3,12.6,13.4,24.5,21.8,34.1l0.6,0.7
						c13.7,15.7,25.1,24.6,42.2,37.6c6.4,4.8,17.8,12.1,27,18c5.5,3.5,10.3,6.6,11.8,7.8c10.7,8.1,18,15.7,21.9,22.6
						C500.6,238.5,500.9,238.7,501.1,238.7z"/>
				</g>
				<g>
					<g>
						
							<ellipse transform="matrix(0.7071 -0.7071 0.7071 0.7071 -38.0951 425.1862)" style="fill:#9F9FA0;stroke:#8C8C8C;stroke-width:1.4652;stroke-linecap:round;stroke-linejoin:round;stroke-miterlimit:10;" cx="494.2" cy="258.6" rx="25.4" ry="25.4"/>
						<g>
							<path style="fill:#323138;" d="M472.5,261.3c0.2,1.8,1.8,3,3.6,2.8c1.8-0.2,3-1.8,2.8-3.6c-0.2-1.8-1.8-3-3.6-2.8
								C473.6,257.9,472.3,259.5,472.5,261.3z"/>
							<path style="fill:#323138;" d="M488.9,240.7c0.2,1.8,1.8,3,3.6,2.8c1.8-0.2,3-1.8,2.8-3.6c-0.2-1.8-1.8-3-3.6-2.8
								C490,237.4,488.7,239,488.9,240.7z"/>
							<path style="fill:#323138;" d="M493.1,277.6c0.2,1.8,1.8,3,3.6,2.8c1.8-0.2,3-1.8,2.8-3.6c-0.2-1.8-1.8-3-3.6-2.8
								C494.2,274.2,492.9,275.8,493.1,277.6z"/>
							<path style="fill:#323138;" d="M509.5,257c0.2,1.8,1.8,3,3.6,2.8c1.8-0.2,3-1.8,2.8-3.6s-1.8-3-3.6-2.8
								C510.6,253.7,509.3,255.3,509.5,257z"/>
							<path style="fill:#323138;" d="M503.2,242.3c-1.1,1.4-0.9,3.4,0.5,4.5c1.4,1.1,3.4,0.9,4.5-0.5c1.1-1.4,0.9-3.4-0.5-4.5
								C506.4,240.6,504.3,240.9,503.2,242.3z"/>
							<path style="fill:#323138;" d="M480.2,271.3c-1.1,1.4-0.9,3.4,0.5,4.5c1.4,1.1,3.4,0.9,4.5-0.5c1.1-1.4,0.9-3.4-0.5-4.5
								C483.3,269.7,481.3,269.9,480.2,271.3z"/>
							<path style="fill:#323138;" d="M481.7,244.7c1.4,1.1,1.6,3.1,0.5,4.5c-1.1,1.4-3.1,1.6-4.5,0.5c-1.4-1.1-1.6-3.1-0.5-4.5
								C478.3,243.9,480.3,243.6,481.7,244.7z"/>
							<path style="fill:#323138;" d="M510.8,267.8c1.4,1.1,1.6,3.1,0.5,4.5c-1.1,1.4-3.1,1.6-4.5,0.5c-1.4-1.1-1.6-3.1-0.5-4.5
								C507.3,266.9,509.4,266.7,510.8,267.8z"/>
						</g>
						
							<ellipse transform="matrix(0.5092 -0.8606 0.8606 0.5092 20.0072 552.2398)" style="opacity:0.22;fill:#FFFFFF;" cx="494.2" cy="258.6" rx="13.8" ry="13.8"/>
					</g>
					<path style="fill:#323138;stroke:#2B2B30;stroke-width:1.4652;stroke-miterlimit:10;" d="M492.5,257.4c1.1-1,2.9-0.9,3.9,0.3
						l24.6,29.3l20.5-3.5c1.5-0.3,2.9,0.8,3.2,2.3c0.3,1.5-0.8,2.9-2.3,3.2l-21.8,3.7c-0.7,0.1-1.4,0-1.9-0.4
						c-0.4-0.2-10.4-11.4-10.7-11.8l-15.8-19.1C491.2,260.2,491.3,258.4,492.5,257.4z"/>
				</g>
				<g>
					<g>
						<path style="fill:#323138;" d="M370,117.4c-0.4-3.1,1.9-6,5-6.3c3.1-0.4,6,1.9,6.3,5s-1.9,6-5,6.3
							C373.2,122.8,370.3,120.5,370,117.4z M372.2,117.2c0.2,1.9,2,3.3,3.9,3.1c1.9-0.2,3.3-2,3.1-3.9c-0.2-1.9-2-3.3-3.9-3.1
							C373.3,113.5,371.9,115.3,372.2,117.2z"/>
					</g>
					<g>
						<path style="fill:#323138;" d="M280.8,60.7c-0.4-3.1,1.9-6,5-6.3c3.1-0.4,6,1.9,6.3,5c0.4,3.1-1.9,6-5,6.3
							C284,66.1,281.2,63.9,280.8,60.7z M283,60.5c0.2,1.9,2,3.3,3.9,3.1c1.9-0.2,3.3-2,3.1-3.9c-0.2-1.9-2-3.3-3.9-3.1
							C284.2,56.8,282.8,58.6,283,60.5z"/>
					</g>
					<g>
						<path style="fill:#323138;" d="M207,24.8c-0.2-1.8,1.1-3.5,2.9-3.7c1.8-0.2,3.5,1.1,3.7,2.9c0.2,1.8-1.1,3.5-2.9,3.7
							C208.8,27.9,207.2,26.6,207,24.8z M208.3,24.6c0.1,1.1,1.1,1.9,2.3,1.8c1.1-0.1,1.9-1.1,1.8-2.3s-1.1-1.9-2.3-1.8
							C208.9,22.5,208.1,23.5,208.3,24.6z"/>
					</g>
					<g>
						<path style="fill:#323138;" d="M473.1,213.9c-0.4-3.1,1.9-6,5-6.3c3.1-0.4,6,1.9,6.3,5c0.4,3.1-1.9,6-5,6.3
							C476.3,219.2,473.5,217,473.1,213.9z M475.3,213.6c0.2,1.9,2,3.3,3.9,3.1c1.9-0.2,3.3-2,3.1-3.9c-0.2-1.9-2-3.3-3.9-3.1
							C476.5,210,475.1,211.7,475.3,213.6z"/>
					</g>
				</g>
			</g>
		</g>
		<g>
			<path style="fill:#896DB5;stroke:#7A63A5;stroke-width:1.2008;stroke-miterlimit:10;" d="M566.6,346.7c3.8-1.5,8.3-2.3,12.3-2.9
				c58.9-8.3,124.9,19,124.9,19s2,19.7-8.4,34.3c-3.4,4.7-21.6,8.5-38.1,5L595.7,378l-2.2,9.1l-32.5,0.8c0,0-3.8-28.4-3.8-28.4
				C556.4,352.9,560.8,349,566.6,346.7z"/>
			<g>
				
					<polygon style="fill:#9F9FA0;stroke:#8C8C8C;stroke-width:1.2008;stroke-linecap:round;stroke-linejoin:round;stroke-miterlimit:10;" points="
					564.3,428.8 588.9,428.8 593,388.6 558.6,388.6 				"/>
				
					<rect x="555.9" y="387.8" transform="matrix(-1 -1.224647e-16 1.224647e-16 -1 1150.9457 782.4098)" style="fill:#9F9FA0;stroke:#8C8C8C;stroke-width:1.2008;stroke-linecap:round;stroke-linejoin:round;stroke-miterlimit:10;" width="39.2" height="6.8"/>
			</g>
			<path style="fill:#896DB5;stroke:#7A63A5;stroke-width:1.2008;stroke-miterlimit:10;" d="M575.4,349.8c4.4-1.8,9.8-2.2,14.2-2.7
				c3.7-0.5,7.5-0.6,11.3-0.6c8.3,0,16.5,0.9,24.7,2.2c16.4,2.6,32.4,7,48,12c9.4,3,18.8,6.4,27.9,10.1c0.2,0.1,1.2,0.4,1.3,0.5
				c0,0,4.8,12.4-5.6,26.9c-3.4,4.7-13,9.1-29.6,5.6L606,379.5l-2.2,9.1l-32.5,0.8c0,0-3.9-26-3.9-26
				C566.5,358,569.1,352.3,575.4,349.8z"/>
			<g>
				
					<polygon style="fill:#9F9FA0;stroke:#8C8C8C;stroke-width:1.2008;stroke-linecap:round;stroke-linejoin:round;stroke-miterlimit:10;" points="
					576.8,428.9 601.5,428.9 605.6,388.7 571.2,388.7 				"/>
				
					<rect x="568.5" y="387.9" transform="matrix(-1 -1.224647e-16 1.224647e-16 -1 1176.1107 782.6428)" style="fill:#9F9FA0;stroke:#8C8C8C;stroke-width:1.2008;stroke-linecap:round;stroke-linejoin:round;stroke-miterlimit:10;" width="39.2" height="6.8"/>
			</g>
		</g>
		<g>
			<path style="fill:#FCBC98;stroke:#EFAE8E;stroke-width:0.7326;stroke-miterlimit:10;" d="M659.7,266.6h9.6c4.2,0,7.7-3.5,7.7-7.7
				v-30.5c0-1.6-1.3-2.9-2.9-2.9h-14.4c-4.2,0-7.7,3.5-7.7,7.7v25.7C652,263.1,655.4,266.6,659.7,266.6z"/>
			<g>
				<path style="fill:#BAB331;" d="M627.1,168.8c3-3.9,23.6,8.2,41,22c17.4,13.8,31.1,34.2,26.9,39.5c-4.2,5.3-24.8-6.5-42.2-20.3
					C635.5,196.2,623,174.1,627.1,168.8z"/>
				<path style="fill:none;stroke:#AAA130;stroke-width:0.7326;stroke-miterlimit:10;" d="M627.1,168.8c3-3.9,23.6,8.2,41,22
					c17.4,13.8,31.1,34.2,26.9,39.5c-4.2,5.3-24.8-6.5-42.2-20.3C635.5,196.2,623,174.1,627.1,168.8z"/>
			</g>
			<path style="fill:#FCBC98;stroke:#EFAE8E;stroke-width:0.7326;stroke-miterlimit:10;" d="M632.7,198.8
				c7-13.7,21.8-21.1,34.5-16.7c13.7,4.8,22.2,21.8,16,37.6c-6.2,15.8-28.2,23.9-41.9,19.1c-10.7-3.7-13.3-14.2-12.4-26.4
				c-1.9,0.2-3.5-2.3-4.6-3.6C622.7,207,629.6,204,632.7,198.8z"/>
			<g>
				<path style="fill:#323138;stroke:#2B2B30;stroke-width:1.4652;stroke-miterlimit:10;" d="M649.1,182.4
					c1.2,5.4,2.1,14.2,14.9,20.7c12.9,6.5,6,29.5,11.5,28.5c25.9-4.6,22.6-39.9-2.8-49.9C664,178.3,645.8,167.3,649.1,182.4z"/>
			</g>
			<g>
				<path style="fill:#323138;" d="M646.7,199.3c0,0.8,1.8,0.9,3.3,2c1.6,1,2.2,2.7,2.7,2.6c0.5,0,0.8-2.8-1.3-4.6
					C649.2,197.5,646.6,198.5,646.7,199.3z"/>
			</g>
			<g>
				<path style="fill:#323138;" d="M649.9,208.5c0,2.5-2,4.6-4.6,4.6c-2.5,0-4.6-2-4.6-4.6c0-2.5,2-4.6,4.6-4.6
					C647.9,203.9,649.9,206,649.9,208.5z"/>
				<g>
					<path style="fill:#FFFFFF;" d="M642.4,206.8c0,0.6,0.5,1.1,1.1,1.1c0.6,0,1.1-0.5,1.1-1.1c0-0.6-0.5-1.1-1.1-1.1
						C642.9,205.7,642.4,206.2,642.4,206.8z"/>
					<path style="fill:#FFFFFF;" d="M641.8,209.2c0,0.3,0.3,0.6,0.6,0.6s0.6-0.3,0.6-0.6c0-0.3-0.3-0.6-0.6-0.6
						S641.8,208.8,641.8,209.2z"/>
				</g>
			</g>
			<g style="opacity:0.22;">
				<ellipse style="fill:#EF7D7D;" cx="652.7" cy="219.6" rx="6.3" ry="4.2"/>
			</g>
			<path style="fill:#323138;stroke:#2B2B30;stroke-width:1.4652;stroke-miterlimit:10;" d="M648.7,174.5c-2,1.1-3.9,2.5-6.1,3.5
				c-2.9,1.3-6.2,1.6-9.2,2.8c-0.7,0.3-1.4,0.6-1.9,1.2c-0.5,0.6-0.8,1.4-0.5,2.1c0.2,0.6,0.7,0.9,1.2,1.2c1.4,0.8,3,1.1,4.6,0.9
				c-1.2,0.9-1.5,2.8-0.7,4.2c0.7,1.4,2.3,2.2,3.8,2.2c1.5,0,3-0.6,4.2-1.6c0.7,1.3,2.4,2.1,3.9,1.7c0.9-0.2,1.6-0.8,2.3-1.4
				c2-1.8,3.7-4,5-6.4c1-1.9,1.7-3.9,1.8-6c0.1-1.7-0.3-4.9-2-5.9C653.4,171.8,650.2,173.6,648.7,174.5z"/>
			
				<path style="fill:#FFFFFF;stroke:#EFAE8E;stroke-width:0.7326;stroke-linecap:round;stroke-linejoin:round;stroke-miterlimit:10;" d="
				M628.7,218.6c3.5,0.8,8.1-0.6,8.7,0.2c0.7,0.7-2.8,6.5-8,5.7C629.7,224.4,628.7,220.3,628.7,218.6z"/>
			<path style="fill:#FCBC98;" d="M663.7,218.9c0,3.3,2.7,6.1,6.1,6.1c3.9,0,7.5-4,8.3-7.6c0.9-3.8-1.6-7.5-6.4-8.2
				C667.2,208.5,663.7,215,663.7,218.9z"/>
			<g>
				<path style="fill:#C4C031;stroke:#BAB331;stroke-width:1.4652;stroke-miterlimit:10;" d="M695.1,172.9
					c4.5,3.9,11.8,16.6,11.3,22.1c-0.4,4.7-5.3,11.5-7,14.9c-6.4-1.3-16.6-13.3-23.6-19.7c-8.6-8-15.8-15.3-18.7-22.3
					c3.1-2.3,11.7-4.7,16.5-7C677.9,158.7,690.6,169,695.1,172.9z"/>
				<path style="fill:#C4C031;stroke:#BAB331;stroke-width:1.4652;stroke-miterlimit:10;" d="M664.2,191.7
					c-15.5-15.9-28.1-22.6-35.6-24.2c0,0,4.9-1.3,11.5-1.4c11.9-0.2,17.7,1.3,17.7,1.3c1.1,5.2,31.5,34.9,41.6,42.5
					c0,0,2.4,19-4.5,20.4C694.9,230.3,690.3,218.6,664.2,191.7z"/>
				<path style="fill:#896DB5;stroke:#7A63A5;stroke-width:1.4652;stroke-miterlimit:10;" d="M664.8,164.3c5,10.3,32.4,36.2,38.8,39
					c-1.4,2.6-3.3,6.2-4.1,7.8c-8.6-4-37.7-33-44-44.1C656.9,165.9,662.1,165.4,664.8,164.3z"/>
				<path style="fill:#BAB331;" d="M676.5,161.2c5.2,0.4,15.5,9.5,19.5,13c4,3.6,9.9,14.7,10.5,20.7c-4.4-1.4-11.1-6.4-17.7-13.4
					C681.3,173.5,676.4,165.3,676.5,161.2z"/>
			</g>
			<path style="fill:#EFAE8E;" d="M668.4,217.7c0,1.2,1,2.2,2.3,2.2c1.5,0,2.8-1.5,3.1-2.8c0.3-1.4-1-2.9-2.4-3
				C669.7,214.1,668.4,216.3,668.4,217.7z"/>
			<g>
				<path style="fill:#EFAE8E;" d="M671.8,225.3c0,0,0.1,0,0.1,0c3.1-0.9,5.4-4.4,6.1-9.2c0.4-2.5-0.6-5-2.5-6.5
					c-1.8-1.4-4.1-1.5-6.5-0.4c-0.2,0.1-0.3,0.3-0.2,0.5c0.1,0.2,0.3,0.3,0.5,0.2c2.1-1,4.2-0.8,5.7,0.3c1.6,1.2,2.5,3.6,2.2,5.8
					c-0.7,4.5-2.8,7.8-5.6,8.6c-0.2,0.1-0.3,0.3-0.3,0.5C671.5,225.2,671.6,225.3,671.8,225.3z"/>
			</g>
		</g>
		<g>
			<g>
				<g>
					<path style="fill:#FCBC98;stroke:#EFAE8E;stroke-width:0.7079;stroke-miterlimit:10;" d="M537.8,293.1
						c-6.1,7.7-0.7,22.3,11.7,23.7c6,0.7,12.2-2.9,14.1-10.3c1.9-7.4,2.5-12.8-7.1-16.6C550.7,287.6,542.5,287.2,537.8,293.1z"/>
					<path style="fill:#FCBC98;stroke:#EFAE8E;stroke-width:0.7079;stroke-miterlimit:10;" d="M548.9,282.9
						c-0.3,2.1,3.8,5.6,7.3,6.5c6.8,1.7,8.7,8.1,10.1,6.5c3.2-3.9-1.6-11-7.3-13.6C553.2,279.7,549.2,280.5,548.9,282.9z"/>
				</g>
				<path style="fill:#FCB322;stroke:#F9A91C;stroke-width:1.4157;stroke-miterlimit:10;" d="M568.9,291.2l57.3,20.5l14.9-47.8
					c2.9-9.4,12.4-14.4,21.1-11.3c8.7,3.1,13.5,13.3,10.6,22.6l-20.3,65.2l-0.1-0.1l-0.1,0.3c-1.9,6.2-8.3,9.6-14.1,7.5l-78.3-28
					L568.9,291.2z"/>
			</g>
			<path style="fill:#FCC000;stroke:#F4B503;stroke-width:1.3267;stroke-miterlimit:10;" d="M667.3,247.9
				c22.7,0,41.2,31.9,41.2,71.2c0,13.6-0.5,46.5-4.4,57.4c-8-2.3-22.9-5.1-34.7-7.9c-17.8-4.2-35.3-9.4-45.2-16.3
				c-1.5-6.1,2-19.6,2-33.2C626.1,279.8,644.5,247.9,667.3,247.9z"/>
			<path style="fill:#FCB322;stroke:#F9A91C;stroke-width:1.3267;stroke-miterlimit:10;" d="M651.6,253.1c0,4.6,17.5,11.6,37.6,16.5
				c19.3,4.8,35.6-1.7,35.6-10.9c0-9.1,6.2-33.6-13.6-27.8C689.4,237.3,651.6,244,651.6,253.1z"/>
			<path style="fill:#FCB322;stroke:#F9A91C;stroke-width:1.3267;stroke-miterlimit:10;" d="M576.3,301.8l57.3,18l14.9-42
				c2.9-8.2,12.4-12.7,21.1-9.9c8.7,2.7,13.5,11.6,10.6,19.9L659.8,345l-0.1,0l-0.1,0.2c-1.9,5.5-8.3,8.4-14.1,6.6l-78.3-24.6
				L576.3,301.8z"/>
			<g>
				<path style="fill:#FCBC98;stroke:#EFAE8E;stroke-width:0.7326;stroke-miterlimit:10;" d="M532.3,293
					c-6.6,7.7-0.7,22.3,12.5,23.7c6.5,0.7,13-2.9,15.1-10.3c2.1-7.4,2.7-12.8-7.6-16.6C546.2,287.6,537.3,287.2,532.3,293z"/>
				<path style="fill:#FCBC98;stroke:#EFAE8E;stroke-width:0.7326;stroke-miterlimit:10;" d="M544.2,282.9c-0.3,2.1,4.1,5.6,7.8,6.5
					c7.3,1.7,9.4,8.1,10.8,6.5c3.4-3.9-1.7-11-7.8-13.6C548.8,279.7,544.5,280.5,544.2,282.9z"/>
			</g>
		</g>
	</g>
	<g>
		<g>
			<path style="fill:#C97E32;" d="M725.5,406.4c59.7-4.3,107.2-9.9,144.6-17.7c37.5-7.8,65-17.8,84.9-30.7
				c-2.9,43-35.2,112.5-68.5,133.4c-43.9,15.3-427.2,14.5-486.6-6.1c-34.1-20.5-87.8-82.9-108.2-122.6
				c44.7,17.5,101.6,34.9,173.1,42.3C536.4,412.6,622.5,413.8,725.5,406.4z"/>
			<path style="fill:none;stroke:#9C4B16;stroke-width:1.4652;stroke-miterlimit:10;" d="M725.5,406.4
				c59.7-4.3,107.2-9.9,144.6-17.7c37.5-7.8,65-17.8,84.9-30.7c-2.9,43-35.2,112.5-68.5,133.4c-43.9,15.3-427.2,14.5-486.6-6.1
				c-34.1-20.5-87.8-82.9-108.2-122.6c44.7,17.5,101.6,34.9,173.1,42.3C536.4,412.6,622.5,413.8,725.5,406.4z"/>
		</g>
		<path style="fill:#9C4B16;" d="M379.3,467.7c62.1,19.7,447.9,22,524.7,8.9c-5.6,6.1-11.3,11.2-17.1,14.9
			c-43.9,15.3-425.1,31.1-484.4,10.5c-8.9-5.4-21.4-30-32.1-39.5C373.5,464.4,376.5,466.2,379.3,467.7z"/>
	</g>
	<g>
		<g>
			<path style="fill:#46434C;" d="M33.2,700.2c2.5,0,5-0.4,7.6-1.1c10.1-3,19.7-12,24.4-22.9c5.1-11.7,7.8-27.4,8.8-38.2
				c1.5-17.5,4-69.5,6-158.3c0-0.4-0.3-0.7-0.7-0.7c0,0,0,0,0,0c-0.4,0-0.7,0.3-0.7,0.7c-2,88.8-4.5,140.7-6,158.2
				c-0.9,10.7-3.7,26.2-8.7,37.8c-4.5,10.5-13.8,19.2-23.5,22c-7.2,2.1-14.4,1-20.7-3.2c-9.1-6.1-12.2-19.8-12-30.6
				c0-0.4-0.3-0.7-0.7-0.7c-0.4,0-0.7,0.3-0.7,0.7c-0.1,5.4,0.6,23.8,12.6,31.9C23.3,698.7,28.2,700.2,33.2,700.2z"/>
		</g>
		<polygon style="fill:#FCB322;stroke:#F9A91C;stroke-width:1.4652;stroke-miterlimit:10;" points="6.8,658.2 4.2,663.3 1.6,668.5 
			6.8,666 12,668.5 9.4,663.3 		"/>
	</g>
</g>
<g>
	
		<path style="fill:#9F9FA0;stroke:#8C8C8C;stroke-width:1.4652;stroke-linecap:round;stroke-linejoin:round;stroke-miterlimit:10;" d="
		M370.7,412.9v1.5c0,1.5,1.2,2.7,2.7,2.7h7.8v-7h-7.8C371.9,410.2,370.7,411.4,370.7,412.9z M376,413.7c0,1.1-0.9,2-2,2s-2-0.9-2-2
		c0-1.1,0.9-2,2-2S376,412.6,376,413.7z"/>
	
		<path style="fill:#9F9FA0;stroke:#8C8C8C;stroke-width:1.4652;stroke-linecap:round;stroke-linejoin:round;stroke-miterlimit:10;" d="
		M503.5,410.2h-7.8v7h7.8c1.5,0,2.7-1.2,2.7-2.7v-1.5C506.2,411.4,505,410.2,503.5,410.2z M503,411.7c1.1,0,2,0.9,2,2
		c0,1.1-0.9,2-2,2c-1.1,0-2-0.9-2-2C501,412.6,501.9,411.7,503,411.7z"/>
	
		<path style="fill:#9F9FA0;stroke:#8C8C8C;stroke-width:1.4652;stroke-linecap:round;stroke-linejoin:round;stroke-miterlimit:10;" d="
		M434.2,347.8v7.8h7v-7.8c0-1.5-1.2-2.7-2.7-2.7h-1.5C435.4,345.1,434.2,346.3,434.2,347.8z M435.7,348.3c0-1.1,0.9-2,2-2
		c1.1,0,2,0.9,2,2c0,1.1-0.9,2-2,2C436.6,350.4,435.7,349.5,435.7,348.3z"/>
	
		<path style="fill:#9F9FA0;stroke:#8C8C8C;stroke-width:1.4652;stroke-linecap:round;stroke-linejoin:round;stroke-miterlimit:10;" d="
		M436.9,480.6h1.5c1.5,0,2.7-1.2,2.7-2.7v-7.8h-7v7.8C434.2,479.4,435.4,480.6,436.9,480.6z M437.7,475.3c1.1,0,2,0.9,2,2
		s-0.9,2-2,2c-1.1,0-2-0.9-2-2S436.6,475.3,437.7,475.3z"/>
	<g>
		<g>
			<path style="fill:#E53C3C;stroke:#D63C3C;stroke-width:1.4652;stroke-miterlimit:10;" d="M378.9,412.9
				c0,32.9,26.7,59.6,59.6,59.6c32.9,0,59.6-26.7,59.6-59.6c0-32.9-26.7-59.6-59.6-59.6C405.6,353.3,378.9,379.9,378.9,412.9z
				 M401.6,412.9c0-20.4,16.5-36.9,36.9-36.9c20.4,0,36.9,16.5,36.9,36.9c0,20.4-16.5,36.9-36.9,36.9
				C418.1,449.7,401.6,433.2,401.6,412.9z"/>
		</g>
		<g>
			<path style="fill:#FFFFFF;stroke:#EEEBF7;stroke-width:1.4652;stroke-miterlimit:10;" d="M379.3,405.6h23
				c-0.5,2.3-0.7,4.8-0.7,7.2c0,3.1,0.4,6,1.1,8.9h-23.1c-0.4-2.9-0.7-5.9-0.7-8.9C378.9,410.4,379,408,379.3,405.6z"/>
		</g>
		<g>
			<path style="fill:#FFFFFF;stroke:#EEEBF7;stroke-width:1.4652;stroke-miterlimit:10;" d="M438.5,449.7c2.4,0,4.8-0.2,7.1-0.7v23
				c-2.3,0.3-4.7,0.4-7.1,0.4c-3.1,0-6.1-0.2-9-0.7v-23.1C432.4,449.4,435.4,449.7,438.5,449.7z"/>
		</g>
		<g>
			<path style="fill:#FFFFFF;stroke:#EEEBF7;stroke-width:1.4652;stroke-miterlimit:10;" d="M438.5,376c-3.1,0-6.1,0.4-9,1.1v-23.1
				c2.9-0.4,5.9-0.7,9-0.7c2.4,0,4.8,0.1,7.1,0.4v23C443.3,376.2,440.9,376,438.5,376z"/>
		</g>
		<g>
			<path style="fill:#FFFFFF;stroke:#EEEBF7;stroke-width:1.4652;stroke-miterlimit:10;" d="M475.4,412.9c0-2.5-0.2-4.9-0.7-7.2h23
				c0.3,2.4,0.4,4.8,0.4,7.2c0,3-0.2,6-0.7,8.9h-23.1C475,418.9,475.4,415.9,475.4,412.9z"/>
		</g>
	</g>
	<g>
		<path style="fill:#D63C3C;" d="M429.5,448.6C429.5,448.6,429.5,448.6,429.5,448.6l0,10.4c-18.8-3.6-33.6-18.5-37.2-37.3h10.4
			C405.9,434.9,416.3,445.3,429.5,448.6z"/>
		<path style="fill:#D63C3C;" d="M474.3,421.7C474.3,421.7,474.3,421.7,474.3,421.7l10.4,0c-3.7,19.4-19.4,34.6-39.1,37.6v-10.3
			C459.7,446.3,470.9,435.6,474.3,421.7z"/>
		<path style="fill:#D63C3C;" d="M402.3,405.6C402.3,405.6,402.3,405.6,402.3,405.6l-10.3,0c3-19.6,18.1-35.2,37.5-38.9v10.4
			C415.7,380.5,405.1,391.6,402.3,405.6z"/>
		<path style="fill:#D63C3C;" d="M474.6,405.6c-2.9-14.6-14.4-26.1-29.1-29l0,0l0-10.3c20.2,3.1,36.2,19,39.4,39.3L474.6,405.6
			C474.6,405.6,474.6,405.6,474.6,405.6z"/>
		<path style="fill:#EEEBF7;stroke:#EEEBF7;stroke-width:1.4652;stroke-miterlimit:10;" d="M390.9,405.6h11.3l0,0
			c-0.2,0.9-0.4,1.8-0.5,2.7c0,0,0,0,0,0c0,0.3-0.1,0.6-0.1,0.9c0,0,0,0.1,0,0.1c0,0.3-0.1,0.5-0.1,0.8c0,0.1,0,0.1,0,0.2
			c0,0.2,0,0.5,0,0.7c0,0.1,0,0.3,0,0.4c0,0.2,0,0.3,0,0.5c0,0.3,0,0.6,0,0.9c0,0.4,0,0.7,0,1.1c0,0.1,0,0.2,0,0.3
			c0,0.3,0,0.5,0,0.8c0,0.1,0,0.2,0,0.3c0,0.3,0,0.5,0.1,0.8c0,0.1,0,0.2,0,0.3c0,0.3,0.1,0.6,0.1,0.9c0,0,0,0.1,0,0.1
			c0.1,1.1,0.4,2.2,0.6,3.3c0,0,0,0,0,0c0.1,0.4,0.2,0.7,0.3,1.1h-11.4c-0.6-2.9-0.9-5.8-0.9-8.9C390.3,410.4,390.5,408,390.9,405.6
			z"/>
		<path style="fill:#EEEBF7;stroke:#EEEBF7;stroke-width:1.4652;stroke-miterlimit:10;" d="M429.5,448.6c0.3,0.1,0.7,0.2,1,0.2
			c0,0,0.1,0,0.1,0c0.3,0.1,0.6,0.1,1,0.2c0,0,0.1,0,0.1,0c0.7,0.1,1.4,0.2,2.2,0.3c0,0,0,0,0.1,0c0.3,0,0.7,0.1,1,0.1
			c0.1,0,0.2,0,0.3,0c0.3,0,0.5,0,0.8,0.1c0.1,0,0.2,0,0.3,0c0.3,0,0.5,0,0.8,0c0.1,0,0.2,0,0.3,0c0.4,0,0.7,0,1.1,0
			c0.3,0,0.6,0,0.9,0c0.2,0,0.3,0,0.5,0c0.1,0,0.3,0,0.4,0c0.2,0,0.4,0,0.6,0c0.1,0,0.2,0,0.3,0c0.2,0,0.5,0,0.7-0.1
			c0,0,0.1,0,0.1,0c0.3,0,0.5-0.1,0.8-0.1c0,0,0,0,0.1,0c0.3,0,0.6-0.1,0.8-0.1c0,0,0,0,0,0c0.6-0.1,1.2-0.2,1.7-0.3v10.3
			c-2.3,0.4-4.7,0.5-7.1,0.5c-3.1,0-6.1-0.3-9-0.9L429.5,448.6C429.5,448.6,429.5,448.6,429.5,448.6z"/>
		<path style="fill:#EEEBF7;stroke:#EEEBF7;stroke-width:1.4652;stroke-miterlimit:10;" d="M445.6,376.7c-0.6-0.1-1.2-0.2-1.7-0.3
			c0,0,0,0,0,0c-0.3,0-0.6-0.1-0.8-0.1c0,0,0,0-0.1,0c-0.3,0-0.5-0.1-0.8-0.1c0,0-0.1,0-0.1,0c-0.2,0-0.5,0-0.7-0.1
			c-0.1,0-0.2,0-0.3,0c-0.2,0-0.4,0-0.6,0c-0.1,0-0.3,0-0.4,0c-0.2,0-0.3,0-0.5,0c-0.3,0-0.6,0-0.9,0c-0.4,0-0.7,0-1.1,0
			c-0.1,0-0.2,0-0.3,0c-0.3,0-0.5,0-0.8,0c-0.1,0-0.2,0-0.3,0c-0.3,0-0.5,0-0.8,0.1c-0.1,0-0.2,0-0.3,0c-0.3,0-0.7,0.1-1,0.1
			c0,0,0,0-0.1,0c-0.7,0.1-1.5,0.2-2.2,0.3c0,0-0.1,0-0.1,0c-0.3,0.1-0.6,0.1-1,0.2c0,0-0.1,0-0.1,0c-0.3,0.1-0.7,0.2-1,0.2v-10.4
			c2.9-0.6,5.9-0.9,9-0.9c2.4,0,4.8,0.2,7.1,0.5L445.6,376.7L445.6,376.7z"/>
		<path style="fill:#EEEBF7;stroke:#EEEBF7;stroke-width:1.4652;stroke-miterlimit:10;" d="M474.3,421.7c0.1-0.3,0.2-0.7,0.2-1.1
			c0,0,0,0,0,0c0.2-1.1,0.4-2.1,0.5-3.2c0,0,0-0.1,0-0.1c0-0.3,0.1-0.6,0.1-0.9c0-0.1,0-0.2,0-0.3c0-0.3,0-0.5,0.1-0.8
			c0-0.1,0-0.2,0-0.3c0-0.3,0-0.5,0-0.8c0-0.1,0-0.2,0-0.3c0-0.4,0-0.7,0-1.1c0-0.3,0-0.6,0-0.9c0-0.2,0-0.3,0-0.5
			c0-0.1,0-0.3,0-0.4c0-0.2,0-0.5,0-0.7c0-0.1,0-0.1,0-0.2c0-0.3,0-0.5-0.1-0.8c0,0,0-0.1,0-0.1c0-0.3-0.1-0.6-0.1-0.9c0,0,0,0,0,0
			c-0.1-0.9-0.3-1.8-0.4-2.7c0,0,0,0,0,0h10.3c0.4,2.4,0.6,4.8,0.6,7.2c0,3-0.3,6-0.8,8.9L474.3,421.7
			C474.3,421.7,474.3,421.7,474.3,421.7z"/>
	</g>
	<g>
		<path style="fill:#323138;" d="M503,413.5c0.4,0,0.7-0.3,0.7-0.7c0-11.2-9-12.3-18.6-13.6c-8.6-1.1-18.4-2.4-23.9-10.9
			c-2.9-4.6-3.3-10.7-3.6-16.7c-0.7-11.4-1.3-23.3-19.9-24.6c-0.4,0-0.7,0.2-0.7,0.6c0,0.4,0.2,0.7,0.6,0.7
			c17.4,1.3,18,12,18.7,23.4c0.4,6.1,0.7,12.4,3.8,17.3c5.8,9.1,15.9,10.4,24.8,11.5c9.7,1.3,17.4,2.3,17.4,12.3
			C502.3,413.2,502.6,413.5,503,413.5z"/>
	</g>
	<g>
		<path style="fill:#323138;" d="M374,413.5c0.3,0,0.6-0.3,0.7-0.6c1.8-17.6,12.4-18.4,23.6-19.3c5.8-0.4,11.8-0.9,16.6-3.7
			c9.3-5.6,10.5-15.7,11.5-24.7c1.1-9.6,1.9-17.1,11.8-16.8c0.4,0,0.7-0.3,0.7-0.6c0-0.4-0.3-0.7-0.6-0.7
			c-11.1-0.3-12.1,8.6-13.2,18c-1,8.7-2.1,18.5-10.8,23.7c-4.5,2.7-10.3,3.1-16,3.6c-11.2,0.8-22.8,1.7-24.8,20.4
			C373.3,413.1,373.5,413.5,374,413.5C373.9,413.5,373.9,413.5,374,413.5z"/>
	</g>
	<g>
		<path style="fill:#323138;" d="M437.7,478.8C437.7,478.8,437.7,478.8,437.7,478.8c18.6-1.4,19.3-13.2,19.9-24.6
			c0.3-5.9,0.7-12.1,3.6-16.7c5.5-8.6,15.3-9.7,23.9-10.7c9.5-1.1,18.5-2.1,18.5-13.2c0-0.4-0.3-0.7-0.7-0.7s-0.7,0.3-0.7,0.7
			c0,10-7.6,10.8-17.3,11.9c-8.9,1-19.1,2.2-24.9,11.3c-3.1,4.8-3.5,11.2-3.8,17.3c-0.7,11.4-1.3,22.1-18.7,23.4
			c-0.4,0-0.6,0.3-0.6,0.7C437.1,478.6,437.3,478.8,437.7,478.8z"/>
	</g>
	<g>
		<path style="fill:#323138;" d="M437.5,478.9c0.2,0,0.4,0,0.6,0c0.4,0,0.6-0.3,0.6-0.7c0-0.4-0.3-0.6-0.7-0.6
			c-9.9,0.3-10.7-7.2-11.8-16.8c-1-9-2.1-19.2-11.5-24.7c-4.8-2.9-10.9-3.3-16.7-3.6c-11.1-0.7-21.6-1.3-23.4-18.8
			c0-0.4-0.4-0.6-0.7-0.6c-0.4,0-0.6,0.4-0.6,0.7c1.9,18.6,13.5,19.3,24.6,20c5.7,0.3,11.6,0.7,16.1,3.4c8.8,5.2,9.9,15.1,10.8,23.7
			C425.9,470.1,426.9,478.9,437.5,478.9z"/>
	</g>
</g>
<g>
</g>
<g>
</g>
<g>
</g>
<g>
</g>
<g>
</g>
<g>
</g>
<g>
</g>
<g>
</g>
<g>
</g>
<g>
</g>
<g>
</g>
<g>
</g>
<g>
</g>
<g>
</g>
<g>
</g>
</svg>
