<?xml version="1.0" encoding="utf-8"?>
<!-- Generator: Adobe Illustrator 23.0.0, SVG Export Plug-In . SVG Version: 6.00 Build 0)  -->
<svg version="1.1" id="레이어_1" xmlns="http://www.w3.org/2000/svg" xmlns:xlink="http://www.w3.org/1999/xlink" x="0px"
	 y="0px" width="187.5px" height="125.2px" viewBox="0 0 187.5 125.2" style="enable-background:new 0 0 187.5 125.2;"
	 xml:space="preserve">
<g>
	<g>
		<path style="fill:#EF5137;" d="M39.1,90.3c-4.6,4.4-9.3,22.3,1.7,29.1c7.3,4.4,14.9-3,19.5-7.4c4.6-4.4-1.6-6-7.3-12
			C47.2,94,43.7,85.9,39.1,90.3z"/>
		<g>
			<path style="fill:#EF5137;" d="M2,70.1c-0.3,11,4.5,20.3,9.2,25.5c4.9,5.3,9.6,6.4,14.1,3.6c4.5-3,8.9-7.3,12.2-12
				c3.3-4.7,5.6-9.8,5.6-16.3c0.2-6.5-1.9-11.7-5-16.5c-3.1-4.8-7.3-9.3-11.7-12.4c-4.4-2.9-9.1-2-14.2,3.1C7.3,50,2.1,59.1,2,70.1z
				"/>
			<g>
				<path style="fill:#FE87AB;" d="M7.6,70.3c0,1.2,7.1,2.2,15.9,2.2c8.8,0,15.9-1,15.9-2.2c0-1.2-7.1-2.2-15.9-2.2
					C14.7,68.2,7.6,69.1,7.6,70.3z"/>
				
					<ellipse transform="matrix(0.2868 -0.958 0.958 0.2868 -38.8543 66.9872)" style="fill:#FE87AB;" cx="25.6" cy="59.6" rx="2.2" ry="15.9"/>
				<path style="fill:#FE87AB;" d="M10.1,85.9c-0.3-1.2,6.2-4.1,14.6-6.7s15.5-3.6,15.9-2.5c0.3,1.2-6.2,4.1-14.6,6.7
					C17.6,85.9,10.5,87.1,10.1,85.9z"/>
			</g>
		</g>
		<path style="fill:#FCC000;stroke:#F4B503;stroke-width:1.1583;stroke-miterlimit:10;" d="M36,67.2c-0.7,20.3,12.1,37.5,24.3,47
			C73.1,123.9,85.4,126,97,121c11.7-5.4,22.9-13.3,31.5-21.8c8.5-8.7,14.3-18,14.4-29.9c0.3-11.9-5.1-21.5-13.3-30.5
			c-8.2-8.9-19.1-17.1-30.6-23c-11.4-5.5-23.8-3.8-37,5.4C49.5,30.2,36,46.9,36,67.2z"/>
		<g>
			<ellipse style="fill:#FFFFFF;" cx="127" cy="65.2" rx="9.1" ry="9.8"/>
			<g>
				
					<ellipse transform="matrix(0.6959 -0.7181 0.7181 0.6959 -10.788 112.4985)" style="fill:#323138;" cx="127.4" cy="69" rx="5.9" ry="5.9"/>
				<circle style="fill:#FFFFFF;" cx="130" cy="67.2" r="1.3"/>
				<path style="fill:#FFFFFF;" d="M130.7,70.5c0,0.3,0.2,0.5,0.5,0.5c0.3,0,0.5-0.2,0.5-0.5c0-0.3-0.2-0.5-0.5-0.5
					C131,70,130.7,70.2,130.7,70.5z"/>
			</g>
		</g>
		<path style="fill:#896DB5;" d="M117,27.4c0.8,5.7,1.8,11.1-0.5,16.3c-2.7,6.2-12.5,7.9-13.7,14.6c-1.4,8.2,11.5,13.2,10.8,21.5
			c-0.3,3.9-3.7,7-4.5,10.8c-1.5,7,5.8,13.4,4.9,20.5c-4.1,0.6-7.6-2.9-9.4-6.6c-2.9-5.9-3.3-12.7-2.6-19.2c0.4-4,1.1-8.7-1.7-11.6
			c-1.2-1.2-2.7-2-4.2-2.9c-4.1-2.8-6.6-7.9-6.3-12.9c0.3-5,3.4-9.7,7.9-12c1.8-0.9,3.8-1.5,5.5-2.6c2-1.3,5.1-3,4.7-5.4
			c-1.2-7.8-4.8-17.2,3.5-13.3C120.3,27.7,117,27.4,117,27.4z"/>
		<path style="fill:#896DB5;" d="M87.9,28.1c-1,2.8-3.4,4.9-5.5,7c-1.4,1.4-2.7,3-4,4.6c-2.5,3.3-4.7,7.6-2.9,11.3
			c1.2,2.5,3.9,4,4.7,6.6c0.8,2.6-0.7,5.4-2.5,7.4c-1.9,2-4.2,3.6-5.7,5.9c-2.8,4-2.6,9.8,0.5,13.6c1.1,1.4,2.6,2.5,3.7,4
			c1.7,2.3,2.3,5.4,1.6,8.2c-0.7,2.6-2.5,5.3-1.2,7.7c0.7,1.3,2,2,3.1,2.9c2,1.7,3.3,4.3,3.5,6.9c0.1,1.5-0.3,3.3-1.7,4.1
			c-1.4,0.9-3.3,0.3-4.7-0.6c-1.4-0.9-2.6-2.1-4.2-2.6c-1.5-0.5-3.3-0.2-4.7-1c-0.7-0.4-1.3-1-1.8-1.6c-2-2.6-2.6-6.1-2.6-9.4
			c0-3.3,0.6-6.6,0.8-9.9c0.1-1.2,0-2.4-0.4-3.5c-0.9-2.3-3.4-3.4-5.4-5c-3.1-2.4-5-6.3-5-10.2c0-3.9,1.8-7.8,4.8-10.3
			c2.4-2,5.6-3.3,6.5-6.2c0.8-2.7-0.7-5.5-1.5-8.2C61.2,42.5,65.1,34,72,30.9c0.9-0.4,1.8-0.7,2.4-1.5c0.5-0.7,0.6-1.6,0.7-2.5
			c0.2-2.3-0.4-4.7-0.1-7.1C91.5,18.2,91,19.1,87.9,28.1z"/>
		<path style="fill:#F4B503;" d="M96.2,106.6c19.3-3.9,27.9-13.8,42.8-21.5c-2.5,5.2-5.6,10.9-10.1,15.5
			c-8.5,8.5-13.9,14.2-25.6,19.6c-11.6,5-32.2,6.6-48.5-9.1c-4.1-3.9-5.9-7.1-7.2-9.7C57.3,105.6,69.6,112,96.2,106.6z"/>
		<path style="fill:#EF5137;" d="M77.1,72.7c-2.1,6,1.8,24.2,14.7,25.2c8.5,0.7,12-9.4,14-15.4c2.1-6-4.1-4.7-12-7.4
			C86,72.3,79.1,66.7,77.1,72.7z"/>
		<g>
			<path style="fill:#F76951;" d="M139.3,71.4c0.7,2.1,3.4,2.6,6,1.2c2.6-1.4,4.1-4.3,3.3-6.4c-0.7-2.1-3.4-2.6-6-1.2
				C140,66.5,138.6,69.3,139.3,71.4z"/>
			<path style="fill:#F76951;" d="M150.5,76.5c0-2.1-2.4-5-5.5-6.4c-3.1-1.5-5.6-1-5.6,1.1c0,2.1,2.4,5,5.5,6.4
				C148,79,150.5,78.6,150.5,76.5z"/>
		</g>
		<g>
			<path style="fill:#F76951;" d="M57.7,25.3C62.2,14.9,74.1,9.8,93.2,8.1c20.2-1.8,27.3,14.6,27.3,21c0,3.7-5.3-5.9-24.8-8
				C67.3,17.8,56.1,29,57.7,25.3z"/>
			<path style="fill:#EF5137;" d="M91.5,13.7c-15.1,1-26.1,3.8-32.7,9.1c5.3-8.6,16.7-13.1,34.2-14.6c20.2-1.8,27.3,14.6,27.3,21
				c0,0.2,0,0.4,0,0.5C117.5,22.5,108.9,12.6,91.5,13.7z"/>
		</g>
		<g>
			<path style="fill:#FEA190;" d="M86.3,92.1c0.5,0.3,2.7-2.6,4.8-6.5c2.1-3.9,3.4-7.3,2.9-7.5c-0.5-0.3-2.7,2.6-4.8,6.5
				C87.1,88.4,85.8,91.8,86.3,92.1z"/>
			<path style="fill:#FEA190;" d="M80.2,87.2c0.4,0.4,3.3-1.7,6.5-4.9c3.1-3.1,5.4-6,4.9-6.4c-0.4-0.4-3.3,1.7-6.5,4.9
				C82,83.9,79.8,86.8,80.2,87.2z"/>
			<path style="fill:#FEA190;" d="M93.8,94.7c-0.6-0.1-0.3-3.7,0.6-8.1c0.9-4.3,2.1-7.7,2.7-7.6c0.6,0.1,0.3,3.7-0.6,8.1
				S94.4,94.8,93.8,94.7z"/>
		</g>
	</g>
	<g>
		<g>
			<circle style="opacity:0.2;fill:#FFFFFF;" cx="170.9" cy="63.6" r="7"/>
			<path style="opacity:0.2;fill:#FFFFFF;" d="M173.6,59.2c0.1,1-1.4,2.1-3.2,3.2c-1.8,1-3.6,1.8-4.4,1.2c-0.8-0.5,0.2-2.7,2.7-4.1
				C171.2,58,173.5,58.2,173.6,59.2z"/>
		</g>
		<g>
			<circle style="opacity:0.2;fill:#FFFFFF;" cx="179.7" cy="37.3" r="5.8"/>
			<path style="opacity:0.2;fill:#FFFFFF;" d="M182,33.7c0.1,0.8-1.2,1.8-2.7,2.6c-1.5,0.8-3,1.5-3.6,1c-0.6-0.5,0.2-2.2,2.2-3.4
				C180,32.7,182,32.9,182,33.7z"/>
		</g>
		<g>
			<circle style="opacity:0.2;fill:#FFFFFF;" cx="162.4" cy="20" r="4.1"/>
			<path style="opacity:0.2;fill:#FFFFFF;" d="M164,17.4c0.1,0.6-0.8,1.2-1.9,1.9c-1,0.6-2.1,1-2.5,0.7c-0.5-0.3,0.1-1.6,1.6-2.4
				C162.6,16.7,163.9,16.8,164,17.4z"/>
		</g>
		<g>
			<circle style="opacity:0.2;fill:#FFFFFF;" cx="173" cy="4.3" r="2.3"/>
			<path style="opacity:0.2;fill:#FFFFFF;" d="M173.9,2.8c0,0.3-0.5,0.7-1.1,1.1c-0.6,0.3-1.2,0.6-1.5,0.4c-0.3-0.2,0.1-0.9,0.9-1.4
				C173.1,2.5,173.9,2.5,173.9,2.8z"/>
		</g>
		<g>
			<circle style="opacity:0.2;fill:#FFFFFF;" cx="179.4" cy="17.8" r="2.3"/>
			<path style="opacity:0.2;fill:#FFFFFF;" d="M180.3,16.4c0,0.3-0.5,0.7-1.1,1.1c-0.6,0.3-1.2,0.6-1.5,0.4
				c-0.3-0.2,0.1-0.9,0.9-1.4C179.5,16,180.2,16,180.3,16.4z"/>
		</g>
	</g>
</g>
<g>
</g>
<g>
</g>
<g>
</g>
<g>
</g>
<g>
</g>
<g>
</g>
<g>
</g>
<g>
</g>
<g>
</g>
<g>
</g>
<g>
</g>
<g>
</g>
<g>
</g>
<g>
</g>
<g>
</g>
</svg>
