<?xml version="1.0" encoding="utf-8"?>
<!-- Generator: Adobe Illustrator 23.0.0, SVG Export Plug-In . SVG Version: 6.00 Build 0)  -->
<svg version="1.1" id="레이어_1" xmlns="http://www.w3.org/2000/svg" xmlns:xlink="http://www.w3.org/1999/xlink" x="0px"
	 y="0px" width="134.5px" height="114.6px" viewBox="0 0 134.5 114.6" style="enable-background:new 0 0 134.5 114.6;"
	 xml:space="preserve">
<g>
	<g>
		<g>
			<path style="fill:#FCC000;stroke:#F4B503;stroke-width:1.1583;stroke-miterlimit:10;" d="M2.5,82.5c-2-8.4-0.8-17.3,3.4-24.9
				c2.7-5,8.7-7.8,9.8-6.6c4.3,4.3,5.3,11.1,13,11.9c1.6,0.2,0.7,7.3,0.7,8.9c0,4.3,0.4,14.6-0.7,13.8c-4.7-3.3-8.9,1.4-16.9,7.5
				C8,96.1,3.8,88.1,2.5,82.5z"/>
			<g>
				<path style="fill:#EF6250;" d="M26.4,73.2L5,71.9c-0.1,0-0.2-0.1-0.2-0.2l0-0.2c0-0.1,0.1-0.2,0.2-0.2l21.4,1.3
					c0.1,0,0.2,0.1,0.2,0.2l0,0.2C26.6,73.1,26.5,73.2,26.4,73.2z"/>
				<path style="fill:#EF6250;" d="M26.4,74.9l-21,4.3c-0.1,0-0.2,0-0.2-0.1l0-0.2c0-0.1,0-0.2,0.1-0.2l21-4.3c0.1,0,0.2,0,0.2,0.1
					l0,0.2C26.5,74.8,26.5,74.9,26.4,74.9z"/>
				<path style="fill:#EF6250;" d="M26.6,77.3L7.4,86.9c-0.1,0-0.2,0-0.2-0.1l-0.1-0.2c0-0.1,0-0.2,0.1-0.2l19.2-9.6
					c0.1,0,0.2,0,0.2,0.1l0.1,0.2C26.7,77.1,26.6,77.2,26.6,77.3z"/>
				<path style="fill:#EF6250;" d="M6.1,64.2L26.5,71c0.1,0,0.2,0,0.2-0.1l0.1-0.2c0-0.1,0-0.2-0.1-0.2L6.3,63.7
					c-0.1,0-0.2,0-0.2,0.1L6,64C6,64.1,6,64.2,6.1,64.2z"/>
				<path style="fill:#EF6250;" d="M8.6,56.7l17.9,11.8c0.1,0.1,0.2,0,0.2,0l0.1-0.2c0.1-0.1,0-0.2,0-0.2L8.9,56.2
					c-0.1-0.1-0.2,0-0.2,0l-0.1,0.2C8.5,56.5,8.5,56.6,8.6,56.7z"/>
			</g>
		</g>
		<path style="fill:#FA7C65;stroke:#F05136;stroke-width:1.1583;stroke-miterlimit:10;" d="M119.7,74.9
			c1.7,22.2-15.5,38.1-42.5,38.1c-27,0-56.6-23.7-51.9-46.1c1.4-6.5,26.9-29.7,55.2-29.1C107.6,38.3,118,51.4,119.7,74.9z"/>
		<path style="fill:#FEA190;" d="M112.4,55c0,3.9-3.2,7.4-8.4,11c-4.2,2.6-10.4,2.9-16.8,2.9c-6.4,0-16.7-1.3-20.9-3.9
			c-4.2-2.6-5.2-6.1-5.9-10c-0.6-3.4-0.7-8.9,7.5-12.6c10.8-4.4,18.7,2,20.1,1.2c8.5-5.1,14.3-1.4,17.8,0.6
			C109.3,46.1,112.4,51,112.4,55z"/>
		<ellipse style="fill:#EF6250;" cx="100.9" cy="53.6" rx="10.3" ry="10"/>
		<path style="fill:#FEA190;" d="M113.3,97.4c0-6.1-10-14.2-18.6-15.8c-15-2.9-36.6,10.8-37.2,27.2c3.3,1.1,11.8,4.4,21.9,4.2
			C101.7,112.4,108.1,103.8,113.3,97.4z"/>
		<ellipse style="fill:#EF6250;" cx="73.9" cy="55" rx="10.3" ry="10"/>
		<g>
			<path style="fill:#9F9FA0;" d="M79.9,67.8c-0.6,0.9-1.2,3,1.5,5.8c1.7,1.7,5.9,3.9,11.1,2.9c4.2-0.8,5.7-2.7,7.2-4.7
				c1.5-2,2.2-5.6,0.1-6.2c-1.9-0.6-4.5,2.6-10.3,1.5C83.3,65.8,81.7,65.2,79.9,67.8z"/>
			<path style="fill:#323138;" d="M81,68.8c-0.6,0.7-1.1,2.3,1.3,4.5c1.5,1.4,5.3,3,9.9,2.2c3.8-0.6,5.1-2.2,6.4-3.7
				c1.4-1.6,2-4.4,0.1-4.9c-1.7-0.4-4.1,2.1-9.2,1.2C84.1,67.2,82.6,66.7,81,68.8z"/>
			<path style="fill:#F76951;" d="M96.3,73.1c0.6,0.7-2.5,1.8-5.6,2c-3.2,0.2-6.7-0.6-6.7-1.6c0-0.9,2.5-1.6,5.7-1.8
				C93.6,71.5,95.7,72.2,96.3,73.1z"/>
		</g>
		<g>
			<path style="fill:#FCC000;stroke:#F4B503;stroke-width:1.1583;stroke-miterlimit:10;" d="M42.9,73.7c-1.3-5.5-0.5-11.3,2.2-16.2
				c1.8-3.3,4.6-3.9,5.3-3.1c2.8,2.8,7,6.2,9.8,9.1c0.7,0.8,0.3,2.2,0.3,3.3c0,2.8,0.3,4.6-0.6,4.9C56.1,73.2,50.4,77,47,79
				C46.1,79.6,43.7,77.3,42.9,73.7z"/>
			<g>
				<path style="fill:#EF6250;" d="M58.4,67.6l-13.8-0.8c-0.1,0-0.2-0.1-0.2-0.2l0,0c0-0.1,0.1-0.2,0.2-0.2l13.8,0.8
					c0.1,0,0.2,0.1,0.2,0.2l0,0C58.6,67.6,58.5,67.6,58.4,67.6z"/>
				<path style="fill:#EF6250;" d="M58.4,68.8l-13.6,2.8c-0.1,0-0.2,0-0.2-0.1l0,0c0-0.1,0-0.2,0.1-0.2l13.6-2.8
					c0.1,0,0.2,0,0.2,0.1l0,0C58.5,68.7,58.5,68.7,58.4,68.8z"/>
				<path style="fill:#EF6250;" d="M58.5,70.3l-12.4,6.2c-0.1,0-0.2,0-0.2-0.1l0,0c0-0.1,0-0.2,0.1-0.2L58.3,70c0.1,0,0.2,0,0.2,0.1
					l0,0C58.6,70.2,58.6,70.3,58.5,70.3z"/>
				<path style="fill:#EF6250;" d="M45.3,61.8l13.2,4.4c0.1,0,0.2,0,0.2-0.1l0,0c0-0.1,0-0.2-0.1-0.2l-13.2-4.4
					c-0.1,0-0.2,0-0.2,0.1l0,0C45.1,61.7,45.2,61.8,45.3,61.8z"/>
				<path style="fill:#EF6250;" d="M46.9,56.9l11.6,7.6c0.1,0.1,0.2,0,0.2,0l0,0c0.1-0.1,0-0.2,0-0.2l-11.6-7.6
					c-0.1-0.1-0.2,0-0.2,0l0,0C46.8,56.7,46.8,56.8,46.9,56.9z"/>
			</g>
		</g>
		<g>
			<path style="fill:#FCC000;stroke:#F4B503;stroke-width:1.1583;stroke-miterlimit:10;" d="M132.3,72.6c1.3-5.5,0.5-11.3-2.2-16.2
				c-1.8-3.3-4.6-3.9-5.3-3.1c-2.8,2.8-7,6.2-9.8,9.1c-0.7,0.8-0.3,2.2-0.3,3.3c0,2.8-0.3,4.6,0.6,4.9c3.7,1.5,9.4,5.3,12.8,7.3
				C129.1,78.5,131.5,76.2,132.3,72.6z"/>
			<g>
				<path style="fill:#EF6250;" d="M116.8,66.5l13.8-0.8c0.1,0,0.2-0.1,0.2-0.2l0,0c0-0.1-0.1-0.2-0.2-0.2l-13.8,0.8
					c-0.1,0-0.2,0.1-0.2,0.2l0,0C116.6,66.4,116.7,66.5,116.8,66.5z"/>
				<path style="fill:#EF6250;" d="M116.8,67.7l13.6,2.8c0.1,0,0.2,0,0.2-0.1l0,0c0-0.1,0-0.2-0.1-0.2l-13.6-2.8
					c-0.1,0-0.2,0-0.2,0.1l0,0C116.7,67.5,116.7,67.6,116.8,67.7z"/>
				<path style="fill:#EF6250;" d="M116.7,69.2l12.4,6.2c0.1,0,0.2,0,0.2-0.1l0,0c0-0.1,0-0.2-0.1-0.2l-12.4-6.2
					c-0.1,0-0.2,0-0.2,0.1l0,0C116.6,69.1,116.6,69.2,116.7,69.2z"/>
				<path style="fill:#EF6250;" d="M129.9,60.7l-13.2,4.4c-0.1,0-0.2,0-0.2-0.1l0,0c0-0.1,0-0.2,0.1-0.2l13.2-4.4
					c0.1,0,0.2,0,0.2,0.1l0,0C130,60.6,130,60.7,129.9,60.7z"/>
				<path style="fill:#EF6250;" d="M128.3,55.8l-11.6,7.6c-0.1,0.1-0.2,0-0.2,0l0,0c-0.1-0.1,0-0.2,0-0.2l11.6-7.6
					c0.1-0.1,0.2,0,0.2,0l0,0C128.4,55.6,128.4,55.7,128.3,55.8z"/>
			</g>
		</g>
		<g>
			<path style="fill:#F05136;" d="M56.7,45.9L56.7,45.9c1.3,0.7,1.4,2.5,0.2,3.4v0c-1.1,0.9-2.8,0.4-3.3-1l0,0
				C53.1,46.5,55,44.9,56.7,45.9z"/>
			<path style="fill:#F05136;" d="M38,65.4L38,65.4c1.3,0.7,1.4,2.5,0.2,3.4l0,0c-1.1,0.9-2.8,0.4-3.3-1l0,0
				C34.4,66,36.4,64.4,38,65.4z"/>
			<path style="fill:#F05136;" d="M48.9,84L48.9,84c1.1-1,2.8-0.6,3.3,0.8v0c0.5,1.4-0.5,2.8-1.9,2.8l0,0
				C48.4,87.7,47.5,85.3,48.9,84z"/>
			<path style="fill:#F05136;" d="M35.4,82.3L35.4,82.3c1.3-0.7,2.9,0.1,3.1,1.5l0,0c0.2,1.4-1.1,2.6-2.5,2.3h0
				C34.1,85.7,33.7,83.2,35.4,82.3z"/>
			<path style="fill:#F05136;" d="M48,97.8L48,97.8c0.6-1.3,2.4-1.6,3.4-0.5h0c1,1.1,0.6,2.8-0.8,3.3l0,0
				C48.9,101.3,47.2,99.5,48,97.8z"/>
			<path style="fill:#F05136;" d="M112.6,76.8L112.6,76.8c-1.5,0.1-2.6-1.3-2.1-2.7v0c0.4-1.4,2.1-1.9,3.3-1l0,0
				C115.3,74.3,114.5,76.7,112.6,76.8z"/>
			<path style="fill:#F05136;" d="M113,89.4L113,89.4c-1.5-0.1-2.4-1.6-1.8-2.9l0,0c0.6-1.3,2.3-1.7,3.4-0.6l0,0
				C115.9,87.2,114.9,89.5,113,89.4z"/>
			<path style="fill:#F05136;" d="M65,80L65,80c0.7-1.3,2.5-1.4,3.4-0.3l0,0c0.9,1.1,0.5,2.8-0.9,3.3l0,0C65.7,83.5,64,81.6,65,80z"
				/>
		</g>
		<g>
			<circle style="fill:#F7F9EF;" cx="75.9" cy="55.9" r="6.9"/>
			<path style="fill:#323138;" d="M74.5,56.5c0,1.9,1.6,3.5,3.5,3.5c1.9,0,3.5-1.6,3.5-3.5c0-1.9-1.6-3.5-3.5-3.5
				C76.1,53,74.5,54.6,74.5,56.5z"/>
			<g>
				<path style="fill:#F7F9EF;" d="M82.2,54.8c0,0.7-0.6,1.3-1.3,1.3c-0.7,0-1.3-0.6-1.3-1.3c0-0.7,0.6-1.3,1.3-1.3
					C81.6,53.5,82.2,54,82.2,54.8z"/>
				<path style="fill:#F7F9EF;" d="M76.3,58.9c0,0.5-0.4,0.9-0.9,0.9c-0.5,0-0.9-0.4-0.9-0.9c0-0.5,0.4-0.9,0.9-0.9
					C75.9,58,76.3,58.4,76.3,58.9z"/>
			</g>
		</g>
		<g>
			
				<ellipse transform="matrix(0.9427 -0.3336 0.3336 0.9427 -12.3735 36.4796)" style="fill:#F7F9EF;" cx="100" cy="54.3" rx="6.9" ry="6.9"/>
			<path style="fill:#323138;" d="M101.4,54.8c0,1.9-1.6,3.5-3.5,3.5c-1.9,0-3.5-1.6-3.5-3.5c0-1.9,1.6-3.5,3.5-3.5
				C99.8,51.4,101.4,52.9,101.4,54.8z"/>
			<g>
				<circle style="fill:#F7F9EF;" cx="95" cy="53.1" r="1.3"/>
				<path style="fill:#F7F9EF;" d="M99.6,57.2c0,0.5,0.4,0.9,0.9,0.9c0.5,0,0.9-0.4,0.9-0.9c0-0.5-0.4-0.9-0.9-0.9
					C100,56.3,99.6,56.7,99.6,57.2z"/>
			</g>
		</g>
	</g>
	<g>
		<g>
			<circle style="opacity:0.2;fill:#FFFFFF;" cx="119.8" cy="36.3" r="5.8"/>
			<path style="opacity:0.2;fill:#FFFFFF;" d="M122.1,32.7c0.1,0.8-1.2,1.8-2.7,2.6c-1.5,0.8-3,1.5-3.6,1c-0.6-0.5,0.2-2.2,2.2-3.4
				C120,31.7,122,31.9,122.1,32.7z"/>
		</g>
		<g>
			<circle style="opacity:0.2;fill:#FFFFFF;" cx="102.4" cy="19" r="4.1"/>
			<path style="opacity:0.2;fill:#FFFFFF;" d="M104,16.4c0.1,0.6-0.8,1.2-1.9,1.9c-1,0.6-2.1,1-2.5,0.7c-0.5-0.3,0.1-1.6,1.6-2.4
				C102.6,15.7,103.9,15.8,104,16.4z"/>
		</g>
		<g>
			<circle style="opacity:0.2;fill:#FFFFFF;" cx="113" cy="3.3" r="2.3"/>
			<path style="opacity:0.2;fill:#FFFFFF;" d="M113.9,1.8c0,0.3-0.5,0.7-1.1,1.1c-0.6,0.3-1.2,0.6-1.5,0.4c-0.3-0.2,0.1-0.9,0.9-1.4
				C113.1,1.5,113.9,1.5,113.9,1.8z"/>
		</g>
		<g>
			<circle style="opacity:0.2;fill:#FFFFFF;" cx="119.4" cy="16.8" r="2.3"/>
			<path style="opacity:0.2;fill:#FFFFFF;" d="M120.3,15.4c0,0.3-0.5,0.7-1.1,1.1c-0.6,0.3-1.2,0.6-1.5,0.4
				c-0.3-0.2,0.1-0.9,0.9-1.4C119.5,15,120.3,15,120.3,15.4z"/>
		</g>
	</g>
</g>
<g>
</g>
<g>
</g>
<g>
</g>
<g>
</g>
<g>
</g>
<g>
</g>
<g>
</g>
<g>
</g>
<g>
</g>
<g>
</g>
<g>
</g>
<g>
</g>
<g>
</g>
<g>
</g>
<g>
</g>
</svg>
