<?xml version="1.0" encoding="utf-8"?>
<!-- Generator: Adobe Illustrator 23.1.0, SVG Export Plug-In . SVG Version: 6.00 Build 0)  -->
<svg version="1.1" id="레이어_1" xmlns="http://www.w3.org/2000/svg" xmlns:xlink="http://www.w3.org/1999/xlink" x="0px"
	 y="0px" width="480px" height="60px" viewBox="0 0 480 60" style="enable-background:new 0 0 480 60;" xml:space="preserve">
<g>
	<g>
		<g>
			<path style="fill:#52A5DC;" d="M43.5,53.5c-6,0-11.8-0.5-16.9-1.4c4.1,4.3,9.8,6.9,16.2,6.9c6.2,0,11.8-2.5,15.9-6.6
				C53.9,53.1,48.8,53.5,43.5,53.5 M77.3,41c0-2.8-4.8-5.4-12.4-7.1c-1.3-11.1-10.7-19.6-22.2-19.6c-11.4,0-20.8,8.5-22.2,19.6
				C12.8,35.6,7.9,38.2,7.9,41c0,0.6,0.2,1.2,0.6,1.7c0.8,1.1,2.2,2.1,4.2,3l0,0c0.1,0.1,0.2,0.1,0.4,0.2l0,0
				c0.1,0.1,0.2,0.1,0.4,0.2l0,0c13.8,5.6,45.6,5.6,58.9-0.4l0,0c0.1-0.1,0.2-0.1,0.4-0.2l0,0c1.7-0.8,2.9-1.6,3.6-2.5
				C77,42.4,77.3,41.7,77.3,41"/>
		</g>
		<g>
			<path style="fill:#FFF697;" d="M1.8,26.6c0,0,5.4,3.3,8.3,0.7c0,0-2.9,4.5-0.4,7.3c0,0-4.5-2.9-6.9-0.6
				C2.8,33.9,6.3,30.1,1.8,26.6"/>
		</g>
		<g>
			<path style="fill:#231815;" d="M9.7,35.1c-0.1,0-0.2,0-0.3-0.1c0,0-4.2-2.6-6.2-0.7c-0.2,0.2-0.5,0.2-0.8,0
				c-0.2-0.2-0.2-0.5,0-0.8c0,0,1.3-1.4,1.2-3.2C3.5,29.1,2.8,28,1.5,27c-0.2-0.2-0.3-0.5-0.1-0.7s0.5-0.3,0.7-0.1
				c0.1,0,5.1,3.1,7.6,0.7c0.2-0.2,0.5-0.2,0.7,0s0.3,0.5,0.1,0.7c0,0-2.6,4.2-0.5,6.6c0.2,0.2,0.2,0.5,0,0.7
				C10,35,9.8,35.1,9.7,35.1z M5.2,32.5c1.1,0,2.3,0.4,3.2,0.7c-0.5-1.6,0-3.4,0.5-4.7c-1.6,0.5-3.4,0.1-4.8-0.4
				c0.4,0.7,0.6,1.3,0.6,2.1c0.1,0.9-0.1,1.7-0.4,2.3C4.5,32.5,4.9,32.5,5.2,32.5z"/>
		</g>
	</g>
	<g>
		<path style="fill:#52A5DC;" d="M59.5,10.6c-0.1,0.2-0.2,0.5-0.5,0.5c-0.2,0-0.4,0-0.6-0.1c-0.4-0.2-0.6-0.6-0.8-0.9
			c-0.2-0.5-0.3-0.9-0.4-1.4c0-0.4-0.2-0.8-0.2-1.1l-2.4,0.9c-0.5,0.2-0.9,0.1-1.3-0.1c-0.1,0-0.1-0.1-0.2-0.1
			C53,8,52.9,7.9,52.9,7.7c0-0.3,0.2-0.6,0.5-0.7c0.3-0.2,0.5-0.3,0.8-0.4c0.8-0.3,1.6-0.7,2.5-1l0.4-0.8c-0.2-0.1-0.4-0.2-0.7-0.4
			c-0.4-0.2-1.3-0.5-1.2-1.2c0-0.3,0.2-0.6,0.3-0.8c0.2-0.3,0.6-0.2,0.8-0.1c0.1,0,0.2,0.1,0.3,0.1s0.1,0.1,0.2,0.1L58,3.1
			c0.3-0.5,0.6-0.8,1.2-0.8c0.8,0.2,1,1,0.8,1.7v0.1l0.9,0.5c0.6,0.4,1,0.6,1.1,1.1c0.1,0.3-0.4,1-0.7,1c-0.2,0-0.5,0-0.6-0.1
			c-0.2-0.1-0.4-0.2-0.6-0.3c-0.4-0.2-0.5-0.3-0.8-0.4c-0.3,0.5-0.1,0.2-0.4,0.8C59,6.8,59,7.2,59.1,7.5c-0.1,0.2,0,0.5,0.1,0.8
			c0.1,0.2,0.1,0.4,0.1,0.5C59.4,9.4,59.6,10.1,59.5,10.6z M62.3,15.6l-1.1,2c-0.3,0.6-0.8,1.3-1.5,0.9c-0.1-0.1-0.5-0.3-0.6-0.4
			c-0.4-0.4-0.3-1-0.1-1.5c0.1-0.2,0.7-1.3,0.7-1.5c-0.1,0-0.2-0.2-1-0.6c-0.6-0.3-0.6-0.3-6-3.2l0,0c0,0-0.5-0.5-0.4-0.9
			c0.2-0.4,0.4-0.6,0.7-0.8c0.4-0.2,0.8,0,0.8,0l7.7,4C62.6,14.4,62.5,15.1,62.3,15.6z M62,9.9c-0.6-0.3-1.1-0.6-1.1-1.1
			c0-0.3,0.2-0.6,0.3-0.8c0.2-0.2,0.4-0.3,0.8-0.2c0.2,0.1,1.3,0.6,1.5,0.7l0.8-1.4c0.1-0.2,0.2-0.5,0.4-0.6
			c0.1-0.1,0.2-0.3,0.4-0.3c0.3-0.1,0.7,0,1,0.2s0.4,0.5,0.4,0.7c0,0.3-0.2,0.8-0.3,0.8L63.5,13c0,0-0.4,0.5-0.9,0.6
			c-0.2,0-0.4,0-0.5-0.1c-0.2-0.1-0.4-0.3-0.5-0.5c-0.1-0.1-0.1-0.3-0.1-0.4c0-0.3,0.1-0.5,0.2-0.8l0.8-1.5L62,9.9z"/>
	</g>
	<g>
		<path style="fill:#52A5DC;" d="M70.9,19.4c-0.1,0.2-0.3,0.4-0.6,0.4c-0.2,0-0.4-0.1-0.5-0.3c-0.3-0.3-0.4-0.8-0.5-1.1
			c0-0.5,0-1,0-1.4s0-0.8,0-1.2l-2.5,0.1c-0.5,0-0.9-0.2-1.2-0.5c-0.1-0.1-0.1-0.1-0.2-0.2c-0.1-0.2-0.1-0.4-0.1-0.5
			c0.1-0.3,0.4-0.5,0.6-0.6c0.3-0.1,0.6-0.1,0.9-0.1c0.9-0.1,1.8-0.2,2.7-0.2l0.7-0.7c-0.1-0.1-0.3-0.3-0.6-0.6
			c-0.4-0.3-1.1-0.8-0.8-1.5c0.1-0.3,0.3-0.5,0.6-0.7c0.3-0.2,0.6,0,0.8,0.1c0.1,0,0.2,0.1,0.2,0.2c0,0,0.1,0.1,0.1,0.2l1,1
			c0.4-0.4,0.9-0.6,1.3-0.4c0.7,0.3,0.7,1.2,0.3,1.7c0,0.1-0.1,0.1-0.1,0.2l0.7,0.7c0.6,0.6,0.8,0.9,0.8,1.4c0,0.3-0.6,0.8-0.9,0.7
			c-0.2-0.1-0.4-0.2-0.5-0.3c-0.2-0.2-0.3-0.3-0.5-0.5c-0.3-0.3-0.4-0.4-0.6-0.6c-0.4,0.4-0.1,0.1-0.7,0.7c0,0.1-0.1,0.5-0.1,0.8
			s0,0.6,0,0.9c0,0.2,0,0.4,0,0.6C71.2,18.3,71.1,19,70.9,19.4z M72.1,25l-1.6,1.6c-0.5,0.5-1.1,1.1-1.7,0.5
			c-0.1-0.1-0.4-0.4-0.4-0.5c-0.3-0.6,0-1,0.3-1.4c0.1-0.2,1-1.1,1.1-1.2c0-0.1-0.2-0.3-0.8-0.8c-0.5-0.5-0.4-0.5-4.8-4.8l0,0
			c0,0-0.4-0.6-0.1-1c0.3-0.3,0.5-0.5,0.9-0.5s0.7,0.3,0.7,0.3l6.2,6.1C72.8,24,72.4,24.6,72.1,25z M73.5,19.5
			c-0.4-0.5-0.9-0.8-0.8-1.4c0.1-0.3,0.4-0.5,0.6-0.7c0.2-0.1,0.5-0.1,0.8,0.1c0.2,0.1,1.1,1,1.2,1.1l1.2-1.2
			c0.2-0.2,0.3-0.4,0.6-0.5c0.2-0.1,0.3-0.2,0.5-0.2c0.3,0,0.7,0.2,0.9,0.5c0.2,0.3,0.3,0.6,0.2,0.8c-0.1,0.3-0.4,0.7-0.5,0.7
			l-4,4.1c0,0-0.5,0.4-1,0.3c-0.2,0-0.3-0.1-0.4-0.3c-0.1-0.1-0.3-0.4-0.3-0.6c0-0.1,0-0.3,0-0.4c0.1-0.3,0.2-0.5,0.4-0.7L74,20
			L73.5,19.5z"/>
	</g>
</g>
<g>
	<g>
		<g>
			<path style="fill:#EB9750;" d="M123.5,53.5c-6,0-11.8-0.5-16.9-1.4c4.1,4.3,9.8,6.9,16.2,6.9c6.2,0,11.8-2.5,15.9-6.6
				C133.9,53.1,128.8,53.5,123.5,53.5 M157.3,41c0-2.8-4.8-5.4-12.4-7.1c-1.3-11.1-10.7-19.6-22.2-19.6c-11.4,0-20.8,8.5-22.2,19.6
				c-7.7,1.7-12.6,4.3-12.6,7.1c0,0.6,0.2,1.2,0.6,1.7c0.8,1.1,2.2,2.1,4.2,3l0,0c0.1,0.1,0.2,0.1,0.4,0.2l0,0
				c0.1,0.1,0.2,0.1,0.4,0.2l0,0c13.8,5.6,45.6,5.6,58.9-0.4l0,0c0.1-0.1,0.2-0.1,0.4-0.2l0,0c1.7-0.8,2.9-1.6,3.6-2.5
				C157,42.4,157.3,41.7,157.3,41"/>
		</g>
		<g>
			<path style="fill:#FFF697;" d="M81.8,26.6c0,0,5.4,3.3,8.3,0.7c0,0-2.9,4.5-0.4,7.3c0,0-4.5-2.9-6.9-0.6
				C82.8,33.9,86.3,30.1,81.8,26.6"/>
		</g>
		<g>
			<path style="fill:#231815;" d="M89.7,35.1c-0.1,0-0.2,0-0.3-0.1c0,0-4.2-2.6-6.2-0.7c-0.2,0.2-0.5,0.2-0.8,0
				c-0.2-0.2-0.2-0.5,0-0.8c0,0,1.3-1.4,1.2-3.2c-0.1-1.2-0.8-2.3-2.1-3.3c-0.2-0.2-0.3-0.5-0.1-0.7c0.2-0.2,0.5-0.3,0.7-0.1
				c0.1,0,5.1,3.1,7.6,0.7c0.2-0.2,0.5-0.2,0.7,0s0.3,0.5,0.1,0.7c0,0-2.6,4.2-0.5,6.6c0.2,0.2,0.2,0.5,0,0.7
				C90,35,89.8,35.1,89.7,35.1z M85.2,32.5c1.1,0,2.3,0.4,3.2,0.7c-0.5-1.6,0-3.4,0.5-4.7c-1.6,0.5-3.4,0.1-4.8-0.4
				c0.4,0.7,0.6,1.3,0.6,2.1c0.1,0.9-0.1,1.7-0.4,2.3C84.5,32.5,84.9,32.5,85.2,32.5z"/>
		</g>
	</g>
	<g>
		<path style="fill:#EB9750;" d="M139.5,10.6c-0.1,0.2-0.2,0.5-0.5,0.5c-0.2,0-0.4,0-0.6-0.1c-0.4-0.2-0.6-0.6-0.8-0.9
			c-0.2-0.5-0.3-0.9-0.4-1.4c0-0.4-0.2-0.8-0.2-1.1l-2.4,0.9c-0.5,0.2-0.9,0.1-1.3-0.1c-0.1,0-0.1-0.1-0.2-0.1
			c-0.1-0.3-0.2-0.4-0.2-0.6c0-0.3,0.2-0.6,0.5-0.7c0.3-0.2,0.5-0.3,0.8-0.4c0.8-0.3,1.6-0.7,2.5-1l0.4-0.8
			c-0.2-0.1-0.4-0.2-0.7-0.4c-0.4-0.2-1.3-0.5-1.2-1.2c0-0.3,0.2-0.6,0.3-0.8c0.2-0.3,0.6-0.2,0.8-0.1c0.1,0,0.2,0.1,0.3,0.1
			s0.1,0.1,0.2,0.1l1.2,0.6c0.3-0.5,0.6-0.8,1.2-0.8c0.8,0.2,1,1,0.8,1.7v0.1l0.9,0.5c0.6,0.4,1,0.6,1.1,1.1c0.1,0.3-0.4,1-0.7,1
			c-0.2,0-0.5,0-0.6-0.1c-0.2-0.1-0.4-0.2-0.6-0.3c-0.4-0.2-0.5-0.3-0.8-0.4c-0.3,0.5-0.1,0.2-0.4,0.8c0.1,0.1,0.1,0.5,0.2,0.8
			c-0.1,0.2,0,0.5,0.1,0.8c0.1,0.2,0.1,0.4,0.1,0.5C139.4,9.4,139.6,10.1,139.5,10.6z M142.3,15.6l-1.1,2c-0.3,0.6-0.8,1.3-1.5,0.9
			c-0.1-0.1-0.5-0.3-0.6-0.4c-0.4-0.4-0.3-1-0.1-1.5c0.1-0.2,0.7-1.3,0.7-1.5c-0.1,0-0.2-0.2-1-0.6c-0.6-0.3-0.6-0.3-6-3.2l0,0
			c0,0-0.5-0.5-0.4-0.9c0.2-0.4,0.4-0.6,0.7-0.8c0.4-0.2,0.8,0,0.8,0l7.7,4C142.6,14.4,142.5,15.1,142.3,15.6z M142,9.9
			c-0.6-0.3-1.1-0.6-1.1-1.1c0-0.3,0.2-0.6,0.3-0.8c0.2-0.2,0.4-0.3,0.8-0.2c0.2,0.1,1.3,0.6,1.5,0.7l0.8-1.4
			c0.1-0.2,0.2-0.5,0.4-0.6c0.1-0.1,0.2-0.3,0.4-0.3c0.3-0.1,0.7,0,1,0.2s0.4,0.5,0.4,0.7c0,0.3-0.2,0.8-0.3,0.8l-2.7,5.1
			c0,0-0.4,0.5-0.9,0.6c-0.2,0-0.4,0-0.5-0.1c-0.2-0.1-0.4-0.3-0.5-0.5c-0.1-0.1-0.1-0.3-0.1-0.4c0-0.3,0.1-0.5,0.2-0.8l0.8-1.5
			L142,9.9z"/>
	</g>
	<g>
		<path style="fill:#EB9750;" d="M150.9,19.4c-0.1,0.2-0.3,0.4-0.6,0.4c-0.2,0-0.4-0.1-0.5-0.3c-0.3-0.3-0.4-0.8-0.5-1.1
			c0-0.5,0-1,0-1.4s0-0.8,0-1.2l-2.5,0.1c-0.5,0-0.9-0.2-1.2-0.5c-0.1-0.1-0.1-0.1-0.2-0.2c-0.1-0.2-0.1-0.4-0.1-0.5
			c0.1-0.3,0.4-0.5,0.6-0.6c0.3-0.1,0.6-0.1,0.9-0.1c0.9-0.1,1.8-0.2,2.7-0.2l0.7-0.7c-0.1-0.1-0.3-0.3-0.6-0.6
			c-0.4-0.3-1.1-0.8-0.8-1.5c0.1-0.3,0.3-0.5,0.6-0.7s0.6,0,0.8,0.1c0.1,0,0.2,0.1,0.2,0.2c0,0,0.1,0.1,0.1,0.2l1,1
			c0.4-0.4,0.9-0.6,1.3-0.4c0.7,0.3,0.7,1.2,0.3,1.7c0,0.1-0.1,0.1-0.1,0.2l0.7,0.7c0.6,0.6,0.8,0.9,0.8,1.4c0,0.3-0.6,0.8-0.9,0.7
			c-0.2-0.1-0.4-0.2-0.5-0.3c-0.2-0.2-0.3-0.3-0.5-0.5c-0.3-0.3-0.4-0.4-0.6-0.6c-0.4,0.4-0.1,0.1-0.7,0.7c0,0.1-0.1,0.5-0.1,0.8
			s0,0.6,0,0.9c0,0.2,0,0.4,0,0.6C151.2,18.3,151.1,19,150.9,19.4z M152.1,25l-1.6,1.6c-0.5,0.5-1.1,1.1-1.7,0.5
			c-0.1-0.1-0.4-0.4-0.4-0.5c-0.3-0.6,0-1,0.3-1.4c0.1-0.2,1-1.1,1.1-1.2c0-0.1-0.2-0.3-0.8-0.8c-0.5-0.5-0.4-0.5-4.8-4.8l0,0
			c0,0-0.4-0.6-0.1-1c0.3-0.3,0.5-0.5,0.9-0.5s0.7,0.3,0.7,0.3l6.2,6.1C152.8,24,152.4,24.6,152.1,25z M153.5,19.5
			c-0.4-0.5-0.9-0.8-0.8-1.4c0.1-0.3,0.4-0.5,0.6-0.7c0.2-0.1,0.5-0.1,0.8,0.1c0.2,0.1,1.1,1,1.2,1.1l1.2-1.2
			c0.2-0.2,0.3-0.4,0.6-0.5c0.2-0.1,0.3-0.2,0.5-0.2c0.3,0,0.7,0.2,0.9,0.5s0.3,0.6,0.2,0.8c-0.1,0.3-0.4,0.7-0.5,0.7l-4,4.1
			c0,0-0.5,0.4-1,0.3c-0.2,0-0.3-0.1-0.4-0.3c-0.1-0.1-0.3-0.4-0.3-0.6c0-0.1,0-0.3,0-0.4c0.1-0.3,0.2-0.5,0.4-0.7L154,20
			L153.5,19.5z"/>
	</g>
</g>
<g>
	<g>
		<g>
			<path style="fill:#8E85BE;" d="M203.5,53.5c-6,0-11.8-0.5-16.9-1.4c4.1,4.3,9.8,6.9,16.2,6.9c6.2,0,11.8-2.5,15.9-6.6
				C213.9,53.1,208.8,53.5,203.5,53.5 M237.3,41c0-2.8-4.8-5.4-12.4-7.1c-1.3-11.1-10.7-19.6-22.2-19.6c-11.4,0-20.8,8.5-22.2,19.6
				c-7.7,1.7-12.6,4.3-12.6,7.1c0,0.6,0.2,1.2,0.6,1.7c0.8,1.1,2.2,2.1,4.2,3l0,0c0.1,0.1,0.2,0.1,0.4,0.2l0,0
				c0.1,0.1,0.2,0.1,0.4,0.2l0,0c13.8,5.6,45.6,5.6,58.9-0.4l0,0c0.1-0.1,0.2-0.1,0.4-0.2l0,0c1.7-0.8,2.9-1.6,3.6-2.5
				C237,42.4,237.3,41.7,237.3,41"/>
		</g>
		<g>
			<path style="fill:#FFF697;" d="M161.8,26.6c0,0,5.4,3.3,8.3,0.7c0,0-2.9,4.5-0.4,7.3c0,0-4.5-2.9-6.9-0.6
				C162.8,33.9,166.3,30.1,161.8,26.6"/>
		</g>
		<g>
			<path style="fill:#231815;" d="M169.7,35.1c-0.1,0-0.2,0-0.3-0.1c0,0-4.2-2.6-6.2-0.7c-0.2,0.2-0.5,0.2-0.8,0
				c-0.2-0.2-0.2-0.5,0-0.8c0,0,1.3-1.4,1.2-3.2c-0.1-1.2-0.8-2.3-2.1-3.3c-0.2-0.2-0.3-0.5-0.1-0.7s0.5-0.3,0.7-0.1
				c0.1,0,5.1,3.1,7.6,0.7c0.2-0.2,0.5-0.2,0.7,0s0.3,0.5,0.1,0.7c0,0-2.6,4.2-0.5,6.6c0.2,0.2,0.2,0.5,0,0.7
				C170,35,169.8,35.1,169.7,35.1z M165.2,32.5c1.1,0,2.3,0.4,3.2,0.7c-0.5-1.6,0-3.4,0.5-4.7c-1.6,0.5-3.4,0.1-4.8-0.4
				c0.4,0.7,0.6,1.3,0.6,2.1c0.1,0.9-0.1,1.7-0.4,2.3C164.5,32.5,164.9,32.5,165.2,32.5z"/>
		</g>
	</g>
	<g>
		<path style="fill:#8E85BE;" d="M219.5,10.6c-0.1,0.2-0.2,0.5-0.5,0.5c-0.2,0-0.4,0-0.6-0.1c-0.4-0.2-0.6-0.6-0.8-0.9
			c-0.2-0.5-0.3-0.9-0.4-1.4c0-0.4-0.2-0.8-0.2-1.1l-2.4,0.9c-0.5,0.2-0.9,0.1-1.3-0.1c-0.1,0-0.1-0.1-0.2-0.1
			c-0.1-0.3-0.2-0.4-0.2-0.6c0-0.3,0.2-0.6,0.5-0.7c0.3-0.2,0.5-0.3,0.8-0.4c0.8-0.3,1.6-0.7,2.5-1l0.4-0.8
			c-0.2-0.1-0.4-0.2-0.7-0.4c-0.4-0.2-1.3-0.5-1.2-1.2c0-0.3,0.2-0.6,0.3-0.8c0.2-0.3,0.6-0.2,0.8-0.1c0.1,0,0.2,0.1,0.3,0.1
			s0.1,0.1,0.2,0.1l1.2,0.6c0.3-0.5,0.6-0.8,1.2-0.8c0.8,0.2,1,1,0.8,1.7v0.1l0.9,0.5c0.6,0.4,1,0.6,1.1,1.1c0.1,0.3-0.4,1-0.7,1
			c-0.2,0-0.5,0-0.6-0.1c-0.2-0.1-0.4-0.2-0.6-0.3c-0.4-0.2-0.5-0.3-0.8-0.4c-0.3,0.5-0.1,0.2-0.4,0.8c0.1,0.1,0.1,0.5,0.2,0.8
			c-0.1,0.2,0,0.5,0.1,0.8c0.1,0.2,0.1,0.4,0.1,0.5C219.4,9.4,219.6,10.1,219.5,10.6z M222.3,15.6l-1.1,2c-0.3,0.6-0.8,1.3-1.5,0.9
			c-0.1-0.1-0.5-0.3-0.6-0.4c-0.4-0.4-0.3-1-0.1-1.5c0.1-0.2,0.7-1.3,0.7-1.5c-0.1,0-0.2-0.2-1-0.6c-0.6-0.3-0.6-0.3-6-3.2l0,0
			c0,0-0.5-0.5-0.4-0.9c0.2-0.4,0.4-0.6,0.7-0.8c0.4-0.2,0.8,0,0.8,0l7.7,4C222.6,14.4,222.5,15.1,222.3,15.6z M222,9.9
			c-0.6-0.3-1.1-0.6-1.1-1.1c0-0.3,0.2-0.6,0.3-0.8c0.2-0.2,0.4-0.3,0.8-0.2c0.2,0.1,1.3,0.6,1.5,0.7l0.8-1.4
			c0.1-0.2,0.2-0.5,0.4-0.6c0.1-0.1,0.2-0.3,0.4-0.3c0.3-0.1,0.7,0,1,0.2s0.4,0.5,0.4,0.7c0,0.3-0.2,0.8-0.3,0.8l-2.7,5.1
			c0,0-0.4,0.5-0.9,0.6c-0.2,0-0.4,0-0.5-0.1c-0.2-0.1-0.4-0.3-0.5-0.5c-0.1-0.1-0.1-0.3-0.1-0.4c0-0.3,0.1-0.5,0.2-0.8l0.8-1.5
			L222,9.9z"/>
	</g>
	<g>
		<path style="fill:#8E85BE;" d="M230.9,19.4c-0.1,0.2-0.3,0.4-0.6,0.4c-0.2,0-0.4-0.1-0.5-0.3c-0.3-0.3-0.4-0.8-0.5-1.1
			c0-0.5,0-1,0-1.4s0-0.8,0-1.2l-2.5,0.1c-0.5,0-0.9-0.2-1.2-0.5c-0.1-0.1-0.1-0.1-0.2-0.2c-0.1-0.2-0.1-0.4-0.1-0.5
			c0.1-0.3,0.4-0.5,0.6-0.6c0.3-0.1,0.6-0.1,0.9-0.1c0.9-0.1,1.8-0.2,2.7-0.2l0.7-0.7c-0.1-0.1-0.3-0.3-0.6-0.6
			c-0.4-0.3-1.1-0.8-0.8-1.5c0.1-0.3,0.3-0.5,0.6-0.7s0.6,0,0.8,0.1c0.1,0,0.2,0.1,0.2,0.2c0,0,0.1,0.1,0.1,0.2l1,1
			c0.4-0.4,0.9-0.6,1.3-0.4c0.7,0.3,0.7,1.2,0.3,1.7c0,0.1-0.1,0.1-0.1,0.2l0.7,0.7c0.6,0.6,0.8,0.9,0.8,1.4c0,0.3-0.6,0.8-0.9,0.7
			c-0.2-0.1-0.4-0.2-0.5-0.3c-0.2-0.2-0.3-0.3-0.5-0.5c-0.3-0.3-0.4-0.4-0.6-0.6c-0.4,0.4-0.1,0.1-0.7,0.7c0,0.1-0.1,0.5-0.1,0.8
			s0,0.6,0,0.9c0,0.2,0,0.4,0,0.6C231.2,18.3,231.1,19,230.9,19.4z M232.1,25l-1.6,1.6c-0.5,0.5-1.1,1.1-1.7,0.5
			c-0.1-0.1-0.4-0.4-0.4-0.5c-0.3-0.6,0-1,0.3-1.4c0.1-0.2,1-1.1,1.1-1.2c0-0.1-0.2-0.3-0.8-0.8c-0.5-0.5-0.4-0.5-4.8-4.8l0,0
			c0,0-0.4-0.6-0.1-1c0.3-0.3,0.5-0.5,0.9-0.5s0.7,0.3,0.7,0.3l6.2,6.1C232.8,24,232.4,24.6,232.1,25z M233.5,19.5
			c-0.4-0.5-0.9-0.8-0.8-1.4c0.1-0.3,0.4-0.5,0.6-0.7c0.2-0.1,0.5-0.1,0.8,0.1c0.2,0.1,1.1,1,1.2,1.1l1.2-1.2
			c0.2-0.2,0.3-0.4,0.6-0.5c0.2-0.1,0.3-0.2,0.5-0.2c0.3,0,0.7,0.2,0.9,0.5s0.3,0.6,0.2,0.8c-0.1,0.3-0.4,0.7-0.5,0.7l-4,4.1
			c0,0-0.5,0.4-1,0.3c-0.2,0-0.3-0.1-0.4-0.3c-0.1-0.1-0.3-0.4-0.3-0.6c0-0.1,0-0.3,0-0.4c0.1-0.3,0.2-0.5,0.4-0.7L234,20
			L233.5,19.5z"/>
	</g>
</g>
<g>
	<g>
		<g>
			<path style="fill:#5DB9CE;" d="M283.5,53.5c-6,0-11.8-0.5-16.9-1.4c4.1,4.3,9.8,6.9,16.2,6.9c6.2,0,11.8-2.5,15.9-6.6
				C293.9,53.1,288.8,53.5,283.5,53.5 M317.3,41c0-2.8-4.8-5.4-12.4-7.1c-1.3-11.1-10.7-19.6-22.2-19.6c-11.4,0-20.8,8.5-22.2,19.6
				c-7.7,1.7-12.6,4.3-12.6,7.1c0,0.6,0.2,1.2,0.6,1.7c0.8,1.1,2.2,2.1,4.2,3l0,0c0.1,0.1,0.2,0.1,0.4,0.2l0,0
				c0.1,0.1,0.2,0.1,0.4,0.2l0,0c13.8,5.6,45.6,5.6,58.9-0.4l0,0c0.1-0.1,0.2-0.1,0.4-0.2l0,0c1.7-0.8,2.9-1.6,3.6-2.5
				C317,42.4,317.3,41.7,317.3,41"/>
		</g>
		<g>
			<path style="fill:#FFF697;" d="M241.8,26.6c0,0,5.4,3.3,8.3,0.7c0,0-2.9,4.5-0.4,7.3c0,0-4.5-2.9-6.9-0.6
				C242.8,33.9,246.3,30.1,241.8,26.6"/>
		</g>
		<g>
			<path style="fill:#231815;" d="M249.7,35.1c-0.1,0-0.2,0-0.3-0.1c0,0-4.2-2.6-6.2-0.7c-0.2,0.2-0.5,0.2-0.8,0
				c-0.2-0.2-0.2-0.5,0-0.8c0,0,1.3-1.4,1.2-3.2c-0.1-1.2-0.8-2.3-2.1-3.3c-0.2-0.2-0.3-0.5-0.1-0.7s0.5-0.3,0.7-0.1
				c0.1,0,5.1,3.1,7.6,0.7c0.2-0.2,0.5-0.2,0.7,0s0.3,0.5,0.1,0.7c0,0-2.6,4.2-0.5,6.6c0.2,0.2,0.2,0.5,0,0.7
				C250,35,249.8,35.1,249.7,35.1z M245.2,32.5c1.1,0,2.3,0.4,3.2,0.7c-0.5-1.6,0-3.4,0.5-4.7c-1.6,0.5-3.4,0.1-4.8-0.4
				c0.4,0.7,0.6,1.3,0.6,2.1c0.1,0.9-0.1,1.7-0.4,2.3C244.5,32.5,244.9,32.5,245.2,32.5z"/>
		</g>
	</g>
	<g>
		<path style="fill:#5DB9CE;" d="M299.5,10.6c-0.1,0.2-0.2,0.5-0.5,0.5c-0.2,0-0.4,0-0.6-0.1c-0.4-0.2-0.6-0.6-0.8-0.9
			c-0.2-0.5-0.3-0.9-0.4-1.4c0-0.4-0.2-0.8-0.2-1.1l-2.4,0.9c-0.5,0.2-0.9,0.1-1.3-0.1c-0.1,0-0.1-0.1-0.2-0.1
			c-0.1-0.3-0.2-0.4-0.2-0.6c0-0.3,0.2-0.6,0.5-0.7c0.3-0.2,0.5-0.3,0.8-0.4c0.8-0.3,1.6-0.7,2.5-1l0.4-0.8
			c-0.2-0.1-0.4-0.2-0.7-0.4c-0.4-0.2-1.3-0.5-1.2-1.2c0-0.3,0.2-0.6,0.3-0.8c0.2-0.3,0.6-0.2,0.8-0.1c0.1,0,0.2,0.1,0.3,0.1
			s0.1,0.1,0.2,0.1l1.2,0.6c0.3-0.5,0.6-0.8,1.2-0.8c0.8,0.2,1,1,0.8,1.7v0.1l0.9,0.5c0.6,0.4,1,0.6,1.1,1.1c0.1,0.3-0.4,1-0.7,1
			c-0.2,0-0.5,0-0.6-0.1c-0.2-0.1-0.4-0.2-0.6-0.3c-0.4-0.2-0.5-0.3-0.8-0.4c-0.3,0.5-0.1,0.2-0.4,0.8c0.1,0.1,0.1,0.5,0.2,0.8
			c-0.1,0.2,0,0.5,0.1,0.8c0.1,0.2,0.1,0.4,0.1,0.5C299.4,9.4,299.6,10.1,299.5,10.6z M302.3,15.6l-1.1,2c-0.3,0.6-0.8,1.3-1.5,0.9
			c-0.1-0.1-0.5-0.3-0.6-0.4c-0.4-0.4-0.3-1-0.1-1.5c0.1-0.2,0.7-1.3,0.7-1.5c-0.1,0-0.2-0.2-1-0.6c-0.6-0.3-0.6-0.3-6-3.2l0,0
			c0,0-0.5-0.5-0.4-0.9c0.2-0.4,0.4-0.6,0.7-0.8c0.4-0.2,0.8,0,0.8,0l7.7,4C302.6,14.4,302.5,15.1,302.3,15.6z M302,9.9
			c-0.6-0.3-1.1-0.6-1.1-1.1c0-0.3,0.2-0.6,0.3-0.8c0.2-0.2,0.4-0.3,0.8-0.2c0.2,0.1,1.3,0.6,1.5,0.7l0.8-1.4
			c0.1-0.2,0.2-0.5,0.4-0.6c0.1-0.1,0.2-0.3,0.4-0.3c0.3-0.1,0.7,0,1,0.2s0.4,0.5,0.4,0.7c0,0.3-0.2,0.8-0.3,0.8l-2.7,5.1
			c0,0-0.4,0.5-0.9,0.6c-0.2,0-0.4,0-0.5-0.1c-0.2-0.1-0.4-0.3-0.5-0.5c-0.1-0.1-0.1-0.3-0.1-0.4c0-0.3,0.1-0.5,0.2-0.8l0.8-1.5
			L302,9.9z"/>
	</g>
	<g>
		<path style="fill:#5DB9CE;" d="M310.9,19.4c-0.1,0.2-0.3,0.4-0.6,0.4c-0.2,0-0.4-0.1-0.5-0.3c-0.3-0.3-0.4-0.8-0.5-1.1
			c0-0.5,0-1,0-1.4s0-0.8,0-1.2l-2.5,0.1c-0.5,0-0.9-0.2-1.2-0.5c-0.1-0.1-0.1-0.1-0.2-0.2c-0.1-0.2-0.1-0.4-0.1-0.5
			c0.1-0.3,0.4-0.5,0.6-0.6c0.3-0.1,0.6-0.1,0.9-0.1c0.9-0.1,1.8-0.2,2.7-0.2l0.7-0.7c-0.1-0.1-0.3-0.3-0.6-0.6
			c-0.4-0.3-1.1-0.8-0.8-1.5c0.1-0.3,0.3-0.5,0.6-0.7c0.3-0.2,0.6,0,0.8,0.1c0.1,0,0.2,0.1,0.2,0.2c0,0,0.1,0.1,0.1,0.2l1,1
			c0.4-0.4,0.9-0.6,1.3-0.4c0.7,0.3,0.7,1.2,0.3,1.7c0,0.1-0.1,0.1-0.1,0.2l0.7,0.7c0.6,0.6,0.8,0.9,0.8,1.4c0,0.3-0.6,0.8-0.9,0.7
			c-0.2-0.1-0.4-0.2-0.5-0.3c-0.2-0.2-0.3-0.3-0.5-0.5c-0.3-0.3-0.4-0.4-0.6-0.6c-0.4,0.4-0.1,0.1-0.7,0.7c0,0.1-0.1,0.5-0.1,0.8
			s0,0.6,0,0.9c0,0.2,0,0.4,0,0.6C311.2,18.3,311.1,19,310.9,19.4z M312.1,25l-1.6,1.6c-0.5,0.5-1.1,1.1-1.7,0.5
			c-0.1-0.1-0.4-0.4-0.4-0.5c-0.3-0.6,0-1,0.3-1.4c0.1-0.2,1-1.1,1.1-1.2c0-0.1-0.2-0.3-0.8-0.8c-0.5-0.5-0.4-0.5-4.8-4.8l0,0
			c0,0-0.4-0.6-0.1-1c0.3-0.3,0.5-0.5,0.9-0.5s0.7,0.3,0.7,0.3l6.2,6.1C312.8,24,312.4,24.6,312.1,25z M313.5,19.5
			c-0.4-0.5-0.9-0.8-0.8-1.4c0.1-0.3,0.4-0.5,0.6-0.7c0.2-0.1,0.5-0.1,0.8,0.1c0.2,0.1,1.1,1,1.2,1.1l1.2-1.2
			c0.2-0.2,0.3-0.4,0.6-0.5c0.2-0.1,0.3-0.2,0.5-0.2c0.3,0,0.7,0.2,0.9,0.5c0.2,0.3,0.3,0.6,0.2,0.8c-0.1,0.3-0.4,0.7-0.5,0.7
			l-4,4.1c0,0-0.5,0.4-1,0.3c-0.2,0-0.3-0.1-0.4-0.3c-0.1-0.1-0.3-0.4-0.3-0.6c0-0.1,0-0.3,0-0.4c0.1-0.3,0.2-0.5,0.4-0.7L314,20
			L313.5,19.5z"/>
	</g>
</g>
<g>
	<g>
		<g>
			<path style="fill:#BA79B1;" d="M363.5,53.5c-6,0-11.8-0.5-16.9-1.4c4.1,4.3,9.8,6.9,16.2,6.9c6.2,0,11.8-2.5,15.9-6.6
				C373.9,53.1,368.8,53.5,363.5,53.5 M397.3,41c0-2.8-4.8-5.4-12.4-7.1c-1.3-11.1-10.7-19.6-22.2-19.6c-11.4,0-20.8,8.5-22.2,19.6
				c-7.7,1.7-12.6,4.3-12.6,7.1c0,0.6,0.2,1.2,0.6,1.7c0.8,1.1,2.2,2.1,4.2,3l0,0c0.1,0.1,0.2,0.1,0.4,0.2l0,0
				c0.1,0.1,0.2,0.1,0.4,0.2l0,0c13.8,5.6,45.6,5.6,58.9-0.4l0,0c0.1-0.1,0.2-0.1,0.4-0.2l0,0c1.7-0.8,2.9-1.6,3.6-2.5
				C397,42.4,397.3,41.7,397.3,41"/>
		</g>
		<g>
			<path style="fill:#FFF697;" d="M321.8,26.6c0,0,5.4,3.3,8.3,0.7c0,0-2.9,4.5-0.4,7.3c0,0-4.5-2.9-6.9-0.6
				C322.8,33.9,326.3,30.1,321.8,26.6"/>
		</g>
		<g>
			<path style="fill:#231815;" d="M329.7,35.1c-0.1,0-0.2,0-0.3-0.1c0,0-4.2-2.6-6.2-0.7c-0.2,0.2-0.5,0.2-0.8,0
				c-0.2-0.2-0.2-0.5,0-0.8c0,0,1.3-1.4,1.2-3.2c-0.1-1.2-0.8-2.3-2.1-3.3c-0.2-0.2-0.3-0.5-0.1-0.7c0.2-0.2,0.5-0.3,0.7-0.1
				c0.1,0,5.1,3.1,7.6,0.7c0.2-0.2,0.5-0.2,0.7,0s0.3,0.5,0.1,0.7c0,0-2.6,4.2-0.5,6.6c0.2,0.2,0.2,0.5,0,0.7
				C330,35,329.8,35.1,329.7,35.1z M325.2,32.5c1.1,0,2.3,0.4,3.2,0.7c-0.5-1.6,0-3.4,0.5-4.7c-1.6,0.5-3.4,0.1-4.8-0.4
				c0.4,0.7,0.6,1.3,0.6,2.1c0.1,0.9-0.1,1.7-0.4,2.3C324.5,32.5,324.9,32.5,325.2,32.5z"/>
		</g>
	</g>
	<g>
		<path style="fill:#BA79B1;" d="M379.5,10.6c-0.1,0.2-0.2,0.5-0.5,0.5c-0.2,0-0.4,0-0.6-0.1c-0.4-0.2-0.6-0.6-0.8-0.9
			c-0.2-0.5-0.3-0.9-0.4-1.4c0-0.4-0.2-0.8-0.2-1.1l-2.4,0.9c-0.5,0.2-0.9,0.1-1.3-0.1c-0.1,0-0.1-0.1-0.2-0.1
			c-0.1-0.3-0.2-0.4-0.2-0.6c0-0.3,0.2-0.6,0.5-0.7c0.3-0.2,0.5-0.3,0.8-0.4c0.8-0.3,1.6-0.7,2.5-1l0.4-0.8
			c-0.2-0.1-0.4-0.2-0.7-0.4c-0.4-0.2-1.3-0.5-1.2-1.2c0-0.3,0.2-0.6,0.3-0.8c0.2-0.3,0.6-0.2,0.8-0.1c0.1,0,0.2,0.1,0.3,0.1
			s0.1,0.1,0.2,0.1l1.2,0.6c0.3-0.5,0.6-0.8,1.2-0.8c0.8,0.2,1,1,0.8,1.7v0.1l0.9,0.5c0.6,0.4,1,0.6,1.1,1.1c0.1,0.3-0.4,1-0.7,1
			c-0.2,0-0.5,0-0.6-0.1c-0.2-0.1-0.4-0.2-0.6-0.3c-0.4-0.2-0.5-0.3-0.8-0.4c-0.3,0.5-0.1,0.2-0.4,0.8c0.1,0.1,0.1,0.5,0.2,0.8
			c-0.1,0.2,0,0.5,0.1,0.8c0.1,0.2,0.1,0.4,0.1,0.5C379.4,9.4,379.6,10.1,379.5,10.6z M382.3,15.6l-1.1,2c-0.3,0.6-0.8,1.3-1.5,0.9
			c-0.1-0.1-0.5-0.3-0.6-0.4c-0.4-0.4-0.3-1-0.1-1.5c0.1-0.2,0.7-1.3,0.7-1.5c-0.1,0-0.2-0.2-1-0.6c-0.6-0.3-0.6-0.3-6-3.2l0,0
			c0,0-0.5-0.5-0.4-0.9c0.2-0.4,0.4-0.6,0.7-0.8c0.4-0.2,0.8,0,0.8,0l7.7,4C382.6,14.4,382.5,15.1,382.3,15.6z M382,9.9
			c-0.6-0.3-1.1-0.6-1.1-1.1c0-0.3,0.2-0.6,0.3-0.8c0.2-0.2,0.4-0.3,0.8-0.2c0.2,0.1,1.3,0.6,1.5,0.7l0.8-1.4
			c0.1-0.2,0.2-0.5,0.4-0.6c0.1-0.1,0.2-0.3,0.4-0.3c0.3-0.1,0.7,0,1,0.2s0.4,0.5,0.4,0.7c0,0.3-0.2,0.8-0.3,0.8l-2.7,5.1
			c0,0-0.4,0.5-0.9,0.6c-0.2,0-0.4,0-0.5-0.1c-0.2-0.1-0.4-0.3-0.5-0.5c-0.1-0.1-0.1-0.3-0.1-0.4c0-0.3,0.1-0.5,0.2-0.8l0.8-1.5
			L382,9.9z"/>
	</g>
	<g>
		<path style="fill:#BA79B1;" d="M390.9,19.4c-0.1,0.2-0.3,0.4-0.6,0.4c-0.2,0-0.4-0.1-0.5-0.3c-0.3-0.3-0.4-0.8-0.5-1.1
			c0-0.5,0-1,0-1.4s0-0.8,0-1.2l-2.5,0.1c-0.5,0-0.9-0.2-1.2-0.5c-0.1-0.1-0.1-0.1-0.2-0.2c-0.1-0.2-0.1-0.4-0.1-0.5
			c0.1-0.3,0.4-0.5,0.6-0.6c0.3-0.1,0.6-0.1,0.9-0.1c0.9-0.1,1.8-0.2,2.7-0.2l0.7-0.7c-0.1-0.1-0.3-0.3-0.6-0.6
			c-0.4-0.3-1.1-0.8-0.8-1.5c0.1-0.3,0.3-0.5,0.6-0.7c0.3-0.2,0.6,0,0.8,0.1c0.1,0,0.2,0.1,0.2,0.2c0,0,0.1,0.1,0.1,0.2l1,1
			c0.4-0.4,0.9-0.6,1.3-0.4c0.7,0.3,0.7,1.2,0.3,1.7c0,0.1-0.1,0.1-0.1,0.2l0.7,0.7c0.6,0.6,0.8,0.9,0.8,1.4c0,0.3-0.6,0.8-0.9,0.7
			c-0.2-0.1-0.4-0.2-0.5-0.3c-0.2-0.2-0.3-0.3-0.5-0.5c-0.3-0.3-0.4-0.4-0.6-0.6c-0.4,0.4-0.1,0.1-0.7,0.7c0,0.1-0.1,0.5-0.1,0.8
			s0,0.6,0,0.9c0,0.2,0,0.4,0,0.6C391.2,18.3,391.1,19,390.9,19.4z M392.1,25l-1.6,1.6c-0.5,0.5-1.1,1.1-1.7,0.5
			c-0.1-0.1-0.4-0.4-0.4-0.5c-0.3-0.6,0-1,0.3-1.4c0.1-0.2,1-1.1,1.1-1.2c0-0.1-0.2-0.3-0.8-0.8c-0.5-0.5-0.4-0.5-4.8-4.8l0,0
			c0,0-0.4-0.6-0.1-1c0.3-0.3,0.5-0.5,0.9-0.5s0.7,0.3,0.7,0.3l6.2,6.1C392.8,24,392.4,24.6,392.1,25z M393.5,19.5
			c-0.4-0.5-0.9-0.8-0.8-1.4c0.1-0.3,0.4-0.5,0.6-0.7c0.2-0.1,0.5-0.1,0.8,0.1c0.2,0.1,1.1,1,1.2,1.1l1.2-1.2
			c0.2-0.2,0.3-0.4,0.6-0.5c0.2-0.1,0.3-0.2,0.5-0.2c0.3,0,0.7,0.2,0.9,0.5c0.2,0.3,0.3,0.6,0.2,0.8c-0.1,0.3-0.4,0.7-0.5,0.7
			l-4,4.1c0,0-0.5,0.4-1,0.3c-0.2,0-0.3-0.1-0.4-0.3c-0.1-0.1-0.3-0.4-0.3-0.6c0-0.1,0-0.3,0-0.4c0.1-0.3,0.2-0.5,0.4-0.7L394,20
			L393.5,19.5z"/>
	</g>
</g>
<g>
	<g>
		<g>
			<path style="fill:#8EC455;" d="M443.5,53.5c-6,0-11.8-0.5-16.9-1.4c4.1,4.3,9.8,6.9,16.2,6.9c6.2,0,11.8-2.5,15.9-6.6
				C453.9,53.1,448.8,53.5,443.5,53.5 M477.3,41c0-2.8-4.8-5.4-12.4-7.1c-1.3-11.1-10.7-19.6-22.2-19.6c-11.4,0-20.8,8.5-22.2,19.6
				c-7.7,1.7-12.6,4.3-12.6,7.1c0,0.6,0.2,1.2,0.6,1.7c0.8,1.1,2.2,2.1,4.2,3l0,0c0.1,0.1,0.2,0.1,0.4,0.2l0,0
				c0.1,0.1,0.2,0.1,0.4,0.2l0,0c13.8,5.6,45.6,5.6,58.9-0.4l0,0c0.1-0.1,0.2-0.1,0.4-0.2l0,0c1.7-0.8,2.9-1.6,3.6-2.5
				C477,42.4,477.3,41.7,477.3,41"/>
		</g>
		<g>
			<path style="fill:#FFF697;" d="M401.8,26.6c0,0,5.4,3.3,8.3,0.7c0,0-2.9,4.5-0.4,7.3c0,0-4.5-2.9-6.9-0.6
				C402.8,33.9,406.3,30.1,401.8,26.6"/>
		</g>
		<g>
			<path style="fill:#231815;" d="M409.7,35.1c-0.1,0-0.2,0-0.3-0.1c0,0-4.2-2.6-6.2-0.7c-0.2,0.2-0.5,0.2-0.8,0
				c-0.2-0.2-0.2-0.5,0-0.8c0,0,1.3-1.4,1.2-3.2c-0.1-1.2-0.8-2.3-2.1-3.3c-0.2-0.2-0.3-0.5-0.1-0.7c0.2-0.2,0.5-0.3,0.7-0.1
				c0.1,0,5.1,3.1,7.6,0.7c0.2-0.2,0.5-0.2,0.7,0s0.3,0.5,0.1,0.7c0,0-2.6,4.2-0.5,6.6c0.2,0.2,0.2,0.5,0,0.7
				C410,35,409.8,35.1,409.7,35.1z M405.2,32.5c1.1,0,2.3,0.4,3.2,0.7c-0.5-1.6,0-3.4,0.5-4.7c-1.6,0.5-3.4,0.1-4.8-0.4
				c0.4,0.7,0.6,1.3,0.6,2.1c0.1,0.9-0.1,1.7-0.4,2.3C404.5,32.5,404.9,32.5,405.2,32.5z"/>
		</g>
	</g>
	<g>
		<path style="fill:#8EC455;" d="M459.5,10.6c-0.1,0.2-0.2,0.5-0.5,0.5c-0.2,0-0.4,0-0.6-0.1c-0.4-0.2-0.6-0.6-0.8-0.9
			c-0.2-0.5-0.3-0.9-0.4-1.4c0-0.4-0.2-0.8-0.2-1.1l-2.4,0.9c-0.5,0.2-0.9,0.1-1.3-0.1c-0.1,0-0.1-0.1-0.2-0.1
			c-0.1-0.3-0.2-0.4-0.2-0.6c0-0.3,0.2-0.6,0.5-0.7c0.3-0.2,0.5-0.3,0.8-0.4c0.8-0.3,1.6-0.7,2.5-1l0.4-0.8
			c-0.2-0.1-0.4-0.2-0.7-0.4c-0.4-0.2-1.3-0.5-1.2-1.2c0-0.3,0.2-0.6,0.3-0.8c0.2-0.3,0.6-0.2,0.8-0.1c0.1,0,0.2,0.1,0.3,0.1
			s0.1,0.1,0.2,0.1l1.2,0.6c0.3-0.5,0.6-0.8,1.2-0.8c0.8,0.2,1,1,0.8,1.7v0.1l0.9,0.5c0.6,0.4,1,0.6,1.1,1.1c0.1,0.3-0.4,1-0.7,1
			c-0.2,0-0.5,0-0.6-0.1c-0.2-0.1-0.4-0.2-0.6-0.3c-0.4-0.2-0.5-0.3-0.8-0.4c-0.3,0.5-0.1,0.2-0.4,0.8c0.1,0.1,0.1,0.5,0.2,0.8
			c-0.1,0.2,0,0.5,0.1,0.8c0.1,0.2,0.1,0.4,0.1,0.5C459.4,9.4,459.6,10.1,459.5,10.6z M462.3,15.6l-1.1,2c-0.3,0.6-0.8,1.3-1.5,0.9
			c-0.1-0.1-0.5-0.3-0.6-0.4c-0.4-0.4-0.3-1-0.1-1.5c0.1-0.2,0.7-1.3,0.7-1.5c-0.1,0-0.2-0.2-1-0.6c-0.6-0.3-0.6-0.3-6-3.2l0,0
			c0,0-0.5-0.5-0.4-0.9c0.2-0.4,0.4-0.6,0.7-0.8c0.4-0.2,0.8,0,0.8,0l7.7,4C462.6,14.4,462.5,15.1,462.3,15.6z M462,9.9
			c-0.6-0.3-1.1-0.6-1.1-1.1c0-0.3,0.2-0.6,0.3-0.8c0.2-0.2,0.4-0.3,0.8-0.2c0.2,0.1,1.3,0.6,1.5,0.7l0.8-1.4
			c0.1-0.2,0.2-0.5,0.4-0.6c0.1-0.1,0.2-0.3,0.4-0.3c0.3-0.1,0.7,0,1,0.2s0.4,0.5,0.4,0.7c0,0.3-0.2,0.8-0.3,0.8l-2.7,5.1
			c0,0-0.4,0.5-0.9,0.6c-0.2,0-0.4,0-0.5-0.1c-0.2-0.1-0.4-0.3-0.5-0.5c-0.1-0.1-0.1-0.3-0.1-0.4c0-0.3,0.1-0.5,0.2-0.8l0.8-1.5
			L462,9.9z"/>
	</g>
	<g>
		<path style="fill:#8EC455;" d="M470.9,19.4c-0.1,0.2-0.3,0.4-0.6,0.4c-0.2,0-0.4-0.1-0.5-0.3c-0.3-0.3-0.4-0.8-0.5-1.1
			c0-0.5,0-1,0-1.4s0-0.8,0-1.2l-2.5,0.1c-0.5,0-0.9-0.2-1.2-0.5c-0.1-0.1-0.1-0.1-0.2-0.2c-0.1-0.2-0.1-0.4-0.1-0.5
			c0.1-0.3,0.4-0.5,0.6-0.6c0.3-0.1,0.6-0.1,0.9-0.1c0.9-0.1,1.8-0.2,2.7-0.2l0.7-0.7c-0.1-0.1-0.3-0.3-0.6-0.6
			c-0.4-0.3-1.1-0.8-0.8-1.5c0.1-0.3,0.3-0.5,0.6-0.7c0.3-0.2,0.6,0,0.8,0.1c0.1,0,0.2,0.1,0.2,0.2c0,0,0.1,0.1,0.1,0.2l1,1
			c0.4-0.4,0.9-0.6,1.3-0.4c0.7,0.3,0.7,1.2,0.3,1.7c0,0.1-0.1,0.1-0.1,0.2l0.7,0.7c0.6,0.6,0.8,0.9,0.8,1.4c0,0.3-0.6,0.8-0.9,0.7
			c-0.2-0.1-0.4-0.2-0.5-0.3c-0.2-0.2-0.3-0.3-0.5-0.5c-0.3-0.3-0.4-0.4-0.6-0.6c-0.4,0.4-0.1,0.1-0.7,0.7c0,0.1-0.1,0.5-0.1,0.8
			s0,0.6,0,0.9c0,0.2,0,0.4,0,0.6C471.2,18.3,471.1,19,470.9,19.4z M472.1,25l-1.6,1.6c-0.5,0.5-1.1,1.1-1.7,0.5
			c-0.1-0.1-0.4-0.4-0.4-0.5c-0.3-0.6,0-1,0.3-1.4c0.1-0.2,1-1.1,1.1-1.2c0-0.1-0.2-0.3-0.8-0.8c-0.5-0.5-0.4-0.5-4.8-4.8l0,0
			c0,0-0.4-0.6-0.1-1c0.3-0.3,0.5-0.5,0.9-0.5s0.7,0.3,0.7,0.3l6.2,6.1C472.8,24,472.4,24.6,472.1,25z M473.5,19.5
			c-0.4-0.5-0.9-0.8-0.8-1.4c0.1-0.3,0.4-0.5,0.6-0.7c0.2-0.1,0.5-0.1,0.8,0.1c0.2,0.1,1.1,1,1.2,1.1l1.2-1.2
			c0.2-0.2,0.3-0.4,0.6-0.5c0.2-0.1,0.3-0.2,0.5-0.2c0.3,0,0.7,0.2,0.9,0.5c0.2,0.3,0.3,0.6,0.2,0.8c-0.1,0.3-0.4,0.7-0.5,0.7
			l-4,4.1c0,0-0.5,0.4-1,0.3c-0.2,0-0.3-0.1-0.4-0.3c-0.1-0.1-0.3-0.4-0.3-0.6c0-0.1,0-0.3,0-0.4c0.1-0.3,0.2-0.5,0.4-0.7L474,20
			L473.5,19.5z"/>
	</g>
</g>
<g>
</g>
<g>
	<g>
		<path d="M91.5,16c0.3,0.3,0.9,0.9,1.2,1.2c0.7,0,1.5,0.1,2.2,0.1c0.4,0,0.9,0.3,1.1,0.6c0.2,0.3,0,0.7-0.3,0.8
			c-0.5,0.2-0.9,0.1-1.4,0.1l-1,0l0.1,1.7c0,0.5,0,0.8-0.3,1c-0.5,0.5-1,0.1-1.2-0.5c0-0.1-0.1-0.2-0.1-0.3c-0.2,0-0.4,0-0.6,0
			l0.1,2c0,0.5-0.1,0.6-0.3,0.9c-0.5,0.5-1.1-0.1-1.2-0.6c-0.2-0.8-0.2-1.7-0.3-2.6l-1.2-1.2l-0.3,0.3c-0.3,0.3-0.7,0.9-1.3,0.6
			c-0.2-0.1-0.4-0.3-0.5-0.6c-0.1-0.2,0.1-0.5,0.2-0.7c0.2-0.2,0.5-0.5,1.9-2c0.1-0.1,0.2-0.2,0.4-0.4l0.2-0.2l0.1-0.1l1.8-1.8
			c0.5-0.5,0.7-0.6,1.1-0.5c0.3,0,0.7,0.5,0.6,0.8c-0.1,0.1-0.1,0.4-0.2,0.5c-0.2,0.2-0.2,0.1-0.3,0.3C91.7,15.8,91.6,15.8,91.5,16z
			 M89.7,17.7l-0.2,0.2c0.4,0.4,0.8,0.9,1.2,1.2l0.7,0c-0.1-0.4-0.1-0.6-0.1-0.7l-1.2-1.2c0,0-0.1,0-0.1,0.1L90,17.5
			C89.9,17.6,89.8,17.7,89.7,17.7z M99.5,17.9l0.6,0.6c0.1,0.1,0.6,0.6,0.7,0.7c0.1,0.1,0.3,0.3,0.5,0.5c0.3,0.3,0.2,0.8-0.1,1.1
			c-0.1,0.1-0.3,0.3-0.4,0.3c-0.5,0.3-0.9-0.1-1.2-0.4c-0.1-0.1-0.7-0.7-0.9-0.8c-0.1,0-0.2,0.1-0.8,0.7c-0.5,0.4-0.5,0.5-0.5,0.5
			L93.6,25c0,0-0.5,0.3-0.9,0.1c-0.3-0.2-0.5-0.5-0.5-0.8c0-0.4,0.2-0.6,0.2-0.7l5.6-5.6C98.6,17.5,99.2,17.5,99.5,17.9z M96.5,14.8
			l1.2,1.2c0.1,0.2,0.3,0.4,0.4,0.6c0,0.1,0.1,0.3,0,0.4c0,0.2-0.1,0.3-0.2,0.5c-0.1,0.1-0.2,0.2-0.4,0.2c-0.5,0.1-0.9-0.2-0.9-0.2
			l-4-4c-0.1,0-0.4-0.4-0.5-0.7c-0.1-0.2,0-0.5,0.2-0.7c0.2-0.3,0.5-0.4,0.8-0.4c0.2,0,0.3,0.1,0.5,0.2c0.2,0.1,0.4,0.3,0.5,0.4
			l0.7,0.7c0,0,0.3,0.4,0.6,0.6c0.1-0.1,0.7-0.7,0.9-0.8c0.3-0.2,0.5-0.2,0.7-0.1c0.2,0.1,0.4,0.3,0.5,0.6c0.1,0.5-0.3,0.8-0.7,1.2
			L96.5,14.8z"/>
	</g>
	<g>
		<path d="M97.5,11.9c-0.1-0.1-0.2-0.2-0.2-0.4c0-0.4-0.1-0.6,0.6-1l2.5-1.8c0.8-0.5,1.4-0.6,1.9-0.3c0.4,0.3,0.6,0.6,0.9,1l0.1,0.2
			c0.1,0.2,0.5,0.7,0.6,0.8c0.2,0.3,0.5,0.6,0.7,1c0.2,0.3,0.5,1,0.3,1.4c-0.1,0.1-0.1,0.2-0.2,0.3c-0.3,0.2-0.7,0.1-1.1-0.2
			c-0.1-0.1-0.8-1-1.6-2.2l-0.3-0.4c-0.1-0.1-0.3-0.3-0.4-0.2c-0.1,0.1-0.3,0.1-0.3,0.1c-0.1,0.1-0.2,0.1-1.6,1.1
			c-0.1,0.1-0.2,0.2-0.3,0.2c-0.1,0.1-0.2,0.2-0.4,0.3c-0.2,0.1-0.3,0.2-0.5,0.2C97.9,12,97.7,12,97.5,11.9z M106.8,14.2
			c0,0.3-0.2,0.5-0.4,0.7l-4,2.8c0,0-0.4,0.2-0.6,0.3c-0.2,0-0.4-0.1-0.6-0.2c-0.2-0.2-0.3-0.4-0.2-0.7c0.1-0.4,0.4-0.6,0.6-0.8
			c0.1-0.1,0.4-0.3,0.9-0.6l-1.9-2.8c-0.1-0.2,0-0.4,0.1-0.6c0.1-0.1,0.1-0.1,0.2-0.2c0.3-0.2,0.7-0.2,0.9,0c0.1,0.1,1.8,2.5,2,2.7
			l0,0c0.1,0,1-0.7,1.6-1.2c0.2-0.2,0.4-0.2,0.6-0.3C106.4,13.4,106.8,13.9,106.8,14.2z M106.6,8.7c0.1-0.1,0.2-0.1,0.3-0.1
			c0.2-0.1,0.4-0.1,0.6,0c0.1,0.1,0.2,0.1,0.3,0.2c0.1,0.1,0.1,0.2,0.2,0.3c0,0.1,0.1,0.3,0.1,0.4c0,0.1-0.1,0.2-0.2,0.3
			c-0.2,0.2-0.5,0.4-0.8,0.6c0.4,0.6,1.1,1.5,1.5,2.2c0.3,0.4,0.6,0.9,0.6,1.3c0,0.1-0.1,0.3-0.3,0.4c-0.7,0.4-1.3-0.3-1.6-0.7
			l-4.3-6c0,0-0.4-0.5-0.3-0.9c0-0.2,0.2-0.4,0.4-0.5c0.2-0.1,0.3-0.1,0.5-0.1c0.3,0.1,0.5,0.3,0.6,0.5c0.4,0.4,1.8,2.3,1.9,2.6
			L106.6,8.7z"/>
	</g>
	<g>
		<path d="M115.5,7.3c-1.4,1.6-4.4,1.3-4.9-0.8c-0.1-0.6-0.1-1.2,0.2-1.7l-0.2,0.1c-0.4,0.1-0.8-0.1-0.9-0.5
			c-0.1-0.4,0.2-0.7,0.6-0.8l1.6-0.4l-0.1-0.4c-0.1-0.3,0.2-0.6,0.6-0.7c0.4-0.1,0.8,0.1,0.8,0.4l0.1,0.4l1.7-0.4
			c0.4-0.1,0.8,0.1,0.9,0.5c0.1,0.3-0.2,0.7-0.6,0.8l-0.1,0c0.4,0.3,0.8,0.8,0.9,1.4C116.2,6,116,6.7,115.5,7.3z M112.7,12.6
			c-0.2-0.1-0.3-0.4-0.3-0.6c-0.1-0.3-0.2-0.6-0.2-0.8c-0.1-0.4-0.2-0.8-0.2-1.2c0-0.3,0.1-0.4,0.3-0.6c0.2-0.1,0.4-0.2,0.6-0.3
			l5.7-1.3c0.3-0.1,0.6-0.1,1-0.1c0.3,0.1,0.5,0.4,0.6,0.7c0.2,0.5,0.4,1.5,0.4,2.1c0,0.2,0,0.3-0.2,0.5c-0.2,0.1-0.4,0.2-0.5,0.2
			l-6.3,1.4C113.2,12.6,112.9,12.7,112.7,12.6C112.7,12.6,112.7,12.6,112.7,12.6z M114.5,5.6c-0.3-1.4-2.7-0.9-2.4,0.6
			c0.2,0.9,1,0.9,1.7,0.7C114.2,6.6,114.6,6.2,114.5,5.6z M113.6,11.1c0.1,0,0.3-0.1,0.3-0.1l3.8-0.9c0,0,0.6-0.1,0.9-0.2
			c0.2,0,0.1-0.1,0.1-0.3c0-0.1,0-0.3-0.2-0.4c-0.1-0.1-0.4,0-0.5,0l-3.4,0.8c-0.4,0.1-0.7,0.1-1,0.2c-0.1,0-0.2,0-0.2,0.2
			c0,0.1,0,0.2,0,0.3c0,0,0,0.1,0,0.1C113.5,11,113.6,11.1,113.6,11.1z M119,4.9l0.3,1.2c0,0.2,0,0.4,0,0.6c0,0.1-0.1,0.2-0.1,0.3
			c-0.1,0.1-0.2,0.2-0.4,0.2c-0.1,0-0.2,0-0.4,0c-0.4-0.1-0.5-0.6-0.5-0.6l-1-4.1c0-0.1-0.1-0.4,0-0.7c0-0.2,0.2-0.3,0.4-0.4
			c0.3-0.1,0.5-0.1,0.7,0c0.1,0.1,0.2,0.2,0.2,0.3c0.1,0.1,0.1,0.3,0.2,0.5l0.2,0.8c0,0,0,0.2,0.1,0.4c0.1,0,0.8-0.2,0.9-0.2
			c0.3,0,0.5,0.1,0.5,0.3c0.1,0.2,0.2,0.4,0.1,0.6c-0.1,0.4-0.5,0.4-1,0.6L119,4.9z"/>
	</g>
	<g>
		<path d="M123.9,2.8l0,0.7l-0.2,4.1c0,0,0,1-0.1,1.5c0,0.3-0.1,0.7-0.5,0.9c-0.2,0-0.3,0.1-0.4,0.1c-0.2,0-0.3-0.1-0.4-0.3
			c-0.1-0.3-0.1-0.5-0.1-0.9l0-0.5c0-0.2,0-0.4,0-0.6l0.2-4c0-0.3,0-0.5,0-0.8c0-0.1,0-0.3-0.1-0.3c-0.1,0-0.2,0-0.3,0
			c-0.1,0-0.3,0-0.4,0c-0.2,0-0.4,0-0.5-0.1c-0.2-0.2-0.2-0.2-0.2-0.5c0-0.1,0-0.3,0.1-0.4c0-0.1,0.1-0.1,0.2-0.2
			c0.1-0.1,0.2-0.1,0.4-0.2c0.3,0,0.2-0.1,0.6,0c0.1,0,0.7,0,0.9,0.1l0.1,0c0.1,0,0.2,0,0.3,0l1.5,0.1c0.1,0,0.2,0,0.2,0
			c0.2,0,0.3,0.1,0.5,0.1c0.1,0.1,0.2,0.2,0.3,0.3c0.1,0.2,0.1,0.5,0.1,0.7c0,0.4,0,1-0.1,1.5L126,5l0.8,0.1l0.2-2.7
			c0-0.2,0-0.4,0.1-0.7c0-0.1,0.1-0.1,0.1-0.2c0.1-0.2,0.2-0.2,0.4-0.3c0.1,0,0.2,0,0.3,0c0.3,0,0.4,0.2,0.5,0.4
			c0.1,0.2,0.1,0.8,0.1,0.9c-0.3,6-0.4,7.1-0.4,7.1c0,0.4,0,0.6-0.2,1c-0.1,0.2-0.2,0.4-0.6,0.4c-0.1,0-0.3,0-0.4-0.1
			c-0.3-0.2-0.3-1-0.3-1.2l0.2-2.8l-0.8-0.1l-0.1,1.2c0,0.1,0,1-0.1,1.5c-0.1,0.5-0.3,0.9-0.9,0.9c-0.2,0-0.3-0.1-0.4-0.3
			c-0.1-0.3-0.1-0.5-0.1-0.9c0-0.2,0-0.4,0-0.5l0.3-4.6c0-0.3,0-0.5,0-0.8c0-0.1,0-0.4-0.4-0.3C124.1,2.9,124,2.9,123.9,2.8z
			 M129.6,10.9c-0.2,0.1-0.3,0.1-0.5,0.1c-0.5-0.1-0.5-0.7-0.5-1.1l0.4-7.3c0-0.4,0.1-1,0.3-1.2c0.2-0.1,0.3-0.2,0.5-0.2
			c0.3,0,0.5,0.2,0.6,0.5c0.1,0.4,0.1,0.7,0.1,1.1l0,0.1c0,1.3-0.1,2.5-0.2,3.7l-0.2,3c0,0.4,0,0.8-0.2,1.2
			C129.8,10.8,129.7,10.9,129.6,10.9z"/>
	</g>
</g>
<g>
	<g>
		<path d="M171.5,16c0.3,0.3,0.9,0.9,1.2,1.2c0.7,0,1.5,0.1,2.2,0.1c0.4,0,0.9,0.3,1.1,0.6c0.2,0.3,0,0.7-0.3,0.8
			c-0.5,0.2-0.9,0.1-1.4,0.1l-1,0l0.1,1.7c0,0.5,0,0.8-0.3,1c-0.5,0.5-1,0.1-1.2-0.5c0-0.1-0.1-0.2-0.1-0.3c-0.2,0-0.4,0-0.6,0
			l0.1,2c0,0.5-0.1,0.6-0.3,0.9c-0.5,0.5-1.1-0.1-1.2-0.6c-0.2-0.8-0.2-1.7-0.3-2.6l-1.2-1.2l-0.3,0.3c-0.3,0.3-0.7,0.9-1.3,0.6
			c-0.2-0.1-0.4-0.3-0.5-0.6c-0.1-0.2,0.1-0.5,0.2-0.7c0.2-0.2,0.5-0.5,1.9-2c0.1-0.1,0.2-0.2,0.4-0.4l0.2-0.2l0.1-0.1l1.8-1.8
			c0.5-0.5,0.7-0.6,1.1-0.5c0.3,0,0.7,0.5,0.6,0.8c-0.1,0.1-0.1,0.4-0.2,0.5c-0.2,0.2-0.2,0.1-0.3,0.3
			C171.7,15.8,171.6,15.8,171.5,16z M169.7,17.7l-0.2,0.2c0.4,0.4,0.8,0.9,1.2,1.2l0.7,0c-0.1-0.4-0.1-0.6-0.1-0.7l-1.2-1.2
			c0,0-0.1,0-0.1,0.1l-0.1,0.1C169.9,17.6,169.8,17.7,169.7,17.7z M179.5,17.9l0.6,0.6c0.1,0.1,0.6,0.6,0.7,0.7
			c0.1,0.1,0.3,0.3,0.5,0.5c0.3,0.3,0.2,0.8-0.1,1.1c-0.1,0.1-0.3,0.3-0.4,0.3c-0.5,0.3-0.9-0.1-1.2-0.4c-0.1-0.1-0.7-0.7-0.9-0.8
			c-0.1,0-0.2,0.1-0.8,0.7c-0.5,0.4-0.5,0.5-0.5,0.5l-3.9,3.9c0,0-0.5,0.3-0.9,0.1c-0.3-0.2-0.5-0.5-0.5-0.8c0-0.4,0.2-0.6,0.2-0.7
			l5.6-5.6C178.6,17.5,179.2,17.5,179.5,17.9z M176.5,14.8l1.2,1.2c0.1,0.2,0.3,0.4,0.4,0.6c0,0.1,0.1,0.3,0,0.4
			c0,0.2-0.1,0.3-0.2,0.5c-0.1,0.1-0.2,0.2-0.4,0.2c-0.5,0.1-0.9-0.2-0.9-0.2l-4-4c-0.1,0-0.4-0.4-0.5-0.7c-0.1-0.2,0-0.5,0.2-0.7
			c0.2-0.3,0.5-0.4,0.8-0.4c0.2,0,0.3,0.1,0.5,0.2c0.2,0.1,0.4,0.3,0.5,0.4l0.7,0.7c0,0,0.3,0.4,0.6,0.6c0.1-0.1,0.7-0.7,0.9-0.8
			c0.3-0.2,0.5-0.2,0.7-0.1c0.2,0.1,0.4,0.3,0.5,0.6c0.1,0.5-0.3,0.8-0.7,1.2L176.5,14.8z"/>
	</g>
	<g>
		<path d="M177.5,11.9c-0.1-0.1-0.2-0.2-0.2-0.4c0-0.4-0.1-0.6,0.6-1l2.5-1.8c0.8-0.5,1.4-0.6,1.9-0.3c0.4,0.3,0.6,0.6,0.9,1
			l0.1,0.2c0.1,0.2,0.5,0.7,0.6,0.8c0.2,0.3,0.5,0.6,0.7,1c0.2,0.3,0.5,1,0.3,1.4c-0.1,0.1-0.1,0.2-0.2,0.3
			c-0.3,0.2-0.7,0.1-1.1-0.2c-0.1-0.1-0.8-1-1.6-2.2l-0.3-0.4c-0.1-0.1-0.3-0.3-0.4-0.2c-0.1,0.1-0.3,0.1-0.3,0.1
			c-0.1,0.1-0.2,0.1-1.6,1.1c-0.1,0.1-0.2,0.2-0.3,0.2c-0.1,0.1-0.2,0.2-0.4,0.3c-0.2,0.1-0.3,0.2-0.5,0.2
			C177.9,12,177.7,12,177.5,11.9z M186.8,14.2c0,0.3-0.2,0.5-0.4,0.7l-4,2.8c0,0-0.4,0.2-0.6,0.3c-0.2,0-0.4-0.1-0.6-0.2
			c-0.2-0.2-0.3-0.4-0.2-0.7c0.1-0.4,0.4-0.6,0.6-0.8c0.1-0.1,0.4-0.3,0.9-0.6l-1.9-2.8c-0.1-0.2,0-0.4,0.1-0.6
			c0.1-0.1,0.1-0.1,0.2-0.2c0.3-0.2,0.7-0.2,0.9,0c0.1,0.1,1.8,2.5,2,2.7l0,0c0.1,0,1-0.7,1.6-1.2c0.2-0.2,0.4-0.2,0.6-0.3
			C186.4,13.4,186.8,13.9,186.8,14.2z M186.6,8.7c0.1-0.1,0.2-0.1,0.3-0.1c0.2-0.1,0.4-0.1,0.6,0c0.1,0.1,0.2,0.1,0.3,0.2
			c0.1,0.1,0.1,0.2,0.2,0.3c0,0.1,0.1,0.3,0.1,0.4c0,0.1-0.1,0.2-0.2,0.3c-0.2,0.2-0.5,0.4-0.8,0.6c0.4,0.6,1.1,1.5,1.5,2.2
			c0.3,0.4,0.6,0.9,0.6,1.3c0,0.1-0.1,0.3-0.3,0.4c-0.7,0.4-1.3-0.3-1.6-0.7l-4.3-6c0,0-0.4-0.5-0.3-0.9c0-0.2,0.2-0.4,0.4-0.5
			c0.2-0.1,0.3-0.1,0.5-0.1c0.3,0.1,0.5,0.3,0.6,0.5c0.4,0.4,1.8,2.3,1.9,2.6L186.6,8.7z"/>
	</g>
	<g>
		<path d="M195.5,7.3c-1.4,1.6-4.4,1.3-4.9-0.8c-0.1-0.6-0.1-1.2,0.2-1.7l-0.2,0.1c-0.4,0.1-0.8-0.1-0.9-0.5
			c-0.1-0.4,0.2-0.7,0.6-0.8l1.6-0.4l-0.1-0.4c-0.1-0.3,0.2-0.6,0.6-0.7c0.4-0.1,0.8,0.1,0.8,0.4l0.1,0.4l1.7-0.4
			c0.4-0.1,0.8,0.1,0.9,0.5c0.1,0.3-0.2,0.7-0.6,0.8l-0.1,0c0.4,0.3,0.8,0.8,0.9,1.4C196.2,6,196,6.7,195.5,7.3z M192.7,12.6
			c-0.2-0.1-0.3-0.4-0.3-0.6c-0.1-0.3-0.2-0.6-0.2-0.8c-0.1-0.4-0.2-0.8-0.2-1.2c0-0.3,0.1-0.4,0.3-0.6c0.2-0.1,0.4-0.2,0.6-0.3
			l5.7-1.3c0.3-0.1,0.6-0.1,1-0.1c0.3,0.1,0.5,0.4,0.6,0.7c0.2,0.5,0.4,1.5,0.4,2.1c0,0.2,0,0.3-0.2,0.5c-0.2,0.1-0.4,0.2-0.5,0.2
			l-6.3,1.4C193.2,12.6,192.9,12.7,192.7,12.6C192.7,12.6,192.7,12.6,192.7,12.6z M194.5,5.6c-0.3-1.4-2.7-0.9-2.4,0.6
			c0.2,0.9,1,0.9,1.7,0.7C194.2,6.6,194.6,6.2,194.5,5.6z M193.6,11.1c0.1,0,0.3-0.1,0.3-0.1l3.8-0.9c0,0,0.6-0.1,0.9-0.2
			c0.2,0,0.1-0.1,0.1-0.3c0-0.1,0-0.3-0.2-0.4c-0.1-0.1-0.4,0-0.5,0l-3.4,0.8c-0.4,0.1-0.7,0.1-1,0.2c-0.1,0-0.2,0-0.2,0.2
			c0,0.1,0,0.2,0,0.3c0,0,0,0.1,0,0.1C193.5,11,193.6,11.1,193.6,11.1z M199,4.9l0.3,1.2c0,0.2,0,0.4,0,0.6c0,0.1-0.1,0.2-0.1,0.3
			c-0.1,0.1-0.2,0.2-0.4,0.2c-0.1,0-0.2,0-0.4,0c-0.4-0.1-0.5-0.6-0.5-0.6l-1-4.1c0-0.1-0.1-0.4,0-0.7c0-0.2,0.2-0.3,0.4-0.4
			c0.3-0.1,0.5-0.1,0.7,0c0.1,0.1,0.2,0.2,0.2,0.3c0.1,0.1,0.1,0.3,0.2,0.5l0.2,0.8c0,0,0,0.2,0.1,0.4c0.1,0,0.8-0.2,0.9-0.2
			c0.3,0,0.5,0.1,0.5,0.3c0.1,0.2,0.2,0.4,0.1,0.6c-0.1,0.4-0.5,0.4-1,0.6L199,4.9z"/>
	</g>
	<g>
		<path d="M203.9,2.8l0,0.7l-0.2,4.1c0,0,0,1-0.1,1.5c0,0.3-0.1,0.7-0.5,0.9c-0.2,0-0.3,0.1-0.4,0.1c-0.2,0-0.3-0.1-0.4-0.3
			c-0.1-0.3-0.1-0.5-0.1-0.9l0-0.5c0-0.2,0-0.4,0-0.6l0.2-4c0-0.3,0-0.5,0-0.8c0-0.1,0-0.3-0.1-0.3c-0.1,0-0.2,0-0.3,0
			c-0.1,0-0.3,0-0.4,0c-0.2,0-0.4,0-0.5-0.1c-0.2-0.2-0.2-0.2-0.2-0.5c0-0.1,0-0.3,0.1-0.4c0-0.1,0.1-0.1,0.2-0.2
			c0.1-0.1,0.2-0.1,0.4-0.2c0.3,0,0.2-0.1,0.6,0c0.1,0,0.7,0,0.9,0.1l0.1,0c0.1,0,0.2,0,0.3,0l1.5,0.1c0.1,0,0.2,0,0.2,0
			c0.2,0,0.3,0.1,0.5,0.1c0.1,0.1,0.2,0.2,0.3,0.3c0.1,0.2,0.1,0.5,0.1,0.7c0,0.4,0,1-0.1,1.5L206,5l0.8,0.1l0.2-2.7
			c0-0.2,0-0.4,0.1-0.7c0-0.1,0.1-0.1,0.1-0.2c0.1-0.2,0.2-0.2,0.4-0.3c0.1,0,0.2,0,0.3,0c0.3,0,0.4,0.2,0.5,0.4
			c0.1,0.2,0.1,0.8,0.1,0.9c-0.3,6-0.4,7.1-0.4,7.1c0,0.4,0,0.6-0.2,1c-0.1,0.2-0.2,0.4-0.6,0.4c-0.1,0-0.3,0-0.4-0.1
			c-0.3-0.2-0.3-1-0.3-1.2l0.2-2.8l-0.8-0.1l-0.1,1.2c0,0.1,0,1-0.1,1.5c-0.1,0.5-0.3,0.9-0.9,0.9c-0.2,0-0.3-0.1-0.4-0.3
			c-0.1-0.3-0.1-0.5-0.1-0.9c0-0.2,0-0.4,0-0.5l0.3-4.6c0-0.3,0-0.5,0-0.8c0-0.1,0-0.4-0.4-0.3C204.1,2.9,204,2.9,203.9,2.8z
			 M209.6,10.9c-0.2,0.1-0.3,0.1-0.5,0.1c-0.5-0.1-0.5-0.7-0.5-1.1l0.4-7.3c0-0.4,0.1-1,0.3-1.2c0.2-0.1,0.3-0.2,0.5-0.2
			c0.3,0,0.5,0.2,0.6,0.5c0.1,0.4,0.1,0.7,0.1,1.1l0,0.1c0,1.3-0.1,2.5-0.2,3.7l-0.2,3c0,0.4,0,0.8-0.2,1.2
			C209.8,10.8,209.7,10.9,209.6,10.9z"/>
	</g>
</g>
<g>
	<g>
		<path d="M251.5,16c0.3,0.3,0.9,0.9,1.2,1.2c0.7,0,1.5,0.1,2.2,0.1c0.4,0,0.9,0.3,1.1,0.6c0.2,0.3,0,0.7-0.3,0.8
			c-0.5,0.2-0.9,0.1-1.4,0.1l-1,0l0.1,1.7c0,0.5,0,0.8-0.3,1c-0.5,0.5-1,0.1-1.2-0.5c0-0.1-0.1-0.2-0.1-0.3c-0.2,0-0.4,0-0.6,0
			l0.1,2c0,0.5-0.1,0.6-0.3,0.9c-0.5,0.5-1.1-0.1-1.2-0.6c-0.2-0.8-0.2-1.7-0.3-2.6l-1.2-1.2l-0.3,0.3c-0.3,0.3-0.7,0.9-1.3,0.6
			c-0.2-0.1-0.4-0.3-0.5-0.6c-0.1-0.2,0.1-0.5,0.2-0.7c0.2-0.2,0.5-0.5,1.9-2c0.1-0.1,0.2-0.2,0.4-0.4l0.2-0.2l0.1-0.1l1.8-1.8
			c0.5-0.5,0.7-0.6,1.1-0.5c0.3,0,0.7,0.5,0.6,0.8c-0.1,0.1-0.1,0.4-0.2,0.5c-0.2,0.2-0.2,0.1-0.3,0.3
			C251.7,15.8,251.6,15.8,251.5,16z M249.7,17.7l-0.2,0.2c0.4,0.4,0.8,0.9,1.2,1.2l0.7,0c-0.1-0.4-0.1-0.6-0.1-0.7l-1.2-1.2
			c0,0-0.1,0-0.1,0.1l-0.1,0.1C249.9,17.6,249.8,17.7,249.7,17.7z M259.5,17.9l0.6,0.6c0.1,0.1,0.6,0.6,0.7,0.7
			c0.1,0.1,0.3,0.3,0.5,0.5c0.3,0.3,0.2,0.8-0.1,1.1c-0.1,0.1-0.3,0.3-0.4,0.3c-0.5,0.3-0.9-0.1-1.2-0.4c-0.1-0.1-0.7-0.7-0.9-0.8
			c-0.1,0-0.2,0.1-0.8,0.7c-0.5,0.4-0.5,0.5-0.5,0.5l-3.9,3.9c0,0-0.5,0.3-0.9,0.1c-0.3-0.2-0.5-0.5-0.5-0.8c0-0.4,0.2-0.6,0.2-0.7
			l5.6-5.6C258.6,17.5,259.2,17.5,259.5,17.9z M256.5,14.8l1.2,1.2c0.1,0.2,0.3,0.4,0.4,0.6c0,0.1,0.1,0.3,0,0.4
			c0,0.2-0.1,0.3-0.2,0.5c-0.1,0.1-0.2,0.2-0.4,0.2c-0.5,0.1-0.9-0.2-0.9-0.2l-4-4c-0.1,0-0.4-0.4-0.5-0.7c-0.1-0.2,0-0.5,0.2-0.7
			c0.2-0.3,0.5-0.4,0.8-0.4c0.2,0,0.3,0.1,0.5,0.2c0.2,0.1,0.4,0.3,0.5,0.4l0.7,0.7c0,0,0.3,0.4,0.6,0.6c0.1-0.1,0.7-0.7,0.9-0.8
			c0.3-0.2,0.5-0.2,0.7-0.1c0.2,0.1,0.4,0.3,0.5,0.6c0.1,0.5-0.3,0.8-0.7,1.2L256.5,14.8z"/>
	</g>
	<g>
		<path d="M257.5,11.9c-0.1-0.1-0.2-0.2-0.2-0.4c0-0.4-0.1-0.6,0.6-1l2.5-1.8c0.8-0.5,1.4-0.6,1.9-0.3c0.4,0.3,0.6,0.6,0.9,1
			l0.1,0.2c0.1,0.2,0.5,0.7,0.6,0.8c0.2,0.3,0.5,0.6,0.7,1c0.2,0.3,0.5,1,0.3,1.4c-0.1,0.1-0.1,0.2-0.2,0.3
			c-0.3,0.2-0.7,0.1-1.1-0.2c-0.1-0.1-0.8-1-1.6-2.2l-0.3-0.4c-0.1-0.1-0.3-0.3-0.4-0.2c-0.1,0.1-0.3,0.1-0.3,0.1
			c-0.1,0.1-0.2,0.1-1.6,1.1c-0.1,0.1-0.2,0.2-0.3,0.2c-0.1,0.1-0.2,0.2-0.4,0.3c-0.2,0.1-0.3,0.2-0.5,0.2
			C257.9,12,257.7,12,257.5,11.9z M266.8,14.2c0,0.3-0.2,0.5-0.4,0.7l-4,2.8c0,0-0.4,0.2-0.6,0.3c-0.2,0-0.4-0.1-0.6-0.2
			c-0.2-0.2-0.3-0.4-0.2-0.7c0.1-0.4,0.4-0.6,0.6-0.8c0.1-0.1,0.4-0.3,0.9-0.6l-1.9-2.8c-0.1-0.2,0-0.4,0.1-0.6
			c0.1-0.1,0.1-0.1,0.2-0.2c0.3-0.2,0.7-0.2,0.9,0c0.1,0.1,1.8,2.5,2,2.7l0,0c0.1,0,1-0.7,1.6-1.2c0.2-0.2,0.4-0.2,0.6-0.3
			C266.4,13.4,266.8,13.9,266.8,14.2z M266.6,8.7c0.1-0.1,0.2-0.1,0.3-0.1c0.2-0.1,0.4-0.1,0.6,0c0.1,0.1,0.2,0.1,0.3,0.2
			c0.1,0.1,0.1,0.2,0.2,0.3c0,0.1,0.1,0.3,0.1,0.4c0,0.1-0.1,0.2-0.2,0.3c-0.2,0.2-0.5,0.4-0.8,0.6c0.4,0.6,1.1,1.5,1.5,2.2
			c0.3,0.4,0.6,0.9,0.6,1.3c0,0.1-0.1,0.3-0.3,0.4c-0.7,0.4-1.3-0.3-1.6-0.7l-4.3-6c0,0-0.4-0.5-0.3-0.9c0-0.2,0.2-0.4,0.4-0.5
			c0.2-0.1,0.3-0.1,0.5-0.1c0.3,0.1,0.5,0.3,0.6,0.5c0.4,0.4,1.8,2.3,1.9,2.6L266.6,8.7z"/>
	</g>
	<g>
		<path d="M275.5,7.3c-1.4,1.6-4.4,1.3-4.9-0.8c-0.1-0.6-0.1-1.2,0.2-1.7l-0.2,0.1c-0.4,0.1-0.8-0.1-0.9-0.5
			c-0.1-0.4,0.2-0.7,0.6-0.8l1.6-0.4l-0.1-0.4c-0.1-0.3,0.2-0.6,0.6-0.7c0.4-0.1,0.8,0.1,0.8,0.4l0.1,0.4l1.7-0.4
			c0.4-0.1,0.8,0.1,0.9,0.5c0.1,0.3-0.2,0.7-0.6,0.8l-0.1,0c0.4,0.3,0.8,0.8,0.9,1.4C276.2,6,276,6.7,275.5,7.3z M272.7,12.6
			c-0.2-0.1-0.3-0.4-0.3-0.6c-0.1-0.3-0.2-0.6-0.2-0.8c-0.1-0.4-0.2-0.8-0.2-1.2c0-0.3,0.1-0.4,0.3-0.6c0.2-0.1,0.4-0.2,0.6-0.3
			l5.7-1.3c0.3-0.1,0.6-0.1,1-0.1c0.3,0.1,0.5,0.4,0.6,0.7c0.2,0.5,0.4,1.5,0.4,2.1c0,0.2,0,0.3-0.2,0.5c-0.2,0.1-0.4,0.2-0.5,0.2
			l-6.3,1.4C273.2,12.6,272.9,12.7,272.7,12.6C272.7,12.6,272.7,12.6,272.7,12.6z M274.5,5.6c-0.3-1.4-2.7-0.9-2.4,0.6
			c0.2,0.9,1,0.9,1.7,0.7C274.2,6.6,274.6,6.2,274.5,5.6z M273.6,11.1c0.1,0,0.3-0.1,0.3-0.1l3.8-0.9c0,0,0.6-0.1,0.9-0.2
			c0.2,0,0.1-0.1,0.1-0.3c0-0.1,0-0.3-0.2-0.4c-0.1-0.1-0.4,0-0.5,0l-3.4,0.8c-0.4,0.1-0.7,0.1-1,0.2c-0.1,0-0.2,0-0.2,0.2
			c0,0.1,0,0.2,0,0.3c0,0,0,0.1,0,0.1C273.5,11,273.6,11.1,273.6,11.1z M279,4.9l0.3,1.2c0,0.2,0,0.4,0,0.6c0,0.1-0.1,0.2-0.1,0.3
			c-0.1,0.1-0.2,0.2-0.4,0.2c-0.1,0-0.2,0-0.4,0c-0.4-0.1-0.5-0.6-0.5-0.6l-1-4.1c0-0.1-0.1-0.4,0-0.7c0-0.2,0.2-0.3,0.4-0.4
			c0.3-0.1,0.5-0.1,0.7,0c0.1,0.1,0.2,0.2,0.2,0.3c0.1,0.1,0.1,0.3,0.2,0.5l0.2,0.8c0,0,0,0.2,0.1,0.4c0.1,0,0.8-0.2,0.9-0.2
			c0.3,0,0.5,0.1,0.5,0.3c0.1,0.2,0.2,0.4,0.1,0.6c-0.1,0.4-0.5,0.4-1,0.6L279,4.9z"/>
	</g>
	<g>
		<path d="M283.9,2.8l0,0.7l-0.2,4.1c0,0,0,1-0.1,1.5c0,0.3-0.1,0.7-0.5,0.9c-0.2,0-0.3,0.1-0.4,0.1c-0.2,0-0.3-0.1-0.4-0.3
			c-0.1-0.3-0.1-0.5-0.1-0.9l0-0.5c0-0.2,0-0.4,0-0.6l0.2-4c0-0.3,0-0.5,0-0.8c0-0.1,0-0.3-0.1-0.3c-0.1,0-0.2,0-0.3,0
			c-0.1,0-0.3,0-0.4,0c-0.2,0-0.4,0-0.5-0.1c-0.2-0.2-0.2-0.2-0.2-0.5c0-0.1,0-0.3,0.1-0.4c0-0.1,0.1-0.1,0.2-0.2
			c0.1-0.1,0.2-0.1,0.4-0.2c0.3,0,0.2-0.1,0.6,0c0.1,0,0.7,0,0.9,0.1l0.1,0c0.1,0,0.2,0,0.3,0l1.5,0.1c0.1,0,0.2,0,0.2,0
			c0.2,0,0.3,0.1,0.5,0.1c0.1,0.1,0.2,0.2,0.3,0.3c0.1,0.2,0.1,0.5,0.1,0.7c0,0.4,0,1-0.1,1.5L286,5l0.8,0.1l0.2-2.7
			c0-0.2,0-0.4,0.1-0.7c0-0.1,0.1-0.1,0.1-0.2c0.1-0.2,0.2-0.2,0.4-0.3c0.1,0,0.2,0,0.3,0c0.3,0,0.4,0.2,0.5,0.4
			c0.1,0.2,0.1,0.8,0.1,0.9c-0.3,6-0.4,7.1-0.4,7.1c0,0.4,0,0.6-0.2,1c-0.1,0.2-0.2,0.4-0.6,0.4c-0.1,0-0.3,0-0.4-0.1
			c-0.3-0.2-0.3-1-0.3-1.2l0.2-2.8l-0.8-0.1l-0.1,1.2c0,0.1,0,1-0.1,1.5c-0.1,0.5-0.3,0.9-0.9,0.9c-0.2,0-0.3-0.1-0.4-0.3
			c-0.1-0.3-0.1-0.5-0.1-0.9c0-0.2,0-0.4,0-0.5l0.3-4.6c0-0.3,0-0.5,0-0.8c0-0.1,0-0.4-0.4-0.3C284.1,2.9,284,2.9,283.9,2.8z
			 M289.6,10.9c-0.2,0.1-0.3,0.1-0.5,0.1c-0.5-0.1-0.5-0.7-0.5-1.1l0.4-7.3c0-0.4,0.1-1,0.3-1.2c0.2-0.1,0.3-0.2,0.5-0.2
			c0.3,0,0.5,0.2,0.6,0.5c0.1,0.4,0.1,0.7,0.1,1.1l0,0.1c0,1.3-0.1,2.5-0.2,3.7l-0.2,3c0,0.4,0,0.8-0.2,1.2
			C289.8,10.8,289.7,10.9,289.6,10.9z"/>
	</g>
</g>
<g>
	<g>
		<path d="M331.5,16c0.3,0.3,0.9,0.9,1.2,1.2c0.7,0,1.5,0.1,2.2,0.1c0.4,0,0.9,0.3,1.1,0.6c0.2,0.3,0,0.7-0.3,0.8
			c-0.5,0.2-0.9,0.1-1.4,0.1l-1,0l0.1,1.7c0,0.5,0,0.8-0.3,1c-0.5,0.5-1,0.1-1.2-0.5c0-0.1-0.1-0.2-0.1-0.3c-0.2,0-0.4,0-0.6,0
			l0.1,2c0,0.5-0.1,0.6-0.3,0.9c-0.5,0.5-1.1-0.1-1.2-0.6c-0.2-0.8-0.2-1.7-0.3-2.6l-1.2-1.2l-0.3,0.3c-0.3,0.3-0.7,0.9-1.3,0.6
			c-0.2-0.1-0.4-0.3-0.5-0.6c-0.1-0.2,0.1-0.5,0.2-0.7c0.2-0.2,0.5-0.5,1.9-2c0.1-0.1,0.2-0.2,0.4-0.4l0.2-0.2l0.1-0.1l1.8-1.8
			c0.5-0.5,0.7-0.6,1.1-0.5c0.3,0,0.7,0.5,0.6,0.8c-0.1,0.1-0.1,0.4-0.2,0.5c-0.2,0.2-0.2,0.1-0.3,0.3
			C331.7,15.8,331.6,15.8,331.5,16z M329.7,17.7l-0.2,0.2c0.4,0.4,0.8,0.9,1.2,1.2l0.7,0c-0.1-0.4-0.1-0.6-0.1-0.7l-1.2-1.2
			c0,0-0.1,0-0.1,0.1l-0.1,0.1C329.9,17.6,329.8,17.7,329.7,17.7z M339.5,17.9l0.6,0.6c0.1,0.1,0.6,0.6,0.7,0.7
			c0.1,0.1,0.3,0.3,0.5,0.5c0.3,0.3,0.2,0.8-0.1,1.1c-0.1,0.1-0.3,0.3-0.4,0.3c-0.5,0.3-0.9-0.1-1.2-0.4c-0.1-0.1-0.7-0.7-0.9-0.8
			c-0.1,0-0.2,0.1-0.8,0.7c-0.5,0.4-0.5,0.5-0.5,0.5l-3.9,3.9c0,0-0.5,0.3-0.9,0.1c-0.3-0.2-0.5-0.5-0.5-0.8c0-0.4,0.2-0.6,0.2-0.7
			l5.6-5.6C338.6,17.5,339.2,17.5,339.5,17.9z M336.5,14.8l1.2,1.2c0.1,0.2,0.3,0.4,0.4,0.6c0,0.1,0.1,0.3,0,0.4
			c0,0.2-0.1,0.3-0.2,0.5c-0.1,0.1-0.2,0.2-0.4,0.2c-0.5,0.1-0.9-0.2-0.9-0.2l-4-4c-0.1,0-0.4-0.4-0.5-0.7c-0.1-0.2,0-0.5,0.2-0.7
			c0.2-0.3,0.5-0.4,0.8-0.4c0.2,0,0.3,0.1,0.5,0.2c0.2,0.1,0.4,0.3,0.5,0.4l0.7,0.7c0,0,0.3,0.4,0.6,0.6c0.1-0.1,0.7-0.7,0.9-0.8
			c0.3-0.2,0.5-0.2,0.7-0.1c0.2,0.1,0.4,0.3,0.5,0.6c0.1,0.5-0.3,0.8-0.7,1.2L336.5,14.8z"/>
	</g>
	<g>
		<path d="M337.5,11.9c-0.1-0.1-0.2-0.2-0.2-0.4c0-0.4-0.1-0.6,0.6-1l2.5-1.8c0.8-0.5,1.4-0.6,1.9-0.3c0.4,0.3,0.6,0.6,0.9,1
			l0.1,0.2c0.1,0.2,0.5,0.7,0.6,0.8c0.2,0.3,0.5,0.6,0.7,1c0.2,0.3,0.5,1,0.3,1.4c-0.1,0.1-0.1,0.2-0.2,0.3
			c-0.3,0.2-0.7,0.1-1.1-0.2c-0.1-0.1-0.8-1-1.6-2.2l-0.3-0.4c-0.1-0.1-0.3-0.3-0.4-0.2c-0.1,0.1-0.3,0.1-0.3,0.1
			c-0.1,0.1-0.2,0.1-1.6,1.1c-0.1,0.1-0.2,0.2-0.3,0.2c-0.1,0.1-0.2,0.2-0.4,0.3c-0.2,0.1-0.3,0.2-0.5,0.2
			C337.9,12,337.7,12,337.5,11.9z M346.8,14.2c0,0.3-0.2,0.5-0.4,0.7l-4,2.8c0,0-0.4,0.2-0.6,0.3c-0.2,0-0.4-0.1-0.6-0.2
			c-0.2-0.2-0.3-0.4-0.2-0.7c0.1-0.4,0.4-0.6,0.6-0.8c0.1-0.1,0.4-0.3,0.9-0.6l-1.9-2.8c-0.1-0.2,0-0.4,0.1-0.6
			c0.1-0.1,0.1-0.1,0.2-0.2c0.3-0.2,0.7-0.2,0.9,0c0.1,0.1,1.8,2.5,2,2.7l0,0c0.1,0,1-0.7,1.6-1.2c0.2-0.2,0.4-0.2,0.6-0.3
			C346.4,13.4,346.8,13.9,346.8,14.2z M346.6,8.7c0.1-0.1,0.2-0.1,0.3-0.1c0.2-0.1,0.4-0.1,0.6,0c0.1,0.1,0.2,0.1,0.3,0.2
			c0.1,0.1,0.1,0.2,0.2,0.3c0,0.1,0.1,0.3,0.1,0.4c0,0.1-0.1,0.2-0.2,0.3c-0.2,0.2-0.5,0.4-0.8,0.6c0.4,0.6,1.1,1.5,1.5,2.2
			c0.3,0.4,0.6,0.9,0.6,1.3c0,0.1-0.1,0.3-0.3,0.4c-0.7,0.4-1.3-0.3-1.6-0.7l-4.3-6c0,0-0.4-0.5-0.3-0.9c0-0.2,0.2-0.4,0.4-0.5
			c0.2-0.1,0.3-0.1,0.5-0.1c0.3,0.1,0.5,0.3,0.6,0.5c0.4,0.4,1.8,2.3,1.9,2.6L346.6,8.7z"/>
	</g>
	<g>
		<path d="M355.5,7.3c-1.4,1.6-4.4,1.3-4.9-0.8c-0.1-0.6-0.1-1.2,0.2-1.7l-0.2,0.1c-0.4,0.1-0.8-0.1-0.9-0.5
			c-0.1-0.4,0.2-0.7,0.6-0.8l1.6-0.4l-0.1-0.4c-0.1-0.3,0.2-0.6,0.6-0.7c0.4-0.1,0.8,0.1,0.8,0.4l0.1,0.4l1.7-0.4
			c0.4-0.1,0.8,0.1,0.9,0.5c0.1,0.3-0.2,0.7-0.6,0.8l-0.1,0c0.4,0.3,0.8,0.8,0.9,1.4C356.2,6,356,6.7,355.5,7.3z M352.7,12.6
			c-0.2-0.1-0.3-0.4-0.3-0.6c-0.1-0.3-0.2-0.6-0.2-0.8c-0.1-0.4-0.2-0.8-0.2-1.2c0-0.3,0.1-0.4,0.3-0.6c0.2-0.1,0.4-0.2,0.6-0.3
			l5.7-1.3c0.3-0.1,0.6-0.1,1-0.1c0.3,0.1,0.5,0.4,0.6,0.7c0.2,0.5,0.4,1.5,0.4,2.1c0,0.2,0,0.3-0.2,0.5c-0.2,0.1-0.4,0.2-0.5,0.2
			l-6.3,1.4C353.2,12.6,352.9,12.7,352.7,12.6C352.7,12.6,352.7,12.6,352.7,12.6z M354.5,5.6c-0.3-1.4-2.7-0.9-2.4,0.6
			c0.2,0.9,1,0.9,1.7,0.7C354.2,6.6,354.6,6.2,354.5,5.6z M353.6,11.1c0.1,0,0.3-0.1,0.3-0.1l3.8-0.9c0,0,0.6-0.1,0.9-0.2
			c0.2,0,0.1-0.1,0.1-0.3c0-0.1,0-0.3-0.2-0.4c-0.1-0.1-0.4,0-0.5,0l-3.4,0.8c-0.4,0.1-0.7,0.1-1,0.2c-0.1,0-0.2,0-0.2,0.2
			c0,0.1,0,0.2,0,0.3c0,0,0,0.1,0,0.1C353.5,11,353.6,11.1,353.6,11.1z M359,4.9l0.3,1.2c0,0.2,0,0.4,0,0.6c0,0.1-0.1,0.2-0.1,0.3
			c-0.1,0.1-0.2,0.2-0.4,0.2c-0.1,0-0.2,0-0.4,0c-0.4-0.1-0.5-0.6-0.5-0.6l-1-4.1c0-0.1-0.1-0.4,0-0.7c0-0.2,0.2-0.3,0.4-0.4
			c0.3-0.1,0.5-0.1,0.7,0c0.1,0.1,0.2,0.2,0.2,0.3c0.1,0.1,0.1,0.3,0.2,0.5l0.2,0.8c0,0,0,0.2,0.1,0.4c0.1,0,0.8-0.2,0.9-0.2
			c0.3,0,0.5,0.1,0.5,0.3c0.1,0.2,0.2,0.4,0.1,0.6c-0.1,0.4-0.5,0.4-1,0.6L359,4.9z"/>
	</g>
	<g>
		<path d="M363.9,2.8l0,0.7l-0.2,4.1c0,0,0,1-0.1,1.5c0,0.3-0.1,0.7-0.5,0.9c-0.2,0-0.3,0.1-0.4,0.1c-0.2,0-0.3-0.1-0.4-0.3
			c-0.1-0.3-0.1-0.5-0.1-0.9l0-0.5c0-0.2,0-0.4,0-0.6l0.2-4c0-0.3,0-0.5,0-0.8c0-0.1,0-0.3-0.1-0.3c-0.1,0-0.2,0-0.3,0
			c-0.1,0-0.3,0-0.4,0c-0.2,0-0.4,0-0.5-0.1c-0.2-0.2-0.2-0.2-0.2-0.5c0-0.1,0-0.3,0.1-0.4c0-0.1,0.1-0.1,0.2-0.2
			c0.1-0.1,0.2-0.1,0.4-0.2c0.3,0,0.2-0.1,0.6,0c0.1,0,0.7,0,0.9,0.1l0.1,0c0.1,0,0.2,0,0.3,0l1.5,0.1c0.1,0,0.2,0,0.2,0
			c0.2,0,0.3,0.1,0.5,0.1c0.1,0.1,0.2,0.2,0.3,0.3c0.1,0.2,0.1,0.5,0.1,0.7c0,0.4,0,1-0.1,1.5L366,5l0.8,0.1l0.2-2.7
			c0-0.2,0-0.4,0.1-0.7c0-0.1,0.1-0.1,0.1-0.2c0.1-0.2,0.2-0.2,0.4-0.3c0.1,0,0.2,0,0.3,0c0.3,0,0.4,0.2,0.5,0.4
			c0.1,0.2,0.1,0.8,0.1,0.9c-0.3,6-0.4,7.1-0.4,7.1c0,0.4,0,0.6-0.2,1c-0.1,0.2-0.2,0.4-0.6,0.4c-0.1,0-0.3,0-0.4-0.1
			c-0.3-0.2-0.3-1-0.3-1.2l0.2-2.8l-0.8-0.1l-0.1,1.2c0,0.1,0,1-0.1,1.5c-0.1,0.5-0.3,0.9-0.9,0.9c-0.2,0-0.3-0.1-0.4-0.3
			c-0.1-0.3-0.1-0.5-0.1-0.9c0-0.2,0-0.4,0-0.5l0.3-4.6c0-0.3,0-0.5,0-0.8c0-0.1,0-0.4-0.4-0.3C364.1,2.9,364,2.9,363.9,2.8z
			 M369.6,10.9c-0.2,0.1-0.3,0.1-0.5,0.1c-0.5-0.1-0.5-0.7-0.5-1.1l0.4-7.3c0-0.4,0.1-1,0.3-1.2c0.2-0.1,0.3-0.2,0.5-0.2
			c0.3,0,0.5,0.2,0.6,0.5c0.1,0.4,0.1,0.7,0.1,1.1l0,0.1c0,1.3-0.1,2.5-0.2,3.7l-0.2,3c0,0.4,0,0.8-0.2,1.2
			C369.8,10.8,369.7,10.9,369.6,10.9z"/>
	</g>
</g>
<g>
	<g>
		<path d="M411.5,16c0.3,0.3,0.9,0.9,1.2,1.2c0.7,0,1.5,0.1,2.2,0.1c0.4,0,0.9,0.3,1.1,0.6c0.2,0.3,0,0.7-0.3,0.8
			c-0.5,0.2-0.9,0.1-1.4,0.1l-1,0l0.1,1.7c0,0.5,0,0.8-0.3,1c-0.5,0.5-1,0.1-1.2-0.5c0-0.1-0.1-0.2-0.1-0.3c-0.2,0-0.4,0-0.6,0
			l0.1,2c0,0.5-0.1,0.6-0.3,0.9c-0.5,0.5-1.1-0.1-1.2-0.6c-0.2-0.8-0.2-1.7-0.3-2.6l-1.2-1.2l-0.3,0.3c-0.3,0.3-0.7,0.9-1.3,0.6
			c-0.2-0.1-0.4-0.3-0.5-0.6c-0.1-0.2,0.1-0.5,0.2-0.7c0.2-0.2,0.5-0.5,1.9-2c0.1-0.1,0.2-0.2,0.4-0.4l0.2-0.2l0.1-0.1l1.8-1.8
			c0.5-0.5,0.7-0.6,1.1-0.5c0.3,0,0.7,0.5,0.6,0.8c-0.1,0.1-0.1,0.4-0.2,0.5c-0.2,0.2-0.2,0.1-0.3,0.3
			C411.7,15.8,411.6,15.8,411.5,16z M409.7,17.7l-0.2,0.2c0.4,0.4,0.8,0.9,1.2,1.2l0.7,0c-0.1-0.4-0.1-0.6-0.1-0.7l-1.2-1.2
			c0,0-0.1,0-0.1,0.1l-0.1,0.1C409.9,17.6,409.8,17.7,409.7,17.7z M419.5,17.9l0.6,0.6c0.1,0.1,0.6,0.6,0.7,0.7
			c0.1,0.1,0.3,0.3,0.5,0.5c0.3,0.3,0.2,0.8-0.1,1.1c-0.1,0.1-0.3,0.3-0.4,0.3c-0.5,0.3-0.9-0.1-1.2-0.4c-0.1-0.1-0.7-0.7-0.9-0.8
			c-0.1,0-0.2,0.1-0.8,0.7c-0.5,0.4-0.5,0.5-0.5,0.5l-3.9,3.9c0,0-0.5,0.3-0.9,0.1c-0.3-0.2-0.5-0.5-0.5-0.8c0-0.4,0.2-0.6,0.2-0.7
			l5.6-5.6C418.6,17.5,419.2,17.5,419.5,17.9z M416.5,14.8l1.2,1.2c0.1,0.2,0.3,0.4,0.4,0.6c0,0.1,0.1,0.3,0,0.4
			c0,0.2-0.1,0.3-0.2,0.5c-0.1,0.1-0.2,0.2-0.4,0.2c-0.5,0.1-0.9-0.2-0.9-0.2l-4-4c-0.1,0-0.4-0.4-0.5-0.7c-0.1-0.2,0-0.5,0.2-0.7
			c0.2-0.3,0.5-0.4,0.8-0.4c0.2,0,0.3,0.1,0.5,0.2c0.2,0.1,0.4,0.3,0.5,0.4l0.7,0.7c0,0,0.3,0.4,0.6,0.6c0.1-0.1,0.7-0.7,0.9-0.8
			c0.3-0.2,0.5-0.2,0.7-0.1c0.2,0.1,0.4,0.3,0.5,0.6c0.1,0.5-0.3,0.8-0.7,1.2L416.5,14.8z"/>
	</g>
	<g>
		<path d="M417.5,11.9c-0.1-0.1-0.2-0.2-0.2-0.4c0-0.4-0.1-0.6,0.6-1l2.5-1.8c0.8-0.5,1.4-0.6,1.9-0.3c0.4,0.3,0.6,0.6,0.9,1
			l0.1,0.2c0.1,0.2,0.5,0.7,0.6,0.8c0.2,0.3,0.5,0.6,0.7,1c0.2,0.3,0.5,1,0.3,1.4c-0.1,0.1-0.1,0.2-0.2,0.3
			c-0.3,0.2-0.7,0.1-1.1-0.2c-0.1-0.1-0.8-1-1.6-2.2l-0.3-0.4c-0.1-0.1-0.3-0.3-0.4-0.2c-0.1,0.1-0.3,0.1-0.3,0.1
			c-0.1,0.1-0.2,0.1-1.6,1.1c-0.1,0.1-0.2,0.2-0.3,0.2c-0.1,0.1-0.2,0.2-0.4,0.3c-0.2,0.1-0.3,0.2-0.5,0.2
			C417.9,12,417.7,12,417.5,11.9z M426.8,14.2c0,0.3-0.2,0.5-0.4,0.7l-4,2.8c0,0-0.4,0.2-0.6,0.3c-0.2,0-0.4-0.1-0.6-0.2
			c-0.2-0.2-0.3-0.4-0.2-0.7c0.1-0.4,0.4-0.6,0.6-0.8c0.1-0.1,0.4-0.3,0.9-0.6l-1.9-2.8c-0.1-0.2,0-0.4,0.1-0.6
			c0.1-0.1,0.1-0.1,0.2-0.2c0.3-0.2,0.7-0.2,0.9,0c0.1,0.1,1.8,2.5,2,2.7l0,0c0.1,0,1-0.7,1.6-1.2c0.2-0.2,0.4-0.2,0.6-0.3
			C426.4,13.4,426.8,13.9,426.8,14.2z M426.6,8.7c0.1-0.1,0.2-0.1,0.3-0.1c0.2-0.1,0.4-0.1,0.6,0c0.1,0.1,0.2,0.1,0.3,0.2
			c0.1,0.1,0.1,0.2,0.2,0.3c0,0.1,0.1,0.3,0.1,0.4c0,0.1-0.1,0.2-0.2,0.3c-0.2,0.2-0.5,0.4-0.8,0.6c0.4,0.6,1.1,1.5,1.5,2.2
			c0.3,0.4,0.6,0.9,0.6,1.3c0,0.1-0.1,0.3-0.3,0.4c-0.7,0.4-1.3-0.3-1.6-0.7l-4.3-6c0,0-0.4-0.5-0.3-0.9c0-0.2,0.2-0.4,0.4-0.5
			c0.2-0.1,0.3-0.1,0.5-0.1c0.3,0.1,0.5,0.3,0.6,0.5c0.4,0.4,1.8,2.3,1.9,2.6L426.6,8.7z"/>
	</g>
	<g>
		<path d="M435.5,7.3c-1.4,1.6-4.4,1.3-4.9-0.8c-0.1-0.6-0.1-1.2,0.2-1.7l-0.2,0.1c-0.4,0.1-0.8-0.1-0.9-0.5
			c-0.1-0.4,0.2-0.7,0.6-0.8l1.6-0.4l-0.1-0.4c-0.1-0.3,0.2-0.6,0.6-0.7c0.4-0.1,0.8,0.1,0.8,0.4l0.1,0.4l1.7-0.4
			c0.4-0.1,0.8,0.1,0.9,0.5c0.1,0.3-0.2,0.7-0.6,0.8l-0.1,0c0.4,0.3,0.8,0.8,0.9,1.4C436.2,6,436,6.7,435.5,7.3z M432.7,12.6
			c-0.2-0.1-0.3-0.4-0.3-0.6c-0.1-0.3-0.2-0.6-0.2-0.8c-0.1-0.4-0.2-0.8-0.2-1.2c0-0.3,0.1-0.4,0.3-0.6c0.2-0.1,0.4-0.2,0.6-0.3
			l5.7-1.3c0.3-0.1,0.6-0.1,1-0.1c0.3,0.1,0.5,0.4,0.6,0.7c0.2,0.5,0.4,1.5,0.4,2.1c0,0.2,0,0.3-0.2,0.5c-0.2,0.1-0.4,0.2-0.5,0.2
			l-6.3,1.4C433.2,12.6,432.9,12.7,432.7,12.6C432.7,12.6,432.7,12.6,432.7,12.6z M434.5,5.6c-0.3-1.4-2.7-0.9-2.4,0.6
			c0.2,0.9,1,0.9,1.7,0.7C434.2,6.6,434.6,6.2,434.5,5.6z M433.6,11.1c0.1,0,0.3-0.1,0.3-0.1l3.8-0.9c0,0,0.6-0.1,0.9-0.2
			c0.2,0,0.1-0.1,0.1-0.3c0-0.1,0-0.3-0.2-0.4c-0.1-0.1-0.4,0-0.5,0l-3.4,0.8c-0.4,0.1-0.7,0.1-1,0.2c-0.1,0-0.2,0-0.2,0.2
			c0,0.1,0,0.2,0,0.3c0,0,0,0.1,0,0.1C433.5,11,433.6,11.1,433.6,11.1z M439,4.9l0.3,1.2c0,0.2,0,0.4,0,0.6c0,0.1-0.1,0.2-0.1,0.3
			c-0.1,0.1-0.2,0.2-0.4,0.2c-0.1,0-0.2,0-0.4,0c-0.4-0.1-0.5-0.6-0.5-0.6l-1-4.1c0-0.1-0.1-0.4,0-0.7c0-0.2,0.2-0.3,0.4-0.4
			c0.3-0.1,0.5-0.1,0.7,0c0.1,0.1,0.2,0.2,0.2,0.3c0.1,0.1,0.1,0.3,0.2,0.5l0.2,0.8c0,0,0,0.2,0.1,0.4c0.1,0,0.8-0.2,0.9-0.2
			c0.3,0,0.5,0.1,0.5,0.3c0.1,0.2,0.2,0.4,0.1,0.6c-0.1,0.4-0.5,0.4-1,0.6L439,4.9z"/>
	</g>
	<g>
		<path d="M443.9,2.8l0,0.7l-0.2,4.1c0,0,0,1-0.1,1.5c0,0.3-0.1,0.7-0.5,0.9c-0.2,0-0.3,0.1-0.4,0.1c-0.2,0-0.3-0.1-0.4-0.3
			c-0.1-0.3-0.1-0.5-0.1-0.9l0-0.5c0-0.2,0-0.4,0-0.6l0.2-4c0-0.3,0-0.5,0-0.8c0-0.1,0-0.3-0.1-0.3c-0.1,0-0.2,0-0.3,0
			c-0.1,0-0.3,0-0.4,0c-0.2,0-0.4,0-0.5-0.1c-0.2-0.2-0.2-0.2-0.2-0.5c0-0.1,0-0.3,0.1-0.4c0-0.1,0.1-0.1,0.2-0.2
			c0.1-0.1,0.2-0.1,0.4-0.2c0.3,0,0.2-0.1,0.6,0c0.1,0,0.7,0,0.9,0.1l0.1,0c0.1,0,0.2,0,0.3,0l1.5,0.1c0.1,0,0.2,0,0.2,0
			c0.2,0,0.3,0.1,0.5,0.1c0.1,0.1,0.2,0.2,0.3,0.3c0.1,0.2,0.1,0.5,0.1,0.7c0,0.4,0,1-0.1,1.5L446,5l0.8,0.1l0.2-2.7
			c0-0.2,0-0.4,0.1-0.7c0-0.1,0.1-0.1,0.1-0.2c0.1-0.2,0.2-0.2,0.4-0.3c0.1,0,0.2,0,0.3,0c0.3,0,0.4,0.2,0.5,0.4
			c0.1,0.2,0.1,0.8,0.1,0.9c-0.3,6-0.4,7.1-0.4,7.1c0,0.4,0,0.6-0.2,1c-0.1,0.2-0.2,0.4-0.6,0.4c-0.1,0-0.3,0-0.4-0.1
			c-0.3-0.2-0.3-1-0.3-1.2l0.2-2.8l-0.8-0.1l-0.1,1.2c0,0.1,0,1-0.1,1.5c-0.1,0.5-0.3,0.9-0.9,0.9c-0.2,0-0.3-0.1-0.4-0.3
			c-0.1-0.3-0.1-0.5-0.1-0.9c0-0.2,0-0.4,0-0.5l0.3-4.6c0-0.3,0-0.5,0-0.8c0-0.1,0-0.4-0.4-0.3C444.1,2.9,444,2.9,443.9,2.8z
			 M449.6,10.9c-0.2,0.1-0.3,0.1-0.5,0.1c-0.5-0.1-0.5-0.7-0.5-1.1l0.4-7.3c0-0.4,0.1-1,0.3-1.2c0.2-0.1,0.3-0.2,0.5-0.2
			c0.3,0,0.5,0.2,0.6,0.5c0.1,0.4,0.1,0.7,0.1,1.1l0,0.1c0,1.3-0.1,2.5-0.2,3.7l-0.2,3c0,0.4,0,0.8-0.2,1.2
			C449.8,10.8,449.7,10.9,449.6,10.9z"/>
	</g>
</g>
<g>
	<path d="M11.5,16c0.3,0.3,0.9,0.9,1.2,1.2c0.7,0,1.5,0.1,2.2,0.1c0.4,0,0.9,0.3,1.1,0.6c0.2,0.3,0,0.7-0.3,0.8
		c-0.5,0.2-0.9,0.1-1.4,0.1l-1,0l0.1,1.7c0,0.5,0,0.8-0.3,1c-0.5,0.5-1,0.1-1.2-0.5c0-0.1-0.1-0.2-0.1-0.3c-0.2,0-0.4,0-0.6,0l0.1,2
		c0,0.5-0.1,0.6-0.3,0.9c-0.5,0.5-1.1-0.1-1.2-0.6c-0.2-0.8-0.2-1.7-0.3-2.6l-1.2-1.2l-0.3,0.3c-0.3,0.3-0.7,0.9-1.3,0.6
		c-0.2-0.1-0.4-0.3-0.5-0.6c-0.1-0.2,0.1-0.5,0.2-0.7c0.2-0.2,0.5-0.5,1.9-2c0.1-0.1,0.2-0.2,0.4-0.4l0.2-0.2l0.1-0.1l1.8-1.8
		c0.5-0.5,0.7-0.6,1.1-0.5c0.3,0,0.7,0.5,0.6,0.8c-0.1,0.1-0.1,0.4-0.2,0.5c-0.2,0.2-0.2,0.1-0.3,0.3C11.7,15.8,11.6,15.8,11.5,16z
		 M9.7,17.7l-0.2,0.2c0.4,0.4,0.8,0.9,1.2,1.2l0.7,0c-0.1-0.4-0.1-0.6-0.1-0.7l-1.2-1.2c0,0-0.1,0-0.1,0.1L10,17.5
		C9.9,17.6,9.8,17.7,9.7,17.7z M19.5,17.9l0.6,0.6c0.1,0.1,0.6,0.6,0.7,0.7c0.1,0.1,0.3,0.3,0.5,0.5c0.3,0.3,0.2,0.8-0.1,1.1
		c-0.1,0.1-0.3,0.3-0.4,0.3c-0.5,0.3-0.9-0.1-1.2-0.4c-0.1-0.1-0.7-0.7-0.9-0.8c-0.1,0-0.2,0.1-0.8,0.7c-0.5,0.4-0.5,0.5-0.5,0.5
		L13.6,25c0,0-0.5,0.3-0.9,0.1c-0.3-0.2-0.5-0.5-0.5-0.8c0-0.4,0.2-0.6,0.2-0.7l5.6-5.6C18.6,17.5,19.2,17.5,19.5,17.9z M16.5,14.8
		l1.2,1.2c0.1,0.2,0.3,0.4,0.4,0.6c0,0.1,0.1,0.3,0,0.4c0,0.2-0.1,0.3-0.2,0.5c-0.1,0.1-0.2,0.2-0.4,0.2c-0.5,0.1-0.9-0.2-0.9-0.2
		l-4-4c-0.1,0-0.4-0.4-0.5-0.7c-0.1-0.2,0-0.5,0.2-0.7c0.2-0.3,0.5-0.4,0.8-0.4c0.2,0,0.3,0.1,0.5,0.2c0.2,0.1,0.4,0.3,0.5,0.4
		l0.7,0.7c0,0,0.3,0.4,0.6,0.6c0.1-0.1,0.7-0.7,0.9-0.8c0.3-0.2,0.5-0.2,0.7-0.1c0.2,0.1,0.4,0.3,0.5,0.6c0.1,0.5-0.3,0.8-0.7,1.2
		L16.5,14.8z"/>
</g>
<g>
	<path d="M17.5,11.9c-0.1-0.1-0.2-0.2-0.2-0.4c0-0.4-0.1-0.6,0.6-1l2.5-1.8c0.8-0.5,1.4-0.6,1.9-0.3c0.4,0.3,0.6,0.6,0.9,1l0.1,0.2
		c0.1,0.2,0.5,0.7,0.6,0.8c0.2,0.3,0.5,0.6,0.7,1c0.2,0.3,0.5,1,0.3,1.4c-0.1,0.1-0.1,0.2-0.2,0.3c-0.3,0.2-0.7,0.1-1.1-0.2
		c-0.1-0.1-0.8-1-1.6-2.2l-0.3-0.4c-0.1-0.1-0.3-0.3-0.4-0.2c-0.1,0.1-0.3,0.1-0.3,0.1c-0.1,0.1-0.2,0.1-1.6,1.1
		c-0.1,0.1-0.2,0.2-0.3,0.2c-0.1,0.1-0.2,0.2-0.4,0.3c-0.2,0.1-0.3,0.2-0.5,0.2C17.9,12,17.7,12,17.5,11.9z M26.8,14.2
		c0,0.3-0.2,0.5-0.4,0.7l-4,2.8c0,0-0.4,0.2-0.6,0.3c-0.2,0-0.4-0.1-0.6-0.2c-0.2-0.2-0.3-0.4-0.2-0.7c0.1-0.4,0.4-0.6,0.6-0.8
		c0.1-0.1,0.4-0.3,0.9-0.6l-1.9-2.8c-0.1-0.2,0-0.4,0.1-0.6c0.1-0.1,0.1-0.1,0.2-0.2c0.3-0.2,0.7-0.2,0.9,0c0.1,0.1,1.8,2.5,2,2.7
		l0,0c0.1,0,1-0.7,1.6-1.2c0.2-0.2,0.4-0.2,0.6-0.3C26.4,13.4,26.8,13.9,26.8,14.2z M26.6,8.7c0.1-0.1,0.2-0.1,0.3-0.1
		c0.2-0.1,0.4-0.1,0.6,0c0.1,0.1,0.2,0.1,0.3,0.2c0.1,0.1,0.1,0.2,0.2,0.3c0,0.1,0.1,0.3,0.1,0.4c0,0.1-0.1,0.2-0.2,0.3
		c-0.2,0.2-0.5,0.4-0.8,0.6c0.4,0.6,1.1,1.5,1.5,2.2c0.3,0.4,0.6,0.9,0.6,1.3c0,0.1-0.1,0.3-0.3,0.4c-0.7,0.4-1.3-0.3-1.6-0.7
		l-4.3-6c0,0-0.4-0.5-0.3-0.9c0-0.2,0.2-0.4,0.4-0.5C23.1,6,23.3,6,23.4,6c0.3,0.1,0.5,0.3,0.6,0.5c0.4,0.4,1.8,2.3,1.9,2.6
		L26.6,8.7z"/>
</g>
<g>
	<path d="M35.5,7.3c-1.4,1.6-4.4,1.3-4.9-0.8c-0.1-0.6-0.1-1.2,0.2-1.7l-0.2,0.1c-0.4,0.1-0.8-0.1-0.9-0.5c-0.1-0.4,0.2-0.7,0.6-0.8
		l1.6-0.4l-0.1-0.4c-0.1-0.3,0.2-0.6,0.6-0.7c0.4-0.1,0.8,0.1,0.8,0.4l0.1,0.4l1.7-0.4c0.4-0.1,0.8,0.1,0.9,0.5
		c0.1,0.3-0.2,0.7-0.6,0.8l-0.1,0c0.4,0.3,0.8,0.8,0.9,1.4C36.2,6,36,6.7,35.5,7.3z M32.7,12.6c-0.2-0.1-0.3-0.4-0.3-0.6
		c-0.1-0.3-0.2-0.6-0.2-0.8c-0.1-0.4-0.2-0.8-0.2-1.2c0-0.3,0.1-0.4,0.3-0.6c0.2-0.1,0.4-0.2,0.6-0.3l5.7-1.3c0.3-0.1,0.6-0.1,1-0.1
		C39.8,7.7,39.9,8,40,8.4c0.2,0.5,0.4,1.5,0.4,2.1c0,0.2,0,0.3-0.2,0.5c-0.2,0.1-0.4,0.2-0.5,0.2l-6.3,1.4
		C33.2,12.6,32.9,12.7,32.7,12.6C32.7,12.6,32.7,12.6,32.7,12.6z M34.5,5.6c-0.3-1.4-2.7-0.9-2.4,0.6c0.2,0.9,1,0.9,1.7,0.7
		C34.2,6.6,34.6,6.2,34.5,5.6z M33.6,11.1c0.1,0,0.3-0.1,0.3-0.1l3.8-0.9c0,0,0.6-0.1,0.9-0.2c0.2,0,0.1-0.1,0.1-0.3
		c0-0.1,0-0.3-0.2-0.4c-0.1-0.1-0.4,0-0.5,0l-3.4,0.8c-0.4,0.1-0.7,0.1-1,0.2c-0.1,0-0.2,0-0.2,0.2c0,0.1,0,0.2,0,0.3
		c0,0,0,0.1,0,0.1C33.5,11,33.6,11.1,33.6,11.1z M39,4.9l0.3,1.2c0,0.2,0,0.4,0,0.6c0,0.1-0.1,0.2-0.1,0.3c-0.1,0.1-0.2,0.2-0.4,0.2
		c-0.1,0-0.2,0-0.4,0c-0.4-0.1-0.5-0.6-0.5-0.6l-1-4.1c0-0.1-0.1-0.4,0-0.7c0-0.2,0.2-0.3,0.4-0.4c0.3-0.1,0.5-0.1,0.7,0
		c0.1,0.1,0.2,0.2,0.2,0.3c0.1,0.1,0.1,0.3,0.2,0.5l0.2,0.8c0,0,0,0.2,0.1,0.4c0.1,0,0.8-0.2,0.9-0.2c0.3,0,0.5,0.1,0.5,0.3
		c0.1,0.2,0.2,0.4,0.1,0.6c-0.1,0.4-0.5,0.4-1,0.6L39,4.9z"/>
</g>
<g>
	<path d="M43.9,2.8l0,0.7l-0.2,4.1c0,0,0,1-0.1,1.5c0,0.3-0.1,0.7-0.5,0.9c-0.2,0-0.3,0.1-0.4,0.1c-0.2,0-0.3-0.1-0.4-0.3
		c-0.1-0.3-0.1-0.5-0.1-0.9l0-0.5c0-0.2,0-0.4,0-0.6l0.2-4c0-0.3,0-0.5,0-0.8c0-0.1,0-0.3-0.1-0.3c-0.1,0-0.2,0-0.3,0
		c-0.1,0-0.3,0-0.4,0c-0.2,0-0.4,0-0.5-0.1c-0.2-0.2-0.2-0.2-0.2-0.5c0-0.1,0-0.3,0.1-0.4c0-0.1,0.1-0.1,0.2-0.2
		c0.1-0.1,0.2-0.1,0.4-0.2c0.3,0,0.2-0.1,0.6,0c0.1,0,0.7,0,0.9,0.1l0.1,0c0.1,0,0.2,0,0.3,0L45,1.4c0.1,0,0.2,0,0.2,0
		c0.2,0,0.3,0.1,0.5,0.1c0.1,0.1,0.2,0.2,0.3,0.3c0.1,0.2,0.1,0.5,0.1,0.7c0,0.4,0,1-0.1,1.5L46,5l0.8,0.1L47,2.3
		c0-0.2,0-0.4,0.1-0.7c0-0.1,0.1-0.1,0.1-0.2c0.1-0.2,0.2-0.2,0.4-0.3c0.1,0,0.2,0,0.3,0c0.3,0,0.4,0.2,0.5,0.4
		c0.1,0.2,0.1,0.8,0.1,0.9c-0.3,6-0.4,7.1-0.4,7.1c0,0.4,0,0.6-0.2,1c-0.1,0.2-0.2,0.4-0.6,0.4c-0.1,0-0.3,0-0.4-0.1
		c-0.3-0.2-0.3-1-0.3-1.2l0.2-2.8l-0.8-0.1l-0.1,1.2c0,0.1,0,1-0.1,1.5c-0.1,0.5-0.3,0.9-0.9,0.9c-0.2,0-0.3-0.1-0.4-0.3
		c-0.1-0.3-0.1-0.5-0.1-0.9c0-0.2,0-0.4,0-0.5L44.6,4c0-0.3,0-0.5,0-0.8c0-0.1,0-0.4-0.4-0.3C44.1,2.9,44,2.9,43.9,2.8z M49.6,10.9
		C49.4,11,49.3,11,49.1,11c-0.5-0.1-0.5-0.7-0.5-1.1L49,2.6c0-0.4,0.1-1,0.3-1.2c0.2-0.1,0.3-0.2,0.5-0.2c0.3,0,0.5,0.2,0.6,0.5
		c0.1,0.4,0.1,0.7,0.1,1.1l0,0.1c0,1.3-0.1,2.5-0.2,3.7l-0.2,3c0,0.4,0,0.8-0.2,1.2C49.8,10.8,49.7,10.9,49.6,10.9z"/>
</g>
</svg>
