<?xml version="1.0" encoding="utf-8"?>
<!-- Generator: Adobe Illustrator 23.0.0, SVG Export Plug-In . SVG Version: 6.00 Build 0)  -->
<svg version="1.1" id="레이어_1" xmlns="http://www.w3.org/2000/svg" xmlns:xlink="http://www.w3.org/1999/xlink" x="0px"
	 y="0px" width="43.9px" height="45.2px" viewBox="0 0 43.9 45.2" style="enable-background:new 0 0 43.9 45.2;"
	 xml:space="preserve">
<g>
	<g>
		<path style="fill:#FDD000;" d="M43.9,44.1c0,0.6-0.5,1.1-1.1,1.1H1.1c-0.6,0-1.1-0.5-1.1-1.1v-43C0,0.5,0.5,0,1.1,0h41.7
			c0.6,0,1.1,0.5,1.1,1.1C43.9,1.1,43.9,44.1,43.9,44.1z"/>
	</g>
	<g>
		<path style="fill:#FFFFFF;" d="M39.7,40.5c0,0.6-0.5,1.1-1.1,1.1H4.3c-0.6,0-1.1-0.5-1.1-1.1V5c0-0.6,0.5-1.1,1.1-1.1h34.3
			c0.6,0,1.1,0.5,1.1,1.1C39.7,5,39.7,40.5,39.7,40.5z"/>
	</g>
	<g>
		<path style="fill:#0097E1;" d="M8.4,13.4c-0.3-0.1-0.6-0.2-0.7-0.5c-0.1-0.2-0.2-0.4-0.2-0.6c0-0.2,0-0.4,0-0.6
			c0.1-0.4,0.4-0.7,0.8-0.9c0.1,0,0.2-0.1,0.3-0.1s0.2-0.1,0.3-0.1c0.3-0.1,0.5-0.1,0.7-0.1s0.4,0,0.7,0h0.3c0.1,0,0.2,0,0.3,0
			s0.2,0,0.3,0s0.2,0,0.4,0h0.6h1.1c0.4,0,0.9,0,1.3,0c0.5,0,0.9,0,1.3,0c0.4,0,0.8,0,1.1,0c0.3,0,0.5,0,0.6,0c0.2,0,0.4,0,0.7,0H19
			c0.3,0,0.5,0,0.8,0s0.5,0,0.8,0.1c0.1,0,0.2,0.1,0.4,0.1c0.1,0,0.2,0.1,0.4,0.1c0.2,0.1,0.3,0.2,0.4,0.4s0.2,0.4,0.2,0.5
			c0.1,0.2,0.1,0.4,0.1,0.6c0,0.2,0,0.4,0,0.5c0,0.2,0,0.4,0,0.6c0,0.2,0,0.4,0,0.6c0,0.1,0,0.3,0,0.6c0,0.2,0,0.5,0,0.7
			s0,0.5,0,0.7c0,0.2,0,0.4,0,0.6c0,0.6,0,1.2,0,1.8c0,0.6,0,1.2,0,1.8c0,0.2,0,0.5-0.1,0.7c0,0.2-0.1,0.4-0.3,0.6
			c-0.2,0.2-0.4,0.3-0.6,0.4s-0.5,0.1-0.7,0c-0.3-0.1-0.5-0.2-0.6-0.4c-0.1-0.2-0.2-0.4-0.3-0.6c-0.1-0.2-0.1-0.5-0.1-0.8
			s0-0.5-0.1-0.8C19,18.7,19,18.1,19,17.5v-0.6c0-0.3,0-0.5,0-0.8c0-0.3,0-0.5,0-0.8s0-0.5,0-0.6c0-0.2,0-0.5,0-0.7
			s-0.1-0.4-0.4-0.5c-0.1,0-0.2-0.1-0.3-0.1h-0.4h-0.5c-0.1,0-0.1,0-0.2,0s-0.1,0-0.2,0h-2.5c-0.3,0-0.6,0-0.9,0c-0.3,0-0.6,0-0.9,0
			c-0.3,0-0.6,0-0.9,0c-0.3,0-0.6,0-0.9,0c-0.1,0-0.2,0-0.3,0s-0.2,0-0.3,0H9.2C9,13.5,8.7,13.4,8.4,13.4"/>
	</g>
	<g>
		<path style="fill:#FF6600;" d="M28.3,17.3c0.1,0,0.1,0,0.2,0s0.1,0,0.2,0s0.2,0,0.2,0c0.1,0,0.2,0,0.3,0c0.2,0,0.3,0.1,0.5,0.2
			s0.3,0.2,0.4,0.4c0.1,0.2,0.2,0.4,0.2,0.6c0,0.1,0,0.2,0,0.3c0,0.1,0,0.2-0.1,0.3c0,0.1-0.1,0.2-0.1,0.4c0,0.1-0.1,0.2-0.2,0.3
			c-0.2,0.1-0.4,0.2-0.6,0.3c-0.2,0-0.5,0-0.9,0c-0.3,0-0.6,0-0.9,0l0,0l0,0l0,0v0.1c0,0.4,0,0.7,0,1s0,0.7,0,1.1c0,0.8,0,1.5,0,2.2
			v0.3c0,0.2,0,0.4,0,0.6s0,0.4-0.1,0.7c0,0.2-0.1,0.4-0.2,0.6s-0.2,0.4-0.3,0.5c-0.2,0.2-0.4,0.3-0.7,0.3l0,0
			c-0.4,0-0.6-0.1-0.8-0.3c-0.2-0.2-0.4-0.4-0.5-0.7c-0.1-0.3-0.2-0.6-0.2-0.9s0-0.6,0-0.8v-13v-0.2c0-0.1,0-0.3,0-0.4
			c0-0.2,0.1-0.3,0.1-0.5c0.1-0.2,0.2-0.3,0.3-0.4c0.1-0.1,0.3-0.2,0.4-0.2C25.7,10,25.9,10,26,10c0.3,0,0.6,0.1,0.8,0.3
			c0.2,0.2,0.3,0.4,0.4,0.6c0,0.2,0.1,0.5,0.1,0.7c0,0.1,0,0.1,0,0.3s0,0.5,0.1,0.8c0,0.3,0,0.5,0,0.8c0,0.2,0,0.3,0,0.5
			s0,0.3,0,0.5c0,0.1,0,0.2,0,0.3s0,0.2,0,0.2v1.9V17c0,0.1,0,0.2,0,0.2s0.1,0,0.2,0H28C28.1,17.3,28.2,17.3,28.3,17.3L28.3,17.3z"
			/>
	</g>
	<g>
		<path style="fill:#0097E1;" d="M34.4,26.6c0.2,0.1,0.3,0.3,0.4,0.5c0.1,0.2,0.2,0.5,0.2,0.7s0.1,0.5,0.1,0.6c0,0.2,0,0.3,0,0.3
			v4.1c0,0.3,0,0.7,0,1s0,0.7-0.1,1c0,0.2-0.1,0.4-0.2,0.6c-0.1,0.2-0.2,0.4-0.4,0.5s-0.5,0.2-0.9,0.2c-0.3,0-0.6,0-0.9,0
			c-0.3,0-0.6,0-0.9,0s-0.6,0-0.9,0h-0.6c-0.2,0-0.5,0-0.7,0s-0.5,0-0.7,0c-1.1,0-2.2,0-3.3,0c-0.4,0-0.8,0-1.1,0
			c-0.4,0-0.7,0-1.1,0s-0.7-0.1-1-0.3s-0.5-0.4-0.6-0.9c-0.1-0.4-0.1-0.8-0.2-1.2c0-0.4,0-0.7-0.1-1c0-0.3,0-0.7,0-1
			c0-0.4,0-0.7,0-1.2l0,0c0-0.1,0-0.2,0-0.4c0-0.1,0-0.3,0-0.4v-0.8c0-0.2,0-0.4,0-0.6s0-0.5,0-0.7s0.1-0.4,0.2-0.6s0.2-0.3,0.4-0.5
			c0.5-0.2,1-0.4,1.5-0.4c0.6,0,1.1-0.1,1.6-0.1h7.1c0,0,0.1,0,0.3,0s0.3,0,0.5,0.1c0.2,0,0.4,0.1,0.6,0.1
			C34.1,26.4,34.3,26.5,34.4,26.6 M26,33.4c0.1,0,0.2,0,0.3,0c0.1,0,0.2,0,0.3,0h2.7c0.4,0,0.7,0,0.9,0c0.2,0,0.5,0,0.9,0
			c0.1,0,0.3,0,0.4,0s0.3,0,0.4-0.1c0.1,0,0.2-0.1,0.2-0.3c0-0.1,0.1-0.3,0.1-0.4c0-0.2,0-0.3,0-0.5s0-0.3,0-0.4V31l0,0v-0.1v-0.1
			c0-0.1,0-0.1,0-0.1c0-0.2,0-0.4,0-0.5c0-0.2,0-0.3-0.1-0.5c-0.1-0.2-0.3-0.2-0.6-0.3c-0.3,0-0.5,0-0.7,0h-4.3c-0.2,0-0.4,0-0.6,0
			s-0.3,0-0.5,0s-0.3,0-0.4,0s-0.3,0.1-0.3,0.1c-0.1,0.1-0.1,0.1-0.2,0.2c0,0.1-0.1,0.1-0.1,0.2s0,0.1,0,0.2V31v0.2
			c0,0.1,0,0.1,0,0.2c0,0.5,0,1,0.1,1.5c0,0.2,0.1,0.3,0.2,0.4c0.1,0.1,0.3,0.1,0.4,0.2c0.2,0,0.3,0,0.5,0
			C25.7,33.4,25.9,33.4,26,33.4"/>
	</g>
	<g>
		<path style="fill:#FF6600;" d="M17,33.9c0,0.4,0,0.8-0.1,1.2s-0.2,0.7-0.6,0.9c-0.2,0.1-0.5,0.2-0.7,0.2s-0.4-0.1-0.6-0.3
			c-0.2-0.2-0.3-0.4-0.3-0.6c-0.1-0.2-0.1-0.5-0.2-0.8c0-0.3,0-0.5,0-0.7V29h-1.4v5c0,0.3,0,0.7,0,1c-0.1,0.4-0.1,0.6-0.3,0.8
			s-0.4,0.4-0.8,0.4c-0.2,0-0.3,0-0.4-0.1c-0.1-0.1-0.3-0.2-0.4-0.3c-0.2-0.2-0.4-0.5-0.4-0.9s-0.1-0.7-0.1-1V21.2
			c0-0.2,0-0.4,0-0.7c0-0.2,0.1-0.5,0.1-0.7s0.2-0.4,0.3-0.6s0.3-0.3,0.6-0.3c0.3-0.1,0.6,0,0.8,0.2s0.3,0.4,0.4,0.7
			c0.1,0.3,0.1,0.6,0.2,1c0,0.3,0,0.7,0,1.1v1v3.4h1.4v-4.9v-0.7c0-0.3,0-0.5,0.1-0.8s0.2-0.5,0.3-0.7c0.2-0.2,0.4-0.3,0.7-0.3
			s0.6,0.1,0.8,0.3c0.2,0.2,0.3,0.4,0.4,0.7c0.1,0.3,0.1,0.6,0.2,0.9c0,0.3,0,0.7,0,1s0,0.6,0,0.8V33.9z"/>
	</g>
</g>
</svg>
