<?xml version="1.0" encoding="utf-8"?>
<!-- Generator: Adobe Illustrator 23.0.0, SVG Export Plug-In . SVG Version: 6.00 Build 0)  -->
<svg version="1.1" id="Capa_1" xmlns="http://www.w3.org/2000/svg" xmlns:xlink="http://www.w3.org/1999/xlink" x="0px" y="0px"
	 width="179.6px" height="174.2px" viewBox="0 0 179.6 174.2" style="enable-background:new 0 0 179.6 174.2;" xml:space="preserve"
	>
<style type="text/css">
	.st0{fill:#FFFFFF;}
	.st1{fill:#FCEE8B;}
</style>
<g>
	<path class="st0" d="M172,88.4l-16.6,16.2c-5.1,5-7.5,12.2-6.3,19.2l3.9,22.9c3,17.8-15.6,31.3-31.5,22.9L101,158.8
		c-6.3-3.3-13.9-3.3-20.2,0l-20.6,10.8c-15.9,8.4-34.6-5.2-31.5-22.9l3.9-22.9c1.2-7.1-1.1-14.2-6.3-19.2L9.7,88.4
		c-12.9-12.6-5.8-34.5,12-37.1l23-3.3c7.1-1,13.2-5.5,16.4-11.9l10.3-20.8c4-8.1,11.7-12.1,19.5-12.1s15.5,4,19.5,12.1l10.3,20.8
		c3.2,6.4,9.3,10.9,16.4,11.9l23,3.3C177.8,53.9,184.9,75.8,172,88.4z"/>
	<path class="st1" d="M38.1,91.2c6.8,17.3,16.9,28.9,9.8,45.2s-3.5,37.8,32.8,22.4l-20.6,10.8c-15.9,8.4-34.6-5.2-31.5-22.9
		l3.9-22.9c1.2-7.1-1.1-14.2-6.3-19.2L9.7,88.4c-12.9-12.6-5.8-34.5,12-37.1l23-3.3c7.1-1,13.2-5.5,16.4-11.9l10.3-20.8
		c4-8.1,11.7-12.1,19.5-12.1c-15.3,0-8.9,44.1-30.8,55.7C38.1,70.4,31.3,73.9,38.1,91.2L38.1,91.2z"/>
</g>
</svg>
