<?xml version="1.0" encoding="utf-8"?>
<!-- Generator: Adobe Illustrator 23.0.0, SVG Export Plug-In . SVG Version: 6.00 Build 0)  -->
<svg version="1.1" xmlns="http://www.w3.org/2000/svg" xmlns:xlink="http://www.w3.org/1999/xlink" x="0px" y="0px" width="59.9px"
	 height="59.4px" viewBox="0 0 59.9 59.4" style="enable-background:new 0 0 59.9 59.4;" xml:space="preserve">
<g id="레이어_1">
	<g>
		<path style="display:none;fill:#FFFFFF;" d="M0.6,29.7c0-16.2,13.1-29.3,29.3-29.3s29.3,13.1,29.3,29.3
			c0,16.2-13.1,29.3-29.3,29.3S0.6,45.9,0.6,29.7"/>
		<path style="fill:#FF6600;" d="M29.9,0.4C13.7,0.4,0.6,13.5,0.6,29.7s13.1,29.3,29.3,29.3c16.2,0,29.4-13.1,29.4-29.3
			S46.1,0.4,29.9,0.4 M29.9,55C16,55,4.7,43.7,4.7,29.7C4.7,15.8,16,4.5,29.9,4.5c13.9,0,25.3,11.3,25.3,25.2
			C55.2,43.7,43.9,55,29.9,55"/>
		<path style="display:none;fill:#EDD1B2;" d="M31.8,30.1v-1.7l16-16.6c0,0,10.4,9.7,6.6,24.2S37,59.1,20.1,53c0,0-16-4.8-15.2-26.1
			c0,0,0.5-8.9,7.3-15L31.8,30.1z"/>
		<path style="fill:#F6E7D4;" d="M29.9,12.3c-0.6,0-1-0.4-1-1V8.1c0-0.6,0.4-1,1-1c0.6,0,1,0.4,1,1v3.1
			C30.9,11.8,30.5,12.3,29.9,12.3"/>
		<path style="fill:#F6E7D4;" d="M29.9,53.1c-0.6,0-1-0.4-1-1V49c0-0.6,0.4-1,1-1c0.6,0,1,0.4,1,1v3.1
			C30.9,52.7,30.5,53.1,29.9,53.1"/>
		<path style="fill:#F6E7D4;" d="M43.3,17.8c-0.3,0-0.5-0.1-0.7-0.3c-0.4-0.4-0.4-1,0-1.4l2.2-2.2c0.4-0.4,1-0.4,1.4,0
			c0.4,0.4,0.4,1,0,1.4L44,17.5C43.8,17.7,43.5,17.8,43.3,17.8"/>
		<path style="fill:#F6E7D4;" d="M14.4,46.7c-0.3,0-0.5-0.1-0.7-0.3c-0.4-0.4-0.4-1,0-1.4l2.2-2.2c0.4-0.4,1-0.4,1.4,0
			c0.4,0.4,0.4,1,0,1.4l-2.2,2.2C14.9,46.6,14.6,46.7,14.4,46.7"/>
		<path style="fill:#F6E7D4;" d="M45.5,46.7c-0.3,0-0.5-0.1-0.7-0.3l-2.2-2.2c-0.4-0.4-0.4-1,0-1.4c0.4-0.4,1-0.4,1.4,0l2.2,2.2
			c0.4,0.4,0.4,1,0,1.4C46,46.6,45.7,46.7,45.5,46.7"/>
		<path style="fill:#F6E7D4;" d="M16.6,17.8c-0.3,0-0.5-0.1-0.7-0.3l-2.2-2.2c-0.4-0.4-0.4-1,0-1.4c0.4-0.4,1-0.4,1.4,0l2.2,2.2
			c0.4,0.4,0.4,1,0,1.4C17.1,17.7,16.9,17.8,16.6,17.8"/>
		<path style="fill:#FDD000;" d="M27.6,28.7c-0.3,0-0.5-0.1-0.7-0.3l-8.2-8.2c-0.4-0.4-0.4-1,0-1.4c0.4-0.4,1-0.4,1.4,0l8.2,8.2
			c0.4,0.4,0.4,1,0,1.4C28.1,28.7,27.8,28.7,27.6,28.7"/>
		<path style="fill:#FDD000;" d="M31.7,29.4c-0.3,0-0.5-0.1-0.7-0.3c-0.4-0.4-0.4-1,0-1.4l5.7-5.7c0.4-0.4,1-0.4,1.4,0
			c0.4,0.4,0.4,1,0,1.4l-5.7,5.7C32.2,29.3,31.9,29.4,31.7,29.4"/>
		<path style="fill:#0097E1;" d="M32.8,29.7c0,1.6-1.3,2.8-2.8,2.8c-1.6,0-2.8-1.3-2.8-2.8c0-1.6,1.3-2.8,2.8-2.8
			C31.5,26.9,32.8,28.2,32.8,29.7"/>
		<path style="fill:#F6E7D4;" d="M51.9,31.1h-3.1c-0.6,0-1-0.4-1-1s0.4-1,1-1h3.1c0.6,0,1,0.4,1,1S52.5,31.1,51.9,31.1"/>
		<path style="fill:#F6E7D4;" d="M11.1,31.1H7.9c-0.6,0-1-0.4-1-1s0.4-1,1-1h3.1c0.6,0,1,0.4,1,1S11.6,31.1,11.1,31.1"/>
	</g>
</g>
<g id="레이어_2" style="display:none;">
</g>
</svg>
