<?xml version="1.0" encoding="utf-8"?>
<!-- Generator: Adobe Illustrator 23.0.0, SVG Export Plug-In . SVG Version: 6.00 Build 0)  -->
<svg version="1.1" id="레이어_1" xmlns="http://www.w3.org/2000/svg" xmlns:xlink="http://www.w3.org/1999/xlink" x="0px"
	 y="0px" width="1170px" height="596.9px" viewBox="0 0 1170 596.9" style="enable-background:new 0 0 1170 596.9;"
	 xml:space="preserve">
<g>
	<g>
		<g>
			<g id="XMLID_105_">
				<g>
					<g>
						<path style="fill:#E1F3FB;" d="M1170,325.6V528H0V382.9c39.6-35,229.6-185.5,568.7-185.5C890.3,197.4,1111.2,294.1,1170,325.6
							z"/>
					</g>
					<g>
						<path style="fill:#D1EDFB;" d="M1170,0v325.6c-58.8-31.4-279.7-128.2-601.3-128.2C229.6,197.4,39.6,347.9,0,382.9V0H1170z"/>
					</g>
				</g>
			</g>
			<g>
				<rect y="543.9" style="fill:#BAD271;" width="1170" height="53"/>
			</g>
			<g>
				<g>
					<path style="fill:#00A96D;" d="M924.5,548.7c-5-5.1-6.3-13.5-3-19.9c3.3-6.4,10.9-10.2,18-9c-3.2-0.5-7-27.7,10.4-21.6
						c-6.5-7.7-5.5-19.9,2.4-26.3c7.6-6.2,19.2-6,27.8-1.1c-0.6-6.6,3.2-13.4,9.2-16.3c6-2.9,13.7-1.7,18.6,2.9
						c0-9,5.6-17.7,13.8-21.3s18.4-2,25.1,4.1c1.3-12.6,15.4-22.2,27.6-18.8c1.4,3.2,3.9,5.8,7,7.4c5.2-11.2,24-12,30.2-1.3
						c-3-5.3,21.5-22.9,23.3-6.7c2.6-8.5,28.3-12.3,35.2-6.8v135.7L924.5,548.7z"/>
				</g>
				<g>
					<path style="fill:#00A96D;" d="M231.8,548.7c5-5.1,6.3-13.5,3-19.9c-3.3-6.4-10.9-10.2-18-9c3.2-0.5,7-27.7-10.4-21.6
						c6.5-7.7,5.5-19.9-2.4-26.3c-7.6-6.2-19.2-6-27.8-1.1c0.6-6.6-3.2-13.4-9.2-16.3c-6-2.9-13.7-1.7-18.6,2.9
						c0-9-5.6-17.7-13.8-21.3s-18.4-2-25.1,4.1c-1.3-12.6-15.4-22.2-27.6-18.8c-1.4,3.2-3.9,5.8-7,7.4c-5.2-11.2-24-12-30.2-1.3
						c3-5.3-21.5-22.9-23.3-6.7C19,412.2,7,408.4,0,413.9v135.7L231.8,548.7z"/>
				</g>
				<g>
					<path style="fill:#00A96D;" d="M425.3,549.5c1.9-5.8,4-11.8,8.3-16.1c4.3-4.4,11.4-6.6,16.6-3.4c-3.1-5.6-1.9-13.2,2.7-17.6
						c4.6-4.4,12.3-5.2,17.7-1.8c-2.1-7.2-1.9-15.9,3.4-21.3c5.3-5.4,16.5-4.3,18.5,3c-1.8-6.5,7.2-21.3,12.3-25.3
						c13.1-10.3,20.6,0.8,28.7,11c2.5-9.6,10.4-17.5,19.9-20.1c9.5-2.6,20.4,0.2,27.4,7.2c-1.3-1.3,19.4-10.1,21.3-10.5
						c11.3-2.4,37.6,3,28.9,20.7c7-3.2,14.7-6.5,22.3-5c7.6,1.6,14,10.4,10.1,17.1c7.5-12.8,29.5,8.6,24.8,21.4
						c15.9-6.2,26.3,7.4,21.3,17.7c10.2-4,18.6,0.2,18,16.2c7.9-6.7,14.1,0.6,16.4,6.9L425.3,549.5z"/>
				</g>
				<g>
					<path style="fill:#00A96D;" d="M158,549.5c1.9-5.8,4-11.8,8.3-16.1c4.3-4.4,11.4-6.6,16.6-3.4c-3.1-5.6-1.9-13.2,2.7-17.6
						c4.6-4.4,12.3-5.2,17.7-1.8c-2.1-7.2-1.9-15.9,3.4-21.3c5.3-5.4,16.5-4.3,18.5,3c-1.8-6.5,7.2-21.3,12.3-25.3
						c13.1-10.3,20.6,0.8,28.7,11c2.5-9.6,10.4-17.5,19.9-20.1c9.5-2.6,20.4,0.2,27.4,7.2c-1.3-1.3,19.4-10.1,21.3-10.5
						c11.3-2.4,37.6,3,28.9,20.7c7-3.2,14.7-6.5,22.3-5c7.6,1.6,14,10.4,10.1,17.1c7.5-12.8,29.5,8.6,24.8,21.4
						c15.9-6.2,26.3,7.4,21.3,17.7c10.2-4,18.6,0.2,18,16.2c7.9-6.7,14.1,0.6,16.4,6.9L158,549.5z"/>
				</g>
				<g>
					<path style="fill:#00A96D;" d="M659.3,549.5c1.9-5.8,4-11.8,8.3-16.1c4.3-4.4,11.4-6.6,16.6-3.4c-3.1-5.6-1.9-13.2,2.7-17.6
						c4.6-4.4,12.3-5.2,17.7-1.8c-2.1-7.2-1.9-15.9,3.4-21.3c5.3-5.4,16.5-4.3,18.5,3c-1.8-6.5,7.2-21.3,12.3-25.3
						c13.1-10.3,20.6,0.8,28.7,11c2.5-9.6,10.4-17.5,19.9-20.1c9.5-2.6,20.4,0.2,27.4,7.2c-1.3-1.3,19.4-10.1,21.3-10.5
						c11.3-2.4,37.6,3,28.9,20.7c7-3.2,14.7-6.5,22.3-5c7.6,1.6,14,10.4,10.1,17.1c7.5-12.8,29.5,8.6,24.8,21.4
						c15.9-6.2,26.3,7.4,21.3,17.7c10.2-4,18.6,0.2,18,16.2c7.9-6.7,14.1,0.6,16.4,6.9L659.3,549.5z"/>
				</g>
			</g>
			<g>
				<rect y="543.9" style="fill:#231F20;" width="1170" height="6.9"/>
			</g>
			<g>
				<path style="fill:#FFFFFF;" d="M886.8,144.1c0,0-54.8-14.1-56.4,20.4c-1.6,34.5,51.7,18.8,51.7,18.8s14.1,25.1,56.4,28.2
					c42.3,3.1,45.4-17.2,45.4-17.2s36,11,47-11c11-21.9-21.9-29.8-21.9-29.8s23.5-29.8-6.3-39.2c-29.8-9.4-48.6,23.5-48.6,23.5
					s1.8-37.2-45.4-32.9C874.3,108.1,886.8,144.1,886.8,144.1z"/>
			</g>
			<g>
				<path style="fill:#FFFFFF;" d="M141,150.4c0,0-39.2-12.5-40.7,21.9c-1.6,34.5,36,17.2,36,17.2s7.8,37.9,50.1,40.7
					c47,3.1,51.7-29.8,51.7-29.8s36,11,47-11s-21.9-29.8-21.9-29.8s22.1-21.8-6.3-39.2c-26.6-16.3-43.9,7.8-43.9,7.8
					s-4-29.1-50.1-17.2C129.4,119.9,141,150.4,141,150.4z"/>
			</g>
			<g>
				<path style="fill:#FFFFFF;" d="M532.7,101.2c0,0-28.6,11.9-29.7-13.5s26.3-15.4,26.3-15.4s5.8-26.2,36.3-28.5
					c30.5-2.3,37.2,20.4,37.2,20.4s26-8.1,33.9,8.1c7.9,16.2-15.8,21.9-15.8,21.9s17,21.9-4.5,28.9c-21.5,6.9-35.1-17.3-35.1-17.3
					s1.3,27.4-32.8,24.2C523.6,127.8,532.7,101.2,532.7,101.2z"/>
			</g>
		</g>
	</g>
</g>
<g>
</g>
<g>
</g>
<g>
</g>
<g>
</g>
<g>
</g>
<g>
</g>
<g>
</g>
<g>
</g>
<g>
</g>
<g>
</g>
<g>
</g>
<g>
</g>
<g>
</g>
<g>
</g>
<g>
</g>
</svg>
