<?xml version="1.0" encoding="utf-8"?>
<!-- Generator: Adobe Illustrator 23.0.0, SVG Export Plug-In . SVG Version: 6.00 Build 0)  -->
<svg version="1.1" id="레이어_1" xmlns="http://www.w3.org/2000/svg" xmlns:xlink="http://www.w3.org/1999/xlink" x="0px"
	 y="0px" width="259.8px" height="280.6px" viewBox="0 0 259.8 280.6" style="enable-background:new 0 0 259.8 280.6;"
	 xml:space="preserve">
<g>
	<g id="_x36_">
	</g>
	<g id="_x35_">
	</g>
	<g id="_x34_">
	</g>
	<g id="_x33_">
	</g>
	<g id="_x31_">
		<path style="fill:#3D3D3D;" d="M246.5,216.2c19.3-1.9,16,21.8-0.1,18.5C245.5,230.1,245.5,220.7,246.5,216.2z"/>
		<path style="fill:#FFC70A;" d="M236.6,213.7c2.8,0.1,7.6,0.3,10.6,0.5c1.1,0.1,1.9,0.9,1.9,2c0.1,6.2,0.1,12.5,0,18.8
			c0,1.1-0.9,2-2.1,2c-3.7-0.1-7.6,0-11.1-0.3c-1-0.1-1.8-1-1.8-2c-0.1-6.1,0.8-12.8,0.4-18.8C234.4,214.6,235.4,213.6,236.6,213.7z
			"/>
		<path style="fill:#F05881;" d="M236.3,167.1c0,0,2.2-51.5,0.9-77.4c-22.7-0.2-122,0-122,0s-1.2,56.5-1.5,75.7L236.3,167.1z"/>
		<path style="fill:#FFFFFF;" d="M130,111.6c4.3-0.1,15-0.4,20.1-0.1c1.1,0.1,1.9,0.9,1.9,2c0,7,0.2,12.8,0,19.8c0,1.1-0.9,2-2,2
			c-7,0.1-13.6,0-20.7-0.2c-1.1,0-1.9-0.9-2-1.9c-0.2-6.4,0.5-12.9,0.7-19.6C128.1,112.5,128.9,111.7,130,111.6z"/>
		<path style="fill:#FFC70A;" d="M67.7,101.6c0.2,17.4-0.6,42.9-3.3,59.8c-0.2,1.4-1.4,2.5-2.9,2.5c-6.9,0.2-14,0.2-21,0
			c-1.6,0-2.8-1.3-2.9-2.9c-0.8-17.6-2.6-41.7-2.3-59.6c0-1.6,1.3-2.9,2.9-2.9c8.6-0.3,17.8,0,26.5,0.1
			C66.4,98.7,67.7,100,67.7,101.6z"/>
		<path style="fill:#B81F37;" d="M24.2,164.1c-7,19-24.2,77.7-24.2,77.7s15.3,6.2,32.4,3.9C34,218.9,24.2,190.8,24.2,164.1z"/>
		<path style="fill:#D3B0D3;" d="M231.3,247.7C196.9,247.6,64,247,30,246.1c-4.3-0.1-7.7-3.6-7.8-8c-0.1-22.1-0.5-48.6,1.1-71
			c0.3-4.1,3.7-7.4,7.9-7.4c43.3-0.5,168.6,1.2,201.7,1.7c4.5,0.1,8,3.7,7.9,8.2c-0.5,17.8-1.3,52.1-1.5,70.2
			C239.3,244.2,235.7,247.7,231.3,247.7z"/>
		<path style="fill:#3D3D3D;" d="M62.4,222.2c43.4,5.4,33.8,63.3-7.5,58.1C13.2,275,27.3,217.8,62.4,222.2z"/>
		<path style="fill:#F9CDBF;" d="M61.6,231.3c29.8,3.7,23.2,43.4-5.1,39.8C27.9,267.5,37.6,228.3,61.6,231.3z"/>
		<path style="fill:#FFFFFF;" d="M61,239.5c17.6,2.2,13.7,25.6-3,23.5C41.1,260.9,46.8,237.7,61,239.5z"/>
		<path style="fill:#3D3D3D;" d="M197.6,204.7c55.6,7,43.3,82.2-9.6,75.4C134.5,273.3,152.6,199.1,197.6,204.7z"/>
		<path style="fill:#F9CDBF;" d="M196.6,216.6c38.1,4.8,29.7,56.4-6.6,51.7C153.4,263.6,165.8,212.7,196.6,216.6z"/>
		<path style="fill:#FFFFFF;" d="M195.7,227.7c22.5,2.8,17.5,33.3-3.9,30.5C170.2,255.4,177.5,225.3,195.7,227.7z"/>
		<path style="fill:#F05881;" d="M61.9,257.1l130-9c1.1-0.1,2-1.1,1.9-2.2l-0.4-4.7c-0.1-1.1-1-1.9-2.1-1.8l-130.1,9.4
			c-1.1,0.1-2,1.1-1.8,2.2l0.5,4.3C59.9,256.4,60.8,257.1,61.9,257.1z"/>
		<path style="fill:#FFC70A;" d="M241.1,84v8.4c0,1.7-1.3,3-3,3c-30-0.1-92.7,0-122.1,0c-1.7,0-3.1-1.5-3-3.2l0.6-9.6
			c0.1-1.6,1.4-2.8,3-2.8L238.1,81C239.8,81,241.1,82.3,241.1,84z"/>
	</g>
	<g>
		<g>
			<path style="fill:#03A3EA;" d="M159.8,25.1c-0.4-0.1-0.8-0.1-1.2-0.1c-3-0.3-6.4,1.2-8.5,3.1c-1.2,1-3,3.5-1.9,5.1
				c1.9,2.7,8.3-1.9,9.9-3C159.2,29.3,163.1,25.5,159.8,25.1z"/>
		</g>
		<path style="fill:#03A3EA;" d="M158.9,28.1c-0.8,0-1.4-0.6-1.4-1.4v-20c0-0.8,0.6-1.4,1.4-1.4s1.4,0.6,1.4,1.4v20
			C160.3,27.4,159.7,28.1,158.9,28.1z"/>
	</g>
	<g>
		<g>
			<path style="fill:#30A1BF;" d="M120.1,41.9c-0.4-0.1-0.8-0.1-1.2-0.1c-3-0.3-6.4,1.2-8.5,3.1c-1.2,1-3,3.5-1.9,5.1
				c1.9,2.7,8.3-1.9,9.9-3C119.5,46.1,123.3,42.3,120.1,41.9z"/>
		</g>
		<path style="fill:#30A1BF;" d="M119.2,44.9c-0.8,0-1.4-0.6-1.4-1.4v-20c0-0.8,0.6-1.4,1.4-1.4s1.4,0.6,1.4,1.4v20
			C120.6,44.2,120,44.9,119.2,44.9z"/>
		<polygon style="fill:#30A1BF;" points="119.2,23.5 130.7,30.2 119.2,30.2 		"/>
	</g>
	<g>
		<g>
			<path style="fill:#9DDCF9;" d="M70.9,74.8c-0.5-0.1-1-0.1-1.6-0.1c-3.8-0.5-8.1,1.9-10.7,4.7c-1.5,1.6-3.8,5.4-2.4,7.8
				c2.4,4.1,10.5-2.9,12.5-4.7C70.2,81.2,75,75.4,70.9,74.8z"/>
		</g>
		<path style="fill:#9DDCF9;" d="M69.8,79.4c-1.2,0-2.2-1-2.2-2.2V52.5c0-1.2,1-2.2,2.2-2.2s2.2,1,2.2,2.2v24.7
			C72,78.4,71,79.4,69.8,79.4z"/>
		<g>
			<path style="fill:#9DDCF9;" d="M92,69c-0.5-0.1-1.1-0.1-1.6-0.1c-3.9-0.5-8.3,2.2-11.1,5.4c-1.5,1.8-3.9,6.2-2.5,9
				c2.5,4.8,10.9-3.3,12.9-5.4C91.2,76.4,96.2,69.8,92,69z"/>
		</g>
		<path style="fill:#9DDCF9;" d="M90.9,73.7c-1.2,0-2.2-1-2.2-2.2V46.8c0-1.2,1-2.2,2.2-2.2s2.2,1,2.2,2.2v24.7
			C93.2,72.7,92.2,73.7,90.9,73.7z"/>
		<path style="fill:#9DDCF9;" d="M66.9,58.3c-1,0-1.9-0.7-2.2-1.7c-0.3-1.2,0.4-2.4,1.6-2.7L93,47.3c1.2-0.3,2.4,0.4,2.7,1.6
			c0.3,1.2-0.4,2.4-1.6,2.7l-26.7,6.6C67.2,58.3,67.1,58.3,66.9,58.3z"/>
	</g>
</g>
<g style="display:none;">
	<path style="display:inline;fill:#9DDCF9;" d="M72.6,81.1c5,11.6,22.6,13.1,30,0.5c9.1-15.3-10.8-30.7-20.2-19
		c17.3-30.3-26.9-41.9-30.9-12.2C50.4,24.8,12.9,33,14.4,58.2c1.3,21.3,22.8,24.7,37.1,14.7l0,0C40.2,85.7,69.6,98.3,72.6,81.1z"/>
	<path style="display:inline;fill:#9DDCF9;" d="M142.5,36.4c18.1-20.2,31.6,19.3,5.1,15.2c23.7,16.9-21.6,34.6-14.3,2.1
		c-5.9,17.6-33,5.7-18.7-10.1c0.6-0.5,0.6-0.5,0,0c-22.9,10-29.2-22.5-5.5-20.9c4.5,0.3,7.4,2.3,7.4,2.3
		C119,4.8,156.9,12.3,142.5,36.4z"/>
	<path style="display:inline;fill:#9DDCF9;" d="M173.6,28.9c-19.3-27.7,11.2-30.4,12.3-12.6c-0.8-31,35.4-11.5,12.8,6
		c12.7-10,27.1,8.1,13.3,14.9C199.1,43.5,181,39.5,173.6,28.9z"/>
	<path style="display:inline;fill:#B81F37;" d="M238.8,10.3c13.8-7.5,14.6,9.4-4.1,14.5C221.5,7.4,233.5-0.1,238.8,10.3z"/>
</g>
</svg>
