<?xml version="1.0" encoding="utf-8"?>
<!-- Generator: Adobe Illustrator 23.0.0, SVG Export Plug-In . SVG Version: 6.00 Build 0)  -->
<svg version="1.1" id="레이어_1" xmlns="http://www.w3.org/2000/svg" xmlns:xlink="http://www.w3.org/1999/xlink" x="0px"
	 y="0px" width="144.5px" height="121.5px" viewBox="0 0 144.5 121.5" style="enable-background:new 0 0 144.5 121.5;"
	 xml:space="preserve">
<g id="_x36_">
</g>
<g id="_x35_">
</g>
<g id="_x34_">
</g>
<g id="_x33_">
</g>
<g id="_x32_">
	<path style="fill:#3D3D3D;" d="M131.2,57.1c19.3-1.9,16,21.8-0.1,18.5C130.2,71,130.2,61.6,131.2,57.1z"/>
	<path style="fill:#FFC70A;" d="M121.3,54.6c2.8,0.1,7.6,0.3,10.6,0.5c1.1,0.1,1.9,0.9,1.9,2c0.1,6.2,0.1,12.5,0,18.8
		c0,1.1-0.9,2-2.1,2c-3.7-0.1-7.6,0-11.1-0.3c-1-0.1-1.8-1-1.8-2c-0.1-6.1,0.8-12.8,0.4-18.8C119.1,55.5,120.1,54.5,121.3,54.6z"/>
	<path style="fill:#D3B0D3;" d="M116,88.6C93.4,88.5,30,88,7.8,87.2c-4.3-0.2-7.7-3.7-7.7-8C0,57.2-0.2,30.7,0.7,8.3
		c0.2-4.2,3.7-7.6,7.9-7.7c25.9-0.2,86.7,1.1,108.5,1.7c4.4,0.1,7.9,3.7,7.8,8.1c-0.3,17.7-0.8,52.1-0.9,70.3
		C124,85,120.4,88.6,116,88.6z"/>
	<path style="fill:#3D3D3D;" d="M32.3,71.7c37,4.6,28.8,54-6.4,49.5C-9.6,116.7,2.4,68,32.3,71.7z"/>
	<path style="fill:#F9CDBF;" d="M31.7,79.5c25.4,3.2,19.8,37-4.4,33.9C2.9,110.3,11.2,76.9,31.7,79.5z"/>
	<path style="fill:#FFFFFF;" d="M31.1,86.5c15,1.9,11.7,21.8-2.6,20C14.1,104.7,19,85,31.1,86.5z"/>
	<path style="fill:#3D3D3D;" d="M94.7,71.7c37,4.6,28.8,54-6.4,49.5C52.8,116.7,64.8,68,94.7,71.7z"/>
	<path style="fill:#F9CDBF;" d="M94.1,79.5c25.4,3.2,19.8,37-4.4,33.9C65.3,110.3,73.6,76.9,94.1,79.5z"/>
	<path style="fill:#FFFFFF;" d="M93.5,86.5c15,1.9,11.7,21.8-2.6,20C76.5,104.7,81.4,85,93.5,86.5z"/>
</g>
<g id="_x31_">
</g>
</svg>
