<?xml version="1.0" encoding="utf-8"?>
<!-- Generator: Adobe Illustrator 23.0.0, SVG Export Plug-In . SVG Version: 6.00 Build 0)  -->
<svg version="1.1" id="레이어_1" xmlns="http://www.w3.org/2000/svg" xmlns:xlink="http://www.w3.org/1999/xlink" x="0px"
	 y="0px" width="50px" height="50px" viewBox="0 0 50 50" style="enable-background:new 0 0 50 50;" xml:space="preserve">
<g>
	
		<ellipse transform="matrix(0.7071 -0.7071 0.7071 0.7071 -10.3553 24.9998)" style="fill:none;stroke:#AE7C65;stroke-width:4;stroke-linejoin:round;stroke-miterlimit:10;" cx="25" cy="25" rx="23" ry="23"/>
	<g>
		<path style="fill:#AE7C65;" d="M22.3,35h-5.6c-0.4,0-0.7-0.9-0.7-2V17c0-1.1,0.3-2,0.7-2h5.6c0.4,0,0.7,0.9,0.7,2v16
			C23,34.1,22.7,35,22.3,35"/>
		<path style="fill:none;stroke:#AE7C65;stroke-width:1.1832;stroke-linejoin:round;stroke-miterlimit:10;" d="M22.3,35h-5.6
			c-0.4,0-0.7-0.9-0.7-2V17c0-1.1,0.3-2,0.7-2h5.6c0.4,0,0.7,0.9,0.7,2v16C23,34.1,22.7,35,22.3,35z"/>
	</g>
	<g>
		<path style="fill:#AE7C65;" d="M33.3,35h-5.6c-0.4,0-0.7-0.9-0.7-2V17c0-1.1,0.3-2,0.7-2h5.6c0.4,0,0.7,0.9,0.7,2v16
			C34,34.1,33.7,35,33.3,35"/>
		<path style="fill:none;stroke:#AE7C65;stroke-width:1.1832;stroke-linejoin:round;stroke-miterlimit:10;" d="M33.3,35h-5.6
			c-0.4,0-0.7-0.9-0.7-2V17c0-1.1,0.3-2,0.7-2h5.6c0.4,0,0.7,0.9,0.7,2v16C34,34.1,33.7,35,33.3,35z"/>
	</g>
</g>
</svg>
