<?xml version="1.0" encoding="utf-8"?>
<!-- Generator: Adobe Illustrator 23.0.0, SVG Export Plug-In . SVG Version: 6.00 Build 0)  -->
<svg version="1.1" id="레이어_1" xmlns="http://www.w3.org/2000/svg" xmlns:xlink="http://www.w3.org/1999/xlink" x="0px"
	 y="0px" width="857.7px" height="1791.8px" viewBox="0 0 857.7 1791.8" style="enable-background:new 0 0 857.7 1791.8;"
	 xml:space="preserve">
<path style="fill:none;" d="M835.5,496.7c-16.9,105.1-67,200.9-126.4,282.3c-96.7,132.2-218.2,226-262.8,258
	c3.4,3.7,15.6,18.6,27.8,48.4c23,56.1,28.2,122,28.5,167.4c0.3,49.7-17.8,113.8-37,181.6c-33.1,116.9-70.7,249.4-28.2,352l-13.1,5.4
	c-44.4-107.1-6.1-242.1,27.6-361.3c18.9-66.8,36.8-129.9,36.5-177.6c-0.3-40.3-4.5-97.3-22.1-148.1c-1.1,1.3-2.6,2.2-4.4,2.3
	l-91.2,6.5c-5.4,0.4-8.8-5.7-5.7-10.1l41.9-58.6V1034h0.4C329.5,977.4,66,767.5,22.3,496.8C-0.1,357.8,36.9,205.5,143.9,109
	c66.8-60.4,161-99,284.9-99C751.3,10,871.9,271.1,835.5,496.7z"/>
<path style="fill:#8FF2CC;" d="M428.9,10c-124,0-218.1,38.6-284.9,99c-33.1,70.8-70.4,160.2-51.2,280.9
	c24.6,154.5,135.6,320.5,304.9,385c35,13.3,167,63.7,294,11.8c6.1-2.5,11.9-5.1,17.4-7.8c59.4-81.3,109.5-177.2,126.4-282.3
	C871.9,271.1,751.3,10,428.9,10z M739.7,398.2c-44.6,35.2-131.1-5.7-178.6-50.3c-64.2-60.3-108.6-176.1-62.9-227.4
	c35.8-40.2,114-26.3,158.6-5.1c97.5,46.5,108.5,163.8,109.3,174.2C768.2,316.5,772.5,372.3,739.7,398.2z"/>
<path style="fill:#6AE5B9;" d="M437.1,1048.1h-6.7c-1,0.7-1.5,1-1.5,1s-0.5-0.3-1.5-1h-20.5v-3.3l-41.9,58.6
	c-3.1,4.4,0.3,10.5,5.7,10.1l91.2-6.5c1.9-0.1,3.4-1,4.4-2.3c-1.5-4.4-3.1-8.7-4.9-13C451.3,1066.8,441.1,1053,437.1,1048.1z"/>
<path style="fill:#6AE5B9;" d="M397.6,774.9c-169.2-64.5-280.3-230.5-304.9-385C73.5,269.2,110.8,179.8,143.9,109
	c-107,96.5-144,248.8-121.6,387.7c43.7,270.8,307.3,480.6,385,537.2h36l2.1,2.1c0.1,0.1,0.4,0.4,0.9,0.9
	c44.5-32.1,166.1-125.8,262.8-258c-5.5,2.7-11.3,5.3-17.4,7.8C564.6,838.6,432.6,788.2,397.6,774.9z"/>
<path style="fill:#FFA880;" d="M430.4,1048.1h-3c1,0.7,1.5,1,1.5,1S429.4,1048.8,430.4,1048.1z"/>
<path style="fill:#CAFFE9;" d="M656.8,115.4c-44.5-21.2-122.7-35.1-158.6,5.1c-45.7,51.3-1.3,167,62.9,227.4
	c47.4,44.5,134,85.5,178.6,50.3c32.8-25.9,28.5-81.7,26.4-108.6C765.3,279.3,754.4,161.9,656.8,115.4z"/>
<path style="fill:#00DB8C;" d="M443.3,1033.9h-36h-0.4v10.9v3.3h20.5h3h6.7c4,4.9,14.2,18.7,24.3,43.7c1.7,4.3,3.3,8.6,4.9,13
	c17.7,50.8,21.9,107.8,22.1,148.1c0.3,47.7-17.6,110.8-36.5,177.6c-33.8,119.1-72,254.2-27.6,361.3l13.1-5.4
	c-42.5-102.6-4.9-235.1,28.2-352c19.2-67.8,37.4-131.9,37-181.6c-0.3-45.4-5.5-111.3-28.5-167.4c-12.2-29.8-24.5-44.7-27.8-48.4
	c-0.5-0.6-0.8-0.9-0.9-0.9L443.3,1033.9z"/>
</svg>
