<?xml version="1.0" encoding="iso-8859-1"?>
<!-- Generator: Adobe Illustrator 19.0.0, SVG Export Plug-In . SVG Version: 6.00 Build 0)  -->
<svg version="1.1" id="Capa_1" xmlns="http://www.w3.org/2000/svg" xmlns:xlink="http://www.w3.org/1999/xlink" x="0px" y="0px"
	 viewBox="0 0 512 512" style="enable-background:new 0 0 512 512;" xml:space="preserve">
<path style="fill:#555A66;" d="M471.113,121v30l-30,30l-30-30v-30c0-16.5,13.5-30,30-30S471.113,104.5,471.113,121z"/>
<path style="fill:#383838;" d="M471.113,121v30l-30,30V91C457.612,91,471.113,104.5,471.113,121z"/>
<path style="fill:#FFDFB0;" d="M471.113,452c0,2.399-0.601,4.499-1.5,6.599l-15,45c-2.701,5.101-7.8,8.401-13.5,8.401
	s-10.8-3.3-13.5-8.401l-15-45c-0.899-2.1-1.5-4.2-1.5-6.599l30-30L471.113,452z"/>
<path style="fill:#FFC170;" d="M471.113,452c0,2.399-0.601,4.499-1.5,6.599l-15,45c-2.701,5.101-7.8,8.401-13.5,8.401v-90
	L471.113,452z"/>
<rect x="411.11" y="151" style="fill:#FFA426;" width="60" height="301"/>
<rect x="441.11" y="151" style="fill:#FF873C;" width="30" height="301"/>
<path style="fill:#555A66;" d="M368.813,347c0,8.399-6.601,15-15,15h-215.7c-8.401,0-15-6.601-15-15c0-8.401,6.599-15,15-15h215.7
	C362.213,332,368.813,338.599,368.813,347z"/>
<path style="fill:#383838;" d="M368.813,347c0,8.399-6.601,15-15,15h-107.7v-30h107.701C362.213,332,368.813,338.599,368.813,347z"
	/>
<path style="fill:#555A66;" d="M291.113,45v39.101c0,8.099-6.599,15-15,15h-60c-8.401,0-15-6.901-15-15V45c0-24.901,20.099-45,45-45
	S291.113,20.099,291.113,45z"/>
<path style="fill:#383838;" d="M291.113,45v39.101c0,8.099-6.599,15-15,15h-30V0C271.013,0,291.113,20.099,291.113,45z"/>
<g>
	<path style="fill:#BC6829;" d="M200.602,154.832L29.277,474.778C32.002,479.26,36.865,482,42.109,482h3.018
		c22.456,0,42.847-12.393,53.218-32.358l139.336-269.467L200.602,154.832z"/>
	<path style="fill:#BC6829;" d="M18.945,510.301c-7.339-3.838-10.181-12.905-6.357-20.244L183.095,162.66
		c3.838-7.354,12.935-10.166,20.244-6.357c7.339,3.838,10.181,12.905,6.357,20.244L39.189,503.943
		C35.314,511.354,26.19,514.091,18.945,510.301z"/>
</g>
<path style="fill:#9E5015;" d="M471.288,362h-68.174c-34.395-65.964-75.908-146.453-105.192-202.202l-52.018,21.31l115.58,224.779
	c5.112,9.932,15.278,16.113,26.543,16.113h83.247c7.998,0,15.498-3.12,21.152-8.804c5.596-5.654,8.687-13.184,8.687-21.196
	C501.113,375.462,487.739,362,471.288,362z"/>
<path style="fill:#555A66;" d="M246.113,61c-41.4,0-75,33.6-75,75s33.6,75,75,75s75-33.6,75-75S287.513,61,246.113,61z"/>
<path style="fill:#383838;" d="M246.113,211V61c41.4,0,75,33.6,75,75S287.513,211,246.113,211z"/>
<path style="fill:#E6F1FF;" d="M246.113,91c-24.901,0-45,20.099-45,45c0,24.899,20.099,45,45,45s45-20.101,45-45
	C291.113,111.099,271.013,91,246.113,91z"/>
<path style="fill:#BFE1FF;" d="M291.113,136c0,24.899-20.099,45-45,45V91C271.013,91,291.113,111.099,291.113,136z"/>
<path style="fill:#BC6829;" d="M261.113,317v60c0,8.399-6.599,15-15,15s-15-6.601-15-15v-60c0-8.401,6.599-15,15-15
	S261.113,308.599,261.113,317z"/>
<path style="fill:#9E5015;" d="M261.113,317v60c0,8.399-6.599,15-15,15v-90C254.514,302,261.113,308.599,261.113,317z"/>
<path style="fill:#555A66;" d="M261.113,136c0,8.399-6.599,15-15,15s-15-6.601-15-15c0-8.401,6.599-15,15-15
	S261.113,127.599,261.113,136z"/>
<path style="fill:#383838;" d="M261.113,136c0,8.399-6.599,15-15,15v-30C254.514,121,261.113,127.599,261.113,136z"/>
<g>
</g>
<g>
</g>
<g>
</g>
<g>
</g>
<g>
</g>
<g>
</g>
<g>
</g>
<g>
</g>
<g>
</g>
<g>
</g>
<g>
</g>
<g>
</g>
<g>
</g>
<g>
</g>
<g>
</g>
</svg>
