<?xml version="1.0" encoding="utf-8"?>
<!-- Generator: Adobe Illustrator 23.0.0, SVG Export Plug-In . SVG Version: 6.00 Build 0)  -->
<svg version="1.1" id="레이어_1" xmlns="http://www.w3.org/2000/svg" xmlns:xlink="http://www.w3.org/1999/xlink" x="0px"
	 y="0px" width="56px" height="49.9px" viewBox="0 0 56 49.9" style="enable-background:new 0 0 56 49.9;" xml:space="preserve">
<g>
	<g>
		<path style="fill:#FFF100;" d="M42.7,48.5c-0.1,0-0.3,0-0.4-0.1L28,42.6l-14.3,5.9c-0.3,0.1-0.7,0.1-1-0.1
			c-0.3-0.2-0.4-0.5-0.4-0.9L13.5,32l-10-11.8c-0.2-0.3-0.3-0.6-0.2-1c0.1-0.3,0.4-0.6,0.7-0.7L19,15l8.1-13.2
			c0.4-0.6,1.3-0.6,1.7,0L37,15l15,3.6c0.3,0.1,0.6,0.3,0.7,0.7c0.1,0.3,0,0.7-0.2,1L42.5,32l1.2,15.4c0,0.3-0.1,0.7-0.4,0.9
			C43.1,48.5,42.9,48.5,42.7,48.5 M28,40.5c0.1,0,0.3,0,0.4,0.1L41.6,46l-1.1-14.2c0-0.3,0.1-0.5,0.2-0.7L50,20.2l-13.9-3.4
			c-0.3-0.1-0.5-0.2-0.6-0.4L28,4.2l-7.5,12.2c-0.1,0.2-0.4,0.4-0.6,0.4L6,20.2L15.3,31c0.2,0.2,0.3,0.5,0.2,0.7L14.4,46l13.2-5.4
			C27.8,40.5,27.9,40.5,28,40.5"/>
		<path style="fill:#FFFFFF;" d="M13.3,49c-0.3,0-0.6-0.1-0.9-0.3c-0.4-0.3-0.7-0.8-0.6-1.3L13,32.2L3.1,20.6
			c-0.3-0.4-0.4-0.9-0.3-1.4c0.2-0.5,0.6-0.9,1.1-1l14.8-3.6l8-13C27,1.1,27.5,0.8,28,0.8h0c0.5,0,1,0.3,1.3,0.7l8,13l14.8,3.6
			c0.5,0.1,0.9,0.5,1.1,1c0.2,0.5,0.1,1-0.3,1.4L43,32.2l1.2,15.2c0,0.5-0.2,1-0.6,1.3c-0.4,0.3-1,0.4-1.5,0.2L28,43.1l-14.1,5.8
			C13.7,49,13.5,49,13.3,49z M28,42l14.5,6c0.2,0.1,0.3,0,0.5-0.1c0.1-0.1,0.2-0.3,0.2-0.4L42,31.9l10.2-11.9
			c0.1-0.1,0.1-0.3,0.1-0.5c-0.1-0.2-0.2-0.3-0.4-0.3l-15.2-3.7L28.4,2c-0.1-0.2-0.3-0.2-0.4-0.2l0,0c-0.1,0-0.3,0.1-0.4,0.2
			l-8.2,13.4L4.1,19.1c-0.2,0-0.3,0.2-0.4,0.3c-0.1,0.2,0,0.3,0.1,0.5L14,31.9l-1.2,15.6c0,0.2,0.1,0.3,0.2,0.4
			c0.1,0.1,0.3,0.1,0.5,0.1L28,42z M13.9,46.8l1.2-15c0-0.1,0-0.3-0.1-0.4L5.1,19.9l14.7-3.6c0.1,0,0.2-0.1,0.3-0.2L28,3.3l7.9,12.8
			c0.1,0.1,0.2,0.2,0.3,0.2l14.7,3.6l-9.8,11.5C41,31.5,41,31.6,41,31.7l1.2,15L28.2,41c-0.1,0-0.3,0-0.4,0L13.9,46.8z M28,40
			c0.2,0,0.4,0,0.6,0.1L41,45.2l-1-13.4c0-0.4,0.1-0.8,0.4-1.1l8.7-10.2L36,17.3c-0.4-0.1-0.7-0.3-0.9-0.7L28,5.2L21,16.6
			c-0.2,0.3-0.5,0.6-0.9,0.7L7,20.5l8.7,10.2c0.3,0.3,0.4,0.7,0.4,1.1l-1,13.4l12.4-5.1C27.6,40,27.8,40,28,40z"/>
	</g>
	<polygon style="fill:#FFF100;" points="5.4,19.9 19.8,16 28,3.5 36.2,16 50.5,19.9 41.2,31.9 42.1,46.7 28,41.3 14.5,46.7 
		13.9,45.1 14.9,31.6 	"/>
</g>
</svg>
