<?xml version="1.0" encoding="utf-8"?>
<!-- Generator: Adobe Illustrator 23.0.0, SVG Export Plug-In . SVG Version: 6.00 Build 0)  -->
<svg version="1.1" id="레이어_1" xmlns="http://www.w3.org/2000/svg" xmlns:xlink="http://www.w3.org/1999/xlink" x="0px"
	 y="0px" width="49.1px" height="56px" viewBox="0 0 49.1 56" style="enable-background:new 0 0 49.1 56;" xml:space="preserve">
<g>
	<defs>
		<rect id="SVGID_1_" x="2" y="2.9" width="45.1" height="51.1"/>
	</defs>
	<clipPath id="SVGID_2_">
		<use xlink:href="#SVGID_1_"  style="overflow:visible;"/>
	</clipPath>
	<path style="clip-path:url(#SVGID_2_);fill:#DECBB2;" d="M42.3,49.7c0,2.4-9,4.3-20.2,4.3C11,54,2,52.1,2,49.7
		c0-2.4,9-4.3,20.2-4.3C33.3,45.4,42.3,47.3,42.3,49.7"/>
	
		<rect x="3.8" y="18.9" transform="matrix(0.7071 -0.7071 0.7071 0.7071 -10.6572 24.8801)" style="clip-path:url(#SVGID_2_);fill:#FF6600;" width="41.8" height="12.8"/>
	<path style="clip-path:url(#SVGID_2_);fill:#FDD000;" d="M46.2,8.5l-4.8-4.8c-1.2-1.2-3.1-1.2-4.3,0L34.9,6l9.1,9.1l2.2-2.2
		C47.4,11.6,47.4,9.7,46.2,8.5"/>
	<polygon style="clip-path:url(#SVGID_2_);fill:#FFFFFF;" points="14.5,44.6 5.4,35.5 4,42.3 7.8,46 	"/>
	<polygon style="clip-path:url(#SVGID_2_);fill:#FF6600;" points="7.8,46 4,42.3 3.1,46.9 	"/>
	<path style="clip-path:url(#SVGID_2_);fill:#FFFFFF;" d="M37,16c-1.2-1.2-3.1-1.2-4.2,0L16.1,32.7c-1.2,1.2-1.2,3.1,0,4.2l3,3
		L40,19L37,16z"/>
</g>
</svg>
