<?xml version="1.0" encoding="utf-8"?>
<!-- Generator: Adobe Illustrator 23.0.0, SVG Export Plug-In . SVG Version: 6.00 Build 0)  -->
<svg version="1.1" id="Capa_1" xmlns="http://www.w3.org/2000/svg" xmlns:xlink="http://www.w3.org/1999/xlink" x="0px" y="0px"
	 width="341px" height="209.3px" viewBox="0 0 341 209.3" style="enable-background:new 0 0 341 209.3;" xml:space="preserve">
<g>
	<g>
		<g>
			<path style="fill:#86F1A7;" d="M311.9,55.8v-49"/>
		</g>
	</g>
	<g>
		<path style="fill:#F6E266;" d="M331,209.3H10c-5.5,0-10-4.5-10-10V10C0,4.5,4.5,0,10,0h321c5.5,0,10,4.5,10,10v189.3
			C341,204.9,336.5,209.3,331,209.3L331,209.3z"/>
	</g>
	<g>
		<path style="fill:#ECC32E;" d="M330.7,0H312v170c0,5.7-4.6,10.3-10.3,10.3H0v18.7c0,5.7,4.6,10.3,10.3,10.3h320.4
			c5.7,0,10.3-4.6,10.3-10.3V10.3C341,4.6,336.4,0,330.7,0L330.7,0z"/>
	</g>
	<g>
		<circle style="fill:#ECC32E;" cx="69.7" cy="60.4" r="30.1"/>
	</g>
	<g>
		<circle style="fill:#ECC32E;" cx="69.7" cy="150" r="30.1"/>
	</g>
	<g>
		<circle style="fill:#ECC32E;" cx="170.5" cy="60.4" r="30.1"/>
	</g>
	<g>
		<circle style="fill:#ECC32E;" cx="170.5" cy="150" r="30.1"/>
	</g>
	<g>
		
			<ellipse transform="matrix(8.248058e-02 -0.9966 0.9966 8.248058e-02 188.7824 325.82)" style="fill:#ECC32E;" cx="271.3" cy="60.4" rx="30.1" ry="30.1"/>
	</g>
	<g>
		
			<ellipse transform="matrix(7.088905e-02 -0.9975 0.9975 7.088905e-02 102.5002 410.0092)" style="fill:#ECC32E;" cx="271.3" cy="150" rx="30.1" ry="30.1"/>
	</g>
	<g>
		<path style="fill:#E49824;" d="M81.2,32.6c1.5,3.5,2.3,7.4,2.3,11.5c0,16.6-13.5,30.1-30.1,30.1c-4.1,0-8-0.8-11.5-2.3
			c4.5,10.9,15.3,18.6,27.8,18.6c16.6,0,30.1-13.5,30.1-30.1C99.7,47.9,92.1,37.1,81.2,32.6L81.2,32.6z"/>
	</g>
	<g>
		<path style="fill:#E49824;" d="M81.2,122.2c1.5,3.5,2.3,7.4,2.3,11.5c0,16.6-13.5,30.1-30.1,30.1c-4.1,0-8-0.8-11.5-2.3
			c4.5,10.9,15.3,18.6,27.8,18.6c16.6,0,30.1-13.5,30.1-30.1C99.7,137.5,92.1,126.7,81.2,122.2L81.2,122.2z"/>
	</g>
	<g>
		<path style="fill:#E49824;" d="M182,32.6c1.5,3.5,2.3,7.4,2.3,11.5c0,16.6-13.5,30.1-30.1,30.1c-4.1,0-8-0.8-11.5-2.3
			c4.5,10.9,15.3,18.6,27.8,18.6c16.6,0,30.1-13.5,30.1-30.1C200.6,47.9,192.9,37.1,182,32.6L182,32.6z"/>
	</g>
	<g>
		<path style="fill:#E49824;" d="M182,122.2c1.5,3.5,2.3,7.4,2.3,11.5c0,16.6-13.5,30.1-30.1,30.1c-4.1,0-8-0.8-11.5-2.3
			c4.5,10.9,15.3,18.6,27.8,18.6c16.6,0,30.1-13.5,30.1-30.1C200.6,137.5,192.9,126.7,182,122.2L182,122.2z"/>
	</g>
	<g>
		<path style="fill:#E49824;" d="M282.9,32.6c1.5,3.5,2.3,7.4,2.3,11.5c0,16.6-13.5,30.1-30.1,30.1c-4.1,0-8-0.8-11.5-2.3
			c4.5,10.9,15.3,18.6,27.8,18.6c16.6,0,30.1-13.5,30.1-30.1C301.4,47.9,293.7,37.1,282.9,32.6L282.9,32.6z"/>
	</g>
	<g>
		<path style="fill:#E49824;" d="M282.9,122.2c1.5,3.5,2.3,7.4,2.3,11.5c0,16.6-13.5,30.1-30.1,30.1c-4.1,0-8-0.8-11.5-2.3
			c4.5,10.9,15.3,18.6,27.8,18.6c16.6,0,30.1-13.5,30.1-30.1C301.4,137.5,293.7,126.7,282.9,122.2L282.9,122.2z"/>
	</g>
</g>
</svg>
