<?xml version="1.0" encoding="utf-8"?>
<!-- Generator: Adobe Illustrator 23.0.0, SVG Export Plug-In . SVG Version: 6.00 Build 0)  -->
<svg version="1.1" id="레이어_1" xmlns="http://www.w3.org/2000/svg" xmlns:xlink="http://www.w3.org/1999/xlink" x="0px"
	 y="0px" width="52px" height="52px" viewBox="0 0 52 52" style="enable-background:new 0 0 52 52;" xml:space="preserve">
<g>
	
		<ellipse style="fill:none;stroke:#FF6600;stroke-width:4;stroke-linejoin:round;stroke-miterlimit:10;" cx="26" cy="26" rx="23" ry="23"/>
	<g>
		<path style="fill:#FF6600;" d="M23.3,36h-5.6c-0.4,0-0.7-0.9-0.7-2V18c0-1.1,0.3-2,0.7-2h5.6c0.4,0,0.7,0.9,0.7,2v16
			C24,35.1,23.7,36,23.3,36"/>
		<path style="fill:none;stroke:#FF6600;stroke-width:1.1832;stroke-linejoin:round;stroke-miterlimit:10;" d="M23.3,36h-5.6
			c-0.4,0-0.7-0.9-0.7-2V18c0-1.1,0.3-2,0.7-2h5.6c0.4,0,0.7,0.9,0.7,2v16C24,35.1,23.7,36,23.3,36z"/>
	</g>
	<g>
		<path style="fill:#FF6600;" d="M34.3,36h-5.6c-0.4,0-0.7-0.9-0.7-2V18c0-1.1,0.3-2,0.7-2h5.6c0.4,0,0.7,0.9,0.7,2v16
			C35,35.1,34.7,36,34.3,36"/>
		<path style="fill:none;stroke:#FF6600;stroke-width:1.1832;stroke-linejoin:round;stroke-miterlimit:10;" d="M34.3,36h-5.6
			c-0.4,0-0.7-0.9-0.7-2V18c0-1.1,0.3-2,0.7-2h5.6c0.4,0,0.7,0.9,0.7,2v16C35,35.1,34.7,36,34.3,36z"/>
	</g>
</g>
</svg>
