<?xml version="1.0" encoding="utf-8"?>
<!-- Generator: Adobe Illustrator 23.0.0, SVG Export Plug-In . SVG Version: 6.00 Build 0)  -->
<svg version="1.1" id="레이어_1" xmlns="http://www.w3.org/2000/svg" xmlns:xlink="http://www.w3.org/1999/xlink" x="0px"
	 y="0px" width="54.5px" height="57px" viewBox="0 0 54.5 57" style="enable-background:new 0 0 54.5 57;" xml:space="preserve">
<g>
	<path style="fill:#FFEC14;" d="M2,8.5L23.5,30c-4.1,6.3-3.4,14.7,2.1,20.2c6.3,6.3,16.5,6.3,22.8,0c6.3-6.3,6.3-16.5,0-22.8
		c-5.5-5.5-14-6.2-20.2-2.1l-4.1-4.1l8.7-8.7c0.9-0.9,0.9-2.5,0-3.4l-1.4-1.4c-0.9-0.9-2.5-0.9-3.4,0l-8.7,8.7l-4.1-4.1l4.1-4.1
		c0.9-0.9,0.9-2.5,0-3.4l-1.4-1.4c-0.9-0.9-2.5-0.9-3.4,0l-4.1,4.1L6.6,3.9C5.4,2.6,3.3,2.6,2,3.9C0.7,5.2,0.7,7.2,2,8.5 M43.7,32.1
		c3.7,3.7,3.7,9.7,0,13.5c-3.7,3.7-9.7,3.7-13.5,0c-3.7-3.7-3.7-9.7,0-13.5S40,28.4,43.7,32.1"/>
</g>
</svg>
