<?xml version="1.0" encoding="utf-8"?>
<!-- Generator: Adobe Illustrator 23.0.0, SVG Export Plug-In . SVG Version: 6.00 Build 0)  -->
<svg version="1.1" id="Capa_1" xmlns="http://www.w3.org/2000/svg" xmlns:xlink="http://www.w3.org/1999/xlink" x="0px" y="0px"
	 width="125.2px" height="94.2px" viewBox="0 0 125.2 94.2" style="enable-background:new 0 0 125.2 94.2;" xml:space="preserve">
<path style="fill:#999999;" d="M118.2,27L58,87.2c-2.6,2.6-6,4-9.6,4s-7-1.4-9.6-4L8.2,56.6c-2.6-2.6-4-6-4-9.6c0-3.6,1.4-7,4-9.6
	c2.6-2.6,6-4,9.6-4c3.6,0,7,1.4,9.6,4l21.1,21.1L99,7.9c2.6-2.6,6-4,9.6-4c3.6,0,7,1.4,9.6,4C123.5,13.2,123.5,21.8,118.2,27z"/>
</svg>
