<?xml version="1.0" encoding="utf-8"?>
<!-- Generator: Adobe Illustrator 23.0.0, SVG Export Plug-In . SVG Version: 6.00 Build 0)  -->
<svg version="1.1" id="레이어_1" xmlns="http://www.w3.org/2000/svg" xmlns:xlink="http://www.w3.org/1999/xlink" x="0px"
	 y="0px" width="52px" height="52px" viewBox="0 0 52 52" style="enable-background:new 0 0 52 52;" xml:space="preserve">
<g>
	
		<ellipse style="fill:none;stroke:#FF6600;stroke-width:4;stroke-linejoin:round;stroke-miterlimit:10;" cx="26" cy="26" rx="23" ry="23"/>
	<path style="fill:#FF6600;" d="M34,36H18c-1.1,0-2-0.9-2-2V18c0-1.1,0.9-2,2-2h16c1.1,0,2,0.9,2,2v16C36,35.1,35.1,36,34,36"/>
	<path style="fill:none;stroke:#FF6600;stroke-width:2;stroke-linejoin:round;stroke-miterlimit:10;" d="M34,36H18c-1.1,0-2-0.9-2-2
		V18c0-1.1,0.9-2,2-2h16c1.1,0,2,0.9,2,2v16C36,35.1,35.1,36,34,36z"/>
</g>
</svg>
