<?xml version="1.0" encoding="utf-8"?>
<!-- Generator: Adobe Illustrator 23.1.0, SVG Export Plug-In . SVG Version: 6.00 Build 0)  -->
<svg version="1.1" id="레이어_1" xmlns="http://www.w3.org/2000/svg" xmlns:xlink="http://www.w3.org/1999/xlink" x="0px"
	 y="0px" width="240px" height="24px" viewBox="0 0 240 24" style="enable-background:new 0 0 240 24;" xml:space="preserve">
<style type="text/css">
	.st0{fill:#DF7026;}
	.st1{fill:#646A9F;}
	.st2{fill:#0096A1;}
	.st3{fill:#8E4882;}
	.st4{fill:#2A8948;}
	.st5{fill:#DD6131;}
	.st6{fill:#FFFFFF;}
</style>
<path class="st0" d="M39,12c0-5.8-4.7-10.5-10.5-10.5c-1.7,0-3.4,0.5-4.8,1.4s-2.8,2-4.6,1.5c-2.7-0.8-4.5-2.9-7.6-2.9
	C5.7,1.5,1,6.2,1,12s4.7,10.5,10.5,10.5c1.5,0,2.9-0.3,4.2-1.1c1.3-0.7,2.5-1.6,4-1.7c1.6-0.1,3,0.9,4.3,1.6c1.4,0.8,3,1.2,4.5,1.2
	C34.3,22.5,39,17.8,39,12"/>
<path class="st1" d="M79,12c0-5.8-4.7-10.5-10.5-10.5c-1.7,0-3.4,0.5-4.8,1.4c-1.4,0.9-2.8,2-4.6,1.5c-2.7-0.8-4.5-2.9-7.6-2.9
	C45.7,1.5,41,6.2,41,12s4.7,10.5,10.5,10.5c1.5,0,2.9-0.3,4.2-1.1c1.3-0.7,2.5-1.6,4-1.7c1.6-0.1,3,0.9,4.3,1.6
	c1.4,0.8,3,1.2,4.5,1.2C74.3,22.5,79,17.8,79,12"/>
<path class="st2" d="M119,12c0-5.8-4.7-10.5-10.5-10.5c-1.7,0-3.4,0.5-4.8,1.4s-2.8,2-4.6,1.5c-2.7-0.8-4.5-2.9-7.6-2.9
	C85.7,1.5,81,6.2,81,12s4.7,10.5,10.5,10.5c1.5,0,2.9-0.3,4.2-1.1c1.3-0.7,2.5-1.6,4-1.7c1.6-0.1,3,0.9,4.3,1.6
	c1.4,0.8,3,1.2,4.5,1.2C114.3,22.5,119,17.8,119,12"/>
<path class="st3" d="M159,12c0-5.8-4.7-10.5-10.5-10.5c-1.7,0-3.4,0.5-4.8,1.4c-1.4,0.9-2.8,2-4.6,1.5c-2.7-0.8-4.5-2.9-7.6-2.9
	C125.7,1.5,121,6.2,121,12s4.7,10.5,10.5,10.5c1.5,0,2.9-0.3,4.2-1.1c1.3-0.7,2.5-1.6,4-1.7c1.6-0.1,3,0.9,4.3,1.6
	c1.4,0.8,3,1.2,4.5,1.2C154.3,22.5,159,17.8,159,12"/>
<path class="st4" d="M199,12c0-5.8-4.7-10.5-10.5-10.5c-1.7,0-3.4,0.5-4.8,1.4c-1.4,0.9-2.8,2-4.6,1.5c-2.7-0.8-4.5-2.9-7.6-2.9
	C165.7,1.5,161,6.2,161,12s4.7,10.5,10.5,10.5c1.5,0,2.9-0.3,4.2-1.1c1.3-0.7,2.5-1.6,4-1.7c1.6-0.1,3,0.9,4.3,1.6
	c1.4,0.8,3,1.2,4.5,1.2C194.3,22.5,199,17.8,199,12"/>
<path class="st5" d="M239,12c0-5.8-4.7-10.5-10.5-10.5c-1.7,0-3.4,0.5-4.8,1.4c-1.4,0.9-2.8,2-4.6,1.5c-2.7-0.8-4.5-2.9-7.6-2.9
	C205.7,1.5,201,6.2,201,12s4.7,10.5,10.5,10.5c1.5,0,2.9-0.3,4.2-1.1c1.3-0.7,2.5-1.6,4-1.7c1.6-0.1,3,0.9,4.3,1.6
	c1.4,0.8,3,1.2,4.5,1.2C234.3,22.5,239,17.8,239,12"/>
<path class="st6" d="M22.7,12.8h-5.3c-0.5,0-0.8-0.4-0.8-0.8l0,0c0-0.5,0.4-0.8,0.8-0.8h5.3c0.5,0,0.8,0.4,0.8,0.8l0,0
	C23.5,12.5,23.1,12.8,22.7,12.8z"/>
<path class="st6" d="M62.7,12.8h-5.3c-0.5,0-0.8-0.4-0.8-0.8l0,0c0-0.5,0.4-0.8,0.8-0.8h5.3c0.5,0,0.8,0.4,0.8,0.8l0,0
	C63.5,12.5,63.1,12.8,62.7,12.8z"/>
<path class="st6" d="M102.7,12.8h-5.3c-0.5,0-0.8-0.4-0.8-0.8l0,0c0-0.5,0.4-0.8,0.8-0.8h5.3c0.5,0,0.8,0.4,0.8,0.8l0,0
	C103.5,12.5,103.1,12.8,102.7,12.8z"/>
<path class="st6" d="M142.7,12.8h-5.3c-0.5,0-0.8-0.4-0.8-0.8l0,0c0-0.5,0.4-0.8,0.8-0.8h5.3c0.5,0,0.8,0.4,0.8,0.8l0,0
	C143.5,12.5,143.1,12.8,142.7,12.8z"/>
<path class="st6" d="M182.7,12.8h-5.3c-0.5,0-0.8-0.4-0.8-0.8l0,0c0-0.5,0.4-0.8,0.8-0.8h5.3c0.5,0,0.8,0.4,0.8,0.8l0,0
	C183.5,12.5,183.1,12.8,182.7,12.8z"/>
<path class="st6" d="M222.7,12.8h-5.3c-0.5,0-0.8-0.4-0.8-0.8l0,0c0-0.5,0.4-0.8,0.8-0.8h5.3c0.5,0,0.8,0.4,0.8,0.8l0,0
	C223.5,12.5,223.1,12.8,222.7,12.8z"/>
</svg>
