<?xml version="1.0" encoding="utf-8"?>
<!-- Generator: Adobe Illustrator 25.4.1, SVG Export Plug-In . SVG Version: 6.00 Build 0)  -->
<svg version="1.1" id="레이어_1" xmlns="http://www.w3.org/2000/svg" xmlns:xlink="http://www.w3.org/1999/xlink" x="0px"
	 y="0px" viewBox="0 0 39 27.7" style="enable-background:new 0 0 39 27.7;" xml:space="preserve">
<g>
	<path style="fill:#5A6FB4;" d="M4.3,3.8h4.3c0.3,0,0.6-0.2,0.6-0.5V1.7c0-0.3-0.3-0.5-0.6-0.5H4.3C4,1.2,3.7,1.4,3.7,1.7v1.5
		C3.7,3.5,4,3.8,4.3,3.8"/>
	<path style="fill:#5A6FB4;" d="M38.5,23.6V7.9c0-2-1.6-3.7-3.6-3.7h-10l-1.6-2.8c-0.3-0.6-1-1-1.7-1h-2.1h-3h-2.1
		c-0.7,0-1.4,0.4-1.7,1l-1.6,2.8h-7c-2,0-3.6,1.6-3.6,3.7v15.8c0,2,1.6,3.7,3.6,3.7H35C36.9,27.3,38.5,25.7,38.5,23.6"/>
</g>
</svg>
