<?xml version="1.0" encoding="utf-8"?>
<!-- Generator: Adobe Illustrator 16.0.0, SVG Export Plug-In . SVG Version: 6.00 Build 0)  -->
<!DOCTYPE svg PUBLIC "-//W3C//DTD SVG 1.1//EN" "http://www.w3.org/Graphics/SVG/1.1/DTD/svg11.dtd">
<svg version="1.1" id="Layer_1" xmlns="http://www.w3.org/2000/svg" xmlns:xlink="http://www.w3.org/1999/xlink" x="0px" y="0px"
	 width="28px" height="28px" viewBox="0 0 28 28" enable-background="new 0 0 28 28" xml:space="preserve">
<g display="none">
	<path display="inline" fill="#6b8cff" d="M21.908,14.257c0-2.135-0.682-4.125-2.229-5.6l-1.692,1.723
		c1.07,1.021,1.563,2.398,1.563,3.877c0,2.616-2.602,4.798-4.75,5.264v-1.848l-4.911,3.07l4.911,3.07V21.96
		C18.871,21.571,21.908,18.266,21.908,14.257z"/>
	<path display="inline" fill="#6b8cff" d="M8.452,13.743c0-2.616,2.592-4.797,4.736-5.264v1.848l4.912-3.07l-4.912-3.07v1.855
		C9.12,6.431,6.092,9.736,6.092,13.743c0,2.137,0.692,4.125,2.238,5.602l1.689-1.723C8.949,16.601,8.452,15.222,8.452,13.743z"/>
</g>
<g>
	<path fill="#FFFFFF" d="M21.908,14.257c0-2.135-0.682-4.125-2.229-5.6l-1.692,1.723c1.07,1.021,1.563,2.398,1.563,3.877
		c0,2.616-2.602,4.798-4.75,5.264v-1.848l-4.911,3.07l4.911,3.07V21.96C18.871,21.571,21.908,18.266,21.908,14.257z"/>
	<path fill="#FFFFFF" d="M8.452,13.743c0-2.616,2.592-4.797,4.736-5.264v1.848l4.912-3.07l-4.912-3.07v1.855
		C9.12,6.431,6.092,9.736,6.092,13.743c0,2.137,0.692,4.125,2.238,5.602l1.689-1.723C8.949,16.601,8.452,15.222,8.452,13.743z"/>
</g>
</svg>
