<?xml version="1.0" encoding="utf-8"?>
<!-- Generator: Adobe Illustrator 23.0.0, SVG Export Plug-In . SVG Version: 6.00 Build 0)  -->
<svg version="1.1" id="레이어_1" xmlns="http://www.w3.org/2000/svg" xmlns:xlink="http://www.w3.org/1999/xlink" x="0px"
	 y="0px" width="112.8px" height="109.2px" viewBox="0 0 112.8 109.2" style="enable-background:new 0 0 112.8 109.2;"
	 xml:space="preserve">
<style type="text/css">
	.st0{clip-path:url(#SVGID_2_);fill:#FFFFFF;}
	.st1{clip-path:url(#SVGID_2_);fill:#E95F9E;}
	.st2{clip-path:url(#SVGID_2_);fill:#B39B2A;}
	.st3{clip-path:url(#SVGID_2_);fill:#FFE100;}
	.st4{clip-path:url(#SVGID_2_);fill:#543B2A;}
	.st5{clip-path:url(#SVGID_2_);fill:#332C28;}
	.st6{clip-path:url(#SVGID_2_);fill:#714234;}
	.st7{clip-path:url(#SVGID_2_);fill:#3B322F;}
	.st8{clip-path:url(#SVGID_2_);fill:#EC6D7B;}
	.st9{clip-path:url(#SVGID_2_);fill:#008CD6;}
	.st10{clip-path:url(#SVGID_2_);fill:#FDCF00;}
	.st11{clip-path:url(#SVGID_2_);fill:#FFE893;}
	.st12{clip-path:url(#SVGID_2_);}
</style>
<g>
	<defs>
		<rect id="SVGID_1_" x="0" y="0" width="112.8" height="109.2"/>
	</defs>
	<clipPath id="SVGID_2_">
		<use xlink:href="#SVGID_1_"  style="overflow:visible;"/>
	</clipPath>
	<path class="st0" d="M41.6,5.5c0,0-1-1.3-2.8-1.9"/>
	<path class="st1" d="M54.4,1.6c-5,0.7-9.8,2.8-13.7,6.1c-2.5,2.1-5.1,4.9-6.9,8c-1.4,2.4-2.4,5-2.5,7.6c-0.2,4.3,2.6,6.9,6.7,7.3
		c9,1,18.4-1.9,25-7.9c0.9-0.8,1.7-1.6,2.4-2.5c0.3-0.4,0.6-0.8,0.9-1.2c0.8-1.2,1.4-2.5,1.7-3.9C70,7.2,61.8,0.6,54.4,1.6"/>
	<path class="st2" d="M44.4,89.1c0,0-9.1,10.4-2.7,16c3.5,3.1,7.7,0.9,10.6-1.5"/>
	<path class="st0" d="M96,55.8c-5.9,5.5-12.8,7.7-15.4,4.9c-2.6-2.8,0.1-9.5,6-15c5.9-5.5,9.2-7.2,11.8-4.4
		C101,44.1,101.9,50.3,96,55.8"/>
	<path class="st0" d="M103.5,61c-7.4,3.1-14.7,2.7-16.1-0.8c-1.5-3.5,3.4-8.9,10.8-11.9c7.4-3.1,11.1-3.5,12.6,0
		C112.3,51.8,110.9,57.9,103.5,61"/>
	<path class="st3" d="M36.8,55.7c0,0-13.7-2.8-15.4,4.7c-1.4,5.9,10.4,7.5,10.4,7.5"/>
	<path class="st3" d="M64.7,104.9c18.7,0,33.9-15.2,34-33.8l0.1-27c0-9-3.5-17.6-9.9-24.1c-6.4-6.5-14.9-10.1-24-10.1h-0.2
		C46.2,9.9,31,25,30.9,43.7l-0.2,30c0,8.2,3.2,16,9,21.9c5.8,5.9,13.6,9.2,21.8,9.2L64.7,104.9z"/>
	<path class="st4" d="M32.4,76.6c-0.1-0.1-0.1-0.1-0.1-0.1l0-7.7l0,4.9C32.2,74.7,32.3,75.7,32.4,76.6"/>
	<path class="st4" d="M97.2,76.3c0,0-0.1,0.2-0.5,0.5c0.3-1.9,0.5-3.8,0.5-5.7L97.2,76.3z"/>
	<path class="st5" d="M96.6,80.3c-0.6,3.1-2,6.1-3.4,8.9c-0.6,0.2-1.3,0.5-2.1,0.7c2-2.8,3.6-5.9,4.7-9.3
		C96.1,80.5,96.4,80.4,96.6,80.3"/>
	<path class="st5" d="M36.7,89.3c-0.1,0-0.2-0.1-0.3-0.1c-1.4-2.9-3-6-3.6-9.3c0,0,0.1,0,0.1,0C33.6,83.3,34.9,86.5,36.7,89.3"/>
	<path class="st6" d="M64.9,72.1c23.9,0.1,32.4-3.1,32.4-3.1l0,1.9c0,2-0.2,3.9-0.6,5.7c-1.7,1.3-8.6,4.7-31.9,4.6
		c-25.6-0.1-31.5-3.9-32.5-4.7c-0.1-1-0.1-1.9-0.1-2.9l0-4.9C32.3,68.8,40.9,72,64.9,72.1"/>
	<path class="st7" d="M64.8,84.1c18.5,0.1,27.7-2.4,30.9-3.5c-1.1,3.4-2.7,6.5-4.7,9.3c-4.4,1.3-12.2,2.5-26.3,2.4
		c-16.3-0.1-24-1.7-28.1-3c-1.8-2.8-3.1-6-3.8-9.3C35.2,80.9,44.5,84,64.8,84.1"/>
	<path class="st3" d="M89.7,56.7c0,0,13.4,7.1,6.8,17.5C95,76.5,89,78.6,86.6,79c-3,0.5-6.8,0.2-8.4-4c-1.6-4.2,0-7.8,3.7-9.6"/>
	<path class="st3" d="M88.7,92.6c0,0,5.1,11.2-2.8,14.6c-4.3,1.9-8.5-2.2-10.5-5.3"/>
	<path class="st3" d="M54.9,52.7c0,0-1.6,2.1-7.4,1.9c-5.8-0.1-6.8-1.6-6.8-1.6"/>
	<path class="st8" d="M49.4,54.7c0,0-0.1-5.6,3.2-5.8c3.3-0.2,3.3,4,3.3,4S55.1,54,49.4,54.7"/>
	<path class="st9" d="M36.7,51.3c-0.1,0-0.1,0-0.2,0c-4.4-0.1-7.8-4.8-7.7-10.4c0.1-5.5,3.7-10,8.1-10c0.1,0,0.1,0,0.2,0
		c2.2,0.1,4.2,1.2,5.6,3.2c1.4,1.9,2.2,4.5,2.1,7.2c-0.1,2.7-0.9,5.2-2.4,7.1C40.7,50.2,38.8,51.3,36.7,51.3 M36.8,32.3
		c-3.6,0-6.5,3.8-6.6,8.6c-0.1,4.8,2.7,8.8,6.3,8.9c1.7,0,3.4-0.8,4.6-2.4c1.3-1.6,2.1-3.8,2.1-6.2c0.1-2.4-0.6-4.6-1.8-6.3
		c-1.2-1.6-2.8-2.6-4.5-2.6C36.9,32.3,36.9,32.3,36.8,32.3"/>
	<path class="st9" d="M48,44.3c0.1,0,0.1,0,0.2,0c0.4-0.1,0.6-0.5,0.5-0.9c-0.5-1.8-1.8-2.9-3.3-2.9c-1.5,0-2.8,1-3.4,2.8
		c-0.1,0.4,0.1,0.8,0.4,0.9c0.4,0.1,0.8-0.1,0.9-0.4c0.4-1.2,1.2-1.9,2-1.8c0.8,0,1.6,0.8,1.9,1.9C47.5,44.1,47.7,44.3,48,44.3"/>
	<polygon class="st10" points="24.6,61 25.2,58.5 10.6,46.2 10,48.7 	"/>
	<rect x="13.6" y="47" transform="matrix(0.6455 -0.7638 0.7638 0.6455 -37.585 32.1338)" class="st10" width="4.5" height="19"/>
	<polygon class="st10" points="19.3,65.5 21.6,64.4 7.1,52.1 4.8,53.2 	"/>
	<path class="st11" d="M3.9,49.7c0.8-0.2,1.6-0.6,2.2-1.3C6.7,47.7,7,46.8,7.1,46l3.6,0.2l0.3,3.3L8,52.9l-3.3,0.2L3.9,49.7z"/>
	<path class="st7" d="M3.9,49.7l-0.9-4L7.1,46c-0.1,0.8-0.4,1.7-0.9,2.4C5.5,49.1,4.8,49.5,3.9,49.7"/>
	<path class="st12" d="M34.3,33c-1.2,3.3-1.9,6.9-1.9,10.7l0,4c-1.4-1.6-2.2-4.1-2.2-6.7C30.3,37.4,31.9,34.4,34.3,33"/>
	<path class="st12" d="M36.5,39c1.2,0,2.1,1.4,2.1,3c0,1.6-1,2.9-2.2,2.8c-1.2,0-2.1-1.4-2.1-3C34.3,40.3,35.3,39,36.5,39"/>
	<path class="st12" d="M53.7,45.3c-1.2,0-2.1-1.4-2.1-3c0-1.6,1-2.9,2.2-2.8c1.2,0,2.1,1.4,2.1,3C55.9,44,54.9,45.3,53.7,45.3"/>
	<path class="st12" d="M58.4,27.3c0.4,0,0.7,0.1,1.1,0.2c0.3,0.1,0.4,0.8,0.3,1.2c-0.1,0.5-0.4,0.7-0.7,0.6c0.1,0-0.1,0-0.1,0
		c-0.1,0-0.1,0-0.2,0c-0.2,0-0.3,0-0.5-0.1C57.6,29.1,57.6,27.2,58.4,27.3"/>
	<path class="st12" d="M42.1,29.7c0.1,0-0.1,0-0.1,0c-0.1,0-0.1,0-0.2,0c-0.2,0-0.3,0-0.5,0.1c-0.7,0.1-0.7-1.8,0-1.9
		c0.4,0,0.7-0.1,1.1,0c0.3,0,0.5,0.6,0.4,1.1C42.7,29.5,42.4,29.8,42.1,29.7"/>
	<path class="st12" d="M57.2,53.7c0.2-0.2,0.2-0.5,0.2-0.8c0-0.1,0-0.2,0-0.4c0-0.4-0.1-0.9-0.3-1.4c-0.2-0.8-0.6-1.8-1.4-2.5
		c-0.8-0.8-2-1.2-3.2-1.1c-0.7,0-1.3,0.3-1.9,0.6c-0.4,0.2-0.8,0.6-1.1,0.9c-1,1.2-1.4,2.8-1.6,4.3c-0.1,0-0.2,0-0.4,0
		c-4.3-0.1-5.6-1-5.7-1.1c-0.5-0.6-1.4-0.7-2-0.3c-0.7,0.5-0.8,1.4-0.4,2.1c0.4,0.6,2.1,2.1,8,2.3c0.2,0,0.4,0,0.6,0
		c0.3,0,0.6,0,0.9,0c0.1,0,0.3,0.1,0.4,0.1c0.1,0,0.1,0,0.2,0C54.9,55.6,56.6,54.5,57.2,53.7 M51,53c0.2-1.2,0.7-2.5,1.7-2.6
		c0.6,0,0.8,0.2,1,0.3c0.4,0.3,0.6,0.9,0.7,1.4C53.8,52.3,52.8,52.7,51,53"/>
	<path class="st9" d="M35,31.2c-1.8,0.5-3.3,1.8-4.4,3.6c-1.1,1.7-1.7,3.8-1.8,6.1c0,1.5,0.2,2.9,0.6,4.2c0.6,1.9,1.7,3.5,3,4.6
		c1.2,1,2.6,1.6,4.1,1.6c0.1,0,0.1,0,0.2,0c2.1,0,4.1-1,5.6-2.9c1.4-1.7,2.2-3.9,2.4-6.3c0.3-0.1,0.5-0.2,0.8-0.2
		c0.5,0,0.9,0.2,1.2,0.6c0,0.1,0,0.2,0,0.3c0.3,2.4,1.3,4.5,2.9,6.2c0.3-0.4,0.7-0.7,1.1-0.9c-1-1.1-1.8-2.4-2.2-3.8
		c0.3-0.2,0.4-0.5,0.3-0.8c-0.2-0.5-0.4-1-0.7-1.4c0-0.3,0-0.5,0-0.8c0.1-2.6,1.1-4.9,3-6.7c1.8-1.7,4.1-2.6,6.6-2.6
		c0.1,0,0.2,0,0.2,0c5.3,0.1,9.5,4.5,9.3,9.8c-0.1,5.3-4.6,9.5-9.8,9.3c-0.1,0-0.2,0-0.2,0c0.2,0.6,0.2,1.1,0.3,1.4
		c0.1,0,0.1,0,0.2,0c5.9,0,10.8-4.8,11-10.7c0.1-6.1-4.7-11.1-10.7-11.3c-2.9-0.1-5.7,1-7.9,3c-2,1.9-3.2,4.5-3.4,7.2
		c-0.4-0.2-0.8-0.3-1.2-0.3c-0.3,0-0.5,0-0.8,0.1c-0.1-2.4-0.8-4.7-2.1-6.4c-1.5-2-3.5-3.1-5.6-3.2c-0.1,0-0.1,0-0.2,0
		C36.2,30.9,35.6,31,35,31.2 M32.4,47.7c-1.4-1.6-2.2-4.1-2.2-6.7c0.1-3.5,1.8-6.6,4.1-7.9c0.8-0.5,1.7-0.7,2.6-0.7c0,0,0.1,0,0.1,0
		c1.7,0,3.3,1,4.5,2.6c1.2,1.7,1.9,3.9,1.8,6.3c0,0,0,0,0,0.1c-0.5,0.5-0.9,1.1-1.2,1.9c-0.1,0.4,0.1,0.8,0.4,0.9c0.1,0,0.2,0,0.3,0
		c-0.4,1.3-0.9,2.4-1.7,3.3c-1.3,1.6-2.9,2.4-4.6,2.4C34.9,49.8,33.5,49,32.4,47.7"/>
	<path class="st12" d="M3,42.7c-1.7,0-3,1.3-3,3c0,0.3,0,0.6,0.1,0.8L1,50.4l0.8,3.5c0.1,0.6,0.5,1.2,1,1.6l14.6,12.3
		c0.6,0.5,1.2,0.7,1.9,0.7c0.4,0,0.8-0.1,1.2-0.3l2.3-1c0.2-0.1,0.4-0.2,0.6-0.4c1.9,1.1,4.1,1.8,5.8,2.2l0,4.7
		c0,8.6,3.2,16.6,9.2,22.8c-1,3.3-0.9,6.9,2.3,9.7c1.4,1.3,3.1,1.9,4.8,1.9c2.2,0,4.7-1,7.2-3c2.8,0.8,5.7,1.2,8.7,1.2l3,0h0.2
		c3.8,0,7.4-0.6,10.8-1.7c2.1,2.5,5,4.5,8.1,4.5c0.9,0,1.9-0.2,2.9-0.6c2.2-1,3.8-2.5,4.6-4.7c1.2-3.1,0.6-6.8-0.1-9.2
		c5.7-6.3,9.2-14.6,9.2-23.7l0-7.3c1.2-0.3,2.5-0.8,3.8-1.3c4.9-2,7-5.1,8-7.3c1-2.5,1.1-5.1,0.2-7.3c-1.7-4.2-5.8-3.9-10.4-2.4
		c-0.2-1.5-0.7-2.8-1.5-4c-0.6-8.4-4.1-16.3-10.2-22.5C84.3,13.1,77,9.5,69,8.6c-0.1-0.3-0.3-0.6-0.4-1c0.3-0.2,0.6-0.4,0.9-0.6
		c2.6-1.5,5.2-2,7.3-1.5c0.4,0.1,0.8-0.1,0.9-0.5c0.1-0.4-0.1-0.8-0.5-0.9c-2.5-0.7-5.5-0.1-8.5,1.6c-0.3,0.2-0.6,0.3-0.9,0.5
		c-0.3-0.5-0.7-1-1.1-1.5c-3.1-3.5-8-5.3-12.5-4.7c-4.1,0.6-8,2.1-11.6,4.3c-0.4-0.4-1.5-1.6-3.3-2.2c-0.8-0.3-1.6,0.1-1.9,0.9
		c-0.3,0.8,0.1,1.6,0.9,1.9c0.9,0.3,1.5,0.9,1.9,1.2c-0.1,0.1-0.3,0.2-0.4,0.3c-2.9,2.4-5.5,5.4-7.2,8.4c-1.7,2.9-2.6,5.7-2.7,8.3
		c-0.1,2.7,0.8,5,2.5,6.6c-0.7,1.6-1.3,3.3-1.7,5c1.1-1.8,2.6-3,4.4-3.6c4.7-10.9,15.2-18.8,27.5-19.7c-1.2,1.6-2,3.3-2.5,5
		c-0.1,0.4,0.1,0.8,0.5,0.9c0.1,0,0.1,0,0.2,0c0.3,0,0.6-0.2,0.7-0.6c0.5-1.8,1.6-3.8,3-5.5c0.2,0,0.3,0,0.5,0c0.1,0,0.1,0,0.2,0
		C82.9,11.5,97.5,26.2,97.4,44l-0.1,17.2c-2.7-3.7-6.7-5.8-6.9-5.9c-0.7-0.4-1.6-0.1-2,0.6c-0.4,0.7-0.1,1.6,0.6,2
		c0.1,0,6.2,3.4,7.6,8.5c0.6,2.3,0.2,4.5-1.4,6.9c-1,1.6-6.3,3.7-8.9,4.1c-5.3,0.8-6.4-2.1-6.8-3c-1.3-3.3-0.1-6.2,3-7.7
		c0.7-0.4,1-1.3,0.7-2c-0.4-0.7-1.3-1-2-0.7c-3.3,1.6-5.1,4.5-5.1,7.9c0,1.2,0.2,2.4,0.7,3.6c1.1,2.8,3.2,4.5,6.1,4.9
		c0.5,0.1,1.1,0.1,1.7,0.1c0.7,0,1.4-0.1,2.2-0.2c1.2-0.2,3.6-0.9,5.9-1.9c1.6-0.7,3.1-1.5,4.1-2.5c0.2-0.1,0.3-0.3,0.4-0.4l0,0.7
		c0,0-0.1,0.2-0.5,0.5c-0.2,1.3-0.6,2.6-0.9,3.8c0.4-0.1,0.6-0.2,0.9-0.3c-0.6,3.1-2,6.1-3.4,8.9c-0.6,0.2-1.3,0.5-2.1,0.7
		c-0.4,0.6-0.9,1.2-1.3,1.7c-0.4-0.4-1.1-0.6-1.7-0.3c-0.8,0.3-1.1,1.2-0.8,2c0,0.1,2.5,5.7,1,9.6c-0.5,1.4-1.5,2.4-3,3
		c-3.5,1.5-7-2.3-8.6-4.7c0,0,0,0,0-0.1l0,0l0,0c-0.5-0.6-1.3-0.8-2-0.4c-0.5,0.3-0.7,0.8-0.7,1.3c-2.9,0.9-6,1.3-9.2,1.3h-0.2l-3,0
		c-10.5-0.1-19.7-5.7-24.9-14c-0.1,0-0.2-0.1-0.3-0.1c-1.4-2.9-3-6-3.6-9.3c0,0,0.1,0,0.1,0c-0.2-1.1-0.4-2.2-0.5-3.4
		c-0.1-0.1-0.1-0.1-0.1-0.1l0-2.8l0.1-24.1c-1.3-1.1-2.4-2.7-3-4.6l0,8.7c-1.4,0.1-2.8,0.4-4.2,0.8L12.6,43.9
		c-0.5-0.4-1.1-0.7-1.7-0.7L7.3,43l-4-0.3C3.2,42.7,3.1,42.7,3,42.7L3,42.7L3,42.7L3,42.7 M29.3,65.9c-1.2-0.3-2.6-0.8-3.8-1.4
		l1.3-1.6c0.3-0.3,0.5-0.8,0.6-1.2l0.6-2.5c0.2-0.8,0.1-1.6-0.3-2.2c0.5-0.1,1-0.2,1.6-0.2L29.3,65.9z M42.7,104
		c-1.6-1.4-2-3.2-1.7-5.1c2.5,2.1,5.3,3.8,8.3,5C46.7,105.5,44.5,105.5,42.7,104 M109.4,48.9c0.6,1.4,0.5,3.3-0.2,5
		c-0.7,1.7-2.4,4.1-6.3,5.7c-0.9,0.4-1.8,0.7-2.6,0.9l0.1-11.5c3.2-1.2,5.3-1.7,6.6-1.7C108.5,47.4,109.1,48.1,109.4,48.9 M56,3
		c3.1,0,6.3,1.4,8.5,3.8c0.4,0.4,0.7,0.9,1,1.3c-0.1,0.1-0.1,0.1-0.2,0.2c-0.1,0-0.1,0-0.2,0h-0.2c-13.4,0-25.1,7.5-31.2,18.5
		c-0.6-0.8-1-2-1-3.5c0.1-2.2,0.9-4.5,2.3-6.9c1.6-2.7,3.9-5.4,6.6-7.6c3.7-3,8.3-5.1,13-5.7C55.1,3,55.5,3,56,3 M3.9,49.7l-0.9-4
		L7.1,46l3.6,0.2h0l14.5,12.3L24.6,61l-2.9,3.4l-2.3,1L4.8,53.2l0,0L3.9,49.7z"/>
</g>
</svg>
