<?xml version="1.0" encoding="utf-8"?>
<!-- Generator: Adobe Illustrator 23.0.0, SVG Export Plug-In . SVG Version: 6.00 Build 0)  -->
<svg version="1.1" id="레이어_1" xmlns="http://www.w3.org/2000/svg" xmlns:xlink="http://www.w3.org/1999/xlink" x="0px"
	 y="0px" width="120px" height="60px" viewBox="0 0 120 60" style="enable-background:new 0 0 120 60;" xml:space="preserve">
<g>
	<path style="fill:#8E8BC2;" d="M15.6,57.9c-1.3,0-2.5-0.4-3.6-1.2c-1.9-1.4-2.8-3.7-2.4-6l1.9-11.2c0.2-1-0.2-2-0.9-2.8l-8.2-7.9
		c-1.4-1.4-2-3.2-1.8-5.1s1.3-3.6,3-4.6c0.7-0.4,1.4-0.7,2.2-0.8l11.3-1.7c0.4-0.1,0.8-0.2,1.1-0.4c0.5-0.3,1-0.8,1.2-1.3l5-10.2
		c0.5-1.1,1.4-2,2.4-2.6c1.5-0.9,3.3-1.1,4.9-0.6c1.6,0.5,2.9,1.6,3.7,3.1l5,10.2c0.5,0.9,1.3,1.6,2.4,1.7l11.3,1.6
		c2.3,0.3,4.2,1.9,5,4.2c0.7,2.2,0.1,4.6-1.5,6.3l-8.1,8c-0.7,0.7-1.1,1.8-0.9,2.8l1.9,11.2c0.4,2.5-0.7,5-3,6.3
		c-1.8,1.1-4,1.1-5.9,0.1l-10.1-5.3c-0.9-0.5-2-0.5-2.9,0L18.5,57C17.6,57.7,16.6,57.9,15.6,57.9z"/>
</g>
<g>
	<path style="fill:#8E8BC2;" d="M75.6,57.9c-1.3,0-2.5-0.4-3.6-1.2c-1.9-1.4-2.8-3.7-2.4-6l1.9-11.2c0.2-1-0.2-2-0.9-2.8l-8.2-7.9
		c-1.4-1.4-2-3.2-1.8-5.1s1.3-3.6,3-4.6c0.7-0.4,1.4-0.7,2.2-0.8l11.3-1.7c0.4-0.1,0.8-0.2,1.1-0.4c0.5-0.3,1-0.8,1.2-1.3l5-10.2
		c0.5-1.1,1.4-2,2.4-2.6c1.5-0.9,3.3-1.1,4.9-0.6s2.9,1.6,3.7,3.1l5,10.2c0.5,0.9,1.3,1.6,2.4,1.7l11.3,1.6c2.3,0.3,4.2,1.9,5,4.2
		c0.7,2.2,0.1,4.6-1.5,6.3l-8.1,8c-0.7,0.7-1.1,1.8-0.9,2.8l1.9,11.2c0.4,2.5-0.7,5-3,6.3c-1.8,1.1-4,1.1-5.9,0.1l-10.1-5.3
		c-0.9-0.5-2-0.5-2.9,0L78.5,57C77.6,57.7,76.6,57.9,75.6,57.9z M90,4.4c-0.6,0-1.1,0.1-1.6,0.4s-0.9,0.7-1.2,1.3l-5,10.2
		c-0.5,1.1-1.4,2-2.4,2.6c-0.7,0.4-1.4,0.7-2.2,0.8l-11.3,1.7c-0.4,0.1-0.8,0.2-1.1,0.4c-0.8,0.5-1.4,1.4-1.5,2.3
		c-0.1,1,0.2,1.9,0.9,2.6l8.2,7.9c1.4,1.4,2.1,3.4,1.8,5.4l-1.9,11.2c-0.2,1.2,0.3,2.3,1.3,3.1c1,0.7,2.2,0.8,3.3,0.2l10.1-5.3
		c1.8-0.9,3.9-0.9,5.7,0l9.9,5.3c1,0.5,2.1,0.5,3-0.1c0.9-0.5,1.8-1.7,1.5-3.2L105.6,40c-0.3-2,0.3-4,1.8-5.4l8.1-8
		c0.9-0.9,1.2-2.1,0.8-3.2c-0.4-1.2-1.3-2-2.5-2.1l0,0l-11.3-1.6c-2-0.3-3.7-1.5-4.6-3.4l-5-10.2c-0.5-1-1.3-1.4-1.9-1.6
		C90.6,4.4,90.3,4.4,90,4.4z"/>
</g>
</svg>
