<?xml version="1.0" encoding="utf-8"?>
<!-- Generator: Adobe Illustrator 23.0.0, SVG Export Plug-In . SVG Version: 6.00 Build 0)  -->
<svg version="1.1" id="레이어_1" xmlns="http://www.w3.org/2000/svg" xmlns:xlink="http://www.w3.org/1999/xlink" x="0px"
	 y="0px" width="36.5px" height="243.2px" viewBox="0 0 36.5 243.2" style="enable-background:new 0 0 36.5 243.2;"
	 xml:space="preserve">
<g>
	<g>
		<g>
			<polygon style="fill:#D5E8F7;stroke:#1B2B49;stroke-width:0.75;stroke-miterlimit:10;" points="2.2,10.7 25.6,10.7 33.5,2.3 
				10.1,2.3 			"/>
		</g>
		<g>
			
				<rect x="2" y="218.8" style="fill:#75C5EF;stroke:#1B2B49;stroke-width:0.75;stroke-miterlimit:10;" width="23.4" height="22.1"/>
			
				<rect x="2" y="195.4" style="fill:#75C5EF;stroke:#1B2B49;stroke-width:0.75;stroke-miterlimit:10;" width="23.4" height="23.4"/>
			<rect x="2" y="10.6" style="fill:#75C5EF;stroke:#1B2B49;stroke-width:0.75;stroke-miterlimit:10;" width="23.4" height="26.1"/>
			<rect x="2" y="36.7" style="fill:#75C5EF;stroke:#1B2B49;stroke-width:0.75;stroke-miterlimit:10;" width="23.4" height="24.1"/>
			<rect x="2" y="60.8" style="fill:#75C5EF;stroke:#1B2B49;stroke-width:0.75;stroke-miterlimit:10;" width="23.4" height="22.8"/>
			
				<rect x="2" y="173.3" style="fill:#75C5EF;stroke:#1B2B49;stroke-width:0.75;stroke-miterlimit:10;" width="23.4" height="22.1"/>
			
				<rect x="2" y="150.5" style="fill:#75C5EF;stroke:#1B2B49;stroke-width:0.75;stroke-miterlimit:10;" width="23.4" height="22.8"/>
			<rect x="2" y="83.5" style="fill:#75C5EF;stroke:#1B2B49;stroke-width:0.75;stroke-miterlimit:10;" width="23.4" height="22.1"/>
			
				<rect x="2" y="105.6" style="fill:#75C5EF;stroke:#1B2B49;stroke-width:0.75;stroke-miterlimit:10;" width="23.4" height="23.4"/>
			
				<rect x="2" y="129.1" style="fill:#75C5EF;stroke:#1B2B49;stroke-width:0.75;stroke-miterlimit:10;" width="23.4" height="21.4"/>
		</g>
		<g>
			<polygon style="fill:#3C6F86;stroke:#1B2B49;stroke-width:0.75;stroke-miterlimit:10;" points="34.1,75.3 25.2,83.8 25.3,105.8 
				34.2,97.4 			"/>
			<polygon style="fill:#3C6F86;stroke:#1B2B49;stroke-width:0.75;stroke-miterlimit:10;" points="34.3,164.9 25.5,173.4 
				25.5,195.4 34.4,187 			"/>
			<polygon style="fill:#3C6F86;stroke:#1B2B49;stroke-width:0.75;stroke-miterlimit:10;" points="34.2,97.4 25.3,105.8 25.3,129.2 
				34.2,120.8 			"/>
			<polygon style="fill:#3C6F86;stroke:#1B2B49;stroke-width:0.75;stroke-miterlimit:10;" points="34.3,142.2 25.4,150.6 
				25.5,173.4 34.3,164.9 			"/>
			<polygon style="fill:#3C6F86;stroke:#1B2B49;stroke-width:0.75;stroke-miterlimit:10;" points="34.2,120.8 25.3,129.2 
				25.4,150.6 34.3,142.2 			"/>
			<polygon style="fill:#3C6F86;stroke:#1B2B49;stroke-width:0.75;stroke-miterlimit:10;" points="34,28.5 25.1,37 25.1,61 34,52.6 
							"/>
			<polygon style="fill:#3C6F86;stroke:#1B2B49;stroke-width:0.75;stroke-miterlimit:10;" points="34,52.6 25.1,61 25.2,83.8 
				34.1,75.3 			"/>
			<polygon style="fill:#3C6F86;stroke:#1B2B49;stroke-width:0.75;stroke-miterlimit:10;" points="33.9,2.4 25,10.9 25.1,37 
				34,28.5 			"/>
			<polygon style="fill:#3C6F86;stroke:#1B2B49;stroke-width:0.75;stroke-miterlimit:10;" points="25.6,218.8 25.6,240.9 
				34.5,232.4 34.5,210.4 			"/>
			<polygon style="fill:#3C6F86;stroke:#1B2B49;stroke-width:0.75;stroke-miterlimit:10;" points="34.4,187 25.5,195.4 25.6,218.8 
				34.5,210.4 			"/>
		</g>
	</g>
</g>
</svg>
