<?xml version="1.0" encoding="utf-8"?>
<!-- Generator: Adobe Illustrator 23.0.0, SVG Export Plug-In . SVG Version: 6.00 Build 0)  -->
<svg version="1.1" id="레이어_1" xmlns="http://www.w3.org/2000/svg" xmlns:xlink="http://www.w3.org/1999/xlink" x="0px"
	 y="0px" width="39.1px" height="321.3px" viewBox="0 0 39.1 321.3" style="enable-background:new 0 0 39.1 321.3;"
	 xml:space="preserve">
<g>
	<g>
		<path style="fill:#F79EBC;" d="M0,289.9c0,0,0.1-0.2,0.3-0.3l28.8-0.3c0,0,0.5,0.8,0,0.9L0,289.9z"/>
		<path style="fill:#F79EBC;" d="M39.1,286.2c0,0-0.3-0.3-0.4-0.3l-9.9,3.7c0,0,0.5,0.8,0.8,0.6L39.1,286.2z"/>
		<path style="fill:#F79EBC;" d="M29.4,321.2c0,0-0.2,0.1-0.3,0.1v-31.4l0.5-0.1L29.4,321.2z"/>
		<polygon style="fill:#F8C8D6;" points="0,289.9 29,289.9 29,321.3 0,320 		"/>
		<polygon style="fill:#EC97B4;" points="29.3,290 39.1,286.2 39.1,315.4 29.3,321.2 		"/>
		<polygon style="fill:#BA6684;" points="38.7,285.9 7.4,285.8 0.3,289.6 29.2,289.6 		"/>
		<path style="fill:#F79EBC;" d="M14.7,312.8c-4.2,0-7.7-3.6-7.7-8c0-4.4,3.4-8,7.7-8c1.2,0,2.2,0.3,3.2,0.7
			c0.1-0.1,0.3-0.1,0.5-0.2c-1.1-0.6-2.4-0.9-3.7-0.9c-4.5,0-8.1,3.7-8.1,8.4c0,4.6,3.6,8.4,8.1,8.4c2.3,0,4.4-1,5.9-2.7
			c-0.2,0-0.3,0-0.4-0.1C18.7,311.9,16.8,312.8,14.7,312.8z"/>
		<path style="fill:#BA6684;" d="M7,304.8c0,4.4,3.4,8,7.7,8c2.1,0,4.1-0.9,5.5-2.4c-3.6-0.6-6.3-3.4-6.3-6.8c0-2.6,1.6-4.9,4.1-6.1
			c-1-0.5-2.1-0.7-3.2-0.7C10.4,296.8,7,300.4,7,304.8z"/>
		<path style="fill:#F79EBC;" d="M18.4,297.4c-0.2,0.1-0.3,0.1-0.5,0.2c2.6,1.3,4.5,4,4.5,7.2c0,2.2-0.9,4.2-2.2,5.6
			c0.1,0,0.3,0,0.4,0.1c1.3-1.5,2.2-3.5,2.2-5.7C22.7,301.6,21,298.8,18.4,297.4z"/>
		<path style="fill:#F7DAE4;" d="M13.8,303.7c0,3.4,2.7,6.2,6.3,6.8c1.4-1.4,2.2-3.4,2.2-5.6c0-3.2-1.8-6-4.5-7.2
			C15.5,298.8,13.8,301,13.8,303.7z"/>
		<path style="fill:#F79EBC;" d="M36.8,302.9c0,4.4-0.9,8-2,8c-1,0-1.9-3.6-1.8-8c0-4.4,0.9-8,2-8C36,294.9,36.8,298.5,36.8,302.9z"
			/>
		<path style="fill:#BA6684;" d="M36.5,302.9c0,4.4-0.9,8-1.8,8c-1,0-1.7-3.6-1.7-8c0-4.4,0.9-8,1.8-8
			C35.8,294.9,36.6,298.5,36.5,302.9z"/>
		
			<linearGradient id="SVGID_1_" gradientUnits="userSpaceOnUse" x1="-4.8261" y1="150.3738" x2="8.5288" y2="150.3738" gradientTransform="matrix(0.891 -1.190000e-02 2.870000e-02 2.1395 13.9169 -36.8545)">
			<stop  offset="6.896550e-02" style="stop-color:#FFA6D8"/>
			<stop  offset="0.2217" style="stop-color:#FFEDFF"/>
			<stop  offset="0.5502" style="stop-color:#FBADDA"/>
			<stop  offset="0.7143" style="stop-color:#F992CA"/>
		</linearGradient>
		<path style="fill:url(#SVGID_1_);" d="M13.9,280.9l0.1,5.8c0,1.3,2.7,2.3,6,2.2c3.3,0,5.9-1.1,5.9-2.4l-0.1-5.8L13.9,280.9z"/>
		<path style="fill:#F79EBC;" d="M25.8,281c0,0.9-2.7,1.6-6,1.6c-3.3,0-6-0.7-6-1.6c0-0.9,2.7-1.6,6-1.6
			C23.2,279.4,25.8,280.1,25.8,281z"/>
		<path style="fill:#BA6684;" d="M25.8,280.7c0,0.9-2.7,1.6-6,1.6c-3.3,0-6-0.7-6-1.6c0-0.9,2.7-1.6,6-1.6
			C23.2,279.1,25.8,279.8,25.8,280.7z"/>
	</g>
	<g>
		<path style="fill:#F79EBC;" d="M0,258.9c0,0,0.1-0.2,0.3-0.3l28.8-0.3c0,0,0.5,0.8,0,0.9L0,258.9z"/>
		<path style="fill:#F79EBC;" d="M39.1,255.1c0,0-0.3-0.2-0.4-0.2l-9.9,3.7c0,0,0.5,0.8,0.8,0.6L39.1,255.1z"/>
		<path style="fill:#F79EBC;" d="M29.4,290.2c0,0-0.2,0.1-0.3,0.1v-31.4l0.5-0.1L29.4,290.2z"/>
		<polygon style="fill:#F8C8D6;" points="0,258.9 29,258.9 29,290.3 0,288.9 		"/>
		<polygon style="fill:#EC97B4;" points="29.3,259 39.1,255.1 39.1,284.4 29.3,290.2 		"/>
		<polygon style="fill:#BA6684;" points="38.7,254.9 7.4,254.8 0.3,258.6 29.2,258.6 		"/>
		<path style="fill:#F79EBC;" d="M14.7,281.8c-4.2,0-7.7-3.6-7.7-8c0-4.4,3.4-8,7.7-8c1.2,0,2.2,0.3,3.2,0.7
			c0.1-0.1,0.3-0.1,0.5-0.2c-1.1-0.6-2.4-0.9-3.7-0.9c-4.5,0-8.1,3.8-8.1,8.4c0,4.6,3.6,8.4,8.1,8.4c2.3,0,4.4-1,5.9-2.7
			c-0.2,0-0.3,0-0.4-0.1C18.7,280.9,16.8,281.8,14.7,281.8z"/>
		<path style="fill:#BA6684;" d="M7,273.8c0,4.4,3.4,8,7.7,8c2.1,0,4.1-0.9,5.5-2.4c-3.6-0.6-6.3-3.4-6.3-6.8c0-2.6,1.6-4.9,4.1-6.1
			c-1-0.5-2.1-0.7-3.2-0.7C10.4,265.8,7,269.4,7,273.8z"/>
		<path style="fill:#F79EBC;" d="M18.4,266.4c-0.2,0.1-0.3,0.1-0.5,0.2c2.6,1.3,4.5,4,4.5,7.2c0,2.2-0.9,4.2-2.2,5.6
			c0.1,0,0.3,0,0.4,0.1c1.3-1.5,2.2-3.5,2.2-5.7C22.7,270.6,21,267.8,18.4,266.4z"/>
		<path style="fill:#F7DAE4;" d="M13.8,272.7c0,3.4,2.7,6.2,6.3,6.8c1.4-1.4,2.2-3.4,2.2-5.6c0-3.2-1.8-6-4.5-7.2
			C15.5,267.7,13.8,270,13.8,272.7z"/>
		<path style="fill:#F79EBC;" d="M36.8,271.9c0,4.4-0.9,8-2,8c-1,0-1.9-3.6-1.8-8c0-4.4,0.9-8,2-8C36,263.9,36.8,267.5,36.8,271.9z"
			/>
		<path style="fill:#BA6684;" d="M36.5,271.9c0,4.4-0.9,8-1.8,8c-1,0-1.7-3.6-1.7-8c0-4.4,0.9-8,1.8-8
			C35.8,263.9,36.6,267.5,36.5,271.9z"/>
		
			<linearGradient id="SVGID_2_" gradientUnits="userSpaceOnUse" x1="-4.3593" y1="135.8832" x2="8.9956" y2="135.8832" gradientTransform="matrix(0.891 -1.190000e-02 2.870000e-02 2.1395 13.9169 -36.8545)">
			<stop  offset="6.896550e-02" style="stop-color:#FFA6D8"/>
			<stop  offset="0.2217" style="stop-color:#FFEDFF"/>
			<stop  offset="0.5502" style="stop-color:#FBADDA"/>
			<stop  offset="0.7143" style="stop-color:#F992CA"/>
		</linearGradient>
		<path style="fill:url(#SVGID_2_);" d="M13.9,249.9l0.1,5.8c0,1.3,2.7,2.3,6,2.2c3.3,0,5.9-1.1,5.9-2.4l-0.1-5.8L13.9,249.9z"/>
		<path style="fill:#F79EBC;" d="M25.8,250c0,0.9-2.7,1.6-6,1.6c-3.3,0-6-0.7-6-1.6c0-0.9,2.7-1.6,6-1.6
			C23.2,248.3,25.8,249.1,25.8,250z"/>
		<path style="fill:#BA6684;" d="M25.8,249.7c0,0.9-2.7,1.6-6,1.6c-3.3,0-6-0.7-6-1.6c0-0.9,2.7-1.6,6-1.6
			C23.2,248.1,25.8,248.8,25.8,249.7z"/>
	</g>
	<g>
		<path style="fill:#F79EBC;" d="M0,227.9c0,0,0.1-0.2,0.3-0.3l28.8-0.3c0,0,0.5,0.8,0,0.9L0,227.9z"/>
		<path style="fill:#F79EBC;" d="M39.1,224.1c0,0-0.3-0.3-0.4-0.3l-9.9,3.7c0,0,0.5,0.8,0.8,0.6L39.1,224.1z"/>
		<path style="fill:#F79EBC;" d="M29.4,259.2c0,0-0.2,0.1-0.3,0.1v-31.4l0.5-0.1L29.4,259.2z"/>
		<polygon style="fill:#F8C8D6;" points="0,227.9 29,227.9 29,259.3 0,257.9 		"/>
		<polygon style="fill:#EC97B4;" points="29.3,228 39.1,224.1 39.1,253.4 29.3,259.2 		"/>
		<polygon style="fill:#BA6684;" points="38.7,223.9 7.4,223.8 0.3,227.6 29.2,227.6 		"/>
		<path style="fill:#F79EBC;" d="M14.7,250.8c-4.2,0-7.7-3.6-7.7-8c0-4.4,3.4-8,7.7-8c1.2,0,2.2,0.3,3.2,0.7
			c0.1-0.1,0.3-0.1,0.5-0.2c-1.1-0.6-2.4-0.9-3.7-0.9c-4.5,0-8.1,3.7-8.1,8.4c0,4.6,3.6,8.4,8.1,8.4c2.3,0,4.4-1,5.9-2.7
			c-0.2,0-0.3,0-0.4-0.1C18.7,249.9,16.8,250.8,14.7,250.8z"/>
		<path style="fill:#BA6684;" d="M7,242.8c0,4.4,3.4,8,7.7,8c2.1,0,4.1-0.9,5.5-2.4c-3.6-0.6-6.3-3.4-6.3-6.8c0-2.6,1.6-4.9,4.1-6.1
			c-1-0.5-2.1-0.7-3.2-0.7C10.4,234.8,7,238.4,7,242.8z"/>
		<path style="fill:#F79EBC;" d="M18.4,235.4c-0.2,0.1-0.3,0.1-0.5,0.2c2.6,1.3,4.5,4,4.5,7.2c0,2.2-0.9,4.2-2.2,5.6
			c0.1,0,0.3,0,0.4,0.1c1.3-1.5,2.2-3.5,2.2-5.7C22.7,239.6,21,236.8,18.4,235.4z"/>
		<path style="fill:#F7DAE4;" d="M13.8,241.6c0,3.4,2.7,6.2,6.3,6.8c1.4-1.4,2.2-3.4,2.2-5.6c0-3.2-1.8-6-4.5-7.2
			C15.5,236.7,13.8,239,13.8,241.6z"/>
		<path style="fill:#F79EBC;" d="M36.8,240.9c0,4.4-0.9,8-2,8c-1,0-1.9-3.6-1.8-8c0-4.4,0.9-8,2-8C36,232.9,36.8,236.5,36.8,240.9z"
			/>
		<path style="fill:#BA6684;" d="M36.5,240.9c0,4.4-0.9,8-1.8,8c-1,0-1.7-3.6-1.7-8c0-4.4,0.9-8,1.8-8
			C35.8,232.9,36.6,236.5,36.5,240.9z"/>
		
			<linearGradient id="SVGID_3_" gradientUnits="userSpaceOnUse" x1="-3.8925" y1="121.3915" x2="9.4624" y2="121.3915" gradientTransform="matrix(0.891 -1.190000e-02 2.870000e-02 2.1395 13.9169 -36.8545)">
			<stop  offset="6.896550e-02" style="stop-color:#FFA6D8"/>
			<stop  offset="0.2217" style="stop-color:#FFEDFF"/>
			<stop  offset="0.5502" style="stop-color:#FBADDA"/>
			<stop  offset="0.7143" style="stop-color:#F992CA"/>
		</linearGradient>
		<path style="fill:url(#SVGID_3_);" d="M13.9,218.9l0.1,5.8c0,1.3,2.7,2.3,6,2.2c3.3,0,5.9-1.1,5.9-2.4l-0.1-5.8L13.9,218.9z"/>
		<path style="fill:#F79EBC;" d="M25.8,219c0,0.9-2.7,1.6-6,1.6c-3.3,0-6-0.7-6-1.6c0-0.9,2.7-1.6,6-1.6
			C23.2,217.3,25.8,218.1,25.8,219z"/>
		<path style="fill:#BA6684;" d="M25.8,218.7c0,0.9-2.7,1.6-6,1.6c-3.3,0-6-0.7-6-1.6s2.7-1.6,6-1.6
			C23.2,217.1,25.8,217.8,25.8,218.7z"/>
	</g>
	<g>
		<path style="fill:#F79EBC;" d="M0,196.9c0,0,0.1-0.2,0.3-0.3l28.8-0.3c0,0,0.5,0.8,0,0.9L0,196.9z"/>
		<path style="fill:#F79EBC;" d="M39.1,193.1c0,0-0.3-0.2-0.4-0.2l-9.9,3.7c0,0,0.5,0.8,0.8,0.6L39.1,193.1z"/>
		<path style="fill:#F79EBC;" d="M29.4,228.2c0,0-0.2,0.1-0.3,0.1v-31.4l0.5-0.1L29.4,228.2z"/>
		<polygon style="fill:#F8C8D6;" points="0,196.9 29,196.9 29,228.2 0,226.9 		"/>
		<polygon style="fill:#EC97B4;" points="29.3,197 39.1,193.1 39.1,222.4 29.3,228.2 		"/>
		<polygon style="fill:#BA6684;" points="38.7,192.9 7.4,192.8 0.3,196.6 29.2,196.6 		"/>
		<path style="fill:#F79EBC;" d="M14.7,219.8c-4.2,0-7.7-3.6-7.7-8c0-4.4,3.4-8,7.7-8c1.2,0,2.2,0.3,3.2,0.7
			c0.1-0.1,0.3-0.1,0.5-0.2c-1.1-0.6-2.4-0.9-3.7-0.9c-4.5,0-8.1,3.7-8.1,8.4c0,4.6,3.6,8.4,8.1,8.4c2.3,0,4.4-1,5.9-2.7
			c-0.2,0-0.3,0-0.4-0.1C18.7,218.9,16.8,219.8,14.7,219.8z"/>
		<path style="fill:#BA6684;" d="M7,211.8c0,4.4,3.4,8,7.7,8c2.1,0,4.1-0.9,5.5-2.4c-3.6-0.6-6.3-3.4-6.3-6.8c0-2.6,1.6-4.9,4.1-6.1
			c-1-0.5-2.1-0.7-3.2-0.7C10.4,203.8,7,207.4,7,211.8z"/>
		<path style="fill:#F79EBC;" d="M18.4,204.4c-0.2,0.1-0.3,0.1-0.5,0.2c2.6,1.3,4.5,4,4.5,7.2c0,2.2-0.9,4.2-2.2,5.6
			c0.1,0,0.3,0,0.4,0.1c1.3-1.5,2.2-3.5,2.2-5.7C22.7,208.6,21,205.8,18.4,204.4z"/>
		<path style="fill:#F7DAE4;" d="M13.8,210.6c0,3.4,2.7,6.2,6.3,6.8c1.4-1.4,2.2-3.4,2.2-5.6c0-3.2-1.8-6-4.5-7.2
			C15.5,205.7,13.8,208,13.8,210.6z"/>
		<path style="fill:#F79EBC;" d="M36.8,209.9c0,4.4-0.9,8-2,8c-1,0-1.9-3.6-1.8-8c0-4.4,0.9-8,2-8C36,201.9,36.8,205.5,36.8,209.9z"
			/>
		<path style="fill:#BA6684;" d="M36.5,209.9c0,4.4-0.9,8-1.8,8c-1,0-1.7-3.6-1.7-8c0-4.4,0.9-8,1.8-8
			C35.8,201.9,36.6,205.5,36.5,209.9z"/>
		
			<linearGradient id="SVGID_4_" gradientUnits="userSpaceOnUse" x1="-3.4258" y1="106.9005" x2="9.9291" y2="106.9005" gradientTransform="matrix(0.891 -1.190000e-02 2.870000e-02 2.1395 13.9169 -36.8545)">
			<stop  offset="6.896550e-02" style="stop-color:#FFA6D8"/>
			<stop  offset="0.2217" style="stop-color:#FFEDFF"/>
			<stop  offset="0.5502" style="stop-color:#FBADDA"/>
			<stop  offset="0.7143" style="stop-color:#F992CA"/>
		</linearGradient>
		<path style="fill:url(#SVGID_4_);" d="M13.9,187.8l0.1,5.8c0,1.3,2.7,2.3,6,2.2c3.3,0,5.9-1.1,5.9-2.4l-0.1-5.8L13.9,187.8z"/>
		<path style="fill:#F79EBC;" d="M25.8,188c0,0.9-2.7,1.6-6,1.6c-3.3,0-6-0.7-6-1.6c0-0.9,2.7-1.6,6-1.6
			C23.2,186.3,25.8,187.1,25.8,188z"/>
		<path style="fill:#BA6684;" d="M25.8,187.7c0,0.9-2.7,1.6-6,1.6c-3.3,0-6-0.7-6-1.6c0-0.9,2.7-1.6,6-1.6
			C23.2,186.1,25.8,186.8,25.8,187.7z"/>
	</g>
	<g>
		<path style="fill:#F79EBC;" d="M0,165.9c0,0,0.1-0.2,0.3-0.3l28.8-0.3c0,0,0.5,0.8,0,0.9L0,165.9z"/>
		<path style="fill:#F79EBC;" d="M39.1,162.1c0,0-0.3-0.2-0.4-0.2l-9.9,3.7c0,0,0.5,0.8,0.8,0.6L39.1,162.1z"/>
		<path style="fill:#F79EBC;" d="M29.4,197.2c0,0-0.2,0.1-0.3,0.1v-31.4l0.5-0.1L29.4,197.2z"/>
		<polygon style="fill:#F8C8D6;" points="0,165.9 29,165.9 29,197.2 0,195.9 		"/>
		<polygon style="fill:#EC97B4;" points="29.3,166 39.1,162.1 39.1,191.4 29.3,197.2 		"/>
		<polygon style="fill:#BA6684;" points="38.7,161.9 7.4,161.8 0.3,165.6 29.2,165.6 		"/>
		<path style="fill:#F79EBC;" d="M14.7,188.8c-4.2,0-7.7-3.6-7.7-8c0-4.4,3.4-8,7.7-8c1.2,0,2.2,0.3,3.2,0.7
			c0.1-0.1,0.3-0.1,0.5-0.2c-1.1-0.6-2.4-0.9-3.7-0.9c-4.5,0-8.1,3.7-8.1,8.4c0,4.6,3.6,8.4,8.1,8.4c2.3,0,4.4-1,5.9-2.7
			c-0.2,0-0.3,0-0.4-0.1C18.7,187.9,16.8,188.8,14.7,188.8z"/>
		<path style="fill:#BA6684;" d="M7,180.8c0,4.4,3.4,8,7.7,8c2.1,0,4.1-0.9,5.5-2.4c-3.6-0.6-6.3-3.4-6.3-6.8c0-2.6,1.6-4.9,4.1-6.1
			c-1-0.5-2.1-0.7-3.2-0.7C10.4,172.8,7,176.4,7,180.8z"/>
		<path style="fill:#F79EBC;" d="M18.4,173.4c-0.2,0.1-0.3,0.1-0.5,0.2c2.6,1.3,4.5,4,4.5,7.2c0,2.2-0.9,4.2-2.2,5.6
			c0.1,0,0.3,0,0.4,0.1c1.3-1.5,2.2-3.5,2.2-5.7C22.7,177.5,21,174.7,18.4,173.4z"/>
		<path style="fill:#F7DAE4;" d="M13.8,179.6c0,3.4,2.7,6.2,6.3,6.8c1.4-1.4,2.2-3.4,2.2-5.6c0-3.2-1.8-6-4.5-7.2
			C15.5,174.7,13.8,177,13.8,179.6z"/>
		<path style="fill:#F79EBC;" d="M36.8,178.9c0,4.4-0.9,8-2,8c-1,0-1.9-3.6-1.8-8c0-4.4,0.9-8,2-8C36,170.9,36.8,174.5,36.8,178.9z"
			/>
		<path style="fill:#BA6684;" d="M36.5,178.9c0,4.4-0.9,8-1.8,8c-1,0-1.7-3.6-1.7-8c0-4.4,0.9-8,1.8-8
			C35.8,170.9,36.6,174.5,36.5,178.9z"/>
		
			<linearGradient id="SVGID_5_" gradientUnits="userSpaceOnUse" x1="-2.959" y1="92.4095" x2="10.3959" y2="92.4095" gradientTransform="matrix(0.891 -1.190000e-02 2.870000e-02 2.1395 13.9169 -36.8545)">
			<stop  offset="6.896550e-02" style="stop-color:#FFA6D8"/>
			<stop  offset="0.2217" style="stop-color:#FFEDFF"/>
			<stop  offset="0.5502" style="stop-color:#FBADDA"/>
			<stop  offset="0.7143" style="stop-color:#F992CA"/>
		</linearGradient>
		<path style="fill:url(#SVGID_5_);" d="M13.9,156.8l0.1,5.8c0,1.3,2.7,2.3,6,2.2c3.3,0,5.9-1.1,5.9-2.4l-0.1-5.8L13.9,156.8z"/>
		<path style="fill:#F79EBC;" d="M25.8,156.9c0,0.9-2.7,1.6-6,1.6c-3.3,0-6-0.7-6-1.6c0-0.9,2.7-1.6,6-1.6
			C23.2,155.3,25.8,156,25.8,156.9z"/>
		<path style="fill:#BA6684;" d="M25.8,156.7c0,0.9-2.7,1.6-6,1.6c-3.3,0-6-0.7-6-1.6c0-0.9,2.7-1.6,6-1.6
			C23.2,155,25.8,155.8,25.8,156.7z"/>
	</g>
	<g>
		<path style="fill:#F79EBC;" d="M0,134.9c0,0,0.1-0.2,0.3-0.3l28.8-0.3c0,0,0.5,0.8,0,0.9L0,134.9z"/>
		<path style="fill:#F79EBC;" d="M39.1,131.1c0,0-0.3-0.2-0.4-0.2l-9.9,3.7c0,0,0.5,0.8,0.8,0.6L39.1,131.1z"/>
		<path style="fill:#F79EBC;" d="M29.4,166.1c0,0-0.2,0.1-0.3,0.1v-31.4l0.5-0.1L29.4,166.1z"/>
		<polygon style="fill:#F8C8D6;" points="0,134.9 29,134.9 29,166.2 0,164.9 		"/>
		<polygon style="fill:#EC97B4;" points="29.3,135 39.1,131.1 39.1,160.4 29.3,166.1 		"/>
		<polygon style="fill:#BA6684;" points="38.7,130.9 7.4,130.8 0.3,134.6 29.2,134.6 		"/>
		<path style="fill:#F79EBC;" d="M14.7,157.8c-4.2,0-7.7-3.6-7.7-8c0-4.4,3.4-8,7.7-8c1.2,0,2.2,0.3,3.2,0.7
			c0.1-0.1,0.3-0.1,0.5-0.2c-1.1-0.6-2.4-0.9-3.7-0.9c-4.5,0-8.1,3.7-8.1,8.4c0,4.6,3.6,8.4,8.1,8.4c2.3,0,4.4-1,5.9-2.7
			c-0.2,0-0.3,0-0.4-0.1C18.7,156.9,16.8,157.8,14.7,157.8z"/>
		<path style="fill:#BA6684;" d="M7,149.8c0,4.4,3.4,8,7.7,8c2.1,0,4.1-0.9,5.5-2.4c-3.6-0.6-6.3-3.4-6.3-6.8c0-2.6,1.6-4.9,4.1-6.1
			c-1-0.5-2.1-0.7-3.2-0.7C10.4,141.8,7,145.4,7,149.8z"/>
		<path style="fill:#F79EBC;" d="M18.4,142.3c-0.2,0.1-0.3,0.1-0.5,0.2c2.6,1.3,4.5,4,4.5,7.2c0,2.2-0.9,4.2-2.2,5.6
			c0.1,0,0.3,0,0.4,0.1c1.3-1.5,2.2-3.5,2.2-5.7C22.7,146.5,21,143.7,18.4,142.3z"/>
		<path style="fill:#F7DAE4;" d="M13.8,148.6c0,3.4,2.7,6.2,6.3,6.8c1.4-1.4,2.2-3.4,2.2-5.6c0-3.2-1.8-6-4.5-7.2
			C15.5,143.7,13.8,146,13.8,148.6z"/>
		<path style="fill:#F79EBC;" d="M36.8,147.9c0,4.4-0.9,8-2,8c-1,0-1.9-3.6-1.8-8c0-4.4,0.9-8,2-8C36,139.8,36.8,143.4,36.8,147.9z"
			/>
		<path style="fill:#BA6684;" d="M36.5,147.9c0,4.4-0.9,8-1.8,8c-1,0-1.7-3.6-1.7-8c0-4.4,0.9-8,1.8-8
			C35.8,139.8,36.6,143.4,36.5,147.9z"/>
		
			<linearGradient id="SVGID_6_" gradientUnits="userSpaceOnUse" x1="-2.4922" y1="77.9185" x2="10.8627" y2="77.9185" gradientTransform="matrix(0.891 -1.190000e-02 2.870000e-02 2.1395 13.9169 -36.8545)">
			<stop  offset="6.896550e-02" style="stop-color:#FFA6D8"/>
			<stop  offset="0.2217" style="stop-color:#FFEDFF"/>
			<stop  offset="0.5502" style="stop-color:#FBADDA"/>
			<stop  offset="0.7143" style="stop-color:#F992CA"/>
		</linearGradient>
		<path style="fill:url(#SVGID_6_);" d="M13.9,125.8l0.1,5.8c0,1.3,2.7,2.3,6,2.2c3.3,0,5.9-1.1,5.9-2.4l-0.1-5.8L13.9,125.8z"/>
		<path style="fill:#F79EBC;" d="M25.8,125.9c0,0.9-2.7,1.6-6,1.6c-3.3,0-6-0.7-6-1.6c0-0.9,2.7-1.6,6-1.6
			C23.2,124.3,25.8,125,25.8,125.9z"/>
		<path style="fill:#BA6684;" d="M25.8,125.7c0,0.9-2.7,1.6-6,1.6c-3.3,0-6-0.7-6-1.6c0-0.9,2.7-1.6,6-1.6
			C23.2,124,25.8,124.8,25.8,125.7z"/>
	</g>
	<g>
		<path style="fill:#F79EBC;" d="M0,103.9c0,0,0.1-0.2,0.3-0.3l28.8-0.3c0,0,0.5,0.8,0,0.9L0,103.9z"/>
		<path style="fill:#F79EBC;" d="M39.1,100.1c0,0-0.3-0.2-0.4-0.2l-9.9,3.7c0,0,0.5,0.8,0.8,0.6L39.1,100.1z"/>
		<path style="fill:#F79EBC;" d="M29.4,135.1c0,0-0.2,0.1-0.3,0.1v-31.4l0.5-0.1L29.4,135.1z"/>
		<polygon style="fill:#F8C8D6;" points="0,103.9 29,103.9 29,135.2 0,133.9 		"/>
		<polygon style="fill:#EC97B4;" points="29.3,104 39.1,100.1 39.1,129.4 29.3,135.1 		"/>
		<polygon style="fill:#BA6684;" points="38.7,99.9 7.4,99.7 0.3,103.6 29.2,103.6 		"/>
		<path style="fill:#F79EBC;" d="M14.7,126.8c-4.2,0-7.7-3.6-7.7-8c0-4.4,3.4-8,7.7-8c1.2,0,2.2,0.3,3.2,0.7
			c0.1-0.1,0.3-0.1,0.5-0.2c-1.1-0.6-2.4-0.9-3.7-0.9c-4.5,0-8.1,3.7-8.1,8.4c0,4.6,3.6,8.4,8.1,8.4c2.3,0,4.4-1,5.9-2.7
			c-0.2,0-0.3,0-0.4-0.1C18.7,125.9,16.8,126.8,14.7,126.8z"/>
		<path style="fill:#BA6684;" d="M7,118.8c0,4.4,3.4,8,7.7,8c2.1,0,4.1-0.9,5.5-2.4c-3.6-0.6-6.3-3.4-6.3-6.8c0-2.6,1.6-4.9,4.1-6.1
			c-1-0.5-2.1-0.7-3.2-0.7C10.4,110.8,7,114.4,7,118.8z"/>
		<path style="fill:#F79EBC;" d="M18.4,111.3c-0.2,0.1-0.3,0.1-0.5,0.2c2.6,1.3,4.5,4,4.5,7.2c0,2.2-0.9,4.2-2.2,5.6
			c0.1,0,0.3,0,0.4,0.1c1.3-1.5,2.2-3.5,2.2-5.7C22.7,115.5,21,112.7,18.4,111.3z"/>
		<path style="fill:#F7DAE4;" d="M13.8,117.6c0,3.4,2.7,6.2,6.3,6.8c1.4-1.4,2.2-3.4,2.2-5.6c0-3.2-1.8-6-4.5-7.2
			C15.5,112.7,13.8,115,13.8,117.6z"/>
		<path style="fill:#F79EBC;" d="M36.8,116.9c0,4.4-0.9,8-2,8c-1,0-1.9-3.6-1.8-8c0-4.4,0.9-8,2-8C36,108.8,36.8,112.4,36.8,116.9z"
			/>
		<path style="fill:#BA6684;" d="M36.5,116.9c0,4.4-0.9,8-1.8,8c-1,0-1.7-3.6-1.7-8c0-4.4,0.9-8,1.8-8
			C35.8,108.8,36.6,112.4,36.5,116.9z"/>
		
			<linearGradient id="SVGID_7_" gradientUnits="userSpaceOnUse" x1="-2.0255" y1="63.4277" x2="11.3294" y2="63.4277" gradientTransform="matrix(0.891 -1.190000e-02 2.870000e-02 2.1395 13.9169 -36.8545)">
			<stop  offset="6.896550e-02" style="stop-color:#FFA6D8"/>
			<stop  offset="0.2217" style="stop-color:#FFEDFF"/>
			<stop  offset="0.5502" style="stop-color:#FBADDA"/>
			<stop  offset="0.7143" style="stop-color:#F992CA"/>
		</linearGradient>
		<path style="fill:url(#SVGID_7_);" d="M13.9,94.8l0.1,5.8c0,1.3,2.7,2.3,6,2.2c3.3,0,5.9-1.1,5.9-2.4l-0.1-5.8L13.9,94.8z"/>
		<path style="fill:#F79EBC;" d="M25.8,94.9c0,0.9-2.7,1.6-6,1.6c-3.3,0-6-0.7-6-1.6c0-0.9,2.7-1.6,6-1.6
			C23.2,93.3,25.8,94,25.8,94.9z"/>
		<path style="fill:#BA6684;" d="M25.8,94.7c0,0.9-2.7,1.6-6,1.6c-3.3,0-6-0.7-6-1.6c0-0.9,2.7-1.6,6-1.6
			C23.2,93,25.8,93.8,25.8,94.7z"/>
	</g>
	<g>
		<path style="fill:#F79EBC;" d="M0,72.9c0,0,0.1-0.2,0.3-0.3L29,72.3c0,0,0.5,0.8,0,0.9L0,72.9z"/>
		<path style="fill:#F79EBC;" d="M39.1,69.1c0,0-0.3-0.2-0.4-0.2l-9.9,3.7c0,0,0.5,0.8,0.8,0.6L39.1,69.1z"/>
		<path style="fill:#F79EBC;" d="M29.4,104.1c0,0-0.2,0.1-0.3,0.1V72.8l0.5-0.1L29.4,104.1z"/>
		<polygon style="fill:#F8C8D6;" points="0,72.9 29,72.9 29,104.2 0,102.9 		"/>
		<polygon style="fill:#EC97B4;" points="29.3,73 39.1,69.1 39.1,98.3 29.3,104.1 		"/>
		<polygon style="fill:#BA6684;" points="38.7,68.8 7.4,68.7 0.3,72.6 29.2,72.6 		"/>
		<path style="fill:#F79EBC;" d="M14.7,95.8c-4.2,0-7.7-3.6-7.7-8c0-4.4,3.4-8,7.7-8c1.2,0,2.2,0.3,3.2,0.7c0.1-0.1,0.3-0.1,0.5-0.2
			c-1.1-0.6-2.4-0.9-3.7-0.9c-4.5,0-8.1,3.7-8.1,8.4c0,4.6,3.6,8.4,8.1,8.4c2.3,0,4.4-1,5.9-2.7c-0.2,0-0.3,0-0.4-0.1
			C18.7,94.8,16.8,95.8,14.7,95.8z"/>
		<path style="fill:#BA6684;" d="M7,87.8c0,4.4,3.4,8,7.7,8c2.1,0,4.1-0.9,5.5-2.4c-3.6-0.6-6.3-3.4-6.3-6.8c0-2.6,1.6-4.9,4.1-6.1
			c-1-0.5-2.1-0.7-3.2-0.7C10.4,79.8,7,83.4,7,87.8z"/>
		<path style="fill:#F79EBC;" d="M18.4,80.3c-0.2,0.1-0.3,0.1-0.5,0.2c2.6,1.3,4.5,4,4.5,7.2c0,2.2-0.9,4.2-2.2,5.6
			c0.1,0,0.3,0,0.4,0.1c1.3-1.5,2.2-3.5,2.2-5.7C22.7,84.5,21,81.7,18.4,80.3z"/>
		<path style="fill:#F7DAE4;" d="M13.8,86.6c0,3.4,2.7,6.2,6.3,6.8c1.4-1.4,2.2-3.4,2.2-5.6c0-3.2-1.8-6-4.5-7.2
			C15.5,81.7,13.8,84,13.8,86.6z"/>
		<path style="fill:#F79EBC;" d="M36.8,85.9c0,4.4-0.9,8-2,8c-1,0-1.9-3.6-1.8-8c0-4.4,0.9-8,2-8C36,77.8,36.8,81.4,36.8,85.9z"/>
		<path style="fill:#BA6684;" d="M36.5,85.8c0,4.4-0.9,8-1.8,8c-1,0-1.7-3.6-1.7-8c0-4.4,0.9-8,1.8-8C35.8,77.8,36.6,81.4,36.5,85.8
			z"/>
		
			<linearGradient id="SVGID_8_" gradientUnits="userSpaceOnUse" x1="-1.5587" y1="48.9366" x2="11.7962" y2="48.9366" gradientTransform="matrix(0.891 -1.190000e-02 2.870000e-02 2.1395 13.9169 -36.8545)">
			<stop  offset="6.896550e-02" style="stop-color:#FFA6D8"/>
			<stop  offset="0.2217" style="stop-color:#FFEDFF"/>
			<stop  offset="0.5502" style="stop-color:#FBADDA"/>
			<stop  offset="0.7143" style="stop-color:#F992CA"/>
		</linearGradient>
		<path style="fill:url(#SVGID_8_);" d="M13.9,63.8l0.1,5.8c0,1.3,2.7,2.3,6,2.2c3.3,0,5.9-1.1,5.9-2.4l-0.1-5.8L13.9,63.8z"/>
		<path style="fill:#F79EBC;" d="M25.8,63.9c0,0.9-2.7,1.6-6,1.6c-3.3,0-6-0.7-6-1.6c0-0.9,2.7-1.6,6-1.6
			C23.2,62.3,25.8,63,25.8,63.9z"/>
		<path style="fill:#BA6684;" d="M25.8,63.6c0,0.9-2.7,1.6-6,1.6c-3.3,0-6-0.7-6-1.6s2.7-1.6,6-1.6C23.2,62,25.8,62.7,25.8,63.6z"/>
	</g>
	<g>
		<path style="fill:#F79EBC;" d="M0,41.9c0,0,0.1-0.2,0.3-0.3L29,41.3c0,0,0.5,0.8,0,0.9L0,41.9z"/>
		<path style="fill:#F79EBC;" d="M39.1,38.1c0,0-0.3-0.2-0.4-0.2l-9.9,3.7c0,0,0.5,0.8,0.8,0.6L39.1,38.1z"/>
		<path style="fill:#F79EBC;" d="M29.4,73.1c0,0-0.2,0.1-0.3,0.1V41.8l0.5-0.1L29.4,73.1z"/>
		<polygon style="fill:#F8C8D6;" points="0,41.9 29,41.9 29,73.2 0,71.9 		"/>
		<polygon style="fill:#EC97B4;" points="29.3,41.9 39.1,38.1 39.1,67.3 29.3,73.1 		"/>
		<polygon style="fill:#BA6684;" points="38.7,37.8 7.4,37.7 0.3,41.6 29.2,41.6 		"/>
		<path style="fill:#F79EBC;" d="M14.7,64.7c-4.2,0-7.7-3.6-7.7-8c0-4.4,3.4-8,7.7-8c1.2,0,2.2,0.3,3.2,0.7c0.1-0.1,0.3-0.1,0.5-0.2
			c-1.1-0.6-2.4-0.9-3.7-0.9c-4.5,0-8.1,3.7-8.1,8.4c0,4.6,3.6,8.4,8.1,8.4c2.3,0,4.4-1,5.9-2.7c-0.2,0-0.3,0-0.4-0.1
			C18.7,63.8,16.8,64.7,14.7,64.7z"/>
		<path style="fill:#BA6684;" d="M7,56.8c0,4.4,3.4,8,7.7,8c2.1,0,4.1-0.9,5.5-2.4c-3.6-0.6-6.3-3.4-6.3-6.8c0-2.6,1.6-4.9,4.1-6.1
			c-1-0.5-2.1-0.7-3.2-0.7C10.4,48.8,7,52.3,7,56.8z"/>
		<path style="fill:#F79EBC;" d="M18.4,49.3c-0.2,0.1-0.3,0.1-0.5,0.2c2.6,1.3,4.5,4,4.5,7.2c0,2.2-0.9,4.2-2.2,5.6
			c0.1,0,0.3,0,0.4,0.1c1.3-1.5,2.2-3.5,2.2-5.7C22.7,53.5,21,50.7,18.4,49.3z"/>
		<path style="fill:#F7DAE4;" d="M13.8,55.6c0,3.4,2.7,6.2,6.3,6.8c1.4-1.4,2.2-3.4,2.2-5.6c0-3.2-1.8-6-4.5-7.2
			C15.5,50.7,13.8,53,13.8,55.6z"/>
		<path style="fill:#F79EBC;" d="M36.8,54.8c0,4.4-0.9,8-2,8c-1,0-1.9-3.6-1.8-8c0-4.4,0.9-8,2-8C36,46.8,36.8,50.4,36.8,54.8z"/>
		<path style="fill:#BA6684;" d="M36.5,54.8c0,4.4-0.9,8-1.8,8c-1,0-1.7-3.6-1.7-8c0-4.4,0.9-8,1.8-8C35.8,46.8,36.6,50.4,36.5,54.8
			z"/>
		
			<linearGradient id="SVGID_9_" gradientUnits="userSpaceOnUse" x1="-1.0919" y1="34.4457" x2="12.263" y2="34.4457" gradientTransform="matrix(0.891 -1.190000e-02 2.870000e-02 2.1395 13.9169 -36.8545)">
			<stop  offset="6.896550e-02" style="stop-color:#FFA6D8"/>
			<stop  offset="0.2217" style="stop-color:#FFEDFF"/>
			<stop  offset="0.5502" style="stop-color:#FBADDA"/>
			<stop  offset="0.7143" style="stop-color:#F992CA"/>
		</linearGradient>
		<path style="fill:url(#SVGID_9_);" d="M13.9,32.8l0.1,5.8c0,1.3,2.7,2.3,6,2.2c3.3,0,5.9-1.1,5.9-2.4l-0.1-5.8L13.9,32.8z"/>
		<path style="fill:#F79EBC;" d="M25.8,32.9c0,0.9-2.7,1.6-6,1.6c-3.3,0-6-0.7-6-1.6c0-0.9,2.7-1.6,6-1.6
			C23.2,31.3,25.8,32,25.8,32.9z"/>
		<path style="fill:#BA6684;" d="M25.8,32.6c0,0.9-2.7,1.6-6,1.6c-3.3,0-6-0.7-6-1.6c0-0.9,2.7-1.6,6-1.6
			C23.2,31,25.8,31.7,25.8,32.6z"/>
	</g>
	<g>
		<path style="fill:#F79EBC;" d="M0,10.9c0,0,0.1-0.2,0.3-0.3L29,10.3c0,0,0.5,0.8,0,0.9L0,10.9z"/>
		<path style="fill:#F79EBC;" d="M39.1,7.1c0,0-0.3-0.2-0.4-0.2l-9.9,3.7c0,0,0.5,0.8,0.8,0.6L39.1,7.1z"/>
		<path style="fill:#F79EBC;" d="M29.4,42.1c0,0-0.2,0.1-0.3,0.1V10.8l0.5-0.1L29.4,42.1z"/>
		<polygon style="fill:#F8C8D6;" points="0,10.9 29,10.9 29,42.2 0,40.9 		"/>
		<polygon style="fill:#EC97B4;" points="29.3,10.9 39.1,7.1 39.1,36.3 29.3,42.1 		"/>
		<polygon style="fill:#BA6684;" points="38.7,6.8 7.4,6.7 0.3,10.5 29.2,10.5 		"/>
		<path style="fill:#F79EBC;" d="M14.7,33.7c-4.2,0-7.7-3.6-7.7-8c0-4.4,3.4-8,7.7-8c1.2,0,2.2,0.3,3.2,0.7c0.1-0.1,0.3-0.1,0.5-0.2
			c-1.1-0.6-2.4-0.9-3.7-0.9c-4.5,0-8.1,3.7-8.1,8.4c0,4.6,3.6,8.4,8.1,8.4c2.3,0,4.4-1,5.9-2.7c-0.2,0-0.3,0-0.4-0.1
			C18.7,32.8,16.8,33.7,14.7,33.7z"/>
		<path style="fill:#BA6684;" d="M7,25.7c0,4.4,3.4,8,7.7,8c2.1,0,4.1-0.9,5.5-2.4c-3.6-0.6-6.3-3.4-6.3-6.8c0-2.6,1.6-4.9,4.1-6.1
			c-1-0.5-2.1-0.7-3.2-0.7C10.4,17.8,7,21.3,7,25.7z"/>
		<path style="fill:#F79EBC;" d="M18.4,18.3c-0.2,0.1-0.3,0.1-0.5,0.2c2.6,1.3,4.5,4,4.5,7.2c0,2.2-0.9,4.2-2.2,5.6
			c0.1,0,0.3,0,0.4,0.1c1.3-1.5,2.2-3.5,2.2-5.7C22.7,22.5,21,19.7,18.4,18.3z"/>
		<path style="fill:#F7DAE4;" d="M13.8,24.6c0,3.4,2.7,6.2,6.3,6.8c1.4-1.4,2.2-3.4,2.2-5.6c0-3.2-1.8-6-4.5-7.2
			C15.5,19.7,13.8,22,13.8,24.6z"/>
		<path style="fill:#F79EBC;" d="M36.8,23.8c0,4.4-0.9,8-2,8c-1,0-1.9-3.6-1.8-8c0-4.4,0.9-8,2-8C36,15.8,36.8,19.4,36.8,23.8z"/>
		<path style="fill:#BA6684;" d="M36.5,23.8c0,4.4-0.9,8-1.8,8c-1,0-1.7-3.6-1.7-8c0-4.4,0.9-8,1.8-8C35.8,15.8,36.6,19.4,36.5,23.8
			z"/>
		
			<linearGradient id="SVGID_10_" gradientUnits="userSpaceOnUse" x1="-0.6251" y1="19.9547" x2="12.7297" y2="19.9547" gradientTransform="matrix(0.891 -1.190000e-02 2.870000e-02 2.1395 13.9169 -36.8545)">
			<stop  offset="6.896550e-02" style="stop-color:#FFA6D8"/>
			<stop  offset="0.2217" style="stop-color:#FFEDFF"/>
			<stop  offset="0.5502" style="stop-color:#FBADDA"/>
			<stop  offset="0.7143" style="stop-color:#F992CA"/>
		</linearGradient>
		<path style="fill:url(#SVGID_10_);" d="M13.9,1.8L14,7.6c0,1.3,2.7,2.3,6,2.2c3.3,0,5.9-1.1,5.9-2.4l-0.1-5.8L13.9,1.8z"/>
		<path style="fill:#F79EBC;" d="M25.8,1.9c0,0.9-2.7,1.6-6,1.6c-3.3,0-6-0.7-6-1.6c0-0.9,2.7-1.6,6-1.6C23.2,0.3,25.8,1,25.8,1.9z"
			/>
		<path style="fill:#BA6684;" d="M25.8,1.6c0,0.9-2.7,1.6-6,1.6c-3.3,0-6-0.7-6-1.6c0-0.9,2.7-1.6,6-1.6C23.2,0,25.8,0.7,25.8,1.6z"
			/>
	</g>
</g>
</svg>
