<?xml version="1.0" encoding="utf-8"?>
<!-- Generator: Adobe Illustrator 23.0.0, SVG Export Plug-In . SVG Version: 6.00 Build 0)  -->
<svg version="1.1" id="레이어_1" xmlns="http://www.w3.org/2000/svg" xmlns:xlink="http://www.w3.org/1999/xlink" x="0px"
	 y="0px" width="41.1px" height="322.7px" viewBox="0 0 41.1 322.7" style="enable-background:new 0 0 41.1 322.7;"
	 xml:space="preserve">
<g>
	<g>
		<polygon style="fill:#51BEE3;" points="0,291 30.6,291 30.6,322.7 0,321.4 		"/>
		<polygon style="fill:#0492C6;" points="30.9,291 41.1,287.1 41.1,316.8 30.9,322.7 		"/>
		<path style="fill:#29AACC;" d="M0,291c0,0,0.1-0.2,0.3-0.3l30.3-0.3c0,0,0.5,0.8,0,0.9L0,291z"/>
		<path style="fill:#29AACC;" d="M41.1,287.1c0,0-0.3-0.3-0.4-0.3l-10.5,3.8c0,0,0.6,0.8,0.8,0.6L41.1,287.1z"/>
		<path style="fill:#29AACC;" d="M30.9,322.7c0,0-0.2,0.1-0.3,0.1v-31.9l0.5-0.1L30.9,322.7z"/>
		<path style="fill:#29AACC;" d="M15.5,314.2c-4.5,0-8.1-3.6-8.1-8.1c0-4.5,3.6-8.1,8.1-8.1c1.2,0,2.4,0.3,3.4,0.8
			c0.2-0.1,0.3-0.1,0.5-0.2c-1.2-0.6-2.5-0.9-3.9-0.9c-4.7,0-8.5,3.8-8.5,8.5c0,4.7,3.8,8.5,8.5,8.5c2.5,0,4.7-1.1,6.2-2.7
			c-0.2,0-0.3,0-0.5-0.1C19.7,313.3,17.7,314.2,15.5,314.2z"/>
		<path style="fill:#0684C8;" d="M7.4,306.1c0,4.5,3.6,8.1,8.1,8.1c2.3,0,4.3-0.9,5.8-2.4c-3.8-0.6-6.6-3.4-6.6-6.9
			c0-2.7,1.7-5,4.3-6.2c-1-0.5-2.2-0.8-3.4-0.8C11,298,7.4,301.6,7.4,306.1z"/>
		<path style="fill:#29AACC;" d="M19.3,298.5c-0.2,0.1-0.3,0.1-0.5,0.2c2.8,1.3,4.7,4.1,4.7,7.3c0,2.2-0.9,4.2-2.3,5.7
			c0.2,0,0.3,0,0.5,0.1c1.4-1.5,2.3-3.5,2.3-5.8C23.9,302.8,22.1,299.9,19.3,298.5z"/>
		<path style="fill:#74C9DE;" d="M14.6,304.9c0,3.4,2.9,6.3,6.6,6.9c1.5-1.5,2.3-3.5,2.3-5.7c0-3.3-1.9-6.1-4.7-7.3
			C16.3,299.9,14.6,302.2,14.6,304.9z"/>
		<path style="fill:#29AACC;" d="M38.7,304.1c0,4.5-1,8.1-2.1,8.1c-1.1,0-2-3.7-1.9-8.1c0-4.5,1-8.1,2.1-8.1
			C37.9,296,38.7,299.6,38.7,304.1z"/>
		<path style="fill:#0684C8;" d="M38.5,304.1c0,4.5-0.9,8.1-1.9,8.1c-1,0-1.8-3.7-1.8-8.1c0-4.5,0.9-8.1,1.9-8.1
			C37.7,296,38.5,299.6,38.5,304.1z"/>
		<polygon style="fill:#0684C8;" points="40.8,287 7.9,286.9 0.3,290.7 30.8,290.7 		"/>
		
			<linearGradient id="SVGID_1_" gradientUnits="userSpaceOnUse" x1="-146.7808" y1="240.9151" x2="-119.8387" y2="240.9151" gradientTransform="matrix(0.4672 -6.200000e-03 1.530000e-02 1.138 79.5715 10.8341)">
			<stop  offset="6.896550e-02" style="stop-color:#27AAE1"/>
			<stop  offset="0.1315" style="stop-color:#5FCEEE"/>
			<stop  offset="0.2217" style="stop-color:#ABFFFF"/>
			<stop  offset="0.3315" style="stop-color:#8EE1EF"/>
			<stop  offset="0.5956" style="stop-color:#4B9CCA"/>
			<stop  offset="0.7192" style="stop-color:#3181BC"/>
		</linearGradient>
		<path style="fill:url(#SVGID_1_);" d="M14.6,281.7l0.1,6c0,1.3,2.8,2.3,6.3,2.3c3.5,0,6.2-1.1,6.2-2.5l0-5.9L14.6,281.7z"/>
		<path style="fill:#29AACC;" d="M27.2,281.9c0,0.9-2.8,1.7-6.3,1.7c-3.5,0-6.3-0.7-6.3-1.7c0-0.9,2.8-1.7,6.3-1.7
			C24.4,280.2,27.2,281,27.2,281.9z"/>
		<path style="fill:#0684C8;" d="M27.2,281.6c0,0.9-2.8,1.7-6.3,1.7c-3.5,0-6.3-0.7-6.3-1.7c0-0.9,2.8-1.7,6.3-1.7
			C24.4,280,27.2,280.7,27.2,281.6z"/>
	</g>
	<g>
		<polygon style="fill:#51BEE3;" points="0,260 30.6,260 30.6,291.8 0,290.5 		"/>
		<polygon style="fill:#0492C6;" points="30.9,260.1 41.1,256.2 41.1,285.8 30.9,291.7 		"/>
		<path style="fill:#29AACC;" d="M0,260c0,0,0.1-0.2,0.3-0.3l30.3-0.3c0,0,0.5,0.8,0,0.9L0,260z"/>
		<path style="fill:#29AACC;" d="M41.1,256.2c0,0-0.3-0.3-0.4-0.3l-10.5,3.8c0,0,0.6,0.8,0.8,0.6L41.1,256.2z"/>
		<path style="fill:#29AACC;" d="M30.9,291.7c0,0-0.2,0.1-0.3,0.1v-31.9l0.5-0.1L30.9,291.7z"/>
		<path style="fill:#29AACC;" d="M15.5,283.2c-4.5,0-8.1-3.6-8.1-8.1c0-4.5,3.6-8.1,8.1-8.1c1.2,0,2.4,0.3,3.4,0.8
			c0.2-0.1,0.3-0.1,0.5-0.2c-1.2-0.6-2.5-0.9-3.9-0.9c-4.7,0-8.5,3.8-8.5,8.5c0,4.7,3.8,8.5,8.5,8.5c2.5,0,4.7-1.1,6.2-2.7
			c-0.2,0-0.3,0-0.5-0.1C19.7,282.3,17.7,283.2,15.5,283.2z"/>
		<path style="fill:#0684C8;" d="M7.4,275.1c0,4.5,3.6,8.1,8.1,8.1c2.3,0,4.3-0.9,5.8-2.4c-3.8-0.6-6.6-3.4-6.6-6.9
			c0-2.7,1.7-5,4.3-6.2c-1-0.5-2.2-0.8-3.4-0.8C11,267,7.4,270.6,7.4,275.1z"/>
		<path style="fill:#29AACC;" d="M19.3,267.6c-0.2,0.1-0.3,0.1-0.5,0.2c2.8,1.3,4.7,4.1,4.7,7.3c0,2.2-0.9,4.2-2.3,5.7
			c0.2,0,0.3,0,0.5,0.1c1.4-1.5,2.3-3.5,2.3-5.8C23.9,271.8,22.1,269,19.3,267.6z"/>
		<path style="fill:#74C9DE;" d="M14.6,273.9c0,3.4,2.9,6.3,6.6,6.9c1.5-1.5,2.3-3.5,2.3-5.7c0-3.3-1.9-6.1-4.7-7.3
			C16.3,268.9,14.6,271.3,14.6,273.9z"/>
		<path style="fill:#29AACC;" d="M38.7,273.2c0,4.5-1,8.1-2.1,8.1c-1.1,0-2-3.7-1.9-8.1c0-4.5,1-8.1,2.1-8.1
			C37.9,265,38.7,268.7,38.7,273.2z"/>
		<path style="fill:#0684C8;" d="M38.5,273.2c0,4.5-0.9,8.1-1.9,8.1c-1,0-1.8-3.7-1.8-8.1c0-4.5,0.9-8.1,1.9-8.1
			C37.7,265,38.5,268.7,38.5,273.2z"/>
		<polygon style="fill:#0684C8;" points="40.8,256 7.9,255.9 0.3,259.8 30.8,259.8 		"/>
		
			<linearGradient id="SVGID_2_" gradientUnits="userSpaceOnUse" x1="-145.8901" y1="213.7157" x2="-118.948" y2="213.7157" gradientTransform="matrix(0.4672 -6.200000e-03 1.530000e-02 1.138 79.5715 10.8341)">
			<stop  offset="6.896550e-02" style="stop-color:#27AAE1"/>
			<stop  offset="0.1315" style="stop-color:#5FCEEE"/>
			<stop  offset="0.2217" style="stop-color:#ABFFFF"/>
			<stop  offset="0.3315" style="stop-color:#8EE1EF"/>
			<stop  offset="0.5956" style="stop-color:#4B9CCA"/>
			<stop  offset="0.7192" style="stop-color:#3181BC"/>
		</linearGradient>
		<path style="fill:url(#SVGID_2_);" d="M14.6,250.8l0.1,6c0,1.3,2.8,2.3,6.3,2.3c3.5,0,6.2-1.1,6.2-2.5l0-5.9L14.6,250.8z"/>
		<path style="fill:#29AACC;" d="M27.2,250.9c0,0.9-2.8,1.7-6.3,1.7c-3.5,0-6.3-0.7-6.3-1.7c0-0.9,2.8-1.7,6.3-1.7
			C24.4,249.3,27.2,250,27.2,250.9z"/>
		<path style="fill:#0684C8;" d="M27.2,250.7c0,0.9-2.8,1.7-6.3,1.7c-3.5,0-6.3-0.7-6.3-1.7c0-0.9,2.8-1.7,6.3-1.7
			C24.4,249,27.2,249.7,27.2,250.7z"/>
	</g>
	<g>
		<polygon style="fill:#51BEE3;" points="0,228.9 30.6,228.9 30.6,260.7 0,259.3 		"/>
		<polygon style="fill:#0492C6;" points="30.9,229 41.1,225.1 41.1,254.7 30.9,260.6 		"/>
		<path style="fill:#29AACC;" d="M0,228.9c0,0,0.1-0.2,0.3-0.3l30.3-0.3c0,0,0.5,0.8,0,0.9L0,228.9z"/>
		<path style="fill:#29AACC;" d="M41.1,225.1c0,0-0.3-0.3-0.4-0.3l-10.5,3.8c0,0,0.6,0.8,0.8,0.6L41.1,225.1z"/>
		<path style="fill:#29AACC;" d="M30.9,260.6c0,0-0.2,0.1-0.3,0.1v-31.9l0.5-0.1L30.9,260.6z"/>
		<path style="fill:#29AACC;" d="M15.5,252.1c-4.5,0-8.1-3.6-8.1-8.1c0-4.5,3.6-8.1,8.1-8.1c1.2,0,2.4,0.3,3.4,0.8
			c0.2-0.1,0.3-0.1,0.5-0.2c-1.2-0.6-2.5-0.9-3.9-0.9c-4.7,0-8.5,3.8-8.5,8.5c0,4.7,3.8,8.5,8.5,8.5c2.5,0,4.7-1.1,6.2-2.7
			c-0.2,0-0.3,0-0.5-0.1C19.7,251.2,17.7,252.1,15.5,252.1z"/>
		<path style="fill:#0684C8;" d="M7.4,244c0,4.5,3.6,8.1,8.1,8.1c2.3,0,4.3-0.9,5.8-2.4c-3.8-0.6-6.6-3.4-6.6-6.9
			c0-2.7,1.7-5,4.3-6.2c-1-0.5-2.2-0.8-3.4-0.8C11,235.9,7.4,239.5,7.4,244z"/>
		<path style="fill:#29AACC;" d="M19.3,236.4c-0.2,0.1-0.3,0.1-0.5,0.2c2.8,1.3,4.7,4.1,4.7,7.3c0,2.2-0.9,4.2-2.3,5.7
			c0.2,0,0.3,0,0.5,0.1c1.4-1.5,2.3-3.5,2.3-5.8C23.9,240.7,22.1,237.9,19.3,236.4z"/>
		<path style="fill:#74C9DE;" d="M14.6,242.8c0,3.4,2.9,6.3,6.6,6.9c1.5-1.5,2.3-3.5,2.3-5.7c0-3.3-1.9-6.1-4.7-7.3
			C16.3,237.8,14.6,240.1,14.6,242.8z"/>
		<path style="fill:#29AACC;" d="M38.7,242c0,4.5-1,8.1-2.1,8.1c-1.1,0-2-3.7-1.9-8.1c0-4.5,1-8.1,2.1-8.1
			C37.9,233.9,38.7,237.6,38.7,242z"/>
		<path style="fill:#0684C8;" d="M38.5,242c0,4.5-0.9,8.1-1.9,8.1c-1,0-1.8-3.7-1.8-8.1c0-4.5,0.9-8.1,1.9-8.1
			C37.7,233.9,38.5,237.6,38.5,242z"/>
		<polygon style="fill:#0684C8;" points="40.8,224.9 7.9,224.8 0.3,228.7 30.8,228.7 		"/>
		
			<linearGradient id="SVGID_3_" gradientUnits="userSpaceOnUse" x1="-144.9946" y1="186.3699" x2="-118.0524" y2="186.3699" gradientTransform="matrix(0.4672 -6.200000e-03 1.530000e-02 1.138 79.5715 10.8341)">
			<stop  offset="6.896550e-02" style="stop-color:#27AAE1"/>
			<stop  offset="0.1315" style="stop-color:#5FCEEE"/>
			<stop  offset="0.2217" style="stop-color:#ABFFFF"/>
			<stop  offset="0.3315" style="stop-color:#8EE1EF"/>
			<stop  offset="0.5956" style="stop-color:#4B9CCA"/>
			<stop  offset="0.7192" style="stop-color:#3181BC"/>
		</linearGradient>
		<path style="fill:url(#SVGID_3_);" d="M14.6,219.7l0.1,6c0,1.3,2.8,2.3,6.3,2.3c3.5,0,6.2-1.2,6.2-2.5l0-5.9L14.6,219.7z"/>
		<path style="fill:#29AACC;" d="M27.2,219.8c0,0.9-2.8,1.7-6.3,1.7c-3.5,0-6.3-0.7-6.3-1.7c0-0.9,2.8-1.7,6.3-1.7
			C24.4,218.2,27.2,218.9,27.2,219.8z"/>
		<path style="fill:#0684C8;" d="M27.2,219.5c0,0.9-2.8,1.7-6.3,1.7c-3.5,0-6.3-0.7-6.3-1.7c0-0.9,2.8-1.7,6.3-1.7
			C24.4,217.9,27.2,218.6,27.2,219.5z"/>
	</g>
	<g>
		<polygon style="fill:#51BEE3;" points="0,197.8 30.6,197.8 30.6,229.5 0,228.2 		"/>
		<polygon style="fill:#0492C6;" points="30.9,197.8 41.1,193.9 41.1,223.6 30.9,229.5 		"/>
		<path style="fill:#29AACC;" d="M0,197.8c0,0,0.1-0.2,0.3-0.3l30.3-0.3c0,0,0.5,0.8,0,0.9L0,197.8z"/>
		<path style="fill:#29AACC;" d="M41.1,193.9c0,0-0.3-0.3-0.4-0.3l-10.5,3.8c0,0,0.6,0.8,0.8,0.6L41.1,193.9z"/>
		<path style="fill:#29AACC;" d="M30.9,229.5c0,0-0.2,0.1-0.3,0.1v-31.9l0.5-0.1L30.9,229.5z"/>
		<path style="fill:#29AACC;" d="M15.5,221c-4.5,0-8.1-3.6-8.1-8.1c0-4.5,3.6-8.1,8.1-8.1c1.2,0,2.4,0.3,3.4,0.8
			c0.2-0.1,0.3-0.1,0.5-0.2c-1.2-0.6-2.5-0.9-3.9-0.9c-4.7,0-8.5,3.8-8.5,8.5c0,4.7,3.8,8.5,8.5,8.5c2.5,0,4.7-1.1,6.2-2.7
			c-0.2,0-0.3,0-0.5-0.1C19.7,220,17.7,221,15.5,221z"/>
		<path style="fill:#0684C8;" d="M7.4,212.9c0,4.5,3.6,8.1,8.1,8.1c2.3,0,4.3-0.9,5.8-2.4c-3.8-0.6-6.6-3.4-6.6-6.9
			c0-2.7,1.7-5,4.3-6.2c-1-0.5-2.2-0.8-3.4-0.8C11,204.8,7.4,208.4,7.4,212.9z"/>
		<path style="fill:#29AACC;" d="M19.3,205.3c-0.2,0.1-0.3,0.1-0.5,0.2c2.8,1.3,4.7,4.1,4.7,7.3c0,2.2-0.9,4.2-2.3,5.7
			c0.2,0,0.3,0,0.5,0.1c1.4-1.5,2.3-3.5,2.3-5.8C23.9,209.6,22.1,206.7,19.3,205.3z"/>
		<path style="fill:#74C9DE;" d="M14.6,211.7c0,3.4,2.9,6.3,6.6,6.9c1.5-1.5,2.3-3.5,2.3-5.7c0-3.3-1.9-6.1-4.7-7.3
			C16.3,206.7,14.6,209,14.6,211.7z"/>
		<path style="fill:#29AACC;" d="M38.7,210.9c0,4.5-1,8.1-2.1,8.1c-1.1,0-2-3.7-1.9-8.1c0-4.5,1-8.1,2.1-8.1
			C37.9,202.8,38.7,206.4,38.7,210.9z"/>
		<path style="fill:#0684C8;" d="M38.5,210.9c0,4.5-0.9,8.1-1.9,8.1c-1,0-1.8-3.7-1.8-8.1c0-4.5,0.9-8.1,1.9-8.1
			C37.7,202.8,38.5,206.4,38.5,210.9z"/>
		<polygon style="fill:#0684C8;" points="40.8,193.8 7.9,193.6 0.3,197.5 30.8,197.5 		"/>
		
			<linearGradient id="SVGID_4_" gradientUnits="userSpaceOnUse" x1="-144.0991" y1="159.0238" x2="-117.1569" y2="159.0238" gradientTransform="matrix(0.4672 -6.200000e-03 1.530000e-02 1.138 79.5715 10.8341)">
			<stop  offset="6.896550e-02" style="stop-color:#27AAE1"/>
			<stop  offset="0.1315" style="stop-color:#5FCEEE"/>
			<stop  offset="0.2217" style="stop-color:#ABFFFF"/>
			<stop  offset="0.3315" style="stop-color:#8EE1EF"/>
			<stop  offset="0.5956" style="stop-color:#4B9CCA"/>
			<stop  offset="0.7192" style="stop-color:#3181BC"/>
		</linearGradient>
		<path style="fill:url(#SVGID_4_);" d="M14.6,188.5l0.1,6c0,1.3,2.8,2.3,6.3,2.3c3.5,0,6.2-1.1,6.2-2.5l0-5.9L14.6,188.5z"/>
		<path style="fill:#29AACC;" d="M27.2,188.7c0,0.9-2.8,1.7-6.3,1.7c-3.5,0-6.3-0.7-6.3-1.7c0-0.9,2.8-1.7,6.3-1.7
			C24.4,187,27.2,187.8,27.2,188.7z"/>
		<path style="fill:#0684C8;" d="M27.2,188.4c0,0.9-2.8,1.7-6.3,1.7c-3.5,0-6.3-0.7-6.3-1.7c0-0.9,2.8-1.7,6.3-1.7
			C24.4,186.8,27.2,187.5,27.2,188.4z"/>
	</g>
	<g>
		<polygon style="fill:#51BEE3;" points="0,166.6 30.6,166.6 30.6,198.4 0,197.1 		"/>
		<polygon style="fill:#0492C6;" points="30.9,166.7 41.1,162.8 41.1,192.5 30.9,198.3 		"/>
		<path style="fill:#29AACC;" d="M0,166.6c0,0,0.1-0.2,0.3-0.3l30.3-0.3c0,0,0.5,0.8,0,0.9L0,166.6z"/>
		<path style="fill:#29AACC;" d="M41.1,162.8c0,0-0.3-0.3-0.4-0.3l-10.5,3.8c0,0,0.6,0.8,0.8,0.6L41.1,162.8z"/>
		<path style="fill:#29AACC;" d="M30.9,198.3c0,0-0.2,0.1-0.3,0.1v-31.9l0.5-0.1L30.9,198.3z"/>
		<path style="fill:#29AACC;" d="M15.5,189.8c-4.5,0-8.1-3.6-8.1-8.1c0-4.5,3.6-8.1,8.1-8.1c1.2,0,2.4,0.3,3.4,0.8
			c0.2-0.1,0.3-0.1,0.5-0.2c-1.2-0.6-2.5-0.9-3.9-0.9c-4.7,0-8.5,3.8-8.5,8.5c0,4.7,3.8,8.5,8.5,8.5c2.5,0,4.7-1.1,6.2-2.7
			c-0.2,0-0.3,0-0.5-0.1C19.7,188.9,17.7,189.8,15.5,189.8z"/>
		<path style="fill:#0684C8;" d="M7.4,181.7c0,4.5,3.6,8.1,8.1,8.1c2.3,0,4.3-0.9,5.8-2.4c-3.8-0.6-6.6-3.4-6.6-6.9
			c0-2.7,1.7-5,4.3-6.2c-1-0.5-2.2-0.8-3.4-0.8C11,173.6,7.4,177.3,7.4,181.7z"/>
		<path style="fill:#29AACC;" d="M19.3,174.2c-0.2,0.1-0.3,0.1-0.5,0.2c2.8,1.3,4.7,4.1,4.7,7.3c0,2.2-0.9,4.2-2.3,5.7
			c0.2,0,0.3,0,0.5,0.1c1.4-1.5,2.3-3.5,2.3-5.8C23.9,178.4,22.1,175.6,19.3,174.2z"/>
		<path style="fill:#74C9DE;" d="M14.6,180.6c0,3.4,2.9,6.3,6.6,6.9c1.5-1.5,2.3-3.5,2.3-5.7c0-3.3-1.9-6.1-4.7-7.3
			C16.3,175.6,14.6,177.9,14.6,180.6z"/>
		<path style="fill:#29AACC;" d="M38.7,179.8c0,4.5-1,8.1-2.1,8.1c-1.1,0-2-3.7-1.9-8.1c0-4.5,1-8.1,2.1-8.1
			C37.9,171.7,38.7,175.3,38.7,179.8z"/>
		<path style="fill:#0684C8;" d="M38.5,179.8c0,4.5-0.9,8.1-1.9,8.1c-1,0-1.8-3.7-1.8-8.1c0-4.5,0.9-8.1,1.9-8.1
			C37.7,171.7,38.5,175.3,38.5,179.8z"/>
		<polygon style="fill:#0684C8;" points="40.8,162.6 7.9,162.5 0.3,166.4 30.8,166.4 		"/>
		
			<linearGradient id="SVGID_5_" gradientUnits="userSpaceOnUse" x1="-143.2035" y1="131.6778" x2="-116.2614" y2="131.6778" gradientTransform="matrix(0.4672 -6.200000e-03 1.530000e-02 1.138 79.5715 10.8341)">
			<stop  offset="6.896550e-02" style="stop-color:#27AAE1"/>
			<stop  offset="0.1315" style="stop-color:#5FCEEE"/>
			<stop  offset="0.2217" style="stop-color:#ABFFFF"/>
			<stop  offset="0.3315" style="stop-color:#8EE1EF"/>
			<stop  offset="0.5956" style="stop-color:#4B9CCA"/>
			<stop  offset="0.7192" style="stop-color:#3181BC"/>
		</linearGradient>
		<path style="fill:url(#SVGID_5_);" d="M14.6,157.4l0.1,6c0,1.3,2.8,2.3,6.3,2.3c3.5,0,6.2-1.1,6.2-2.5l0-5.9L14.6,157.4z"/>
		<path style="fill:#29AACC;" d="M27.2,157.6c0,0.9-2.8,1.7-6.3,1.7c-3.5,0-6.3-0.7-6.3-1.7c0-0.9,2.8-1.7,6.3-1.7
			C24.4,155.9,27.2,156.6,27.2,157.6z"/>
		<path style="fill:#0684C8;" d="M27.2,157.3c0,0.9-2.8,1.7-6.3,1.7c-3.5,0-6.3-0.7-6.3-1.7c0-0.9,2.8-1.7,6.3-1.7
			C24.4,155.6,27.2,156.4,27.2,157.3z"/>
	</g>
	<g>
		<polygon style="fill:#51BEE3;" points="0,135.5 30.6,135.5 30.6,167.3 0,166 		"/>
		<polygon style="fill:#0492C6;" points="30.9,135.6 41.1,131.7 41.1,161.3 30.9,167.2 		"/>
		<path style="fill:#29AACC;" d="M0,135.5c0,0,0.1-0.2,0.3-0.3l30.3-0.3c0,0,0.5,0.8,0,0.9L0,135.5z"/>
		<path style="fill:#29AACC;" d="M41.1,131.7c0,0-0.3-0.3-0.4-0.3l-10.5,3.8c0,0,0.6,0.8,0.8,0.6L41.1,131.7z"/>
		<path style="fill:#29AACC;" d="M30.9,167.2c0,0-0.2,0.1-0.3,0.1v-31.9l0.5-0.1L30.9,167.2z"/>
		<path style="fill:#29AACC;" d="M15.5,158.7c-4.5,0-8.1-3.6-8.1-8.1c0-4.5,3.6-8.1,8.1-8.1c1.2,0,2.4,0.3,3.4,0.8
			c0.2-0.1,0.3-0.1,0.5-0.2c-1.2-0.6-2.5-0.9-3.9-0.9c-4.7,0-8.5,3.8-8.5,8.5c0,4.7,3.8,8.5,8.5,8.5c2.5,0,4.7-1.1,6.2-2.7
			c-0.2,0-0.3,0-0.5-0.1C19.7,157.8,17.7,158.7,15.5,158.7z"/>
		<path style="fill:#0684C8;" d="M7.4,150.6c0,4.5,3.6,8.1,8.1,8.1c2.3,0,4.3-0.9,5.8-2.4c-3.8-0.6-6.6-3.4-6.6-6.9
			c0-2.7,1.7-5,4.3-6.2c-1-0.5-2.2-0.8-3.4-0.8C11,142.5,7.4,146.1,7.4,150.6z"/>
		<path style="fill:#29AACC;" d="M19.3,143.1c-0.2,0.1-0.3,0.1-0.5,0.2c2.8,1.3,4.7,4.1,4.7,7.3c0,2.2-0.9,4.2-2.3,5.7
			c0.2,0,0.3,0,0.5,0.1c1.4-1.5,2.3-3.5,2.3-5.8C23.9,147.3,22.1,144.5,19.3,143.1z"/>
		<path style="fill:#74C9DE;" d="M14.6,149.4c0,3.4,2.9,6.3,6.6,6.9c1.5-1.5,2.3-3.5,2.3-5.7c0-3.3-1.9-6.1-4.7-7.3
			C16.3,144.4,14.6,146.8,14.6,149.4z"/>
		<path style="fill:#29AACC;" d="M38.7,148.7c0,4.5-1,8.1-2.1,8.1c-1.1,0-2-3.7-1.9-8.1c0-4.5,1-8.1,2.1-8.1
			C37.9,140.5,38.7,144.2,38.7,148.7z"/>
		<path style="fill:#0684C8;" d="M38.5,148.7c0,4.5-0.9,8.1-1.9,8.1c-1,0-1.8-3.7-1.8-8.1c0-4.5,0.9-8.1,1.9-8.1
			C37.7,140.5,38.5,144.2,38.5,148.7z"/>
		<polygon style="fill:#0684C8;" points="40.8,131.5 7.9,131.4 0.3,135.3 30.8,135.3 		"/>
		
			<linearGradient id="SVGID_6_" gradientUnits="userSpaceOnUse" x1="-142.308" y1="104.3321" x2="-115.3658" y2="104.3321" gradientTransform="matrix(0.4672 -6.200000e-03 1.530000e-02 1.138 79.5715 10.8341)">
			<stop  offset="6.896550e-02" style="stop-color:#27AAE1"/>
			<stop  offset="0.1315" style="stop-color:#5FCEEE"/>
			<stop  offset="0.2217" style="stop-color:#ABFFFF"/>
			<stop  offset="0.3315" style="stop-color:#8EE1EF"/>
			<stop  offset="0.5956" style="stop-color:#4B9CCA"/>
			<stop  offset="0.7192" style="stop-color:#3181BC"/>
		</linearGradient>
		<path style="fill:url(#SVGID_6_);" d="M14.6,126.3l0.1,6c0,1.3,2.8,2.3,6.3,2.3c3.5,0,6.2-1.1,6.2-2.5l0-5.9L14.6,126.3z"/>
		<path style="fill:#29AACC;" d="M27.2,126.4c0,0.9-2.8,1.7-6.3,1.7c-3.5,0-6.3-0.7-6.3-1.7c0-0.9,2.8-1.7,6.3-1.7
			C24.4,124.8,27.2,125.5,27.2,126.4z"/>
		<path style="fill:#0684C8;" d="M27.2,126.2c0,0.9-2.8,1.7-6.3,1.7c-3.5,0-6.3-0.7-6.3-1.7c0-0.9,2.8-1.7,6.3-1.7
			C24.4,124.5,27.2,125.2,27.2,126.2z"/>
	</g>
	<g>
		<polygon style="fill:#51BEE3;" points="0,104.4 30.6,104.4 30.6,136.2 0,134.8 		"/>
		<polygon style="fill:#0492C6;" points="30.9,104.5 41.1,100.6 41.1,130.2 30.9,136.1 		"/>
		<path style="fill:#29AACC;" d="M0,104.4c0,0,0.1-0.2,0.3-0.3l30.3-0.3c0,0,0.5,0.8,0,0.9L0,104.4z"/>
		<path style="fill:#29AACC;" d="M41.1,100.6c0,0-0.3-0.3-0.4-0.3l-10.5,3.8c0,0,0.6,0.8,0.8,0.6L41.1,100.6z"/>
		<path style="fill:#29AACC;" d="M30.9,136.1c0,0-0.2,0.1-0.3,0.1v-31.9l0.5-0.1L30.9,136.1z"/>
		<path style="fill:#29AACC;" d="M15.5,127.6c-4.5,0-8.1-3.6-8.1-8.1c0-4.5,3.6-8.1,8.1-8.1c1.2,0,2.4,0.3,3.4,0.8
			c0.2-0.1,0.3-0.1,0.5-0.2c-1.2-0.6-2.5-0.9-3.9-0.9c-4.7,0-8.5,3.8-8.5,8.5c0,4.7,3.8,8.5,8.5,8.5c2.5,0,4.7-1.1,6.2-2.7
			c-0.2,0-0.3,0-0.5-0.1C19.7,126.7,17.7,127.6,15.5,127.6z"/>
		<path style="fill:#0684C8;" d="M7.4,119.5c0,4.5,3.6,8.1,8.1,8.1c2.3,0,4.3-0.9,5.8-2.4c-3.8-0.6-6.6-3.4-6.6-6.9
			c0-2.7,1.7-5,4.3-6.2c-1-0.5-2.2-0.8-3.4-0.8C11,111.4,7.4,115,7.4,119.5z"/>
		<path style="fill:#29AACC;" d="M19.3,111.9c-0.2,0.1-0.3,0.1-0.5,0.2c2.8,1.3,4.7,4.1,4.7,7.3c0,2.2-0.9,4.2-2.3,5.7
			c0.2,0,0.3,0,0.5,0.1c1.4-1.5,2.3-3.5,2.3-5.8C23.9,116.2,22.1,113.3,19.3,111.9z"/>
		<path style="fill:#74C9DE;" d="M14.6,118.3c0,3.4,2.9,6.3,6.6,6.9c1.5-1.5,2.3-3.5,2.3-5.7c0-3.3-1.9-6.1-4.7-7.3
			C16.3,113.3,14.6,115.6,14.6,118.3z"/>
		<path style="fill:#29AACC;" d="M38.7,117.5c0,4.5-1,8.1-2.1,8.1c-1.1,0-2-3.7-1.9-8.1c0-4.5,1-8.1,2.1-8.1
			C37.9,109.4,38.7,113.1,38.7,117.5z"/>
		<path style="fill:#0684C8;" d="M38.5,117.5c0,4.5-0.9,8.1-1.9,8.1c-1,0-1.8-3.7-1.8-8.1c0-4.5,0.9-8.1,1.9-8.1
			C37.7,109.4,38.5,113.1,38.5,117.5z"/>
		<polygon style="fill:#0684C8;" points="40.8,100.4 7.9,100.3 0.3,104.2 30.8,104.2 		"/>
		
			<linearGradient id="SVGID_7_" gradientUnits="userSpaceOnUse" x1="-141.4124" y1="76.9863" x2="-114.4703" y2="76.9863" gradientTransform="matrix(0.4672 -6.200000e-03 1.530000e-02 1.138 79.5715 10.8341)">
			<stop  offset="6.896550e-02" style="stop-color:#27AAE1"/>
			<stop  offset="0.1315" style="stop-color:#5FCEEE"/>
			<stop  offset="0.2217" style="stop-color:#ABFFFF"/>
			<stop  offset="0.3315" style="stop-color:#8EE1EF"/>
			<stop  offset="0.5956" style="stop-color:#4B9CCA"/>
			<stop  offset="0.7192" style="stop-color:#3181BC"/>
		</linearGradient>
		<path style="fill:url(#SVGID_7_);" d="M14.6,95.2l0.1,6c0,1.3,2.8,2.3,6.3,2.3c3.5,0,6.2-1.1,6.2-2.5l0-5.9L14.6,95.2z"/>
		<path style="fill:#29AACC;" d="M27.2,95.3c0,0.9-2.8,1.7-6.3,1.7c-3.5,0-6.3-0.7-6.3-1.7s2.8-1.7,6.3-1.7
			C24.4,93.7,27.2,94.4,27.2,95.3z"/>
		<path style="fill:#0684C8;" d="M27.2,95c0,0.9-2.8,1.7-6.3,1.7c-3.5,0-6.3-0.7-6.3-1.7c0-0.9,2.8-1.7,6.3-1.7
			C24.4,93.4,27.2,94.1,27.2,95z"/>
	</g>
	<g>
		<polygon style="fill:#51BEE3;" points="0,73.3 30.6,73.3 30.6,105 0,103.7 		"/>
		<polygon style="fill:#0492C6;" points="30.9,73.3 41.1,69.4 41.1,99.1 30.9,105 		"/>
		<path style="fill:#29AACC;" d="M0,73.3c0,0,0.1-0.2,0.3-0.3l30.3-0.3c0,0,0.5,0.8,0,0.9L0,73.3z"/>
		<path style="fill:#29AACC;" d="M41.1,69.4c0,0-0.3-0.3-0.4-0.3l-10.5,3.8c0,0,0.6,0.8,0.8,0.6L41.1,69.4z"/>
		<path style="fill:#29AACC;" d="M30.9,105c0,0-0.2,0.1-0.3,0.1V73.2l0.5-0.1L30.9,105z"/>
		<path style="fill:#29AACC;" d="M15.5,96.5c-4.5,0-8.1-3.6-8.1-8.1c0-4.5,3.6-8.1,8.1-8.1c1.2,0,2.4,0.3,3.4,0.8
			c0.2-0.1,0.3-0.1,0.5-0.2c-1.2-0.6-2.5-0.9-3.9-0.9c-4.7,0-8.5,3.8-8.5,8.5c0,4.7,3.8,8.5,8.5,8.5c2.5,0,4.7-1.1,6.2-2.7
			c-0.2,0-0.3,0-0.5-0.1C19.7,95.5,17.7,96.5,15.5,96.5z"/>
		<path style="fill:#0684C8;" d="M7.4,88.4c0,4.5,3.6,8.1,8.1,8.1c2.3,0,4.3-0.9,5.8-2.4c-3.8-0.6-6.6-3.4-6.6-6.9
			c0-2.7,1.7-5,4.3-6.2c-1-0.5-2.2-0.8-3.4-0.8C11,80.3,7.4,83.9,7.4,88.4z"/>
		<path style="fill:#29AACC;" d="M19.3,80.8c-0.2,0.1-0.3,0.1-0.5,0.2c2.8,1.3,4.7,4.1,4.7,7.3c0,2.2-0.9,4.2-2.3,5.7
			c0.2,0,0.3,0,0.5,0.1c1.4-1.5,2.3-3.5,2.3-5.8C23.9,85.1,22.1,82.2,19.3,80.8z"/>
		<path style="fill:#74C9DE;" d="M14.6,87.2c0,3.4,2.9,6.3,6.6,6.9c1.5-1.5,2.3-3.5,2.3-5.7c0-3.3-1.9-6.1-4.7-7.3
			C16.3,82.2,14.6,84.5,14.6,87.2z"/>
		<path style="fill:#29AACC;" d="M38.7,86.4c0,4.5-1,8.1-2.1,8.1c-1.1,0-2-3.7-1.9-8.1c0-4.5,1-8.1,2.1-8.1
			C37.9,78.3,38.7,81.9,38.7,86.4z"/>
		<path style="fill:#0684C8;" d="M38.5,86.4c0,4.5-0.9,8.1-1.9,8.1c-1,0-1.8-3.7-1.8-8.1c0-4.5,0.9-8.1,1.9-8.1
			C37.7,78.3,38.5,81.9,38.5,86.4z"/>
		<polygon style="fill:#0684C8;" points="40.8,69.3 7.9,69.1 0.3,73 30.8,73 		"/>
		
			<linearGradient id="SVGID_8_" gradientUnits="userSpaceOnUse" x1="-140.5169" y1="49.6404" x2="-113.5748" y2="49.6404" gradientTransform="matrix(0.4672 -6.200000e-03 1.530000e-02 1.138 79.5715 10.8341)">
			<stop  offset="6.896550e-02" style="stop-color:#27AAE1"/>
			<stop  offset="0.1315" style="stop-color:#5FCEEE"/>
			<stop  offset="0.2217" style="stop-color:#ABFFFF"/>
			<stop  offset="0.3315" style="stop-color:#8EE1EF"/>
			<stop  offset="0.5956" style="stop-color:#4B9CCA"/>
			<stop  offset="0.7192" style="stop-color:#3181BC"/>
		</linearGradient>
		<path style="fill:url(#SVGID_8_);" d="M14.6,64l0.1,6c0,1.3,2.8,2.3,6.3,2.3c3.5,0,6.2-1.1,6.2-2.5l0-5.9L14.6,64z"/>
		<path style="fill:#29AACC;" d="M27.2,64.2c0,0.9-2.8,1.7-6.3,1.7c-3.5,0-6.3-0.7-6.3-1.7c0-0.9,2.8-1.7,6.3-1.7
			C24.4,62.5,27.2,63.3,27.2,64.2z"/>
		<path style="fill:#0684C8;" d="M27.2,63.9c0,0.9-2.8,1.7-6.3,1.7c-3.5,0-6.3-0.7-6.3-1.7c0-0.9,2.8-1.7,6.3-1.7
			C24.4,62.3,27.2,63,27.2,63.9z"/>
	</g>
	<g>
		<polygon style="fill:#51BEE3;" points="0,42.1 30.6,42.1 30.6,73.9 0,72.6 		"/>
		<polygon style="fill:#0492C6;" points="30.9,42.2 41.1,38.3 41.1,68 30.9,73.8 		"/>
		<path style="fill:#29AACC;" d="M0,42.1c0,0,0.1-0.2,0.3-0.3l30.3-0.3c0,0,0.5,0.8,0,0.9L0,42.1z"/>
		<path style="fill:#29AACC;" d="M41.1,38.3c0,0-0.3-0.3-0.4-0.3l-10.5,3.8c0,0,0.6,0.8,0.8,0.6L41.1,38.3z"/>
		<path style="fill:#29AACC;" d="M30.9,73.8c0,0-0.2,0.1-0.3,0.1V42.1l0.5-0.1L30.9,73.8z"/>
		<path style="fill:#29AACC;" d="M15.5,65.3c-4.5,0-8.1-3.6-8.1-8.1c0-4.5,3.6-8.1,8.1-8.1c1.2,0,2.4,0.3,3.4,0.8
			c0.2-0.1,0.3-0.1,0.5-0.2c-1.2-0.6-2.5-0.9-3.9-0.9c-4.7,0-8.5,3.8-8.5,8.5s3.8,8.5,8.5,8.5c2.5,0,4.7-1.1,6.2-2.7
			c-0.2,0-0.3,0-0.5-0.1C19.7,64.4,17.7,65.3,15.5,65.3z"/>
		<path style="fill:#0684C8;" d="M7.4,57.2c0,4.5,3.6,8.1,8.1,8.1c2.3,0,4.3-0.9,5.8-2.4c-3.8-0.6-6.6-3.4-6.6-6.9
			c0-2.7,1.7-5,4.3-6.2c-1-0.5-2.2-0.8-3.4-0.8C11,49.1,7.4,52.8,7.4,57.2z"/>
		<path style="fill:#29AACC;" d="M19.3,49.7c-0.2,0.1-0.3,0.1-0.5,0.2c2.8,1.3,4.7,4.1,4.7,7.3c0,2.2-0.9,4.2-2.3,5.7
			c0.2,0,0.3,0,0.5,0.1c1.4-1.5,2.3-3.5,2.3-5.8C23.9,53.9,22.1,51.1,19.3,49.7z"/>
		<path style="fill:#74C9DE;" d="M14.6,56.1c0,3.4,2.9,6.3,6.6,6.9c1.5-1.5,2.3-3.5,2.3-5.7c0-3.3-1.9-6.1-4.7-7.3
			C16.3,51.1,14.6,53.4,14.6,56.1z"/>
		<path style="fill:#29AACC;" d="M38.7,55.3c0,4.5-1,8.1-2.1,8.1c-1.1,0-2-3.7-1.9-8.1c0-4.5,1-8.1,2.1-8.1
			C37.9,47.2,38.7,50.8,38.7,55.3z"/>
		<path style="fill:#0684C8;" d="M38.5,55.3c0,4.5-0.9,8.1-1.9,8.1c-1,0-1.8-3.7-1.8-8.1c0-4.5,0.9-8.1,1.9-8.1
			C37.7,47.2,38.5,50.8,38.5,55.3z"/>
		<polygon style="fill:#0684C8;" points="40.8,38.1 7.9,38 0.3,41.9 30.8,41.9 		"/>
		
			<linearGradient id="SVGID_9_" gradientUnits="userSpaceOnUse" x1="-139.6214" y1="22.2944" x2="-112.6793" y2="22.2944" gradientTransform="matrix(0.4672 -6.200000e-03 1.530000e-02 1.138 79.5715 10.8341)">
			<stop  offset="6.896550e-02" style="stop-color:#27AAE1"/>
			<stop  offset="0.1315" style="stop-color:#5FCEEE"/>
			<stop  offset="0.2217" style="stop-color:#ABFFFF"/>
			<stop  offset="0.3315" style="stop-color:#8EE1EF"/>
			<stop  offset="0.5956" style="stop-color:#4B9CCA"/>
			<stop  offset="0.7192" style="stop-color:#3181BC"/>
		</linearGradient>
		<path style="fill:url(#SVGID_9_);" d="M14.6,32.9l0.1,6c0,1.3,2.8,2.3,6.3,2.3c3.5,0,6.2-1.1,6.2-2.5l0-5.9L14.6,32.9z"/>
		<path style="fill:#29AACC;" d="M27.2,33.1c0,0.9-2.8,1.7-6.3,1.7c-3.5,0-6.3-0.7-6.3-1.7c0-0.9,2.8-1.7,6.3-1.7
			C24.4,31.4,27.2,32.1,27.2,33.1z"/>
		<path style="fill:#0684C8;" d="M27.2,32.8c0,0.9-2.8,1.7-6.3,1.7c-3.5,0-6.3-0.7-6.3-1.7c0-0.9,2.8-1.7,6.3-1.7
			C24.4,31.1,27.2,31.9,27.2,32.8z"/>
	</g>
	<g>
		<polygon style="fill:#51BEE3;" points="0,11 30.6,11 30.6,42.8 0,41.5 		"/>
		<polygon style="fill:#0492C6;" points="30.9,11.1 41.1,7.2 41.1,36.8 30.9,42.7 		"/>
		<path style="fill:#29AACC;" d="M0,11c0,0,0.1-0.2,0.3-0.3l30.3-0.3c0,0,0.5,0.8,0,0.9L0,11z"/>
		<path style="fill:#29AACC;" d="M41.1,7.2c0,0-0.3-0.3-0.4-0.3l-10.5,3.8c0,0,0.6,0.8,0.8,0.6L41.1,7.2z"/>
		<path style="fill:#29AACC;" d="M30.9,42.7c0,0-0.2,0.1-0.3,0.1V10.9l0.5-0.1L30.9,42.7z"/>
		<path style="fill:#29AACC;" d="M15.5,34.2c-4.5,0-8.1-3.6-8.1-8.1c0-4.5,3.6-8.1,8.1-8.1c1.2,0,2.4,0.3,3.4,0.8
			c0.2-0.1,0.3-0.1,0.5-0.2c-1.2-0.6-2.5-0.9-3.9-0.9c-4.7,0-8.5,3.8-8.5,8.5s3.8,8.5,8.5,8.5c2.5,0,4.7-1.1,6.2-2.7
			c-0.2,0-0.3,0-0.5-0.1C19.7,33.3,17.7,34.2,15.5,34.2z"/>
		<path style="fill:#0684C8;" d="M7.4,26.1c0,4.5,3.6,8.1,8.1,8.1c2.3,0,4.3-0.9,5.8-2.4c-3.8-0.6-6.6-3.4-6.6-6.9
			c0-2.7,1.7-5,4.3-6.2c-1-0.5-2.2-0.8-3.4-0.8C11,18,7.4,21.6,7.4,26.1z"/>
		<path style="fill:#29AACC;" d="M19.3,18.6c-0.2,0.1-0.3,0.1-0.5,0.2c2.8,1.3,4.7,4.1,4.7,7.3c0,2.2-0.9,4.2-2.3,5.7
			c0.2,0,0.3,0,0.5,0.1c1.4-1.5,2.3-3.5,2.3-5.8C23.9,22.8,22.1,20,19.3,18.6z"/>
		<path style="fill:#74C9DE;" d="M14.6,24.9c0,3.4,2.9,6.3,6.6,6.9c1.5-1.5,2.3-3.5,2.3-5.7c0-3.3-1.9-6.1-4.7-7.3
			C16.3,19.9,14.6,22.3,14.6,24.9z"/>
		<path style="fill:#29AACC;" d="M38.7,24.2c0,4.5-1,8.1-2.1,8.1s-2-3.7-1.9-8.1c0-4.5,1-8.1,2.1-8.1C37.9,16,38.7,19.7,38.7,24.2z"
			/>
		<path style="fill:#0684C8;" d="M38.5,24.2c0,4.5-0.9,8.1-1.9,8.1c-1,0-1.8-3.7-1.8-8.1c0-4.5,0.9-8.1,1.9-8.1S38.5,19.7,38.5,24.2
			z"/>
		<polygon style="fill:#0684C8;" points="40.8,7 7.9,6.9 0.3,10.8 30.8,10.8 		"/>
		
			<linearGradient id="SVGID_10_" gradientUnits="userSpaceOnUse" x1="-138.7259" y1="-5.0513" x2="-111.7837" y2="-5.0513" gradientTransform="matrix(0.4672 -6.200000e-03 1.530000e-02 1.138 79.5715 10.8341)">
			<stop  offset="6.896550e-02" style="stop-color:#27AAE1"/>
			<stop  offset="0.1315" style="stop-color:#5FCEEE"/>
			<stop  offset="0.2217" style="stop-color:#ABFFFF"/>
			<stop  offset="0.3315" style="stop-color:#8EE1EF"/>
			<stop  offset="0.5956" style="stop-color:#4B9CCA"/>
			<stop  offset="0.7192" style="stop-color:#3181BC"/>
		</linearGradient>
		<path style="fill:url(#SVGID_10_);" d="M14.6,1.8l0.1,6c0,1.3,2.8,2.3,6.3,2.3c3.5,0,6.2-1.1,6.2-2.5l0-5.9L14.6,1.8z"/>
		<path style="fill:#29AACC;" d="M27.2,1.9c0,0.9-2.8,1.7-6.3,1.7c-3.5,0-6.3-0.7-6.3-1.7c0-0.9,2.8-1.7,6.3-1.7
			C24.4,0.3,27.2,1,27.2,1.9z"/>
		<path style="fill:#0684C8;" d="M27.2,1.7c0,0.9-2.8,1.7-6.3,1.7c-3.5,0-6.3-0.7-6.3-1.7c0-0.9,2.8-1.7,6.3-1.7
			C24.4,0,27.2,0.7,27.2,1.7z"/>
	</g>
</g>
</svg>
