<?xml version="1.0" encoding="utf-8"?>
<!-- Generator: Adobe Illustrator 23.0.0, SVG Export Plug-In . SVG Version: 6.00 Build 0)  -->
<svg version="1.1" id="Layer_1" xmlns="http://www.w3.org/2000/svg" xmlns:xlink="http://www.w3.org/1999/xlink" x="0px" y="0px"
	 width="144.7px" height="215.4px" viewBox="0 0 144.7 215.4" style="enable-background:new 0 0 144.7 215.4;" xml:space="preserve"
	>
<g>
	<g>
		<path style="fill:#FFA000;" d="M9.1,164C1.3,179.9,8,199.1,24,206.9c15.9,7.7,35.1,1.1,42.9-14.9c7.7-15.9,1.1-35.1-14.9-42.9
			C36,141.4,16.8,148.1,9.1,164z M20.5,169.5c4.7-9.6,16.3-13.7,25.9-9c9.6,4.7,13.7,16.3,9,26c-4.7,9.6-16.3,13.7-26,9
			C19.8,190.8,15.8,179.2,20.5,169.5z"/>
		
			<rect x="40.8" y="138.5" transform="matrix(-0.8998 -0.4364 0.4364 -0.8998 37.3772 301.2144)" style="fill:#FFA000;" width="24.9" height="15.6"/>
		<path style="fill:#E0E0E0;" d="M107.8,5.3L107.8,5.3c12.4,6,17.5,20.9,11.5,33.2L67.9,144.7l-22.4-10.9L107.8,5.3z"/>
		<path style="fill:#EEEEEE;" d="M116.3,12L78.2,90.4l-5.8,12l-5.8-12l5.8-12l35.5-73.1C111.2,6.9,114,9.2,116.3,12z"/>
		<path style="fill:#FFA000;" d="M92.8,149.1c-15.9,7.7-22.6,26.9-14.9,42.9c7.7,15.9,26.9,22.6,42.9,14.9
			c15.9-7.7,22.6-26.9,14.9-42.9C127.9,148.1,108.7,141.4,92.8,149.1z M115.3,195.5c-9.6,4.7-21.3,0.6-26-9c-4.7-9.6-0.6-21.3,9-26
			c9.6-4.7,21.3-0.6,26,9C128.9,179.2,124.9,190.8,115.3,195.5z"/>
		
			<rect x="79" y="138.5" transform="matrix(0.8998 -0.4364 0.4364 0.8998 -54.6806 54.5703)" style="fill:#FFA000;" width="24.9" height="15.6"/>
		<path style="fill:#E0E0E0;" d="M36.9,5.3L36.9,5.3c-12.4,6-17.5,20.9-11.5,33.2l51.5,106.2l22.4-10.9L36.9,5.3z"/>
		<path style="fill:#EEEEEE;" d="M78.2,90.4l-5.8,12l-5.8-12L28.5,12c2.2-2.7,5-5,8.4-6.6l35.5,73.1L78.2,90.4z"/>
		<path style="fill:#BDBDBD;" d="M80.4,107.2c0,4.4-3.6,8-8,8c-4.4,0-8-3.6-8-8c0-4.4,3.6-8,8-8C76.8,99.2,80.4,102.8,80.4,107.2z"
			/>
	</g>
</g>
</svg>
