
<svg xmlns="http://www.w3.org/2000/svg" version="1.1" xmlns:xlink="http://www.w3.org/1999/xlink" preserveAspectRatio="none" x="0px" y="0px" width="40px" height="40px" viewBox="0 0 40 40">
<defs>
<g id="Layer0_0_MEMBER_1_FILL">
<path fill="#FFFFFF" stroke="none" d="
M 20.9 31.9
L 25.55 26.3 21.05 26.3 21 26.3 16.3 26.2 20.9 31.9 Z"/>
</g>

<path id="Layer0_0_MEMBER_0_MEMBER_0_1_STROKES" stroke="#FFFFFF" stroke-width="5" stroke-linejoin="round" stroke-linecap="round" fill="none" d="
M 30.9 35.85
Q 35 35.85 37.85 32.95 40.75 30.1 40.75 26 40.75 21.95 37.85 19.05 35 16.15 30.9 16.15 26.85 16.15 23.95 19.05 21.05 21.95 21.05 26 21.05 26.15 21.05 26.5"/>

<path id="Layer0_0_MEMBER_1_1_STROKES" stroke="#FFFFFF" stroke-width="2" stroke-linejoin="round" stroke-linecap="round" fill="none" d="
M 20.9 31.9
L 25.55 26.3 21.05 26.3 21 26.3 16.3 26.2 20.9 31.9 Z"/>
</defs>

<g transform="matrix( 1, 0, 0, 1, -8.55,-6) ">
<use xlink:href="#Layer0_0_MEMBER_0_MEMBER_0_1_STROKES"/>
</g>

<g transform="matrix( 1, 0, 0, 1, -8.45,-6) ">
<use xlink:href="#Layer0_0_MEMBER_1_FILL"/>

<use xlink:href="#Layer0_0_MEMBER_1_1_STROKES"/>
</g>
</svg>
