<?xml version="1.0" encoding="utf-8"?>
<!-- Generator: Adobe Illustrator 16.0.0, SVG Export Plug-In . SVG Version: 6.00 Build 0)  -->
<!DOCTYPE svg PUBLIC "-//W3C//DTD SVG 1.1//EN" "http://www.w3.org/Graphics/SVG/1.1/DTD/svg11.dtd">
<svg version="1.1" id="Layer_1" xmlns="http://www.w3.org/2000/svg" xmlns:xlink="http://www.w3.org/1999/xlink" x="0px" y="0px"
	 width="28px" height="28px" viewBox="0 0 28 28" enable-background="new 0 0 28 28" xml:space="preserve">
<g display="none">
	<path display="inline" fill="#6b8cff" d="M21.908,14.257c0-2.135-0.682-4.125-2.229-5.6l-1.692,1.723
		c1.07,1.021,1.563,2.398,1.563,3.877c0,2.616-2.602,4.798-4.75,5.264v-1.848l-4.911,3.07l4.911,3.07V21.96
		C18.871,21.571,21.908,18.266,21.908,14.257z"/>
	<path display="inline" fill="#6b8cff" d="M8.452,13.743c0-2.616,2.592-4.797,4.736-5.264v1.848l4.912-3.07l-4.912-3.07v1.855
		C9.12,6.431,6.092,9.736,6.092,13.743c0,2.137,0.692,4.125,2.238,5.602l1.689-1.723C8.949,16.601,8.452,15.222,8.452,13.743z"/>
</g>
<g display="none">
	<path display="inline" fill="#FFFFFF" d="M21.908,14.257c0-2.135-0.682-4.125-2.229-5.6l-1.692,1.723
		c1.07,1.021,1.563,2.398,1.563,3.877c0,2.616-2.602,4.798-4.75,5.264v-1.848l-4.911,3.07l4.911,3.07V21.96
		C18.871,21.571,21.908,18.266,21.908,14.257z"/>
	<path display="inline" fill="#FFFFFF" d="M8.452,13.743c0-2.616,2.592-4.797,4.736-5.264v1.848l4.912-3.07l-4.912-3.07v1.855
		C9.12,6.431,6.092,9.736,6.092,13.743c0,2.137,0.692,4.125,2.238,5.602l1.689-1.723C8.949,16.601,8.452,15.222,8.452,13.743z"/>
</g>
<path fill="#6b8cff" d="M20.546,12.546c-0.66-3.297-4.048-4.975-4.989-5.424c-0.662-0.313-0.917-0.653-1.013-0.83V5.724h-1.631
	v10.905c-0.279-0.078-0.577-0.132-0.915-0.132c-0.479,0-0.947,0.068-1.413,0.211c-0.462,0.143-0.895,0.346-1.296,0.605
	c-0.404,0.262-0.762,0.564-1.067,0.908s-0.532,0.717-0.682,1.121c-0.149,0.402-0.202,0.779-0.156,1.131
	c0.044,0.35,0.174,0.66,0.391,0.93c0.217,0.268,0.502,0.482,0.852,0.639c0.353,0.156,0.767,0.234,1.245,0.234
	c0.46,0,0.927-0.068,1.399-0.211c0.47-0.143,0.908-0.344,1.311-0.605c0.404-0.264,0.761-0.568,1.073-0.92s0.547-0.729,0.696-1.131
	c0.082-0.221,0.127-0.432,0.148-0.637h0.045V9.645c0.514,0.132,1.635,0.49,2.453,1.251c1.009,0.941,1.948,2.777,1.837,4.443
	c-0.125,1.838-1.144,2.855-1.144,2.855l0.229,0.104C20.471,15.96,20.844,14.036,20.546,12.546z"/>
</svg>
