
<svg xmlns="http://www.w3.org/2000/svg" version="1.1" xmlns:xlink="http://www.w3.org/1999/xlink" preserveAspectRatio="none" x="0px" y="0px" width="725px" height="725px" viewBox="0 0 725 725">
<defs>
<linearGradient id="Gradient_1" gradientUnits="userSpaceOnUse" x1="378.75" y1="51.15" x2="404.45000000000005" y2="51.15" spreadMethod="pad">
<stop  offset="0%" stop-color="#CB0022"/>

<stop  offset="100%" stop-color="#F4002D"/>
</linearGradient>

<linearGradient id="Gradient_2" gradientUnits="userSpaceOnUse" x1="36.25" y1="51.15" x2="10.549999999999997" y2="51.15" spreadMethod="pad">
<stop  offset="0%" stop-color="#CB0022"/>

<stop  offset="100%" stop-color="#F4002D"/>
</linearGradient>

<linearGradient id="Gradient_3" gradientUnits="userSpaceOnUse" x1="385.70000000000005" y1="39.55" x2="29.299999999999983" y2="39.55" spreadMethod="pad">
<stop  offset="0%" stop-color="#FF3F49"/>

<stop  offset="4.313725490196078%" stop-color="#F4002D"/>

<stop  offset="98.03921568627452%" stop-color="#F4002D"/>

<stop  offset="100%" stop-color="#FF3F49"/>
</linearGradient>

<g id="as4eby4yby_1_Layer1_0_MEMBER_0_MEMBER_0_FILL">
<path fill="url(#Gradient_1)" stroke="none" d="
M 414.05 13.8
Q 412.65 11.8 410.2 11.8
L 368.75 11.8
Q 366.75 11.8 365.35 13.2 363.95 14.6 363.95 16.6
L 363.95 85.7
Q 363.95 87.7 365.35 89.1 366.75 90.5 368.75 90.5
L 410.2 90.5
Q 412.65 90.5 414.05 88.5 415.5 86.55 414.75 84.2
L 404.3 52.65
Q 403.75 51.1 404.3 49.65
L 414.75 18.1
Q 415.5 15.75 414.05 13.8 Z"/>
</g>

<g id="as4eby4yby_1_Layer1_0_MEMBER_0_MEMBER_1_FILL">
<path fill="#BE001A" stroke="none" d="
M 413.6 89.05
Q 414.95 87.65 415 85.7
L 363.95 85.7
Q 364 87.7 365.4 89.1 366.8 90.5 368.75 90.5
L 410.2 90.5
Q 412.2 90.5 413.6 89.05 Z"/>
</g>

<g id="as4eby4yby_1_Layer1_0_MEMBER_0_MEMBER_2_FILL">
<path fill="#BE001A" stroke="none" d="
M 363.95 81.2
L 363.95 85.7
Q 363.95 87.4 365.05 88.7 366.1 90 367.75 90.35
L 368.3 90.45 382.75 83.5 363.95 81.2 Z"/>
</g>

<g id="as4eby4yby_1_Layer1_0_MEMBER_0_MEMBER_3_FILL">
<path fill="#8A000C" stroke="none" d="
M 363.95 83.9
L 363.95 85.7
Q 363.95 86.15 364.15 87.05
L 371.7 83.9 363.95 83.9 Z"/>
</g>

<g id="as4eby4yby_1_Layer1_0_MEMBER_1_MEMBER_0_FILL">
<path fill="url(#Gradient_2)" stroke="none" d="
M 51.05 16.6
Q 51.05 14.6 49.65 13.2 48.25 11.8 46.25 11.8
L 4.8 11.8
Q 2.35 11.8 0.95 13.8 -0.5 15.75 0.25 18.1
L 10.7 49.65
Q 11.25 51.1 10.7 52.65
L 0.25 84.2
Q -0.5 86.55 0.95 88.5 2.35 90.5 4.8 90.5
L 46.25 90.5
Q 48.25 90.5 49.65 89.1 51.05 87.7 51.05 85.7
L 51.05 16.6 Z"/>
</g>

<g id="as4eby4yby_1_Layer1_0_MEMBER_1_MEMBER_1_FILL">
<path fill="#BE001A" stroke="none" d="
M 0 85.7
Q 0.05 87.65 1.4 89.05 2.8 90.5 4.8 90.5
L 46.25 90.5
Q 48.2 90.5 49.6 89.1 51 87.7 51.05 85.7
L 0 85.7 Z"/>
</g>

<g id="as4eby4yby_1_Layer1_0_MEMBER_1_MEMBER_2_FILL">
<path fill="url(#Gradient_3)" stroke="none" d="
M 385.7 13.6
Q 385.7 7.95 381.75 3.95 377.75 0 372.1 0
L 42.9 0
Q 37.25 0 33.25 3.95 29.3 7.95 29.3 13.6
L 29.3 79.1 385.7 79.1 385.7 13.6 Z"/>
</g>

<g id="as4eby4yby_1_Layer1_0_MEMBER_1_MEMBER_3_FILL">
<path fill="#BE001A" stroke="none" d="
M 384.3 82.5
Q 385.7 81.1 385.7 79.1
L 29.3 79.1
Q 29.3 81.1 30.7 82.5 32.05 83.9 34.05 83.9
L 380.95 83.9
Q 382.95 83.9 384.3 82.5 Z"/>
</g>

<g id="as4eby4yby_1_Layer1_0_MEMBER_1_MEMBER_4_FILL">
<path fill="#BE001A" stroke="none" d="
M 51.05 85.7
L 51.05 81.2 32.25 83.5 46.7 90.45 47.25 90.35
Q 48.9 90 49.95 88.7 51.05 87.4 51.05 85.7 Z"/>
</g>

<g id="as4eby4yby_1_Layer1_0_MEMBER_1_MEMBER_5_FILL">
<path fill="#8A000C" stroke="none" d="
M 51.05 83.9
L 43.3 83.9 50.85 87.05
Q 51.05 86.15 51.05 85.7
L 51.05 83.9 Z"/>
</g>

<g id="as4eby4yby_1_Layer0_0_MEMBER_0_MEMBER_0_FILL">
<path fill="#A4001A" stroke="none" d="
M 92.95 23.75
Q 91.95 23.75 91.6 24.2 91.2 24.6 91.2 25.8
L 91.2 54.15
Q 91.2 55.35 91.6 55.8 91.95 56.2 92.95 56.2
L 97.25 56.2
Q 98.25 56.2 98.65 55.8 99 55.35 99 54.15
L 99 43.35 102.1 43.25
Q 102.95 43.2 103.25 42.95 103.6 42.65 103.6 41.9
L 103.6 37.6
Q 103.6 36.8 103.25 36.5 102.95 36.2 102.1 36.25
L 99 36.35 99 25.8
Q 99 24.6 98.65 24.2 98.25 23.75 97.25 23.75
L 92.95 23.75
M 87.95 23.1
Q 87.6 22.8 86.75 22.8
L 66.7 23.3
Q 65.85 23.35 65.55 23.6 65.2 23.85 65.2 24.6
L 65.65 55.5
Q 65.7 56.75 66.05 57.2 66.4 57.65 67.4 57.6
L 85.8 57.15
Q 86.65 57.1 86.95 56.85 87.3 56.55 87.3 55.8
L 87.3 51.6
Q 87.3 50.8 86.95 50.55 86.65 50.25 85.8 50.3
L 73.45 50.55 73.25 30.25 86.75 29.95
Q 87.6 29.9 87.95 29.65 88.3 29.35 88.3 28.6
L 88.3 24.15
Q 88.3 23.4 87.95 23.1 Z"/>
</g>

<g id="as4eby4yby_1_Layer0_0_MEMBER_0_MEMBER_1_FILL">
<path fill="#A4001A" stroke="none" d="
M 123.05 23.25
Q 122.7 22.8 121.75 22.8
L 117.4 22.8
Q 116.4 22.8 116.05 23.25 115.65 23.7 115.65 24.9
L 115.65 38
Q 115.65 39.7 114.9 40.85
L 106.8 52.7
Q 106.35 53.4 106.5 53.85 106.6 54.25 107.3 54.7
L 111.1 57.35
Q 111.75 57.8 112.15 57.65 112.5 57.55 112.9 56.95
L 119.55 47.3 126.25 56.05
Q 126.65 56.65 127 56.75 127.4 56.85 128.05 56.45
L 131.85 53.75
Q 132.55 53.25 132.7 52.9 132.85 52.45 132.35 51.8
L 124.2 40.85
Q 123.45 39.7 123.45 38
L 123.45 24.9
Q 123.45 23.7 123.05 23.25
M 137.1 23.75
Q 136.1 23.75 135.75 24.2 135.35 24.6 135.35 25.8
L 135.35 54.15
Q 135.35 55.35 135.75 55.8 136.1 56.2 137.1 56.2
L 141.4 56.2
Q 142.4 56.2 142.8 55.8 143.15 55.35 143.15 54.15
L 143.15 25.8
Q 143.15 24.6 142.8 24.2 142.4 23.75 141.4 23.75
L 137.1 23.75 Z"/>
</g>

<g id="as4eby4yby_1_Layer0_0_MEMBER_0_MEMBER_2_FILL">
<path fill="#A4001A" stroke="none" d="
M 171.55 32.55
Q 166.5 32.55 163.45 35.5 160.35 38.55 160.35 43.55 160.35 48.6 163.45 51.6 166.5 54.55 171.55 54.55 176.55 54.55 179.6 51.6 182.7 48.6 182.7 43.55 182.7 38.55 179.6 35.5 176.55 32.55 171.55 32.55
M 168.4 40.3
Q 169.6 39.15 171.55 39.15 173.5 39.15 174.65 40.3 175.85 41.5 175.85 43.55 175.85 45.6 174.65 46.8 173.5 47.95 171.55 47.95 169.6 47.95 168.4 46.8 167.2 45.6 167.2 43.55 167.2 41.5 168.4 40.3
M 181.3 23.75
L 175.45 23.9 175.45 22.4
Q 175.45 21.2 175.05 20.8 174.7 20.35 173.7 20.35
L 169.4 20.35
Q 168.4 20.35 168.05 20.8 167.65 21.2 167.65 22.4
L 167.65 24.05 161.7 24.2
Q 160.7 24.25 160.35 24.65 159.95 25.1 159.95 26.25
L 159.95 29.1
Q 159.95 30.35 160.35 30.8 160.7 31.25 161.7 31.2
L 181.3 30.75
Q 182.3 30.7 182.7 30.3 183.05 29.85 183.05 28.65
L 183.05 25.8
Q 183.05 24.6 182.7 24.15 182.3 23.7 181.3 23.75
M 203.45 25.35
Q 203.45 24.15 203.1 23.75 202.7 23.3 201.7 23.3
L 197.4 23.3
Q 196.4 23.3 196.05 23.75 195.65 24.15 195.65 25.35
L 195.65 35.85 192.95 35.9 192.95 25.8
Q 192.95 24.6 192.6 24.2 192.25 23.75 191.25 23.75
L 186.9 23.75
Q 185.9 23.75 185.55 24.2 185.15 24.6 185.15 25.8
L 185.15 54.15
Q 185.15 55.35 185.55 55.8 185.9 56.2 186.9 56.2
L 191.25 56.2
Q 192.25 56.2 192.6 55.8 192.95 55.35 192.95 54.15
L 192.95 42.85 195.65 42.85 195.65 53.7
Q 195.65 54.9 196.05 55.35 196.4 55.75 197.4 55.75
L 201.7 55.75
Q 202.7 55.75 203.1 55.35 203.45 54.9 203.45 53.7
L 203.45 25.35 Z"/>
</g>

<g id="as4eby4yby_1_Layer0_0_MEMBER_0_MEMBER_3_FILL">
<path fill="#A4001A" stroke="none" d="
M 251.25 48
Q 251.35 46.95 251 46.6 250.6 46.25 249.5 46.25
L 223.35 46.7
Q 222.65 46.7 222.4 46.85 222.15 47 222.15 47.5
L 222.15 51.1
Q 222.15 51.55 222.4 51.7 222.65 51.85 223.35 51.85
L 243.25 51.4 243.25 53.05 224.8 53.9
Q 223.75 53.95 223.4 54.3 223 54.65 223.05 55.7
L 223.35 63.4
Q 223.4 64.5 223.7 64.8 224.05 65.2 225.1 65.15
L 248.75 64.65
Q 249.6 64.65 249.85 64.4 250.15 64.15 250.15 63.35
L 250.15 60.85
Q 250.15 60.05 249.85 59.75 249.55 59.45 248.75 59.5
L 230.95 59.95 230.95 58.15 249.1 57.3
Q 250.15 57.25 250.45 56.95 250.75 56.65 250.85 55.6
L 251.25 48
M 252.1 23.05
Q 252.15 21.9 251.75 21.45 251.35 21 250.35 21
L 246 21
Q 244.25 21 244.25 22.8
L 244.25 23.95 229.1 24.2 229.1 23.3
Q 229.1 21.45 227.35 21.45
L 223 21.45
Q 222 21.45 221.6 21.9 221.2 22.35 221.25 23.5
L 221.7 35.4
Q 221.75 36.5 222.1 36.95 222.5 37.45 223.45 37.45
L 232.75 37.3 232.75 39.1 222.6 39.25
Q 221.75 39.25 221.45 39.5 221.1 39.8 221.1 40.55
L 221.1 43.7
Q 221.1 44.5 221.45 44.75 221.75 45.05 222.6 45.05
L 250.75 44.6
Q 251.6 44.6 251.9 44.3 252.25 44.05 252.25 43.25
L 252.25 40.1
Q 252.25 39.35 251.9 39.05 251.6 38.8 250.75 38.8
L 240.6 38.95 240.6 37.15 249.9 37
Q 250.85 37 251.25 36.5 251.6 36.05 251.65 34.9
L 252.1 23.05
M 244.2 29.25
L 244.2 31.55 229.15 31.85 229.1 29.55 244.2 29.25 Z"/>
</g>

<g id="as4eby4yby_1_Layer0_0_MEMBER_0_MEMBER_4_FILL">
<path fill="#A4001A" stroke="none" d="
M 258.35 25.6
Q 257.5 25.65 257.2 25.9 256.85 26.15 256.85 26.9
L 256.85 31.2
Q 256.85 32 257.2 32.25 257.5 32.55 258.35 32.55
L 261.95 32.45 260.35 52.75
Q 260.3 53.9 260.7 54.4 261.15 54.85 262.1 54.85
L 266.15 54.85
Q 267.15 54.85 267.5 54.4 267.8 54 267.9 52.75
L 269.95 27.4
Q 270.05 26.2 269.65 25.75 269.25 25.3 268.2 25.35
L 258.35 25.6
M 284.25 24.9
Q 284.35 23.7 283.95 23.25 283.55 22.8 282.5 22.8
L 272.9 23.05
Q 272.05 23.1 271.7 23.35 271.35 23.65 271.35 24.4
L 271.35 28.65
Q 271.35 30.05 272.9 30
L 276.2 29.9 274.1 55.05
Q 274.05 56.2 274.45 56.7 274.9 57.15 275.85 57.15
L 280.15 57.15
Q 281.15 57.15 281.5 56.7 281.8 56.3 281.9 55.05
L 284.25 24.9
M 288.4 23.75
Q 287.45 23.75 287.1 24.2 286.7 24.6 286.7 25.8
L 286.7 54.15
Q 286.7 55.35 287.1 55.8 287.45 56.2 288.4 56.2
L 292.75 56.2
Q 293.75 56.2 294.15 55.8 294.5 55.35 294.5 54.15
L 294.5 43.35 296.65 43.25
Q 297.5 43.2 297.8 42.95 298.15 42.65 298.15 41.9
L 298.15 37.6
Q 298.15 36.8 297.8 36.5 297.5 36.2 296.65 36.25
L 294.5 36.35 294.5 25.8
Q 294.5 24.6 294.15 24.2 293.75 23.75 292.75 23.75
L 288.4 23.75 Z"/>
</g>

<g id="as4eby4yby_1_Layer0_0_MEMBER_0_MEMBER_5_FILL">
<path fill="#A4001A" stroke="none" d="
M 328.45 45.6
Q 333.75 42.05 333.75 35.3 333.75 29 329.2 25.55 325 22.35 318.1 22.35 311.2 22.35 307 25.55 302.45 29 302.45 35.3 302.45 42.05 307.75 45.6
L 307.75 51.55 304.5 51.6
Q 303.65 51.6 303.3 51.9 302.95 52.2 302.95 52.95
L 302.95 57.25
Q 302.95 58.05 303.3 58.35 303.65 58.6 304.5 58.6
L 331.7 58.15
Q 332.55 58.15 332.9 57.85 333.25 57.55 333.25 56.8
L 333.25 52.5
Q 333.25 51.75 332.9 51.45 332.55 51.15 331.7 51.15
L 328.45 51.2 328.45 45.6
M 315.1 48.05
Q 316.55 48.2 318.1 48.2 319.6 48.2 321.1 48.05
L 321.1 51.35 315.1 51.45 315.1 48.05
M 318.1 29.1
Q 321.7 29.1 323.6 30.85 325.45 32.55 325.45 35.5 325.45 38.5 323.6 40.15 321.7 41.9 318.1 41.9 314.45 41.9 312.55 40.15 310.75 38.5 310.75 35.5 310.75 32.55 312.55 30.85 314.5 29.1 318.1 29.1 Z"/>
</g>

<g id="as4eby4yby_1_Layer0_0_MEMBER_0_MEMBER_6_FILL">
<path fill="#A4001A" stroke="none" d="
M 348.45 50.9
Q 346.8 50.9 345.8 51.85 344.75 52.85 344.75 54.45 344.75 56 345.8 57 346.85 58 348.45 58 350.05 58 351.1 57 352.2 56 352.2 54.45 352.2 52.85 351.1 51.85 350.05 50.9 348.45 50.9
M 340.6 32.2
Q 342.35 31.25 343.4 30.9 345.25 30.25 347.3 30.25 352.05 30.25 352.05 33.2 352.05 35.25 349.75 36.25 348 37.1 346.45 37.1 345.5 37.1 345.1 37.55 344.7 37.95 344.7 39
L 344.75 46.15
Q 344.75 47.35 345.15 47.8 345.5 48.2 346.5 48.2
L 350.65 48.2
Q 351.65 48.2 352.05 47.8 352.4 47.35 352.4 46.15
L 352.4 42.3 354 41.7
Q 356.55 40.7 357.95 39.25 360.15 36.85 360.15 33.1 360.15 28.2 356.85 25.6 353.9 23.35 348.7 23.35 345.2 23.35 342.65 24.15 340.55 24.8 338.55 26 337.45 26.75 337.9 28.15
L 338.8 31.35
Q 339.3 32.9 340.6 32.2 Z"/>
</g>

<g id="as4eby4yby_1_Layer0_0_MEMBER_1_MEMBER_0_FILL">
<path fill="#FFFFFF" stroke="none" d="
M 88.4 19.4
Q 88 19.8 88 21
L 88 49.35
Q 88 50.55 88.4 51 88.75 51.4 89.75 51.4
L 94.05 51.4
Q 95.05 51.4 95.45 51 95.8 50.55 95.8 49.35
L 95.8 38.55 98.9 38.45
Q 99.75 38.4 100.05 38.15 100.4 37.9 100.4 37.1
L 100.4 32.8
Q 100.4 32 100.05 31.7 99.75 31.4 98.9 31.45
L 95.8 31.55 95.8 21
Q 95.8 19.8 95.45 19.4 95.05 18.95 94.05 18.95
L 89.75 18.95
Q 88.75 18.95 88.4 19.4
M 85.1 23.85
L 85.1 19.35
Q 85.1 18.6 84.75 18.3 84.4 18 83.55 18.05
L 63.5 18.5
Q 62.65 18.55 62.35 18.8 62 19.05 62 19.85
L 62.45 50.75
Q 62.5 51.95 62.85 52.4 63.25 52.85 64.2 52.8
L 82.6 52.35
Q 83.45 52.3 83.75 52.05 84.1 51.75 84.1 51
L 84.1 46.8
Q 84.1 46 83.75 45.75 83.45 45.45 82.6 45.5
L 70.3 45.75 70.05 25.45 83.55 25.15
Q 84.45 25.1 84.75 24.9 85.1 24.6 85.1 23.85 Z"/>
</g>

<g id="as4eby4yby_1_Layer0_0_MEMBER_1_MEMBER_1_FILL">
<path fill="#FFFFFF" stroke="none" d="
M 129.5 48.15
Q 129.65 47.65 129.15 47
L 121 36.05
Q 120.3 34.95 120.3 33.2
L 120.3 20.1
Q 120.3 18.95 119.9 18.5 119.5 18.05 118.55 18.05
L 114.2 18.05
Q 113.2 18.05 112.85 18.5 112.45 18.9 112.45 20.1
L 112.45 33.2
Q 112.45 34.95 111.75 36.05
L 103.6 47.95
Q 103.15 48.6 103.3 49.05 103.4 49.45 104.1 49.9
L 107.9 52.55
Q 108.55 53 108.95 52.85 109.3 52.75 109.7 52.15
L 116.35 42.5 123.05 51.25
Q 123.45 51.85 123.8 51.95 124.2 52.05 124.85 51.65
L 128.65 49
Q 129.35 48.5 129.5 48.15
M 132.55 19.4
Q 132.15 19.8 132.15 21
L 132.15 49.35
Q 132.15 50.55 132.55 51 132.9 51.4 133.9 51.4
L 138.2 51.4
Q 139.2 51.4 139.6 51 139.95 50.55 139.95 49.35
L 139.95 21
Q 139.95 19.8 139.6 19.4 139.2 18.95 138.2 18.95
L 133.9 18.95
Q 132.9 18.95 132.55 19.4 Z"/>
</g>

<g id="as4eby4yby_1_Layer0_0_MEMBER_1_MEMBER_2_FILL">
<path fill="#FFFFFF" stroke="none" d="
M 176.45 46.8
Q 179.55 43.8 179.55 38.75 179.55 33.75 176.45 30.7 173.35 27.75 168.35 27.75 163.35 27.75 160.3 30.7 157.15 33.75 157.15 38.75 157.15 43.8 160.3 46.8 163.35 49.75 168.35 49.75 173.35 49.75 176.45 46.8
M 168.35 34.35
Q 170.3 34.35 171.5 35.5 172.65 36.7 172.65 38.75 172.65 40.8 171.5 42 170.3 43.15 168.35 43.15 166.4 43.15 165.25 42 164.05 40.8 164.05 38.75 164.05 36.7 165.25 35.5 166.4 34.35 168.35 34.35
M 164.45 17.6
L 164.45 19.25 158.5 19.4
Q 157.5 19.45 157.15 19.85 156.75 20.3 156.75 21.5
L 156.75 24.35
Q 156.75 25.55 157.15 26 157.5 26.45 158.5 26.4
L 178.1 25.95
Q 179.15 25.9 179.5 25.5 179.85 25.05 179.85 23.85
L 179.85 21
Q 179.85 19.8 179.5 19.35 179.1 18.9 178.1 18.95
L 172.25 19.1 172.25 17.6
Q 172.25 16.4 171.85 16 171.5 15.55 170.5 15.55
L 166.2 15.55
Q 165.2 15.55 164.85 16 164.45 16.4 164.45 17.6
M 189.8 21
Q 189.8 19.8 189.4 19.4 189.05 18.95 188.05 18.95
L 183.7 18.95
Q 182.7 18.95 182.35 19.4 181.95 19.8 181.95 21
L 181.95 49.35
Q 181.95 50.55 182.35 51 182.7 51.4 183.7 51.4
L 188.05 51.4
Q 189.05 51.4 189.4 51 189.8 50.55 189.8 49.35
L 189.8 38.1 192.45 38.05 192.45 48.9
Q 192.45 50.1 192.85 50.55 193.2 50.95 194.2 50.95
L 198.5 50.95
Q 199.5 50.95 199.9 50.55 200.25 50.1 200.25 48.9
L 200.25 20.55
Q 200.25 19.35 199.9 18.95 199.5 18.5 198.5 18.5
L 194.2 18.5
Q 193.2 18.5 192.85 18.95 192.45 19.35 192.45 20.55
L 192.45 31.05 189.8 31.1 189.8 21 Z"/>
</g>

<g id="as4eby4yby_1_Layer0_0_MEMBER_1_MEMBER_3_FILL">
<path fill="#FFFFFF" stroke="none" d="
M 247.8 41.8
Q 247.4 41.45 246.3 41.45
L 220.15 41.9
Q 219.45 41.9 219.2 42.05 218.95 42.25 218.95 42.75
L 218.95 46.3
Q 218.95 46.75 219.2 46.9 219.45 47.05 220.15 47.05
L 240.05 46.6 240.05 48.25 221.6 49.1
Q 220.55 49.15 220.2 49.5 219.85 49.85 219.85 50.9
L 220.15 58.6
Q 220.2 59.7 220.5 60 220.85 60.4 221.9 60.35
L 245.55 59.9
Q 246.35 59.9 246.65 59.6 246.95 59.35 246.95 58.55
L 246.95 56.05
Q 246.95 55.25 246.65 54.95 246.35 54.65 245.55 54.7
L 227.8 55.15 227.8 53.35 245.9 52.5
Q 246.95 52.5 247.25 52.15 247.55 51.85 247.65 50.8
L 248.05 43.2
Q 248.15 42.15 247.8 41.8
M 248.55 16.65
Q 248.2 16.2 247.15 16.2
L 242.8 16.2
Q 241.05 16.2 241.05 18.05
L 241.05 19.2 225.9 19.4 225.9 18.5
Q 225.9 16.65 224.15 16.65
L 219.85 16.65
Q 218.85 16.65 218.45 17.1 218.05 17.5 218.1 18.7
L 218.5 30.6
Q 218.55 31.7 218.9 32.15 219.3 32.65 220.25 32.65
L 229.6 32.5 229.6 34.3 219.4 34.45
Q 218.55 34.45 218.25 34.75 217.9 35.05 217.9 35.8
L 217.9 38.9
Q 217.9 39.7 218.25 39.95 218.55 40.25 219.4 40.25
L 247.55 39.8
Q 248.4 39.8 248.75 39.5 249.1 39.2 249.1 38.45
L 249.1 35.3
Q 249.1 34.55 248.75 34.25 248.4 34 247.55 34
L 237.4 34.15 237.4 32.4 246.75 32.2
Q 247.65 32.2 248.1 31.7 248.45 31.25 248.5 30.15
L 248.9 18.25
Q 248.95 17.05 248.55 16.65
M 241.05 26.75
L 225.95 27.05 225.9 24.75 241.05 24.45 241.05 26.75 Z"/>
</g>

<g id="as4eby4yby_1_Layer0_0_MEMBER_1_MEMBER_4_FILL">
<path fill="#FFFFFF" stroke="none" d="
M 268.15 19.6
L 268.15 23.85
Q 268.15 24.65 268.5 24.95 268.85 25.25 269.7 25.2
L 273 25.1 270.95 50.25
Q 270.85 51.45 271.3 51.9 271.7 52.35 272.7 52.35
L 276.95 52.35
Q 277.95 52.35 278.3 51.9 278.6 51.55 278.7 50.25
L 281.05 20.1
Q 281.15 18.9 280.8 18.45 280.4 18 279.3 18.05
L 269.7 18.25
Q 268.85 18.3 268.5 18.55 268.15 18.85 268.15 19.6
M 266.75 22.65
Q 266.85 21.45 266.45 20.95 266.05 20.5 265 20.55
L 255.15 20.8
Q 254.3 20.85 254 21.1 253.65 21.35 253.65 22.15
L 253.65 26.4
Q 253.65 27.2 254 27.5 254.3 27.8 255.15 27.75
L 258.75 27.65 257.2 47.95
Q 257.1 49.15 257.55 49.6 257.9 50.05 258.9 50.05
L 262.95 50.05
Q 263.95 50.05 264.3 49.6 264.65 49.2 264.7 47.95
L 266.75 22.65
M 283.9 19.4
Q 283.5 19.8 283.5 21
L 283.5 49.35
Q 283.5 50.55 283.9 51 284.25 51.4 285.25 51.4
L 289.55 51.4
Q 290.55 51.4 290.95 51 291.3 50.55 291.3 49.35
L 291.3 38.55 293.45 38.45
Q 294.35 38.4 294.65 38.15 295 37.9 295 37.1
L 295 32.8
Q 295 31.4 293.45 31.45
L 291.3 31.55 291.3 21
Q 291.3 19.8 290.95 19.4 290.55 18.95 289.55 18.95
L 285.25 18.95
Q 284.25 18.95 283.9 19.4 Z"/>
</g>

<g id="as4eby4yby_1_Layer0_0_MEMBER_1_MEMBER_5_FILL">
<path fill="#FFFFFF" stroke="none" d="
M 330.05 47.7
Q 330.05 46.95 329.7 46.65 329.35 46.35 328.5 46.35
L 325.25 46.4 325.25 40.8
Q 330.55 37.35 330.55 30.5 330.55 24.2 326 20.75 321.8 17.55 314.9 17.55 308 17.55 303.8 20.75 299.25 24.2 299.25 30.5 299.25 37.35 304.55 40.8
L 304.55 46.8 301.3 46.8
Q 300.45 46.8 300.1 47.1 299.75 47.4 299.75 48.15
L 299.75 52.5
Q 299.75 53.25 300.1 53.55 300.45 53.8 301.3 53.8
L 328.5 53.35
Q 329.35 53.35 329.7 53.1 330.05 52.8 330.05 52
L 330.05 47.7
M 320.45 26.1
Q 322.25 27.75 322.25 30.7 322.25 33.7 320.45 35.35 318.55 37.1 314.9 37.1 311.3 37.1 309.4 35.35 307.55 33.7 307.55 30.7 307.55 27.75 309.4 26.1 311.3 24.35 314.9 24.35 318.55 24.35 320.45 26.1
M 311.9 46.65
L 311.9 43.3 317.9 43.3 317.9 46.55 311.9 46.65 Z"/>
</g>

<g id="as4eby4yby_1_Layer0_0_MEMBER_1_MEMBER_6_FILL">
<path fill="#FFFFFF" stroke="none" d="
M 347.9 47.05
Q 346.85 46.1 345.25 46.1 343.6 46.1 342.6 47.05 341.55 48.05 341.55 49.65 341.55 51.2 342.6 52.2 343.65 53.2 345.25 53.2 346.85 53.2 347.9 52.2 349 51.2 349 49.65 349 48.05 347.9 47.05
M 353.7 20.8
Q 350.7 18.6 345.5 18.6 341.95 18.6 339.45 19.35 337.25 20.05 335.4 21.2 334.25 21.9 334.7 23.35
L 335.6 26.55
Q 336.2 28.1 337.4 27.4 339.15 26.45 340.2 26.1 342.05 25.45 344.1 25.45 348.85 25.45 348.85 28.45 348.85 30.45 346.55 31.45 344.8 32.3 343.25 32.3 342.3 32.3 341.9 32.75 341.5 33.15 341.5 34.2
L 341.55 41.35
Q 341.55 42.55 341.95 43 342.3 43.4 343.3 43.4
L 347.45 43.4
Q 348.45 43.4 348.85 43 349.2 42.55 349.2 41.35
L 349.2 37.5 350.85 36.9
Q 353.35 35.95 354.75 34.45 356.95 32.15 356.95 28.35 356.95 23.4 353.7 20.8 Z"/>
</g>

<g id="baw34ybyby_1_Layer1_0_FILL">
<path fill="#FFFFFF" stroke="none" d="
M 169.5 89.15
Q 175.35 77.4 175.35 62.9 175.35 48.4 169.5 36.65 163.65 24.85 152.3 16.65 129.4 0 87.65 0 46 0 23 16.65 11.7 24.85 5.85 36.65 0 48.4 0 62.9 0 81.85 9.9 95.9 19.75 109.9 38.35 117.5 36.7 121.4 33.4 123.35 31.85 124.25 31.15 125.85 30.5 127.45 30.85 129.2 31.25 130.95 32.55 132.1 33.85 133.25 35.6 133.45 35.75 133.45 38 133.55 43.55 133.55 48.8 131.95 56.7 129.5 61.8 123.85 73.8 125.8 87.65 125.8 129.45 125.8 152.3 109.1 163.6 100.95 169.5 89.15 Z"/>
</g>

<g id="baw34ybyby_1_Layer1_1_FILL">
<path fill="#C6D3E4" stroke="none" d="
M 150 19.8
Q 128.179296875 3.944921875 87.65 3.95 47.120703125 3.94453125 25.3 19.8 3.9154296875 35.370703125 3.9 62.9 3.897265625 81.67734375 14.15 95.15 24.2107421875 108.3703125 43.2 115.15 41.3865234375 123.1244140625 35.35 126.75 34.9412109375 127.0201171875 34.75 127.5 34.5623046875 127.9658203125 34.7 128.45 34.8412109375 128.9404296875 35.25 129.25 35.6498046875 129.553515625 36.15 129.55
L 38.7 129.6
Q 41.9763671875 129.54140625 45.15 128.8
L 45.15 128.8
Q 54.9400390625 126.7033203125 60.25 119.6 72.6146484375 121.85078125 87.65 121.85 128.179296875 121.8548828125 150 105.95 171.3833984375 90.42890625 171.4 62.9 171.3833984375 35.37109375 150 19.8
M 87.65 6.95
Q 127.0212890625 6.9548828125 148.25 22.25 168.4166015625 36.9291015625 168.4 62.9 168.4166015625 88.8708984375 148.25 103.5 127.0212890625 118.844921875 87.65 118.85 72.351953125 118.84921875 59.85 116.45 59.441015625 116.3849609375 59 116.55 58.6193359375 116.727734375 58.35 117.1 53.6220703125 123.91328125 44.5 125.85
L 44.5 125.9
Q 42.5783203125 126.3419921875 40.6 126.5 45.051953125 122.0640625 46.4 114.45 46.52890625 113.9296875 46.25 113.45 45.957421875 112.9619140625 45.4 112.75 26.45859375 106.2951171875 16.55 93.35 6.902734375 80.622265625 6.9 62.9 6.884375 36.929296875 27.05 22.25 48.2798828125 6.95546875 87.65 6.95 Z"/>
</g>

<g id="ba4yb4y_0_Layer0_0_FILL">
<path fill="#FFFFFF" stroke="none" d="
M 0 29
Q 7.6 33.05 16.85 29.05 21.45 27.05 24.9 24.4 25.45 24.7 12.8 16.3 12.2 22.95 6.05 26.65 2.95 28.5 0 29 Z"/>
</g>

<g id="ba4yb4y_0_Layer0_1_FILL">
<path fill="#FFFFFF" stroke="none" d="
M 24.9 12.4
Q 24.9 8.05 21.8 4.95 18.7 1.85 14.35 1.85 9.95 1.85 6.85 4.95 3.75 8.05 3.75 12.4 3.75 16.8 6.85 19.9 9.95 23 14.35 23 18.7 23 21.8 19.9 24.9 16.8 24.9 12.4 Z"/>
</g>

<g id="ba4yb4y_0_Layer0_2_FILL">
<path fill="#FFFFFF" stroke="none" d="
M 36.25 23
Q 36.25 19.2 33.55 16.55 30.9 13.85 27.1 13.85 23.35 13.85 20.7 16.55 18 19.2 18 23 18 26.8 20.7 29.45 23.35 32.1 27.1 32.1 30.9 32.1 33.55 29.45 36.25 26.8 36.25 23 Z"/>
</g>

<g id="ba4yb4y_0_Layer0_3_FILL">
<path fill="#FFFFFF" stroke="none" d="
M 40.35 12.4
Q 40.35 7.25 36.7 3.65 33.05 0 27.9 0 22.75 0 19.1 3.65 15.45 7.25 15.45 12.4 15.45 17.55 19.1 21.2 22.75 24.85 27.9 24.85 33.05 24.85 36.7 21.2 40.35 17.55 40.35 12.4 Z"/>
</g>
</defs>

<g transform="matrix( 1, 0, 0, 1, 153.45,234.35) ">
<g transform="matrix( 1, 0, 0, 1, 0,203.55) ">
<g transform="matrix( 1, 0, 0, 1, 0,0) ">
<use xlink:href="#as4eby4yby_1_Layer1_0_MEMBER_0_MEMBER_0_FILL"/>
</g>

<g transform="matrix( 1, 0, 0, 1, 0,0) ">
<use xlink:href="#as4eby4yby_1_Layer1_0_MEMBER_0_MEMBER_1_FILL"/>
</g>

<g transform="matrix( 1, 0, 0, 1, 0,0) ">
<use xlink:href="#as4eby4yby_1_Layer1_0_MEMBER_0_MEMBER_2_FILL"/>
</g>

<g transform="matrix( 1, 0, 0, 1, 0,0) ">
<use xlink:href="#as4eby4yby_1_Layer1_0_MEMBER_0_MEMBER_3_FILL"/>
</g>

<g transform="matrix( 1, 0, 0, 1, 0,0) ">
<use xlink:href="#as4eby4yby_1_Layer1_0_MEMBER_1_MEMBER_0_FILL"/>
</g>

<g transform="matrix( 1, 0, 0, 1, 0,0) ">
<use xlink:href="#as4eby4yby_1_Layer1_0_MEMBER_1_MEMBER_1_FILL"/>
</g>

<g transform="matrix( 1, 0, 0, 1, 0,0) ">
<use xlink:href="#as4eby4yby_1_Layer1_0_MEMBER_1_MEMBER_2_FILL"/>
</g>

<g transform="matrix( 1, 0, 0, 1, 0,0) ">
<use xlink:href="#as4eby4yby_1_Layer1_0_MEMBER_1_MEMBER_3_FILL"/>
</g>

<g transform="matrix( 1, 0, 0, 1, 0,0) ">
<use xlink:href="#as4eby4yby_1_Layer1_0_MEMBER_1_MEMBER_4_FILL"/>
</g>

<g transform="matrix( 1, 0, 0, 1, 0,0) ">
<use xlink:href="#as4eby4yby_1_Layer1_0_MEMBER_1_MEMBER_5_FILL"/>
</g>

<g transform="matrix( 1, 0, 0, 1, 0.05,0) ">
<use xlink:href="#as4eby4yby_1_Layer0_0_MEMBER_0_MEMBER_0_FILL"/>
</g>

<g transform="matrix( 1, 0, 0, 1, 0.05,0) ">
<use xlink:href="#as4eby4yby_1_Layer0_0_MEMBER_0_MEMBER_1_FILL"/>
</g>

<g transform="matrix( 1, 0, 0, 1, 0.05,0) ">
<use xlink:href="#as4eby4yby_1_Layer0_0_MEMBER_0_MEMBER_2_FILL"/>
</g>

<g transform="matrix( 1, 0, 0, 1, 0.05,0) ">
<use xlink:href="#as4eby4yby_1_Layer0_0_MEMBER_0_MEMBER_3_FILL"/>
</g>

<g transform="matrix( 1, 0, 0, 1, 0.05,0) ">
<use xlink:href="#as4eby4yby_1_Layer0_0_MEMBER_0_MEMBER_4_FILL"/>
</g>

<g transform="matrix( 1, 0, 0, 1, 0.05,0) ">
<use xlink:href="#as4eby4yby_1_Layer0_0_MEMBER_0_MEMBER_5_FILL"/>
</g>

<g transform="matrix( 1, 0, 0, 1, 0.05,0) ">
<use xlink:href="#as4eby4yby_1_Layer0_0_MEMBER_0_MEMBER_6_FILL"/>
</g>

<g transform="matrix( 1, 0, 0, 1, 0.05,0) ">
<use xlink:href="#as4eby4yby_1_Layer0_0_MEMBER_1_MEMBER_0_FILL"/>
</g>

<g transform="matrix( 1, 0, 0, 1, 0.05,0) ">
<use xlink:href="#as4eby4yby_1_Layer0_0_MEMBER_1_MEMBER_1_FILL"/>
</g>

<g transform="matrix( 1, 0, 0, 1, 0.05,0) ">
<use xlink:href="#as4eby4yby_1_Layer0_0_MEMBER_1_MEMBER_2_FILL"/>
</g>

<g transform="matrix( 1, 0, 0, 1, 0.05,0) ">
<use xlink:href="#as4eby4yby_1_Layer0_0_MEMBER_1_MEMBER_3_FILL"/>
</g>

<g transform="matrix( 1, 0, 0, 1, 0.05,0) ">
<use xlink:href="#as4eby4yby_1_Layer0_0_MEMBER_1_MEMBER_4_FILL"/>
</g>

<g transform="matrix( 1, 0, 0, 1, 0.05,0) ">
<use xlink:href="#as4eby4yby_1_Layer0_0_MEMBER_1_MEMBER_5_FILL"/>
</g>

<g transform="matrix( 1, 0, 0, 1, 0.05,0) ">
<use xlink:href="#as4eby4yby_1_Layer0_0_MEMBER_1_MEMBER_6_FILL"/>
</g>
</g>

<g transform="matrix( 1, 0, 0, 1, 305.1,-95.3) ">
<g transform="matrix( 1.443450927734375, 0, 0, 1.443450927734375, 0,0) ">
<use xlink:href="#baw34ybyby_1_Layer1_0_FILL"/>
</g>

<g transform="matrix( 1.443450927734375, 0, 0, 1.443450927734375, 0,0) ">
<use xlink:href="#baw34ybyby_1_Layer1_1_FILL"/>
</g>
</g>
</g>

<g transform="matrix( 1.6888427734375, 0.97503662109375, -0.97503662109375, 1.6888427734375, 517.4,336.65) ">
<g transform="matrix( 1, 0, 0, 1, 0,0) ">
<use xlink:href="#ba4yb4y_0_Layer0_0_FILL"/>
</g>

<g transform="matrix( 1, 0, 0, 1, 0,0) ">
<use xlink:href="#ba4yb4y_0_Layer0_1_FILL"/>
</g>

<g transform="matrix( 1, 0, 0, 1, 0,0) ">
<use xlink:href="#ba4yb4y_0_Layer0_2_FILL"/>
</g>

<g transform="matrix( 1, 0, 0, 1, 0,0) ">
<use xlink:href="#ba4yb4y_0_Layer0_3_FILL"/>
</g>
</g>

<g transform="matrix( -1.177978515625, -0.31561279296875, -0.31561279296875, 1.177978515625, 223,321.85) ">
<g transform="matrix( 1, 0, 0, 1, 0,0) ">
<use xlink:href="#ba4yb4y_0_Layer0_0_FILL"/>
</g>

<g transform="matrix( 1, 0, 0, 1, 0,0) ">
<use xlink:href="#ba4yb4y_0_Layer0_1_FILL"/>
</g>

<g transform="matrix( 1, 0, 0, 1, 0,0) ">
<use xlink:href="#ba4yb4y_0_Layer0_2_FILL"/>
</g>

<g transform="matrix( 1, 0, 0, 1, 0,0) ">
<use xlink:href="#ba4yb4y_0_Layer0_3_FILL"/>
</g>
</g>

<g transform="matrix( -1.5439910888671875, 0.41375732421875, 0.41375732421875, 1.5439910888671875, 196.2,358.75) ">
<g transform="matrix( 1, 0, 0, 1, 0,0) ">
<use xlink:href="#ba4yb4y_0_Layer0_0_FILL"/>
</g>

<g transform="matrix( 1, 0, 0, 1, 0,0) ">
<use xlink:href="#ba4yb4y_0_Layer0_1_FILL"/>
</g>

<g transform="matrix( 1, 0, 0, 1, 0,0) ">
<use xlink:href="#ba4yb4y_0_Layer0_2_FILL"/>
</g>

<g transform="matrix( 1, 0, 0, 1, 0,0) ">
<use xlink:href="#ba4yb4y_0_Layer0_3_FILL"/>
</g>
</g>
</svg>
