<?xml version="1.0" encoding="utf-8"?>
<!-- Generator: Adobe Illustrator 23.0.0, SVG Export Plug-In . SVG Version: 6.00 Build 0)  -->
<svg version="1.1" id="레이어_1" xmlns="http://www.w3.org/2000/svg" xmlns:xlink="http://www.w3.org/1999/xlink" x="0px"
	 y="0px" width="248.2px" height="244.2px" viewBox="0 0 248.2 244.2" style="enable-background:new 0 0 248.2 244.2;"
	 xml:space="preserve">
<g>
	<g>
		<g>
			<polygon style="fill:#D5E8F7;stroke:#1B2B49;stroke-width:0.75;stroke-miterlimit:10;" points="196,2.8 188.1,11.2 211.8,11.2 
				219.7,2.8 			"/>
			<polygon style="fill:#D5E8F7;stroke:#1B2B49;stroke-width:0.75;stroke-miterlimit:10;" points="173.6,2.8 165.7,11.2 188.1,11.2 
				196,2.8 			"/>
			<polygon style="fill:#D5E8F7;stroke:#1B2B49;stroke-width:0.75;stroke-miterlimit:10;" points="150.6,2.8 142.7,11.2 165.7,11.2 
				173.6,2.8 			"/>
			<polygon style="fill:#D5E8F7;stroke:#1B2B49;stroke-width:0.75;stroke-miterlimit:10;" points="211.8,11.2 235.2,11.2 243,2.8 
				219.7,2.8 			"/>
			<polygon style="fill:#D5E8F7;stroke:#1B2B49;stroke-width:0.75;stroke-miterlimit:10;" points="128.9,2.8 121,11.2 142.7,11.2 
				150.6,2.8 			"/>
			<polygon style="fill:#D5E8F7;stroke:#1B2B49;stroke-width:0.75;stroke-miterlimit:10;" points="12.1,2.8 4.2,11.2 27.5,11.2 
				35.4,2.8 			"/>
			<polygon style="fill:#D5E8F7;stroke:#1B2B49;stroke-width:0.75;stroke-miterlimit:10;" points="35.4,2.8 27.5,11.2 51.9,11.2 
				59.8,2.8 			"/>
			<polygon style="fill:#D5E8F7;stroke:#1B2B49;stroke-width:0.75;stroke-miterlimit:10;" points="105.2,2.8 97.3,11.2 121,11.2 
				128.9,2.8 			"/>
			<polygon style="fill:#D5E8F7;stroke:#1B2B49;stroke-width:0.75;stroke-miterlimit:10;" points="59.8,2.8 51.9,11.2 75,11.2 
				82.8,2.8 			"/>
			<polygon style="fill:#D5E8F7;stroke:#1B2B49;stroke-width:0.75;stroke-miterlimit:10;" points="82.8,2.8 75,11.2 97.3,11.2 
				105.2,2.8 			"/>
		</g>
		<g>
			
				<rect x="142.5" y="173.8" style="fill:#75C5EF;stroke:#1B2B49;stroke-width:0.75;stroke-miterlimit:10;" width="23" height="22.1"/>
			
				<rect x="27.4" y="61.3" style="fill:#75C5EF;stroke:#1B2B49;stroke-width:0.75;stroke-miterlimit:10;" width="24.4" height="22.8"/>
			
				<rect x="165.5" y="173.8" style="fill:#75C5EF;stroke:#1B2B49;stroke-width:0.75;stroke-miterlimit:10;" width="22.3" height="22.1"/>
			
				<rect x="97.1" y="173.8" style="fill:#75C5EF;stroke:#1B2B49;stroke-width:0.75;stroke-miterlimit:10;" width="23.7" height="22.1"/>
			
				<rect x="165.5" y="151" style="fill:#75C5EF;stroke:#1B2B49;stroke-width:0.75;stroke-miterlimit:10;" width="22.3" height="22.8"/>
			
				<rect x="187.9" y="151" style="fill:#75C5EF;stroke:#1B2B49;stroke-width:0.75;stroke-miterlimit:10;" width="23.7" height="22.8"/>
			
				<rect x="74.8" y="173.8" style="fill:#75C5EF;stroke:#1B2B49;stroke-width:0.75;stroke-miterlimit:10;" width="22.3" height="22.1"/>
			
				<rect x="51.8" y="129.6" style="fill:#75C5EF;stroke:#1B2B49;stroke-width:0.75;stroke-miterlimit:10;" width="23" height="21.4"/>
			
				<rect x="51.8" y="106.1" style="fill:#75C5EF;stroke:#1B2B49;stroke-width:0.75;stroke-miterlimit:10;" width="23" height="23.4"/>
			<rect x="51.8" y="84" style="fill:#75C5EF;stroke:#1B2B49;stroke-width:0.75;stroke-miterlimit:10;" width="23" height="22.1"/>
			
				<rect x="51.8" y="173.8" style="fill:#75C5EF;stroke:#1B2B49;stroke-width:0.75;stroke-miterlimit:10;" width="23" height="22.1"/>
			<rect x="51.8" y="151" style="fill:#75C5EF;stroke:#1B2B49;stroke-width:0.75;stroke-miterlimit:10;" width="23" height="22.8"/>
			
				<rect x="97.1" y="37.2" style="fill:#75C5EF;stroke:#1B2B49;stroke-width:0.75;stroke-miterlimit:10;" width="23.7" height="24.1"/>
			
				<rect x="142.5" y="37.2" style="fill:#75C5EF;stroke:#1B2B49;stroke-width:0.75;stroke-miterlimit:10;" width="23" height="24.1"/>
			
				<rect x="120.8" y="37.2" style="fill:#75C5EF;stroke:#1B2B49;stroke-width:0.75;stroke-miterlimit:10;" width="21.7" height="24.1"/>
			
				<rect x="74.8" y="37.2" style="fill:#75C5EF;stroke:#1B2B49;stroke-width:0.75;stroke-miterlimit:10;" width="22.3" height="24.1"/>
			
				<rect x="51.8" y="37.2" style="fill:#75C5EF;stroke:#1B2B49;stroke-width:0.75;stroke-miterlimit:10;" width="23" height="24.1"/>
			
				<rect x="27.4" y="37.2" style="fill:#75C5EF;stroke:#1B2B49;stroke-width:0.75;stroke-miterlimit:10;" width="24.4" height="24.1"/>
			
				<rect x="187.9" y="37.2" style="fill:#75C5EF;stroke:#1B2B49;stroke-width:0.75;stroke-miterlimit:10;" width="23.7" height="24.1"/>
			
				<rect x="187.9" y="84" style="fill:#75C5EF;stroke:#1B2B49;stroke-width:0.75;stroke-miterlimit:10;" width="23.7" height="22.1"/>
			
				<rect x="187.9" y="106.1" style="fill:#75C5EF;stroke:#1B2B49;stroke-width:0.75;stroke-miterlimit:10;" width="23.7" height="23.4"/>
			
				<rect x="187.9" y="61.3" style="fill:#75C5EF;stroke:#1B2B49;stroke-width:0.75;stroke-miterlimit:10;" width="23.7" height="22.8"/>
			
				<rect x="187.9" y="129.6" style="fill:#75C5EF;stroke:#1B2B49;stroke-width:0.75;stroke-miterlimit:10;" width="23.7" height="21.4"/>
			
				<rect x="165.5" y="37.2" style="fill:#75C5EF;stroke:#1B2B49;stroke-width:0.75;stroke-miterlimit:10;" width="22.3" height="24.1"/>
			
				<rect x="120.8" y="173.8" style="fill:#75C5EF;stroke:#1B2B49;stroke-width:0.75;stroke-miterlimit:10;" width="21.7" height="22.1"/>
			
				<rect x="97.1" y="84" style="fill:#75C5EF;stroke:#1B2B49;stroke-width:0.75;stroke-miterlimit:10;" width="23.7" height="22.1"/>
			
				<rect x="120.8" y="84" style="fill:#75C5EF;stroke:#1B2B49;stroke-width:0.75;stroke-miterlimit:10;" width="21.7" height="22.1"/>
			
				<rect x="74.8" y="84" style="fill:#75C5EF;stroke:#1B2B49;stroke-width:0.75;stroke-miterlimit:10;" width="22.3" height="22.1"/>
			
				<rect x="74.8" y="106.1" style="fill:#75C5EF;stroke:#1B2B49;stroke-width:0.75;stroke-miterlimit:10;" width="22.3" height="23.4"/>
			
				<rect x="74.8" y="129.6" style="fill:#75C5EF;stroke:#1B2B49;stroke-width:0.75;stroke-miterlimit:10;" width="22.3" height="21.4"/>
			<rect x="142.5" y="84" style="fill:#75C5EF;stroke:#1B2B49;stroke-width:0.75;stroke-miterlimit:10;" width="23" height="22.1"/>
			
				<rect x="97.1" y="106.1" style="fill:#75C5EF;stroke:#1B2B49;stroke-width:0.75;stroke-miterlimit:10;" width="23.7" height="23.4"/>
			
				<rect x="97.1" y="129.6" style="fill:#75C5EF;stroke:#1B2B49;stroke-width:0.75;stroke-miterlimit:10;" width="23.7" height="21.4"/>
			
				<rect x="74.8" y="151" style="fill:#75C5EF;stroke:#1B2B49;stroke-width:0.75;stroke-miterlimit:10;" width="22.3" height="22.8"/>
			
				<rect x="120.8" y="106.1" style="fill:#75C5EF;stroke:#1B2B49;stroke-width:0.75;stroke-miterlimit:10;" width="21.7" height="23.4"/>
			
				<rect x="142.5" y="106.1" style="fill:#75C5EF;stroke:#1B2B49;stroke-width:0.75;stroke-miterlimit:10;" width="23" height="23.4"/>
			
				<rect x="51.8" y="61.3" style="fill:#75C5EF;stroke:#1B2B49;stroke-width:0.75;stroke-miterlimit:10;" width="23" height="22.8"/>
			
				<rect x="120.8" y="129.6" style="fill:#75C5EF;stroke:#1B2B49;stroke-width:0.75;stroke-miterlimit:10;" width="21.7" height="21.4"/>
			
				<rect x="142.5" y="61.3" style="fill:#75C5EF;stroke:#1B2B49;stroke-width:0.75;stroke-miterlimit:10;" width="23" height="22.8"/>
			
				<rect x="120.8" y="61.3" style="fill:#75C5EF;stroke:#1B2B49;stroke-width:0.75;stroke-miterlimit:10;" width="21.7" height="22.8"/>
			
				<rect x="165.5" y="61.3" style="fill:#75C5EF;stroke:#1B2B49;stroke-width:0.75;stroke-miterlimit:10;" width="22.3" height="22.8"/>
			
				<rect x="97.1" y="151" style="fill:#75C5EF;stroke:#1B2B49;stroke-width:0.75;stroke-miterlimit:10;" width="23.7" height="22.8"/>
			
				<rect x="74.8" y="61.3" style="fill:#75C5EF;stroke:#1B2B49;stroke-width:0.75;stroke-miterlimit:10;" width="22.3" height="22.8"/>
			
				<rect x="97.1" y="61.3" style="fill:#75C5EF;stroke:#1B2B49;stroke-width:0.75;stroke-miterlimit:10;" width="23.7" height="22.8"/>
			
				<rect x="142.5" y="129.6" style="fill:#75C5EF;stroke:#1B2B49;stroke-width:0.75;stroke-miterlimit:10;" width="23" height="21.4"/>
			
				<rect x="165.5" y="84" style="fill:#75C5EF;stroke:#1B2B49;stroke-width:0.75;stroke-miterlimit:10;" width="22.3" height="22.1"/>
			
				<rect x="142.5" y="151" style="fill:#75C5EF;stroke:#1B2B49;stroke-width:0.75;stroke-miterlimit:10;" width="23" height="22.8"/>
			
				<rect x="165.5" y="106.1" style="fill:#75C5EF;stroke:#1B2B49;stroke-width:0.75;stroke-miterlimit:10;" width="22.3" height="23.4"/>
			
				<rect x="165.5" y="129.6" style="fill:#75C5EF;stroke:#1B2B49;stroke-width:0.75;stroke-miterlimit:10;" width="22.3" height="21.4"/>
			
				<rect x="120.8" y="151" style="fill:#75C5EF;stroke:#1B2B49;stroke-width:0.75;stroke-miterlimit:10;" width="21.7" height="22.8"/>
			<rect x="4.1" y="84" style="fill:#75C5EF;stroke:#1B2B49;stroke-width:0.75;stroke-miterlimit:10;" width="23.4" height="22.1"/>
			
				<rect x="4.1" y="173.8" style="fill:#75C5EF;stroke:#1B2B49;stroke-width:0.75;stroke-miterlimit:10;" width="23.4" height="22.1"/>
			
				<rect x="4.1" y="106.1" style="fill:#75C5EF;stroke:#1B2B49;stroke-width:0.75;stroke-miterlimit:10;" width="23.4" height="23.4"/>
			
				<rect x="4.1" y="151" style="fill:#75C5EF;stroke:#1B2B49;stroke-width:0.75;stroke-miterlimit:10;" width="23.4" height="22.8"/>
			
				<rect x="4.1" y="129.6" style="fill:#75C5EF;stroke:#1B2B49;stroke-width:0.75;stroke-miterlimit:10;" width="23.4" height="21.4"/>
			
				<rect x="4.1" y="37.2" style="fill:#75C5EF;stroke:#1B2B49;stroke-width:0.75;stroke-miterlimit:10;" width="23.4" height="24.1"/>
			
				<rect x="4.1" y="61.3" style="fill:#75C5EF;stroke:#1B2B49;stroke-width:0.75;stroke-miterlimit:10;" width="23.4" height="22.8"/>
			
				<rect x="74.8" y="11.1" style="fill:#75C5EF;stroke:#1B2B49;stroke-width:0.75;stroke-miterlimit:10;" width="22.3" height="26.1"/>
			
				<rect x="97.1" y="11.1" style="fill:#75C5EF;stroke:#1B2B49;stroke-width:0.75;stroke-miterlimit:10;" width="23.7" height="26.1"/>
			
				<rect x="51.8" y="11.1" style="fill:#75C5EF;stroke:#1B2B49;stroke-width:0.75;stroke-miterlimit:10;" width="23" height="26.1"/>
			
				<rect x="4.1" y="11.1" style="fill:#75C5EF;stroke:#1B2B49;stroke-width:0.75;stroke-miterlimit:10;" width="23.4" height="26.1"/>
			
				<rect x="27.4" y="84" style="fill:#75C5EF;stroke:#1B2B49;stroke-width:0.75;stroke-miterlimit:10;" width="24.4" height="22.1"/>
			
				<rect x="120.8" y="11.1" style="fill:#75C5EF;stroke:#1B2B49;stroke-width:0.75;stroke-miterlimit:10;" width="21.7" height="26.1"/>
			
				<rect x="187.9" y="219.3" style="fill:#75C5EF;stroke:#1B2B49;stroke-width:0.75;stroke-miterlimit:10;" width="23.7" height="22.1"/>
			
				<rect x="165.5" y="219.3" style="fill:#75C5EF;stroke:#1B2B49;stroke-width:0.75;stroke-miterlimit:10;" width="22.3" height="22.1"/>
			
				<rect x="142.5" y="219.3" style="fill:#75C5EF;stroke:#1B2B49;stroke-width:0.75;stroke-miterlimit:10;" width="23" height="22.1"/>
			
				<rect x="211.5" y="219.3" style="fill:#75C5EF;stroke:#1B2B49;stroke-width:0.75;stroke-miterlimit:10;" width="23.4" height="22.1"/>
			
				<rect x="120.8" y="219.3" style="fill:#75C5EF;stroke:#1B2B49;stroke-width:0.75;stroke-miterlimit:10;" width="21.7" height="22.1"/>
			
				<rect x="211.5" y="195.9" style="fill:#75C5EF;stroke:#1B2B49;stroke-width:0.75;stroke-miterlimit:10;" width="23.4" height="23.4"/>
			
				<rect x="4.1" y="219.3" style="fill:#75C5EF;stroke:#1B2B49;stroke-width:0.75;stroke-miterlimit:10;" width="23.4" height="22.1"/>
			
				<rect x="4.1" y="195.9" style="fill:#75C5EF;stroke:#1B2B49;stroke-width:0.75;stroke-miterlimit:10;" width="23.4" height="23.4"/>
			
				<rect x="27.4" y="219.3" style="fill:#75C5EF;stroke:#1B2B49;stroke-width:0.75;stroke-miterlimit:10;" width="24.4" height="22.1"/>
			
				<rect x="97.1" y="219.3" style="fill:#75C5EF;stroke:#1B2B49;stroke-width:0.75;stroke-miterlimit:10;" width="23.7" height="22.1"/>
			
				<rect x="51.8" y="219.3" style="fill:#75C5EF;stroke:#1B2B49;stroke-width:0.75;stroke-miterlimit:10;" width="23" height="22.1"/>
			
				<rect x="74.8" y="219.3" style="fill:#75C5EF;stroke:#1B2B49;stroke-width:0.75;stroke-miterlimit:10;" width="22.3" height="22.1"/>
			
				<rect x="27.4" y="11.1" style="fill:#75C5EF;stroke:#1B2B49;stroke-width:0.75;stroke-miterlimit:10;" width="24.4" height="26.1"/>
			
				<rect x="187.9" y="195.9" style="fill:#75C5EF;stroke:#1B2B49;stroke-width:0.75;stroke-miterlimit:10;" width="23.7" height="23.4"/>
			
				<rect x="74.8" y="195.9" style="fill:#75C5EF;stroke:#1B2B49;stroke-width:0.75;stroke-miterlimit:10;" width="22.3" height="23.4"/>
			
				<rect x="120.8" y="195.9" style="fill:#75C5EF;stroke:#1B2B49;stroke-width:0.75;stroke-miterlimit:10;" width="21.7" height="23.4"/>
			
				<rect x="142.5" y="11.1" style="fill:#75C5EF;stroke:#1B2B49;stroke-width:0.75;stroke-miterlimit:10;" width="23" height="26.1"/>
			
				<rect x="165.5" y="195.9" style="fill:#75C5EF;stroke:#1B2B49;stroke-width:0.75;stroke-miterlimit:10;" width="22.3" height="23.4"/>
			
				<rect x="142.5" y="195.9" style="fill:#75C5EF;stroke:#1B2B49;stroke-width:0.75;stroke-miterlimit:10;" width="23" height="23.4"/>
			
				<rect x="97.1" y="195.9" style="fill:#75C5EF;stroke:#1B2B49;stroke-width:0.75;stroke-miterlimit:10;" width="23.7" height="23.4"/>
			
				<rect x="27.4" y="106.1" style="fill:#75C5EF;stroke:#1B2B49;stroke-width:0.75;stroke-miterlimit:10;" width="24.4" height="23.4"/>
			
				<rect x="27.4" y="129.6" style="fill:#75C5EF;stroke:#1B2B49;stroke-width:0.75;stroke-miterlimit:10;" width="24.4" height="21.4"/>
			
				<rect x="27.4" y="195.9" style="fill:#75C5EF;stroke:#1B2B49;stroke-width:0.75;stroke-miterlimit:10;" width="24.4" height="23.4"/>
			
				<rect x="27.4" y="151" style="fill:#75C5EF;stroke:#1B2B49;stroke-width:0.75;stroke-miterlimit:10;" width="24.4" height="22.8"/>
			
				<rect x="27.4" y="173.8" style="fill:#75C5EF;stroke:#1B2B49;stroke-width:0.75;stroke-miterlimit:10;" width="24.4" height="22.1"/>
			
				<rect x="51.8" y="195.9" style="fill:#75C5EF;stroke:#1B2B49;stroke-width:0.75;stroke-miterlimit:10;" width="23" height="23.4"/>
			
				<rect x="211.5" y="11.1" style="fill:#75C5EF;stroke:#1B2B49;stroke-width:0.75;stroke-miterlimit:10;" width="23.4" height="26.1"/>
			
				<rect x="211.5" y="37.2" style="fill:#75C5EF;stroke:#1B2B49;stroke-width:0.75;stroke-miterlimit:10;" width="23.4" height="24.1"/>
			
				<rect x="165.5" y="11.1" style="fill:#75C5EF;stroke:#1B2B49;stroke-width:0.75;stroke-miterlimit:10;" width="22.3" height="26.1"/>
			
				<rect x="187.9" y="173.8" style="fill:#75C5EF;stroke:#1B2B49;stroke-width:0.75;stroke-miterlimit:10;" width="23.7" height="22.1"/>
			
				<rect x="211.5" y="61.3" style="fill:#75C5EF;stroke:#1B2B49;stroke-width:0.75;stroke-miterlimit:10;" width="23.4" height="22.8"/>
			
				<rect x="187.9" y="11.1" style="fill:#75C5EF;stroke:#1B2B49;stroke-width:0.75;stroke-miterlimit:10;" width="23.7" height="26.1"/>
			
				<rect x="211.5" y="173.8" style="fill:#75C5EF;stroke:#1B2B49;stroke-width:0.75;stroke-miterlimit:10;" width="23.4" height="22.1"/>
			
				<rect x="211.5" y="151" style="fill:#75C5EF;stroke:#1B2B49;stroke-width:0.75;stroke-miterlimit:10;" width="23.4" height="22.8"/>
			
				<rect x="211.5" y="84" style="fill:#75C5EF;stroke:#1B2B49;stroke-width:0.75;stroke-miterlimit:10;" width="23.4" height="22.1"/>
			
				<rect x="211.5" y="106.1" style="fill:#75C5EF;stroke:#1B2B49;stroke-width:0.75;stroke-miterlimit:10;" width="23.4" height="23.4"/>
			
				<rect x="211.5" y="129.6" style="fill:#75C5EF;stroke:#1B2B49;stroke-width:0.75;stroke-miterlimit:10;" width="23.4" height="21.4"/>
		</g>
		<g>
			<polygon style="fill:#3C6F86;stroke:#1B2B49;stroke-width:0.75;stroke-miterlimit:10;" points="243.6,75.8 234.8,84.3 
				234.8,106.3 243.7,97.9 			"/>
			<polygon style="fill:#3C6F86;stroke:#1B2B49;stroke-width:0.75;stroke-miterlimit:10;" points="243.9,165.4 235,173.9 
				235.1,195.9 244,187.5 			"/>
			<polygon style="fill:#3C6F86;stroke:#1B2B49;stroke-width:0.75;stroke-miterlimit:10;" points="243.7,97.9 234.8,106.3 
				234.9,129.7 243.8,121.3 			"/>
			<polygon style="fill:#3C6F86;stroke:#1B2B49;stroke-width:0.75;stroke-miterlimit:10;" points="243.8,142.7 234.9,151.1 
				235,173.9 243.9,165.4 			"/>
			<polygon style="fill:#3C6F86;stroke:#1B2B49;stroke-width:0.75;stroke-miterlimit:10;" points="243.8,121.3 234.9,129.7 
				234.9,151.1 243.8,142.7 			"/>
			<polygon style="fill:#3C6F86;stroke:#1B2B49;stroke-width:0.75;stroke-miterlimit:10;" points="243.5,29 234.6,37.5 234.7,61.5 
				243.6,53.1 			"/>
			<polygon style="fill:#3C6F86;stroke:#1B2B49;stroke-width:0.75;stroke-miterlimit:10;" points="243.6,53.1 234.7,61.5 
				234.8,84.3 243.6,75.8 			"/>
			<polygon style="fill:#3C6F86;stroke:#1B2B49;stroke-width:0.75;stroke-miterlimit:10;" points="243.4,2.9 234.5,11.4 234.6,37.5 
				243.5,29 			"/>
			<polygon style="fill:#3C6F86;stroke:#1B2B49;stroke-width:0.75;stroke-miterlimit:10;" points="235.1,219.3 235.2,241.4 
				244.1,232.9 244,210.9 			"/>
			<polygon style="fill:#3C6F86;stroke:#1B2B49;stroke-width:0.75;stroke-miterlimit:10;" points="244,187.5 235.1,195.9 
				235.1,219.3 244,210.9 			"/>
		</g>
	</g>
</g>
</svg>
