<?xml version="1.0" encoding="utf-8"?>
<!-- Generator: Adobe Illustrator 23.0.0, SVG Export Plug-In . SVG Version: 6.00 Build 0)  -->
<svg version="1.1" id="레이어_1" xmlns="http://www.w3.org/2000/svg" xmlns:xlink="http://www.w3.org/1999/xlink" x="0px"
	 y="0px" width="39.1px" height="42.2px" viewBox="0 0 39.1 42.2" style="enable-background:new 0 0 39.1 42.2;"
	 xml:space="preserve">
<g>
	<path style="fill:#F79EBC;" d="M0,10.9c0,0,0.1-0.2,0.3-0.3L29,10.3c0,0,0.5,0.8,0,0.9L0,10.9z"/>
	<path style="fill:#F79EBC;" d="M39.1,7.1c0,0-0.3-0.2-0.4-0.2l-9.9,3.7c0,0,0.5,0.8,0.8,0.6L39.1,7.1z"/>
	<path style="fill:#F79EBC;" d="M29.4,42.1c0,0-0.2,0.1-0.3,0.1V10.8l0.5-0.1L29.4,42.1z"/>
	<polygon style="fill:#F8C8D6;" points="0,10.9 29,10.9 29,42.2 0,40.9 	"/>
	<polygon style="fill:#EC97B4;" points="29.3,10.9 39.1,7.1 39.1,36.3 29.3,42.1 	"/>
	<polygon style="fill:#BA6684;" points="38.7,6.8 7.4,6.7 0.3,10.5 29.2,10.5 	"/>
	<path style="fill:#F79EBC;" d="M14.7,33.7c-4.2,0-7.7-3.6-7.7-8c0-4.4,3.4-8,7.7-8c1.2,0,2.2,0.3,3.2,0.7c0.1-0.1,0.3-0.1,0.5-0.2
		c-1.1-0.6-2.4-0.9-3.7-0.9c-4.5,0-8.1,3.7-8.1,8.4c0,4.6,3.6,8.4,8.1,8.4c2.3,0,4.4-1,5.9-2.7c-0.2,0-0.3,0-0.4-0.1
		C18.7,32.8,16.8,33.7,14.7,33.7z"/>
	<path style="fill:#BA6684;" d="M7,25.7c0,4.4,3.4,8,7.7,8c2.1,0,4.1-0.9,5.5-2.4c-3.6-0.6-6.3-3.4-6.3-6.8c0-2.6,1.6-4.9,4.1-6.1
		c-1-0.5-2.1-0.7-3.2-0.7C10.4,17.8,7,21.3,7,25.7z"/>
	<path style="fill:#F79EBC;" d="M18.4,18.3c-0.2,0.1-0.3,0.1-0.5,0.2c2.6,1.3,4.5,4,4.5,7.2c0,2.2-0.9,4.2-2.2,5.6
		c0.1,0,0.3,0,0.4,0.1c1.3-1.5,2.2-3.5,2.2-5.7C22.7,22.5,21,19.7,18.4,18.3z"/>
	<path style="fill:#F7DAE4;" d="M13.8,24.6c0,3.4,2.7,6.2,6.3,6.8c1.4-1.4,2.2-3.4,2.2-5.6c0-3.2-1.8-6-4.5-7.2
		C15.5,19.7,13.8,22,13.8,24.6z"/>
	<path style="fill:#F79EBC;" d="M36.8,23.8c0,4.4-0.9,8-2,8c-1,0-1.9-3.6-1.8-8c0-4.4,0.9-8,2-8C36,15.8,36.8,19.4,36.8,23.8z"/>
	<path style="fill:#BA6684;" d="M36.5,23.8c0,4.4-0.9,8-1.8,8c-1,0-1.7-3.6-1.7-8c0-4.4,0.9-8,1.8-8C35.8,15.8,36.6,19.4,36.5,23.8z
		"/>
	
		<linearGradient id="SVGID_1_" gradientUnits="userSpaceOnUse" x1="4.407" y1="-58.7605" x2="17.7618" y2="-58.7605" gradientTransform="matrix(0.891 -1.190000e-02 2.870000e-02 2.1395 11.6925 131.6165)">
		<stop  offset="6.896550e-02" style="stop-color:#FFA6D8"/>
		<stop  offset="0.2217" style="stop-color:#FFEDFF"/>
		<stop  offset="0.5502" style="stop-color:#FBADDA"/>
		<stop  offset="0.7143" style="stop-color:#F992CA"/>
	</linearGradient>
	<path style="fill:url(#SVGID_1_);" d="M13.9,1.8L14,7.6c0,1.3,2.7,2.3,6,2.2c3.3,0,5.9-1.1,5.9-2.4l-0.1-5.8L13.9,1.8z"/>
	<path style="fill:#F79EBC;" d="M25.8,1.9c0,0.9-2.7,1.6-6,1.6c-3.3,0-6-0.7-6-1.6c0-0.9,2.7-1.6,6-1.6C23.2,0.3,25.8,1,25.8,1.9z"
		/>
	<path style="fill:#BA6684;" d="M25.8,1.6c0,0.9-2.7,1.6-6,1.6c-3.3,0-6-0.7-6-1.6c0-0.9,2.7-1.6,6-1.6C23.2,0,25.8,0.7,25.8,1.6z"
		/>
</g>
</svg>
