<?xml version="1.0" encoding="utf-8"?>
<!-- Generator: Adobe Illustrator 23.0.0, SVG Export Plug-In . SVG Version: 6.00 Build 0)  -->
<svg version="1.1" id="레이어_1" xmlns="http://www.w3.org/2000/svg" xmlns:xlink="http://www.w3.org/1999/xlink" x="0px"
	 y="0px" width="535.6px" height="34px" viewBox="0 0 535.6 34" style="enable-background:new 0 0 535.6 34;" xml:space="preserve">
<g>
	<g>
		<path style="fill:#634605;" d="M18.7,15.1c-0.2,0-0.4,0-0.4,0c-0.1,0-0.2,0-0.4,0c0,0.1,0,0.3,0,0.5c0,0.2,0,0.4,0,0.6
			c0,0.2,0,0.4,0,0.6c0,0.2,0,0.3,0,0.5c0.3,0.3,0.6,0.6,0.9,1c0.3,0.4,0.6,0.7,0.9,1c0.1,0.2,0.3,0.4,0.4,0.7
			c0.1,0.3,0.1,0.6,0,0.8c-0.1,0.2-0.2,0.4-0.4,0.4c-0.2,0.1-0.4,0.1-0.6,0c-0.3-0.1-0.5-0.3-0.7-0.5c-0.2-0.2-0.4-0.4-0.6-0.7
			l-0.9-0.9l-1.4,1.7c-0.2,0.2-0.4,0.4-0.5,0.5c-0.2,0.1-0.3,0.2-0.5,0.2c-0.2,0-0.4,0-0.5-0.1c-0.1-0.1-0.2-0.2-0.2-0.3
			c0-0.1-0.1-0.3,0-0.5c0-0.2,0.1-0.3,0.1-0.5c0-0.1,0.1-0.1,0.1-0.2c0-0.1,0.1-0.1,0.1-0.2c-0.1-0.1-0.2-0.2-0.2-0.3
			c-0.1-0.1-0.2-0.2-0.3-0.3l-1.6,1.8c-0.2,0.2-0.4,0.4-0.5,0.4c-0.1,0.1-0.3,0.1-0.5,0.1c-0.2,0-0.4-0.1-0.5-0.2
			c-0.1-0.1-0.2-0.3-0.2-0.4c0-0.2,0-0.3,0-0.5c0-0.2,0.1-0.4,0.2-0.5c0.3-0.5,0.6-0.9,0.9-1.3c0.3-0.4,0.7-0.9,1.1-1.3v-2.1h-0.5
			c-0.1,0-0.3,0-0.4,0c-0.2,0-0.3,0-0.5,0c-0.2,0-0.3-0.1-0.4-0.2c-0.1-0.1-0.2-0.2-0.3-0.4c-0.1-0.1-0.1-0.3-0.1-0.5
			c0-0.2,0.1-0.3,0.1-0.5c0.1-0.1,0.2-0.2,0.3-0.3c0.2-0.1,0.3-0.1,0.4-0.1c0.1,0,0.2,0,0.3,0c0.1,0,0.3,0,0.5,0c0.2,0,0.6,0,0.9,0
			s0.9,0,1.5,0c0.1,0,0.2,0,0.3,0c0.1,0,0.2,0,0.3,0h0.4h0.2h3.1c0.2,0,0.4,0,0.5,0c0.1,0,0.3,0,0.4,0.1c0.1,0,0.2,0.1,0.3,0.2
			c0.1,0.1,0.2,0.2,0.2,0.3c0,0.1,0.1,0.2,0.1,0.3c0,0.1,0,0.2,0,0.4c0,0.1-0.1,0.3-0.1,0.4c0,0.1-0.1,0.2-0.2,0.2
			c-0.1,0-0.2,0.1-0.3,0.1c-0.1,0-0.2,0.1-0.3,0.1c-0.1,0-0.2,0-0.3,0C18.9,15.1,18.8,15.1,18.7,15.1z M21.8,22.7
			c0.5,0,0.9,0.1,1.1,0.3c0.2,0.2,0.4,0.5,0.4,0.8v1.1c0,0,0,0.1,0,0.2c0,0.1,0,0.3,0,0.4s0,0.3,0,0.4c0,0.1,0,0.2,0,0.2
			c0,0.1,0,0.3,0,0.4c0,0.1,0,0.3,0,0.4c0,0.3-0.1,0.5-0.3,0.6c-0.2,0.2-0.4,0.2-0.7,0.2c-0.1,0-0.2,0-0.3,0c-0.2,0-0.3,0-0.3,0
			c-0.2-0.1-0.3-0.1-0.4-0.2s-0.2-0.2-0.2-0.3c0-0.1-0.1-0.3-0.1-0.4c0-0.1,0-0.3,0-0.4c0-0.1,0-0.1,0-0.3c0-0.1,0-0.3,0-0.5
			c0-0.2,0-0.3,0-0.4c0-0.1,0-0.2,0-0.3c0,0-0.1,0-0.3,0c-0.2,0-0.5,0-0.9,0c-0.4,0-0.6,0-0.7,0c-0.1,0-0.1,0-0.2,0H12
			c0,0-0.1,0-0.1,0c-0.1,0-0.2-0.1-0.3-0.1c-0.1-0.1-0.2-0.1-0.3-0.2c-0.1-0.1-0.1-0.2-0.1-0.3c-0.1-0.5,0-0.9,0.2-1.1
			c0.1-0.2,0.3-0.3,0.5-0.3c0.2,0,0.3-0.1,0.3-0.1H21.8z M15.4,15.1c-0.1,0-0.2,0-0.2,0c-0.1,0-0.1,0-0.2,0h-0.4c0,0.4,0,0.7,0,1.1
			c0,0.4,0,0.7,0.1,1.1l0.6,0.6c0.3-0.4,0.5-0.6,0.6-0.7v-2.1c0,0,0,0-0.1,0c0,0,0,0-0.1,0H15.4z M23.3,18.5v2.1
			c0,0.1,0,0.3-0.1,0.4c0,0.1-0.1,0.3-0.1,0.4c-0.1,0.2-0.2,0.3-0.3,0.4c-0.2,0.1-0.4,0.2-0.6,0.2c-0.2,0-0.4,0-0.5-0.1
			c-0.1-0.1-0.2-0.2-0.3-0.3c-0.1-0.1-0.1-0.2-0.2-0.3S21.1,21,21,20.8v-7c0-0.1,0-0.2,0-0.4c0-0.2,0.1-0.4,0.1-0.6
			c0.1-0.3,0.4-0.4,0.7-0.5c0.5-0.1,0.8,0,1,0.3c0.1,0.1,0.1,0.2,0.2,0.3c0,0.1,0.1,0.2,0.1,0.3c0,0.1,0.1,0.3,0.1,0.4
			c0,0.1,0,0.3,0,0.4v1.3v0.4c0,0.1,0,0.2,0,0.3c0,0.1,0,0.2,0,0.3c0,0,0.1,0,0.3,0c0.1,0,0.3,0,0.4,0c0.1,0,0.3,0,0.4,0
			c0.1,0,0.2,0,0.3,0c0.2,0.1,0.4,0.1,0.5,0.2c0.1,0.1,0.2,0.2,0.2,0.3c0,0.1,0.1,0.3,0.1,0.5c0,0.2,0,0.3-0.1,0.5
			c-0.1,0.3-0.4,0.4-0.7,0.4s-0.6,0.1-1,0.1H23.3z"/>
	</g>
	<g>
		<path d="M29.7,18.8c0.2,0,0.5,0,0.8,0c0.3,0,0.6,0,1,0c0-0.1,0-0.3,0-0.4c0-0.1,0-0.2,0-0.4c0,0,0,0-0.1,0
			c-0.3-0.1-0.6-0.3-0.9-0.4c-0.3-0.1-0.5-0.3-0.7-0.5c-0.2-0.2-0.4-0.4-0.5-0.7c-0.1-0.3-0.2-0.6-0.2-1c0-0.4,0-0.7,0.1-1
			c-0.3,0-0.5-0.1-0.8-0.3c-0.2-0.2-0.3-0.4-0.3-0.7c0-0.3,0.1-0.5,0.3-0.7c0.2-0.2,0.5-0.3,0.8-0.3h2.4v-0.6c0-0.2,0.1-0.4,0.3-0.6
			c0.2-0.2,0.5-0.3,0.8-0.3s0.6,0.1,0.8,0.3c0.2,0.2,0.3,0.4,0.3,0.6v0.6h2.6c0.3,0,0.6,0.1,0.8,0.3c0.2,0.2,0.3,0.4,0.3,0.7
			c0,0.3-0.1,0.5-0.3,0.7c-0.2,0.2-0.5,0.3-0.8,0.3c0,0.1,0.1,0.3,0.1,0.5c0,0.2,0,0.3,0,0.5c0,0.3,0,0.5-0.1,0.7
			c0,0.2-0.1,0.4-0.2,0.5c-0.1,0.2-0.2,0.3-0.4,0.5c-0.1,0.1-0.3,0.3-0.5,0.4c-0.2,0.2-0.5,0.3-0.7,0.4c-0.3,0.1-0.6,0.2-0.9,0.2
			v0.6v0.1c0.2,0,0.4,0,0.5,0c0.1,0,0.2,0,0.4,0s0.3,0,0.4,0c0.2,0,0.4,0,0.8,0c0.2,0,0.5,0,0.7,0c0.2,0,0.4,0.1,0.6,0.2
			c0.2,0.1,0.3,0.2,0.4,0.4c0.1,0.2,0.1,0.3,0.1,0.5c0,0.2,0,0.3-0.1,0.4c-0.1,0.1-0.1,0.2-0.2,0.3c-0.2,0.2-0.4,0.3-0.6,0.3
			c-0.3,0-0.5,0-0.7,0h-6.5c0,0-0.1,0-0.1,0c-0.1,0-0.2,0-0.3,0c-0.1,0-0.2-0.1-0.4-0.1c-0.1-0.1-0.2-0.1-0.3-0.3
			c-0.1-0.1-0.1-0.2-0.2-0.2c0-0.1-0.1-0.2-0.1-0.3c0-0.1,0-0.3,0.1-0.3c0-0.1,0.1-0.2,0.2-0.3c0.1-0.2,0.3-0.3,0.5-0.4
			C29.3,18.8,29.5,18.8,29.7,18.8z M40.8,26c0.2,0,0.4,0.1,0.5,0.2c0.1,0.1,0.3,0.2,0.3,0.4c0.1,0.5,0,0.8-0.5,1
			c-0.1,0.1-0.3,0.1-0.4,0.1c-0.1,0-0.3,0-0.4,0h-8.6c-0.2,0-0.5,0-0.8,0c-0.3,0-0.5,0-0.8,0c-0.3,0-0.5-0.1-0.6-0.3
			c-0.2-0.2-0.3-0.4-0.3-0.7l-0.1-1.3c0-0.1,0-0.3,0-0.5c0-0.2,0.1-0.3,0.2-0.5c0.2-0.2,0.4-0.3,0.7-0.4c0.3,0,0.6-0.1,0.8-0.1
			c0.2,0,0.5,0,0.9,0c0.4,0,0.9,0,1.6,0c0.7,0,1.5,0,2.6,0c1,0,2.2,0,3.6,0v-0.7h-9.1c-0.1,0-0.2,0-0.3,0c-0.1,0-0.2,0-0.3,0
			c-0.1,0-0.2-0.1-0.3-0.1c-0.1,0-0.2-0.1-0.2-0.2c-0.2-0.3-0.2-0.5-0.1-0.8c0-0.1,0.1-0.2,0.2-0.2c0.1-0.1,0.2-0.1,0.3-0.1
			c0.1,0,0.2-0.1,0.3-0.1c0.1,0,0.2,0,0.2,0c0.2,0,0.4-0.1,0.6-0.1c0.2,0,0.4,0,0.6,0c0.2,0,0.5,0,0.8,0c0.3,0,0.7,0,1.1,0
			c0.4,0,0.9,0,1.5,0c0.6,0,1.3,0,2.1,0c0.8,0,1.8,0,2.9,0c0.6,0,1.1,0.1,1.4,0.3c0.3,0.2,0.5,0.5,0.5,1v1.3c0,0.2,0,0.3-0.1,0.5
			c-0.1,0.2-0.2,0.3-0.4,0.4c-0.2,0.1-0.3,0.2-0.5,0.2c-0.2,0-0.3,0-0.5,0h-8.8V26H40.8z M32.8,16.3c0.2,0,0.4,0,0.6,0
			c0.2,0,0.4,0,0.5-0.1c0.2-0.1,0.3-0.1,0.4-0.3c0.1-0.1,0.2-0.3,0.2-0.5c0-0.4-0.1-0.6-0.2-0.7c-0.2-0.1-0.4-0.2-0.6-0.2h-1.5
			c-0.2,0-0.4,0.1-0.6,0.3c-0.1,0.1-0.2,0.4-0.2,0.7c0,0.2,0.1,0.4,0.1,0.5c0.1,0.1,0.2,0.2,0.3,0.3c0.1,0.1,0.3,0.1,0.5,0.1
			C32.4,16.3,32.6,16.3,32.8,16.3z M39.1,14.6c0-0.1,0-0.3,0-0.5c0-0.2,0-0.3,0-0.5c0-0.2,0.1-0.3,0.1-0.5c0-0.2,0.1-0.3,0.2-0.3
			c0.1-0.1,0.3-0.2,0.4-0.2c0.1,0,0.3,0,0.5,0c0.2,0,0.4,0.1,0.6,0.2c0.2,0.1,0.3,0.3,0.4,0.5c0.1,0.3,0.2,0.5,0.2,0.8
			c0,0.3,0,0.6,0,0.8c0,0.3,0,0.6,0,0.8c0,0.3,0,0.5,0,0.7c0.3,0,0.5,0,0.8,0c0.2,0,0.4,0,0.6,0c0.2,0,0.3,0.1,0.4,0.2
			c0.1,0.1,0.2,0.2,0.3,0.4c0.1,0.2,0.1,0.3,0.1,0.5c0,0.2,0,0.3-0.1,0.5c-0.2,0.3-0.5,0.4-0.8,0.5c-0.4,0.1-0.8,0.1-1.2,0.1v0.8
			c0,0.3,0,0.5-0.1,0.6c0,0.1-0.1,0.3-0.1,0.4c0,0,0,0.1,0,0.1c0,0,0,0.1-0.1,0.1c-0.1,0.2-0.2,0.3-0.3,0.4
			c-0.1,0.1-0.3,0.1-0.4,0.2c-0.2,0-0.3,0-0.5,0c-0.2-0.1-0.3-0.1-0.4-0.2c-0.1-0.1-0.2-0.2-0.2-0.4c-0.1-0.2-0.1-0.3-0.1-0.5
			c0-0.1,0-0.3,0-0.4c0-0.1,0-0.2,0-0.2V14.6z"/>
		<path d="M55.9,19.7c0.2,0,0.4,0,0.6,0.1c0.2,0.1,0.4,0.1,0.6,0.3c0.2,0.1,0.3,0.3,0.3,0.6c0,0.1,0,0.3-0.1,0.4
			c0,0.1-0.1,0.2-0.2,0.3c-0.1,0.1-0.2,0.2-0.4,0.2c-0.2,0-0.3,0.1-0.5,0.1c-0.1,0-0.3,0-0.4,0c-0.1,0-0.2,0-0.2,0l-9.9,0
			c-0.3,0-0.6,0-0.9,0c-0.3,0-0.6-0.1-0.8-0.3c-0.3-0.2-0.4-0.4-0.4-0.7c0-0.2,0.1-0.4,0.2-0.5c0.1-0.2,0.3-0.3,0.5-0.4
			c0.3-0.1,0.5-0.1,0.8-0.1c0.3,0,0.5,0,0.8,0c0.3,0,0.6,0,0.8,0c0.2,0,0.4,0,0.6,0c0.2,0,0.4,0,0.6,0c0.2,0,0.5,0,0.8,0v-1.1
			c-0.5,0-1,0-1.5,0c-0.5,0-0.8,0-1.1,0c-0.1,0-0.3,0-0.5,0c-0.2,0-0.4,0-0.6-0.1c-0.2-0.1-0.3-0.1-0.5-0.2
			c-0.1-0.1-0.2-0.2-0.3-0.4c0-0.1-0.1-0.2-0.1-0.3c0-0.1,0-0.1-0.1-0.2c0-0.1,0-0.1,0-0.2c0-0.1,0-0.2,0-0.3v-2c0,0,0,0,0-0.1
			c0-0.1,0-0.2,0-0.4c0-0.1,0-0.3,0.1-0.5c0-0.2,0.1-0.3,0.2-0.4c0.1-0.1,0.2-0.2,0.4-0.3c0.2-0.1,0.3-0.1,0.5-0.2
			c0.2,0,0.3-0.1,0.5-0.1c0.1,0,0.2,0,0.3,0h8.1c0.3,0,0.5,0,0.8,0c0.3,0,0.5,0.1,0.8,0.2c0.2,0.1,0.4,0.2,0.4,0.4
			c0.1,0.2,0.1,0.4,0.1,0.6c0,0.2-0.1,0.4-0.2,0.5c-0.1,0.2-0.3,0.3-0.5,0.3c-0.2,0.1-0.5,0.1-1,0.1h-0.4c-0.1,0-0.1,0-0.2,0h-6.5
			c-0.1,0-0.2,0-0.3,0c-0.1,0-0.2,0-0.3,0.1c0,0-0.1,0.1-0.1,0.2c0,0.1,0,0.3,0,0.4c0,0.2,0,0.3,0,0.5c0,0.1,0,0.2,0,0.3
			c0,0.1,0.2,0.1,0.3,0.1c0.2,0,0.3,0,0.4,0c0.1,0,0.3,0,0.6,0s0.6,0,1,0s0.9,0,1.6,0c0.6,0,1.4,0,2.3,0h1.4c0.3,0,0.6,0,0.8,0
			c0.3,0,0.5,0.1,0.7,0.2c0.2,0.1,0.4,0.3,0.5,0.6c0.1,0.3,0,0.6-0.2,0.8c-0.2,0.3-0.4,0.4-0.6,0.4c-0.2,0-0.5,0-0.7,0
			c-0.1,0-0.3,0-0.5,0c-0.3,0-0.6,0-0.9,0c-0.3,0-0.7,0-1,0c-0.4,0-0.7,0-1,0c0,0.2,0,0.4,0,0.6c0,0.2,0,0.4,0,0.5
			c0.3,0,0.7,0,1.1,0c0.4,0,0.8,0,1.2,0c0.4,0,0.8,0,1.1,0S55.6,19.7,55.9,19.7z M44.4,25.2c0-0.5,0.2-1,0.5-1.3
			c0.3-0.3,0.8-0.6,1.3-0.8c0.5-0.2,1.2-0.3,1.9-0.4s1.5-0.1,2.4-0.1c0.8,0,1.6,0,2.4,0.1c0.7,0.1,1.4,0.2,1.9,0.3
			c0.5,0.2,1,0.4,1.3,0.8c0.3,0.4,0.5,0.8,0.5,1.4c0,0.6-0.2,1.1-0.5,1.4c-0.3,0.3-0.8,0.6-1.3,0.8c-0.5,0.2-1.2,0.3-1.9,0.4
			c-0.7,0.1-1.5,0.1-2.4,0.1c-0.8,0-1.6,0-2.4-0.1c-0.7-0.1-1.4-0.2-1.9-0.4c-0.5-0.2-1-0.4-1.3-0.8C44.6,26.3,44.4,25.8,44.4,25.2z
			 M54.1,25.2c0-0.2-0.1-0.4-0.3-0.5c-0.2-0.1-0.5-0.2-0.9-0.2c-0.4,0-0.7-0.1-1.2-0.1c-0.4,0-0.9,0-1.3,0c-0.4,0-0.8,0-1.3,0
			c-0.4,0-0.8,0-1.1,0.1c-0.3,0.1-0.6,0.1-0.8,0.2C47.1,24.8,47,25,47,25.2c0,0.2,0.1,0.3,0.3,0.4c0.2,0.1,0.5,0.2,0.8,0.2
			c0.3,0.1,0.7,0.1,1.1,0.1c0.4,0,0.8,0,1.3,0c0.4,0,0.8,0,1.3,0c0.4,0,0.8,0,1.2,0c0.4,0,0.6-0.1,0.9-0.2
			C54,25.6,54.1,25.4,54.1,25.2z"/>
	</g>
	<path style="fill:#EEA900;" d="M63.5,34H14.4C6.5,34,0.1,27.6,0.1,19.7c0-7.9,6.4-14.3,14.3-14.3h21l5-4.7c0.4-0.4,1.1-0.4,1.6,0
		l5,4.7h22.4c0.6,0,1.1,0.5,1.1,1.1s-0.5,1.1-1.1,1.1H46.4c-0.3,0-0.6-0.1-0.8-0.3l-4.5-4.3l-4.5,4.3c-0.2,0.2-0.5,0.3-0.8,0.3H14.4
		c-6.6,0-12,5.4-12,12c0,6.6,5.4,12,12,12h49.1c5.4,0,9.4-2,11.9-6.1c0.3-0.5,1-0.7,1.6-0.4c0.5,0.3,0.7,1,0.4,1.6
		C74.4,31.6,69.7,34,63.5,34z"/>
	<g>
		<defs>
			<path id="SVGID_1_" d="M69.9,5.5c-3.1,0-5.7,2.5-5.7,5.7c0,2.1,1.1,3.9,2.8,4.9c-1.4,0.6-4.8,2.6-5.4,7.4v2.5
				c0.2,0.6,1.1,1.9,5.5,2.4h5.6c5.6-0.6,5.5-2.6,5.5-2.6c0.5-6.5-3.8-8.9-5.4-9.6c1.7-1,2.8-2.8,2.8-4.9
				C75.6,8.1,73.1,5.5,69.9,5.5C70,5.5,70,5.5,69.9,5.5"/>
		</defs>
		<clipPath id="SVGID_2_">
			<use xlink:href="#SVGID_1_"  style="overflow:visible;"/>
		</clipPath>
		<rect x="61.7" y="5.3" style="clip-path:url(#SVGID_2_);fill:#EEA900;" width="16.8" height="23"/>
	</g>
	<path style="fill:#EEA900;" d="M80.8,24.2c2-0.2,3.2-0.6,3.7-1c0.6-0.4,0.7-0.7,0.7-0.8c0,0,0,0,0,0c0,0,0,0,0,0c0-0.3,0-0.6,0-0.9
		c0-4.6-3.1-6.2-4.3-6.8l-0.8-0.4l0.8-0.5c1.3-0.8,2.1-2.1,2.1-3.7v0c0-2.4-1.9-4.3-4.3-4.3c-0.7,0-1.4,0.2-2,0.5l-0.4-0.8
		c0.7-0.4,1.5-0.6,2.4-0.6c0,0,0,0,0,0c2.9,0,5.2,2.4,5.2,5.3v0c0,1.6-0.7,3.1-1.9,4c1.6,0.9,4.2,2.9,4.1,7.3c0,0.3,0,0.6,0,0.9
		c0,0.2-0.1,0.8-0.8,1.4c-0.7,0.6-2,1.1-4.5,1.3L80.8,24.2z M80.9,25.1L80.9,25.1z"/>
	<path style="fill:#EEA900;" d="M80.9,25.7c-0.1,0-0.3,0-0.3-0.1c-0.1-0.1-0.2-0.2-0.2-0.4l-0.1-0.9c0-0.1,0-0.3,0.1-0.4
		c0.1-0.1,0.2-0.2,0.4-0.2c2.1-0.2,3.1-0.6,3.5-0.9c0.2-0.1,0.4-0.3,0.4-0.4c0,0,0,0,0,0c0-0.3,0-0.6,0-0.8c0-4.4-3-5.8-4-6.3
		l-0.8-0.4c-0.2-0.1-0.3-0.3-0.3-0.5c0-0.2,0.1-0.4,0.3-0.5l0.8-0.5c1.2-0.7,1.8-1.9,1.9-3.2c0-2.1-1.7-3.8-3.8-3.8
		c-0.6,0-1.2,0.1-1.7,0.4c-0.1,0.1-0.3,0.1-0.4,0c-0.1,0-0.3-0.1-0.3-0.3l-0.4-0.8c-0.1-0.1-0.1-0.3,0-0.4c0-0.1,0.1-0.3,0.3-0.3
		c0.8-0.4,1.7-0.7,2.7-0.7c0,0,0,0,0,0c0,0,0,0,0,0l0,0c3.2,0,5.8,2.6,5.8,5.8c0,1.5-0.6,2.9-1.6,4c1.6,1.1,3.8,3.3,3.8,7.4
		c0,0.3,0,0.6,0,1c0,0.2-0.1,1-1,1.8C84.7,25,83.2,25.4,80.9,25.7C80.9,25.7,80.9,25.7,80.9,25.7C80.9,25.7,80.9,25.7,80.9,25.7z
		 M81.3,14.3c0.1,0,0.2,0.1,0.2,0.1c0,0,0-0.1,0-0.1c0,0,0-0.1,0-0.1C81.4,14.2,81.4,14.2,81.3,14.3z"/>
	<path style="fill:#EEA900;" d="M71.6,4.7c-0.3,0-0.6-0.1-0.7-0.4l-2.2-2.9c-0.3-0.4-0.2-1,0.2-1.3c0.4-0.3,1-0.2,1.3,0.2l2.2,2.9
		c0.3,0.4,0.2,1-0.2,1.3C72,4.7,71.8,4.7,71.6,4.7z"/>
	<path style="fill:#EEA900;" d="M74.3,4.7c-0.2,0-0.4-0.1-0.5-0.2c-0.4-0.3-0.5-0.9-0.2-1.3l2.2-2.9C76,0,76.6-0.1,77,0.2
		c0.4,0.3,0.5,0.9,0.2,1.3L75,4.4C74.8,4.6,74.6,4.7,74.3,4.7z"/>
</g>
<g>
	<g>
		<path style="fill:#424A6F;" d="M107.5,15.1c-0.2,0-0.4,0-0.4,0c-0.1,0-0.2,0-0.4,0c0,0.1,0,0.3,0,0.5c0,0.2,0,0.4,0,0.6
			c0,0.2,0,0.4,0,0.6c0,0.2,0,0.3,0,0.5c0.3,0.3,0.6,0.6,0.9,1c0.3,0.4,0.6,0.7,0.9,1c0.1,0.2,0.3,0.4,0.4,0.7
			c0.1,0.3,0.1,0.6,0,0.8c-0.1,0.2-0.2,0.4-0.4,0.4c-0.2,0.1-0.4,0.1-0.6,0c-0.3-0.1-0.5-0.3-0.7-0.5c-0.2-0.2-0.4-0.4-0.6-0.7
			l-0.9-0.9l-1.4,1.7c-0.2,0.2-0.4,0.4-0.5,0.5c-0.2,0.1-0.3,0.2-0.5,0.2c-0.2,0-0.4,0-0.5-0.1c-0.1-0.1-0.2-0.2-0.2-0.3
			c0-0.1-0.1-0.3,0-0.5c0-0.2,0.1-0.3,0.1-0.5c0-0.1,0.1-0.1,0.1-0.2c0-0.1,0.1-0.1,0.1-0.2c-0.1-0.1-0.2-0.2-0.2-0.3
			c-0.1-0.1-0.2-0.2-0.3-0.3l-1.6,1.8c-0.2,0.2-0.4,0.4-0.5,0.4c-0.1,0.1-0.3,0.1-0.5,0.1c-0.2,0-0.4-0.1-0.5-0.2
			C99.1,21.1,99,21,99,20.8c0-0.2,0-0.3,0-0.5c0-0.2,0.1-0.4,0.2-0.5c0.3-0.5,0.6-0.9,0.9-1.3c0.3-0.4,0.7-0.9,1.1-1.3v-2.1h-0.5
			c-0.1,0-0.3,0-0.4,0c-0.2,0-0.3,0-0.5,0c-0.2,0-0.3-0.1-0.4-0.2c-0.1-0.1-0.2-0.2-0.3-0.4c-0.1-0.1-0.1-0.3-0.1-0.5
			c0-0.2,0.1-0.3,0.1-0.5c0.1-0.1,0.2-0.2,0.3-0.3c0.2-0.1,0.3-0.1,0.4-0.1c0.1,0,0.2,0,0.3,0c0.1,0,0.3,0,0.5,0c0.2,0,0.6,0,0.9,0
			s0.9,0,1.5,0c0.1,0,0.2,0,0.3,0c0.1,0,0.2,0,0.3,0h0.4h0.2h3.1c0.2,0,0.4,0,0.5,0c0.1,0,0.3,0,0.4,0.1c0.1,0,0.2,0.1,0.3,0.2
			c0.1,0.1,0.2,0.2,0.2,0.3c0,0.1,0.1,0.2,0.1,0.3c0,0.1,0,0.2,0,0.4s-0.1,0.3-0.1,0.4c0,0.1-0.1,0.2-0.2,0.2
			c-0.1,0-0.2,0.1-0.3,0.1c-0.1,0-0.2,0.1-0.3,0.1c-0.1,0-0.2,0-0.3,0C107.8,15.1,107.7,15.1,107.5,15.1z M110.6,22.7
			c0.5,0,0.9,0.1,1.1,0.3c0.2,0.2,0.4,0.5,0.4,0.8v1.1c0,0,0,0.1,0,0.2c0,0.1,0,0.3,0,0.4s0,0.3,0,0.4c0,0.1,0,0.2,0,0.2
			c0,0.1,0,0.3,0,0.4c0,0.1,0,0.3,0,0.4c0,0.3-0.1,0.5-0.3,0.6c-0.2,0.2-0.4,0.2-0.7,0.2c-0.1,0-0.2,0-0.3,0c-0.2,0-0.3,0-0.3,0
			c-0.2-0.1-0.3-0.1-0.4-0.2s-0.2-0.2-0.2-0.3c0-0.1-0.1-0.3-0.1-0.4c0-0.1,0-0.3,0-0.4c0-0.1,0-0.1,0-0.3c0-0.1,0-0.3,0-0.5
			c0-0.2,0-0.3,0-0.4c0-0.1,0-0.2,0-0.3c0,0-0.1,0-0.3,0c-0.2,0-0.5,0-0.9,0c-0.4,0-0.6,0-0.7,0c-0.1,0-0.1,0-0.2,0h-6.7
			c0,0-0.1,0-0.1,0c-0.1,0-0.2-0.1-0.3-0.1c-0.1-0.1-0.2-0.1-0.3-0.2c-0.1-0.1-0.1-0.2-0.1-0.3c-0.1-0.5,0-0.9,0.2-1.1
			c0.1-0.2,0.3-0.3,0.5-0.3c0.2,0,0.3-0.1,0.3-0.1H110.6z M104.2,15.1c-0.1,0-0.2,0-0.2,0c-0.1,0-0.1,0-0.2,0h-0.4
			c0,0.4,0,0.7,0,1.1c0,0.4,0,0.7,0.1,1.1l0.6,0.6c0.3-0.4,0.5-0.6,0.6-0.7v-2.1c0,0,0,0-0.1,0c0,0,0,0-0.1,0H104.2z M112.1,18.5
			v2.1c0,0.1,0,0.3-0.1,0.4c0,0.1-0.1,0.3-0.1,0.4c-0.1,0.2-0.2,0.3-0.3,0.4c-0.2,0.1-0.4,0.2-0.6,0.2c-0.2,0-0.4,0-0.5-0.1
			c-0.1-0.1-0.2-0.2-0.3-0.3c-0.1-0.1-0.1-0.2-0.2-0.3s-0.1-0.2-0.1-0.4v-7c0-0.1,0-0.2,0-0.4c0-0.2,0.1-0.4,0.1-0.6
			c0.1-0.3,0.4-0.4,0.7-0.5c0.5-0.1,0.8,0,1,0.3c0.1,0.1,0.1,0.2,0.2,0.3c0,0.1,0.1,0.2,0.1,0.3c0,0.1,0.1,0.3,0.1,0.4
			c0,0.1,0,0.3,0,0.4v1.3v0.4c0,0.1,0,0.2,0,0.3c0,0.1,0,0.2,0,0.3c0,0,0.1,0,0.3,0c0.1,0,0.3,0,0.4,0c0.1,0,0.3,0,0.4,0
			c0.1,0,0.2,0,0.3,0c0.2,0.1,0.4,0.1,0.5,0.2c0.1,0.1,0.2,0.2,0.2,0.3c0,0.1,0.1,0.3,0.1,0.5c0,0.2,0,0.3-0.1,0.5
			c-0.1,0.3-0.4,0.4-0.7,0.4s-0.6,0.1-1,0.1H112.1z"/>
	</g>
	<g>
		<path d="M118.5,18.8c0.2,0,0.5,0,0.8,0c0.3,0,0.6,0,1,0c0-0.1,0-0.3,0-0.4c0-0.1,0-0.2,0-0.4c0,0,0,0-0.1,0
			c-0.3-0.1-0.6-0.3-0.9-0.4c-0.3-0.1-0.5-0.3-0.7-0.5c-0.2-0.2-0.4-0.4-0.5-0.7c-0.1-0.3-0.2-0.6-0.2-1c0-0.4,0-0.7,0.1-1
			c-0.3,0-0.5-0.1-0.8-0.3c-0.2-0.2-0.3-0.4-0.3-0.7c0-0.3,0.1-0.5,0.3-0.7c0.2-0.2,0.5-0.3,0.8-0.3h2.4v-0.6c0-0.2,0.1-0.4,0.3-0.6
			c0.2-0.2,0.5-0.3,0.8-0.3s0.6,0.1,0.8,0.3c0.2,0.2,0.3,0.4,0.3,0.6v0.6h2.6c0.3,0,0.6,0.1,0.8,0.3c0.2,0.2,0.3,0.4,0.3,0.7
			c0,0.3-0.1,0.5-0.3,0.7c-0.2,0.2-0.5,0.3-0.8,0.3c0,0.1,0.1,0.3,0.1,0.5c0,0.2,0,0.3,0,0.5c0,0.3,0,0.5-0.1,0.7
			c0,0.2-0.1,0.4-0.2,0.5c-0.1,0.2-0.2,0.3-0.4,0.5c-0.1,0.1-0.3,0.3-0.5,0.4c-0.2,0.2-0.5,0.3-0.7,0.4c-0.3,0.1-0.6,0.2-0.9,0.2
			v0.6v0.1c0.2,0,0.4,0,0.5,0c0.1,0,0.2,0,0.4,0s0.3,0,0.4,0c0.2,0,0.4,0,0.8,0c0.2,0,0.5,0,0.7,0c0.2,0,0.4,0.1,0.6,0.2
			c0.2,0.1,0.3,0.2,0.4,0.4c0.1,0.2,0.1,0.3,0.1,0.5c0,0.2,0,0.3-0.1,0.4c-0.1,0.1-0.1,0.2-0.2,0.3c-0.2,0.2-0.4,0.3-0.6,0.3
			c-0.3,0-0.5,0-0.7,0h-6.5c0,0-0.1,0-0.1,0c-0.1,0-0.2,0-0.3,0c-0.1,0-0.2-0.1-0.4-0.1c-0.1-0.1-0.2-0.1-0.3-0.3
			c-0.1-0.1-0.1-0.2-0.2-0.2c0-0.1-0.1-0.2-0.1-0.3c0-0.1,0-0.3,0.1-0.3c0-0.1,0.1-0.2,0.2-0.3c0.1-0.2,0.3-0.3,0.5-0.4
			C118.2,18.8,118.3,18.8,118.5,18.8z M129.6,26c0.2,0,0.4,0.1,0.5,0.2c0.1,0.1,0.3,0.2,0.3,0.4c0.1,0.5,0,0.8-0.5,1
			c-0.1,0.1-0.3,0.1-0.4,0.1c-0.1,0-0.3,0-0.4,0h-8.6c-0.2,0-0.5,0-0.8,0c-0.3,0-0.5,0-0.8,0c-0.3,0-0.5-0.1-0.6-0.3
			c-0.2-0.2-0.3-0.4-0.3-0.7l-0.1-1.3c0-0.1,0-0.3,0-0.5c0-0.2,0.1-0.3,0.2-0.5c0.2-0.2,0.4-0.3,0.7-0.4c0.3,0,0.6-0.1,0.8-0.1
			c0.2,0,0.5,0,0.9,0c0.4,0,0.9,0,1.6,0c0.7,0,1.5,0,2.6,0c1,0,2.2,0,3.6,0v-0.7h-9.1c-0.1,0-0.2,0-0.3,0c-0.1,0-0.2,0-0.3,0
			c-0.1,0-0.2-0.1-0.3-0.1c-0.1,0-0.2-0.1-0.2-0.2c-0.2-0.3-0.2-0.5-0.1-0.8c0-0.1,0.1-0.2,0.2-0.2c0.1-0.1,0.2-0.1,0.3-0.1
			c0.1,0,0.2-0.1,0.3-0.1c0.1,0,0.2,0,0.2,0c0.2,0,0.4-0.1,0.6-0.1c0.2,0,0.4,0,0.6,0c0.2,0,0.5,0,0.8,0c0.3,0,0.7,0,1.1,0
			c0.4,0,0.9,0,1.5,0c0.6,0,1.3,0,2.1,0c0.8,0,1.8,0,2.9,0c0.6,0,1.1,0.1,1.4,0.3c0.3,0.2,0.5,0.5,0.5,1v1.3c0,0.2,0,0.3-0.1,0.5
			c-0.1,0.2-0.2,0.3-0.4,0.4c-0.2,0.1-0.3,0.2-0.5,0.2c-0.2,0-0.3,0-0.5,0h-8.8V26H129.6z M121.7,16.3c0.2,0,0.4,0,0.6,0
			c0.2,0,0.4,0,0.5-0.1c0.2-0.1,0.3-0.1,0.4-0.3c0.1-0.1,0.2-0.3,0.2-0.5c0-0.4-0.1-0.6-0.2-0.7c-0.2-0.1-0.4-0.2-0.6-0.2h-1.5
			c-0.2,0-0.4,0.1-0.6,0.3c-0.1,0.1-0.2,0.4-0.2,0.7c0,0.2,0.1,0.4,0.1,0.5c0.1,0.1,0.2,0.2,0.3,0.3c0.1,0.1,0.3,0.1,0.5,0.1
			C121.3,16.3,121.5,16.3,121.7,16.3z M127.9,14.6c0-0.1,0-0.3,0-0.5c0-0.2,0-0.3,0-0.5c0-0.2,0.1-0.3,0.1-0.5
			c0-0.2,0.1-0.3,0.2-0.3c0.1-0.1,0.3-0.2,0.4-0.2c0.1,0,0.3,0,0.5,0c0.2,0,0.4,0.1,0.6,0.2c0.2,0.1,0.3,0.3,0.4,0.5
			c0.1,0.3,0.2,0.5,0.2,0.8c0,0.3,0,0.6,0,0.8c0,0.3,0,0.6,0,0.8c0,0.3,0,0.5,0,0.7c0.3,0,0.5,0,0.8,0c0.2,0,0.4,0,0.6,0
			c0.2,0,0.3,0.1,0.4,0.2c0.1,0.1,0.2,0.2,0.3,0.4c0.1,0.2,0.1,0.3,0.1,0.5c0,0.2,0,0.3-0.1,0.5c-0.2,0.3-0.5,0.4-0.8,0.5
			c-0.4,0.1-0.8,0.1-1.2,0.1v0.8c0,0.3,0,0.5-0.1,0.6c0,0.1-0.1,0.3-0.1,0.4c0,0,0,0.1,0,0.1c0,0,0,0.1-0.1,0.1
			c-0.1,0.2-0.2,0.3-0.3,0.4c-0.1,0.1-0.3,0.1-0.4,0.2c-0.2,0-0.3,0-0.5,0c-0.2-0.1-0.3-0.1-0.4-0.2c-0.1-0.1-0.2-0.2-0.2-0.4
			c-0.1-0.2-0.1-0.3-0.1-0.5c0-0.1,0-0.3,0-0.4c0-0.1,0-0.2,0-0.2V14.6z"/>
		<path d="M144.7,19.7c0.2,0,0.4,0,0.6,0.1c0.2,0.1,0.4,0.1,0.6,0.3c0.2,0.1,0.3,0.3,0.3,0.6c0,0.1,0,0.3-0.1,0.4
			c0,0.1-0.1,0.2-0.2,0.3c-0.1,0.1-0.2,0.2-0.4,0.2c-0.2,0-0.3,0.1-0.5,0.1c-0.1,0-0.3,0-0.4,0s-0.2,0-0.2,0l-9.9,0
			c-0.3,0-0.6,0-0.9,0c-0.3,0-0.6-0.1-0.8-0.3c-0.3-0.2-0.4-0.4-0.4-0.7c0-0.2,0.1-0.4,0.2-0.5c0.1-0.2,0.3-0.3,0.5-0.4
			c0.3-0.1,0.5-0.1,0.8-0.1c0.3,0,0.5,0,0.8,0c0.3,0,0.6,0,0.8,0c0.2,0,0.4,0,0.6,0c0.2,0,0.4,0,0.6,0c0.2,0,0.5,0,0.8,0v-1.1
			c-0.5,0-1,0-1.5,0c-0.5,0-0.8,0-1.1,0c-0.1,0-0.3,0-0.5,0c-0.2,0-0.4,0-0.6-0.1c-0.2-0.1-0.3-0.1-0.5-0.2s-0.2-0.2-0.3-0.4
			c0-0.1-0.1-0.2-0.1-0.3c0-0.1,0-0.1-0.1-0.2c0-0.1,0-0.1,0-0.2c0-0.1,0-0.2,0-0.3v-2c0,0,0,0,0-0.1c0-0.1,0-0.2,0-0.4
			c0-0.1,0-0.3,0.1-0.5c0-0.2,0.1-0.3,0.2-0.4c0.1-0.1,0.2-0.2,0.4-0.3c0.2-0.1,0.3-0.1,0.5-0.2c0.2,0,0.3-0.1,0.5-0.1
			c0.1,0,0.2,0,0.3,0h8.1c0.3,0,0.5,0,0.8,0s0.5,0.1,0.8,0.2c0.2,0.1,0.4,0.2,0.4,0.4c0.1,0.2,0.1,0.4,0.1,0.6
			c0,0.2-0.1,0.4-0.2,0.5c-0.1,0.2-0.3,0.3-0.5,0.3c-0.2,0.1-0.5,0.1-1,0.1h-0.4c-0.1,0-0.1,0-0.2,0h-6.5c-0.1,0-0.2,0-0.3,0
			c-0.1,0-0.2,0-0.3,0.1c0,0-0.1,0.1-0.1,0.2c0,0.1,0,0.3,0,0.4c0,0.2,0,0.3,0,0.5c0,0.1,0,0.2,0,0.3c0,0.1,0.2,0.1,0.3,0.1
			c0.2,0,0.3,0,0.4,0c0.1,0,0.3,0,0.6,0s0.6,0,1,0s0.9,0,1.6,0c0.6,0,1.4,0,2.3,0h1.4c0.3,0,0.6,0,0.8,0c0.3,0,0.5,0.1,0.7,0.2
			c0.2,0.1,0.4,0.3,0.5,0.6c0.1,0.3,0,0.6-0.2,0.8c-0.2,0.3-0.4,0.4-0.6,0.4c-0.2,0-0.5,0-0.7,0c-0.1,0-0.3,0-0.5,0
			c-0.3,0-0.6,0-0.9,0c-0.3,0-0.7,0-1,0c-0.4,0-0.7,0-1,0c0,0.2,0,0.4,0,0.6c0,0.2,0,0.4,0,0.5c0.3,0,0.7,0,1.1,0c0.4,0,0.8,0,1.2,0
			c0.4,0,0.8,0,1.1,0S144.5,19.7,144.7,19.7z M133.3,25.2c0-0.5,0.2-1,0.5-1.3c0.3-0.3,0.8-0.6,1.3-0.8c0.5-0.2,1.2-0.3,1.9-0.4
			s1.5-0.1,2.4-0.1c0.8,0,1.6,0,2.4,0.1c0.7,0.1,1.4,0.2,1.9,0.3c0.5,0.2,1,0.4,1.3,0.8c0.3,0.4,0.5,0.8,0.5,1.4
			c0,0.6-0.2,1.1-0.5,1.4c-0.3,0.3-0.8,0.6-1.3,0.8c-0.5,0.2-1.2,0.3-1.9,0.4c-0.7,0.1-1.5,0.1-2.4,0.1c-0.8,0-1.6,0-2.4-0.1
			c-0.7-0.1-1.4-0.2-1.9-0.4c-0.5-0.2-1-0.4-1.3-0.8C133.4,26.3,133.3,25.8,133.3,25.2z M142.9,25.2c0-0.2-0.1-0.4-0.3-0.5
			c-0.2-0.1-0.5-0.2-0.9-0.2c-0.4,0-0.7-0.1-1.2-0.1c-0.4,0-0.9,0-1.3,0c-0.4,0-0.8,0-1.3,0c-0.4,0-0.8,0-1.1,0.1
			c-0.3,0.1-0.6,0.1-0.8,0.2c-0.2,0.1-0.3,0.3-0.3,0.5c0,0.2,0.1,0.3,0.3,0.4c0.2,0.1,0.5,0.2,0.8,0.2c0.3,0.1,0.7,0.1,1.1,0.1
			c0.4,0,0.8,0,1.3,0c0.4,0,0.8,0,1.3,0c0.4,0,0.8,0,1.2,0c0.4,0,0.6-0.1,0.9-0.2C142.8,25.6,142.9,25.4,142.9,25.2z"/>
	</g>
	<path style="fill:#8F8BB6;" d="M152.4,34h-49.1c-7.9,0-14.3-6.4-14.3-14.3c0-7.9,6.4-14.3,14.3-14.3h21l5-4.7
		c0.4-0.4,1.1-0.4,1.6,0l5,4.7h22.4c0.6,0,1.1,0.5,1.1,1.1s-0.5,1.1-1.1,1.1h-22.9c-0.3,0-0.6-0.1-0.8-0.3L130,3.1l-4.5,4.3
		c-0.2,0.2-0.5,0.3-0.8,0.3h-21.4c-6.6,0-12,5.4-12,12c0,6.6,5.4,12,12,12h49.1c5.4,0,9.4-2,11.9-6.1c0.3-0.5,1-0.7,1.6-0.4
		c0.5,0.3,0.7,1,0.4,1.6C163.2,31.6,158.6,34,152.4,34z"/>
	<g>
		<defs>
			<path id="SVGID_3_" d="M158.8,5.5c-3.1,0-5.7,2.5-5.7,5.7c0,2.1,1.1,3.9,2.8,4.9c-1.4,0.6-4.8,2.6-5.4,7.4v2.5
				c0.2,0.6,1.1,1.9,5.5,2.4h5.6c5.6-0.6,5.5-2.6,5.5-2.6c0.5-6.5-3.8-8.9-5.4-9.6c1.7-1,2.8-2.8,2.8-4.9
				C164.5,8.1,161.9,5.5,158.8,5.5C158.8,5.5,158.8,5.5,158.8,5.5"/>
		</defs>
		<clipPath id="SVGID_4_">
			<use xlink:href="#SVGID_3_"  style="overflow:visible;"/>
		</clipPath>
		<rect x="150.5" y="5.3" style="clip-path:url(#SVGID_4_);fill:#8F8BB6;" width="16.8" height="23"/>
	</g>
	<path style="fill:#8F8BB6;" d="M169.6,24.2c2-0.2,3.2-0.6,3.7-1c0.6-0.4,0.7-0.7,0.7-0.8c0,0,0,0,0,0c0,0,0,0,0,0
		c0-0.3,0-0.6,0-0.9c0-4.6-3.1-6.2-4.3-6.8l-0.8-0.4l0.8-0.5c1.3-0.8,2.1-2.1,2.1-3.7v0c0-2.4-1.9-4.3-4.3-4.3c-0.7,0-1.4,0.2-2,0.5
		l-0.4-0.8c0.7-0.4,1.5-0.6,2.4-0.6c0,0,0,0,0,0c2.9,0,5.2,2.4,5.2,5.3v0c0,1.6-0.7,3.1-1.9,4c1.6,0.9,4.2,2.9,4.1,7.3
		c0,0.3,0,0.6,0,0.9c0,0.2-0.1,0.8-0.8,1.4c-0.7,0.6-2,1.1-4.5,1.3L169.6,24.2z M169.7,25.1L169.7,25.1z"/>
	<path style="fill:#8F8BB6;" d="M169.7,25.7c-0.1,0-0.3,0-0.3-0.1c-0.1-0.1-0.2-0.2-0.2-0.4l-0.1-0.9c0-0.1,0-0.3,0.1-0.4
		c0.1-0.1,0.2-0.2,0.4-0.2c2.1-0.2,3.1-0.6,3.5-0.9c0.2-0.1,0.4-0.3,0.4-0.4c0,0,0,0,0,0c0-0.3,0-0.6,0-0.8c0-4.4-3-5.8-4-6.3
		l-0.8-0.4c-0.2-0.1-0.3-0.3-0.3-0.5c0-0.2,0.1-0.4,0.3-0.5l0.8-0.5c1.2-0.7,1.8-1.9,1.9-3.2c0-2.1-1.7-3.8-3.8-3.8
		c-0.6,0-1.2,0.1-1.7,0.4c-0.1,0.1-0.3,0.1-0.4,0c-0.1,0-0.3-0.1-0.3-0.3l-0.4-0.8c-0.1-0.1-0.1-0.3,0-0.4c0-0.1,0.1-0.3,0.3-0.3
		c0.8-0.4,1.7-0.7,2.7-0.7c0,0,0,0,0,0c0,0,0,0,0,0l0,0c3.2,0,5.8,2.6,5.8,5.8c0,1.5-0.6,2.9-1.6,4c1.6,1.1,3.8,3.3,3.8,7.4
		c0,0.3,0,0.6,0,1c0,0.2-0.1,1-1,1.8C173.5,25,172,25.4,169.7,25.7C169.8,25.7,169.8,25.7,169.7,25.7
		C169.7,25.7,169.7,25.7,169.7,25.7z M170.1,14.3c0.1,0,0.2,0.1,0.2,0.1c0,0,0-0.1,0-0.1c0,0,0-0.1,0-0.1
		C170.3,14.2,170.2,14.2,170.1,14.3z"/>
	<path style="fill:#8F8BB6;" d="M160.5,4.7c-0.3,0-0.6-0.1-0.7-0.4l-2.2-2.9c-0.3-0.4-0.2-1,0.2-1.3c0.4-0.3,1-0.2,1.3,0.2l2.2,2.9
		c0.3,0.4,0.2,1-0.2,1.3C160.8,4.7,160.6,4.7,160.5,4.7z"/>
	<path style="fill:#8F8BB6;" d="M163.1,4.7c-0.2,0-0.4-0.1-0.5-0.2c-0.4-0.3-0.5-0.9-0.2-1.3l2.2-2.9c0.3-0.4,0.9-0.5,1.3-0.2
		c0.4,0.3,0.5,0.9,0.2,1.3l-2.2,2.9C163.7,4.6,163.4,4.7,163.1,4.7z"/>
</g>
<g>
	<g>
		<path style="fill:#104D51;" d="M196.4,15.1c-0.2,0-0.4,0-0.4,0c-0.1,0-0.2,0-0.4,0c0,0.1,0,0.3,0,0.5c0,0.2,0,0.4,0,0.6
			c0,0.2,0,0.4,0,0.6c0,0.2,0,0.3,0,0.5c0.3,0.3,0.6,0.6,0.9,1c0.3,0.4,0.6,0.7,0.9,1c0.1,0.2,0.3,0.4,0.4,0.7
			c0.1,0.3,0.1,0.6,0,0.8c-0.1,0.2-0.2,0.4-0.4,0.4c-0.2,0.1-0.4,0.1-0.6,0c-0.3-0.1-0.5-0.3-0.7-0.5c-0.2-0.2-0.4-0.4-0.6-0.7
			l-0.9-0.9l-1.4,1.7c-0.2,0.2-0.4,0.4-0.5,0.5c-0.2,0.1-0.3,0.2-0.5,0.2c-0.2,0-0.4,0-0.5-0.1c-0.1-0.1-0.2-0.2-0.2-0.3
			c0-0.1-0.1-0.3,0-0.5c0-0.2,0.1-0.3,0.1-0.5c0-0.1,0.1-0.1,0.1-0.2c0-0.1,0.1-0.1,0.1-0.2c-0.1-0.1-0.2-0.2-0.2-0.3
			c-0.1-0.1-0.2-0.2-0.3-0.3l-1.6,1.8c-0.2,0.2-0.4,0.4-0.5,0.4c-0.1,0.1-0.3,0.1-0.5,0.1c-0.2,0-0.4-0.1-0.5-0.2
			c-0.1-0.1-0.2-0.3-0.2-0.4c0-0.2,0-0.3,0-0.5c0-0.2,0.1-0.4,0.2-0.5c0.3-0.5,0.6-0.9,0.9-1.3c0.3-0.4,0.7-0.9,1.1-1.3v-2.1h-0.5
			c-0.1,0-0.3,0-0.4,0c-0.2,0-0.3,0-0.5,0c-0.2,0-0.3-0.1-0.4-0.2c-0.1-0.1-0.2-0.2-0.3-0.4c-0.1-0.1-0.1-0.3-0.1-0.5
			c0-0.2,0.1-0.3,0.1-0.5c0.1-0.1,0.2-0.2,0.3-0.3c0.2-0.1,0.3-0.1,0.4-0.1c0.1,0,0.2,0,0.3,0c0.1,0,0.3,0,0.5,0c0.2,0,0.6,0,0.9,0
			s0.9,0,1.5,0c0.1,0,0.2,0,0.3,0c0.1,0,0.2,0,0.3,0h0.4h0.2h3.1c0.2,0,0.4,0,0.5,0c0.1,0,0.3,0,0.4,0.1c0.1,0,0.2,0.1,0.3,0.2
			c0.1,0.1,0.2,0.2,0.2,0.3c0,0.1,0.1,0.2,0.1,0.3c0,0.1,0,0.2,0,0.4s-0.1,0.3-0.1,0.4c0,0.1-0.1,0.2-0.2,0.2
			c-0.1,0-0.2,0.1-0.3,0.1c-0.1,0-0.2,0.1-0.3,0.1c-0.1,0-0.2,0-0.3,0C196.6,15.1,196.5,15.1,196.4,15.1z M199.5,22.7
			c0.5,0,0.9,0.1,1.1,0.3c0.2,0.2,0.4,0.5,0.4,0.8v1.1c0,0,0,0.1,0,0.2c0,0.1,0,0.3,0,0.4s0,0.3,0,0.4c0,0.1,0,0.2,0,0.2
			c0,0.1,0,0.3,0,0.4c0,0.1,0,0.3,0,0.4c0,0.3-0.1,0.5-0.3,0.6c-0.2,0.2-0.4,0.2-0.7,0.2c-0.1,0-0.2,0-0.3,0c-0.2,0-0.3,0-0.3,0
			c-0.2-0.1-0.3-0.1-0.4-0.2s-0.2-0.2-0.2-0.3c0-0.1-0.1-0.3-0.1-0.4c0-0.1,0-0.3,0-0.4c0-0.1,0-0.1,0-0.3c0-0.1,0-0.3,0-0.5
			c0-0.2,0-0.3,0-0.4c0-0.1,0-0.2,0-0.3c0,0-0.1,0-0.3,0c-0.2,0-0.5,0-0.9,0c-0.4,0-0.6,0-0.7,0c-0.1,0-0.1,0-0.2,0h-6.7
			c0,0-0.1,0-0.1,0c-0.1,0-0.2-0.1-0.3-0.1c-0.1-0.1-0.2-0.1-0.3-0.2c-0.1-0.1-0.1-0.2-0.1-0.3c-0.1-0.5,0-0.9,0.2-1.1
			c0.1-0.2,0.3-0.3,0.5-0.3c0.2,0,0.3-0.1,0.3-0.1H199.5z M193.1,15.1c-0.1,0-0.2,0-0.2,0c-0.1,0-0.1,0-0.2,0h-0.4
			c0,0.4,0,0.7,0,1.1c0,0.4,0,0.7,0.1,1.1l0.6,0.6c0.3-0.4,0.5-0.6,0.6-0.7v-2.1c0,0,0,0-0.1,0c0,0,0,0-0.1,0H193.1z M200.9,18.5
			v2.1c0,0.1,0,0.3-0.1,0.4c0,0.1-0.1,0.3-0.1,0.4c-0.1,0.2-0.2,0.3-0.3,0.4c-0.2,0.1-0.4,0.2-0.6,0.2c-0.2,0-0.4,0-0.5-0.1
			c-0.1-0.1-0.2-0.2-0.3-0.3c-0.1-0.1-0.1-0.2-0.2-0.3s-0.1-0.2-0.1-0.4v-7c0-0.1,0-0.2,0-0.4c0-0.2,0.1-0.4,0.1-0.6
			c0.1-0.3,0.4-0.4,0.7-0.5c0.5-0.1,0.8,0,1,0.3c0.1,0.1,0.1,0.2,0.2,0.3c0,0.1,0.1,0.2,0.1,0.3c0,0.1,0.1,0.3,0.1,0.4
			c0,0.1,0,0.3,0,0.4v1.3v0.4c0,0.1,0,0.2,0,0.3c0,0.1,0,0.2,0,0.3c0,0,0.1,0,0.3,0c0.1,0,0.3,0,0.4,0c0.1,0,0.3,0,0.4,0
			c0.1,0,0.2,0,0.3,0c0.2,0.1,0.4,0.1,0.5,0.2c0.1,0.1,0.2,0.2,0.2,0.3c0,0.1,0.1,0.3,0.1,0.5c0,0.2,0,0.3-0.1,0.5
			c-0.1,0.3-0.4,0.4-0.7,0.4s-0.6,0.1-1,0.1H200.9z"/>
	</g>
	<g>
		<path d="M207.3,18.8c0.2,0,0.5,0,0.8,0c0.3,0,0.6,0,1,0c0-0.1,0-0.3,0-0.4c0-0.1,0-0.2,0-0.4c0,0,0,0-0.1,0
			c-0.3-0.1-0.6-0.3-0.9-0.4c-0.3-0.1-0.5-0.3-0.7-0.5c-0.2-0.2-0.4-0.4-0.5-0.7c-0.1-0.3-0.2-0.6-0.2-1c0-0.4,0-0.7,0.1-1
			c-0.3,0-0.5-0.1-0.8-0.3c-0.2-0.2-0.3-0.4-0.3-0.7c0-0.3,0.1-0.5,0.3-0.7c0.2-0.2,0.5-0.3,0.8-0.3h2.4v-0.6c0-0.2,0.1-0.4,0.3-0.6
			c0.2-0.2,0.5-0.3,0.8-0.3s0.6,0.1,0.8,0.3c0.2,0.2,0.3,0.4,0.3,0.6v0.6h2.6c0.3,0,0.6,0.1,0.8,0.3c0.2,0.2,0.3,0.4,0.3,0.7
			c0,0.3-0.1,0.5-0.3,0.7c-0.2,0.2-0.5,0.3-0.8,0.3c0,0.1,0.1,0.3,0.1,0.5c0,0.2,0,0.3,0,0.5c0,0.3,0,0.5-0.1,0.7
			c0,0.2-0.1,0.4-0.2,0.5c-0.1,0.2-0.2,0.3-0.4,0.5c-0.1,0.1-0.3,0.3-0.5,0.4c-0.2,0.2-0.5,0.3-0.7,0.4c-0.3,0.1-0.6,0.2-0.9,0.2
			v0.6v0.1c0.2,0,0.4,0,0.5,0c0.1,0,0.2,0,0.4,0s0.3,0,0.4,0c0.2,0,0.4,0,0.8,0c0.2,0,0.5,0,0.7,0c0.2,0,0.4,0.1,0.6,0.2
			c0.2,0.1,0.3,0.2,0.4,0.4c0.1,0.2,0.1,0.3,0.1,0.5c0,0.2,0,0.3-0.1,0.4c-0.1,0.1-0.1,0.2-0.2,0.3c-0.2,0.2-0.4,0.3-0.6,0.3
			c-0.3,0-0.5,0-0.7,0h-6.5c0,0-0.1,0-0.1,0c-0.1,0-0.2,0-0.3,0c-0.1,0-0.2-0.1-0.4-0.1c-0.1-0.1-0.2-0.1-0.3-0.3
			c-0.1-0.1-0.1-0.2-0.2-0.2c0-0.1-0.1-0.2-0.1-0.3c0-0.1,0-0.3,0.1-0.3c0-0.1,0.1-0.2,0.2-0.3c0.1-0.2,0.3-0.3,0.5-0.4
			C207,18.8,207.2,18.8,207.3,18.8z M218.5,26c0.2,0,0.4,0.1,0.5,0.2c0.1,0.1,0.3,0.2,0.3,0.4c0.1,0.5,0,0.8-0.5,1
			c-0.1,0.1-0.3,0.1-0.4,0.1c-0.1,0-0.3,0-0.4,0h-8.6c-0.2,0-0.5,0-0.8,0c-0.3,0-0.5,0-0.8,0c-0.3,0-0.5-0.1-0.6-0.3
			c-0.2-0.2-0.3-0.4-0.3-0.7l-0.1-1.3c0-0.1,0-0.3,0-0.5c0-0.2,0.1-0.3,0.2-0.5c0.2-0.2,0.4-0.3,0.7-0.4c0.3,0,0.6-0.1,0.8-0.1
			c0.2,0,0.5,0,0.9,0c0.4,0,0.9,0,1.6,0c0.7,0,1.5,0,2.6,0c1,0,2.2,0,3.6,0v-0.7h-9.1c-0.1,0-0.2,0-0.3,0c-0.1,0-0.2,0-0.3,0
			c-0.1,0-0.2-0.1-0.3-0.1c-0.1,0-0.2-0.1-0.2-0.2c-0.2-0.3-0.2-0.5-0.1-0.8c0-0.1,0.1-0.2,0.2-0.2c0.1-0.1,0.2-0.1,0.3-0.1
			c0.1,0,0.2-0.1,0.3-0.1c0.1,0,0.2,0,0.2,0c0.2,0,0.4-0.1,0.6-0.1c0.2,0,0.4,0,0.6,0c0.2,0,0.5,0,0.8,0c0.3,0,0.7,0,1.1,0
			c0.4,0,0.9,0,1.5,0c0.6,0,1.3,0,2.1,0c0.8,0,1.8,0,2.9,0c0.6,0,1.1,0.1,1.4,0.3c0.3,0.2,0.5,0.5,0.5,1v1.3c0,0.2,0,0.3-0.1,0.5
			c-0.1,0.2-0.2,0.3-0.4,0.4c-0.2,0.1-0.3,0.2-0.5,0.2c-0.2,0-0.3,0-0.5,0h-8.8V26H218.5z M210.5,16.3c0.2,0,0.4,0,0.6,0
			c0.2,0,0.4,0,0.5-0.1c0.2-0.1,0.3-0.1,0.4-0.3c0.1-0.1,0.2-0.3,0.2-0.5c0-0.4-0.1-0.6-0.2-0.7c-0.2-0.1-0.4-0.2-0.6-0.2h-1.5
			c-0.2,0-0.4,0.1-0.6,0.3c-0.1,0.1-0.2,0.4-0.2,0.7c0,0.2,0.1,0.4,0.1,0.5c0.1,0.1,0.2,0.2,0.3,0.3c0.1,0.1,0.3,0.1,0.5,0.1
			C210.1,16.3,210.3,16.3,210.5,16.3z M216.8,14.6c0-0.1,0-0.3,0-0.5c0-0.2,0-0.3,0-0.5c0-0.2,0.1-0.3,0.1-0.5
			c0-0.2,0.1-0.3,0.2-0.3c0.1-0.1,0.3-0.2,0.4-0.2c0.1,0,0.3,0,0.5,0c0.2,0,0.4,0.1,0.6,0.2c0.2,0.1,0.3,0.3,0.4,0.5
			c0.1,0.3,0.2,0.5,0.2,0.8c0,0.3,0,0.6,0,0.8c0,0.3,0,0.6,0,0.8c0,0.3,0,0.5,0,0.7c0.3,0,0.5,0,0.8,0c0.2,0,0.4,0,0.6,0
			c0.2,0,0.3,0.1,0.4,0.2c0.1,0.1,0.2,0.2,0.3,0.4c0.1,0.2,0.1,0.3,0.1,0.5c0,0.2,0,0.3-0.1,0.5c-0.2,0.3-0.5,0.4-0.8,0.5
			c-0.4,0.1-0.8,0.1-1.2,0.1v0.8c0,0.3,0,0.5-0.1,0.6c0,0.1-0.1,0.3-0.1,0.4c0,0,0,0.1,0,0.1c0,0,0,0.1-0.1,0.1
			c-0.1,0.2-0.2,0.3-0.3,0.4c-0.1,0.1-0.3,0.1-0.4,0.2c-0.2,0-0.3,0-0.5,0c-0.2-0.1-0.3-0.1-0.4-0.2c-0.1-0.1-0.2-0.2-0.2-0.4
			c-0.1-0.2-0.1-0.3-0.1-0.5c0-0.1,0-0.3,0-0.4c0-0.1,0-0.2,0-0.2V14.6z"/>
		<path d="M233.6,19.7c0.2,0,0.4,0,0.6,0.1c0.2,0.1,0.4,0.1,0.6,0.3c0.2,0.1,0.3,0.3,0.3,0.6c0,0.1,0,0.3-0.1,0.4
			c0,0.1-0.1,0.2-0.2,0.3c-0.1,0.1-0.2,0.2-0.4,0.2c-0.2,0-0.3,0.1-0.5,0.1c-0.1,0-0.3,0-0.4,0s-0.2,0-0.2,0l-9.9,0
			c-0.3,0-0.6,0-0.9,0c-0.3,0-0.6-0.1-0.8-0.3c-0.3-0.2-0.4-0.4-0.4-0.7c0-0.2,0.1-0.4,0.2-0.5c0.1-0.2,0.3-0.3,0.5-0.4
			c0.3-0.1,0.5-0.1,0.8-0.1c0.3,0,0.5,0,0.8,0c0.3,0,0.6,0,0.8,0c0.2,0,0.4,0,0.6,0c0.2,0,0.4,0,0.6,0c0.2,0,0.5,0,0.8,0v-1.1
			c-0.5,0-1,0-1.5,0c-0.5,0-0.8,0-1.1,0c-0.1,0-0.3,0-0.5,0c-0.2,0-0.4,0-0.6-0.1c-0.2-0.1-0.3-0.1-0.5-0.2
			c-0.1-0.1-0.2-0.2-0.3-0.4c0-0.1-0.1-0.2-0.1-0.3c0-0.1,0-0.1-0.1-0.2c0-0.1,0-0.1,0-0.2c0-0.1,0-0.2,0-0.3v-2c0,0,0,0,0-0.1
			c0-0.1,0-0.2,0-0.4c0-0.1,0-0.3,0.1-0.5c0-0.2,0.1-0.3,0.2-0.4c0.1-0.1,0.2-0.2,0.4-0.3c0.2-0.1,0.3-0.1,0.5-0.2
			c0.2,0,0.3-0.1,0.5-0.1c0.1,0,0.2,0,0.3,0h8.1c0.3,0,0.5,0,0.8,0s0.5,0.1,0.8,0.2c0.2,0.1,0.4,0.2,0.4,0.4
			c0.1,0.2,0.1,0.4,0.1,0.6c0,0.2-0.1,0.4-0.2,0.5c-0.1,0.2-0.3,0.3-0.5,0.3c-0.2,0.1-0.5,0.1-1,0.1h-0.4c-0.1,0-0.1,0-0.2,0h-6.5
			c-0.1,0-0.2,0-0.3,0c-0.1,0-0.2,0-0.3,0.1c0,0-0.1,0.1-0.1,0.2c0,0.1,0,0.3,0,0.4c0,0.2,0,0.3,0,0.5c0,0.1,0,0.2,0,0.3
			c0,0.1,0.2,0.1,0.3,0.1c0.2,0,0.3,0,0.4,0c0.1,0,0.3,0,0.6,0s0.6,0,1,0s0.9,0,1.6,0c0.6,0,1.4,0,2.3,0h1.4c0.3,0,0.6,0,0.8,0
			c0.3,0,0.5,0.1,0.7,0.2c0.2,0.1,0.4,0.3,0.5,0.6c0.1,0.3,0,0.6-0.2,0.8c-0.2,0.3-0.4,0.4-0.6,0.4c-0.2,0-0.5,0-0.7,0
			c-0.1,0-0.3,0-0.5,0c-0.3,0-0.6,0-0.9,0c-0.3,0-0.7,0-1,0c-0.4,0-0.7,0-1,0c0,0.2,0,0.4,0,0.6c0,0.2,0,0.4,0,0.5
			c0.3,0,0.7,0,1.1,0c0.4,0,0.8,0,1.2,0c0.4,0,0.8,0,1.1,0S233.3,19.7,233.6,19.7z M222.1,25.2c0-0.5,0.2-1,0.5-1.3
			c0.3-0.3,0.8-0.6,1.3-0.8c0.5-0.2,1.2-0.3,1.9-0.4s1.5-0.1,2.4-0.1c0.8,0,1.6,0,2.4,0.1c0.7,0.1,1.4,0.2,1.9,0.3
			c0.5,0.2,1,0.4,1.3,0.8c0.3,0.4,0.5,0.8,0.5,1.4c0,0.6-0.2,1.1-0.5,1.4c-0.3,0.3-0.8,0.6-1.3,0.8c-0.5,0.2-1.2,0.3-1.9,0.4
			c-0.7,0.1-1.5,0.1-2.4,0.1c-0.8,0-1.6,0-2.4-0.1c-0.7-0.1-1.4-0.2-1.9-0.4c-0.5-0.2-1-0.4-1.3-0.8
			C222.3,26.3,222.1,25.8,222.1,25.2z M231.8,25.2c0-0.2-0.1-0.4-0.3-0.5c-0.2-0.1-0.5-0.2-0.9-0.2c-0.4,0-0.7-0.1-1.2-0.1
			c-0.4,0-0.9,0-1.3,0c-0.4,0-0.8,0-1.3,0c-0.4,0-0.8,0-1.1,0.1c-0.3,0.1-0.6,0.1-0.8,0.2c-0.2,0.1-0.3,0.3-0.3,0.5
			c0,0.2,0.1,0.3,0.3,0.4c0.2,0.1,0.5,0.2,0.8,0.2c0.3,0.1,0.7,0.1,1.1,0.1c0.4,0,0.8,0,1.3,0c0.4,0,0.8,0,1.3,0c0.4,0,0.8,0,1.2,0
			c0.4,0,0.6-0.1,0.9-0.2C231.7,25.6,231.8,25.4,231.8,25.2z"/>
	</g>
	<path style="fill:#51B1BF;" d="M241.2,34h-49.1c-7.9,0-14.3-6.4-14.3-14.3c0-7.9,6.4-14.3,14.3-14.3h21l5-4.7
		c0.4-0.4,1.1-0.4,1.6,0l5,4.7H247c0.6,0,1.1,0.5,1.1,1.1s-0.5,1.1-1.1,1.1h-22.9c-0.3,0-0.6-0.1-0.8-0.3l-4.5-4.3l-4.5,4.3
		c-0.2,0.2-0.5,0.3-0.8,0.3h-21.4c-6.6,0-12,5.4-12,12c0,6.6,5.4,12,12,12h49.1c5.4,0,9.4-2,11.9-6.1c0.3-0.5,1-0.7,1.6-0.4
		c0.5,0.3,0.7,1,0.4,1.6C252.1,31.6,247.4,34,241.2,34z"/>
	<g>
		<defs>
			<path id="SVGID_5_" d="M247.6,5.5c-3.1,0-5.7,2.5-5.7,5.7c0,2.1,1.1,3.9,2.8,4.9c-1.4,0.6-4.8,2.6-5.4,7.4v2.5
				c0.2,0.6,1.1,1.9,5.5,2.4h5.6c5.6-0.6,5.5-2.6,5.5-2.6c0.5-6.5-3.8-8.9-5.4-9.6c1.7-1,2.8-2.8,2.8-4.9
				C253.3,8.1,250.8,5.5,247.6,5.5C247.6,5.5,247.6,5.5,247.6,5.5"/>
		</defs>
		<clipPath id="SVGID_6_">
			<use xlink:href="#SVGID_5_"  style="overflow:visible;"/>
		</clipPath>
		<rect x="239.3" y="5.3" style="clip-path:url(#SVGID_6_);fill:#51B1BF;" width="16.8" height="23"/>
	</g>
	<path style="fill:#51B1BF;" d="M258.5,24.2c2-0.2,3.2-0.6,3.7-1c0.6-0.4,0.7-0.7,0.7-0.8c0,0,0,0,0,0c0,0,0,0,0,0
		c0-0.3,0-0.6,0-0.9c0-4.6-3.1-6.2-4.3-6.8l-0.8-0.4l0.8-0.5c1.3-0.8,2.1-2.1,2.1-3.7v0c0-2.4-1.9-4.3-4.3-4.3c-0.7,0-1.4,0.2-2,0.5
		L254,5.5c0.7-0.4,1.5-0.6,2.4-0.6c0,0,0,0,0,0c2.9,0,5.2,2.4,5.2,5.3v0c0,1.6-0.7,3.1-1.9,4c1.6,0.9,4.2,2.9,4.1,7.3
		c0,0.3,0,0.6,0,0.9c0,0.2-0.1,0.8-0.8,1.4c-0.7,0.6-2,1.1-4.5,1.3L258.5,24.2z M258.6,25.1L258.6,25.1z"/>
	<path style="fill:#51B1BF;" d="M258.6,25.7c-0.1,0-0.3,0-0.3-0.1c-0.1-0.1-0.2-0.2-0.2-0.4l-0.1-0.9c0-0.1,0-0.3,0.1-0.4
		c0.1-0.1,0.2-0.2,0.4-0.2c2.1-0.2,3.1-0.6,3.5-0.9c0.2-0.1,0.4-0.3,0.4-0.4c0,0,0,0,0,0c0-0.3,0-0.6,0-0.8c0-4.4-3-5.8-4-6.3
		l-0.8-0.4c-0.2-0.1-0.3-0.3-0.3-0.5c0-0.2,0.1-0.4,0.3-0.5l0.8-0.5c1.2-0.7,1.8-1.9,1.9-3.2c0-2.1-1.7-3.8-3.8-3.8
		c-0.6,0-1.2,0.1-1.7,0.4c-0.1,0.1-0.3,0.1-0.4,0c-0.1,0-0.3-0.1-0.3-0.3l-0.4-0.8c-0.1-0.1-0.1-0.3,0-0.4c0-0.1,0.1-0.3,0.3-0.3
		c0.8-0.4,1.7-0.7,2.7-0.7c0,0,0,0,0,0c0,0,0,0,0,0l0,0c3.2,0,5.8,2.6,5.8,5.8c0,1.5-0.6,2.9-1.6,4c1.6,1.1,3.8,3.3,3.8,7.4
		c0,0.3,0,0.6,0,1c0,0.2-0.1,1-1,1.8C262.4,25,260.8,25.4,258.6,25.7C258.6,25.7,258.6,25.7,258.6,25.7
		C258.6,25.7,258.6,25.7,258.6,25.7z M259,14.3c0.1,0,0.2,0.1,0.2,0.1c0,0,0-0.1,0-0.1c0,0,0-0.1,0-0.1
		C259.1,14.2,259.1,14.2,259,14.3z"/>
	<path style="fill:#51B1BF;" d="M249.3,4.7c-0.3,0-0.6-0.1-0.7-0.4l-2.2-2.9c-0.3-0.4-0.2-1,0.2-1.3c0.4-0.3,1-0.2,1.3,0.2l2.2,2.9
		c0.3,0.4,0.2,1-0.2,1.3C249.7,4.7,249.5,4.7,249.3,4.7z"/>
	<path style="fill:#51B1BF;" d="M252,4.7c-0.2,0-0.4-0.1-0.5-0.2c-0.4-0.3-0.5-0.9-0.2-1.3l2.2-2.9c0.3-0.4,0.9-0.5,1.3-0.2
		c0.4,0.3,0.5,0.9,0.2,1.3l-2.2,2.9C252.5,4.6,252.2,4.7,252,4.7z"/>
</g>
<g>
	<g>
		<path style="fill:#54204A;" d="M285.2,15.1c-0.2,0-0.4,0-0.4,0c-0.1,0-0.2,0-0.4,0c0,0.1,0,0.3,0,0.5c0,0.2,0,0.4,0,0.6
			c0,0.2,0,0.4,0,0.6c0,0.2,0,0.3,0,0.5c0.3,0.3,0.6,0.6,0.9,1c0.3,0.4,0.6,0.7,0.9,1c0.1,0.2,0.3,0.4,0.4,0.7
			c0.1,0.3,0.1,0.6,0,0.8c-0.1,0.2-0.2,0.4-0.4,0.4c-0.2,0.1-0.4,0.1-0.6,0c-0.3-0.1-0.5-0.3-0.7-0.5c-0.2-0.2-0.4-0.4-0.6-0.7
			l-0.9-0.9l-1.4,1.7c-0.2,0.2-0.4,0.4-0.5,0.5c-0.2,0.1-0.3,0.2-0.5,0.2c-0.2,0-0.4,0-0.5-0.1c-0.1-0.1-0.2-0.2-0.2-0.3
			c0-0.1-0.1-0.3,0-0.5c0-0.2,0.1-0.3,0.1-0.5c0-0.1,0.1-0.1,0.1-0.2c0-0.1,0.1-0.1,0.1-0.2c-0.1-0.1-0.2-0.2-0.2-0.3
			c-0.1-0.1-0.2-0.2-0.3-0.3l-1.6,1.8c-0.2,0.2-0.4,0.4-0.5,0.4c-0.1,0.1-0.3,0.1-0.5,0.1c-0.2,0-0.4-0.1-0.5-0.2
			c-0.1-0.1-0.2-0.3-0.2-0.4c0-0.2,0-0.3,0-0.5c0-0.2,0.1-0.4,0.2-0.5c0.3-0.5,0.6-0.9,0.9-1.3c0.3-0.4,0.7-0.9,1.1-1.3v-2.1h-0.5
			c-0.1,0-0.3,0-0.4,0c-0.2,0-0.3,0-0.5,0c-0.2,0-0.3-0.1-0.4-0.2c-0.1-0.1-0.2-0.2-0.3-0.4c-0.1-0.1-0.1-0.3-0.1-0.5
			c0-0.2,0.1-0.3,0.1-0.5c0.1-0.1,0.2-0.2,0.3-0.3c0.2-0.1,0.3-0.1,0.4-0.1c0.1,0,0.2,0,0.3,0c0.1,0,0.3,0,0.5,0c0.2,0,0.6,0,0.9,0
			c0.4,0,0.9,0,1.5,0c0.1,0,0.2,0,0.3,0c0.1,0,0.2,0,0.3,0h0.4h0.2h3.1c0.2,0,0.4,0,0.5,0c0.1,0,0.3,0,0.4,0.1
			c0.1,0,0.2,0.1,0.3,0.2c0.1,0.1,0.2,0.2,0.2,0.3c0,0.1,0.1,0.2,0.1,0.3c0,0.1,0,0.2,0,0.4c0,0.1-0.1,0.3-0.1,0.4
			c0,0.1-0.1,0.2-0.2,0.2c-0.1,0-0.2,0.1-0.3,0.1c-0.1,0-0.2,0.1-0.3,0.1c-0.1,0-0.2,0-0.3,0C285.5,15.1,285.4,15.1,285.2,15.1z
			 M288.3,22.7c0.5,0,0.9,0.1,1.1,0.3c0.2,0.2,0.4,0.5,0.4,0.8v1.1c0,0,0,0.1,0,0.2c0,0.1,0,0.3,0,0.4s0,0.3,0,0.4
			c0,0.1,0,0.2,0,0.2c0,0.1,0,0.3,0,0.4c0,0.1,0,0.3,0,0.4c0,0.3-0.1,0.5-0.3,0.6c-0.2,0.2-0.4,0.2-0.7,0.2c-0.1,0-0.2,0-0.3,0
			c-0.2,0-0.3,0-0.3,0c-0.2-0.1-0.3-0.1-0.4-0.2c-0.1-0.1-0.2-0.2-0.2-0.3c0-0.1-0.1-0.3-0.1-0.4c0-0.1,0-0.3,0-0.4
			c0-0.1,0-0.1,0-0.3c0-0.1,0-0.3,0-0.5c0-0.2,0-0.3,0-0.4c0-0.1,0-0.2,0-0.3c0,0-0.1,0-0.3,0c-0.2,0-0.5,0-0.9,0
			c-0.4,0-0.6,0-0.7,0c-0.1,0-0.1,0-0.2,0h-6.7c0,0-0.1,0-0.1,0c-0.1,0-0.2-0.1-0.3-0.1c-0.1-0.1-0.2-0.1-0.3-0.2
			c-0.1-0.1-0.1-0.2-0.1-0.3c-0.1-0.5,0-0.9,0.2-1.1c0.1-0.2,0.3-0.3,0.5-0.3c0.2,0,0.3-0.1,0.3-0.1H288.3z M281.9,15.1
			c-0.1,0-0.2,0-0.2,0c-0.1,0-0.1,0-0.2,0h-0.4c0,0.4,0,0.7,0,1.1c0,0.4,0,0.7,0.1,1.1l0.6,0.6c0.3-0.4,0.5-0.6,0.6-0.7v-2.1
			c0,0,0,0-0.1,0c0,0,0,0-0.1,0H281.9z M289.8,18.5v2.1c0,0.1,0,0.3-0.1,0.4c0,0.1-0.1,0.3-0.1,0.4c-0.1,0.2-0.2,0.3-0.3,0.4
			c-0.2,0.1-0.4,0.2-0.6,0.2c-0.2,0-0.4,0-0.5-0.1c-0.1-0.1-0.2-0.2-0.3-0.3c-0.1-0.1-0.1-0.2-0.2-0.3c0-0.1-0.1-0.2-0.1-0.4v-7
			c0-0.1,0-0.2,0-0.4c0-0.2,0.1-0.4,0.1-0.6c0.1-0.3,0.4-0.4,0.7-0.5c0.5-0.1,0.8,0,1,0.3c0.1,0.1,0.1,0.2,0.2,0.3
			c0,0.1,0.1,0.2,0.1,0.3c0,0.1,0.1,0.3,0.1,0.4c0,0.1,0,0.3,0,0.4v1.3v0.4c0,0.1,0,0.2,0,0.3c0,0.1,0,0.2,0,0.3c0,0,0.1,0,0.3,0
			c0.1,0,0.3,0,0.4,0c0.1,0,0.3,0,0.4,0c0.1,0,0.2,0,0.3,0c0.2,0.1,0.4,0.1,0.5,0.2c0.1,0.1,0.2,0.2,0.2,0.3c0,0.1,0.1,0.3,0.1,0.5
			c0,0.2,0,0.3-0.1,0.5c-0.1,0.3-0.4,0.4-0.7,0.4s-0.6,0.1-1,0.1H289.8z"/>
	</g>
	<g>
		<path d="M296.2,18.8c0.2,0,0.5,0,0.8,0c0.3,0,0.6,0,1,0c0-0.1,0-0.3,0-0.4c0-0.1,0-0.2,0-0.4c0,0,0,0-0.1,0
			c-0.3-0.1-0.6-0.3-0.9-0.4c-0.3-0.1-0.5-0.3-0.7-0.5c-0.2-0.2-0.4-0.4-0.5-0.7c-0.1-0.3-0.2-0.6-0.2-1c0-0.4,0-0.7,0.1-1
			c-0.3,0-0.5-0.1-0.8-0.3c-0.2-0.2-0.3-0.4-0.3-0.7c0-0.3,0.1-0.5,0.3-0.7c0.2-0.2,0.5-0.3,0.8-0.3h2.4v-0.6c0-0.2,0.1-0.4,0.3-0.6
			c0.2-0.2,0.5-0.3,0.8-0.3s0.6,0.1,0.8,0.3c0.2,0.2,0.3,0.4,0.3,0.6v0.6h2.6c0.3,0,0.6,0.1,0.8,0.3c0.2,0.2,0.3,0.4,0.3,0.7
			c0,0.3-0.1,0.5-0.3,0.7c-0.2,0.2-0.5,0.3-0.8,0.3c0,0.1,0.1,0.3,0.1,0.5c0,0.2,0,0.3,0,0.5c0,0.3,0,0.5-0.1,0.7
			c0,0.2-0.1,0.4-0.2,0.5c-0.1,0.2-0.2,0.3-0.4,0.5c-0.1,0.1-0.3,0.3-0.5,0.4c-0.2,0.2-0.5,0.3-0.7,0.4c-0.3,0.1-0.6,0.2-0.9,0.2
			v0.6v0.1c0.2,0,0.4,0,0.5,0c0.1,0,0.2,0,0.4,0c0.1,0,0.3,0,0.4,0c0.2,0,0.4,0,0.8,0c0.2,0,0.5,0,0.7,0c0.2,0,0.4,0.1,0.6,0.2
			c0.2,0.1,0.3,0.2,0.4,0.4c0.1,0.2,0.1,0.3,0.1,0.5c0,0.2,0,0.3-0.1,0.4c-0.1,0.1-0.1,0.2-0.2,0.3c-0.2,0.2-0.4,0.3-0.6,0.3
			c-0.3,0-0.5,0-0.7,0h-6.5c0,0-0.1,0-0.1,0c-0.1,0-0.2,0-0.3,0c-0.1,0-0.2-0.1-0.4-0.1c-0.1-0.1-0.2-0.1-0.3-0.3
			c-0.1-0.1-0.1-0.2-0.2-0.2c0-0.1-0.1-0.2-0.1-0.3c0-0.1,0-0.3,0.1-0.3c0-0.1,0.1-0.2,0.2-0.3c0.1-0.2,0.3-0.3,0.5-0.4
			C295.8,18.8,296,18.8,296.2,18.8z M307.3,26c0.2,0,0.4,0.1,0.5,0.2c0.1,0.1,0.3,0.2,0.3,0.4c0.1,0.5,0,0.8-0.5,1
			c-0.1,0.1-0.3,0.1-0.4,0.1c-0.1,0-0.3,0-0.4,0h-8.6c-0.2,0-0.5,0-0.8,0c-0.3,0-0.5,0-0.8,0c-0.3,0-0.5-0.1-0.6-0.3
			c-0.2-0.2-0.3-0.4-0.3-0.7l-0.1-1.3c0-0.1,0-0.3,0-0.5c0-0.2,0.1-0.3,0.2-0.5c0.2-0.2,0.4-0.3,0.7-0.4c0.3,0,0.6-0.1,0.8-0.1
			c0.2,0,0.5,0,0.9,0c0.4,0,0.9,0,1.6,0c0.7,0,1.5,0,2.6,0c1,0,2.2,0,3.6,0v-0.7h-9.1c-0.1,0-0.2,0-0.3,0c-0.1,0-0.2,0-0.3,0
			c-0.1,0-0.2-0.1-0.3-0.1c-0.1,0-0.2-0.1-0.2-0.2c-0.2-0.3-0.2-0.5-0.1-0.8c0-0.1,0.1-0.2,0.2-0.2c0.1-0.1,0.2-0.1,0.3-0.1
			c0.1,0,0.2-0.1,0.3-0.1c0.1,0,0.2,0,0.2,0c0.2,0,0.4-0.1,0.6-0.1c0.2,0,0.4,0,0.6,0c0.2,0,0.5,0,0.8,0c0.3,0,0.7,0,1.1,0
			c0.4,0,0.9,0,1.5,0c0.6,0,1.3,0,2.1,0c0.8,0,1.8,0,2.9,0c0.6,0,1.1,0.1,1.4,0.3c0.3,0.2,0.5,0.5,0.5,1v1.3c0,0.2,0,0.3-0.1,0.5
			c-0.1,0.2-0.2,0.3-0.4,0.4c-0.2,0.1-0.3,0.2-0.5,0.2c-0.2,0-0.3,0-0.5,0h-8.8V26H307.3z M299.3,16.3c0.2,0,0.4,0,0.6,0
			c0.2,0,0.4,0,0.5-0.1c0.2-0.1,0.3-0.1,0.4-0.3c0.1-0.1,0.2-0.3,0.2-0.5c0-0.4-0.1-0.6-0.2-0.7c-0.2-0.1-0.4-0.2-0.6-0.2h-1.5
			c-0.2,0-0.4,0.1-0.6,0.3c-0.1,0.1-0.2,0.4-0.2,0.7c0,0.2,0.1,0.4,0.1,0.5c0.1,0.1,0.2,0.2,0.3,0.3c0.1,0.1,0.3,0.1,0.5,0.1
			C299,16.3,299.1,16.3,299.3,16.3z M305.6,14.6c0-0.1,0-0.3,0-0.5c0-0.2,0-0.3,0-0.5c0-0.2,0.1-0.3,0.1-0.5c0-0.2,0.1-0.3,0.2-0.3
			c0.1-0.1,0.3-0.2,0.4-0.2c0.1,0,0.3,0,0.5,0c0.2,0,0.4,0.1,0.6,0.2c0.2,0.1,0.3,0.3,0.4,0.5c0.1,0.3,0.2,0.5,0.2,0.8
			c0,0.3,0,0.6,0,0.8c0,0.3,0,0.6,0,0.8c0,0.3,0,0.5,0,0.7c0.3,0,0.5,0,0.8,0c0.2,0,0.4,0,0.6,0c0.2,0,0.3,0.1,0.4,0.2
			c0.1,0.1,0.2,0.2,0.3,0.4c0.1,0.2,0.1,0.3,0.1,0.5c0,0.2,0,0.3-0.1,0.5c-0.2,0.3-0.5,0.4-0.8,0.5c-0.4,0.1-0.8,0.1-1.2,0.1v0.8
			c0,0.3,0,0.5-0.1,0.6c0,0.1-0.1,0.3-0.1,0.4c0,0,0,0.1,0,0.1c0,0,0,0.1-0.1,0.1c-0.1,0.2-0.2,0.3-0.3,0.4
			c-0.1,0.1-0.3,0.1-0.4,0.2c-0.2,0-0.3,0-0.5,0c-0.2-0.1-0.3-0.1-0.4-0.2c-0.1-0.1-0.2-0.2-0.2-0.4c-0.1-0.2-0.1-0.3-0.1-0.5
			c0-0.1,0-0.3,0-0.4c0-0.1,0-0.2,0-0.2V14.6z"/>
		<path d="M322.4,19.7c0.2,0,0.4,0,0.6,0.1c0.2,0.1,0.4,0.1,0.6,0.3c0.2,0.1,0.3,0.3,0.3,0.6c0,0.1,0,0.3-0.1,0.4
			c0,0.1-0.1,0.2-0.2,0.3c-0.1,0.1-0.2,0.2-0.4,0.2c-0.2,0-0.3,0.1-0.5,0.1c-0.1,0-0.3,0-0.4,0c-0.1,0-0.2,0-0.2,0l-9.9,0
			c-0.3,0-0.6,0-0.9,0c-0.3,0-0.6-0.1-0.8-0.3c-0.3-0.2-0.4-0.4-0.4-0.7c0-0.2,0.1-0.4,0.2-0.5c0.1-0.2,0.3-0.3,0.5-0.4
			c0.3-0.1,0.5-0.1,0.8-0.1c0.3,0,0.5,0,0.8,0c0.3,0,0.6,0,0.8,0c0.2,0,0.4,0,0.6,0c0.2,0,0.4,0,0.6,0c0.2,0,0.5,0,0.8,0v-1.1
			c-0.5,0-1,0-1.5,0c-0.5,0-0.8,0-1.1,0c-0.1,0-0.3,0-0.5,0c-0.2,0-0.4,0-0.6-0.1c-0.2-0.1-0.3-0.1-0.5-0.2s-0.2-0.2-0.3-0.4
			c0-0.1-0.1-0.2-0.1-0.3c0-0.1,0-0.1-0.1-0.2c0-0.1,0-0.1,0-0.2c0-0.1,0-0.2,0-0.3v-2c0,0,0,0,0-0.1c0-0.1,0-0.2,0-0.4
			c0-0.1,0-0.3,0.1-0.5c0-0.2,0.1-0.3,0.2-0.4c0.1-0.1,0.2-0.2,0.4-0.3c0.2-0.1,0.3-0.1,0.5-0.2c0.2,0,0.3-0.1,0.5-0.1
			c0.1,0,0.2,0,0.3,0h8.1c0.3,0,0.5,0,0.8,0c0.3,0,0.5,0.1,0.8,0.2c0.2,0.1,0.4,0.2,0.4,0.4c0.1,0.2,0.1,0.4,0.1,0.6
			c0,0.2-0.1,0.4-0.2,0.5c-0.1,0.2-0.3,0.3-0.5,0.3c-0.2,0.1-0.5,0.1-1,0.1h-0.4c-0.1,0-0.1,0-0.2,0H314c-0.1,0-0.2,0-0.3,0
			c-0.1,0-0.2,0-0.3,0.1c0,0-0.1,0.1-0.1,0.2c0,0.1,0,0.3,0,0.4c0,0.2,0,0.3,0,0.5c0,0.1,0,0.2,0,0.3c0,0.1,0.2,0.1,0.3,0.1
			c0.2,0,0.3,0,0.4,0c0.1,0,0.3,0,0.6,0s0.6,0,1,0s0.9,0,1.6,0c0.6,0,1.4,0,2.3,0h1.4c0.3,0,0.6,0,0.8,0c0.3,0,0.5,0.1,0.7,0.2
			c0.2,0.1,0.4,0.3,0.5,0.6c0.1,0.3,0,0.6-0.2,0.8c-0.2,0.3-0.4,0.4-0.6,0.4c-0.2,0-0.5,0-0.7,0c-0.1,0-0.3,0-0.5,0
			c-0.3,0-0.6,0-0.9,0c-0.3,0-0.7,0-1,0c-0.4,0-0.7,0-1,0c0,0.2,0,0.4,0,0.6c0,0.2,0,0.4,0,0.5c0.3,0,0.7,0,1.1,0c0.4,0,0.8,0,1.2,0
			c0.4,0,0.8,0,1.1,0S322.2,19.7,322.4,19.7z M310.9,25.2c0-0.5,0.2-1,0.5-1.3c0.3-0.3,0.8-0.6,1.3-0.8c0.5-0.2,1.2-0.3,1.9-0.4
			c0.7-0.1,1.5-0.1,2.4-0.1c0.8,0,1.6,0,2.4,0.1c0.7,0.1,1.4,0.2,1.9,0.3c0.5,0.2,1,0.4,1.3,0.8c0.3,0.4,0.5,0.8,0.5,1.4
			c0,0.6-0.2,1.1-0.5,1.4c-0.3,0.3-0.8,0.6-1.3,0.8c-0.5,0.2-1.2,0.3-1.9,0.4c-0.7,0.1-1.5,0.1-2.4,0.1c-0.8,0-1.6,0-2.4-0.1
			c-0.7-0.1-1.4-0.2-1.9-0.4c-0.5-0.2-1-0.4-1.3-0.8C311.1,26.3,310.9,25.8,310.9,25.2z M320.6,25.2c0-0.2-0.1-0.4-0.3-0.5
			c-0.2-0.1-0.5-0.2-0.9-0.2c-0.4,0-0.7-0.1-1.2-0.1c-0.4,0-0.9,0-1.3,0c-0.4,0-0.8,0-1.3,0c-0.4,0-0.8,0-1.1,0.1
			c-0.3,0.1-0.6,0.1-0.8,0.2c-0.2,0.1-0.3,0.3-0.3,0.5c0,0.2,0.1,0.3,0.3,0.4c0.2,0.1,0.5,0.2,0.8,0.2c0.3,0.1,0.7,0.1,1.1,0.1
			c0.4,0,0.8,0,1.3,0c0.4,0,0.8,0,1.3,0c0.4,0,0.8,0,1.2,0c0.4,0,0.6-0.1,0.9-0.2C320.5,25.6,320.6,25.4,320.6,25.2z"/>
	</g>
	<path style="fill:#BE7AAF;" d="M330,34h-49.1c-7.9,0-14.3-6.4-14.3-14.3c0-7.9,6.4-14.3,14.3-14.3h21l5-4.7c0.4-0.4,1.1-0.4,1.6,0
		l5,4.7h22.4c0.6,0,1.1,0.5,1.1,1.1s-0.5,1.1-1.1,1.1H313c-0.3,0-0.6-0.1-0.8-0.3l-4.5-4.3l-4.5,4.3c-0.2,0.2-0.5,0.3-0.8,0.3h-21.4
		c-6.6,0-12,5.4-12,12c0,6.6,5.4,12,12,12H330c5.4,0,9.4-2,11.9-6.1c0.3-0.5,1-0.7,1.6-0.4c0.5,0.3,0.7,1,0.4,1.6
		C340.9,31.6,336.3,34,330,34z"/>
	<g>
		<defs>
			<path id="SVGID_7_" d="M336.5,5.5c-3.1,0-5.7,2.5-5.7,5.7c0,2.1,1.1,3.9,2.8,4.9c-1.4,0.6-4.8,2.6-5.4,7.4v2.5
				c0.2,0.6,1.1,1.9,5.5,2.4h5.6c5.6-0.6,5.5-2.6,5.5-2.6c0.5-6.5-3.8-8.9-5.4-9.6c1.7-1,2.8-2.8,2.8-4.9
				C342.2,8.1,339.6,5.5,336.5,5.5C336.5,5.5,336.5,5.5,336.5,5.5"/>
		</defs>
		<clipPath id="SVGID_8_">
			<use xlink:href="#SVGID_7_"  style="overflow:visible;"/>
		</clipPath>
		<rect x="328.2" y="5.3" style="clip-path:url(#SVGID_8_);fill:#BE7AAF;" width="16.8" height="23"/>
	</g>
	<path style="fill:#BE7AAF;" d="M347.3,24.2c2-0.2,3.2-0.6,3.7-1c0.6-0.4,0.7-0.7,0.7-0.8c0,0,0,0,0,0c0,0,0,0,0,0
		c0-0.3,0-0.6,0-0.9c0-4.6-3.1-6.2-4.3-6.8l-0.8-0.4l0.8-0.5c1.3-0.8,2.1-2.1,2.1-3.7v0c0-2.4-1.9-4.3-4.3-4.3c-0.7,0-1.4,0.2-2,0.5
		l-0.4-0.8c0.7-0.4,1.5-0.6,2.4-0.6c0,0,0,0,0,0c2.9,0,5.2,2.4,5.2,5.3v0c0,1.6-0.7,3.1-1.9,4c1.6,0.9,4.2,2.9,4.1,7.3
		c0,0.3,0,0.6,0,0.9c0,0.2-0.1,0.8-0.8,1.4c-0.7,0.6-2,1.1-4.5,1.3L347.3,24.2z M347.4,25.1L347.4,25.1z"/>
	<path style="fill:#BE7AAF;" d="M347.4,25.7c-0.1,0-0.3,0-0.3-0.1c-0.1-0.1-0.2-0.2-0.2-0.4l-0.1-0.9c0-0.1,0-0.3,0.1-0.4
		c0.1-0.1,0.2-0.2,0.4-0.2c2.1-0.2,3.1-0.6,3.5-0.9c0.2-0.1,0.4-0.3,0.4-0.4c0,0,0,0,0,0c0-0.3,0-0.6,0-0.8c0-4.4-3-5.8-4-6.3
		l-0.8-0.4c-0.2-0.1-0.3-0.3-0.3-0.5c0-0.2,0.1-0.4,0.3-0.5l0.8-0.5c1.2-0.7,1.8-1.9,1.9-3.2c0-2.1-1.7-3.8-3.8-3.8
		c-0.6,0-1.2,0.1-1.7,0.4c-0.1,0.1-0.3,0.1-0.4,0c-0.1,0-0.3-0.1-0.3-0.3l-0.4-0.8c-0.1-0.1-0.1-0.3,0-0.4c0-0.1,0.1-0.3,0.3-0.3
		c0.8-0.4,1.7-0.7,2.7-0.7c0,0,0,0,0,0c0,0,0,0,0,0l0,0c3.2,0,5.8,2.6,5.8,5.8c0,1.5-0.6,2.9-1.6,4c1.6,1.1,3.8,3.3,3.8,7.4
		c0,0.3,0,0.6,0,1c0,0.2-0.1,1-1,1.8C351.2,25,349.7,25.4,347.4,25.7C347.5,25.7,347.4,25.7,347.4,25.7
		C347.4,25.7,347.4,25.7,347.4,25.7z M347.8,14.3c0.1,0,0.2,0.1,0.2,0.1c0,0,0-0.1,0-0.1c0,0,0-0.1,0-0.1
		C348,14.2,347.9,14.2,347.8,14.3z"/>
	<path style="fill:#BE7AAF;" d="M338.1,4.7c-0.3,0-0.6-0.1-0.7-0.4l-2.2-2.9c-0.3-0.4-0.2-1,0.2-1.3c0.4-0.3,1-0.2,1.3,0.2l2.2,2.9
		c0.3,0.4,0.2,1-0.2,1.3C338.5,4.7,338.3,4.7,338.1,4.7z"/>
	<path style="fill:#BE7AAF;" d="M340.8,4.7c-0.2,0-0.4-0.1-0.5-0.2c-0.4-0.3-0.5-0.9-0.2-1.3l2.2-2.9c0.3-0.4,0.9-0.5,1.3-0.2
		c0.4,0.3,0.5,0.9,0.2,1.3l-2.2,2.9C341.4,4.6,341.1,4.7,340.8,4.7z"/>
</g>
<g>
	<g>
		<path style="fill:#25350B;" d="M374,15.1c-0.2,0-0.4,0-0.4,0c-0.1,0-0.2,0-0.4,0c0,0.1,0,0.3,0,0.5c0,0.2,0,0.4,0,0.6
			c0,0.2,0,0.4,0,0.6c0,0.2,0,0.3,0,0.5c0.3,0.3,0.6,0.6,0.9,1c0.3,0.4,0.6,0.7,0.9,1c0.1,0.2,0.3,0.4,0.4,0.7
			c0.1,0.3,0.1,0.6,0,0.8c-0.1,0.2-0.2,0.4-0.4,0.4c-0.2,0.1-0.4,0.1-0.6,0c-0.3-0.1-0.5-0.3-0.7-0.5c-0.2-0.2-0.4-0.4-0.6-0.7
			l-0.9-0.9l-1.4,1.7c-0.2,0.2-0.4,0.4-0.5,0.5c-0.2,0.1-0.3,0.2-0.5,0.2c-0.2,0-0.4,0-0.5-0.1c-0.1-0.1-0.2-0.2-0.2-0.3
			c0-0.1-0.1-0.3,0-0.5c0-0.2,0.1-0.3,0.1-0.5c0-0.1,0.1-0.1,0.1-0.2c0-0.1,0.1-0.1,0.1-0.2c-0.1-0.1-0.2-0.2-0.2-0.3
			c-0.1-0.1-0.2-0.2-0.3-0.3l-1.6,1.8c-0.2,0.2-0.4,0.4-0.5,0.4c-0.1,0.1-0.3,0.1-0.5,0.1c-0.2,0-0.4-0.1-0.5-0.2
			c-0.1-0.1-0.2-0.3-0.2-0.4c0-0.2,0-0.3,0-0.5c0-0.2,0.1-0.4,0.2-0.5c0.3-0.5,0.6-0.9,0.9-1.3c0.3-0.4,0.7-0.9,1.1-1.3v-2.1h-0.5
			c-0.1,0-0.3,0-0.4,0c-0.2,0-0.3,0-0.5,0c-0.2,0-0.3-0.1-0.4-0.2c-0.1-0.1-0.2-0.2-0.3-0.4c-0.1-0.1-0.1-0.3-0.1-0.5
			c0-0.2,0.1-0.3,0.1-0.5c0.1-0.1,0.2-0.2,0.3-0.3c0.2-0.1,0.3-0.1,0.4-0.1c0.1,0,0.2,0,0.3,0c0.1,0,0.3,0,0.5,0c0.2,0,0.6,0,0.9,0
			c0.4,0,0.9,0,1.5,0c0.1,0,0.2,0,0.3,0c0.1,0,0.2,0,0.3,0h0.4h0.2h3.1c0.2,0,0.4,0,0.5,0c0.1,0,0.3,0,0.4,0.1
			c0.1,0,0.2,0.1,0.3,0.2c0.1,0.1,0.2,0.2,0.2,0.3c0,0.1,0.1,0.2,0.1,0.3c0,0.1,0,0.2,0,0.4c0,0.1-0.1,0.3-0.1,0.4
			c0,0.1-0.1,0.2-0.2,0.2c-0.1,0-0.2,0.1-0.3,0.1c-0.1,0-0.2,0.1-0.3,0.1c-0.1,0-0.2,0-0.3,0C374.3,15.1,374.2,15.1,374,15.1z
			 M377.1,22.7c0.5,0,0.9,0.1,1.1,0.3c0.2,0.2,0.4,0.5,0.4,0.8v1.1c0,0,0,0.1,0,0.2c0,0.1,0,0.3,0,0.4s0,0.3,0,0.4
			c0,0.1,0,0.2,0,0.2c0,0.1,0,0.3,0,0.4c0,0.1,0,0.3,0,0.4c0,0.3-0.1,0.5-0.3,0.6c-0.2,0.2-0.4,0.2-0.7,0.2c-0.1,0-0.2,0-0.3,0
			c-0.2,0-0.3,0-0.3,0c-0.2-0.1-0.3-0.1-0.4-0.2c-0.1-0.1-0.2-0.2-0.2-0.3c0-0.1-0.1-0.3-0.1-0.4c0-0.1,0-0.3,0-0.4
			c0-0.1,0-0.1,0-0.3c0-0.1,0-0.3,0-0.5c0-0.2,0-0.3,0-0.4c0-0.1,0-0.2,0-0.3c0,0-0.1,0-0.3,0c-0.2,0-0.5,0-0.9,0
			c-0.4,0-0.6,0-0.7,0c-0.1,0-0.1,0-0.2,0h-6.7c0,0-0.1,0-0.1,0c-0.1,0-0.2-0.1-0.3-0.1c-0.1-0.1-0.2-0.1-0.3-0.2
			c-0.1-0.1-0.1-0.2-0.1-0.3c-0.1-0.5,0-0.9,0.2-1.1c0.1-0.2,0.3-0.3,0.5-0.3c0.2,0,0.3-0.1,0.3-0.1H377.1z M370.7,15.1
			c-0.1,0-0.2,0-0.2,0c-0.1,0-0.1,0-0.2,0h-0.4c0,0.4,0,0.7,0,1.1c0,0.4,0,0.7,0.1,1.1l0.6,0.6c0.3-0.4,0.5-0.6,0.6-0.7v-2.1
			c0,0,0,0-0.1,0c0,0,0,0-0.1,0H370.7z M378.6,18.5v2.1c0,0.1,0,0.3-0.1,0.4c0,0.1-0.1,0.3-0.1,0.4c-0.1,0.2-0.2,0.3-0.3,0.4
			c-0.2,0.1-0.4,0.2-0.6,0.2c-0.2,0-0.4,0-0.5-0.1c-0.1-0.1-0.2-0.2-0.3-0.3c-0.1-0.1-0.1-0.2-0.2-0.3c0-0.1-0.1-0.2-0.1-0.4v-7
			c0-0.1,0-0.2,0-0.4c0-0.2,0.1-0.4,0.1-0.6c0.1-0.3,0.4-0.4,0.7-0.5c0.5-0.1,0.8,0,1,0.3c0.1,0.1,0.1,0.2,0.2,0.3
			c0,0.1,0.1,0.2,0.1,0.3c0,0.1,0.1,0.3,0.1,0.4c0,0.1,0,0.3,0,0.4v1.3v0.4c0,0.1,0,0.2,0,0.3c0,0.1,0,0.2,0,0.3c0,0,0.1,0,0.3,0
			c0.1,0,0.3,0,0.4,0c0.1,0,0.3,0,0.4,0c0.1,0,0.2,0,0.3,0c0.2,0.1,0.4,0.1,0.5,0.2c0.1,0.1,0.2,0.2,0.2,0.3c0,0.1,0.1,0.3,0.1,0.5
			c0,0.2,0,0.3-0.1,0.5c-0.1,0.3-0.4,0.4-0.7,0.4s-0.6,0.1-1,0.1H378.6z"/>
	</g>
	<g>
		<path d="M385,18.8c0.2,0,0.5,0,0.8,0c0.3,0,0.6,0,1,0c0-0.1,0-0.3,0-0.4c0-0.1,0-0.2,0-0.4c0,0,0,0-0.1,0
			c-0.3-0.1-0.6-0.3-0.9-0.4c-0.3-0.1-0.5-0.3-0.7-0.5c-0.2-0.2-0.4-0.4-0.5-0.7c-0.1-0.3-0.2-0.6-0.2-1c0-0.4,0-0.7,0.1-1
			c-0.3,0-0.5-0.1-0.8-0.3c-0.2-0.2-0.3-0.4-0.3-0.7c0-0.3,0.1-0.5,0.3-0.7c0.2-0.2,0.5-0.3,0.8-0.3h2.4v-0.6c0-0.2,0.1-0.4,0.3-0.6
			c0.2-0.2,0.5-0.3,0.8-0.3s0.6,0.1,0.8,0.3c0.2,0.2,0.3,0.4,0.3,0.6v0.6h2.6c0.3,0,0.6,0.1,0.8,0.3c0.2,0.2,0.3,0.4,0.3,0.7
			c0,0.3-0.1,0.5-0.3,0.7c-0.2,0.2-0.5,0.3-0.8,0.3c0,0.1,0.1,0.3,0.1,0.5c0,0.2,0,0.3,0,0.5c0,0.3,0,0.5-0.1,0.7
			c0,0.2-0.1,0.4-0.2,0.5c-0.1,0.2-0.2,0.3-0.4,0.5c-0.1,0.1-0.3,0.3-0.5,0.4c-0.2,0.2-0.5,0.3-0.7,0.4c-0.3,0.1-0.6,0.2-0.9,0.2
			v0.6v0.1c0.2,0,0.4,0,0.5,0c0.1,0,0.2,0,0.4,0c0.1,0,0.3,0,0.4,0c0.2,0,0.4,0,0.8,0c0.2,0,0.5,0,0.7,0c0.2,0,0.4,0.1,0.6,0.2
			c0.2,0.1,0.3,0.2,0.4,0.4c0.1,0.2,0.1,0.3,0.1,0.5c0,0.2,0,0.3-0.1,0.4c-0.1,0.1-0.1,0.2-0.2,0.3c-0.2,0.2-0.4,0.3-0.6,0.3
			c-0.3,0-0.5,0-0.7,0H385c0,0-0.1,0-0.1,0c-0.1,0-0.2,0-0.3,0c-0.1,0-0.2-0.1-0.4-0.1c-0.1-0.1-0.2-0.1-0.3-0.3
			c-0.1-0.1-0.1-0.2-0.2-0.2c0-0.1-0.1-0.2-0.1-0.3c0-0.1,0-0.3,0.1-0.3c0-0.1,0.1-0.2,0.2-0.3c0.1-0.2,0.3-0.3,0.5-0.4
			C384.7,18.8,384.9,18.8,385,18.8z M396.2,26c0.2,0,0.4,0.1,0.5,0.2c0.1,0.1,0.3,0.2,0.3,0.4c0.1,0.5,0,0.8-0.5,1
			c-0.1,0.1-0.3,0.1-0.4,0.1c-0.1,0-0.3,0-0.4,0H387c-0.2,0-0.5,0-0.8,0c-0.3,0-0.5,0-0.8,0c-0.3,0-0.5-0.1-0.6-0.3
			c-0.2-0.2-0.3-0.4-0.3-0.7l-0.1-1.3c0-0.1,0-0.3,0-0.5c0-0.2,0.1-0.3,0.2-0.5c0.2-0.2,0.4-0.3,0.7-0.4c0.3,0,0.6-0.1,0.8-0.1
			c0.2,0,0.5,0,0.9,0c0.4,0,0.9,0,1.6,0c0.7,0,1.5,0,2.6,0c1,0,2.2,0,3.6,0v-0.7h-9.1c-0.1,0-0.2,0-0.3,0c-0.1,0-0.2,0-0.3,0
			c-0.1,0-0.2-0.1-0.3-0.1c-0.1,0-0.2-0.1-0.2-0.2c-0.2-0.3-0.2-0.5-0.1-0.8c0-0.1,0.1-0.2,0.2-0.2c0.1-0.1,0.2-0.1,0.3-0.1
			c0.1,0,0.2-0.1,0.3-0.1c0.1,0,0.2,0,0.2,0c0.2,0,0.4-0.1,0.6-0.1c0.2,0,0.4,0,0.6,0c0.2,0,0.5,0,0.8,0c0.3,0,0.7,0,1.1,0
			c0.4,0,0.9,0,1.5,0c0.6,0,1.3,0,2.1,0c0.8,0,1.8,0,2.9,0c0.6,0,1.1,0.1,1.4,0.3c0.3,0.2,0.5,0.5,0.5,1v1.3c0,0.2,0,0.3-0.1,0.5
			c-0.1,0.2-0.2,0.3-0.4,0.4c-0.2,0.1-0.3,0.2-0.5,0.2c-0.2,0-0.3,0-0.5,0h-8.8V26H396.2z M388.2,16.3c0.2,0,0.4,0,0.6,0
			c0.2,0,0.4,0,0.5-0.1c0.2-0.1,0.3-0.1,0.4-0.3c0.1-0.1,0.2-0.3,0.2-0.5c0-0.4-0.1-0.6-0.2-0.7c-0.2-0.1-0.4-0.2-0.6-0.2h-1.5
			c-0.2,0-0.4,0.1-0.6,0.3c-0.1,0.1-0.2,0.4-0.2,0.7c0,0.2,0.1,0.4,0.1,0.5c0.1,0.1,0.2,0.2,0.3,0.3c0.1,0.1,0.3,0.1,0.5,0.1
			C387.8,16.3,388,16.3,388.2,16.3z M394.4,14.6c0-0.1,0-0.3,0-0.5c0-0.2,0-0.3,0-0.5c0-0.2,0.1-0.3,0.1-0.5c0-0.2,0.1-0.3,0.2-0.3
			c0.1-0.1,0.3-0.2,0.4-0.2c0.1,0,0.3,0,0.5,0c0.2,0,0.4,0.1,0.6,0.2c0.2,0.1,0.3,0.3,0.4,0.5c0.1,0.3,0.2,0.5,0.2,0.8
			c0,0.3,0,0.6,0,0.8c0,0.3,0,0.6,0,0.8c0,0.3,0,0.5,0,0.7c0.3,0,0.5,0,0.8,0c0.2,0,0.4,0,0.6,0c0.2,0,0.3,0.1,0.4,0.2
			c0.1,0.1,0.2,0.2,0.3,0.4c0.1,0.2,0.1,0.3,0.1,0.5c0,0.2,0,0.3-0.1,0.5c-0.2,0.3-0.5,0.4-0.8,0.5c-0.4,0.1-0.8,0.1-1.2,0.1v0.8
			c0,0.3,0,0.5-0.1,0.6c0,0.1-0.1,0.3-0.1,0.4c0,0,0,0.1,0,0.1c0,0,0,0.1-0.1,0.1c-0.1,0.2-0.2,0.3-0.3,0.4
			c-0.1,0.1-0.3,0.1-0.4,0.2c-0.2,0-0.3,0-0.5,0c-0.2-0.1-0.3-0.1-0.4-0.2c-0.1-0.1-0.2-0.2-0.2-0.4c-0.1-0.2-0.1-0.3-0.1-0.5
			c0-0.1,0-0.3,0-0.4c0-0.1,0-0.2,0-0.2V14.6z"/>
		<path d="M411.3,19.7c0.2,0,0.4,0,0.6,0.1c0.2,0.1,0.4,0.1,0.6,0.3c0.2,0.1,0.3,0.3,0.3,0.6c0,0.1,0,0.3-0.1,0.4
			c0,0.1-0.1,0.2-0.2,0.3c-0.1,0.1-0.2,0.2-0.4,0.2c-0.2,0-0.3,0.1-0.5,0.1c-0.1,0-0.3,0-0.4,0c-0.1,0-0.2,0-0.2,0l-9.9,0
			c-0.3,0-0.6,0-0.9,0c-0.3,0-0.6-0.1-0.8-0.3c-0.3-0.2-0.4-0.4-0.4-0.7c0-0.2,0.1-0.4,0.2-0.5c0.1-0.2,0.3-0.3,0.5-0.4
			c0.3-0.1,0.5-0.1,0.8-0.1c0.3,0,0.5,0,0.8,0c0.3,0,0.6,0,0.8,0c0.2,0,0.4,0,0.6,0c0.2,0,0.4,0,0.6,0c0.2,0,0.5,0,0.8,0v-1.1
			c-0.5,0-1,0-1.5,0c-0.5,0-0.8,0-1.1,0c-0.1,0-0.3,0-0.5,0c-0.2,0-0.4,0-0.6-0.1c-0.2-0.1-0.3-0.1-0.5-0.2
			c-0.1-0.1-0.2-0.2-0.3-0.4c0-0.1-0.1-0.2-0.1-0.3c0-0.1,0-0.1-0.1-0.2c0-0.1,0-0.1,0-0.2c0-0.1,0-0.2,0-0.3v-2c0,0,0,0,0-0.1
			c0-0.1,0-0.2,0-0.4c0-0.1,0-0.3,0.1-0.5c0-0.2,0.1-0.3,0.2-0.4c0.1-0.1,0.2-0.2,0.4-0.3c0.2-0.1,0.3-0.1,0.5-0.2
			c0.2,0,0.3-0.1,0.5-0.1c0.1,0,0.2,0,0.3,0h8.1c0.3,0,0.5,0,0.8,0c0.3,0,0.5,0.1,0.8,0.2c0.2,0.1,0.4,0.2,0.4,0.4
			c0.1,0.2,0.1,0.4,0.1,0.6c0,0.2-0.1,0.4-0.2,0.5c-0.1,0.2-0.3,0.3-0.5,0.3c-0.2,0.1-0.5,0.1-1,0.1h-0.4c-0.1,0-0.1,0-0.2,0h-6.5
			c-0.1,0-0.2,0-0.3,0c-0.1,0-0.2,0-0.3,0.1c0,0-0.1,0.1-0.1,0.2c0,0.1,0,0.3,0,0.4c0,0.2,0,0.3,0,0.5c0,0.1,0,0.2,0,0.3
			c0,0.1,0.2,0.1,0.3,0.1c0.2,0,0.3,0,0.4,0c0.1,0,0.3,0,0.6,0s0.6,0,1,0s0.9,0,1.6,0c0.6,0,1.4,0,2.3,0h1.4c0.3,0,0.6,0,0.8,0
			c0.3,0,0.5,0.1,0.7,0.2c0.2,0.1,0.4,0.3,0.5,0.6c0.1,0.3,0,0.6-0.2,0.8c-0.2,0.3-0.4,0.4-0.6,0.4c-0.2,0-0.5,0-0.7,0
			c-0.1,0-0.3,0-0.5,0c-0.3,0-0.6,0-0.9,0c-0.3,0-0.7,0-1,0c-0.4,0-0.7,0-1,0c0,0.2,0,0.4,0,0.6c0,0.2,0,0.4,0,0.5
			c0.3,0,0.7,0,1.1,0c0.4,0,0.8,0,1.2,0c0.4,0,0.8,0,1.1,0S411,19.7,411.3,19.7z M399.8,25.2c0-0.5,0.2-1,0.5-1.3
			c0.3-0.3,0.8-0.6,1.3-0.8c0.5-0.2,1.2-0.3,1.9-0.4c0.7-0.1,1.5-0.1,2.4-0.1c0.8,0,1.6,0,2.4,0.1c0.7,0.1,1.4,0.2,1.9,0.3
			c0.5,0.2,1,0.4,1.3,0.8c0.3,0.4,0.5,0.8,0.5,1.4c0,0.6-0.2,1.1-0.5,1.4c-0.3,0.3-0.8,0.6-1.3,0.8c-0.5,0.2-1.2,0.3-1.9,0.4
			c-0.7,0.1-1.5,0.1-2.4,0.1c-0.8,0-1.6,0-2.4-0.1c-0.7-0.1-1.4-0.2-1.9-0.4c-0.5-0.2-1-0.4-1.3-0.8
			C399.9,26.3,399.8,25.8,399.8,25.2z M409.4,25.2c0-0.2-0.1-0.4-0.3-0.5c-0.2-0.1-0.5-0.2-0.9-0.2c-0.4,0-0.7-0.1-1.2-0.1
			c-0.4,0-0.9,0-1.3,0c-0.4,0-0.8,0-1.3,0c-0.4,0-0.8,0-1.1,0.1c-0.3,0.1-0.6,0.1-0.8,0.2c-0.2,0.1-0.3,0.3-0.3,0.5
			c0,0.2,0.1,0.3,0.3,0.4c0.2,0.1,0.5,0.2,0.8,0.2c0.3,0.1,0.7,0.1,1.1,0.1c0.4,0,0.8,0,1.3,0c0.4,0,0.8,0,1.3,0c0.4,0,0.8,0,1.2,0
			c0.4,0,0.6-0.1,0.9-0.2C409.3,25.6,409.4,25.4,409.4,25.2z"/>
	</g>
	<path style="fill:#81B441;" d="M418.9,34h-49.1c-7.9,0-14.3-6.4-14.3-14.3c0-7.9,6.4-14.3,14.3-14.3h21l5-4.7
		c0.4-0.4,1.1-0.4,1.6,0l5,4.7h22.4c0.6,0,1.1,0.5,1.1,1.1s-0.5,1.1-1.1,1.1h-22.9c-0.3,0-0.6-0.1-0.8-0.3l-4.5-4.3L392,7.4
		c-0.2,0.2-0.5,0.3-0.8,0.3h-21.4c-6.6,0-12,5.4-12,12c0,6.6,5.4,12,12,12h49.1c5.4,0,9.4-2,11.9-6.1c0.3-0.5,1-0.7,1.6-0.4
		c0.5,0.3,0.7,1,0.4,1.6C429.8,31.6,425.1,34,418.9,34z"/>
	<g>
		<defs>
			<path id="SVGID_9_" d="M425.3,5.5c-3.1,0-5.7,2.5-5.7,5.7c0,2.1,1.1,3.9,2.8,4.9c-1.4,0.6-4.8,2.6-5.4,7.4v2.5
				c0.2,0.6,1.1,1.9,5.5,2.4h5.6c5.6-0.6,5.5-2.6,5.5-2.6c0.5-6.5-3.8-8.9-5.4-9.6c1.7-1,2.8-2.8,2.8-4.9
				C431,8.1,428.5,5.5,425.3,5.5C425.3,5.5,425.3,5.5,425.3,5.5"/>
		</defs>
		<clipPath id="SVGID_10_">
			<use xlink:href="#SVGID_9_"  style="overflow:visible;"/>
		</clipPath>
		<rect x="417" y="5.3" style="clip-path:url(#SVGID_10_);fill:#81B441;" width="16.8" height="23"/>
	</g>
	<path style="fill:#81B441;" d="M436.1,24.2c2-0.2,3.2-0.6,3.7-1c0.6-0.4,0.7-0.7,0.7-0.8c0,0,0,0,0,0c0,0,0,0,0,0
		c0-0.3,0-0.6,0-0.9c0-4.6-3.1-6.2-4.3-6.8l-0.8-0.4l0.8-0.5c1.3-0.8,2.1-2.1,2.1-3.7v0c0-2.4-1.9-4.3-4.3-4.3c-0.7,0-1.4,0.2-2,0.5
		l-0.4-0.8c0.7-0.4,1.5-0.6,2.4-0.6c0,0,0,0,0,0c2.9,0,5.2,2.4,5.2,5.3v0c0,1.6-0.7,3.1-1.9,4c1.6,0.9,4.2,2.9,4.1,7.3
		c0,0.3,0,0.6,0,0.9c0,0.2-0.1,0.8-0.8,1.4c-0.7,0.6-2,1.1-4.5,1.3L436.1,24.2z M436.2,25.1L436.2,25.1z"/>
	<path style="fill:#81B441;" d="M436.2,25.7c-0.1,0-0.3,0-0.3-0.1c-0.1-0.1-0.2-0.2-0.2-0.4l-0.1-0.9c0-0.1,0-0.3,0.1-0.4
		c0.1-0.1,0.2-0.2,0.4-0.2c2.1-0.2,3.1-0.6,3.5-0.9c0.2-0.1,0.4-0.3,0.4-0.4c0,0,0,0,0,0c0-0.3,0-0.6,0-0.8c0-4.4-3-5.8-4-6.3
		l-0.8-0.4c-0.2-0.1-0.3-0.3-0.3-0.5c0-0.2,0.1-0.4,0.3-0.5l0.8-0.5c1.2-0.7,1.8-1.9,1.9-3.2c0-2.1-1.7-3.8-3.8-3.8
		c-0.6,0-1.2,0.1-1.7,0.4c-0.1,0.1-0.3,0.1-0.4,0c-0.1,0-0.3-0.1-0.3-0.3l-0.4-0.8c-0.1-0.1-0.1-0.3,0-0.4c0-0.1,0.1-0.3,0.3-0.3
		c0.8-0.4,1.7-0.7,2.7-0.7c0,0,0,0,0,0c0,0,0,0,0,0l0,0c3.2,0,5.8,2.6,5.8,5.8c0,1.5-0.6,2.9-1.6,4c1.6,1.1,3.8,3.3,3.8,7.4
		c0,0.3,0,0.6,0,1c0,0.2-0.1,1-1,1.8C440.1,25,438.5,25.4,436.2,25.7C436.3,25.7,436.3,25.7,436.2,25.7
		C436.2,25.7,436.2,25.7,436.2,25.7z M436.7,14.3c0.1,0,0.2,0.1,0.2,0.1c0,0,0-0.1,0-0.1c0,0,0-0.1,0-0.1
		C436.8,14.2,436.7,14.2,436.7,14.3z"/>
	<path style="fill:#81B441;" d="M427,4.7c-0.3,0-0.6-0.1-0.7-0.4l-2.2-2.9c-0.3-0.4-0.2-1,0.2-1.3c0.4-0.3,1-0.2,1.3,0.2l2.2,2.9
		c0.3,0.4,0.2,1-0.2,1.3C427.4,4.7,427.2,4.7,427,4.7z"/>
	<path style="fill:#81B441;" d="M429.6,4.7c-0.2,0-0.4-0.1-0.5-0.2c-0.4-0.3-0.5-0.9-0.2-1.3l2.2-2.9c0.3-0.4,0.9-0.5,1.3-0.2
		c0.4,0.3,0.5,0.9,0.2,1.3l-2.2,2.9C430.2,4.6,429.9,4.7,429.6,4.7z"/>
</g>
<g>
	<g>
		<path style="fill:#9C3815;" d="M462.9,15.1c-0.2,0-0.4,0-0.4,0c-0.1,0-0.2,0-0.4,0c0,0.1,0,0.3,0,0.5c0,0.2,0,0.4,0,0.6
			c0,0.2,0,0.4,0,0.6c0,0.2,0,0.3,0,0.5c0.3,0.3,0.6,0.6,0.9,1c0.3,0.4,0.6,0.7,0.9,1c0.1,0.2,0.3,0.4,0.4,0.7
			c0.1,0.3,0.1,0.6,0,0.8c-0.1,0.2-0.2,0.4-0.4,0.4c-0.2,0.1-0.4,0.1-0.6,0c-0.3-0.1-0.5-0.3-0.7-0.5c-0.2-0.2-0.4-0.4-0.6-0.7
			l-0.9-0.9l-1.4,1.7c-0.2,0.2-0.4,0.4-0.5,0.5c-0.2,0.1-0.3,0.2-0.5,0.2c-0.2,0-0.4,0-0.5-0.1c-0.1-0.1-0.2-0.2-0.2-0.3
			c0-0.1-0.1-0.3,0-0.5c0-0.2,0.1-0.3,0.1-0.5c0-0.1,0.1-0.1,0.1-0.2c0-0.1,0.1-0.1,0.1-0.2c-0.1-0.1-0.2-0.2-0.2-0.3
			c-0.1-0.1-0.2-0.2-0.3-0.3l-1.6,1.8c-0.2,0.2-0.4,0.4-0.5,0.4c-0.1,0.1-0.3,0.1-0.5,0.1c-0.2,0-0.4-0.1-0.5-0.2
			c-0.1-0.1-0.2-0.3-0.2-0.4c0-0.2,0-0.3,0-0.5c0-0.2,0.1-0.4,0.2-0.5c0.3-0.5,0.6-0.9,0.9-1.3c0.3-0.4,0.7-0.9,1.1-1.3v-2.1H456
			c-0.1,0-0.3,0-0.4,0c-0.2,0-0.3,0-0.5,0c-0.2,0-0.3-0.1-0.4-0.2c-0.1-0.1-0.2-0.2-0.3-0.4c-0.1-0.1-0.1-0.3-0.1-0.5
			c0-0.2,0.1-0.3,0.1-0.5c0.1-0.1,0.2-0.2,0.3-0.3c0.2-0.1,0.3-0.1,0.4-0.1c0.1,0,0.2,0,0.3,0c0.1,0,0.3,0,0.5,0c0.2,0,0.6,0,0.9,0
			c0.4,0,0.9,0,1.5,0c0.1,0,0.2,0,0.3,0c0.1,0,0.2,0,0.3,0h0.4h0.2h3.1c0.2,0,0.4,0,0.5,0c0.1,0,0.3,0,0.4,0.1
			c0.1,0,0.2,0.1,0.3,0.2c0.1,0.1,0.2,0.2,0.2,0.3c0,0.1,0.1,0.2,0.1,0.3c0,0.1,0,0.2,0,0.4c0,0.1-0.1,0.3-0.1,0.4
			c0,0.1-0.1,0.2-0.2,0.2c-0.1,0-0.2,0.1-0.3,0.1c-0.1,0-0.2,0.1-0.3,0.1c-0.1,0-0.2,0-0.3,0C463.1,15.1,463,15.1,462.9,15.1z
			 M466,22.7c0.5,0,0.9,0.1,1.1,0.3c0.2,0.2,0.4,0.5,0.4,0.8v1.1c0,0,0,0.1,0,0.2c0,0.1,0,0.3,0,0.4s0,0.3,0,0.4c0,0.1,0,0.2,0,0.2
			c0,0.1,0,0.3,0,0.4c0,0.1,0,0.3,0,0.4c0,0.3-0.1,0.5-0.3,0.6c-0.2,0.2-0.4,0.2-0.7,0.2c-0.1,0-0.2,0-0.3,0c-0.2,0-0.3,0-0.3,0
			c-0.2-0.1-0.3-0.1-0.4-0.2c-0.1-0.1-0.2-0.2-0.2-0.3c0-0.1-0.1-0.3-0.1-0.4c0-0.1,0-0.3,0-0.4c0-0.1,0-0.1,0-0.3
			c0-0.1,0-0.3,0-0.5c0-0.2,0-0.3,0-0.4c0-0.1,0-0.2,0-0.3c0,0-0.1,0-0.3,0c-0.2,0-0.5,0-0.9,0c-0.4,0-0.6,0-0.7,0
			c-0.1,0-0.1,0-0.2,0h-6.7c0,0-0.1,0-0.1,0c-0.1,0-0.2-0.1-0.3-0.1c-0.1-0.1-0.2-0.1-0.3-0.2c-0.1-0.1-0.1-0.2-0.1-0.3
			c-0.1-0.5,0-0.9,0.2-1.1c0.1-0.2,0.3-0.3,0.5-0.3c0.2,0,0.3-0.1,0.3-0.1H466z M459.6,15.1c-0.1,0-0.2,0-0.2,0c-0.1,0-0.1,0-0.2,0
			h-0.4c0,0.4,0,0.7,0,1.1c0,0.4,0,0.7,0.1,1.1l0.6,0.6c0.3-0.4,0.5-0.6,0.6-0.7v-2.1c0,0,0,0-0.1,0c0,0,0,0-0.1,0H459.6z
			 M467.5,18.5v2.1c0,0.1,0,0.3-0.1,0.4c0,0.1-0.1,0.3-0.1,0.4c-0.1,0.2-0.2,0.3-0.3,0.4c-0.2,0.1-0.4,0.2-0.6,0.2
			c-0.2,0-0.4,0-0.5-0.1c-0.1-0.1-0.2-0.2-0.3-0.3c-0.1-0.1-0.1-0.2-0.2-0.3c0-0.1-0.1-0.2-0.1-0.4v-7c0-0.1,0-0.2,0-0.4
			c0-0.2,0.1-0.4,0.1-0.6c0.1-0.3,0.4-0.4,0.7-0.5c0.5-0.1,0.8,0,1,0.3c0.1,0.1,0.1,0.2,0.2,0.3c0,0.1,0.1,0.2,0.1,0.3
			c0,0.1,0.1,0.3,0.1,0.4c0,0.1,0,0.3,0,0.4v1.3v0.4c0,0.1,0,0.2,0,0.3c0,0.1,0,0.2,0,0.3c0,0,0.1,0,0.3,0c0.1,0,0.3,0,0.4,0
			c0.1,0,0.3,0,0.4,0c0.1,0,0.2,0,0.3,0c0.2,0.1,0.4,0.1,0.5,0.2c0.1,0.1,0.2,0.2,0.2,0.3c0,0.1,0.1,0.3,0.1,0.5
			c0,0.2,0,0.3-0.1,0.5c-0.1,0.3-0.4,0.4-0.7,0.4s-0.6,0.1-1,0.1H467.5z"/>
	</g>
	<g>
		<path d="M473.9,18.8c0.2,0,0.5,0,0.8,0c0.3,0,0.6,0,1,0c0-0.1,0-0.3,0-0.4c0-0.1,0-0.2,0-0.4c0,0,0,0-0.1,0
			c-0.3-0.1-0.6-0.3-0.9-0.4c-0.3-0.1-0.5-0.3-0.7-0.5c-0.2-0.2-0.4-0.4-0.5-0.7c-0.1-0.3-0.2-0.6-0.2-1c0-0.4,0-0.7,0.1-1
			c-0.3,0-0.5-0.1-0.8-0.3c-0.2-0.2-0.3-0.4-0.3-0.7c0-0.3,0.1-0.5,0.3-0.7c0.2-0.2,0.5-0.3,0.8-0.3h2.4v-0.6c0-0.2,0.1-0.4,0.3-0.6
			c0.2-0.2,0.5-0.3,0.8-0.3s0.6,0.1,0.8,0.3c0.2,0.2,0.3,0.4,0.3,0.6v0.6h2.6c0.3,0,0.6,0.1,0.8,0.3c0.2,0.2,0.3,0.4,0.3,0.7
			c0,0.3-0.1,0.5-0.3,0.7c-0.2,0.2-0.5,0.3-0.8,0.3c0,0.1,0.1,0.3,0.1,0.5c0,0.2,0,0.3,0,0.5c0,0.3,0,0.5-0.1,0.7
			c0,0.2-0.1,0.4-0.2,0.5c-0.1,0.2-0.2,0.3-0.4,0.5c-0.1,0.1-0.3,0.3-0.5,0.4c-0.2,0.2-0.5,0.3-0.7,0.4c-0.3,0.1-0.6,0.2-0.9,0.2
			v0.6v0.1c0.2,0,0.4,0,0.5,0c0.1,0,0.2,0,0.4,0c0.1,0,0.3,0,0.4,0c0.2,0,0.4,0,0.8,0c0.2,0,0.5,0,0.7,0c0.2,0,0.4,0.1,0.6,0.2
			c0.2,0.1,0.3,0.2,0.4,0.4c0.1,0.2,0.1,0.3,0.1,0.5c0,0.2,0,0.3-0.1,0.4c-0.1,0.1-0.1,0.2-0.2,0.3c-0.2,0.2-0.4,0.3-0.6,0.3
			c-0.3,0-0.5,0-0.7,0h-6.5c0,0-0.1,0-0.1,0c-0.1,0-0.2,0-0.3,0c-0.1,0-0.2-0.1-0.4-0.1c-0.1-0.1-0.2-0.1-0.3-0.3
			c-0.1-0.1-0.1-0.2-0.2-0.2c0-0.1-0.1-0.2-0.1-0.3c0-0.1,0-0.3,0.1-0.3c0-0.1,0.1-0.2,0.2-0.3c0.1-0.2,0.3-0.3,0.5-0.4
			C473.5,18.8,473.7,18.8,473.9,18.8z M485,26c0.2,0,0.4,0.1,0.5,0.2c0.1,0.1,0.3,0.2,0.3,0.4c0.1,0.5,0,0.8-0.5,1
			c-0.1,0.1-0.3,0.1-0.4,0.1c-0.1,0-0.3,0-0.4,0h-8.6c-0.2,0-0.5,0-0.8,0c-0.3,0-0.5,0-0.8,0c-0.3,0-0.5-0.1-0.6-0.3
			c-0.2-0.2-0.3-0.4-0.3-0.7l-0.1-1.3c0-0.1,0-0.3,0-0.5c0-0.2,0.1-0.3,0.2-0.5c0.2-0.2,0.4-0.3,0.7-0.4c0.3,0,0.6-0.1,0.8-0.1
			c0.2,0,0.5,0,0.9,0c0.4,0,0.9,0,1.6,0c0.7,0,1.5,0,2.6,0c1,0,2.2,0,3.6,0v-0.7h-9.1c-0.1,0-0.2,0-0.3,0c-0.1,0-0.2,0-0.3,0
			c-0.1,0-0.2-0.1-0.3-0.1c-0.1,0-0.2-0.1-0.2-0.2c-0.2-0.3-0.2-0.5-0.1-0.8c0-0.1,0.1-0.2,0.2-0.2c0.1-0.1,0.2-0.1,0.3-0.1
			c0.1,0,0.2-0.1,0.3-0.1c0.1,0,0.2,0,0.2,0c0.2,0,0.4-0.1,0.6-0.1c0.2,0,0.4,0,0.6,0c0.2,0,0.5,0,0.8,0c0.3,0,0.7,0,1.1,0
			c0.4,0,0.9,0,1.5,0c0.6,0,1.3,0,2.1,0c0.8,0,1.8,0,2.9,0c0.6,0,1.1,0.1,1.4,0.3c0.3,0.2,0.5,0.5,0.5,1v1.3c0,0.2,0,0.3-0.1,0.5
			c-0.1,0.2-0.2,0.3-0.4,0.4c-0.2,0.1-0.3,0.2-0.5,0.2c-0.2,0-0.3,0-0.5,0h-8.8V26H485z M477,16.3c0.2,0,0.4,0,0.6,0
			c0.2,0,0.4,0,0.5-0.1c0.2-0.1,0.3-0.1,0.4-0.3c0.1-0.1,0.2-0.3,0.2-0.5c0-0.4-0.1-0.6-0.2-0.7c-0.2-0.1-0.4-0.2-0.6-0.2h-1.5
			c-0.2,0-0.4,0.1-0.6,0.3c-0.1,0.1-0.2,0.4-0.2,0.7c0,0.2,0.1,0.4,0.1,0.5c0.1,0.1,0.2,0.2,0.3,0.3c0.1,0.1,0.3,0.1,0.5,0.1
			C476.6,16.3,476.8,16.3,477,16.3z M483.3,14.6c0-0.1,0-0.3,0-0.5c0-0.2,0-0.3,0-0.5c0-0.2,0.1-0.3,0.1-0.5c0-0.2,0.1-0.3,0.2-0.3
			c0.1-0.1,0.3-0.2,0.4-0.2c0.1,0,0.3,0,0.5,0c0.2,0,0.4,0.1,0.6,0.2c0.2,0.1,0.3,0.3,0.4,0.5c0.1,0.3,0.2,0.5,0.2,0.8
			c0,0.3,0,0.6,0,0.8c0,0.3,0,0.6,0,0.8c0,0.3,0,0.5,0,0.7c0.3,0,0.5,0,0.8,0c0.2,0,0.4,0,0.6,0c0.2,0,0.3,0.1,0.4,0.2
			c0.1,0.1,0.2,0.2,0.3,0.4c0.1,0.2,0.1,0.3,0.1,0.5c0,0.2,0,0.3-0.1,0.5c-0.2,0.3-0.5,0.4-0.8,0.5c-0.4,0.1-0.8,0.1-1.2,0.1v0.8
			c0,0.3,0,0.5-0.1,0.6c0,0.1-0.1,0.3-0.1,0.4c0,0,0,0.1,0,0.1c0,0,0,0.1-0.1,0.1c-0.1,0.2-0.2,0.3-0.3,0.4
			c-0.1,0.1-0.3,0.1-0.4,0.2c-0.2,0-0.3,0-0.5,0c-0.2-0.1-0.3-0.1-0.4-0.2c-0.1-0.1-0.2-0.2-0.2-0.4c-0.1-0.2-0.1-0.3-0.1-0.5
			c0-0.1,0-0.3,0-0.4c0-0.1,0-0.2,0-0.2V14.6z"/>
		<path d="M500.1,19.7c0.2,0,0.4,0,0.6,0.1c0.2,0.1,0.4,0.1,0.6,0.3c0.2,0.1,0.3,0.3,0.3,0.6c0,0.1,0,0.3-0.1,0.4
			c0,0.1-0.1,0.2-0.2,0.3c-0.1,0.1-0.2,0.2-0.4,0.2c-0.2,0-0.3,0.1-0.5,0.1c-0.1,0-0.3,0-0.4,0c-0.1,0-0.2,0-0.2,0l-9.9,0
			c-0.3,0-0.6,0-0.9,0c-0.3,0-0.6-0.1-0.8-0.3c-0.3-0.2-0.4-0.4-0.4-0.7c0-0.2,0.1-0.4,0.2-0.5c0.1-0.2,0.3-0.3,0.5-0.4
			c0.3-0.1,0.5-0.1,0.8-0.1c0.3,0,0.5,0,0.8,0c0.3,0,0.6,0,0.8,0c0.2,0,0.4,0,0.6,0c0.2,0,0.4,0,0.6,0c0.2,0,0.5,0,0.8,0v-1.1
			c-0.5,0-1,0-1.5,0c-0.5,0-0.8,0-1.1,0c-0.1,0-0.3,0-0.5,0c-0.2,0-0.4,0-0.6-0.1c-0.2-0.1-0.3-0.1-0.5-0.2
			c-0.1-0.1-0.2-0.2-0.3-0.4c0-0.1-0.1-0.2-0.1-0.3c0-0.1,0-0.1-0.1-0.2c0-0.1,0-0.1,0-0.2c0-0.1,0-0.2,0-0.3v-2c0,0,0,0,0-0.1
			c0-0.1,0-0.2,0-0.4c0-0.1,0-0.3,0.1-0.5c0-0.2,0.1-0.3,0.2-0.4c0.1-0.1,0.2-0.2,0.4-0.3c0.2-0.1,0.3-0.1,0.5-0.2
			c0.2,0,0.3-0.1,0.5-0.1c0.1,0,0.2,0,0.3,0h8.1c0.3,0,0.5,0,0.8,0c0.3,0,0.5,0.1,0.8,0.2c0.2,0.1,0.4,0.2,0.4,0.4
			c0.1,0.2,0.1,0.4,0.1,0.6c0,0.2-0.1,0.4-0.2,0.5c-0.1,0.2-0.3,0.3-0.5,0.3c-0.2,0.1-0.5,0.1-1,0.1h-0.4c-0.1,0-0.1,0-0.2,0h-6.5
			c-0.1,0-0.2,0-0.3,0c-0.1,0-0.2,0-0.3,0.1c0,0-0.1,0.1-0.1,0.2c0,0.1,0,0.3,0,0.4c0,0.2,0,0.3,0,0.5c0,0.1,0,0.2,0,0.3
			c0,0.1,0.2,0.1,0.3,0.1c0.2,0,0.3,0,0.4,0c0.1,0,0.3,0,0.6,0s0.6,0,1,0s0.9,0,1.6,0c0.6,0,1.4,0,2.3,0h1.4c0.3,0,0.6,0,0.8,0
			c0.3,0,0.5,0.1,0.7,0.2c0.2,0.1,0.4,0.3,0.5,0.6c0.1,0.3,0,0.6-0.2,0.8c-0.2,0.3-0.4,0.4-0.6,0.4c-0.2,0-0.5,0-0.7,0
			c-0.1,0-0.3,0-0.5,0c-0.3,0-0.6,0-0.9,0c-0.3,0-0.7,0-1,0c-0.4,0-0.7,0-1,0c0,0.2,0,0.4,0,0.6c0,0.2,0,0.4,0,0.5
			c0.3,0,0.7,0,1.1,0c0.4,0,0.8,0,1.2,0c0.4,0,0.8,0,1.1,0S499.8,19.7,500.1,19.7z M488.6,25.2c0-0.5,0.2-1,0.5-1.3
			c0.3-0.3,0.8-0.6,1.3-0.8c0.5-0.2,1.2-0.3,1.9-0.4c0.7-0.1,1.5-0.1,2.4-0.1c0.8,0,1.6,0,2.4,0.1c0.7,0.1,1.4,0.2,1.9,0.3
			c0.5,0.2,1,0.4,1.3,0.8c0.3,0.4,0.5,0.8,0.5,1.4c0,0.6-0.2,1.1-0.5,1.4c-0.3,0.3-0.8,0.6-1.3,0.8c-0.5,0.2-1.2,0.3-1.9,0.4
			c-0.7,0.1-1.5,0.1-2.4,0.1c-0.8,0-1.6,0-2.4-0.1c-0.7-0.1-1.4-0.2-1.9-0.4c-0.5-0.2-1-0.4-1.3-0.8
			C488.8,26.3,488.6,25.8,488.6,25.2z M498.3,25.2c0-0.2-0.1-0.4-0.3-0.5c-0.2-0.1-0.5-0.2-0.9-0.2c-0.4,0-0.7-0.1-1.2-0.1
			c-0.4,0-0.9,0-1.3,0c-0.4,0-0.8,0-1.3,0c-0.4,0-0.8,0-1.1,0.1c-0.3,0.1-0.6,0.1-0.8,0.2c-0.2,0.1-0.3,0.3-0.3,0.5
			c0,0.2,0.1,0.3,0.3,0.4c0.2,0.1,0.5,0.2,0.8,0.2c0.3,0.1,0.7,0.1,1.1,0.1c0.4,0,0.8,0,1.3,0c0.4,0,0.8,0,1.3,0c0.4,0,0.8,0,1.2,0
			c0.4,0,0.6-0.1,0.9-0.2C498.2,25.6,498.3,25.4,498.3,25.2z"/>
	</g>
	<path style="fill:#E9895C;" d="M507.7,34h-49.1c-7.9,0-14.3-6.4-14.3-14.3c0-7.9,6.4-14.3,14.3-14.3h21l5-4.7
		c0.4-0.4,1.1-0.4,1.6,0l5,4.7h22.4c0.6,0,1.1,0.5,1.1,1.1s-0.5,1.1-1.1,1.1h-22.9c-0.3,0-0.6-0.1-0.8-0.3l-4.5-4.3l-4.5,4.3
		c-0.2,0.2-0.5,0.3-0.8,0.3h-21.4c-6.6,0-12,5.4-12,12c0,6.6,5.4,12,12,12h49.1c5.4,0,9.4-2,11.9-6.1c0.3-0.5,1-0.7,1.6-0.4
		c0.5,0.3,0.7,1,0.4,1.6C518.6,31.6,513.9,34,507.7,34z"/>
	<g>
		<defs>
			<path id="SVGID_11_" d="M514.1,5.5c-3.1,0-5.7,2.5-5.7,5.7c0,2.1,1.1,3.9,2.8,4.9c-1.4,0.6-4.8,2.6-5.4,7.4v2.5
				c0.2,0.6,1.1,1.9,5.5,2.4h5.6c5.6-0.6,5.5-2.6,5.5-2.6c0.5-6.5-3.8-8.9-5.4-9.6c1.7-1,2.8-2.8,2.8-4.9
				C519.8,8.1,517.3,5.5,514.1,5.5C514.2,5.5,514.2,5.5,514.1,5.5"/>
		</defs>
		<clipPath id="SVGID_12_">
			<use xlink:href="#SVGID_11_"  style="overflow:visible;"/>
		</clipPath>
		<rect x="505.9" y="5.3" style="clip-path:url(#SVGID_12_);fill:#E9895C;" width="16.8" height="23"/>
	</g>
	<path style="fill:#E9895C;" d="M525,24.2c2-0.2,3.2-0.6,3.8-1c0.6-0.4,0.7-0.7,0.7-0.8c0,0,0,0,0,0c0,0,0,0,0,0c0-0.3,0-0.6,0-0.9
		c0-4.6-3.1-6.2-4.3-6.8l-0.8-0.4l0.8-0.5c1.3-0.8,2.1-2.1,2.1-3.7v0c0-2.4-1.9-4.3-4.3-4.3c-0.7,0-1.4,0.2-2,0.5l-0.4-0.8
		c0.7-0.4,1.5-0.6,2.4-0.6c0,0,0,0,0,0c2.9,0,5.2,2.4,5.2,5.3v0c0,1.6-0.7,3.1-1.9,4c1.6,0.9,4.2,2.9,4.1,7.3c0,0.3,0,0.6,0,0.9
		c0,0.2-0.1,0.8-0.8,1.4c-0.7,0.6-2,1.1-4.5,1.3L525,24.2z M525.1,25.1L525.1,25.1z"/>
	<path style="fill:#E9895C;" d="M525.1,25.7c-0.1,0-0.3,0-0.3-0.1c-0.1-0.1-0.2-0.2-0.2-0.4l-0.1-0.9c0-0.1,0-0.3,0.1-0.4
		c0.1-0.1,0.2-0.2,0.4-0.2c2.1-0.2,3.1-0.6,3.5-0.9c0.2-0.1,0.4-0.3,0.4-0.4c0,0,0,0,0,0c0-0.3,0-0.6,0-0.8c0-4.4-3-5.8-4-6.3
		l-0.8-0.4c-0.2-0.1-0.3-0.3-0.3-0.5c0-0.2,0.1-0.4,0.3-0.5l0.8-0.5c1.2-0.7,1.8-1.9,1.9-3.2c0-2.1-1.7-3.8-3.8-3.8
		c-0.6,0-1.2,0.1-1.7,0.4c-0.1,0.1-0.3,0.1-0.4,0c-0.1,0-0.3-0.1-0.3-0.3L520,5.8c-0.1-0.1-0.1-0.3,0-0.4c0-0.1,0.1-0.3,0.3-0.3
		c0.8-0.4,1.7-0.7,2.7-0.7c0,0,0,0,0,0c0,0,0,0,0,0l0,0c3.2,0,5.8,2.6,5.8,5.8c0,1.5-0.6,2.9-1.6,4c1.6,1.1,3.8,3.3,3.8,7.4
		c0,0.3,0,0.6,0,1c0,0.2-0.1,1-1,1.8C528.9,25,527.4,25.4,525.1,25.7C525.1,25.7,525.1,25.7,525.1,25.7
		C525.1,25.7,525.1,25.7,525.1,25.7z M525.5,14.3c0.1,0,0.2,0.1,0.2,0.1c0,0,0-0.1,0-0.1c0,0,0-0.1,0-0.1
		C525.6,14.2,525.6,14.2,525.5,14.3z"/>
	<path style="fill:#E9895C;" d="M515.8,4.7c-0.3,0-0.6-0.1-0.7-0.4l-2.2-2.9c-0.3-0.4-0.2-1,0.2-1.3c0.4-0.3,1-0.2,1.3,0.2l2.2,2.9
		c0.3,0.4,0.2,1-0.2,1.3C516.2,4.7,516,4.7,515.8,4.7z"/>
	<path style="fill:#E9895C;" d="M518.5,4.7c-0.2,0-0.4-0.1-0.5-0.2c-0.4-0.3-0.5-0.9-0.2-1.3l2.2-2.9c0.3-0.4,0.9-0.5,1.3-0.2
		c0.4,0.3,0.5,0.9,0.2,1.3l-2.2,2.9C519,4.6,518.8,4.7,518.5,4.7z"/>
</g>
</svg>
