<?xml version="1.0" encoding="utf-8"?>
<!-- Generator: Adobe Illustrator 23.1.0, SVG Export Plug-In . SVG Version: 6.00 Build 0)  -->
<svg version="1.1" id="레이어_1" xmlns="http://www.w3.org/2000/svg" xmlns:xlink="http://www.w3.org/1999/xlink" x="0px"
	 y="0px" width="480px" height="60px" viewBox="0 0 480 60" style="enable-background:new 0 0 480 60;" xml:space="preserve">
<g>
	<g>
		<g>
			<path style="fill:#B979B0;" d="M43.5,53.5c-6,0-11.8-0.5-16.9-1.4c4.1,4.3,9.8,6.9,16.2,6.9c6.2,0,11.8-2.5,15.9-6.6
				C53.9,53.1,48.8,53.5,43.5,53.5 M77.3,41c0-2.8-4.8-5.4-12.4-7.1c-1.3-11.1-10.7-19.6-22.2-19.6c-11.4,0-20.8,8.5-22.2,19.6
				C12.8,35.6,7.9,38.2,7.9,41c0,0.6,0.2,1.2,0.6,1.7c0.8,1.1,2.2,2.1,4.2,3l0,0c0.1,0.1,0.2,0.1,0.4,0.2l0,0
				c0.1,0.1,0.2,0.1,0.4,0.2l0,0c13.8,5.6,45.6,5.6,58.9-0.4l0,0c0.1-0.1,0.2-0.1,0.4-0.2l0,0c1.7-0.8,2.9-1.6,3.6-2.5
				C77,42.4,77.3,41.7,77.3,41"/>
		</g>
		<g>
			<path style="fill:#231815;" d="M17.8,15.3c0.2-0.1,0.3-0.1,0.5-0.1s0.3,0.1,0.5,0.3c0.1,0.1,0.3,0.4,0.3,0.6
				c0,0.1-0.1,0.3-0.1,0.4c-0.1,0.2-0.3,0.4-0.4,0.5c-0.1,0-0.2,0-0.2,0l-6.1,5.1c-0.2,0.1-0.3,0.3-0.5,0.5c-0.3,0.3-0.9,0.3-1.2,0
				c-0.2-0.2-0.4-0.7-0.2-1c0.1-0.2,0.3-0.4,0.4-0.5c0.3-0.3,2.1-1.8,2.3-1.9l-0.5-0.6c-0.4,0.3-0.9,0.6-1.2,0.8
				c-1.5,0.9-2.8,0.5-3-1.4c-0.2,0.1-0.7,0.6-0.9,0.6c-0.2,0-0.5,0-0.6-0.2c-0.2-0.2-0.4-0.6-0.3-0.8c0.1-0.2,0.3-0.5,0.6-0.7l2.4-2
				l-0.3-0.4c-0.3-0.3-0.3-0.7-0.1-1c0.1-0.2,0.3-0.3,0.4-0.4c0.1-0.1,0.3-0.2,0.4-0.2c0.1,0,0.3,0,0.4,0c0.1,0.1,0.3,0.1,0.4,0.3
				l0.3,0.4l2-1.7c0.1-0.1,0.3-0.3,0.4-0.4c0.1-0.1,0.3-0.3,0.5-0.4c0.2-0.1,0.3-0.1,0.5-0.1s0.3,0.1,0.5,0.2
				c0.2,0.2,0.3,0.6,0.2,0.8c-0.1,0.3-0.3,0.4-0.6,0.7c0.5-0.1,1,0.2,1.2,0.5c0.3,0.3,0.4,0.6,0.4,1c0,0.3-0.1,0.6-0.2,1
				c-0.1,0.4-0.3,0.6-0.6,1s-0.7,0.7-1.1,1.1c0.1,0.1,0.4,0.5,0.5,0.6c0.2-0.2,2.5-2.1,2.7-2.2C17.5,15.5,17.7,15.4,17.8,15.3z
				 M13.8,14.2c-0.2,0-0.4,0.1-0.6,0.2c-0.2,0.1-0.4,0.3-0.7,0.5c-0.5,0.4-1,0.8-1.5,1.2c-0.2,0.2-0.4,0.4-0.6,0.6
				c-0.2,0.2-0.3,0.5-0.3,0.7c0,0.3,0.2,0.4,0.4,0.5s0.5-0.1,0.7-0.2s0.4-0.3,0.6-0.5c0.2-0.2,0.5-0.4,0.7-0.6
				c0.3-0.2,0.5-0.5,0.8-0.7s0.4-0.4,0.6-0.6c0.2-0.2,0.4-0.4,0.4-0.7c0-0.1,0-0.2-0.1-0.3C14.2,14.3,13.9,14.1,13.8,14.2z
				 M20.3,18.3c0.1,0,0.2,0,0.3,0c0.1,0,0.2,0.1,0.3,0.1c0.3,0.3,0.5,0.6,0.5,0.8c0,0.2,0,0.3-0.1,0.4s-0.1,0.2-0.1,0.2L14.9,25
				c-0.3,0.2-0.6,0.4-0.8,0.4s-0.5,0-0.6-0.2l-0.9-1.1c-0.2-0.2-0.1-0.1-0.2-0.3c-0.1-0.2-0.2-0.4-0.2-0.6s0.1-0.4,0.3-0.5
				c0,0,0.1-0.1,0.2-0.2c0.1-0.1,0.2-0.2,0.2-0.2c0.1-0.1,0.3-0.1,0.4-0.1c0.1,0,0.2,0.1,0.3,0.1s0.5,0.6,0.6,0.7
				c0,0,0.1-0.1,0.2-0.2c0.1-0.1,5.4-4.6,5.4-4.6C19.9,18.5,20,18.3,20.3,18.3z"/>
		</g>
		<g>
			<path style="fill:#231815;" d="M20.9,6.7c0.4-0.2,0.7-0.3,1-0.4c0.3,0,0.6,0,0.9,0.1s0.5,0.4,0.5,0.6c0,0.3-0.1,0.6-0.4,0.8
				c-0.2,0.1-0.4,0.3-0.7,0.5c-0.2,0.1-0.6,0.4-1.1,0.6c0,0.2,1.6,2.9,1.6,2.9c0,0.1,0.1,0.2,0.2,0.3s0.1,0.2,0.2,0.2
				s3.1,1.2,3.4,1.5c0.3,0.2,0.6,0.4,0.8,0.6c0.1,0.1,0.2,0.2,0.3,0.4c0,0.2,0,0.3,0,0.5c-0.1,0.2-0.2,0.3-0.4,0.5
				c-0.6,0.4-1.3,0.1-1.8-0.2c-0.2-0.1-0.7-0.3-1-0.4c-0.2-0.1-0.3-0.2-0.5-0.2c-0.2-0.1-0.5-0.2-0.8-0.3c-0.2,1.2-0.2,2.1-0.5,3.4
				c-0.1,0.3-0.2,0.6-0.5,0.8c-0.1,0-0.2,0-0.3,0.1c-0.2,0-0.4,0-0.6-0.1s-0.3-0.3-0.4-0.5s-0.1-0.4-0.1-0.5c0-0.2,0-0.4,0-0.5
				c0-0.2,0-0.4,0.1-0.6c0-0.1,0-0.2,0.1-0.3c0-0.1,0-0.2,0-0.3c0-0.2,0-0.4,0.1-0.6c0-0.2,0.1-0.5,0.1-0.8c0-0.2,0.1-0.5,0.1-0.7
				s0.1-0.5,0.1-0.6l-2-3.5l-0.9,0.5c-0.4,0.2-0.6,0.3-0.7,0.4C17.5,11,17.5,11,17.4,11c-0.4,0.1-0.7,0.1-1-0.2
				c-0.3-0.2-0.4-0.5-0.3-0.8s0.2-0.6,0.4-0.8c0-0.1,0.1-0.1,0.1-0.1C16.7,9,16.7,9,16.8,9c0.1,0,0.1,0,0.2,0L20.9,6.7z M27.6,7.5
				C28,7.3,28.3,7,28.7,7.3c0.3,0.2,0.5,0.6,0.5,0.9c-0.1,0.5-0.3,0.6-0.8,0.9c-0.2,0.1-0.3,0.2-0.5,0.3l0,0c0,0,0.3,0.6,0.4,0.8
				s0.5,0.8,0.6,1c0.4,0.6,0.7,1.3,1.1,1.9c0.1,0.1,0.1,0.3,0.2,0.4c0,0.1,0.1,0.3,0.1,0.4c0,0.1,0,0.3,0,0.4
				c-0.1,0.4-0.6,0.7-1.1,0.6c-0.3-0.1-0.6-0.5-0.8-0.8c-0.1-0.2-0.2-0.3-0.3-0.4L23.7,6c-0.1-0.1-0.1-0.3-0.2-0.4
				c-0.1-0.3-0.2-0.5-0.1-0.7c0-0.1,0.1-0.2,0.2-0.3c0.2-0.2,0.5-0.4,0.9-0.3c0.2,0,0.4,0.1,0.5,0.3C25.4,5,25.7,5.5,26,6
				s0.6,1.1,0.9,1.6L27,7.7l0,0.2L27.6,7.5z"/>
		</g>
		<g>
			<path style="fill:#231815;" d="M31,5.2c-0.1-0.2-0.1-0.4-0.2-0.7c-0.1-0.5,0-0.8,0.5-1c0,0,0.3-0.1,0.4-0.1
				c0.4,0,0.6,0.5,0.7,0.8s0.2,0.6,0.3,1C32.9,5.6,33,6,33.1,6.5c0.1,0.3,0.2,0.6,0.3,0.9c0.1,0.4,0.5,0.7,0.8,0.9
				c0.3,0.3,0.9,0.8,1.2,1.1c0.2,0.2,0.4,0.3,0.5,0.5c0.2,0.2,0.4,0.5,0.4,0.8c0,0.2-0.2,0.4-0.4,0.5s-0.4,0.1-0.6,0
				C35,11,34.4,10.6,34,10.4c-0.1-0.1-0.8-0.6-0.9-0.6c0,0,0,0.1-0.1,0.1c-0.3,0.7-0.5,1.4-0.9,2.1c-0.1,0.2-0.2,0.3-0.4,0.4
				c-0.1,0-0.1,0.1-0.2,0.1c-0.2,0.1-0.4,0-0.5-0.1c-0.2-0.1-0.3-0.2-0.4-0.4c0-0.1,0-0.3,0-0.4c0.1-0.8,0.4-1.6,0.7-2.4
				c0.1-0.2,0.1-0.4,0.2-0.6c0-0.1,0.1-0.2,0.1-0.3s0.1-0.2,0.1-0.2c0-0.1,0-0.2,0-0.2c0-0.1-0.1-0.3-0.1-0.4L31,5.2z M34.5,6
				c0.1-0.1,0.1-0.2,0.3-0.3c0.2-0.1,0.9-0.3,1.4-0.4l-0.4-1.2c-0.1-0.2-0.1-0.3-0.2-0.5l-0.2-0.5c0-0.1-0.1-0.3-0.1-0.4
				c0-0.1,0-0.2,0-0.4c0-0.1,0-0.2,0.1-0.3c0.2-0.3,0.6-0.5,1-0.3C36.8,2,36.9,2.6,37,3l2.2,7.2c0,0.1,0,0.1,0,0.2
				c0,0.1,0,0.2,0,0.3s0,0.2-0.1,0.3c-0.2,0.3-0.7,0.5-0.9,0.3c-0.4-0.2-0.5-0.6-0.6-0.9L37.2,9c0-0.1-0.1-0.3-0.2-0.5L36.6,7
				c-0.1,0-0.7,0.2-0.8,0.2s-0.2,0.1-0.3,0.1s-0.2,0-0.4,0c-0.1,0-0.2-0.1-0.4-0.1C34.6,7,34.5,7,34.5,6.9c-0.1-0.1-0.1-0.3-0.1-0.4
				s0-0.2,0.1-0.2C34.4,6.1,34.5,6.1,34.5,6z"/>
		</g>
		<g>
			<path style="fill:#231815;" d="M42.9,8.4l-0.1-1.6c-0.4,0-0.8,0-1.2,0s-0.8,0-1.2-0.1c-0.3-0.1-0.5-0.3-0.7-0.6
				C39.6,5.8,39.6,5,39.6,5l-0.1-2.2c0-0.1-0.1-0.8,0.2-1.2c0.2-0.3,0.7-0.4,1.2-0.4L46,1c0,0,1.1-0.1,1.2,0.4
				c0.1,0.2,0.1,0.6,0,0.8c-0.1,0.1-0.2,0.2-0.3,0.2s-0.4,0.1-0.7,0.1l-4.5,0.1C41,2.6,41,3.2,41,3.4l0.1,1.1c0,0.2,0,0.4,0.2,0.5
				c0.2,0.2,0.4,0.1,0.7,0.1L46.2,5c0.4,0,0.7,0,1,0.2c0.2,0.1,0.3,0.3,0.3,0.5c0.1,0.2,0,0.4-0.1,0.5c-0.2,0.3-0.5,0.4-0.9,0.5
				c-0.7,0-1.4,0.1-2.2,0.1l0.1,1.6l3.1-0.1c0.3,0,0.5,0.1,0.7,0.3c0.1,0.1,0.2,0.3,0.2,0.4c0,0.2,0,0.4-0.1,0.5
				c-0.3,0.3-0.9,0.3-0.9,0.3c-7,0.2-7.1,0.2-7.1,0.2c-0.3,0-0.8,0.1-1.1-0.2C39.1,9.6,39,9.5,39,9.3s0.1-0.6,0.4-0.7
				c0.3-0.1,0.7-0.1,1-0.1L42.9,8.4z"/>
		</g>
		<g>
			<path style="fill:#FFF697;" d="M1.8,26.6c0,0,5.4,3.3,8.3,0.7c0,0-2.9,4.5-0.4,7.3c0,0-4.5-2.9-6.9-0.6
				C2.8,33.9,6.3,30.1,1.8,26.6"/>
		</g>
		<g>
			<path style="fill:#231815;" d="M9.7,35.1c-0.1,0-0.2,0-0.3-0.1c0,0-4.2-2.6-6.2-0.7c-0.2,0.2-0.5,0.2-0.8,0
				c-0.2-0.2-0.2-0.5,0-0.8c0,0,1.3-1.4,1.2-3.2C3.5,29.1,2.8,28,1.5,27c-0.2-0.2-0.3-0.5-0.1-0.7s0.5-0.3,0.7-0.1
				c0.1,0,5.1,3.1,7.6,0.7c0.2-0.2,0.5-0.2,0.7,0s0.3,0.5,0.1,0.7c0,0-2.6,4.2-0.5,6.6c0.2,0.2,0.2,0.5,0,0.7
				C10,35,9.8,35.1,9.7,35.1z M5.2,32.5c1.1,0,2.3,0.4,3.2,0.7c-0.5-1.6,0-3.4,0.5-4.7c-1.6,0.5-3.4,0.1-4.8-0.4
				c0.4,0.7,0.6,1.3,0.6,2.1c0.1,0.9-0.1,1.7-0.4,2.3C4.5,32.5,4.9,32.5,5.2,32.5z"/>
		</g>
	</g>
	<g>
		<path style="fill:#B979B0;" d="M59.5,10.6c-0.1,0.2-0.2,0.5-0.5,0.5c-0.2,0-0.4,0-0.6-0.1c-0.4-0.2-0.6-0.6-0.8-0.9
			c-0.2-0.5-0.3-0.9-0.4-1.4c0-0.4-0.2-0.8-0.2-1.1l-2.4,0.9c-0.5,0.2-0.9,0.1-1.3-0.1c-0.1,0-0.1-0.1-0.2-0.1
			C53,8,52.9,7.9,52.9,7.7c0-0.3,0.2-0.6,0.5-0.7c0.3-0.2,0.5-0.3,0.8-0.4c0.8-0.3,1.6-0.7,2.5-1l0.4-0.8c-0.2-0.1-0.4-0.2-0.7-0.4
			c-0.4-0.2-1.3-0.5-1.2-1.2c0-0.3,0.2-0.6,0.3-0.8c0.2-0.3,0.6-0.2,0.8-0.1c0.1,0,0.2,0.1,0.3,0.1s0.1,0.1,0.2,0.1L58,3.1
			c0.3-0.5,0.6-0.8,1.2-0.8c0.8,0.2,1,1,0.8,1.7v0.1l0.9,0.5c0.6,0.4,1,0.6,1.1,1.1c0.1,0.3-0.4,1-0.7,1c-0.2,0-0.5,0-0.6-0.1
			c-0.2-0.1-0.4-0.2-0.6-0.3c-0.4-0.2-0.5-0.3-0.8-0.4c-0.3,0.5-0.1,0.2-0.4,0.8C59,6.8,59,7.2,59.1,7.5c-0.1,0.2,0,0.5,0.1,0.8
			c0.1,0.2,0.1,0.4,0.1,0.5C59.4,9.4,59.6,10.1,59.5,10.6z M62.3,15.6l-1.1,2c-0.3,0.6-0.8,1.3-1.5,0.9c-0.1-0.1-0.5-0.3-0.6-0.4
			c-0.4-0.4-0.3-1-0.1-1.5c0.1-0.2,0.7-1.3,0.7-1.5c-0.1,0-0.2-0.2-1-0.6c-0.6-0.3-0.6-0.3-6-3.2l0,0c0,0-0.5-0.5-0.4-0.9
			c0.2-0.4,0.4-0.6,0.7-0.8c0.4-0.2,0.8,0,0.8,0l7.7,4C62.6,14.4,62.5,15.1,62.3,15.6z M62,9.9c-0.6-0.3-1.1-0.6-1.1-1.1
			c0-0.3,0.2-0.6,0.3-0.8c0.2-0.2,0.4-0.3,0.8-0.2c0.2,0.1,1.3,0.6,1.5,0.7l0.8-1.4c0.1-0.2,0.2-0.5,0.4-0.6
			c0.1-0.1,0.2-0.3,0.4-0.3c0.3-0.1,0.7,0,1,0.2s0.4,0.5,0.4,0.7c0,0.3-0.2,0.8-0.3,0.8L63.5,13c0,0-0.4,0.5-0.9,0.6
			c-0.2,0-0.4,0-0.5-0.1c-0.2-0.1-0.4-0.3-0.5-0.5c-0.1-0.1-0.1-0.3-0.1-0.4c0-0.3,0.1-0.5,0.2-0.8l0.8-1.5L62,9.9z"/>
	</g>
	<g>
		<path style="fill:#B979B0;" d="M70.9,19.4c-0.1,0.2-0.3,0.4-0.6,0.4c-0.2,0-0.4-0.1-0.5-0.3c-0.3-0.3-0.4-0.8-0.5-1.1
			c0-0.5,0-1,0-1.4s0-0.8,0-1.2l-2.5,0.1c-0.5,0-0.9-0.2-1.2-0.5c-0.1-0.1-0.1-0.1-0.2-0.2c-0.1-0.2-0.1-0.4-0.1-0.5
			c0.1-0.3,0.4-0.5,0.6-0.6c0.3-0.1,0.6-0.1,0.9-0.1c0.9-0.1,1.8-0.2,2.7-0.2l0.7-0.7c-0.1-0.1-0.3-0.3-0.6-0.6
			c-0.4-0.3-1.1-0.8-0.8-1.5c0.1-0.3,0.3-0.5,0.6-0.7c0.3-0.2,0.6,0,0.8,0.1c0.1,0,0.2,0.1,0.2,0.2c0,0,0.1,0.1,0.1,0.2l1,1
			c0.4-0.4,0.9-0.6,1.3-0.4c0.7,0.3,0.7,1.2,0.3,1.7c0,0.1-0.1,0.1-0.1,0.2l0.7,0.7c0.6,0.6,0.8,0.9,0.8,1.4c0,0.3-0.6,0.8-0.9,0.7
			c-0.2-0.1-0.4-0.2-0.5-0.3c-0.2-0.2-0.3-0.3-0.5-0.5c-0.3-0.3-0.4-0.4-0.6-0.6c-0.4,0.4-0.1,0.1-0.7,0.7c0,0.1-0.1,0.5-0.1,0.8
			s0,0.6,0,0.9c0,0.2,0,0.4,0,0.6C71.2,18.3,71.1,19,70.9,19.4z M72.1,25l-1.6,1.6c-0.5,0.5-1.1,1.1-1.7,0.5
			c-0.1-0.1-0.4-0.4-0.4-0.5c-0.3-0.6,0-1,0.3-1.4c0.1-0.2,1-1.1,1.1-1.2c0-0.1-0.2-0.3-0.8-0.8c-0.5-0.5-0.4-0.5-4.8-4.8l0,0
			c0,0-0.4-0.6-0.1-1c0.3-0.3,0.5-0.5,0.9-0.5s0.7,0.3,0.7,0.3l6.2,6.1C72.8,24,72.4,24.6,72.1,25z M73.5,19.5
			c-0.4-0.5-0.9-0.8-0.8-1.4c0.1-0.3,0.4-0.5,0.6-0.7c0.2-0.1,0.5-0.1,0.8,0.1c0.2,0.1,1.1,1,1.2,1.1l1.2-1.2
			c0.2-0.2,0.3-0.4,0.6-0.5c0.2-0.1,0.3-0.2,0.5-0.2c0.3,0,0.7,0.2,0.9,0.5c0.2,0.3,0.3,0.6,0.2,0.8c-0.1,0.3-0.4,0.7-0.5,0.7
			l-4,4.1c0,0-0.5,0.4-1,0.3c-0.2,0-0.3-0.1-0.4-0.3c-0.1-0.1-0.3-0.4-0.3-0.6c0-0.1,0-0.3,0-0.4c0.1-0.3,0.2-0.5,0.4-0.7L74,20
			L73.5,19.5z"/>
	</g>
</g>
<g>
	<g>
		<g>
			<path style="fill:#61BCA9;" d="M123.5,53.5c-6,0-11.8-0.5-16.9-1.4c4.1,4.3,9.8,6.9,16.2,6.9c6.2,0,11.8-2.5,15.9-6.6
				C133.9,53.1,128.8,53.5,123.5,53.5 M157.3,41c0-2.8-4.8-5.4-12.4-7.1c-1.3-11.1-10.7-19.6-22.2-19.6c-11.4,0-20.8,8.5-22.2,19.6
				c-7.7,1.7-12.6,4.3-12.6,7.1c0,0.6,0.2,1.2,0.6,1.7c0.8,1.1,2.2,2.1,4.2,3l0,0c0.1,0.1,0.2,0.1,0.4,0.2l0,0
				c0.1,0.1,0.2,0.1,0.4,0.2l0,0c13.8,5.6,45.6,5.6,58.9-0.4l0,0c0.1-0.1,0.2-0.1,0.4-0.2l0,0c1.7-0.8,2.9-1.6,3.6-2.5
				C157,42.4,157.3,41.7,157.3,41"/>
		</g>
		<g>
			<path style="fill:#231815;" d="M97.8,15.3c0.2-0.1,0.3-0.1,0.5-0.1c0.2,0,0.3,0.1,0.5,0.3c0.1,0.1,0.3,0.4,0.3,0.6
				c0,0.1-0.1,0.3-0.1,0.4c-0.1,0.2-0.3,0.4-0.4,0.5c-0.1,0-0.2,0-0.2,0l-6.1,5.1c-0.2,0.1-0.3,0.3-0.5,0.5c-0.3,0.3-0.9,0.3-1.2,0
				c-0.2-0.2-0.4-0.7-0.2-1c0.1-0.2,0.3-0.4,0.4-0.5c0.3-0.3,2.1-1.8,2.3-1.9l-0.5-0.6c-0.4,0.3-0.9,0.6-1.2,0.8
				c-1.5,0.9-2.8,0.5-3-1.4c-0.2,0.1-0.7,0.6-0.9,0.6s-0.5,0-0.6-0.2c-0.2-0.2-0.4-0.6-0.3-0.8c0.1-0.2,0.3-0.5,0.6-0.7l2.4-2
				l-0.3-0.4c-0.3-0.3-0.3-0.7-0.1-1c0.1-0.2,0.3-0.3,0.4-0.4c0.1-0.1,0.3-0.2,0.4-0.2s0.3,0,0.4,0c0.1,0.1,0.3,0.1,0.4,0.3l0.3,0.4
				l2-1.7c0.1-0.1,0.3-0.3,0.4-0.4c0.1-0.1,0.3-0.3,0.5-0.4c0.2-0.1,0.3-0.1,0.5-0.1c0.2,0,0.3,0.1,0.5,0.2c0.2,0.2,0.3,0.6,0.2,0.8
				c-0.1,0.3-0.3,0.4-0.6,0.7c0.5-0.1,1,0.2,1.2,0.5c0.3,0.3,0.4,0.6,0.4,1c0,0.3-0.1,0.6-0.2,1c-0.1,0.4-0.3,0.6-0.6,1
				c-0.3,0.4-0.7,0.7-1.1,1.1c0.1,0.1,0.4,0.5,0.5,0.6c0.2-0.2,2.5-2.1,2.7-2.2C97.5,15.5,97.7,15.4,97.8,15.3z M93.8,14.2
				c-0.2,0-0.4,0.1-0.6,0.2c-0.2,0.1-0.4,0.3-0.7,0.5c-0.5,0.4-1,0.8-1.5,1.2c-0.2,0.2-0.4,0.4-0.6,0.6c-0.2,0.2-0.3,0.5-0.3,0.7
				c0,0.3,0.2,0.4,0.4,0.5s0.5-0.1,0.7-0.2c0.2-0.1,0.4-0.3,0.6-0.5c0.2-0.2,0.5-0.4,0.7-0.6c0.3-0.2,0.5-0.5,0.8-0.7
				c0.3-0.2,0.4-0.4,0.6-0.6c0.2-0.2,0.4-0.4,0.4-0.7c0-0.1,0-0.2-0.1-0.3C94.2,14.3,93.9,14.1,93.8,14.2z M100.3,18.3
				c0.1,0,0.2,0,0.3,0s0.2,0.1,0.3,0.1c0.3,0.3,0.5,0.6,0.5,0.8c0,0.2,0,0.3-0.1,0.4s-0.1,0.2-0.1,0.2L94.9,25
				c-0.3,0.2-0.6,0.4-0.8,0.4c-0.2,0-0.5,0-0.6-0.2l-0.9-1.1c-0.2-0.2-0.1-0.1-0.2-0.3c-0.1-0.2-0.2-0.4-0.2-0.6s0.1-0.4,0.3-0.5
				c0,0,0.1-0.1,0.2-0.2s0.2-0.2,0.2-0.2c0.1-0.1,0.3-0.1,0.4-0.1s0.2,0.1,0.3,0.1s0.5,0.6,0.6,0.7c0,0,0.1-0.1,0.2-0.2
				c0.1-0.1,5.4-4.6,5.4-4.6C99.9,18.5,100,18.3,100.3,18.3z"/>
		</g>
		<g>
			<path style="fill:#231815;" d="M100.9,6.7c0.4-0.2,0.7-0.3,1-0.4c0.3,0,0.6,0,0.9,0.1c0.3,0.1,0.5,0.4,0.5,0.6
				c0,0.3-0.1,0.6-0.4,0.8c-0.2,0.1-0.4,0.3-0.7,0.5c-0.2,0.1-0.6,0.4-1.1,0.6c0,0.2,1.6,2.9,1.6,2.9c0,0.1,0.1,0.2,0.2,0.3
				s0.1,0.2,0.2,0.2s3.1,1.2,3.4,1.5c0.3,0.2,0.6,0.4,0.8,0.6c0.1,0.1,0.2,0.2,0.3,0.4c0,0.2,0,0.3,0,0.5c-0.1,0.2-0.2,0.3-0.4,0.5
				c-0.6,0.4-1.3,0.1-1.8-0.2c-0.2-0.1-0.7-0.3-1-0.4c-0.2-0.1-0.3-0.2-0.5-0.2c-0.2-0.1-0.5-0.2-0.8-0.3c-0.2,1.2-0.2,2.1-0.5,3.4
				c-0.1,0.3-0.2,0.6-0.5,0.8c-0.1,0-0.2,0-0.3,0.1c-0.2,0-0.4,0-0.6-0.1c-0.2-0.1-0.3-0.3-0.4-0.5c-0.1-0.2-0.1-0.4-0.1-0.5
				c0-0.2,0-0.4,0-0.5c0-0.2,0-0.4,0.1-0.6c0-0.1,0-0.2,0.1-0.3c0-0.1,0-0.2,0-0.3c0-0.2,0-0.4,0.1-0.6c0-0.2,0.1-0.5,0.1-0.8
				c0-0.2,0.1-0.5,0.1-0.7s0.1-0.5,0.1-0.6l-2-3.5l-0.9,0.5c-0.4,0.2-0.6,0.3-0.7,0.4C97.5,11,97.5,11,97.4,11
				c-0.4,0.1-0.7,0.1-1-0.2c-0.3-0.2-0.4-0.5-0.3-0.8s0.2-0.6,0.4-0.8c0-0.1,0.1-0.1,0.1-0.1C96.7,9,96.7,9,96.8,9
				c0.1,0,0.1,0,0.2,0L100.9,6.7z M107.6,7.5c0.4-0.2,0.7-0.5,1.1-0.2c0.3,0.2,0.5,0.6,0.5,0.9c-0.1,0.5-0.3,0.6-0.8,0.9
				c-0.2,0.1-0.3,0.2-0.5,0.3l0,0c0,0,0.3,0.6,0.4,0.8c0.1,0.2,0.5,0.8,0.6,1c0.4,0.6,0.7,1.3,1.1,1.9c0.1,0.1,0.1,0.3,0.2,0.4
				c0,0.1,0.1,0.3,0.1,0.4c0,0.1,0,0.3,0,0.4c-0.1,0.4-0.6,0.7-1.1,0.6c-0.3-0.1-0.6-0.5-0.8-0.8c-0.1-0.2-0.2-0.3-0.3-0.4L103.7,6
				c-0.1-0.1-0.1-0.3-0.2-0.4c-0.1-0.3-0.2-0.5-0.1-0.7c0-0.1,0.1-0.2,0.2-0.3c0.2-0.2,0.5-0.4,0.9-0.3c0.2,0,0.4,0.1,0.5,0.3
				c0.4,0.4,0.7,0.9,1,1.4c0.3,0.5,0.6,1.1,0.9,1.6l0.1,0.1v0.2L107.6,7.5z"/>
		</g>
		<g>
			<path style="fill:#231815;" d="M111,5.2c-0.1-0.2-0.1-0.4-0.2-0.7c-0.1-0.5,0-0.8,0.5-1c0,0,0.3-0.1,0.4-0.1
				c0.4,0,0.6,0.5,0.7,0.8c0.1,0.3,0.2,0.6,0.3,1c0.2,0.4,0.3,0.8,0.4,1.3c0.1,0.3,0.2,0.6,0.3,0.9c0.1,0.4,0.5,0.7,0.8,0.9
				c0.3,0.3,0.9,0.8,1.2,1.1c0.2,0.2,0.4,0.3,0.5,0.5c0.2,0.2,0.4,0.5,0.4,0.8c0,0.2-0.2,0.4-0.4,0.5c-0.2,0.1-0.4,0.1-0.6,0
				c-0.3-0.2-0.9-0.6-1.3-0.8c-0.1-0.1-0.8-0.6-0.9-0.6c0,0,0,0.1-0.1,0.1c-0.3,0.7-0.5,1.4-0.9,2.1c-0.1,0.2-0.2,0.3-0.4,0.4
				c-0.1,0-0.1,0.1-0.2,0.1c-0.2,0.1-0.4,0-0.5-0.1c-0.2-0.1-0.3-0.2-0.4-0.4c0-0.1,0-0.3,0-0.4c0.1-0.8,0.4-1.6,0.7-2.4
				c0.1-0.2,0.1-0.4,0.2-0.6c0-0.1,0.1-0.2,0.1-0.3s0.1-0.2,0.1-0.2c0-0.1,0-0.2,0-0.2c0-0.1-0.1-0.3-0.1-0.4L111,5.2z M114.5,6
				c0.1-0.1,0.1-0.2,0.3-0.3c0.2-0.1,0.9-0.3,1.4-0.4l-0.4-1.2c-0.1-0.2-0.1-0.3-0.2-0.5l-0.2-0.5c0-0.1-0.1-0.3-0.1-0.4
				c0-0.1,0-0.2,0-0.4c0-0.1,0-0.2,0.1-0.3c0.2-0.3,0.6-0.5,1-0.3c0.4,0.3,0.5,0.9,0.6,1.3l2.2,7.2c0,0.1,0,0.1,0,0.2
				c0,0.1,0,0.2,0,0.3s0,0.2-0.1,0.3c-0.2,0.3-0.7,0.5-0.9,0.3c-0.4-0.2-0.5-0.6-0.6-0.9L117.2,9c0-0.1-0.1-0.3-0.2-0.5L116.6,7
				c-0.1,0-0.7,0.2-0.8,0.2c-0.1,0-0.2,0.1-0.3,0.1s-0.2,0-0.4,0c-0.1,0-0.2-0.1-0.4-0.1c-0.1-0.2-0.2-0.2-0.2-0.3
				c-0.1-0.1-0.1-0.3-0.1-0.4s0-0.2,0.1-0.2C114.4,6.1,114.5,6.1,114.5,6z"/>
		</g>
		<g>
			<path style="fill:#231815;" d="M122.9,8.4l-0.1-1.6c-0.4,0-0.8,0-1.2,0c-0.4,0-0.8,0-1.2-0.1c-0.3-0.1-0.5-0.3-0.7-0.6
				c-0.1-0.3-0.1-1.1-0.1-1.1l-0.1-2.2c0-0.1-0.1-0.8,0.2-1.2c0.2-0.3,0.7-0.4,1.2-0.4L126,1c0,0,1.1-0.1,1.2,0.4
				c0.1,0.2,0.1,0.6,0,0.8c-0.1,0.1-0.2,0.2-0.3,0.2s-0.4,0.1-0.7,0.1l-4.5,0.1c-0.7,0-0.7,0.6-0.7,0.8l0.1,1.1c0,0.2,0,0.4,0.2,0.5
				c0.2,0.2,0.4,0.1,0.7,0.1l4.2-0.1c0.4,0,0.7,0,1,0.2c0.2,0.1,0.3,0.3,0.3,0.5c0.1,0.2,0,0.4-0.1,0.5c-0.2,0.3-0.5,0.4-0.9,0.5
				c-0.7,0-1.4,0.1-2.2,0.1l0.1,1.6l3.1-0.1c0.3,0,0.5,0.1,0.7,0.3c0.1,0.1,0.2,0.3,0.2,0.4c0,0.2,0,0.4-0.1,0.5
				c-0.3,0.3-0.9,0.3-0.9,0.3c-7,0.2-7.1,0.2-7.1,0.2c-0.3,0-0.8,0.1-1.1-0.2c-0.1-0.2-0.2-0.3-0.2-0.5s0.1-0.6,0.4-0.7
				c0.3-0.1,0.7-0.1,1-0.1L122.9,8.4z"/>
		</g>
		<g>
			<path style="fill:#FFF697;" d="M81.8,26.6c0,0,5.4,3.3,8.3,0.7c0,0-2.9,4.5-0.4,7.3c0,0-4.5-2.9-6.9-0.6
				C82.8,33.9,86.3,30.1,81.8,26.6"/>
		</g>
		<g>
			<path style="fill:#231815;" d="M89.7,35.1c-0.1,0-0.2,0-0.3-0.1c0,0-4.2-2.6-6.2-0.7c-0.2,0.2-0.5,0.2-0.8,0
				c-0.2-0.2-0.2-0.5,0-0.8c0,0,1.3-1.4,1.2-3.2c-0.1-1.2-0.8-2.3-2.1-3.3c-0.2-0.2-0.3-0.5-0.1-0.7c0.2-0.2,0.5-0.3,0.7-0.1
				c0.1,0,5.1,3.1,7.6,0.7c0.2-0.2,0.5-0.2,0.7,0c0.2,0.2,0.3,0.5,0.1,0.7c0,0-2.6,4.2-0.5,6.6c0.2,0.2,0.2,0.5,0,0.7
				C90,35,89.8,35.1,89.7,35.1z M85.2,32.5c1.1,0,2.3,0.4,3.2,0.7c-0.5-1.6,0-3.4,0.5-4.7c-1.6,0.5-3.4,0.1-4.8-0.4
				c0.4,0.7,0.6,1.3,0.6,2.1c0.1,0.9-0.1,1.7-0.4,2.3C84.5,32.5,84.9,32.5,85.2,32.5z"/>
		</g>
	</g>
	<g>
		<path style="fill:#61BCA9;" d="M139.5,10.6c-0.1,0.2-0.2,0.5-0.5,0.5c-0.2,0-0.4,0-0.6-0.1c-0.4-0.2-0.6-0.6-0.8-0.9
			c-0.2-0.5-0.3-0.9-0.4-1.4c0-0.4-0.2-0.8-0.2-1.1l-2.4,0.9c-0.5,0.2-0.9,0.1-1.3-0.1c-0.1,0-0.1-0.1-0.2-0.1
			c-0.1-0.3-0.2-0.4-0.2-0.6c0-0.3,0.2-0.6,0.5-0.7c0.3-0.2,0.5-0.3,0.8-0.4c0.8-0.3,1.6-0.7,2.5-1l0.4-0.8
			c-0.2-0.1-0.4-0.2-0.7-0.4c-0.4-0.2-1.3-0.5-1.2-1.2c0-0.3,0.2-0.6,0.3-0.8c0.2-0.3,0.6-0.2,0.8-0.1c0.1,0,0.2,0.1,0.3,0.1
			c0.1,0,0.1,0.1,0.2,0.1l1.2,0.6c0.3-0.5,0.6-0.8,1.2-0.8c0.8,0.2,1,1,0.8,1.7v0.1l0.9,0.5c0.6,0.4,1,0.6,1.1,1.1
			c0.1,0.3-0.4,1-0.7,1c-0.2,0-0.5,0-0.6-0.1c-0.2-0.1-0.4-0.2-0.6-0.3c-0.4-0.2-0.5-0.3-0.8-0.4c-0.3,0.5-0.1,0.2-0.4,0.8
			c0.1,0.1,0.1,0.5,0.2,0.8c-0.1,0.2,0,0.5,0.1,0.8c0.1,0.2,0.1,0.4,0.1,0.5C139.4,9.4,139.6,10.1,139.5,10.6z M142.3,15.6l-1.1,2
			c-0.3,0.6-0.8,1.3-1.5,0.9c-0.1-0.1-0.5-0.3-0.6-0.4c-0.4-0.4-0.3-1-0.1-1.5c0.1-0.2,0.7-1.3,0.7-1.5c-0.1,0-0.2-0.2-1-0.6
			c-0.6-0.3-0.6-0.3-6-3.2l0,0c0,0-0.5-0.5-0.4-0.9c0.2-0.4,0.4-0.6,0.7-0.8c0.4-0.2,0.8,0,0.8,0l7.7,4
			C142.6,14.4,142.5,15.1,142.3,15.6z M142,9.9c-0.6-0.3-1.1-0.6-1.1-1.1c0-0.3,0.2-0.6,0.3-0.8c0.2-0.2,0.4-0.3,0.8-0.2
			c0.2,0.1,1.3,0.6,1.5,0.7l0.8-1.4c0.1-0.2,0.2-0.5,0.4-0.6c0.1-0.1,0.2-0.3,0.4-0.3c0.3-0.1,0.7,0,1,0.2s0.4,0.5,0.4,0.7
			c0,0.3-0.2,0.8-0.3,0.8l-2.7,5.1c0,0-0.4,0.5-0.9,0.6c-0.2,0-0.4,0-0.5-0.1c-0.2-0.1-0.4-0.3-0.5-0.5c-0.1-0.1-0.1-0.3-0.1-0.4
			c0-0.3,0.1-0.5,0.2-0.8l0.8-1.5L142,9.9z"/>
	</g>
	<g>
		<path style="fill:#61BCA9;" d="M150.9,19.4c-0.1,0.2-0.3,0.4-0.6,0.4c-0.2,0-0.4-0.1-0.5-0.3c-0.3-0.3-0.4-0.8-0.5-1.1
			c0-0.5,0-1,0-1.4s0-0.8,0-1.2l-2.5,0.1c-0.5,0-0.9-0.2-1.2-0.5c-0.1-0.1-0.1-0.1-0.2-0.2c-0.1-0.2-0.1-0.4-0.1-0.5
			c0.1-0.3,0.4-0.5,0.6-0.6c0.3-0.1,0.6-0.1,0.9-0.1c0.9-0.1,1.8-0.2,2.7-0.2l0.7-0.7c-0.1-0.1-0.3-0.3-0.6-0.6
			c-0.4-0.3-1.1-0.8-0.8-1.5c0.1-0.3,0.3-0.5,0.6-0.7c0.3-0.2,0.6,0,0.8,0.1c0.1,0,0.2,0.1,0.2,0.2c0,0,0.1,0.1,0.1,0.2l1,1
			c0.4-0.4,0.9-0.6,1.3-0.4c0.7,0.3,0.7,1.2,0.3,1.7c0,0.1-0.1,0.1-0.1,0.2l0.7,0.7c0.6,0.6,0.8,0.9,0.8,1.4c0,0.3-0.6,0.8-0.9,0.7
			c-0.2-0.1-0.4-0.2-0.5-0.3c-0.2-0.2-0.3-0.3-0.5-0.5c-0.3-0.3-0.4-0.4-0.6-0.6c-0.4,0.4-0.1,0.1-0.7,0.7c0,0.1-0.1,0.5-0.1,0.8
			s0,0.6,0,0.9c0,0.2,0,0.4,0,0.6C151.2,18.3,151.1,19,150.9,19.4z M152.1,25l-1.6,1.6c-0.5,0.5-1.1,1.1-1.7,0.5
			c-0.1-0.1-0.4-0.4-0.4-0.5c-0.3-0.6,0-1,0.3-1.4c0.1-0.2,1-1.1,1.1-1.2c0-0.1-0.2-0.3-0.8-0.8c-0.5-0.5-0.4-0.5-4.8-4.8l0,0
			c0,0-0.4-0.6-0.1-1c0.3-0.3,0.5-0.5,0.9-0.5s0.7,0.3,0.7,0.3l6.2,6.1C152.8,24,152.4,24.6,152.1,25z M153.5,19.5
			c-0.4-0.5-0.9-0.8-0.8-1.4c0.1-0.3,0.4-0.5,0.6-0.7c0.2-0.1,0.5-0.1,0.8,0.1c0.2,0.1,1.1,1,1.2,1.1l1.2-1.2
			c0.2-0.2,0.3-0.4,0.6-0.5c0.2-0.1,0.3-0.2,0.5-0.2c0.3,0,0.7,0.2,0.9,0.5c0.2,0.3,0.3,0.6,0.2,0.8c-0.1,0.3-0.4,0.7-0.5,0.7
			l-4,4.1c0,0-0.5,0.4-1,0.3c-0.2,0-0.3-0.1-0.4-0.3c-0.1-0.1-0.3-0.4-0.3-0.6c0-0.1,0-0.3,0-0.4c0.1-0.3,0.2-0.5,0.4-0.7L154,20
			L153.5,19.5z"/>
	</g>
</g>
<g>
	<g>
		<g>
			<path style="fill:#F3817F;" d="M203.5,53.5c-6,0-11.8-0.5-16.9-1.4c4.1,4.3,9.8,6.9,16.2,6.9c6.2,0,11.8-2.5,15.9-6.6
				C213.9,53.1,208.8,53.5,203.5,53.5 M237.3,41c0-2.8-4.8-5.4-12.4-7.1c-1.3-11.1-10.7-19.6-22.2-19.6c-11.4,0-20.8,8.5-22.2,19.6
				c-7.7,1.7-12.6,4.3-12.6,7.1c0,0.6,0.2,1.2,0.6,1.7c0.8,1.1,2.2,2.1,4.2,3l0,0c0.1,0.1,0.2,0.1,0.4,0.2l0,0
				c0.1,0.1,0.2,0.1,0.4,0.2l0,0c13.8,5.6,45.6,5.6,58.9-0.4l0,0c0.1-0.1,0.2-0.1,0.4-0.2l0,0c1.7-0.8,2.9-1.6,3.6-2.5
				C237,42.4,237.3,41.7,237.3,41"/>
		</g>
		<g>
			<path style="fill:#231815;" d="M177.8,15.3c0.2-0.1,0.3-0.1,0.5-0.1s0.3,0.1,0.5,0.3c0.1,0.1,0.3,0.4,0.3,0.6
				c0,0.1-0.1,0.3-0.1,0.4c-0.1,0.2-0.3,0.4-0.4,0.5c-0.1,0-0.2,0-0.2,0l-6.1,5.1c-0.2,0.1-0.3,0.3-0.5,0.5c-0.3,0.3-0.9,0.3-1.2,0
				c-0.2-0.2-0.4-0.7-0.2-1c0.1-0.2,0.3-0.4,0.4-0.5c0.3-0.3,2.1-1.8,2.3-1.9l-0.5-0.6c-0.4,0.3-0.9,0.6-1.2,0.8
				c-1.5,0.9-2.8,0.5-3-1.4c-0.2,0.1-0.7,0.6-0.9,0.6s-0.5,0-0.6-0.2c-0.2-0.2-0.4-0.6-0.3-0.8c0.1-0.2,0.3-0.5,0.6-0.7l2.4-2
				l-0.3-0.4c-0.3-0.3-0.3-0.7-0.1-1c0.1-0.2,0.3-0.3,0.4-0.4c0.1-0.1,0.3-0.2,0.4-0.2s0.3,0,0.4,0c0.1,0.1,0.3,0.1,0.4,0.3l0.3,0.4
				l2-1.7c0.1-0.1,0.3-0.3,0.4-0.4c0.1-0.1,0.3-0.3,0.5-0.4c0.2-0.1,0.3-0.1,0.5-0.1s0.3,0.1,0.5,0.2c0.2,0.2,0.3,0.6,0.2,0.8
				c-0.1,0.3-0.3,0.4-0.6,0.7c0.5-0.1,1,0.2,1.2,0.5c0.3,0.3,0.4,0.6,0.4,1c0,0.3-0.1,0.6-0.2,1c-0.1,0.4-0.3,0.6-0.6,1
				s-0.7,0.7-1.1,1.1c0.1,0.1,0.4,0.5,0.5,0.6c0.2-0.2,2.5-2.1,2.7-2.2C177.5,15.5,177.7,15.4,177.8,15.3z M173.8,14.2
				c-0.2,0-0.4,0.1-0.6,0.2c-0.2,0.1-0.4,0.3-0.7,0.5c-0.5,0.4-1,0.8-1.5,1.2c-0.2,0.2-0.4,0.4-0.6,0.6c-0.2,0.2-0.3,0.5-0.3,0.7
				c0,0.3,0.2,0.4,0.4,0.5s0.5-0.1,0.7-0.2s0.4-0.3,0.6-0.5s0.5-0.4,0.7-0.6c0.3-0.2,0.5-0.5,0.8-0.7s0.4-0.4,0.6-0.6
				c0.2-0.2,0.4-0.4,0.4-0.7c0-0.1,0-0.2-0.1-0.3C174.2,14.3,173.9,14.1,173.8,14.2z M180.3,18.3c0.1,0,0.2,0,0.3,0
				c0.1,0,0.2,0.1,0.3,0.1c0.3,0.3,0.5,0.6,0.5,0.8c0,0.2,0,0.3-0.1,0.4c-0.1,0.1-0.1,0.2-0.1,0.2l-6.3,5.2
				c-0.3,0.2-0.6,0.4-0.8,0.4c-0.2,0-0.5,0-0.6-0.2l-0.9-1.1c-0.2-0.2-0.1-0.1-0.2-0.3c-0.1-0.2-0.2-0.4-0.2-0.6s0.1-0.4,0.3-0.5
				c0,0,0.1-0.1,0.2-0.2s0.2-0.2,0.2-0.2c0.1-0.1,0.3-0.1,0.4-0.1c0.1,0,0.2,0.1,0.3,0.1c0.1,0,0.5,0.6,0.6,0.7c0,0,0.1-0.1,0.2-0.2
				c0.1-0.1,5.4-4.6,5.4-4.6C179.9,18.5,180,18.3,180.3,18.3z"/>
		</g>
		<g>
			<path style="fill:#231815;" d="M180.9,6.7c0.4-0.2,0.7-0.3,1-0.4c0.3,0,0.6,0,0.9,0.1s0.5,0.4,0.5,0.6c0,0.3-0.1,0.6-0.4,0.8
				c-0.2,0.1-0.4,0.3-0.7,0.5c-0.2,0.1-0.6,0.4-1.1,0.6c0,0.2,1.6,2.9,1.6,2.9c0,0.1,0.1,0.2,0.2,0.3c0.1,0.1,0.1,0.2,0.2,0.2
				c0.1,0,3.1,1.2,3.4,1.5c0.3,0.2,0.6,0.4,0.8,0.6c0.1,0.1,0.2,0.2,0.3,0.4c0,0.2,0,0.3,0,0.5c-0.1,0.2-0.2,0.3-0.4,0.5
				c-0.6,0.4-1.3,0.1-1.8-0.2c-0.2-0.1-0.7-0.3-1-0.4c-0.2-0.1-0.3-0.2-0.5-0.2c-0.2-0.1-0.5-0.2-0.8-0.3c-0.2,1.2-0.2,2.1-0.5,3.4
				c-0.1,0.3-0.2,0.6-0.5,0.8c-0.1,0-0.2,0-0.3,0.1c-0.2,0-0.4,0-0.6-0.1s-0.3-0.3-0.4-0.5c-0.1-0.2-0.1-0.4-0.1-0.5
				c0-0.2,0-0.4,0-0.5c0-0.2,0-0.4,0.1-0.6c0-0.1,0-0.2,0.1-0.3c0-0.1,0-0.2,0-0.3c0-0.2,0-0.4,0.1-0.6c0-0.2,0.1-0.5,0.1-0.8
				c0-0.2,0.1-0.5,0.1-0.7s0.1-0.5,0.1-0.6l-2-3.5l-0.9,0.5c-0.4,0.2-0.6,0.3-0.7,0.4c-0.2,0.1-0.2,0.1-0.3,0.1
				c-0.4,0.1-0.7,0.1-1-0.2c-0.3-0.2-0.4-0.5-0.3-0.8c0.1-0.3,0.2-0.6,0.4-0.8c0-0.1,0.1-0.1,0.1-0.1c0.1-0.1,0.1-0.1,0.2-0.1
				c0.1,0,0.1,0,0.2,0L180.9,6.7z M187.6,7.5c0.4-0.2,0.7-0.5,1.1-0.2c0.3,0.2,0.5,0.6,0.5,0.9c-0.1,0.5-0.3,0.6-0.8,0.9
				c-0.2,0.1-0.3,0.2-0.5,0.3l0,0c0,0,0.3,0.6,0.4,0.8c0.1,0.2,0.5,0.8,0.6,1c0.4,0.6,0.7,1.3,1.1,1.9c0.1,0.1,0.1,0.3,0.2,0.4
				c0,0.1,0.1,0.3,0.1,0.4c0,0.1,0,0.3,0,0.4c-0.1,0.4-0.6,0.7-1.1,0.6c-0.3-0.1-0.6-0.5-0.8-0.8c-0.1-0.2-0.2-0.3-0.3-0.4L183.7,6
				c-0.1-0.1-0.1-0.3-0.2-0.4c-0.1-0.3-0.2-0.5-0.1-0.7c0-0.1,0.1-0.2,0.2-0.3c0.2-0.2,0.5-0.4,0.9-0.3c0.2,0,0.4,0.1,0.5,0.3
				c0.4,0.4,0.7,0.9,1,1.4c0.3,0.5,0.6,1.1,0.9,1.6l0.1,0.1v0.2L187.6,7.5z"/>
		</g>
		<g>
			<path style="fill:#231815;" d="M191,5.2c-0.1-0.2-0.1-0.4-0.2-0.7c-0.1-0.5,0-0.8,0.5-1c0,0,0.3-0.1,0.4-0.1
				c0.4,0,0.6,0.5,0.7,0.8c0.1,0.3,0.2,0.6,0.3,1c0.2,0.4,0.3,0.8,0.4,1.3c0.1,0.3,0.2,0.6,0.3,0.9c0.1,0.4,0.5,0.7,0.8,0.9
				c0.3,0.3,0.9,0.8,1.2,1.1c0.2,0.2,0.4,0.3,0.5,0.5c0.2,0.2,0.4,0.5,0.4,0.8c0,0.2-0.2,0.4-0.4,0.5c-0.2,0.1-0.4,0.1-0.6,0
				c-0.3-0.2-0.9-0.6-1.3-0.8c-0.1-0.1-0.8-0.6-0.9-0.6c0,0,0,0.1-0.1,0.1c-0.3,0.7-0.5,1.4-0.9,2.1c-0.1,0.2-0.2,0.3-0.4,0.4
				c-0.1,0-0.1,0.1-0.2,0.1c-0.2,0.1-0.4,0-0.5-0.1c-0.2-0.1-0.3-0.2-0.4-0.4c0-0.1,0-0.3,0-0.4c0.1-0.8,0.4-1.6,0.7-2.4
				c0.1-0.2,0.1-0.4,0.2-0.6c0-0.1,0.1-0.2,0.1-0.3s0.1-0.2,0.1-0.2c0-0.1,0-0.2,0-0.2c0-0.1-0.1-0.3-0.1-0.4L191,5.2z M194.5,6
				c0.1-0.1,0.1-0.2,0.3-0.3c0.2-0.1,0.9-0.3,1.4-0.4l-0.4-1.2c-0.1-0.2-0.1-0.3-0.2-0.5l-0.2-0.5c0-0.1-0.1-0.3-0.1-0.4
				c0-0.1,0-0.2,0-0.4c0-0.1,0-0.2,0.1-0.3c0.2-0.3,0.6-0.5,1-0.3c0.4,0.3,0.5,0.9,0.6,1.3l2.2,7.2c0,0.1,0,0.1,0,0.2
				c0,0.1,0,0.2,0,0.3s0,0.2-0.1,0.3c-0.2,0.3-0.7,0.5-0.9,0.3c-0.4-0.2-0.5-0.6-0.6-0.9L197.2,9c0-0.1-0.1-0.3-0.2-0.5L196.6,7
				c-0.1,0-0.7,0.2-0.8,0.2c-0.1,0-0.2,0.1-0.3,0.1s-0.2,0-0.4,0c-0.1,0-0.2-0.1-0.4-0.1c-0.1-0.2-0.2-0.2-0.2-0.3
				c-0.1-0.1-0.1-0.3-0.1-0.4s0-0.2,0.1-0.2C194.4,6.1,194.5,6.1,194.5,6z"/>
		</g>
		<g>
			<path style="fill:#231815;" d="M202.9,8.4l-0.1-1.6c-0.4,0-0.8,0-1.2,0c-0.4,0-0.8,0-1.2-0.1c-0.3-0.1-0.5-0.3-0.7-0.6
				c-0.1-0.3-0.1-1.1-0.1-1.1l-0.1-2.2c0-0.1-0.1-0.8,0.2-1.2c0.2-0.3,0.7-0.4,1.2-0.4L206,1c0,0,1.1-0.1,1.2,0.4
				c0.1,0.2,0.1,0.6,0,0.8c-0.1,0.1-0.2,0.2-0.3,0.2c-0.1,0-0.4,0.1-0.7,0.1l-4.5,0.1c-0.7,0-0.7,0.6-0.7,0.8l0.1,1.1
				c0,0.2,0,0.4,0.2,0.5c0.2,0.2,0.4,0.1,0.7,0.1l4.2-0.1c0.4,0,0.7,0,1,0.2c0.2,0.1,0.3,0.3,0.3,0.5c0.1,0.2,0,0.4-0.1,0.5
				c-0.2,0.3-0.5,0.4-0.9,0.5c-0.7,0-1.4,0.1-2.2,0.1l0.1,1.6l3.1-0.1c0.3,0,0.5,0.1,0.7,0.3c0.1,0.1,0.2,0.3,0.2,0.4
				c0,0.2,0,0.4-0.1,0.5c-0.3,0.3-0.9,0.3-0.9,0.3c-7,0.2-7.1,0.2-7.1,0.2c-0.3,0-0.8,0.1-1.1-0.2c-0.1-0.2-0.2-0.3-0.2-0.5
				s0.1-0.6,0.4-0.7c0.3-0.1,0.7-0.1,1-0.1L202.9,8.4z"/>
		</g>
		<g>
			<path style="fill:#FFF697;" d="M161.8,26.6c0,0,5.4,3.3,8.3,0.7c0,0-2.9,4.5-0.4,7.3c0,0-4.5-2.9-6.9-0.6
				C162.8,33.9,166.3,30.1,161.8,26.6"/>
		</g>
		<g>
			<path style="fill:#231815;" d="M169.7,35.1c-0.1,0-0.2,0-0.3-0.1c0,0-4.2-2.6-6.2-0.7c-0.2,0.2-0.5,0.2-0.8,0
				c-0.2-0.2-0.2-0.5,0-0.8c0,0,1.3-1.4,1.2-3.2c-0.1-1.2-0.8-2.3-2.1-3.3c-0.2-0.2-0.3-0.5-0.1-0.7c0.2-0.2,0.5-0.3,0.7-0.1
				c0.1,0,5.1,3.1,7.6,0.7c0.2-0.2,0.5-0.2,0.7,0c0.2,0.2,0.3,0.5,0.1,0.7c0,0-2.6,4.2-0.5,6.6c0.2,0.2,0.2,0.5,0,0.7
				C170,35,169.8,35.1,169.7,35.1z M165.2,32.5c1.1,0,2.3,0.4,3.2,0.7c-0.5-1.6,0-3.4,0.5-4.7c-1.6,0.5-3.4,0.1-4.8-0.4
				c0.4,0.7,0.6,1.3,0.6,2.1c0.1,0.9-0.1,1.7-0.4,2.3C164.5,32.5,164.9,32.5,165.2,32.5z"/>
		</g>
	</g>
	<g>
		<path style="fill:#F3817F;" d="M219.5,10.6c-0.1,0.2-0.2,0.5-0.5,0.5c-0.2,0-0.4,0-0.6-0.1c-0.4-0.2-0.6-0.6-0.8-0.9
			c-0.2-0.5-0.3-0.9-0.4-1.4c0-0.4-0.2-0.8-0.2-1.1l-2.4,0.9c-0.5,0.2-0.9,0.1-1.3-0.1c-0.1,0-0.1-0.1-0.2-0.1
			c-0.1-0.3-0.2-0.4-0.2-0.6c0-0.3,0.2-0.6,0.5-0.7c0.3-0.2,0.5-0.3,0.8-0.4c0.8-0.3,1.6-0.7,2.5-1l0.4-0.8
			c-0.2-0.1-0.4-0.2-0.7-0.4c-0.4-0.2-1.3-0.5-1.2-1.2c0-0.3,0.2-0.6,0.3-0.8c0.2-0.3,0.6-0.2,0.8-0.1c0.1,0,0.2,0.1,0.3,0.1
			c0.1,0,0.1,0.1,0.2,0.1l1.2,0.6c0.3-0.5,0.6-0.8,1.2-0.8c0.8,0.2,1,1,0.8,1.7v0.1l0.9,0.5c0.6,0.4,1,0.6,1.1,1.1
			c0.1,0.3-0.4,1-0.7,1c-0.2,0-0.5,0-0.6-0.1c-0.2-0.1-0.4-0.2-0.6-0.3c-0.4-0.2-0.5-0.3-0.8-0.4c-0.3,0.5-0.1,0.2-0.4,0.8
			c0.1,0.1,0.1,0.5,0.2,0.8c-0.1,0.2,0,0.5,0.1,0.8c0.1,0.2,0.1,0.4,0.1,0.5C219.4,9.4,219.6,10.1,219.5,10.6z M222.3,15.6l-1.1,2
			c-0.3,0.6-0.8,1.3-1.5,0.9c-0.1-0.1-0.5-0.3-0.6-0.4c-0.4-0.4-0.3-1-0.1-1.5c0.1-0.2,0.7-1.3,0.7-1.5c-0.1,0-0.2-0.2-1-0.6
			c-0.6-0.3-0.6-0.3-6-3.2l0,0c0,0-0.5-0.5-0.4-0.9c0.2-0.4,0.4-0.6,0.7-0.8c0.4-0.2,0.8,0,0.8,0l7.7,4
			C222.6,14.4,222.5,15.1,222.3,15.6z M222,9.9c-0.6-0.3-1.1-0.6-1.1-1.1c0-0.3,0.2-0.6,0.3-0.8c0.2-0.2,0.4-0.3,0.8-0.2
			c0.2,0.1,1.3,0.6,1.5,0.7l0.8-1.4c0.1-0.2,0.2-0.5,0.4-0.6c0.1-0.1,0.2-0.3,0.4-0.3c0.3-0.1,0.7,0,1,0.2s0.4,0.5,0.4,0.7
			c0,0.3-0.2,0.8-0.3,0.8l-2.7,5.1c0,0-0.4,0.5-0.9,0.6c-0.2,0-0.4,0-0.5-0.1c-0.2-0.1-0.4-0.3-0.5-0.5c-0.1-0.1-0.1-0.3-0.1-0.4
			c0-0.3,0.1-0.5,0.2-0.8l0.8-1.5L222,9.9z"/>
	</g>
	<g>
		<path style="fill:#F3817F;" d="M230.9,19.4c-0.1,0.2-0.3,0.4-0.6,0.4c-0.2,0-0.4-0.1-0.5-0.3c-0.3-0.3-0.4-0.8-0.5-1.1
			c0-0.5,0-1,0-1.4s0-0.8,0-1.2l-2.5,0.1c-0.5,0-0.9-0.2-1.2-0.5c-0.1-0.1-0.1-0.1-0.2-0.2c-0.1-0.2-0.1-0.4-0.1-0.5
			c0.1-0.3,0.4-0.5,0.6-0.6c0.3-0.1,0.6-0.1,0.9-0.1c0.9-0.1,1.8-0.2,2.7-0.2l0.7-0.7c-0.1-0.1-0.3-0.3-0.6-0.6
			c-0.4-0.3-1.1-0.8-0.8-1.5c0.1-0.3,0.3-0.5,0.6-0.7c0.3-0.2,0.6,0,0.8,0.1c0.1,0,0.2,0.1,0.2,0.2c0,0,0.1,0.1,0.1,0.2l1,1
			c0.4-0.4,0.9-0.6,1.3-0.4c0.7,0.3,0.7,1.2,0.3,1.7c0,0.1-0.1,0.1-0.1,0.2l0.7,0.7c0.6,0.6,0.8,0.9,0.8,1.4c0,0.3-0.6,0.8-0.9,0.7
			c-0.2-0.1-0.4-0.2-0.5-0.3c-0.2-0.2-0.3-0.3-0.5-0.5c-0.3-0.3-0.4-0.4-0.6-0.6c-0.4,0.4-0.1,0.1-0.7,0.7c0,0.1-0.1,0.5-0.1,0.8
			s0,0.6,0,0.9c0,0.2,0,0.4,0,0.6C231.2,18.3,231.1,19,230.9,19.4z M232.1,25l-1.6,1.6c-0.5,0.5-1.1,1.1-1.7,0.5
			c-0.1-0.1-0.4-0.4-0.4-0.5c-0.3-0.6,0-1,0.3-1.4c0.1-0.2,1-1.1,1.1-1.2c0-0.1-0.2-0.3-0.8-0.8c-0.5-0.5-0.4-0.5-4.8-4.8l0,0
			c0,0-0.4-0.6-0.1-1c0.3-0.3,0.5-0.5,0.9-0.5s0.7,0.3,0.7,0.3l6.2,6.1C232.8,24,232.4,24.6,232.1,25z M233.5,19.5
			c-0.4-0.5-0.9-0.8-0.8-1.4c0.1-0.3,0.4-0.5,0.6-0.7c0.2-0.1,0.5-0.1,0.8,0.1c0.2,0.1,1.1,1,1.2,1.1l1.2-1.2
			c0.2-0.2,0.3-0.4,0.6-0.5c0.2-0.1,0.3-0.2,0.5-0.2c0.3,0,0.7,0.2,0.9,0.5c0.2,0.3,0.3,0.6,0.2,0.8c-0.1,0.3-0.4,0.7-0.5,0.7
			l-4,4.1c0,0-0.5,0.4-1,0.3c-0.2,0-0.3-0.1-0.4-0.3c-0.1-0.1-0.3-0.4-0.3-0.6c0-0.1,0-0.3,0-0.4c0.1-0.3,0.2-0.5,0.4-0.7L234,20
			L233.5,19.5z"/>
	</g>
</g>
<g>
	<g>
		<g>
			<path style="fill:#77C078;" d="M283.5,53.5c-6,0-11.8-0.5-16.9-1.4c4.1,4.3,9.8,6.9,16.2,6.9c6.2,0,11.8-2.5,15.9-6.6
				C293.9,53.1,288.8,53.5,283.5,53.5 M317.3,41c0-2.8-4.8-5.4-12.4-7.1c-1.3-11.1-10.7-19.6-22.2-19.6c-11.4,0-20.8,8.5-22.2,19.6
				c-7.7,1.7-12.6,4.3-12.6,7.1c0,0.6,0.2,1.2,0.6,1.7c0.8,1.1,2.2,2.1,4.2,3l0,0c0.1,0.1,0.2,0.1,0.4,0.2l0,0
				c0.1,0.1,0.2,0.1,0.4,0.2l0,0c13.8,5.6,45.6,5.6,58.9-0.4l0,0c0.1-0.1,0.2-0.1,0.4-0.2l0,0c1.7-0.8,2.9-1.6,3.6-2.5
				C317,42.4,317.3,41.7,317.3,41"/>
		</g>
		<g>
			<path style="fill:#231815;" d="M257.8,15.3c0.2-0.1,0.3-0.1,0.5-0.1c0.2,0,0.3,0.1,0.5,0.3c0.1,0.1,0.3,0.4,0.3,0.6
				c0,0.1-0.1,0.3-0.1,0.4c-0.1,0.2-0.3,0.4-0.4,0.5c-0.1,0-0.2,0-0.2,0l-6.1,5.1c-0.2,0.1-0.3,0.3-0.5,0.5c-0.3,0.3-0.9,0.3-1.2,0
				c-0.2-0.2-0.4-0.7-0.2-1c0.1-0.2,0.3-0.4,0.4-0.5c0.3-0.3,2.1-1.8,2.3-1.9l-0.5-0.6c-0.4,0.3-0.9,0.6-1.2,0.8
				c-1.5,0.9-2.8,0.5-3-1.4c-0.2,0.1-0.7,0.6-0.9,0.6s-0.5,0-0.6-0.2c-0.2-0.2-0.4-0.6-0.3-0.8c0.1-0.2,0.3-0.5,0.6-0.7l2.4-2
				l-0.3-0.4c-0.3-0.3-0.3-0.7-0.1-1c0.1-0.2,0.3-0.3,0.4-0.4c0.1-0.1,0.3-0.2,0.4-0.2s0.3,0,0.4,0c0.1,0.1,0.3,0.1,0.4,0.3l0.3,0.4
				l2-1.7c0.1-0.1,0.3-0.3,0.4-0.4c0.1-0.1,0.3-0.3,0.5-0.4c0.2-0.1,0.3-0.1,0.5-0.1s0.3,0.1,0.5,0.2c0.2,0.2,0.3,0.6,0.2,0.8
				c-0.1,0.3-0.3,0.4-0.6,0.7c0.5-0.1,1,0.2,1.2,0.5c0.3,0.3,0.4,0.6,0.4,1c0,0.3-0.1,0.6-0.2,1s-0.3,0.6-0.6,1s-0.7,0.7-1.1,1.1
				c0.1,0.1,0.4,0.5,0.5,0.6c0.2-0.2,2.5-2.1,2.7-2.2C257.5,15.5,257.7,15.4,257.8,15.3z M253.8,14.2c-0.2,0-0.4,0.1-0.6,0.2
				c-0.2,0.1-0.4,0.3-0.7,0.5c-0.5,0.4-1,0.8-1.5,1.2c-0.2,0.2-0.4,0.4-0.6,0.6c-0.2,0.2-0.3,0.5-0.3,0.7c0,0.3,0.2,0.4,0.4,0.5
				s0.5-0.1,0.7-0.2s0.4-0.3,0.6-0.5s0.5-0.4,0.7-0.6c0.3-0.2,0.5-0.5,0.8-0.7s0.4-0.4,0.6-0.6c0.2-0.2,0.4-0.4,0.4-0.7
				c0-0.1,0-0.2-0.1-0.3C254.2,14.3,253.9,14.1,253.8,14.2z M260.3,18.3c0.1,0,0.2,0,0.3,0s0.2,0.1,0.3,0.1c0.3,0.3,0.5,0.6,0.5,0.8
				c0,0.2,0,0.3-0.1,0.4c-0.1,0.1-0.1,0.2-0.1,0.2l-6.3,5.2c-0.3,0.2-0.6,0.4-0.8,0.4c-0.2,0-0.5,0-0.6-0.2l-0.9-1.1
				c-0.2-0.2-0.1-0.1-0.2-0.3c-0.1-0.2-0.2-0.4-0.2-0.6s0.1-0.4,0.3-0.5c0,0,0.1-0.1,0.2-0.2s0.2-0.2,0.2-0.2
				c0.1-0.1,0.3-0.1,0.4-0.1c0.1,0,0.2,0.1,0.3,0.1c0.1,0,0.5,0.6,0.6,0.7c0,0,0.1-0.1,0.2-0.2c0.1-0.1,5.4-4.6,5.4-4.6
				C259.9,18.5,260,18.3,260.3,18.3z"/>
		</g>
		<g>
			<path style="fill:#231815;" d="M260.9,6.7c0.4-0.2,0.7-0.3,1-0.4c0.3,0,0.6,0,0.9,0.1c0.3,0.1,0.5,0.4,0.5,0.6
				c0,0.3-0.1,0.6-0.4,0.8c-0.2,0.1-0.4,0.3-0.7,0.5c-0.2,0.1-0.6,0.4-1.1,0.6c0,0.2,1.6,2.9,1.6,2.9c0,0.1,0.1,0.2,0.2,0.3
				s0.1,0.2,0.2,0.2s3.1,1.2,3.4,1.5c0.3,0.2,0.6,0.4,0.8,0.6c0.1,0.1,0.2,0.2,0.3,0.4c0,0.2,0,0.3,0,0.5c-0.1,0.2-0.2,0.3-0.4,0.5
				c-0.6,0.4-1.3,0.1-1.8-0.2c-0.2-0.1-0.7-0.3-1-0.4c-0.2-0.1-0.3-0.2-0.5-0.2c-0.2-0.1-0.5-0.2-0.8-0.3c-0.2,1.2-0.2,2.1-0.5,3.4
				c-0.1,0.3-0.2,0.6-0.5,0.8c-0.1,0-0.2,0-0.3,0.1c-0.2,0-0.4,0-0.6-0.1c-0.2-0.1-0.3-0.3-0.4-0.5c-0.1-0.2-0.1-0.4-0.1-0.5
				c0-0.2,0-0.4,0-0.5c0-0.2,0-0.4,0.1-0.6c0-0.1,0-0.2,0.1-0.3c0-0.1,0-0.2,0-0.3c0-0.2,0-0.4,0.1-0.6c0-0.2,0.1-0.5,0.1-0.8
				c0-0.2,0.1-0.5,0.1-0.7s0.1-0.5,0.1-0.6l-2-3.5l-0.9,0.5c-0.4,0.2-0.6,0.3-0.7,0.4c-0.2,0.1-0.2,0.1-0.3,0.1
				c-0.4,0.1-0.7,0.1-1-0.2c-0.3-0.2-0.4-0.5-0.3-0.8s0.2-0.6,0.4-0.8c0-0.1,0.1-0.1,0.1-0.1c0.1-0.1,0.1-0.1,0.2-0.1
				c0.1,0,0.1,0,0.2,0L260.9,6.7z M267.6,7.5c0.4-0.2,0.7-0.5,1.1-0.2c0.3,0.2,0.5,0.6,0.5,0.9c-0.1,0.5-0.3,0.6-0.8,0.9
				c-0.2,0.1-0.3,0.2-0.5,0.3l0,0c0,0,0.3,0.6,0.4,0.8c0.1,0.2,0.5,0.8,0.6,1c0.4,0.6,0.7,1.3,1.1,1.9c0.1,0.1,0.1,0.3,0.2,0.4
				c0,0.1,0.1,0.3,0.1,0.4c0,0.1,0,0.3,0,0.4c-0.1,0.4-0.6,0.7-1.1,0.6c-0.3-0.1-0.6-0.5-0.8-0.8c-0.1-0.2-0.2-0.3-0.3-0.4L263.7,6
				c-0.1-0.1-0.1-0.3-0.2-0.4c-0.1-0.3-0.2-0.5-0.1-0.7c0-0.1,0.1-0.2,0.2-0.3c0.2-0.2,0.5-0.4,0.9-0.3c0.2,0,0.4,0.1,0.5,0.3
				c0.4,0.4,0.7,0.9,1,1.4s0.6,1.1,0.9,1.6l0.1,0.1v0.2L267.6,7.5z"/>
		</g>
		<g>
			<path style="fill:#231815;" d="M271,5.2c-0.1-0.2-0.1-0.4-0.2-0.7c-0.1-0.5,0-0.8,0.5-1c0,0,0.3-0.1,0.4-0.1
				c0.4,0,0.6,0.5,0.7,0.8s0.2,0.6,0.3,1c0.2,0.4,0.3,0.8,0.4,1.3c0.1,0.3,0.2,0.6,0.3,0.9c0.1,0.4,0.5,0.7,0.8,0.9
				c0.3,0.3,0.9,0.8,1.2,1.1c0.2,0.2,0.4,0.3,0.5,0.5c0.2,0.2,0.4,0.5,0.4,0.8c0,0.2-0.2,0.4-0.4,0.5c-0.2,0.1-0.4,0.1-0.6,0
				c-0.3-0.2-0.9-0.6-1.3-0.8c-0.1-0.1-0.8-0.6-0.9-0.6c0,0,0,0.1-0.1,0.1c-0.3,0.7-0.5,1.4-0.9,2.1c-0.1,0.2-0.2,0.3-0.4,0.4
				c-0.1,0-0.1,0.1-0.2,0.1c-0.2,0.1-0.4,0-0.5-0.1c-0.2-0.1-0.3-0.2-0.4-0.4c0-0.1,0-0.3,0-0.4c0.1-0.8,0.4-1.6,0.7-2.4
				c0.1-0.2,0.1-0.4,0.2-0.6c0-0.1,0.1-0.2,0.1-0.3s0.1-0.2,0.1-0.2c0-0.1,0-0.2,0-0.2c0-0.1-0.1-0.3-0.1-0.4L271,5.2z M274.5,6
				c0.1-0.1,0.1-0.2,0.3-0.3c0.2-0.1,0.9-0.3,1.4-0.4l-0.4-1.2c-0.1-0.2-0.1-0.3-0.2-0.5l-0.2-0.5c0-0.1-0.1-0.3-0.1-0.4
				c0-0.1,0-0.2,0-0.4c0-0.1,0-0.2,0.1-0.3c0.2-0.3,0.6-0.5,1-0.3c0.4,0.3,0.5,0.9,0.6,1.3l2.2,7.2c0,0.1,0,0.1,0,0.2
				c0,0.1,0,0.2,0,0.3s0,0.2-0.1,0.3c-0.2,0.3-0.7,0.5-0.9,0.3c-0.4-0.2-0.5-0.6-0.6-0.9L277.2,9c0-0.1-0.1-0.3-0.2-0.5L276.6,7
				c-0.1,0-0.7,0.2-0.8,0.2c-0.1,0-0.2,0.1-0.3,0.1s-0.2,0-0.4,0c-0.1,0-0.2-0.1-0.4-0.1c-0.1-0.2-0.2-0.2-0.2-0.3
				c-0.1-0.1-0.1-0.3-0.1-0.4s0-0.2,0.1-0.2C274.4,6.1,274.5,6.1,274.5,6z"/>
		</g>
		<g>
			<path style="fill:#231815;" d="M282.9,8.4l-0.1-1.6c-0.4,0-0.8,0-1.2,0s-0.8,0-1.2-0.1c-0.3-0.1-0.5-0.3-0.7-0.6
				c-0.1-0.3-0.1-1.1-0.1-1.1l-0.1-2.2c0-0.1-0.1-0.8,0.2-1.2c0.2-0.3,0.7-0.4,1.2-0.4L286,1c0,0,1.1-0.1,1.2,0.4
				c0.1,0.2,0.1,0.6,0,0.8c-0.1,0.1-0.2,0.2-0.3,0.2s-0.4,0.1-0.7,0.1l-4.5,0.1c-0.7,0-0.7,0.6-0.7,0.8l0.1,1.1c0,0.2,0,0.4,0.2,0.5
				c0.2,0.2,0.4,0.1,0.7,0.1l4.2-0.1c0.4,0,0.7,0,1,0.2c0.2,0.1,0.3,0.3,0.3,0.5c0.1,0.2,0,0.4-0.1,0.5c-0.2,0.3-0.5,0.4-0.9,0.5
				c-0.7,0-1.4,0.1-2.2,0.1l0.1,1.6l3.1-0.1c0.3,0,0.5,0.1,0.7,0.3c0.1,0.1,0.2,0.3,0.2,0.4c0,0.2,0,0.4-0.1,0.5
				c-0.3,0.3-0.9,0.3-0.9,0.3c-7,0.2-7.1,0.2-7.1,0.2c-0.3,0-0.8,0.1-1.1-0.2c-0.1-0.2-0.2-0.3-0.2-0.5s0.1-0.6,0.4-0.7
				c0.3-0.1,0.7-0.1,1-0.1L282.9,8.4z"/>
		</g>
		<g>
			<path style="fill:#FFF697;" d="M241.8,26.6c0,0,5.4,3.3,8.3,0.7c0,0-2.9,4.5-0.4,7.3c0,0-4.5-2.9-6.9-0.6
				C242.8,33.9,246.3,30.1,241.8,26.6"/>
		</g>
		<g>
			<path style="fill:#231815;" d="M249.7,35.1c-0.1,0-0.2,0-0.3-0.1c0,0-4.2-2.6-6.2-0.7c-0.2,0.2-0.5,0.2-0.8,0
				c-0.2-0.2-0.2-0.5,0-0.8c0,0,1.3-1.4,1.2-3.2c-0.1-1.2-0.8-2.3-2.1-3.3c-0.2-0.2-0.3-0.5-0.1-0.7c0.2-0.2,0.5-0.3,0.7-0.1
				c0.1,0,5.1,3.1,7.6,0.7c0.2-0.2,0.5-0.2,0.7,0c0.2,0.2,0.3,0.5,0.1,0.7c0,0-2.6,4.2-0.5,6.6c0.2,0.2,0.2,0.5,0,0.7
				C250,35,249.8,35.1,249.7,35.1z M245.2,32.5c1.1,0,2.3,0.4,3.2,0.7c-0.5-1.6,0-3.4,0.5-4.7c-1.6,0.5-3.4,0.1-4.8-0.4
				c0.4,0.7,0.6,1.3,0.6,2.1c0.1,0.9-0.1,1.7-0.4,2.3C244.5,32.5,244.9,32.5,245.2,32.5z"/>
		</g>
	</g>
	<g>
		<path style="fill:#77C078;" d="M299.5,10.6c-0.1,0.2-0.2,0.5-0.5,0.5c-0.2,0-0.4,0-0.6-0.1c-0.4-0.2-0.6-0.6-0.8-0.9
			c-0.2-0.5-0.3-0.9-0.4-1.4c0-0.4-0.2-0.8-0.2-1.1l-2.4,0.9c-0.5,0.2-0.9,0.1-1.3-0.1c-0.1,0-0.1-0.1-0.2-0.1
			c-0.1-0.3-0.2-0.4-0.2-0.6c0-0.3,0.2-0.6,0.5-0.7c0.3-0.2,0.5-0.3,0.8-0.4c0.8-0.3,1.6-0.7,2.5-1l0.4-0.8
			c-0.2-0.1-0.4-0.2-0.7-0.4c-0.4-0.2-1.3-0.5-1.2-1.2c0-0.3,0.2-0.6,0.3-0.8c0.2-0.3,0.6-0.2,0.8-0.1c0.1,0,0.2,0.1,0.3,0.1
			s0.1,0.1,0.2,0.1l1.2,0.6c0.3-0.5,0.6-0.8,1.2-0.8c0.8,0.2,1,1,0.8,1.7v0.1l0.9,0.5c0.6,0.4,1,0.6,1.1,1.1c0.1,0.3-0.4,1-0.7,1
			c-0.2,0-0.5,0-0.6-0.1c-0.2-0.1-0.4-0.2-0.6-0.3c-0.4-0.2-0.5-0.3-0.8-0.4c-0.3,0.5-0.1,0.2-0.4,0.8c0.1,0.1,0.1,0.5,0.2,0.8
			c-0.1,0.2,0,0.5,0.1,0.8c0.1,0.2,0.1,0.4,0.1,0.5C299.4,9.4,299.6,10.1,299.5,10.6z M302.3,15.6l-1.1,2c-0.3,0.6-0.8,1.3-1.5,0.9
			c-0.1-0.1-0.5-0.3-0.6-0.4c-0.4-0.4-0.3-1-0.1-1.5c0.1-0.2,0.7-1.3,0.7-1.5c-0.1,0-0.2-0.2-1-0.6c-0.6-0.3-0.6-0.3-6-3.2l0,0
			c0,0-0.5-0.5-0.4-0.9c0.2-0.4,0.4-0.6,0.7-0.8c0.4-0.2,0.8,0,0.8,0l7.7,4C302.6,14.4,302.5,15.1,302.3,15.6z M302,9.9
			c-0.6-0.3-1.1-0.6-1.1-1.1c0-0.3,0.2-0.6,0.3-0.8c0.2-0.2,0.4-0.3,0.8-0.2c0.2,0.1,1.3,0.6,1.5,0.7l0.8-1.4
			c0.1-0.2,0.2-0.5,0.4-0.6c0.1-0.1,0.2-0.3,0.4-0.3c0.3-0.1,0.7,0,1,0.2s0.4,0.5,0.4,0.7c0,0.3-0.2,0.8-0.3,0.8l-2.7,5.1
			c0,0-0.4,0.5-0.9,0.6c-0.2,0-0.4,0-0.5-0.1c-0.2-0.1-0.4-0.3-0.5-0.5c-0.1-0.1-0.1-0.3-0.1-0.4c0-0.3,0.1-0.5,0.2-0.8l0.8-1.5
			L302,9.9z"/>
	</g>
	<g>
		<path style="fill:#77C078;" d="M310.9,19.4c-0.1,0.2-0.3,0.4-0.6,0.4c-0.2,0-0.4-0.1-0.5-0.3c-0.3-0.3-0.4-0.8-0.5-1.1
			c0-0.5,0-1,0-1.4s0-0.8,0-1.2l-2.5,0.1c-0.5,0-0.9-0.2-1.2-0.5c-0.1-0.1-0.1-0.1-0.2-0.2c-0.1-0.2-0.1-0.4-0.1-0.5
			c0.1-0.3,0.4-0.5,0.6-0.6c0.3-0.1,0.6-0.1,0.9-0.1c0.9-0.1,1.8-0.2,2.7-0.2l0.7-0.7c-0.1-0.1-0.3-0.3-0.6-0.6
			c-0.4-0.3-1.1-0.8-0.8-1.5c0.1-0.3,0.3-0.5,0.6-0.7c0.3-0.2,0.6,0,0.8,0.1c0.1,0,0.2,0.1,0.2,0.2c0,0,0.1,0.1,0.1,0.2l1,1
			c0.4-0.4,0.9-0.6,1.3-0.4c0.7,0.3,0.7,1.2,0.3,1.7c0,0.1-0.1,0.1-0.1,0.2l0.7,0.7c0.6,0.6,0.8,0.9,0.8,1.4c0,0.3-0.6,0.8-0.9,0.7
			c-0.2-0.1-0.4-0.2-0.5-0.3c-0.2-0.2-0.3-0.3-0.5-0.5c-0.3-0.3-0.4-0.4-0.6-0.6c-0.4,0.4-0.1,0.1-0.7,0.7c0,0.1-0.1,0.5-0.1,0.8
			s0,0.6,0,0.9c0,0.2,0,0.4,0,0.6C311.2,18.3,311.1,19,310.9,19.4z M312.1,25l-1.6,1.6c-0.5,0.5-1.1,1.1-1.7,0.5
			c-0.1-0.1-0.4-0.4-0.4-0.5c-0.3-0.6,0-1,0.3-1.4c0.1-0.2,1-1.1,1.1-1.2c0-0.1-0.2-0.3-0.8-0.8c-0.5-0.5-0.4-0.5-4.8-4.8l0,0
			c0,0-0.4-0.6-0.1-1c0.3-0.3,0.5-0.5,0.9-0.5s0.7,0.3,0.7,0.3l6.2,6.1C312.8,24,312.4,24.6,312.1,25z M313.5,19.5
			c-0.4-0.5-0.9-0.8-0.8-1.4c0.1-0.3,0.4-0.5,0.6-0.7c0.2-0.1,0.5-0.1,0.8,0.1c0.2,0.1,1.1,1,1.2,1.1l1.2-1.2
			c0.2-0.2,0.3-0.4,0.6-0.5c0.2-0.1,0.3-0.2,0.5-0.2c0.3,0,0.7,0.2,0.9,0.5c0.2,0.3,0.3,0.6,0.2,0.8c-0.1,0.3-0.4,0.7-0.5,0.7
			l-4,4.1c0,0-0.5,0.4-1,0.3c-0.2,0-0.3-0.1-0.4-0.3c-0.1-0.1-0.3-0.4-0.3-0.6c0-0.1,0-0.3,0-0.4c0.1-0.3,0.2-0.5,0.4-0.7L314,20
			L313.5,19.5z"/>
	</g>
</g>
<g>
	<g>
		<g>
			<path style="fill:#718BC6;" d="M363.5,53.5c-6,0-11.8-0.5-16.9-1.4c4.1,4.3,9.8,6.9,16.2,6.9c6.2,0,11.8-2.5,15.9-6.6
				C373.9,53.1,368.8,53.5,363.5,53.5 M397.3,41c0-2.8-4.8-5.4-12.4-7.1c-1.3-11.1-10.7-19.6-22.2-19.6c-11.4,0-20.8,8.5-22.2,19.6
				c-7.7,1.7-12.6,4.3-12.6,7.1c0,0.6,0.2,1.2,0.6,1.7c0.8,1.1,2.2,2.1,4.2,3l0,0c0.1,0.1,0.2,0.1,0.4,0.2l0,0
				c0.1,0.1,0.2,0.1,0.4,0.2l0,0c13.8,5.6,45.6,5.6,58.9-0.4l0,0c0.1-0.1,0.2-0.1,0.4-0.2l0,0c1.7-0.8,2.9-1.6,3.6-2.5
				C397,42.4,397.3,41.7,397.3,41"/>
		</g>
		<g>
			<path style="fill:#231815;" d="M337.8,15.3c0.2-0.1,0.3-0.1,0.5-0.1c0.2,0,0.3,0.1,0.5,0.3c0.1,0.1,0.3,0.4,0.3,0.6
				c0,0.1-0.1,0.3-0.1,0.4c-0.1,0.2-0.3,0.4-0.4,0.5c-0.1,0-0.2,0-0.2,0l-6.1,5.1c-0.2,0.1-0.3,0.3-0.5,0.5c-0.3,0.3-0.9,0.3-1.2,0
				c-0.2-0.2-0.4-0.7-0.2-1c0.1-0.2,0.3-0.4,0.4-0.5c0.3-0.3,2.1-1.8,2.3-1.9l-0.5-0.6c-0.4,0.3-0.9,0.6-1.2,0.8
				c-1.5,0.9-2.8,0.5-3-1.4c-0.2,0.1-0.7,0.6-0.9,0.6s-0.5,0-0.6-0.2c-0.2-0.2-0.4-0.6-0.3-0.8c0.1-0.2,0.3-0.5,0.6-0.7l2.4-2
				l-0.3-0.4c-0.3-0.3-0.3-0.7-0.1-1c0.1-0.2,0.3-0.3,0.4-0.4c0.1-0.1,0.3-0.2,0.4-0.2s0.3,0,0.4,0c0.1,0.1,0.3,0.1,0.4,0.3l0.3,0.4
				l2-1.7c0.1-0.1,0.3-0.3,0.4-0.4c0.1-0.1,0.3-0.3,0.5-0.4c0.2-0.1,0.3-0.1,0.5-0.1s0.3,0.1,0.5,0.2c0.2,0.2,0.3,0.6,0.2,0.8
				c-0.1,0.3-0.3,0.4-0.6,0.7c0.5-0.1,1,0.2,1.2,0.5c0.3,0.3,0.4,0.6,0.4,1c0,0.3-0.1,0.6-0.2,1s-0.3,0.6-0.6,1
				c-0.3,0.4-0.7,0.7-1.1,1.1c0.1,0.1,0.4,0.5,0.5,0.6c0.2-0.2,2.5-2.1,2.7-2.2C337.5,15.5,337.7,15.4,337.8,15.3z M333.8,14.2
				c-0.2,0-0.4,0.1-0.6,0.2c-0.2,0.1-0.4,0.3-0.7,0.5c-0.5,0.4-1,0.8-1.5,1.2c-0.2,0.2-0.4,0.4-0.6,0.6c-0.2,0.2-0.3,0.5-0.3,0.7
				c0,0.3,0.2,0.4,0.4,0.5s0.5-0.1,0.7-0.2c0.2-0.1,0.4-0.3,0.6-0.5c0.2-0.2,0.5-0.4,0.7-0.6c0.3-0.2,0.5-0.5,0.8-0.7
				c0.3-0.2,0.4-0.4,0.6-0.6c0.2-0.2,0.4-0.4,0.4-0.7c0-0.1,0-0.2-0.1-0.3C334.2,14.3,333.9,14.1,333.8,14.2z M340.3,18.3
				c0.1,0,0.2,0,0.3,0s0.2,0.1,0.3,0.1c0.3,0.3,0.5,0.6,0.5,0.8c0,0.2,0,0.3-0.1,0.4c-0.1,0.1-0.1,0.2-0.1,0.2l-6.3,5.2
				c-0.3,0.2-0.6,0.4-0.8,0.4c-0.2,0-0.5,0-0.6-0.2l-0.9-1.1c-0.2-0.2-0.1-0.1-0.2-0.3c-0.1-0.2-0.2-0.4-0.2-0.6s0.1-0.4,0.3-0.5
				c0,0,0.1-0.1,0.2-0.2c0.1-0.1,0.2-0.2,0.2-0.2c0.1-0.1,0.3-0.1,0.4-0.1c0.1,0,0.2,0.1,0.3,0.1s0.5,0.6,0.6,0.7
				c0,0,0.1-0.1,0.2-0.2s5.4-4.6,5.4-4.6C339.9,18.5,340,18.3,340.3,18.3z"/>
		</g>
		<g>
			<path style="fill:#231815;" d="M340.9,6.7c0.4-0.2,0.7-0.3,1-0.4c0.3,0,0.6,0,0.9,0.1c0.3,0.1,0.5,0.4,0.5,0.6
				c0,0.3-0.1,0.6-0.4,0.8c-0.2,0.1-0.4,0.3-0.7,0.5c-0.2,0.1-0.6,0.4-1.1,0.6c0,0.2,1.6,2.9,1.6,2.9c0,0.1,0.1,0.2,0.2,0.3
				s0.1,0.2,0.2,0.2s3.1,1.2,3.4,1.5c0.3,0.2,0.6,0.4,0.8,0.6c0.1,0.1,0.2,0.2,0.3,0.4c0,0.2,0,0.3,0,0.5c-0.1,0.2-0.2,0.3-0.4,0.5
				c-0.6,0.4-1.3,0.1-1.8-0.2c-0.2-0.1-0.7-0.3-1-0.4c-0.2-0.1-0.3-0.2-0.5-0.2c-0.2-0.1-0.5-0.2-0.8-0.3c-0.2,1.2-0.2,2.1-0.5,3.4
				c-0.1,0.3-0.2,0.6-0.5,0.8c-0.1,0-0.2,0-0.3,0.1c-0.2,0-0.4,0-0.6-0.1c-0.2-0.1-0.3-0.3-0.4-0.5c-0.1-0.2-0.1-0.4-0.1-0.5
				c0-0.2,0-0.4,0-0.5c0-0.2,0-0.4,0.1-0.6c0-0.1,0-0.2,0.1-0.3c0-0.1,0-0.2,0-0.3c0-0.2,0-0.4,0.1-0.6c0-0.2,0.1-0.5,0.1-0.8
				c0-0.2,0.1-0.5,0.1-0.7s0.1-0.5,0.1-0.6l-2-3.5l-0.9,0.5c-0.4,0.2-0.6,0.3-0.7,0.4c-0.2,0.1-0.2,0.1-0.3,0.1
				c-0.4,0.1-0.7,0.1-1-0.2c-0.3-0.2-0.4-0.5-0.3-0.8s0.2-0.6,0.4-0.8c0-0.1,0.1-0.1,0.1-0.1c0.1-0.1,0.1-0.1,0.2-0.1
				c0.1,0,0.1,0,0.2,0L340.9,6.7z M347.6,7.5c0.4-0.2,0.7-0.5,1.1-0.2c0.3,0.2,0.5,0.6,0.5,0.9c-0.1,0.5-0.3,0.6-0.8,0.9
				c-0.2,0.1-0.3,0.2-0.5,0.3l0,0c0,0,0.3,0.6,0.4,0.8c0.1,0.2,0.5,0.8,0.6,1c0.4,0.6,0.7,1.3,1.1,1.9c0.1,0.1,0.1,0.3,0.2,0.4
				c0,0.1,0.1,0.3,0.1,0.4c0,0.1,0,0.3,0,0.4c-0.1,0.4-0.6,0.7-1.1,0.6c-0.3-0.1-0.6-0.5-0.8-0.8c-0.1-0.2-0.2-0.3-0.3-0.4L343.7,6
				c-0.1-0.1-0.1-0.3-0.2-0.4c-0.1-0.3-0.2-0.5-0.1-0.7c0-0.1,0.1-0.2,0.2-0.3c0.2-0.2,0.5-0.4,0.9-0.3c0.2,0,0.4,0.1,0.5,0.3
				c0.4,0.4,0.7,0.9,1,1.4s0.6,1.1,0.9,1.6l0.1,0.1v0.2L347.6,7.5z"/>
		</g>
		<g>
			<path style="fill:#231815;" d="M351,5.2c-0.1-0.2-0.1-0.4-0.2-0.7c-0.1-0.5,0-0.8,0.5-1c0,0,0.3-0.1,0.4-0.1
				c0.4,0,0.6,0.5,0.7,0.8s0.2,0.6,0.3,1c0.2,0.4,0.3,0.8,0.4,1.3c0.1,0.3,0.2,0.6,0.3,0.9c0.1,0.4,0.5,0.7,0.8,0.9
				c0.3,0.3,0.9,0.8,1.2,1.1c0.2,0.2,0.4,0.3,0.5,0.5c0.2,0.2,0.4,0.5,0.4,0.8c0,0.2-0.2,0.4-0.4,0.5c-0.2,0.1-0.4,0.1-0.6,0
				c-0.3-0.2-0.9-0.6-1.3-0.8c-0.1-0.1-0.8-0.6-0.9-0.6c0,0,0,0.1-0.1,0.1c-0.3,0.7-0.5,1.4-0.9,2.1c-0.1,0.2-0.2,0.3-0.4,0.4
				c-0.1,0-0.1,0.1-0.2,0.1c-0.2,0.1-0.4,0-0.5-0.1c-0.2-0.1-0.3-0.2-0.4-0.4c0-0.1,0-0.3,0-0.4c0.1-0.8,0.4-1.6,0.7-2.4
				c0.1-0.2,0.1-0.4,0.2-0.6c0-0.1,0.1-0.2,0.1-0.3s0.1-0.2,0.1-0.2c0-0.1,0-0.2,0-0.2c0-0.1-0.1-0.3-0.1-0.4L351,5.2z M354.5,6
				c0.1-0.1,0.1-0.2,0.3-0.3c0.2-0.1,0.9-0.3,1.4-0.4l-0.4-1.2c-0.1-0.2-0.1-0.3-0.2-0.5l-0.2-0.5c0-0.1-0.1-0.3-0.1-0.4
				c0-0.1,0-0.2,0-0.4c0-0.1,0-0.2,0.1-0.3c0.2-0.3,0.6-0.5,1-0.3c0.4,0.3,0.5,0.9,0.6,1.3l2.2,7.2c0,0.1,0,0.1,0,0.2
				c0,0.1,0,0.2,0,0.3s0,0.2-0.1,0.3c-0.2,0.3-0.7,0.5-0.9,0.3c-0.4-0.2-0.5-0.6-0.6-0.9L357.2,9c0-0.1-0.1-0.3-0.2-0.5L356.6,7
				c-0.1,0-0.7,0.2-0.8,0.2c-0.1,0-0.2,0.1-0.3,0.1s-0.2,0-0.4,0c-0.1,0-0.2-0.1-0.4-0.1c-0.1-0.2-0.2-0.2-0.2-0.3
				c-0.1-0.1-0.1-0.3-0.1-0.4s0-0.2,0.1-0.2C354.4,6.1,354.5,6.1,354.5,6z"/>
		</g>
		<g>
			<path style="fill:#231815;" d="M362.9,8.4l-0.1-1.6c-0.4,0-0.8,0-1.2,0s-0.8,0-1.2-0.1c-0.3-0.1-0.5-0.3-0.7-0.6
				c-0.1-0.3-0.1-1.1-0.1-1.1l-0.1-2.2c0-0.1-0.1-0.8,0.2-1.2c0.2-0.3,0.7-0.4,1.2-0.4L366,1c0,0,1.1-0.1,1.2,0.4
				c0.1,0.2,0.1,0.6,0,0.8c-0.1,0.1-0.2,0.2-0.3,0.2s-0.4,0.1-0.7,0.1l-4.5,0.1c-0.7,0-0.7,0.6-0.7,0.8l0.1,1.1c0,0.2,0,0.4,0.2,0.5
				c0.2,0.2,0.4,0.1,0.7,0.1l4.2-0.1c0.4,0,0.7,0,1,0.2c0.2,0.1,0.3,0.3,0.3,0.5c0.1,0.2,0,0.4-0.1,0.5c-0.2,0.3-0.5,0.4-0.9,0.5
				c-0.7,0-1.4,0.1-2.2,0.1l0.1,1.6l3.1-0.1c0.3,0,0.5,0.1,0.7,0.3c0.1,0.1,0.2,0.3,0.2,0.4c0,0.2,0,0.4-0.1,0.5
				c-0.3,0.3-0.9,0.3-0.9,0.3c-7,0.2-7.1,0.2-7.1,0.2c-0.3,0-0.8,0.1-1.1-0.2c-0.1-0.2-0.2-0.3-0.2-0.5s0.1-0.6,0.4-0.7
				c0.3-0.1,0.7-0.1,1-0.1L362.9,8.4z"/>
		</g>
		<g>
			<path style="fill:#FFF697;" d="M321.8,26.6c0,0,5.4,3.3,8.3,0.7c0,0-2.9,4.5-0.4,7.3c0,0-4.5-2.9-6.9-0.6
				C322.8,33.9,326.3,30.1,321.8,26.6"/>
		</g>
		<g>
			<path style="fill:#231815;" d="M329.7,35.1c-0.1,0-0.2,0-0.3-0.1c0,0-4.2-2.6-6.2-0.7c-0.2,0.2-0.5,0.2-0.8,0
				c-0.2-0.2-0.2-0.5,0-0.8c0,0,1.3-1.4,1.2-3.2c-0.1-1.2-0.8-2.3-2.1-3.3c-0.2-0.2-0.3-0.5-0.1-0.7c0.2-0.2,0.5-0.3,0.7-0.1
				c0.1,0,5.1,3.1,7.6,0.7c0.2-0.2,0.5-0.2,0.7,0c0.2,0.2,0.3,0.5,0.1,0.7c0,0-2.6,4.2-0.5,6.6c0.2,0.2,0.2,0.5,0,0.7
				C330,35,329.8,35.1,329.7,35.1z M325.2,32.5c1.1,0,2.3,0.4,3.2,0.7c-0.5-1.6,0-3.4,0.5-4.7c-1.6,0.5-3.4,0.1-4.8-0.4
				c0.4,0.7,0.6,1.3,0.6,2.1c0.1,0.9-0.1,1.7-0.4,2.3C324.5,32.5,324.9,32.5,325.2,32.5z"/>
		</g>
	</g>
	<g>
		<path style="fill:#718BC6;" d="M379.5,10.6c-0.1,0.2-0.2,0.5-0.5,0.5c-0.2,0-0.4,0-0.6-0.1c-0.4-0.2-0.6-0.6-0.8-0.9
			c-0.2-0.5-0.3-0.9-0.4-1.4c0-0.4-0.2-0.8-0.2-1.1l-2.4,0.9c-0.5,0.2-0.9,0.1-1.3-0.1c-0.1,0-0.1-0.1-0.2-0.1
			c-0.1-0.3-0.2-0.4-0.2-0.6c0-0.3,0.2-0.6,0.5-0.7c0.3-0.2,0.5-0.3,0.8-0.4c0.8-0.3,1.6-0.7,2.5-1l0.4-0.8
			c-0.2-0.1-0.4-0.2-0.7-0.4c-0.4-0.2-1.3-0.5-1.2-1.2c0-0.3,0.2-0.6,0.3-0.8c0.2-0.3,0.6-0.2,0.8-0.1c0.1,0,0.2,0.1,0.3,0.1
			s0.1,0.1,0.2,0.1l1.2,0.6c0.3-0.5,0.6-0.8,1.2-0.8c0.8,0.2,1,1,0.8,1.7v0.1l0.9,0.5c0.6,0.4,1,0.6,1.1,1.1c0.1,0.3-0.4,1-0.7,1
			c-0.2,0-0.5,0-0.6-0.1c-0.2-0.1-0.4-0.2-0.6-0.3c-0.4-0.2-0.5-0.3-0.8-0.4c-0.3,0.5-0.1,0.2-0.4,0.8c0.1,0.1,0.1,0.5,0.2,0.8
			c-0.1,0.2,0,0.5,0.1,0.8c0.1,0.2,0.1,0.4,0.1,0.5C379.4,9.4,379.6,10.1,379.5,10.6z M382.3,15.6l-1.1,2c-0.3,0.6-0.8,1.3-1.5,0.9
			c-0.1-0.1-0.5-0.3-0.6-0.4c-0.4-0.4-0.3-1-0.1-1.5c0.1-0.2,0.7-1.3,0.7-1.5c-0.1,0-0.2-0.2-1-0.6c-0.6-0.3-0.6-0.3-6-3.2l0,0
			c0,0-0.5-0.5-0.4-0.9c0.2-0.4,0.4-0.6,0.7-0.8c0.4-0.2,0.8,0,0.8,0l7.7,4C382.6,14.4,382.5,15.1,382.3,15.6z M382,9.9
			c-0.6-0.3-1.1-0.6-1.1-1.1c0-0.3,0.2-0.6,0.3-0.8c0.2-0.2,0.4-0.3,0.8-0.2c0.2,0.1,1.3,0.6,1.5,0.7l0.8-1.4
			c0.1-0.2,0.2-0.5,0.4-0.6c0.1-0.1,0.2-0.3,0.4-0.3c0.3-0.1,0.7,0,1,0.2s0.4,0.5,0.4,0.7c0,0.3-0.2,0.8-0.3,0.8l-2.7,5.1
			c0,0-0.4,0.5-0.9,0.6c-0.2,0-0.4,0-0.5-0.1c-0.2-0.1-0.4-0.3-0.5-0.5c-0.1-0.1-0.1-0.3-0.1-0.4c0-0.3,0.1-0.5,0.2-0.8l0.8-1.5
			L382,9.9z"/>
	</g>
	<g>
		<path style="fill:#718BC6;" d="M390.9,19.4c-0.1,0.2-0.3,0.4-0.6,0.4c-0.2,0-0.4-0.1-0.5-0.3c-0.3-0.3-0.4-0.8-0.5-1.1
			c0-0.5,0-1,0-1.4s0-0.8,0-1.2l-2.5,0.1c-0.5,0-0.9-0.2-1.2-0.5c-0.1-0.1-0.1-0.1-0.2-0.2c-0.1-0.2-0.1-0.4-0.1-0.5
			c0.1-0.3,0.4-0.5,0.6-0.6c0.3-0.1,0.6-0.1,0.9-0.1c0.9-0.1,1.8-0.2,2.7-0.2l0.7-0.7c-0.1-0.1-0.3-0.3-0.6-0.6
			c-0.4-0.3-1.1-0.8-0.8-1.5c0.1-0.3,0.3-0.5,0.6-0.7c0.3-0.2,0.6,0,0.8,0.1c0.1,0,0.2,0.1,0.2,0.2c0,0,0.1,0.1,0.1,0.2l1,1
			c0.4-0.4,0.9-0.6,1.3-0.4c0.7,0.3,0.7,1.2,0.3,1.7c0,0.1-0.1,0.1-0.1,0.2l0.7,0.7c0.6,0.6,0.8,0.9,0.8,1.4c0,0.3-0.6,0.8-0.9,0.7
			c-0.2-0.1-0.4-0.2-0.5-0.3c-0.2-0.2-0.3-0.3-0.5-0.5c-0.3-0.3-0.4-0.4-0.6-0.6c-0.4,0.4-0.1,0.1-0.7,0.7c0,0.1-0.1,0.5-0.1,0.8
			s0,0.6,0,0.9c0,0.2,0,0.4,0,0.6C391.2,18.3,391.1,19,390.9,19.4z M392.1,25l-1.6,1.6c-0.5,0.5-1.1,1.1-1.7,0.5
			c-0.1-0.1-0.4-0.4-0.4-0.5c-0.3-0.6,0-1,0.3-1.4c0.1-0.2,1-1.1,1.1-1.2c0-0.1-0.2-0.3-0.8-0.8c-0.5-0.5-0.4-0.5-4.8-4.8l0,0
			c0,0-0.4-0.6-0.1-1c0.3-0.3,0.5-0.5,0.9-0.5s0.7,0.3,0.7,0.3l6.2,6.1C392.8,24,392.4,24.6,392.1,25z M393.5,19.5
			c-0.4-0.5-0.9-0.8-0.8-1.4c0.1-0.3,0.4-0.5,0.6-0.7c0.2-0.1,0.5-0.1,0.8,0.1c0.2,0.1,1.1,1,1.2,1.1l1.2-1.2
			c0.2-0.2,0.3-0.4,0.6-0.5c0.2-0.1,0.3-0.2,0.5-0.2c0.3,0,0.7,0.2,0.9,0.5c0.2,0.3,0.3,0.6,0.2,0.8c-0.1,0.3-0.4,0.7-0.5,0.7
			l-4,4.1c0,0-0.5,0.4-1,0.3c-0.2,0-0.3-0.1-0.4-0.3c-0.1-0.1-0.3-0.4-0.3-0.6c0-0.1,0-0.3,0-0.4c0.1-0.3,0.2-0.5,0.4-0.7L394,20
			L393.5,19.5z"/>
	</g>
</g>
<g>
	<g>
		<g>
			<path style="fill:#8C89C1;" d="M443.5,53.5c-6,0-11.8-0.5-16.9-1.4c4.1,4.3,9.8,6.9,16.2,6.9c6.2,0,11.8-2.5,15.9-6.6
				C453.9,53.1,448.8,53.5,443.5,53.5 M477.3,41c0-2.8-4.8-5.4-12.4-7.1c-1.3-11.1-10.7-19.6-22.2-19.6c-11.4,0-20.8,8.5-22.2,19.6
				c-7.7,1.7-12.6,4.3-12.6,7.1c0,0.6,0.2,1.2,0.6,1.7c0.8,1.1,2.2,2.1,4.2,3l0,0c0.1,0.1,0.2,0.1,0.4,0.2l0,0
				c0.1,0.1,0.2,0.1,0.4,0.2l0,0c13.8,5.6,45.6,5.6,58.9-0.4l0,0c0.1-0.1,0.2-0.1,0.4-0.2l0,0c1.7-0.8,2.9-1.6,3.6-2.5
				C477,42.4,477.3,41.7,477.3,41"/>
		</g>
		<g>
			<path style="fill:#231815;" d="M417.8,15.3c0.2-0.1,0.3-0.1,0.5-0.1c0.2,0,0.3,0.1,0.5,0.3c0.1,0.1,0.3,0.4,0.3,0.6
				c0,0.1-0.1,0.3-0.1,0.4c-0.1,0.2-0.3,0.4-0.4,0.5c-0.1,0-0.2,0-0.2,0l-6.1,5.1c-0.2,0.1-0.3,0.3-0.5,0.5c-0.3,0.3-0.9,0.3-1.2,0
				c-0.2-0.2-0.4-0.7-0.2-1c0.1-0.2,0.3-0.4,0.4-0.5c0.3-0.3,2.1-1.8,2.3-1.9l-0.5-0.6c-0.4,0.3-0.9,0.6-1.2,0.8
				c-1.5,0.9-2.8,0.5-3-1.4c-0.2,0.1-0.7,0.6-0.9,0.6s-0.5,0-0.6-0.2c-0.2-0.2-0.4-0.6-0.3-0.8c0.1-0.2,0.3-0.5,0.6-0.7l2.4-2
				l-0.3-0.4c-0.3-0.3-0.3-0.7-0.1-1c0.1-0.2,0.3-0.3,0.4-0.4c0.1-0.1,0.3-0.2,0.4-0.2s0.3,0,0.4,0c0.1,0.1,0.3,0.1,0.4,0.3l0.3,0.4
				l2-1.7c0.1-0.1,0.3-0.3,0.4-0.4c0.1-0.1,0.3-0.3,0.5-0.4c0.2-0.1,0.3-0.1,0.5-0.1s0.3,0.1,0.5,0.2c0.2,0.2,0.3,0.6,0.2,0.8
				c-0.1,0.3-0.3,0.4-0.6,0.7c0.5-0.1,1,0.2,1.2,0.5c0.3,0.3,0.4,0.6,0.4,1c0,0.3-0.1,0.6-0.2,1s-0.3,0.6-0.6,1
				c-0.3,0.4-0.7,0.7-1.1,1.1c0.1,0.1,0.4,0.5,0.5,0.6c0.2-0.2,2.5-2.1,2.7-2.2C417.5,15.5,417.7,15.4,417.8,15.3z M413.8,14.2
				c-0.2,0-0.4,0.1-0.6,0.2c-0.2,0.1-0.4,0.3-0.7,0.5c-0.5,0.4-1,0.8-1.5,1.2c-0.2,0.2-0.4,0.4-0.6,0.6c-0.2,0.2-0.3,0.5-0.3,0.7
				c0,0.3,0.2,0.4,0.4,0.5s0.5-0.1,0.7-0.2c0.2-0.1,0.4-0.3,0.6-0.5c0.2-0.2,0.5-0.4,0.7-0.6c0.3-0.2,0.5-0.5,0.8-0.7
				c0.3-0.2,0.4-0.4,0.6-0.6c0.2-0.2,0.4-0.4,0.4-0.7c0-0.1,0-0.2-0.1-0.3C414.2,14.3,413.9,14.1,413.8,14.2z M420.3,18.3
				c0.1,0,0.2,0,0.3,0s0.2,0.1,0.3,0.1c0.3,0.3,0.5,0.6,0.5,0.8c0,0.2,0,0.3-0.1,0.4c-0.1,0.1-0.1,0.2-0.1,0.2l-6.3,5.2
				c-0.3,0.2-0.6,0.4-0.8,0.4c-0.2,0-0.5,0-0.6-0.2l-0.9-1.1c-0.2-0.2-0.1-0.1-0.2-0.3c-0.1-0.2-0.2-0.4-0.2-0.6s0.1-0.4,0.3-0.5
				c0,0,0.1-0.1,0.2-0.2c0.1-0.1,0.2-0.2,0.2-0.2c0.1-0.1,0.3-0.1,0.4-0.1c0.1,0,0.2,0.1,0.3,0.1s0.5,0.6,0.6,0.7
				c0,0,0.1-0.1,0.2-0.2s5.4-4.6,5.4-4.6C419.9,18.5,420,18.3,420.3,18.3z"/>
		</g>
		<g>
			<path style="fill:#231815;" d="M420.9,6.7c0.4-0.2,0.7-0.3,1-0.4c0.3,0,0.6,0,0.9,0.1c0.3,0.1,0.5,0.4,0.5,0.6
				c0,0.3-0.1,0.6-0.4,0.8c-0.2,0.1-0.4,0.3-0.7,0.5c-0.2,0.1-0.6,0.4-1.1,0.6c0,0.2,1.6,2.9,1.6,2.9c0,0.1,0.1,0.2,0.2,0.3
				s0.1,0.2,0.2,0.2s3.1,1.2,3.4,1.5c0.3,0.2,0.6,0.4,0.8,0.6c0.1,0.1,0.2,0.2,0.3,0.4c0,0.2,0,0.3,0,0.5c-0.1,0.2-0.2,0.3-0.4,0.5
				c-0.6,0.4-1.3,0.1-1.8-0.2c-0.2-0.1-0.7-0.3-1-0.4c-0.2-0.1-0.3-0.2-0.5-0.2c-0.2-0.1-0.5-0.2-0.8-0.3c-0.2,1.2-0.2,2.1-0.5,3.4
				c-0.1,0.3-0.2,0.6-0.5,0.8c-0.1,0-0.2,0-0.3,0.1c-0.2,0-0.4,0-0.6-0.1c-0.2-0.1-0.3-0.3-0.4-0.5c-0.1-0.2-0.1-0.4-0.1-0.5
				c0-0.2,0-0.4,0-0.5c0-0.2,0-0.4,0.1-0.6c0-0.1,0-0.2,0.1-0.3c0-0.1,0-0.2,0-0.3c0-0.2,0-0.4,0.1-0.6c0-0.2,0.1-0.5,0.1-0.8
				c0-0.2,0.1-0.5,0.1-0.7s0.1-0.5,0.1-0.6l-2-3.5l-0.9,0.5c-0.4,0.2-0.6,0.3-0.7,0.4c-0.2,0.1-0.2,0.1-0.3,0.1
				c-0.4,0.1-0.7,0.1-1-0.2c-0.3-0.2-0.4-0.5-0.3-0.8s0.2-0.6,0.4-0.8c0-0.1,0.1-0.1,0.1-0.1c0.1-0.1,0.1-0.1,0.2-0.1
				c0.1,0,0.1,0,0.2,0L420.9,6.7z M427.6,7.5c0.4-0.2,0.7-0.5,1.1-0.2c0.3,0.2,0.5,0.6,0.5,0.9c-0.1,0.5-0.3,0.6-0.8,0.9
				c-0.2,0.1-0.3,0.2-0.5,0.3l0,0c0,0,0.3,0.6,0.4,0.8c0.1,0.2,0.5,0.8,0.6,1c0.4,0.6,0.7,1.3,1.1,1.9c0.1,0.1,0.1,0.3,0.2,0.4
				c0,0.1,0.1,0.3,0.1,0.4c0,0.1,0,0.3,0,0.4c-0.1,0.4-0.6,0.7-1.1,0.6c-0.3-0.1-0.6-0.5-0.8-0.8c-0.1-0.2-0.2-0.3-0.3-0.4L423.7,6
				c-0.1-0.1-0.1-0.3-0.2-0.4c-0.1-0.3-0.2-0.5-0.1-0.7c0-0.1,0.1-0.2,0.2-0.3c0.2-0.2,0.5-0.4,0.9-0.3c0.2,0,0.4,0.1,0.5,0.3
				c0.4,0.4,0.7,0.9,1,1.4s0.6,1.1,0.9,1.6l0.1,0.1v0.2L427.6,7.5z"/>
		</g>
		<g>
			<path style="fill:#231815;" d="M431,5.2c-0.1-0.2-0.1-0.4-0.2-0.7c-0.1-0.5,0-0.8,0.5-1c0,0,0.3-0.1,0.4-0.1
				c0.4,0,0.6,0.5,0.7,0.8s0.2,0.6,0.3,1c0.2,0.4,0.3,0.8,0.4,1.3c0.1,0.3,0.2,0.6,0.3,0.9c0.1,0.4,0.5,0.7,0.8,0.9
				c0.3,0.3,0.9,0.8,1.2,1.1c0.2,0.2,0.4,0.3,0.5,0.5c0.2,0.2,0.4,0.5,0.4,0.8c0,0.2-0.2,0.4-0.4,0.5c-0.2,0.1-0.4,0.1-0.6,0
				c-0.3-0.2-0.9-0.6-1.3-0.8c-0.1-0.1-0.8-0.6-0.9-0.6c0,0,0,0.1-0.1,0.1c-0.3,0.7-0.5,1.4-0.9,2.1c-0.1,0.2-0.2,0.3-0.4,0.4
				c-0.1,0-0.1,0.1-0.2,0.1c-0.2,0.1-0.4,0-0.5-0.1c-0.2-0.1-0.3-0.2-0.4-0.4c0-0.1,0-0.3,0-0.4c0.1-0.8,0.4-1.6,0.7-2.4
				c0.1-0.2,0.1-0.4,0.2-0.6c0-0.1,0.1-0.2,0.1-0.3s0.1-0.2,0.1-0.2c0-0.1,0-0.2,0-0.2c0-0.1-0.1-0.3-0.1-0.4L431,5.2z M434.5,6
				c0.1-0.1,0.1-0.2,0.3-0.3c0.2-0.1,0.9-0.3,1.4-0.4l-0.4-1.2c-0.1-0.2-0.1-0.3-0.2-0.5l-0.2-0.5c0-0.1-0.1-0.3-0.1-0.4
				c0-0.1,0-0.2,0-0.4c0-0.1,0-0.2,0.1-0.3c0.2-0.3,0.6-0.5,1-0.3c0.4,0.3,0.5,0.9,0.6,1.3l2.2,7.2c0,0.1,0,0.1,0,0.2
				c0,0.1,0,0.2,0,0.3s0,0.2-0.1,0.3c-0.2,0.3-0.7,0.5-0.9,0.3c-0.4-0.2-0.5-0.6-0.6-0.9L437.2,9c0-0.1-0.1-0.3-0.2-0.5L436.6,7
				c-0.1,0-0.7,0.2-0.8,0.2c-0.1,0-0.2,0.1-0.3,0.1s-0.2,0-0.4,0c-0.1,0-0.2-0.1-0.4-0.1c-0.1-0.2-0.2-0.2-0.2-0.3
				c-0.1-0.1-0.1-0.3-0.1-0.4s0-0.2,0.1-0.2C434.4,6.1,434.5,6.1,434.5,6z"/>
		</g>
		<g>
			<path style="fill:#231815;" d="M442.9,8.4l-0.1-1.6c-0.4,0-0.8,0-1.2,0s-0.8,0-1.2-0.1c-0.3-0.1-0.5-0.3-0.7-0.6
				c-0.1-0.3-0.1-1.1-0.1-1.1l-0.1-2.2c0-0.1-0.1-0.8,0.2-1.2c0.2-0.3,0.7-0.4,1.2-0.4L446,1c0,0,1.1-0.1,1.2,0.4
				c0.1,0.2,0.1,0.6,0,0.8c-0.1,0.1-0.2,0.2-0.3,0.2s-0.4,0.1-0.7,0.1l-4.5,0.1c-0.7,0-0.7,0.6-0.7,0.8l0.1,1.1c0,0.2,0,0.4,0.2,0.5
				c0.2,0.2,0.4,0.1,0.7,0.1l4.2-0.1c0.4,0,0.7,0,1,0.2c0.2,0.1,0.3,0.3,0.3,0.5c0.1,0.2,0,0.4-0.1,0.5c-0.2,0.3-0.5,0.4-0.9,0.5
				c-0.7,0-1.4,0.1-2.2,0.1l0.1,1.6l3.1-0.1c0.3,0,0.5,0.1,0.7,0.3c0.1,0.1,0.2,0.3,0.2,0.4c0,0.2,0,0.4-0.1,0.5
				c-0.3,0.3-0.9,0.3-0.9,0.3c-7,0.2-7.1,0.2-7.1,0.2c-0.3,0-0.8,0.1-1.1-0.2c-0.1-0.2-0.2-0.3-0.2-0.5s0.1-0.6,0.4-0.7
				c0.3-0.1,0.7-0.1,1-0.1L442.9,8.4z"/>
		</g>
		<g>
			<path style="fill:#FFF697;" d="M401.8,26.6c0,0,5.4,3.3,8.3,0.7c0,0-2.9,4.5-0.4,7.3c0,0-4.5-2.9-6.9-0.6
				C402.8,33.9,406.3,30.1,401.8,26.6"/>
		</g>
		<g>
			<path style="fill:#231815;" d="M409.7,35.1c-0.1,0-0.2,0-0.3-0.1c0,0-4.2-2.6-6.2-0.7c-0.2,0.2-0.5,0.2-0.8,0
				c-0.2-0.2-0.2-0.5,0-0.8c0,0,1.3-1.4,1.2-3.2c-0.1-1.2-0.8-2.3-2.1-3.3c-0.2-0.2-0.3-0.5-0.1-0.7c0.2-0.2,0.5-0.3,0.7-0.1
				c0.1,0,5.1,3.1,7.6,0.7c0.2-0.2,0.5-0.2,0.7,0c0.2,0.2,0.3,0.5,0.1,0.7c0,0-2.6,4.2-0.5,6.6c0.2,0.2,0.2,0.5,0,0.7
				C410,35,409.8,35.1,409.7,35.1z M405.2,32.5c1.1,0,2.3,0.4,3.2,0.7c-0.5-1.6,0-3.4,0.5-4.7c-1.6,0.5-3.4,0.1-4.8-0.4
				c0.4,0.7,0.6,1.3,0.6,2.1c0.1,0.9-0.1,1.7-0.4,2.3C404.5,32.5,404.9,32.5,405.2,32.5z"/>
		</g>
	</g>
	<g>
		<path style="fill:#8C89C1;" d="M459.5,10.6c-0.1,0.2-0.2,0.5-0.5,0.5c-0.2,0-0.4,0-0.6-0.1c-0.4-0.2-0.6-0.6-0.8-0.9
			c-0.2-0.5-0.3-0.9-0.4-1.4c0-0.4-0.2-0.8-0.2-1.1l-2.4,0.9c-0.5,0.2-0.9,0.1-1.3-0.1c-0.1,0-0.1-0.1-0.2-0.1
			c-0.1-0.3-0.2-0.4-0.2-0.6c0-0.3,0.2-0.6,0.5-0.7c0.3-0.2,0.5-0.3,0.8-0.4c0.8-0.3,1.6-0.7,2.5-1l0.4-0.8
			c-0.2-0.1-0.4-0.2-0.7-0.4c-0.4-0.2-1.3-0.5-1.2-1.2c0-0.3,0.2-0.6,0.3-0.8c0.2-0.3,0.6-0.2,0.8-0.1c0.1,0,0.2,0.1,0.3,0.1
			s0.1,0.1,0.2,0.1l1.2,0.6c0.3-0.5,0.6-0.8,1.2-0.8c0.8,0.2,1,1,0.8,1.7v0.1l0.9,0.5c0.6,0.4,1,0.6,1.1,1.1c0.1,0.3-0.4,1-0.7,1
			c-0.2,0-0.5,0-0.6-0.1c-0.2-0.1-0.4-0.2-0.6-0.3c-0.4-0.2-0.5-0.3-0.8-0.4c-0.3,0.5-0.1,0.2-0.4,0.8c0.1,0.1,0.1,0.5,0.2,0.8
			c-0.1,0.2,0,0.5,0.1,0.8c0.1,0.2,0.1,0.4,0.1,0.5C459.4,9.4,459.6,10.1,459.5,10.6z M462.3,15.6l-1.1,2c-0.3,0.6-0.8,1.3-1.5,0.9
			c-0.1-0.1-0.5-0.3-0.6-0.4c-0.4-0.4-0.3-1-0.1-1.5c0.1-0.2,0.7-1.3,0.7-1.5c-0.1,0-0.2-0.2-1-0.6c-0.6-0.3-0.6-0.3-6-3.2l0,0
			c0,0-0.5-0.5-0.4-0.9c0.2-0.4,0.4-0.6,0.7-0.8c0.4-0.2,0.8,0,0.8,0l7.7,4C462.6,14.4,462.5,15.1,462.3,15.6z M462,9.9
			c-0.6-0.3-1.1-0.6-1.1-1.1c0-0.3,0.2-0.6,0.3-0.8c0.2-0.2,0.4-0.3,0.8-0.2c0.2,0.1,1.3,0.6,1.5,0.7l0.8-1.4
			c0.1-0.2,0.2-0.5,0.4-0.6c0.1-0.1,0.2-0.3,0.4-0.3c0.3-0.1,0.7,0,1,0.2s0.4,0.5,0.4,0.7c0,0.3-0.2,0.8-0.3,0.8l-2.7,5.1
			c0,0-0.4,0.5-0.9,0.6c-0.2,0-0.4,0-0.5-0.1c-0.2-0.1-0.4-0.3-0.5-0.5c-0.1-0.1-0.1-0.3-0.1-0.4c0-0.3,0.1-0.5,0.2-0.8l0.8-1.5
			L462,9.9z"/>
	</g>
	<g>
		<path style="fill:#8C89C1;" d="M470.9,19.4c-0.1,0.2-0.3,0.4-0.6,0.4c-0.2,0-0.4-0.1-0.5-0.3c-0.3-0.3-0.4-0.8-0.5-1.1
			c0-0.5,0-1,0-1.4s0-0.8,0-1.2l-2.5,0.1c-0.5,0-0.9-0.2-1.2-0.5c-0.1-0.1-0.1-0.1-0.2-0.2c-0.1-0.2-0.1-0.4-0.1-0.5
			c0.1-0.3,0.4-0.5,0.6-0.6c0.3-0.1,0.6-0.1,0.9-0.1c0.9-0.1,1.8-0.2,2.7-0.2l0.7-0.7c-0.1-0.1-0.3-0.3-0.6-0.6
			c-0.4-0.3-1.1-0.8-0.8-1.5c0.1-0.3,0.3-0.5,0.6-0.7c0.3-0.2,0.6,0,0.8,0.1c0.1,0,0.2,0.1,0.2,0.2c0,0,0.1,0.1,0.1,0.2l1,1
			c0.4-0.4,0.9-0.6,1.3-0.4c0.7,0.3,0.7,1.2,0.3,1.7c0,0.1-0.1,0.1-0.1,0.2l0.7,0.7c0.6,0.6,0.8,0.9,0.8,1.4c0,0.3-0.6,0.8-0.9,0.7
			c-0.2-0.1-0.4-0.2-0.5-0.3c-0.2-0.2-0.3-0.3-0.5-0.5c-0.3-0.3-0.4-0.4-0.6-0.6c-0.4,0.4-0.1,0.1-0.7,0.7c0,0.1-0.1,0.5-0.1,0.8
			s0,0.6,0,0.9c0,0.2,0,0.4,0,0.6C471.2,18.3,471.1,19,470.9,19.4z M472.1,25l-1.6,1.6c-0.5,0.5-1.1,1.1-1.7,0.5
			c-0.1-0.1-0.4-0.4-0.4-0.5c-0.3-0.6,0-1,0.3-1.4c0.1-0.2,1-1.1,1.1-1.2c0-0.1-0.2-0.3-0.8-0.8c-0.5-0.5-0.4-0.5-4.8-4.8l0,0
			c0,0-0.4-0.6-0.1-1c0.3-0.3,0.5-0.5,0.9-0.5s0.7,0.3,0.7,0.3l6.2,6.1C472.8,24,472.4,24.6,472.1,25z M473.5,19.5
			c-0.4-0.5-0.9-0.8-0.8-1.4c0.1-0.3,0.4-0.5,0.6-0.7c0.2-0.1,0.5-0.1,0.8,0.1c0.2,0.1,1.1,1,1.2,1.1l1.2-1.2
			c0.2-0.2,0.3-0.4,0.6-0.5c0.2-0.1,0.3-0.2,0.5-0.2c0.3,0,0.7,0.2,0.9,0.5c0.2,0.3,0.3,0.6,0.2,0.8c-0.1,0.3-0.4,0.7-0.5,0.7
			l-4,4.1c0,0-0.5,0.4-1,0.3c-0.2,0-0.3-0.1-0.4-0.3c-0.1-0.1-0.3-0.4-0.3-0.6c0-0.1,0-0.3,0-0.4c0.1-0.3,0.2-0.5,0.4-0.7L474,20
			L473.5,19.5z"/>
	</g>
</g>
</svg>
