<?xml version="1.0" encoding="utf-8"?>
<!-- Generator: Adobe Illustrator 23.0.0, SVG Export Plug-In . SVG Version: 6.00 Build 0)  -->
<svg version="1.1" id="레이어_1" xmlns="http://www.w3.org/2000/svg" xmlns:xlink="http://www.w3.org/1999/xlink" x="0px"
	 y="0px" width="58.3px" height="46.2px" viewBox="0 0 58.3 46.2" style="enable-background:new 0 0 58.3 46.2;"
	 xml:space="preserve">
<g>
	<g>
		<path style="fill:#0097E1;" d="M43.7,8.7c0,0.3-0.2,0.5-0.5,0.5H0.5C0.2,9.3,0,9,0,8.7V2.3C0,2,0.2,1.8,0.5,1.8h42.6
			c0.3,0,0.5,0.2,0.5,0.5v6.4H43.7z"/>
	</g>
	<g>
		<path style="fill:#FFFFFF;" d="M43.4,9.3v36.1c0,0.3-0.3,0.6-0.6,0.6h-42c-0.3,0-0.6-0.3-0.6-0.6V9.3H43.4z"/>
	</g>
	<g>
		<rect x="0.3" y="14.7" style="fill:#EAEAEA;" width="43.1" height="0.5"/>
	</g>
	<g>
		<rect x="0.3" y="19.8" style="fill:#EAEAEA;" width="43.1" height="0.5"/>
	</g>
	<g>
		<rect x="0.3" y="25" style="fill:#EAEAEA;" width="43.1" height="0.5"/>
	</g>
	<g>
		<rect x="0.3" y="30.2" style="fill:#EAEAEA;" width="43.1" height="0.5"/>
	</g>
	<g>
		<rect x="0.3" y="35.3" style="fill:#EAEAEA;" width="43.1" height="0.5"/>
	</g>
	<g>
		<rect x="0.3" y="40.5" style="fill:#EAEAEA;" width="43.1" height="0.5"/>
	</g>
	<g>
		<rect x="0.3" y="45.7" style="fill:#EAEAEA;" width="43.1" height="0.5"/>
	</g>
	<g>
		<rect x="6.6" y="9.3" style="fill:#0097E1;" width="1" height="36.7"/>
	</g>
	<g>
		<polygon style="fill:#FFFFFF;" points="27.5,22.2 24.7,29.7 28.5,33.5 36,30.7 37.6,29.2 29.1,20.7 		"/>
	</g>
	<g>
		<polygon style="fill:#FDD000;" points="22.4,35.8 28.5,33.5 24.7,29.7 		"/>
	</g>
	<g>
		<path style="fill:#003487;" d="M30.3,25L30.3,25L30.3,25z"/>
	</g>
	<g>
		<path style="fill:#003487;" d="M33.2,27.9L33.2,27.9L33.2,27.9z"/>
	</g>
	<g>
		<path style="fill:#003487;" d="M36,30.7L36,30.7L36,30.7z"/>
	</g>
	<g>
		<path style="fill:#FDD000;" d="M36,27.9v2.9l22.1-22c0.2-0.2,0.2-0.5,0-0.7l-2.5-2.5L33.2,27.9H36z"/>
	</g>
	<g>
		<path style="fill:#FDD000;" d="M27.5,22.2L27.5,22.2h2.9V25l0,0L52.8,2.6l-2.5-2.5c-0.2-0.2-0.5-0.2-0.7,0L27.5,22.2L27.5,22.2z"
			/>
	</g>
	<g>
		<polygon style="fill:#FFFFFF;" points="52.8,2.6 52.8,2.6 55.6,5.5 		"/>
	</g>
	<g>
		<polygon style="fill:#FFFFFF;" points="30.3,25 33.2,25 33.2,27.9 55.6,5.5 52.8,2.6 		"/>
	</g>
</g>
</svg>
