<?xml version="1.0" encoding="utf-8"?>
<!-- Generator: Adobe Illustrator 23.0.0, SVG Export Plug-In . SVG Version: 6.00 Build 0)  -->
<svg version="1.1" id="레이어_1" xmlns="http://www.w3.org/2000/svg" xmlns:xlink="http://www.w3.org/1999/xlink" x="0px"
	 y="0px" width="61.4px" height="110.9px" viewBox="0 0 61.4 110.9" style="enable-background:new 0 0 61.4 110.9;"
	 xml:space="preserve">
<rect x="29.7" style="fill:#0097E1;" width="4" height="54.7"/>
<g>
	<path style="fill:#FFFFFF;" d="M31.7,37.2c-16.4,0-29.6,13.3-29.6,29.6v14.4c0,16.4,13.3,29.6,29.6,29.6s29.6-13.3,29.6-29.6V66.9
		C61.4,50.5,48.1,37.2,31.7,37.2"/>
	<path style="fill:#FFFFFF;" d="M2.1,66.9v14.4c0,16.4,13.3,29.6,29.6,29.6c16.4,0,29.6-13.3,29.6-29.6V66.9H2.1z"/>
	<path style="fill:#FDD000;" d="M2.1,66.9h29.6V37.2C15.4,37.2,2.1,50.5,2.1,66.9"/>
	<path style="fill:#FFFFFF;" d="M31.7,37.2v29.6h29.6C61.4,50.5,48.1,37.2,31.7,37.2"/>
	<path style="fill:#0097E1;" d="M35.3,58.8c0,2-1.6,3.6-3.6,3.6s-3.5-1.6-3.5-3.6V46.4c0-2,1.6-3.5,3.5-3.5s3.6,1.6,3.6,3.5V58.8z"
		/>
	<polygon style="fill:#FDD000;" points="17.4,38 12.9,25 4.9,29.3 	"/>
	<polygon style="fill:#FDD000;" points="12.2,40.5 2.6,33.5 0,41.4 	"/>
</g>
</svg>
