<?xml version="1.0" encoding="utf-8"?>
<!-- Generator: Adobe Illustrator 23.0.0, SVG Export Plug-In . SVG Version: 6.00 Build 0)  -->
<svg version="1.1" id="Capa_1" xmlns="http://www.w3.org/2000/svg" xmlns:xlink="http://www.w3.org/1999/xlink" x="0px" y="0px"
	 width="408.2px" height="408.2px" viewBox="0 0 408.2 408.2" style="enable-background:new 0 0 408.2 408.2;" xml:space="preserve"
	>
<style type="text/css">
	.st0{fill:#FFFFFF;}
	.st1{fill:#F1F1F1;}
	.st2{fill:#333333;}
	.st3{fill:#FCD13E;}
</style>
<path class="st0" d="M286.7,262.3l35.1,35.1l-27.4,27.4l-35.1-35.1c3-2.7,16.1-15.5,19-18.4C281.3,268.4,284,265.4,286.7,262.3z"/>
<path class="st1" d="M275.3,47.2c60,60,62.8,155.8,8.4,219.1c-2.7,3-5.5,6-8.4,9s-5.9,5.7-9,8.4c-63.3,54.5-159.1,51.7-219.1-8.3
	c-62.9-62.9-62.9-165.3,0-228.2S212.5-15.7,275.3,47.2z"/>
<ellipse class="st0" cx="161.3" cy="161.3" rx="120" ry="120"/>
<g>
	<g>
		<path class="st2" d="M278.3,322l43.7-43.7c2.4-2.4,6.4-2.4,8.8,0l11.6,11.6l-52.5,52.5l-11.6-11.6
			C275.8,328.4,275.8,324.4,278.3,322z"/>
		<path class="st2" d="M345.4,397.4l52-52l7.1,7.1c4.9,4.9,4.9,12.8,0,17.7l-34.2,34.3c-4.9,4.9-12.8,4.9-17.7,0L345.4,397.4z"/>
	</g>
	
		<rect x="307.7" y="304.2" transform="matrix(0.7071 -0.7071 0.7071 0.7071 -142.836 344.8455)" class="st2" width="74.3" height="81.2"/>
</g>
<g>
	<path class="st3" d="M324.5,63.1c0.8,0.5,1.5,1.1,2.4,1.7c0.9,0.6,1.8,1.2,3.2,1.5c5.7,2.3,11.5,4.4,17.4,6.2
		c5.9,2,11.6,4.1,17.4,6.5c1.2,0.5,2.6,0.9,4.2,1.5c1.7,0.6,3.2,1.4,4.5,2.3c1.5,0.9,2.7,1.8,3.8,2.9c1.1,1.1,1.8,2.3,2,3.6
		c0.6,3.3-0.3,6-2.9,8.1s-5,3.6-7.4,4.8c-4.2,2.3-8.5,4.4-12.8,6.3c-4.4,2-8.5,3.8-12.2,5.6c-3.8,1.8-7.2,3.6-10,5.3
		c-2.9,1.8-4.8,3.6-5.7,5.4c-1.1,2-1.4,4.8-1.2,8.9s0.6,8.5,1.4,13.3c0.8,4.8,1.4,9.8,2,14.9c0.6,5.1,1.1,9.8,1.2,14
		s-0.3,7.8-1.2,10.6c-0.9,2.9-2.7,4.4-5.1,4.7c-1.8,0.2-3.6-0.2-5.1-0.9c-1.7-0.8-3.3-1.7-4.8-3c-1.5-1.2-3-2.6-4.4-4.1
		c-1.4-1.4-2.7-2.6-3.9-3.6c-1.2-0.9-2.4-2-3.6-3.3c-1.4-1.4-2.6-2.7-4.1-4.2c-1.5-1.4-2.9-2.9-4.2-4.2c-1.4-1.4-2.6-2.7-3.5-3.8
		c-3-3.3-5.7-6-8.6-8.3c-2.7-2.3-6.3-3.9-10.6-5.1c-1.2-0.5-2.6-0.5-4.1-0.2c-1.5,0.3-3,0.8-4.7,1.4c-1.5,0.6-3,1.2-4.5,2
		c-1.5,0.8-2.7,1.2-3.9,1.7c-1.5,0.5-4.1,1.4-7.4,2.6c-3.5,1.2-7.1,2.4-11.2,3.8c-4.1,1.2-8.1,2.4-12.4,3.3c-4.2,1.1-7.8,1.4-11,1.2
		c-3.2-0.2-5.4-1.1-6.9-2.6c-1.5-1.5-1.5-4.2-0.2-8c1.5-4.5,3.6-9.1,6.2-13.4c2.6-4.4,5.1-8.8,7.7-13c1.7-2.9,3.2-6.2,4.5-9.7
		c1.4-3.5,2.1-6.9,2.4-10.3c0.3-3.3,0-6.5-1.1-9.5c-1.1-3-2.3-5.7-3.9-8.5c-1.7-2.7-3.3-5.3-5.3-7.8c-1.8-2.6-3.5-5.3-5-8.1
		c-0.9-1.8-2.1-3.6-3.3-5.3c-1.2-1.7-2.4-3.5-3.6-5.3c-1.2-1.8-2.3-3.8-3-5.6c-0.9-1.8-1.4-3.8-1.5-5.7c0-3.2,1.2-5.3,3.6-6.6
		c2.4-1.4,5.6-2.1,9.2-2.3c3.8-0.2,7.8,0,12.4,0.6s8.9,1.4,13.3,2.3c4.2,0.9,8.1,1.8,11.5,2.6c3.3,0.8,5.7,1.2,7.2,1.4
		c2.6,0.2,4.7-0.3,6.5-1.4c1.8-1.1,3.3-2.4,4.7-3.9c1.4-1.7,2.7-3.5,3.8-5.4c1.2-2.1,2.4-3.9,3.8-5.6c2.1-2.9,4.2-5.7,6.2-8.8
		c2-3,3.9-5.9,5.9-8.6c2-2.7,4.1-5.4,6.2-7.8c2.1-2.4,4.7-4.5,7.7-6.5c2.4-1.5,4.4-1.8,6-1.2c1.7,0.8,2.9,2.1,3.9,4.1
		c0.9,2,1.7,4.4,2.3,7.4s1.1,5.9,1.5,8.8c0.5,4.4,1.1,8.8,1.8,13.1c0.8,4.5,1.5,8.9,2.1,13.3c0.5,3.2,1.1,5.9,1.4,8.1
		S322.7,61.5,324.5,63.1z"/>
</g>
</svg>
