<?xml version="1.0" encoding="utf-8"?>
<!-- Generator: Adobe Illustrator 23.0.0, SVG Export Plug-In . SVG Version: 6.00 Build 0)  -->
<svg version="1.1" id="Capa_1" xmlns="http://www.w3.org/2000/svg" xmlns:xlink="http://www.w3.org/1999/xlink" x="0px" y="0px"
	 width="262.2px" height="368px" viewBox="0 0 262.2 368" style="enable-background:new 0 0 262.2 368;" xml:space="preserve">
<style type="text/css">
	.st0{fill:#BAEEF4;}
	.st1{fill:#F4D9B6;}
	.st2{fill:#F56A01;}
	.st3{fill:#3A556A;}
	.st4{fill:#64798A;}
	.st5{fill:#F8C750;}
	.st6{fill:#FFA800;}
	.st7{fill:#FFB612;}
	.st8{fill:#FCD462;}
</style>
<g>
	<rect x="34.8" y="3" class="st0" width="96.2" height="157.5"/>
	<path class="st1" d="M224.5,243.8V52.5l-19.2-29.6L192.4,3l-12.9,19.9l-19.2,29.6v191.2c0,8,6.5,14.6,14.6,14.6h35
		C218,258.3,224.5,251.8,224.5,243.8z"/>
</g>
<path class="st2" d="M160.4,52.5l10.7,10.7l10.7-10.7l10.7,10.7l10.7-10.7l10.7,10.7l10.7-10.7v191.2c0,8-6.5,14.6-14.6,14.6h-35
	c-8,0-14.6-6.5-14.6-14.6L160.4,52.5L160.4,52.5z"/>
<polygon class="st3" points="205.3,22.9 192.4,3 179.5,22.9 "/>
<g>
	<rect x="34.8" y="28.6" class="st4" width="24" height="8"/>
	<rect x="34.8" y="48.7" class="st4" width="13.3" height="8"/>
	<rect x="34.8" y="68.7" class="st4" width="24" height="8"/>
	<rect x="34.8" y="88.7" class="st4" width="13.3" height="8"/>
	<rect x="34.8" y="108.7" class="st4" width="24" height="8"/>
	<rect x="34.8" y="128.8" class="st4" width="13.3" height="8"/>
</g>
<g>
	<path class="st5" d="M245.4,147.2c5.9,0,10.5,5.3,9.6,11.2l-3.5,23.8L220.3,336l-3.9,19.5c-1,7.2-7.2,12.5-14.5,12.5H58.2
		c-7.3,0-13.4-5.4-14.5-12.5L39.8,336L8.7,182.2l-3.5-23.8c-0.9-5.9,3.7-11.2,9.6-11.2H245.4L245.4,147.2z"/>
	<g>
		<path class="st6" d="M216.5,355.5c-1,7.2-7.2,12.5-14.5,12.5H58.2c-7.3,0-13.4-5.4-14.5-12.5"/>
		<path class="st6" d="M255,158.4l-1.7,11.1H6.9l-1.7-11.1c-0.9-5.9,3.7-11.2,9.6-11.2h230.5C251.3,147.2,255.9,152.5,255,158.4z"/>
	</g>
	<g>
		<path class="st7" d="M159.7,257.6c17.7,0,32-14.3,32-32s-14.3-32-32-32c-14.3,0-26.5,9.4-30.5,22.4c0,0,0,0,0-0.1v83.1
			c0,0,0,0,0-0.1c4,13,16.2,22.4,30.5,22.4c17.7,0,32-14.3,32-32l0,0C191.6,271.9,177.3,257.6,159.7,257.6z"/>
		<path class="st8" d="M98.6,193.7c-17.7,0-32,14.3-32,32s14.3,32,32,32c-17.7,0-32,14.3-32,32l0,0c0,17.7,14.3,32,32,32
			c14.3,0,26.5-9.4,30.5-22.3v-83.1C125.1,203,112.9,193.7,98.6,193.7z"/>
	</g>
</g>
</svg>
