<?xml version="1.0" encoding="utf-8"?>
<!-- Generator: Adobe Illustrator 23.0.0, SVG Export Plug-In . SVG Version: 6.00 Build 0)  -->
<svg version="1.1" id="Capa_1" xmlns="http://www.w3.org/2000/svg" xmlns:xlink="http://www.w3.org/1999/xlink" x="0px" y="0px"
	 width="525.4px" height="472.5px" viewBox="0 0 525.4 472.5" style="enable-background:new 0 0 525.4 472.5;" xml:space="preserve"
	>
<g>
	<path style="fill:#FF6400;" d="M313.9,26.1c-21.8-21.8-57.2-21.8-79.1,0s-21.8,57.2,0,79.1l77.8,77.8H61.1
		c-29.5,0-53.3,23.9-53.3,53.3c0,29.5,23.9,53.3,53.3,53.3h251.6l-77.8,77.8c-21.8,21.8-21.8,57.2,0,79.1s57.2,21.8,79.1,0
		l200.7-202.7c4.2-4.2,4.2-10.9,0-15.1L313.9,26.1z"/>
	<g>
		<polyline style="fill:none;stroke:#F9FF00;stroke-width:15;stroke-linecap:round;stroke-linejoin:round;" points="304.9,175.2 
			312.6,183 301.6,183 		"/>
		
			<path style="fill:none;stroke:#F9FF00;stroke-width:15;stroke-linecap:round;stroke-linejoin:round;stroke-dasharray:22.3681,22.3681;" d="
			M279.3,183H61.1c-29.5,0-53.3,23.9-53.3,53.3c0,29.5,23.9,53.3,53.3,53.3h229.4"/>
		<polyline style="fill:none;stroke:#F9FF00;stroke-width:15;stroke-linecap:round;stroke-linejoin:round;" points="301.6,289.6 
			312.6,289.6 304.9,297.4 		"/>
		
			<path style="fill:none;stroke:#F9FF00;stroke-width:15;stroke-linecap:round;stroke-linejoin:round;stroke-dasharray:22.283,22.283;" d="
			M289.1,313.2l-54.2,54.2c-21.8,21.8-21.8,57.2,0,79.1s57.2,21.8,79.1,0l200.7-202.7c4.2-4.2,4.2-10.9,0-15.1L313.9,26.1
			c-21.8-21.8-57.2-21.8-79.1,0c-21.8,21.8-21.8,57.2,0,79.1l62.1,62.1"/>
	</g>
</g>
</svg>
