<?xml version="1.0" encoding="utf-8"?>
<!-- Generator: Adobe Illustrator 23.0.0, SVG Export Plug-In . SVG Version: 6.00 Build 0)  -->
<svg version="1.1" id="Capa_1" xmlns="http://www.w3.org/2000/svg" xmlns:xlink="http://www.w3.org/1999/xlink" x="0px" y="0px"
	 width="288.3px" height="415.9px" viewBox="0 0 288.3 415.9" style="enable-background:new 0 0 288.3 415.9;" xml:space="preserve"
	>
<style type="text/css">
	.st0{fill:#FFFFFF;}
</style>
<path class="st0" d="M264.9,264.6c12.9-21.6,21.5-49,23.2-76.1c1.1-17.4-2.8-35.6-11.2-52.8c-13.2-26.9-35.7-42.1-57.6-56.7
	c-16.3-10.9-31.7-21.2-42.6-35.9l-2-2.6c-6.4-8.6-13.7-18.4-14.8-26.7c-1.2-8.3-8.7-14.2-17-13.8C134.5,0.6,128,7.5,128,15.9V301
	c-13.4-8.1-29.9-13.1-48-13.1c-44.1,0-80,28.7-80,64s35.9,64,80,64s80-28.7,80-64V165.6c24,9.2,63.4,32.6,74.2,87.2
	c-2,3-3.9,6.2-6.2,8.7c-5.9,6.6-5.2,16.7,1.4,22.6s16.7,5.2,22.6-1.4c4.3-4.9,8.1-10.6,11.7-16.5
	C264.2,265.7,264.6,265.2,264.9,264.6z"/>
</svg>
