<?xml version="1.0" encoding="utf-8"?>
<!-- Generator: Adobe Illustrator 23.0.0, SVG Export Plug-In . SVG Version: 6.00 Build 0)  -->
<svg version="1.1" id="레이어_1" xmlns="http://www.w3.org/2000/svg" xmlns:xlink="http://www.w3.org/1999/xlink" x="0px"
	 y="0px" width="198.6px" height="125px" viewBox="0 0 198.6 125" style="enable-background:new 0 0 198.6 125;"
	 xml:space="preserve">
<g>
	<g>
		<g>
			<path style="fill:#92B53C;" d="M93.2,23c16.7,4.4,19.4,11.8,14.2,21.7c-4.3,8.1-6,10.3-17.2,10.6c-12.4,0.4-19.5-11.8-19.1-21.9
				C71.5,22.9,82.2,20.1,93.2,23z"/>
			<path style="fill:#A0CC45;" d="M72.3,28.6c4.8-2.6,12.8-3,20.4-1.1c8.7,2.2,14.2,4.9,17.2,8.1c-0.6-5.4-5-9.6-16.5-12.6
				C82.9,20.3,74.7,22.9,72.3,28.6z"/>
		</g>
		<g>
			<path style="fill:#92B53C;" d="M151.4,112.5c-17.5,3.6-23.6-2.3-23.6-14.5c0-10,0.5-13,10.7-18.7c11.3-6.3,20.9,4.3,27.7,12.9
				C172.3,100.2,163,110.1,151.4,112.5z"/>
			<path style="fill:#A0CC45;" d="M168,97c-3.2,4.8-10.3,9.1-18.2,10.9c-9.1,2-15.5,2-19.8,0.3c3.1,5,9.7,6.8,21.3,4.4
				C160.7,110.6,168.6,103.8,168,97z"/>
		</g>
		<g>
			<path style="fill:#92B53C;" d="M153,32.8c15.4,9,16.2,17.1,8.3,25.3c-6.4,6.7-8.7,8.5-20,5.7c-12.5-3.1-12.9-16.6-12.3-26.9
				C129.5,27.4,142.9,26.9,153,32.8z"/>
			<path style="fill:#A0CC45;" d="M130.7,32.5c5.5-1.2,13.6,0.6,20.6,4.6c8.1,4.6,12.9,8.8,14.9,12.8c0.9-5.5-2.9-11-13.1-17
				C144.9,28,134.6,27.5,130.7,32.5z"/>
		</g>
		<g>
			<path style="fill:#92B53C;" d="M74,112.8c-5.4,10.7-16.5,8.6-19.7,4.8s0.4-12.1,8.1-18.6c7.7-6.5,18-9.5,19.7-4.8
				C83,96.4,78.6,103.8,74,112.8z"/>
			<path style="fill:#A0CC45;" d="M74,112.8c0.2-0.4,0.4-0.7,0.6-1.1c-5.5,3.7-12.3,1.8-14.7-1c-1.9-2.3-1.4-6.1,0.9-10.2
				c-6.6,6.2-9.5,13.6-6.5,17.2C57.5,121.4,68.6,123.4,74,112.8z"/>
		</g>
		<path style="fill:#A0CC45;stroke:#98BC40;stroke-width:1.2757;stroke-miterlimit:10;" d="M194,71.2c-1.1-13.8-11.1-25.1-17.1-19
			c-2,2-3.5,3.7-4.5,5c-2.5,0.8-7.8,2-12.7-0.3c-16-7.3-34.9-24.7-70.6-22.3c-42,2.7-68.6,22.8-70.1,41.4l7.4,1.5L19,79.5
			c0.8,14.9,40.6,27,85.9,24.4c27.3-1.6,39.3-8.2,56.4-16.6l14.3,3.7c0.4,1.7,0.9,2.8,1.4,2.7C187.3,92.2,194.9,82.1,194,71.2z"/>
		<g>
			<path style="fill:#F4B434;" d="M66.9,87.1c7.7-18.9-6.7-24.8-7.1-33.8c-0.4-10.4-1.2-12-4.5-11.8c-0.4,0-6.6,2.6-8.6,3.6
				c-2.1,1-8,4.3-7.9,4.4c0.1,0.1,5,3.7,7.6,6.8c3.6,4.3,10.3,18.9,1.4,32.1c-2.4,3.6-3.8,9-4,9.4c1.6,0.5,5.6,1.5,7.3,2
				c1.7,0.4,5.2,1.2,5.2,1.2C60.2,97.8,64.1,94,66.9,87.1z"/>
			<path style="fill:#F7C34F;" d="M64.3,85.3c6.4-20-5.8-15.7-6.2-34.1c-0.1-5.4-2.2-9.3-2.7-9.7c-4.6,1.8-11.5,4.9-15.2,7.2
				c0.2,0.1,0.3,0.3,0.5,0.4c3.1,2.7,6.9,6,8.9,9.1c2,3.1,5.6,11.6,4.7,17.7c-0.7,5.3-3.7,11.5-7.3,17.9c-0.5,0.9-1.5,3.6-1.9,4.5
				c3.2,0.9,6.6,1.8,10.2,2.5C59.8,95.7,62.5,90.9,64.3,85.3z"/>
			<path style="fill:#F4B434;" d="M127,40.3c-2.5-0.9-5.4-1.9-8.4-2.7c-3-0.8-6.2-1.6-9.2-2c-7.1,11.8-9.5,23.2-8.1,34.7
				c1.4,11.4,6.4,22.8,7.1,33.8c3.5-0.3,7.5-0.9,11.4-1.6c3.8-0.7,10.1-2.1,10.1-2.1c1.3-11.2-0.6-20.1-3.9-34.6
				C123.3,54.3,124.3,42.4,127,40.3z"/>
			<path style="fill:#F7C34F;" d="M125,39.5c0,0-4.6-1.6-6.9-2.2c-2.3-0.6-4.6-1.1-7.7-1.6c-7.1,11.8-7.7,21.3-6.3,32.6
				c1.4,11.3,4.6,24.2,5.3,35.2c3.5-0.3,6.7-0.7,9.8-1.1c3-0.5,6.7-1.2,9.3-1.9c0.1-10.1,0.8-13.9-2.1-25.4
				C123.6,63.7,119.7,52.4,125,39.5z"/>
		</g>
		<g>
			<path style="fill:#FFFFFF;" d="M47,65.1c0.2,3.7-2.6,7-6.3,7.2c-3.7,0.2-7-2.6-7.2-6.3c-0.2-3.7,2.6-7,6.3-7.2
				C43.5,58.5,46.7,61.4,47,65.1z"/>
			<path style="fill:#323138;" d="M42.7,65.4c0.2,2.4-1.6,4.4-4,4.6c-2.4,0.2-4.4-1.6-4.6-4s1.6-4.4,4-4.6S42.5,63,42.7,65.4z"/>
			<path style="fill:#FFFFFF;" d="M41.5,62.2c0.1,0.8-0.6,1.6-1.4,1.6c-0.8,0.1-1.6-0.6-1.6-1.4c-0.1-0.8,0.6-1.6,1.4-1.6
				C40.7,60.7,41.4,61.3,41.5,62.2z"/>
			<path style="fill:#FFFFFF;" d="M36.5,68.9c0,0.5-0.3,0.9-0.8,0.9c-0.5,0-0.9-0.3-0.9-0.8c0-0.5,0.3-0.9,0.8-0.9
				C36.1,68.1,36.5,68.4,36.5,68.9z"/>
		</g>
		<g>
			<path style="fill:#92B53C;" d="M109.7,74.4C109,89.3,101.8,93.2,90,91c-9.7-1.8-12.5-2.7-15.5-12C71,68.6,83.6,62.7,93.6,58.8
				C102.8,55.2,110.1,64.6,109.7,74.4z"/>
			<path style="fill:#A0CC45;" d="M98.6,58.2c3.9,3.5,6.4,10.1,6.2,16.8c-0.2,7.8-1.8,13-4.5,16.1c5.6-1.6,8.9-6.7,9.4-16.6
				C110,66.5,105.3,58.9,98.6,58.2z"/>
		</g>
		<path style="fill:#92B53C;" d="M182.4,44.6c-1.3,0.1-6.2,8.1-7.3,9.6c7.5,0.9,10.1,6.9,11,18.1c0.7,8.7-1.3,18.5-9.2,21.4
			c0.5,0.2,2.9,10.3,6.9,8.4c12.7-5.8,14.6-22.1,13.7-33C196.4,55.4,191,44.1,182.4,44.6z"/>
		<g>
			<path style="fill:#92B53C;" d="M100.3,103.2c10.9,4.9,9.4,16.1,5.7,19.5c-3.6,3.4-12.1,0.1-18.9-7.3c-6.8-7.4-10.3-17.6-5.7-19.5
				C83.6,95,91.1,99,100.3,103.2z"/>
			<path style="fill:#A0CC45;" d="M100.3,103.2c-0.4-0.2-0.8-0.3-1.1-0.5c3.9,5.4,2.4,12.2-0.4,14.7c-2.2,2-6,1.7-10.2-0.5
				c6.5,6.3,14,8.9,17.4,5.8C109.6,119.3,111.2,108.1,100.3,103.2z"/>
		</g>
		<g>
			<path style="fill:#F4B434;" d="M27.1,76.5c-0.7,1.9-3.2,2.4-5.6,1.1c-2.4-1.3-3.8-4-3.1-5.9c0.7-1.9,3.2-2.4,5.6-1.1
				C26.4,71.9,27.7,74.6,27.1,76.5z"/>
			<path style="fill:#F4B434;" d="M16.6,81.3c0-1.9,2.3-4.6,5.1-6c2.8-1.4,5.2-0.9,5.2,1c0,1.9-2.3,4.6-5.1,6
				C19,83.6,16.7,83.2,16.6,81.3z"/>
		</g>
	</g>
	<g>
		<g>
			
				<ellipse transform="matrix(0.5265 -0.8502 0.8502 0.5265 -39.6019 34.9828)" style="opacity:0.2;fill:#FFFFFF;" cx="11.6" cy="53" rx="5.9" ry="5.9"/>
			<path style="opacity:0.2;fill:#FFFFFF;" d="M13.9,49.3c0.1,0.8-1.2,1.8-2.7,2.7c-1.5,0.9-3,1.5-3.7,1c-0.7-0.5,0.2-2.3,2.3-3.5
				C11.9,48.3,13.9,48.5,13.9,49.3z"/>
		</g>
		<g>
			<circle style="opacity:0.2;fill:#FFFFFF;" cx="19.1" cy="30.9" r="4.9"/>
			<path style="opacity:0.2;fill:#FFFFFF;" d="M21.1,27.8c0.1,0.7-1,1.5-2.3,2.2c-1.3,0.7-2.5,1.3-3.1,0.9c-0.5-0.4,0.1-1.9,1.9-2.9
				C19.3,26.9,21,27.1,21.1,27.8z"/>
		</g>
		<g>
			<circle style="opacity:0.2;fill:#FFFFFF;" cx="4.4" cy="16.2" r="3.4"/>
			<path style="opacity:0.2;fill:#FFFFFF;" d="M5.8,14c0.1,0.5-0.7,1.1-1.6,1.6c-0.9,0.5-1.8,0.9-2.2,0.6c-0.4-0.3,0.1-1.3,1.3-2
				C4.6,13.4,5.7,13.5,5.8,14z"/>
		</g>
		<g>
			<path style="opacity:0.2;fill:#FFFFFF;" d="M15.4,3c0,1.1-0.9,2-2,2c-1.1,0-2-0.9-2-2s0.9-2,2-2C14.5,1,15.4,1.9,15.4,3z"/>
			<path style="opacity:0.2;fill:#FFFFFF;" d="M14.2,1.7c0,0.3-0.4,0.6-0.9,0.9c-0.5,0.3-1,0.5-1.2,0.3c-0.2-0.2,0.1-0.8,0.8-1.2
				C13.5,1.4,14.2,1.4,14.2,1.7z"/>
		</g>
		<g>
			<circle style="opacity:0.2;fill:#FFFFFF;" cx="18.8" cy="14.4" r="2"/>
			<path style="opacity:0.2;fill:#FFFFFF;" d="M19.6,13.1c0,0.3-0.4,0.6-0.9,0.9c-0.5,0.3-1,0.5-1.2,0.3c-0.2-0.2,0.1-0.8,0.8-1.2
				C18.9,12.8,19.5,12.9,19.6,13.1z"/>
		</g>
	</g>
</g>
<g>
</g>
<g>
</g>
<g>
</g>
<g>
</g>
<g>
</g>
<g>
</g>
<g>
</g>
<g>
</g>
<g>
</g>
<g>
</g>
<g>
</g>
<g>
</g>
<g>
</g>
<g>
</g>
<g>
</g>
</svg>
