<?xml version="1.0" encoding="utf-8"?>
<!-- Generator: Adobe Illustrator 23.0.0, SVG Export Plug-In . SVG Version: 6.00 Build 0)  -->
<svg version="1.1" id="레이어_1" xmlns="http://www.w3.org/2000/svg" xmlns:xlink="http://www.w3.org/1999/xlink" x="0px"
	 y="0px" width="486.6px" height="60px" viewBox="0 0 486.6 60" style="enable-background:new 0 0 486.6 60;" xml:space="preserve">
<path style="fill:#EEA900;" d="M58.4,30.4c0,0,0.2-4.1-1-7.2c-0.6-1.2-1.4-0.9-2.3-1.4c-1.1-2.9-2.6-5.6-4.7-8.1
	c-3.5-4.2-7.9-7-12.7-8.6c-1-1.4-1.1-2.9-2.8-3.5c0,0-5-1.2-9.3-0.2C23.9,2,24,3.3,23,4.5c-4.1,0.9-8,2.8-11.4,5.7
	C1.8,18.3-1,31.7,4,42.7c-0.4,1.2-1.1,2-0.6,3.4c0,0,2,4.2,5.2,6.5c1.2,0.7,2,0.3,3,0.1c10,8.3,24.8,8.5,35.2-0.1
	c6.1-5.1,9.5-12.3,9.9-19.7C57.5,32.1,58.2,31.6,58.4,30.4"/>
<path style="fill:#8F8BB6;" d="M118.4,30.4c0,0,0.2-4.1-1-7.2c-0.6-1.2-1.4-0.9-2.3-1.4c-1.1-2.9-2.6-5.6-4.7-8.1
	c-3.5-4.2-7.9-7-12.7-8.6c-1-1.4-1.1-2.9-2.8-3.5c0,0-5-1.2-9.3-0.2C83.9,2,84,3.3,83,4.5c-4.1,0.9-8,2.8-11.4,5.7
	C61.8,18.3,59,31.7,64,42.7c-0.4,1.2-1.1,2-0.6,3.4c0,0,2,4.2,5.2,6.5c1.2,0.7,2,0.3,3,0.1c10,8.3,24.8,8.5,35.2-0.1
	c6.1-5.1,9.5-12.3,9.9-19.7C117.5,32.1,118.2,31.6,118.4,30.4"/>
<path style="fill:#51B1BF;" d="M178.4,30.4c0,0,0.2-4.1-1-7.2c-0.6-1.2-1.4-0.9-2.3-1.4c-1.1-2.9-2.6-5.6-4.7-8.1
	c-3.5-4.2-7.9-7-12.7-8.6c-1-1.4-1.1-2.9-2.8-3.5c0,0-5-1.2-9.3-0.2C143.9,2,144,3.3,143,4.5c-4.1,0.9-8,2.8-11.4,5.7
	c-9.8,8.1-12.6,21.5-7.6,32.5c-0.4,1.2-1.1,2-0.6,3.4c0,0,2,4.2,5.2,6.5c1.2,0.7,2,0.3,3,0.1c10,8.3,24.8,8.5,35.2-0.1
	c6.1-5.1,9.5-12.3,9.9-19.7C177.5,32.1,178.2,31.6,178.4,30.4"/>
<path style="fill:#EEA900;" d="M238.4,30.4c0,0,0.2-4.1-1-7.2c-0.6-1.2-1.4-0.9-2.3-1.4c-1.1-2.9-2.6-5.6-4.7-8.1
	c-3.5-4.2-7.9-7-12.7-8.6c-1-1.4-1.1-2.9-2.8-3.5c0,0-5-1.2-9.3-0.2C203.9,2,204,3.3,203,4.5c-4.1,0.9-8,2.8-11.4,5.7
	c-9.8,8.1-12.6,21.5-7.6,32.5c-0.4,1.2-1.1,2-0.6,3.4c0,0,2,4.2,5.2,6.5c1.2,0.7,2,0.3,3,0.1c10,8.3,24.8,8.5,35.2-0.1
	c6.1-5.1,9.5-12.3,9.9-19.7C237.5,32.1,238.2,31.6,238.4,30.4"/>
<path style="fill:#C07AAC;" d="M238.4,30.4c0,0,0.2-4.1-1-7.2c-0.6-1.2-1.4-0.9-2.3-1.4c-1.1-2.9-2.6-5.6-4.7-8.1
	c-3.5-4.2-7.9-7-12.7-8.6c-1-1.4-1.1-2.9-2.8-3.5c0,0-5-1.2-9.3-0.2C203.9,2,204,3.3,203,4.5c-4.1,0.9-8,2.8-11.4,5.7
	c-9.8,8.1-12.6,21.5-7.6,32.5c-0.4,1.2-1.1,2-0.6,3.4c0,0,2,4.2,5.2,6.5c1.2,0.7,2,0.3,3,0.1c10,8.3,24.8,8.5,35.2-0.1
	c6.1-5.1,9.5-12.3,9.9-19.7C237.5,32.1,238.2,31.6,238.4,30.4"/>
<path style="fill:#81B440;" d="M298.4,30.4c0,0,0.2-4.1-1-7.2c-0.6-1.2-1.4-0.9-2.3-1.4c-1.1-2.9-2.6-5.6-4.7-8.1
	c-3.5-4.2-7.9-7-12.7-8.6c-1-1.4-1.1-2.9-2.8-3.5c0,0-5-1.2-9.3-0.2C263.9,2,264,3.3,263,4.5c-4.1,0.9-8,2.8-11.4,5.7
	c-9.8,8.1-12.6,21.5-7.6,32.5c-0.4,1.2-1.1,2-0.6,3.4c0,0,2,4.2,5.2,6.5c1.2,0.7,2,0.3,3,0.1c10,8.3,24.8,8.5,35.2-0.1
	c6.1-5.1,9.5-12.3,9.9-19.7C297.5,32.1,298.2,31.6,298.4,30.4"/>
<path style="fill:#E9895C;" d="M358.4,30.4c0,0,0.2-4.1-1-7.2c-0.6-1.2-1.4-0.9-2.3-1.4c-1.1-2.9-2.6-5.6-4.7-8.1
	c-3.5-4.2-7.9-7-12.7-8.6c-1-1.4-1.1-2.9-2.8-3.5c0,0-5-1.2-9.3-0.2C323.9,2,324,3.3,323,4.5c-4.1,0.9-8,2.8-11.4,5.7
	c-9.8,8.1-12.6,21.5-7.6,32.5c-0.4,1.2-1.1,2-0.6,3.4c0,0,2,4.2,5.2,6.5c1.2,0.7,2,0.3,3,0.1c10,8.3,24.8,8.5,35.2-0.1
	c6.1-5.1,9.5-12.3,9.9-19.7C357.5,32.1,358.2,31.6,358.4,30.4"/>
<path style="fill:#B15029;" d="M418.4,30.4c0,0,0.2-4.1-1-7.2c-0.6-1.2-1.4-0.9-2.3-1.4c-1.1-2.9-2.6-5.6-4.7-8.1
	c-3.5-4.2-7.9-7-12.7-8.6c-1-1.4-1.1-2.9-2.8-3.5c0,0-5-1.2-9.3-0.2C383.9,2,384,3.3,383,4.5c-4.1,0.9-8,2.8-11.4,5.7
	c-9.8,8.1-12.6,21.5-7.6,32.5c-0.4,1.2-1.1,2-0.6,3.4c0,0,2,4.2,5.2,6.5c1.2,0.7,2,0.3,3,0.1c10,8.3,24.8,8.5,35.2-0.1
	c6.1-5.1,9.5-12.3,9.9-19.7C417.5,32.1,418.2,31.6,418.4,30.4"/>
<path style="fill:#41638C;" d="M478.4,30.4c0,0,0.2-4.1-1-7.2c-0.6-1.2-1.4-0.9-2.3-1.4c-1.1-2.9-2.6-5.6-4.7-8.1
	c-3.5-4.2-7.9-7-12.7-8.6c-1-1.4-1.1-2.9-2.8-3.5c0,0-5-1.2-9.3-0.2C443.9,2,444,3.3,443,4.5c-4.1,0.9-8,2.8-11.4,5.7
	c-9.8,8.1-12.6,21.5-7.6,32.5c-0.4,1.2-1.1,2-0.6,3.4c0,0,2,4.2,5.2,6.5c1.2,0.7,2,0.3,3,0.1c10,8.3,24.8,8.5,35.2-0.1
	c6.1-5.1,9.5-12.3,9.9-19.7C477.5,32.1,478.2,31.6,478.4,30.4"/>
</svg>
