<?xml version="1.0" encoding="utf-8"?>
<!-- Generator: Adobe Illustrator 23.0.0, SVG Export Plug-In . SVG Version: 6.00 Build 0)  -->
<svg version="1.1" id="Capa_1" xmlns="http://www.w3.org/2000/svg" xmlns:xlink="http://www.w3.org/1999/xlink" x="0px" y="0px"
	 width="445.1px" height="415.9px" viewBox="0 0 445.1 415.9" style="enable-background:new 0 0 445.1 415.9;" xml:space="preserve"
	>
<style type="text/css">
	.st0{fill:#FFFFFF;}
</style>
<path class="st0" d="M421.7,264.6c12.9-21.6,21.5-49,23.2-76.1c1.1-17.4-2.8-35.6-11.2-52.8C420.5,108.8,398,93.6,376.1,79
	c-16.3-10.9-31.7-21.2-42.6-35.9l-2-2.6c-6.4-8.6-13.7-18.4-14.8-26.7c-1.2-8.3-8.7-14.2-17-13.8c-8.4,0.6-14.9,7.5-14.9,15.9V301
	c-13.4-8.1-29.9-13.1-48-13.1c-44.1,0-80,28.7-80,64s35.9,64,80,64s80-28.7,80-64V165.6c24,9.2,63.4,32.6,74.2,87.2
	c-2,3-3.9,6.2-6.2,8.7c-5.9,6.6-5.2,16.7,1.4,22.6s16.7,5.2,22.6-1.4c4.3-4.9,8.1-10.6,11.7-16.5C421,265.7,421.4,265.2,421.7,264.6
	z"/>
<g>
	<path class="st0" d="M257.4,92.2H12.3C5.5,92.2,0,86.8,0,80s5.5-12.3,12.3-12.3h245.1c6.8,0,12.3,5.5,12.3,12.3
		S264.2,92.2,257.4,92.2z"/>
	<path class="st0" d="M232.9,165.8H12.3c-6.8,0-12.3-5.4-12.3-12.2c0-6.8,5.5-12.3,12.3-12.3h220.6c6.8,0,12.3,5.5,12.3,12.3
		C245.2,160.4,239.7,165.8,232.9,165.8z"/>
	<path class="st0" d="M171.6,239.3H12.3C5.5,239.3,0,233.8,0,227c0-6.8,5.5-12.2,12.3-12.2h159.4c6.8,0,12.3,5.5,12.3,12.3
		C184,233.9,178.3,239.3,171.6,239.3z"/>
</g>
</svg>
