<?xml version="1.0" encoding="utf-8"?>
<!-- Generator: Adobe Illustrator 23.0.0, SVG Export Plug-In . SVG Version: 6.00 Build 0)  -->
<svg version="1.1" id="레이어_1" xmlns="http://www.w3.org/2000/svg" xmlns:xlink="http://www.w3.org/1999/xlink" x="0px"
	 y="0px" width="40.7px" height="41.5px" viewBox="0 0 40.7 41.5" style="enable-background:new 0 0 40.7 41.5;"
	 xml:space="preserve">
<g>
	<path style="fill:#FFFFFF;" d="M27.7,32.6l-0.3,0.2c-2.9,1.8-6.2,2.8-9.6,2.8c-4.8,0-9.2-1.8-12.6-5.2C1.8,27,0,22.5,0,17.8
		C0,13,1.8,8.6,5.2,5.2C8.6,1.8,13,0,17.8,0S27,1.8,30.4,5.2c6,6,6.9,15.5,2.1,22.6L32.3,28l8.4,9.1l-4.8,4.4L27.7,32.6z M17.8,6.5
		c-3,0-5.9,1.2-8,3.3c-2.1,2.1-3.3,5-3.3,8c0,3,1.2,5.9,3.3,8c2.1,2.1,5,3.3,8,3.3s5.9-1.2,8-3.3c2.1-2.1,3.3-5,3.3-8
		c0-3-1.2-5.9-3.3-8C23.6,7.7,20.8,6.5,17.8,6.5"/>
</g>
</svg>
