<?xml version="1.0" encoding="utf-8"?>
<!-- Generator: Adobe Illustrator 23.0.0, SVG Export Plug-In . SVG Version: 6.00 Build 0)  -->
<svg version="1.1" id="Capa_1" xmlns="http://www.w3.org/2000/svg" xmlns:xlink="http://www.w3.org/1999/xlink" x="0px" y="0px"
	 width="193px" height="270.7px" viewBox="0 0 193 270.7" style="enable-background:new 0 0 193 270.7;" xml:space="preserve">
<style type="text/css">
	.st0{fill:#FFD064;}
	.st1{fill:#FFC250;}
	.st2{fill:#FFF9DF;}
</style>
<g>
	<path class="st0" d="M181.8,268.6l-78.1-36.9c-4.3-2-9.3-2-13.7,0L12,268.6c-3.3,1.6-7.1-0.9-7.1-4.5V3h184.1v261.1
		C188.9,267.7,185.1,270.1,181.8,268.6z"/>
</g>
<g>
	<path class="st1" d="M151.8,3v251.4l30,14.2c3.3,1.6,7.1-0.9,7.1-4.5V3L151.8,3z"/>
</g>
<g>
	<path class="st2" d="M102.1,77.8l11,22.3c0.8,1.7,2.5,2.9,4.4,3.2l24.6,3.6c4.8,0.7,6.7,6.6,3.2,9.9l-17.8,17.4
		c-1.4,1.3-2,3.3-1.7,5.2l4.2,24.5c0.8,4.8-4.2,8.4-8.5,6.1l-22-11.6c-1.7-0.9-3.7-0.9-5.4,0l-22,11.6c-4.3,2.2-9.3-1.4-8.5-6.1
		l4.2-24.5c0.3-1.9-0.3-3.8-1.7-5.2l-17.8-17.4c-3.5-3.4-1.6-9.2,3.2-9.9l24.6-3.6c1.9-0.3,3.5-1.5,4.4-3.2l11-22.3
		C93.8,73.5,100,73.5,102.1,77.8L102.1,77.8z"/>
</g>
</svg>
