<?xml version="1.0" encoding="utf-8"?>
<!-- Generator: Adobe Illustrator 23.0.0, SVG Export Plug-In . SVG Version: 6.00 Build 0)  -->
<svg version="1.1" id="레이어_1" xmlns="http://www.w3.org/2000/svg" xmlns:xlink="http://www.w3.org/1999/xlink" x="0px"
	 y="0px" width="342.7px" height="243.8px" viewBox="0 0 342.7 243.8" style="enable-background:new 0 0 342.7 243.8;"
	 xml:space="preserve">
<g>
	<g>
		<path style="fill:#FDD000;" d="M159.9,0c-48.2,0-88.6,23.1-99.2,54.1L15.6,17.4c-4.3-4.8-11.3-4.8-15.6,0V123
			c4.3,4.8,11.3,4.8,15.6,0l45-36.7c10.5,31.1,51,54.3,99.3,54.3c56.3,0,102-31.5,102-70.3C261.8,31.5,216.2,0,159.9,0"/>
	</g>
	<g>
		<path style="fill:#FFFFFF;" d="M202.4,46.9c-5.2,0-9.4,4.2-9.4,9.4s4.2,9.4,9.4,9.4s9.4-4.2,9.4-9.4
			C211.8,51.1,207.6,46.9,202.4,46.9"/>
	</g>
	<g>
		<path style="fill:#0097E1;" d="M240.8,103.1c-48.2,0-88.6,23.1-99.2,54.1l-45.1-36.7c-4.3-4.8-11.3-4.8-15.6,0v105.6
			c4.3,4.8,11.3,4.8,15.6,0l45-36.7c10.5,31.1,51,54.3,99.3,54.3c56.3,0,102-31.5,102-70.3C342.7,134.6,297.1,103.1,240.8,103.1"/>
	</g>
	<g>
		<path style="fill:#FFFFFF;" d="M283.3,150c-5.2,0-9.4,4.2-9.4,9.4s4.2,9.4,9.4,9.4c5.2,0,9.4-4.2,9.4-9.4S288.5,150,283.3,150"/>
	</g>
</g>
</svg>
