<svg width="16" height="16" viewBox="0 0 16 16" fill="none" xmlns="http://www.w3.org/2000/svg">
<g id="ic-web-link">
<g id="vector">
<path d="M3.63636 3.33333C3.469 3.33333 3.33333 3.469 3.33333 3.63636V12.3636C3.33333 12.531 3.469 12.6667 3.63636 12.6667H12.3636C12.531 12.6667 12.6667 12.531 12.6667 12.3636V9.93939C12.6667 9.5712 12.9651 9.27273 13.3333 9.27273C13.7015 9.27273 14 9.5712 14 9.93939V12.3636C14 13.2674 13.2674 14 12.3636 14H3.63636C2.73262 14 2 13.2674 2 12.3636V3.63636C2 2.73263 2.73262 2 3.63636 2H6.06061C6.4288 2 6.72727 2.29848 6.72727 2.66667C6.72727 3.03486 6.4288 3.33333 6.06061 3.33333H3.63636Z" fill="#fff"/>
<path d="M12.6667 4.27614V6.54545C12.6667 6.91364 12.9651 7.21212 13.3333 7.21212C13.7015 7.21212 14 6.91364 14 6.54545V2.66667C14 2.29848 13.7015 2 13.3333 2H9.45455C9.08636 2 8.78788 2.29848 8.78788 2.66667C8.78788 3.03486 9.08636 3.33333 9.45455 3.33333H11.7239L7.28616 7.77103C7.02581 8.03138 7.02581 8.45349 7.28616 8.71384C7.54651 8.97419 7.96862 8.97419 8.22897 8.71384L12.6667 4.27614Z" fill="#fff"/>
</g>
</g>
</svg>
