<?xml version="1.0" encoding="utf-8"?>
<!-- Generator: Adobe Illustrator 23.0.0, SVG Export Plug-In . SVG Version: 6.00 Build 0)  -->
<svg version="1.1" id="레이어_1" xmlns="http://www.w3.org/2000/svg" xmlns:xlink="http://www.w3.org/1999/xlink" x="0px"
	 y="0px" width="42px" height="36px" viewBox="0 0 42 36" style="enable-background:new 0 0 42 36;" xml:space="preserve">
<style type="text/css">
	.st0{fill:#FFFFFF;}
</style>
<g>
	<path class="st0" d="M28.2,23H13.8c-0.4,0-0.8-0.3-0.8-0.8v-8.5c0-0.4,0.3-0.8,0.8-0.8h14.5c0.4,0,0.8,0.3,0.8,0.8v8.5
		C29,22.7,28.7,23,28.2,23z"/>
	<path class="st0" d="M10.2,1H7.7C7.3,1,7,1.3,7,1.8V7H1.8C1.3,7,1,7.3,1,7.8v2.5C1,10.7,1.3,11,1.8,11h6h2.5c0.4,0,0.8-0.3,0.8-0.8
		V7.7v-6C11,1.3,10.7,1,10.2,1z"/>
	<path class="st0" d="M40.2,7H35V1.8C35,1.3,34.7,1,34.2,1h-2.5C31.3,1,31,1.3,31,1.8v6v2.5c0,0.4,0.3,0.8,0.8,0.8h2.5h6
		c0.4,0,0.8-0.3,0.8-0.8V7.8C41,7.3,40.7,7,40.2,7z"/>
	<path class="st0" d="M40.2,25h-6h-2.5c-0.4,0-0.8,0.3-0.8,0.8v2.5v6c0,0.4,0.3,0.8,0.8,0.8h2.5c0.4,0,0.8-0.3,0.8-0.8V29h5.2
		c0.4,0,0.8-0.3,0.8-0.8v-2.5C41,25.3,40.7,25,40.2,25z"/>
	<path class="st0" d="M10.2,25H7.7h-6C1.3,25,1,25.3,1,25.8v2.5C1,28.7,1.3,29,1.8,29H7v5.2C7,34.6,7.3,35,7.8,35h2.5
		c0.4,0,0.8-0.3,0.8-0.8v-6v-2.5C11,25.3,10.7,25,10.2,25z"/>
</g>
</svg>
