<?xml version="1.0" encoding="utf-8"?>
<!-- Generator: Adobe Illustrator 23.0.0, SVG Export Plug-In . SVG Version: 6.00 Build 0)  -->
<svg version="1.1" id="레이어_1" xmlns="http://www.w3.org/2000/svg" xmlns:xlink="http://www.w3.org/1999/xlink" x="0px"
	 y="0px" width="41.1px" height="42.8px" viewBox="0 0 41.1 42.8" style="enable-background:new 0 0 41.1 42.8;"
	 xml:space="preserve">
<g>
	<polygon style="fill:#51BEE3;" points="0,11 30.6,11 30.6,42.8 0,41.5 	"/>
	<polygon style="fill:#0492C6;" points="30.9,11.1 41.1,7.2 41.1,36.8 30.9,42.7 	"/>
	<path style="fill:#29AACC;" d="M0,11c0,0,0.1-0.2,0.3-0.3l30.3-0.3c0,0,0.5,0.8,0,0.9L0,11z"/>
	<path style="fill:#29AACC;" d="M41.1,7.2c0,0-0.3-0.3-0.4-0.3l-10.5,3.8c0,0,0.6,0.8,0.8,0.6L41.1,7.2z"/>
	<path style="fill:#29AACC;" d="M30.9,42.7c0,0-0.2,0.1-0.3,0.1V10.9l0.5-0.1L30.9,42.7z"/>
	<path style="fill:#29AACC;" d="M15.5,34.2c-4.5,0-8.1-3.6-8.1-8.1c0-4.5,3.6-8.1,8.1-8.1c1.2,0,2.4,0.3,3.4,0.8
		c0.2-0.1,0.3-0.1,0.5-0.2c-1.2-0.6-2.5-0.9-3.9-0.9c-4.7,0-8.5,3.8-8.5,8.5c0,4.7,3.8,8.5,8.5,8.5c2.5,0,4.7-1.1,6.2-2.7
		c-0.2,0-0.3,0-0.5-0.1C19.7,33.3,17.7,34.2,15.5,34.2z"/>
	<path style="fill:#0684C8;" d="M7.4,26.1c0,4.5,3.6,8.1,8.1,8.1c2.3,0,4.3-0.9,5.8-2.4c-3.8-0.6-6.6-3.4-6.6-6.9
		c0-2.7,1.7-5,4.3-6.2c-1-0.5-2.2-0.8-3.4-0.8C11,18,7.4,21.6,7.4,26.1z"/>
	<path style="fill:#29AACC;" d="M19.3,18.6c-0.2,0.1-0.3,0.1-0.5,0.2c2.8,1.3,4.7,4.1,4.7,7.3c0,2.2-0.9,4.2-2.3,5.7
		c0.2,0,0.3,0,0.5,0.1c1.4-1.5,2.3-3.5,2.3-5.8C24,22.8,22.1,20,19.3,18.6z"/>
	<path style="fill:#74C9DE;" d="M14.6,24.9c0,3.4,2.9,6.3,6.6,6.9c1.5-1.5,2.3-3.5,2.3-5.7c0-3.3-1.9-6.1-4.7-7.3
		C16.3,19.9,14.6,22.3,14.6,24.9z"/>
	<path style="fill:#29AACC;" d="M38.7,24.2c0,4.5-1,8.1-2.1,8.1c-1.1,0-2-3.7-1.9-8.1c0-4.5,1-8.1,2.1-8.1
		C37.9,16,38.7,19.7,38.7,24.2z"/>
	<path style="fill:#0684C8;" d="M38.5,24.2c0,4.5-0.9,8.1-1.9,8.1c-1,0-1.8-3.7-1.8-8.1c0-4.5,0.9-8.1,1.9-8.1
		C37.7,16,38.5,19.7,38.5,24.2z"/>
	<polygon style="fill:#0684C8;" points="40.8,7 7.9,6.9 0.3,10.8 30.8,10.8 	"/>
	
		<linearGradient id="SVGID_1_" gradientUnits="userSpaceOnUse" x1="-77.157" y1="-22.2718" x2="-50.213" y2="-22.2718" gradientTransform="matrix(0.4672 -6.200000e-03 1.530000e-02 1.138 51.0706 30.8127)">
		<stop  offset="6.896550e-02" style="stop-color:#27AAE1"/>
		<stop  offset="0.1315" style="stop-color:#5FCEEE"/>
		<stop  offset="0.2217" style="stop-color:#ABFFFF"/>
		<stop  offset="0.3315" style="stop-color:#8EE1EF"/>
		<stop  offset="0.5956" style="stop-color:#4B9CCA"/>
		<stop  offset="0.7192" style="stop-color:#3181BC"/>
	</linearGradient>
	<path style="fill:url(#SVGID_1_);" d="M14.6,1.8l0.1,6c0,1.3,2.8,2.3,6.3,2.3c3.5,0,6.2-1.1,6.2-2.5l0-5.9L14.6,1.8z"/>
	<path style="fill:#29AACC;" d="M27.2,1.9c0,0.9-2.8,1.7-6.3,1.7c-3.5,0-6.3-0.7-6.3-1.7c0-0.9,2.8-1.7,6.3-1.7
		C24.4,0.3,27.2,1,27.2,1.9z"/>
	<path style="fill:#0684C8;" d="M27.2,1.7c0,0.9-2.8,1.7-6.3,1.7c-3.5,0-6.3-0.7-6.3-1.7c0-0.9,2.8-1.7,6.3-1.7
		C24.4,0,27.2,0.7,27.2,1.7z"/>
</g>
</svg>
