<?xml version="1.0" encoding="utf-8"?>
<!-- Generator: Adobe Illustrator 23.0.0, SVG Export Plug-In . SVG Version: 6.00 Build 0)  -->
<svg version="1.1" id="레이어_1" xmlns="http://www.w3.org/2000/svg" xmlns:xlink="http://www.w3.org/1999/xlink" x="0px"
	 y="0px" width="320.3px" height="323.3px" viewBox="0 0 320.3 323.3" style="enable-background:new 0 0 320.3 323.3;"
	 xml:space="preserve">
<g>
	<g>
		<g>
			<polygon style="fill:#C7D6EE;stroke:#0373BD;stroke-width:1.25;stroke-miterlimit:10;" points="166,63.7 158.2,71.8 181.2,71.8 
				189,63.7 			"/>
			<polygon style="fill:#C7D6EE;stroke:#0373BD;stroke-width:1.25;stroke-miterlimit:10;" points="115.5,22.5 91.2,22.5 83.1,30.9 
				107.4,30.9 			"/>
			<polygon style="fill:#C7D6EE;stroke:#0373BD;stroke-width:1.25;stroke-miterlimit:10;" points="181.2,71.8 203.5,71.8 
				211.3,63.7 189,63.7 			"/>
			<polygon style="fill:#C7D6EE;stroke:#0373BD;stroke-width:1.25;stroke-miterlimit:10;" points="120.7,63.7 112.9,71.8 
				136.5,71.8 144.4,63.7 			"/>
			<polygon style="fill:#C7D6EE;stroke:#0373BD;stroke-width:1.25;stroke-miterlimit:10;" points="197.1,55.4 189,63.7 211.3,63.7 
				219.4,55.4 			"/>
			<polygon style="fill:#C7D6EE;stroke:#0373BD;stroke-width:1.25;stroke-miterlimit:10;" points="211.3,63.7 235,63.7 243.1,55.4 
				219.4,55.4 			"/>
			<polygon style="fill:#C7D6EE;stroke:#0373BD;stroke-width:1.25;stroke-miterlimit:10;" points="98.4,63.7 90.6,71.8 112.9,71.8 
				120.7,63.7 			"/>
			<polygon style="fill:#C7D6EE;stroke:#0373BD;stroke-width:1.25;stroke-miterlimit:10;" points="114.2,47.5 91.2,47.5 83.6,55.4 
				106.5,55.4 			"/>
			<polygon style="fill:#C7D6EE;stroke:#0373BD;stroke-width:1.25;stroke-miterlimit:10;" points="122.5,38.9 99.5,38.9 91.2,47.5 
				114.2,47.5 			"/>
			<polygon style="fill:#C7D6EE;stroke:#0373BD;stroke-width:1.25;stroke-miterlimit:10;" points="130.4,30.9 107.4,30.9 99.5,38.9 
				122.5,38.9 			"/>
			<polygon style="fill:#C7D6EE;stroke:#0373BD;stroke-width:1.25;stroke-miterlimit:10;" points="75.5,63.7 67.6,71.8 90.6,71.8 
				98.4,63.7 			"/>
			<polygon style="fill:#C7D6EE;stroke:#0373BD;stroke-width:1.25;stroke-miterlimit:10;" points="106.5,55.4 83.6,55.4 75.5,63.7 
				98.4,63.7 			"/>
			<polygon style="fill:#C7D6EE;stroke:#0373BD;stroke-width:1.25;stroke-miterlimit:10;" points="184.5,22.5 193.1,13.7 
				169.4,13.7 160.8,22.5 			"/>
			<polygon style="fill:#C7D6EE;stroke:#0373BD;stroke-width:1.25;stroke-miterlimit:10;" points="229.1,22.5 237.7,13.7 
				214.7,13.7 206.1,22.5 			"/>
			<polygon style="fill:#C7D6EE;stroke:#0373BD;stroke-width:1.25;stroke-miterlimit:10;" points="206.1,22.5 214.7,13.7 
				193.1,13.7 184.5,22.5 			"/>
			<polygon style="fill:#C7D6EE;stroke:#0373BD;stroke-width:1.25;stroke-miterlimit:10;" points="160.8,22.5 169.4,13.7 
				147.1,13.7 138.5,22.5 			"/>
			<polygon style="fill:#C7D6EE;stroke:#0373BD;stroke-width:1.25;stroke-miterlimit:10;" points="138.5,22.5 147.1,13.7 
				124.1,13.7 115.5,22.5 			"/>
			<polygon style="fill:#C7D6EE;stroke:#0373BD;stroke-width:1.25;stroke-miterlimit:10;" points="124.1,13.7 99.8,13.7 91.2,22.5 
				115.5,22.5 			"/>
			<polygon style="fill:#C7D6EE;stroke:#0373BD;stroke-width:1.25;stroke-miterlimit:10;" points="275,22.5 283.6,13.7 260,13.7 
				251.4,22.5 			"/>
			<polygon style="fill:#C7D6EE;stroke:#0373BD;stroke-width:1.25;stroke-miterlimit:10;" points="235.4,38.9 259.1,38.9 
				266.9,30.9 243.3,30.9 			"/>
			<polygon style="fill:#C7D6EE;stroke:#0373BD;stroke-width:1.25;stroke-miterlimit:10;" points="227.1,47.5 250.7,47.5 
				259.1,38.9 235.4,38.9 			"/>
			<polygon style="fill:#C7D6EE;stroke:#0373BD;stroke-width:1.25;stroke-miterlimit:10;" points="243.3,30.9 266.9,30.9 275,22.5 
				251.4,22.5 			"/>
			<polygon style="fill:#C7D6EE;stroke:#0373BD;stroke-width:1.25;stroke-miterlimit:10;" points="219.4,55.4 243.1,55.4 
				250.7,47.5 227.1,47.5 			"/>
			<polygon style="fill:#C7D6EE;stroke:#0373BD;stroke-width:1.25;stroke-miterlimit:10;" points="251.4,22.5 260,13.7 237.7,13.7 
				229.1,22.5 			"/>
			<polygon style="fill:#C7D6EE;stroke:#0373BD;stroke-width:1.25;stroke-miterlimit:10;" points="144.4,63.7 136.5,71.8 
				158.2,71.8 166,63.7 			"/>
			<polygon style="fill:#C7D6EE;stroke:#0373BD;stroke-width:1.25;stroke-miterlimit:10;" points="168.5,38.9 176.4,30.9 
				152.7,30.9 144.8,38.9 			"/>
			<polygon style="fill:#C7D6EE;stroke:#0373BD;stroke-width:1.25;stroke-miterlimit:10;" points="190.1,38.9 198,30.9 176.4,30.9 
				168.5,38.9 			"/>
			<polygon style="fill:#C7D6EE;stroke:#0373BD;stroke-width:1.25;stroke-miterlimit:10;" points="152.7,30.9 130.4,30.9 
				122.5,38.9 144.8,38.9 			"/>
			<polygon style="fill:#C7D6EE;stroke:#0373BD;stroke-width:1.25;stroke-miterlimit:10;" points="144.8,38.9 122.5,38.9 
				114.2,47.5 136.5,47.5 			"/>
			<polygon style="fill:#C7D6EE;stroke:#0373BD;stroke-width:1.25;stroke-miterlimit:10;" points="136.5,47.5 114.2,47.5 
				106.5,55.4 128.9,55.4 			"/>
			<polygon style="fill:#C7D6EE;stroke:#0373BD;stroke-width:1.25;stroke-miterlimit:10;" points="213.1,38.9 221,30.9 198,30.9 
				190.1,38.9 			"/>
			<polygon style="fill:#C7D6EE;stroke:#0373BD;stroke-width:1.25;stroke-miterlimit:10;" points="168.5,38.9 144.8,38.9 
				136.5,47.5 160.1,47.5 			"/>
			<polygon style="fill:#C7D6EE;stroke:#0373BD;stroke-width:1.25;stroke-miterlimit:10;" points="136.5,47.5 128.9,55.4 
				152.5,55.4 160.1,47.5 			"/>
			<polygon style="fill:#C7D6EE;stroke:#0373BD;stroke-width:1.25;stroke-miterlimit:10;" points="106.5,55.4 98.4,63.7 120.7,63.7 
				128.9,55.4 			"/>
			<polygon style="fill:#C7D6EE;stroke:#0373BD;stroke-width:1.25;stroke-miterlimit:10;" points="168.5,38.9 160.1,47.5 
				181.8,47.5 190.1,38.9 			"/>
			<polygon style="fill:#C7D6EE;stroke:#0373BD;stroke-width:1.25;stroke-miterlimit:10;" points="181.8,47.5 204.8,47.5 
				213.1,38.9 190.1,38.9 			"/>
			<polygon style="fill:#C7D6EE;stroke:#0373BD;stroke-width:1.25;stroke-miterlimit:10;" points="138.5,22.5 115.5,22.5 
				107.4,30.9 130.4,30.9 			"/>
			<polygon style="fill:#C7D6EE;stroke:#0373BD;stroke-width:1.25;stroke-miterlimit:10;" points="152.5,55.4 174.1,55.4 
				181.8,47.5 160.1,47.5 			"/>
			<polygon style="fill:#C7D6EE;stroke:#0373BD;stroke-width:1.25;stroke-miterlimit:10;" points="221,30.9 229.1,22.5 206.1,22.5 
				198,30.9 			"/>
			<polygon style="fill:#C7D6EE;stroke:#0373BD;stroke-width:1.25;stroke-miterlimit:10;" points="198,30.9 206.1,22.5 184.5,22.5 
				176.4,30.9 			"/>
			<polygon style="fill:#C7D6EE;stroke:#0373BD;stroke-width:1.25;stroke-miterlimit:10;" points="243.3,30.9 251.4,22.5 
				229.1,22.5 221,30.9 			"/>
			<polygon style="fill:#C7D6EE;stroke:#0373BD;stroke-width:1.25;stroke-miterlimit:10;" points="128.9,55.4 120.7,63.7 
				144.4,63.7 152.5,55.4 			"/>
			<polygon style="fill:#C7D6EE;stroke:#0373BD;stroke-width:1.25;stroke-miterlimit:10;" points="152.7,30.9 160.8,22.5 
				138.5,22.5 130.4,30.9 			"/>
			<polygon style="fill:#C7D6EE;stroke:#0373BD;stroke-width:1.25;stroke-miterlimit:10;" points="176.4,30.9 184.5,22.5 
				160.8,22.5 152.7,30.9 			"/>
			<polygon style="fill:#C7D6EE;stroke:#0373BD;stroke-width:1.25;stroke-miterlimit:10;" points="181.8,47.5 174.1,55.4 
				197.1,55.4 204.8,47.5 			"/>
			<polygon style="fill:#C7D6EE;stroke:#0373BD;stroke-width:1.25;stroke-miterlimit:10;" points="213.1,38.9 235.4,38.9 
				243.3,30.9 221,30.9 			"/>
			<polygon style="fill:#C7D6EE;stroke:#0373BD;stroke-width:1.25;stroke-miterlimit:10;" points="166,63.7 189,63.7 197.1,55.4 
				174.1,55.4 			"/>
			<polygon style="fill:#C7D6EE;stroke:#0373BD;stroke-width:1.25;stroke-miterlimit:10;" points="204.8,47.5 227.1,47.5 
				235.4,38.9 213.1,38.9 			"/>
			<polygon style="fill:#C7D6EE;stroke:#0373BD;stroke-width:1.25;stroke-miterlimit:10;" points="197.1,55.4 219.4,55.4 
				227.1,47.5 204.8,47.5 			"/>
			<polygon style="fill:#C7D6EE;stroke:#0373BD;stroke-width:1.25;stroke-miterlimit:10;" points="152.5,55.4 144.4,63.7 166,63.7 
				174.1,55.4 			"/>
			<polygon style="fill:#C7D6EE;stroke:#0373BD;stroke-width:1.25;stroke-miterlimit:10;" points="83.1,30.9 59.8,30.9 51.9,38.9 
				75.2,38.9 			"/>
			<polygon style="fill:#C7D6EE;stroke:#0373BD;stroke-width:1.25;stroke-miterlimit:10;" points="51.1,63.7 27.8,63.7 19.9,71.8 
				43.3,71.8 			"/>
			<polygon style="fill:#C7D6EE;stroke:#0373BD;stroke-width:1.25;stroke-miterlimit:10;" points="75.2,38.9 51.9,38.9 43.5,47.5 
				66.9,47.5 			"/>
			<polygon style="fill:#C7D6EE;stroke:#0373BD;stroke-width:1.25;stroke-miterlimit:10;" points="59.2,55.4 35.9,55.4 27.8,63.7 
				51.1,63.7 			"/>
			<polygon style="fill:#C7D6EE;stroke:#0373BD;stroke-width:1.25;stroke-miterlimit:10;" points="66.9,47.5 43.5,47.5 35.9,55.4 
				59.2,55.4 			"/>
			<polygon style="fill:#C7D6EE;stroke:#0373BD;stroke-width:1.25;stroke-miterlimit:10;" points="99.8,13.7 76.4,13.7 67.9,22.5 
				91.2,22.5 			"/>
			<polygon style="fill:#C7D6EE;stroke:#0373BD;stroke-width:1.25;stroke-miterlimit:10;" points="91.2,22.5 67.9,22.5 59.8,30.9 
				83.1,30.9 			"/>
			<polygon style="fill:#C7D6EE;stroke:#0373BD;stroke-width:1.25;stroke-miterlimit:10;" points="169.4,13.7 178.7,4.1 156.4,4.1 
				147.1,13.7 			"/>
			<polygon style="fill:#C7D6EE;stroke:#0373BD;stroke-width:1.25;stroke-miterlimit:10;" points="193.1,13.7 202.4,4.1 178.7,4.1 
				169.4,13.7 			"/>
			<polygon style="fill:#C7D6EE;stroke:#0373BD;stroke-width:1.25;stroke-miterlimit:10;" points="147.1,13.7 156.4,4.1 133.4,4.1 
				124.1,13.7 			"/>
			<polygon style="fill:#C7D6EE;stroke:#0373BD;stroke-width:1.25;stroke-miterlimit:10;" points="109.1,4.1 85.7,4.1 76.4,13.7 
				99.8,13.7 			"/>
			<polygon style="fill:#C7D6EE;stroke:#0373BD;stroke-width:1.25;stroke-miterlimit:10;" points="107.4,30.9 83.1,30.9 75.2,38.9 
				99.5,38.9 			"/>
			<polygon style="fill:#C7D6EE;stroke:#0373BD;stroke-width:1.25;stroke-miterlimit:10;" points="214.7,13.7 224,4.1 202.4,4.1 
				193.1,13.7 			"/>
			<polygon style="fill:#C7D6EE;stroke:#0373BD;stroke-width:1.25;stroke-miterlimit:10;" points="195.1,80.4 187.2,88.5 
				210.9,88.5 218.8,80.4 			"/>
			<polygon style="fill:#C7D6EE;stroke:#0373BD;stroke-width:1.25;stroke-miterlimit:10;" points="172.8,80.4 164.9,88.5 
				187.2,88.5 195.1,80.4 			"/>
			<polygon style="fill:#C7D6EE;stroke:#0373BD;stroke-width:1.25;stroke-miterlimit:10;" points="149.8,80.4 142,88.5 164.9,88.5 
				172.8,80.4 			"/>
			<polygon style="fill:#C7D6EE;stroke:#0373BD;stroke-width:1.25;stroke-miterlimit:10;" points="210.9,88.5 234.2,88.5 
				242.1,80.4 218.8,80.4 			"/>
			<polygon style="fill:#C7D6EE;stroke:#0373BD;stroke-width:1.25;stroke-miterlimit:10;" points="128.2,80.4 120.3,88.5 142,88.5 
				149.8,80.4 			"/>
			<polygon style="fill:#C7D6EE;stroke:#0373BD;stroke-width:1.25;stroke-miterlimit:10;" points="227.1,71.8 218.8,80.4 
				242.1,80.4 250.4,71.8 			"/>
			<polygon style="fill:#C7D6EE;stroke:#0373BD;stroke-width:1.25;stroke-miterlimit:10;" points="11.6,80.4 3.7,88.5 27,88.5 
				34.9,80.4 			"/>
			<polygon style="fill:#C7D6EE;stroke:#0373BD;stroke-width:1.25;stroke-miterlimit:10;" points="43.3,71.8 19.9,71.8 11.6,80.4 
				34.9,80.4 			"/>
			<polygon style="fill:#C7D6EE;stroke:#0373BD;stroke-width:1.25;stroke-miterlimit:10;" points="34.9,80.4 27,88.5 51.4,88.5 
				59.2,80.4 			"/>
			<polygon style="fill:#C7D6EE;stroke:#0373BD;stroke-width:1.25;stroke-miterlimit:10;" points="104.5,80.4 96.7,88.5 120.3,88.5 
				128.2,80.4 			"/>
			<polygon style="fill:#C7D6EE;stroke:#0373BD;stroke-width:1.25;stroke-miterlimit:10;" points="59.2,80.4 51.4,88.5 74.4,88.5 
				82.2,80.4 			"/>
			<polygon style="fill:#C7D6EE;stroke:#0373BD;stroke-width:1.25;stroke-miterlimit:10;" points="82.2,80.4 74.4,88.5 96.7,88.5 
				104.5,80.4 			"/>
			<polygon style="fill:#C7D6EE;stroke:#0373BD;stroke-width:1.25;stroke-miterlimit:10;" points="124.1,13.7 133.4,4.1 109.1,4.1 
				99.8,13.7 			"/>
			<polygon style="fill:#C7D6EE;stroke:#0373BD;stroke-width:1.25;stroke-miterlimit:10;" points="195.1,80.4 218.8,80.4 
				227.1,71.8 203.5,71.8 			"/>
			<polygon style="fill:#C7D6EE;stroke:#0373BD;stroke-width:1.25;stroke-miterlimit:10;" points="90.6,71.8 82.2,80.4 104.5,80.4 
				112.9,71.8 			"/>
			<polygon style="fill:#C7D6EE;stroke:#0373BD;stroke-width:1.25;stroke-miterlimit:10;" points="136.5,71.8 128.2,80.4 
				149.8,80.4 158.2,71.8 			"/>
			<polygon style="fill:#C7D6EE;stroke:#0373BD;stroke-width:1.25;stroke-miterlimit:10;" points="237.7,13.7 247,4.1 224,4.1 
				214.7,13.7 			"/>
			<polygon style="fill:#C7D6EE;stroke:#0373BD;stroke-width:1.25;stroke-miterlimit:10;" points="181.2,71.8 172.8,80.4 
				195.1,80.4 203.5,71.8 			"/>
			<polygon style="fill:#C7D6EE;stroke:#0373BD;stroke-width:1.25;stroke-miterlimit:10;" points="158.2,71.8 149.8,80.4 
				172.8,80.4 181.2,71.8 			"/>
			<polygon style="fill:#C7D6EE;stroke:#0373BD;stroke-width:1.25;stroke-miterlimit:10;" points="112.9,71.8 104.5,80.4 
				128.2,80.4 136.5,71.8 			"/>
			<polygon style="fill:#C7D6EE;stroke:#0373BD;stroke-width:1.25;stroke-miterlimit:10;" points="99.5,38.9 75.2,38.9 66.9,47.5 
				91.2,47.5 			"/>
			<polygon style="fill:#C7D6EE;stroke:#0373BD;stroke-width:1.25;stroke-miterlimit:10;" points="91.2,47.5 66.9,47.5 59.2,55.4 
				83.6,55.4 			"/>
			<polygon style="fill:#C7D6EE;stroke:#0373BD;stroke-width:1.25;stroke-miterlimit:10;" points="43.3,71.8 34.9,80.4 59.2,80.4 
				67.6,71.8 			"/>
			<polygon style="fill:#C7D6EE;stroke:#0373BD;stroke-width:1.25;stroke-miterlimit:10;" points="83.6,55.4 59.2,55.4 51.1,63.7 
				75.5,63.7 			"/>
			<polygon style="fill:#C7D6EE;stroke:#0373BD;stroke-width:1.25;stroke-miterlimit:10;" points="75.5,63.7 51.1,63.7 43.3,71.8 
				67.6,71.8 			"/>
			<polygon style="fill:#C7D6EE;stroke:#0373BD;stroke-width:1.25;stroke-miterlimit:10;" points="67.6,71.8 59.2,80.4 82.2,80.4 
				90.6,71.8 			"/>
			<polygon style="fill:#C7D6EE;stroke:#0373BD;stroke-width:1.25;stroke-miterlimit:10;" points="307,13.7 316.3,4.1 292.9,4.1 
				283.6,13.7 			"/>
			<polygon style="fill:#C7D6EE;stroke:#0373BD;stroke-width:1.25;stroke-miterlimit:10;" points="275,22.5 298.4,22.5 307,13.7 
				283.6,13.7 			"/>
			<polygon style="fill:#C7D6EE;stroke:#0373BD;stroke-width:1.25;stroke-miterlimit:10;" points="260,13.7 269.3,4.1 247,4.1 
				237.7,13.7 			"/>
			<polygon style="fill:#C7D6EE;stroke:#0373BD;stroke-width:1.25;stroke-miterlimit:10;" points="211.3,63.7 203.5,71.8 
				227.1,71.8 235,63.7 			"/>
			<polygon style="fill:#C7D6EE;stroke:#0373BD;stroke-width:1.25;stroke-miterlimit:10;" points="266.9,30.9 290.3,30.9 
				298.4,22.5 275,22.5 			"/>
			<polygon style="fill:#C7D6EE;stroke:#0373BD;stroke-width:1.25;stroke-miterlimit:10;" points="283.6,13.7 292.9,4.1 269.3,4.1 
				260,13.7 			"/>
			<polygon style="fill:#C7D6EE;stroke:#0373BD;stroke-width:1.25;stroke-miterlimit:10;" points="227.1,71.8 250.4,71.8 
				258.3,63.7 235,63.7 			"/>
			<polygon style="fill:#C7D6EE;stroke:#0373BD;stroke-width:1.25;stroke-miterlimit:10;" points="235,63.7 258.3,63.7 266.4,55.4 
				243.1,55.4 			"/>
			<polygon style="fill:#C7D6EE;stroke:#0373BD;stroke-width:1.25;stroke-miterlimit:10;" points="259.1,38.9 282.4,38.9 
				290.3,30.9 266.9,30.9 			"/>
			<polygon style="fill:#C7D6EE;stroke:#0373BD;stroke-width:1.25;stroke-miterlimit:10;" points="250.7,47.5 274,47.5 282.4,38.9 
				259.1,38.9 			"/>
			<polygon style="fill:#C7D6EE;stroke:#0373BD;stroke-width:1.25;stroke-miterlimit:10;" points="243.1,55.4 266.4,55.4 274,47.5 
				250.7,47.5 			"/>
		</g>
		<g>
			<rect x="142" y="251" style="fill:#95B5DF;stroke:#0373BD;stroke-width:1.25;stroke-miterlimit:10;" width="23" height="22.1"/>
			
				<rect x="27" y="138.5" style="fill:#95B5DF;stroke:#0373BD;stroke-width:1.25;stroke-miterlimit:10;" width="24.4" height="22.8"/>
			
				<rect x="165.1" y="251" style="fill:#95B5DF;stroke:#0373BD;stroke-width:1.25;stroke-miterlimit:10;" width="22.3" height="22.1"/>
			
				<rect x="96.7" y="251" style="fill:#95B5DF;stroke:#0373BD;stroke-width:1.25;stroke-miterlimit:10;" width="23.7" height="22.1"/>
			
				<rect x="165.1" y="228.3" style="fill:#95B5DF;stroke:#0373BD;stroke-width:1.25;stroke-miterlimit:10;" width="22.3" height="22.8"/>
			
				<rect x="187.4" y="228.3" style="fill:#95B5DF;stroke:#0373BD;stroke-width:1.25;stroke-miterlimit:10;" width="23.7" height="22.8"/>
			
				<rect x="74.4" y="251" style="fill:#95B5DF;stroke:#0373BD;stroke-width:1.25;stroke-miterlimit:10;" width="22.3" height="22.1"/>
			
				<rect x="51.3" y="206.8" style="fill:#95B5DF;stroke:#0373BD;stroke-width:1.25;stroke-miterlimit:10;" width="23" height="21.4"/>
			
				<rect x="51.3" y="183.4" style="fill:#95B5DF;stroke:#0373BD;stroke-width:1.25;stroke-miterlimit:10;" width="23" height="23.4"/>
			
				<rect x="51.3" y="161.3" style="fill:#95B5DF;stroke:#0373BD;stroke-width:1.25;stroke-miterlimit:10;" width="23" height="22.1"/>
			<rect x="51.3" y="251" style="fill:#95B5DF;stroke:#0373BD;stroke-width:1.25;stroke-miterlimit:10;" width="23" height="22.1"/>
			
				<rect x="51.3" y="228.3" style="fill:#95B5DF;stroke:#0373BD;stroke-width:1.25;stroke-miterlimit:10;" width="23" height="22.8"/>
			
				<rect x="96.7" y="114.4" style="fill:#95B5DF;stroke:#0373BD;stroke-width:1.25;stroke-miterlimit:10;" width="23.7" height="24.1"/>
			
				<rect x="142" y="114.4" style="fill:#95B5DF;stroke:#0373BD;stroke-width:1.25;stroke-miterlimit:10;" width="23" height="24.1"/>
			
				<rect x="120.4" y="114.4" style="fill:#95B5DF;stroke:#0373BD;stroke-width:1.25;stroke-miterlimit:10;" width="21.7" height="24.1"/>
			
				<rect x="74.4" y="114.4" style="fill:#95B5DF;stroke:#0373BD;stroke-width:1.25;stroke-miterlimit:10;" width="22.3" height="24.1"/>
			
				<rect x="51.3" y="114.4" style="fill:#95B5DF;stroke:#0373BD;stroke-width:1.25;stroke-miterlimit:10;" width="23" height="24.1"/>
			
				<rect x="27" y="114.4" style="fill:#95B5DF;stroke:#0373BD;stroke-width:1.25;stroke-miterlimit:10;" width="24.4" height="24.1"/>
			
				<rect x="187.4" y="114.4" style="fill:#95B5DF;stroke:#0373BD;stroke-width:1.25;stroke-miterlimit:10;" width="23.7" height="24.1"/>
			
				<rect x="187.4" y="161.3" style="fill:#95B5DF;stroke:#0373BD;stroke-width:1.25;stroke-miterlimit:10;" width="23.7" height="22.1"/>
			
				<rect x="187.4" y="183.4" style="fill:#95B5DF;stroke:#0373BD;stroke-width:1.25;stroke-miterlimit:10;" width="23.7" height="23.4"/>
			
				<rect x="187.4" y="138.5" style="fill:#95B5DF;stroke:#0373BD;stroke-width:1.25;stroke-miterlimit:10;" width="23.7" height="22.8"/>
			
				<rect x="187.4" y="206.8" style="fill:#95B5DF;stroke:#0373BD;stroke-width:1.25;stroke-miterlimit:10;" width="23.7" height="21.4"/>
			
				<rect x="165.1" y="114.4" style="fill:#95B5DF;stroke:#0373BD;stroke-width:1.25;stroke-miterlimit:10;" width="22.3" height="24.1"/>
			
				<rect x="120.4" y="251" style="fill:#95B5DF;stroke:#0373BD;stroke-width:1.25;stroke-miterlimit:10;" width="21.7" height="22.1"/>
			
				<rect x="96.7" y="161.3" style="fill:#95B5DF;stroke:#0373BD;stroke-width:1.25;stroke-miterlimit:10;" width="23.7" height="22.1"/>
			
				<rect x="120.4" y="161.3" style="fill:#95B5DF;stroke:#0373BD;stroke-width:1.25;stroke-miterlimit:10;" width="21.7" height="22.1"/>
			
				<rect x="74.4" y="161.3" style="fill:#95B5DF;stroke:#0373BD;stroke-width:1.25;stroke-miterlimit:10;" width="22.3" height="22.1"/>
			
				<rect x="74.4" y="183.4" style="fill:#95B5DF;stroke:#0373BD;stroke-width:1.25;stroke-miterlimit:10;" width="22.3" height="23.4"/>
			
				<rect x="74.4" y="206.8" style="fill:#95B5DF;stroke:#0373BD;stroke-width:1.25;stroke-miterlimit:10;" width="22.3" height="21.4"/>
			
				<rect x="142" y="161.3" style="fill:#95B5DF;stroke:#0373BD;stroke-width:1.25;stroke-miterlimit:10;" width="23" height="22.1"/>
			
				<rect x="96.7" y="183.4" style="fill:#95B5DF;stroke:#0373BD;stroke-width:1.25;stroke-miterlimit:10;" width="23.7" height="23.4"/>
			
				<rect x="96.7" y="206.8" style="fill:#95B5DF;stroke:#0373BD;stroke-width:1.25;stroke-miterlimit:10;" width="23.7" height="21.4"/>
			
				<rect x="74.4" y="228.3" style="fill:#95B5DF;stroke:#0373BD;stroke-width:1.25;stroke-miterlimit:10;" width="22.3" height="22.8"/>
			
				<rect x="120.4" y="183.4" style="fill:#95B5DF;stroke:#0373BD;stroke-width:1.25;stroke-miterlimit:10;" width="21.7" height="23.4"/>
			
				<rect x="142" y="183.4" style="fill:#95B5DF;stroke:#0373BD;stroke-width:1.25;stroke-miterlimit:10;" width="23" height="23.4"/>
			
				<rect x="51.3" y="138.5" style="fill:#95B5DF;stroke:#0373BD;stroke-width:1.25;stroke-miterlimit:10;" width="23" height="22.8"/>
			
				<rect x="120.4" y="206.8" style="fill:#95B5DF;stroke:#0373BD;stroke-width:1.25;stroke-miterlimit:10;" width="21.7" height="21.4"/>
			
				<rect x="142" y="138.5" style="fill:#95B5DF;stroke:#0373BD;stroke-width:1.25;stroke-miterlimit:10;" width="23" height="22.8"/>
			
				<rect x="120.4" y="138.5" style="fill:#95B5DF;stroke:#0373BD;stroke-width:1.25;stroke-miterlimit:10;" width="21.7" height="22.8"/>
			
				<rect x="165.1" y="138.5" style="fill:#95B5DF;stroke:#0373BD;stroke-width:1.25;stroke-miterlimit:10;" width="22.3" height="22.8"/>
			
				<rect x="96.7" y="228.3" style="fill:#95B5DF;stroke:#0373BD;stroke-width:1.25;stroke-miterlimit:10;" width="23.7" height="22.8"/>
			
				<rect x="74.4" y="138.5" style="fill:#95B5DF;stroke:#0373BD;stroke-width:1.25;stroke-miterlimit:10;" width="22.3" height="22.8"/>
			
				<rect x="96.7" y="138.5" style="fill:#95B5DF;stroke:#0373BD;stroke-width:1.25;stroke-miterlimit:10;" width="23.7" height="22.8"/>
			
				<rect x="142" y="206.8" style="fill:#95B5DF;stroke:#0373BD;stroke-width:1.25;stroke-miterlimit:10;" width="23" height="21.4"/>
			
				<rect x="165.1" y="161.3" style="fill:#95B5DF;stroke:#0373BD;stroke-width:1.25;stroke-miterlimit:10;" width="22.3" height="22.1"/>
			
				<rect x="142" y="228.3" style="fill:#95B5DF;stroke:#0373BD;stroke-width:1.25;stroke-miterlimit:10;" width="23" height="22.8"/>
			
				<rect x="165.1" y="183.4" style="fill:#95B5DF;stroke:#0373BD;stroke-width:1.25;stroke-miterlimit:10;" width="22.3" height="23.4"/>
			
				<rect x="165.1" y="206.8" style="fill:#95B5DF;stroke:#0373BD;stroke-width:1.25;stroke-miterlimit:10;" width="22.3" height="21.4"/>
			
				<rect x="120.4" y="228.3" style="fill:#95B5DF;stroke:#0373BD;stroke-width:1.25;stroke-miterlimit:10;" width="21.7" height="22.8"/>
			
				<rect x="3.6" y="161.3" style="fill:#95B5DF;stroke:#0373BD;stroke-width:1.25;stroke-miterlimit:10;" width="23.4" height="22.1"/>
			
				<rect x="3.6" y="251" style="fill:#95B5DF;stroke:#0373BD;stroke-width:1.25;stroke-miterlimit:10;" width="23.4" height="22.1"/>
			
				<rect x="3.6" y="183.4" style="fill:#95B5DF;stroke:#0373BD;stroke-width:1.25;stroke-miterlimit:10;" width="23.4" height="23.4"/>
			
				<rect x="3.6" y="228.3" style="fill:#95B5DF;stroke:#0373BD;stroke-width:1.25;stroke-miterlimit:10;" width="23.4" height="22.8"/>
			
				<rect x="3.6" y="206.8" style="fill:#95B5DF;stroke:#0373BD;stroke-width:1.25;stroke-miterlimit:10;" width="23.4" height="21.4"/>
			
				<rect x="3.6" y="114.4" style="fill:#95B5DF;stroke:#0373BD;stroke-width:1.25;stroke-miterlimit:10;" width="23.4" height="24.1"/>
			
				<rect x="3.6" y="138.5" style="fill:#95B5DF;stroke:#0373BD;stroke-width:1.25;stroke-miterlimit:10;" width="23.4" height="22.8"/>
			
				<rect x="74.4" y="88.3" style="fill:#95B5DF;stroke:#0373BD;stroke-width:1.25;stroke-miterlimit:10;" width="22.3" height="26.1"/>
			
				<rect x="96.7" y="88.3" style="fill:#95B5DF;stroke:#0373BD;stroke-width:1.25;stroke-miterlimit:10;" width="23.7" height="26.1"/>
			
				<rect x="51.3" y="88.3" style="fill:#95B5DF;stroke:#0373BD;stroke-width:1.25;stroke-miterlimit:10;" width="23" height="26.1"/>
			
				<rect x="3.6" y="88.3" style="fill:#95B5DF;stroke:#0373BD;stroke-width:1.25;stroke-miterlimit:10;" width="23.4" height="26.1"/>
			
				<rect x="27" y="161.3" style="fill:#95B5DF;stroke:#0373BD;stroke-width:1.25;stroke-miterlimit:10;" width="24.4" height="22.1"/>
			
				<rect x="120.4" y="88.3" style="fill:#95B5DF;stroke:#0373BD;stroke-width:1.25;stroke-miterlimit:10;" width="21.7" height="26.1"/>
			
				<rect x="187.4" y="296.6" style="fill:#95B5DF;stroke:#0373BD;stroke-width:1.25;stroke-miterlimit:10;" width="23.7" height="22.1"/>
			
				<rect x="165.1" y="296.6" style="fill:#95B5DF;stroke:#0373BD;stroke-width:1.25;stroke-miterlimit:10;" width="22.3" height="22.1"/>
			
				<rect x="142" y="296.6" style="fill:#95B5DF;stroke:#0373BD;stroke-width:1.25;stroke-miterlimit:10;" width="23" height="22.1"/>
			
				<rect x="211.1" y="296.6" style="fill:#95B5DF;stroke:#0373BD;stroke-width:1.25;stroke-miterlimit:10;" width="23.4" height="22.1"/>
			
				<rect x="120.4" y="296.6" style="fill:#95B5DF;stroke:#0373BD;stroke-width:1.25;stroke-miterlimit:10;" width="21.7" height="22.1"/>
			
				<rect x="211.1" y="273.1" style="fill:#95B5DF;stroke:#0373BD;stroke-width:1.25;stroke-miterlimit:10;" width="23.4" height="23.4"/>
			
				<rect x="3.6" y="296.6" style="fill:#95B5DF;stroke:#0373BD;stroke-width:1.25;stroke-miterlimit:10;" width="23.4" height="22.1"/>
			
				<rect x="3.6" y="273.1" style="fill:#95B5DF;stroke:#0373BD;stroke-width:1.25;stroke-miterlimit:10;" width="23.4" height="23.4"/>
			
				<rect x="27" y="296.6" style="fill:#95B5DF;stroke:#0373BD;stroke-width:1.25;stroke-miterlimit:10;" width="24.4" height="22.1"/>
			
				<rect x="96.7" y="296.6" style="fill:#95B5DF;stroke:#0373BD;stroke-width:1.25;stroke-miterlimit:10;" width="23.7" height="22.1"/>
			
				<rect x="51.3" y="296.6" style="fill:#95B5DF;stroke:#0373BD;stroke-width:1.25;stroke-miterlimit:10;" width="23" height="22.1"/>
			
				<rect x="74.4" y="296.6" style="fill:#95B5DF;stroke:#0373BD;stroke-width:1.25;stroke-miterlimit:10;" width="22.3" height="22.1"/>
			
				<rect x="27" y="88.3" style="fill:#95B5DF;stroke:#0373BD;stroke-width:1.25;stroke-miterlimit:10;" width="24.4" height="26.1"/>
			
				<rect x="187.4" y="273.1" style="fill:#95B5DF;stroke:#0373BD;stroke-width:1.25;stroke-miterlimit:10;" width="23.7" height="23.4"/>
			
				<rect x="74.4" y="273.1" style="fill:#95B5DF;stroke:#0373BD;stroke-width:1.25;stroke-miterlimit:10;" width="22.3" height="23.4"/>
			
				<rect x="120.4" y="273.1" style="fill:#95B5DF;stroke:#0373BD;stroke-width:1.25;stroke-miterlimit:10;" width="21.7" height="23.4"/>
			<rect x="142" y="88.3" style="fill:#95B5DF;stroke:#0373BD;stroke-width:1.25;stroke-miterlimit:10;" width="23" height="26.1"/>
			
				<rect x="165.1" y="273.1" style="fill:#95B5DF;stroke:#0373BD;stroke-width:1.25;stroke-miterlimit:10;" width="22.3" height="23.4"/>
			
				<rect x="142" y="273.1" style="fill:#95B5DF;stroke:#0373BD;stroke-width:1.25;stroke-miterlimit:10;" width="23" height="23.4"/>
			
				<rect x="96.7" y="273.1" style="fill:#95B5DF;stroke:#0373BD;stroke-width:1.25;stroke-miterlimit:10;" width="23.7" height="23.4"/>
			
				<rect x="27" y="183.4" style="fill:#95B5DF;stroke:#0373BD;stroke-width:1.25;stroke-miterlimit:10;" width="24.4" height="23.4"/>
			
				<rect x="27" y="206.8" style="fill:#95B5DF;stroke:#0373BD;stroke-width:1.25;stroke-miterlimit:10;" width="24.4" height="21.4"/>
			
				<rect x="27" y="273.1" style="fill:#95B5DF;stroke:#0373BD;stroke-width:1.25;stroke-miterlimit:10;" width="24.4" height="23.4"/>
			
				<rect x="27" y="228.3" style="fill:#95B5DF;stroke:#0373BD;stroke-width:1.25;stroke-miterlimit:10;" width="24.4" height="22.8"/>
			<rect x="27" y="251" style="fill:#95B5DF;stroke:#0373BD;stroke-width:1.25;stroke-miterlimit:10;" width="24.4" height="22.1"/>
			
				<rect x="51.3" y="273.1" style="fill:#95B5DF;stroke:#0373BD;stroke-width:1.25;stroke-miterlimit:10;" width="23" height="23.4"/>
			
				<rect x="211.1" y="88.3" style="fill:#95B5DF;stroke:#0373BD;stroke-width:1.25;stroke-miterlimit:10;" width="23.4" height="26.1"/>
			
				<rect x="211.1" y="114.4" style="fill:#95B5DF;stroke:#0373BD;stroke-width:1.25;stroke-miterlimit:10;" width="23.4" height="24.1"/>
			
				<rect x="165.1" y="88.3" style="fill:#95B5DF;stroke:#0373BD;stroke-width:1.25;stroke-miterlimit:10;" width="22.3" height="26.1"/>
			
				<rect x="187.4" y="251" style="fill:#95B5DF;stroke:#0373BD;stroke-width:1.25;stroke-miterlimit:10;" width="23.7" height="22.1"/>
			
				<rect x="211.1" y="138.5" style="fill:#95B5DF;stroke:#0373BD;stroke-width:1.25;stroke-miterlimit:10;" width="23.4" height="22.8"/>
			
				<rect x="187.4" y="88.3" style="fill:#95B5DF;stroke:#0373BD;stroke-width:1.25;stroke-miterlimit:10;" width="23.7" height="26.1"/>
			
				<rect x="211.1" y="251" style="fill:#95B5DF;stroke:#0373BD;stroke-width:1.25;stroke-miterlimit:10;" width="23.4" height="22.1"/>
			
				<rect x="211.1" y="228.3" style="fill:#95B5DF;stroke:#0373BD;stroke-width:1.25;stroke-miterlimit:10;" width="23.4" height="22.8"/>
			
				<rect x="211.1" y="161.3" style="fill:#95B5DF;stroke:#0373BD;stroke-width:1.25;stroke-miterlimit:10;" width="23.4" height="22.1"/>
			
				<rect x="211.1" y="183.4" style="fill:#95B5DF;stroke:#0373BD;stroke-width:1.25;stroke-miterlimit:10;" width="23.4" height="23.4"/>
			
				<rect x="211.1" y="206.8" style="fill:#95B5DF;stroke:#0373BD;stroke-width:1.25;stroke-miterlimit:10;" width="23.4" height="21.4"/>
		</g>
		<g>
			<polygon style="fill:#2484C6;stroke:#0373BD;stroke-width:1.25;stroke-miterlimit:10;" points="283.4,201.2 283.5,223.3 
				291.7,214.9 291.6,192.8 			"/>
			<polygon style="fill:#2484C6;stroke:#0373BD;stroke-width:1.25;stroke-miterlimit:10;" points="250.6,121.6 241.8,130.4 
				241.9,153.2 250.6,144.4 			"/>
			<polygon style="fill:#2484C6;stroke:#0373BD;stroke-width:1.25;stroke-miterlimit:10;" points="291.7,214.9 299.7,206.8 
				299.7,184.7 291.6,192.8 			"/>
			<polygon style="fill:#2484C6;stroke:#0373BD;stroke-width:1.25;stroke-miterlimit:10;" points="267.1,217.7 267.2,239.8 
				275.7,231.2 275.6,209.1 			"/>
			<polygon style="fill:#2484C6;stroke:#0373BD;stroke-width:1.25;stroke-miterlimit:10;" points="291.6,170 291.6,192.8 
				299.7,184.7 299.6,161.9 			"/>
			<polygon style="fill:#2484C6;stroke:#0373BD;stroke-width:1.25;stroke-miterlimit:10;" points="299.7,184.7 308.1,176.1 
				308.1,153.3 299.6,161.9 			"/>
			<polygon style="fill:#2484C6;stroke:#0373BD;stroke-width:1.25;stroke-miterlimit:10;" points="259.1,225.8 259.2,247.9 
				267.2,239.8 267.1,217.7 			"/>
			<polygon style="fill:#2484C6;stroke:#0373BD;stroke-width:1.25;stroke-miterlimit:10;" points="259,181.6 250.8,189.9 
				250.8,211.4 259.1,203 			"/>
			<polygon style="fill:#2484C6;stroke:#0373BD;stroke-width:1.25;stroke-miterlimit:10;" points="259,158.1 250.7,166.5 
				250.8,189.9 259,181.6 			"/>
			<polygon style="fill:#2484C6;stroke:#0373BD;stroke-width:1.25;stroke-miterlimit:10;" points="258.9,136 250.6,144.4 
				250.7,166.5 259,158.1 			"/>
			<polygon style="fill:#2484C6;stroke:#0373BD;stroke-width:1.25;stroke-miterlimit:10;" points="250.9,234.1 250.9,256.2 
				259.2,247.9 259.1,225.8 			"/>
			<polygon style="fill:#2484C6;stroke:#0373BD;stroke-width:1.25;stroke-miterlimit:10;" points="259.1,203 250.8,211.4 
				250.9,234.1 259.1,225.8 			"/>
			<polygon style="fill:#2484C6;stroke:#0373BD;stroke-width:1.25;stroke-miterlimit:10;" points="275.3,96.5 275.3,72.4 266.8,81 
				266.8,105.1 			"/>
			<polygon style="fill:#2484C6;stroke:#0373BD;stroke-width:1.25;stroke-miterlimit:10;" points="291.4,80.3 291.3,56.1 283,64.5 
				283.1,88.6 			"/>
			<polygon style="fill:#2484C6;stroke:#0373BD;stroke-width:1.25;stroke-miterlimit:10;" points="283.1,88.6 283,64.5 275.3,72.4 
				275.3,96.5 			"/>
			<polygon style="fill:#2484C6;stroke:#0373BD;stroke-width:1.25;stroke-miterlimit:10;" points="266.8,105.1 266.8,81 258.8,89.1 
				258.8,113.2 			"/>
			<polygon style="fill:#2484C6;stroke:#0373BD;stroke-width:1.25;stroke-miterlimit:10;" points="258.8,113.2 258.8,89.1 
				250.5,97.5 250.6,121.6 			"/>
			<polygon style="fill:#2484C6;stroke:#0373BD;stroke-width:1.25;stroke-miterlimit:10;" points="250.5,97.5 241.8,106.3 
				241.8,130.4 250.6,121.6 			"/>
			<polygon style="fill:#2484C6;stroke:#0373BD;stroke-width:1.25;stroke-miterlimit:10;" points="307.9,63.5 307.8,39.4 299.3,48 
				299.4,72.1 			"/>
			<polygon style="fill:#2484C6;stroke:#0373BD;stroke-width:1.25;stroke-miterlimit:10;" points="299.5,117 308,108.4 307.9,86.3 
				299.4,94.9 			"/>
			<polygon style="fill:#2484C6;stroke:#0373BD;stroke-width:1.25;stroke-miterlimit:10;" points="299.5,140.5 308,131.9 308,108.4 
				299.5,117 			"/>
			<polygon style="fill:#2484C6;stroke:#0373BD;stroke-width:1.25;stroke-miterlimit:10;" points="299.4,94.9 307.9,86.3 
				307.9,63.5 299.4,72.1 			"/>
			<polygon style="fill:#2484C6;stroke:#0373BD;stroke-width:1.25;stroke-miterlimit:10;" points="299.6,161.9 308.1,153.3 
				308,131.9 299.5,140.5 			"/>
			<polygon style="fill:#2484C6;stroke:#0373BD;stroke-width:1.25;stroke-miterlimit:10;" points="299.4,72.1 299.3,48 291.3,56.1 
				291.4,80.3 			"/>
			<polygon style="fill:#2484C6;stroke:#0373BD;stroke-width:1.25;stroke-miterlimit:10;" points="275.6,209.1 275.7,231.2 
				283.5,223.3 283.4,201.2 			"/>
			<polygon style="fill:#2484C6;stroke:#0373BD;stroke-width:1.25;stroke-miterlimit:10;" points="275.5,141.4 275.4,119.3 
				266.9,127.9 267,150 			"/>
			<polygon style="fill:#2484C6;stroke:#0373BD;stroke-width:1.25;stroke-miterlimit:10;" points="283.2,133.5 283.2,111.4 
				275.4,119.3 275.5,141.4 			"/>
			<polygon style="fill:#2484C6;stroke:#0373BD;stroke-width:1.25;stroke-miterlimit:10;" points="266.9,127.9 258.9,136 259,158.1 
				267,150 			"/>
			<polygon style="fill:#2484C6;stroke:#0373BD;stroke-width:1.25;stroke-miterlimit:10;" points="267,150 259,158.1 259,181.6 
				267,173.4 			"/>
			<polygon style="fill:#2484C6;stroke:#0373BD;stroke-width:1.25;stroke-miterlimit:10;" points="267,173.4 259,181.6 259.1,203 
				267.1,194.9 			"/>
			<polygon style="fill:#2484C6;stroke:#0373BD;stroke-width:1.25;stroke-miterlimit:10;" points="291.5,125.1 291.4,103 
				283.2,111.4 283.2,133.5 			"/>
			<polygon style="fill:#2484C6;stroke:#0373BD;stroke-width:1.25;stroke-miterlimit:10;" points="275.5,141.4 267,150 267,173.4 
				275.5,164.8 			"/>
			<polygon style="fill:#2484C6;stroke:#0373BD;stroke-width:1.25;stroke-miterlimit:10;" points="267,173.4 267.1,194.9 
				275.6,186.3 275.5,164.8 			"/>
			<polygon style="fill:#2484C6;stroke:#0373BD;stroke-width:1.25;stroke-miterlimit:10;" points="259.1,203 259.1,225.8 
				267.1,217.7 267.1,194.9 			"/>
			<polygon style="fill:#2484C6;stroke:#0373BD;stroke-width:1.25;stroke-miterlimit:10;" points="275.5,141.4 275.5,164.8 
				283.3,157 283.2,133.5 			"/>
			<polygon style="fill:#2484C6;stroke:#0373BD;stroke-width:1.25;stroke-miterlimit:10;" points="283.3,157 291.5,148.6 
				291.5,125.1 283.2,133.5 			"/>
			<polygon style="fill:#2484C6;stroke:#0373BD;stroke-width:1.25;stroke-miterlimit:10;" points="258.8,113.2 250.6,121.6 
				250.6,144.4 258.9,136 			"/>
			<polygon style="fill:#2484C6;stroke:#0373BD;stroke-width:1.25;stroke-miterlimit:10;" points="275.6,186.3 283.3,178.4 
				283.3,157 275.5,164.8 			"/>
			<polygon style="fill:#2484C6;stroke:#0373BD;stroke-width:1.25;stroke-miterlimit:10;" points="291.4,103 291.4,80.3 283.1,88.6 
				283.2,111.4 			"/>
			<polygon style="fill:#2484C6;stroke:#0373BD;stroke-width:1.25;stroke-miterlimit:10;" points="283.2,111.4 283.1,88.6 
				275.3,96.5 275.4,119.3 			"/>
			<polygon style="fill:#2484C6;stroke:#0373BD;stroke-width:1.25;stroke-miterlimit:10;" points="299.4,94.9 299.4,72.1 
				291.4,80.3 291.4,103 			"/>
			<polygon style="fill:#2484C6;stroke:#0373BD;stroke-width:1.25;stroke-miterlimit:10;" points="267.1,194.9 267.1,217.7 
				275.6,209.1 275.6,186.3 			"/>
			<polygon style="fill:#2484C6;stroke:#0373BD;stroke-width:1.25;stroke-miterlimit:10;" points="266.9,127.9 266.8,105.1 
				258.8,113.2 258.9,136 			"/>
			<polygon style="fill:#2484C6;stroke:#0373BD;stroke-width:1.25;stroke-miterlimit:10;" points="275.4,119.3 275.3,96.5 
				266.8,105.1 266.9,127.9 			"/>
			<polygon style="fill:#2484C6;stroke:#0373BD;stroke-width:1.25;stroke-miterlimit:10;" points="283.3,157 283.3,178.4 291.6,170 
				291.5,148.6 			"/>
			<polygon style="fill:#2484C6;stroke:#0373BD;stroke-width:1.25;stroke-miterlimit:10;" points="291.5,125.1 299.5,117 
				299.4,94.9 291.4,103 			"/>
			<polygon style="fill:#2484C6;stroke:#0373BD;stroke-width:1.25;stroke-miterlimit:10;" points="283.4,201.2 291.6,192.8 
				291.6,170 283.3,178.4 			"/>
			<polygon style="fill:#2484C6;stroke:#0373BD;stroke-width:1.25;stroke-miterlimit:10;" points="291.5,148.6 299.5,140.5 
				299.5,117 291.5,125.1 			"/>
			<polygon style="fill:#2484C6;stroke:#0373BD;stroke-width:1.25;stroke-miterlimit:10;" points="291.6,170 299.6,161.9 
				299.5,140.5 291.5,148.6 			"/>
			<polygon style="fill:#2484C6;stroke:#0373BD;stroke-width:1.25;stroke-miterlimit:10;" points="275.6,186.3 275.6,209.1 
				283.4,201.2 283.3,178.4 			"/>
			<polygon style="fill:#2484C6;stroke:#0373BD;stroke-width:1.25;stroke-miterlimit:10;" points="241.9,153.2 233.5,161.7 
				233.6,183.8 242,175.3 			"/>
			<polygon style="fill:#2484C6;stroke:#0373BD;stroke-width:1.25;stroke-miterlimit:10;" points="242.1,243 233.8,251.5 
				233.8,273.6 242.2,265.1 			"/>
			<polygon style="fill:#2484C6;stroke:#0373BD;stroke-width:1.25;stroke-miterlimit:10;" points="242,175.3 233.6,183.8 
				233.7,207.3 242,198.8 			"/>
			<polygon style="fill:#2484C6;stroke:#0373BD;stroke-width:1.25;stroke-miterlimit:10;" points="242.1,220.2 233.7,228.7 
				233.8,251.5 242.1,243 			"/>
			<polygon style="fill:#2484C6;stroke:#0373BD;stroke-width:1.25;stroke-miterlimit:10;" points="242,198.8 233.7,207.3 
				233.7,228.7 242.1,220.2 			"/>
			<polygon style="fill:#2484C6;stroke:#0373BD;stroke-width:1.25;stroke-miterlimit:10;" points="241.8,106.3 233.4,114.8 
				233.5,138.9 241.8,130.4 			"/>
			<polygon style="fill:#2484C6;stroke:#0373BD;stroke-width:1.25;stroke-miterlimit:10;" points="241.8,130.4 233.5,138.9 
				233.5,161.7 241.9,153.2 			"/>
			<polygon style="fill:#2484C6;stroke:#0373BD;stroke-width:1.25;stroke-miterlimit:10;" points="266.8,81 266.7,54.9 258.7,63 
				258.8,89.1 			"/>
			<polygon style="fill:#2484C6;stroke:#0373BD;stroke-width:1.25;stroke-miterlimit:10;" points="275.3,72.4 275.2,46.2 
				266.7,54.9 266.8,81 			"/>
			<polygon style="fill:#2484C6;stroke:#0373BD;stroke-width:1.25;stroke-miterlimit:10;" points="258.8,89.1 258.7,63 250.5,71.3 
				250.5,97.5 			"/>
			<polygon style="fill:#2484C6;stroke:#0373BD;stroke-width:1.25;stroke-miterlimit:10;" points="241.7,80.2 233.3,88.7 
				233.4,114.8 241.8,106.3 			"/>
			<polygon style="fill:#2484C6;stroke:#0373BD;stroke-width:1.25;stroke-miterlimit:10;" points="250.6,144.4 241.9,153.2 
				242,175.3 250.7,166.5 			"/>
			<polygon style="fill:#2484C6;stroke:#0373BD;stroke-width:1.25;stroke-miterlimit:10;" points="283,64.5 283,38.4 275.2,46.2 
				275.3,72.4 			"/>
			<polygon style="fill:#2484C6;stroke:#0373BD;stroke-width:1.25;stroke-miterlimit:10;" points="299.8,230.3 299.8,252.4 
				308.3,243.8 308.3,221.6 			"/>
			<polygon style="fill:#2484C6;stroke:#0373BD;stroke-width:1.25;stroke-miterlimit:10;" points="291.8,238.4 291.8,260.5 
				299.8,252.4 299.8,230.3 			"/>
			<polygon style="fill:#2484C6;stroke:#0373BD;stroke-width:1.25;stroke-miterlimit:10;" points="283.5,246.7 283.6,268.8 
				291.8,260.5 291.8,238.4 			"/>
			<polygon style="fill:#2484C6;stroke:#0373BD;stroke-width:1.25;stroke-miterlimit:10;" points="308.3,243.8 316.7,235.3 
				316.6,213.2 308.3,221.6 			"/>
			<polygon style="fill:#2484C6;stroke:#0373BD;stroke-width:1.25;stroke-miterlimit:10;" points="275.7,254.6 275.8,276.7 
				283.6,268.8 283.5,246.7 			"/>
			<polygon style="fill:#2484C6;stroke:#0373BD;stroke-width:1.25;stroke-miterlimit:10;" points="308.2,198.2 308.3,221.6 
				316.6,213.2 316.6,189.7 			"/>
			<polygon style="fill:#2484C6;stroke:#0373BD;stroke-width:1.25;stroke-miterlimit:10;" points="233.9,297 233.9,319.1 
				242.3,310.7 242.3,288.6 			"/>
			<polygon style="fill:#2484C6;stroke:#0373BD;stroke-width:1.25;stroke-miterlimit:10;" points="242.2,265.1 233.8,273.6 
				233.9,297 242.3,288.6 			"/>
			<polygon style="fill:#2484C6;stroke:#0373BD;stroke-width:1.25;stroke-miterlimit:10;" points="242.3,288.6 242.3,310.7 
				251.1,301.8 251,279.7 			"/>
			<polygon style="fill:#2484C6;stroke:#0373BD;stroke-width:1.25;stroke-miterlimit:10;" points="267.3,263.2 267.3,285.3 
				275.8,276.7 275.7,254.6 			"/>
			<polygon style="fill:#2484C6;stroke:#0373BD;stroke-width:1.25;stroke-miterlimit:10;" points="251,279.7 251.1,301.8 
				259.3,293.4 259.2,271.3 			"/>
			<polygon style="fill:#2484C6;stroke:#0373BD;stroke-width:1.25;stroke-miterlimit:10;" points="259.2,271.3 259.3,293.4 
				267.3,285.3 267.3,263.2 			"/>
			<polygon style="fill:#2484C6;stroke:#0373BD;stroke-width:1.25;stroke-miterlimit:10;" points="250.5,97.5 250.5,71.3 
				241.7,80.2 241.8,106.3 			"/>
			<polygon style="fill:#2484C6;stroke:#0373BD;stroke-width:1.25;stroke-miterlimit:10;" points="299.8,230.3 308.3,221.6 
				308.2,198.2 299.7,206.8 			"/>
			<polygon style="fill:#2484C6;stroke:#0373BD;stroke-width:1.25;stroke-miterlimit:10;" points="259.2,247.9 259.2,271.3 
				267.3,263.2 267.2,239.8 			"/>
			<polygon style="fill:#2484C6;stroke:#0373BD;stroke-width:1.25;stroke-miterlimit:10;" points="275.7,231.2 275.7,254.6 
				283.5,246.7 283.5,223.3 			"/>
			<polygon style="fill:#2484C6;stroke:#0373BD;stroke-width:1.25;stroke-miterlimit:10;" points="291.3,56.1 291.2,30 283,38.4 
				283,64.5 			"/>
			<polygon style="fill:#2484C6;stroke:#0373BD;stroke-width:1.25;stroke-miterlimit:10;" points="291.7,214.9 291.8,238.4 
				299.8,230.3 299.7,206.8 			"/>
			<polygon style="fill:#2484C6;stroke:#0373BD;stroke-width:1.25;stroke-miterlimit:10;" points="283.5,223.3 283.5,246.7 
				291.8,238.4 291.7,214.9 			"/>
			<polygon style="fill:#2484C6;stroke:#0373BD;stroke-width:1.25;stroke-miterlimit:10;" points="267.2,239.8 267.3,263.2 
				275.7,254.6 275.7,231.2 			"/>
			<polygon style="fill:#2484C6;stroke:#0373BD;stroke-width:1.25;stroke-miterlimit:10;" points="250.7,166.5 242,175.3 242,198.8 
				250.8,189.9 			"/>
			<polygon style="fill:#2484C6;stroke:#0373BD;stroke-width:1.25;stroke-miterlimit:10;" points="250.8,189.9 242,198.8 
				242.1,220.2 250.8,211.4 			"/>
			<polygon style="fill:#2484C6;stroke:#0373BD;stroke-width:1.25;stroke-miterlimit:10;" points="242.2,265.1 242.3,288.6 
				251,279.7 250.9,256.2 			"/>
			<polygon style="fill:#2484C6;stroke:#0373BD;stroke-width:1.25;stroke-miterlimit:10;" points="250.8,211.4 242.1,220.2 
				242.1,243 250.9,234.1 			"/>
			<polygon style="fill:#2484C6;stroke:#0373BD;stroke-width:1.25;stroke-miterlimit:10;" points="250.9,234.1 242.1,243 
				242.2,265.1 250.9,256.2 			"/>
			<polygon style="fill:#2484C6;stroke:#0373BD;stroke-width:1.25;stroke-miterlimit:10;" points="250.9,256.2 251,279.7 
				259.2,271.3 259.2,247.9 			"/>
			<polygon style="fill:#2484C6;stroke:#0373BD;stroke-width:1.25;stroke-miterlimit:10;" points="316.2,30.9 316.1,4.8 307.7,13.3 
				307.8,39.4 			"/>
			<polygon style="fill:#2484C6;stroke:#0373BD;stroke-width:1.25;stroke-miterlimit:10;" points="307.9,63.5 316.2,55 316.2,30.9 
				307.8,39.4 			"/>
			<polygon style="fill:#2484C6;stroke:#0373BD;stroke-width:1.25;stroke-miterlimit:10;" points="299.3,48 299.2,21.9 291.2,30 
				291.3,56.1 			"/>
			<polygon style="fill:#2484C6;stroke:#0373BD;stroke-width:1.25;stroke-miterlimit:10;" points="299.7,184.7 299.7,206.8 
				308.2,198.2 308.1,176.1 			"/>
			<polygon style="fill:#2484C6;stroke:#0373BD;stroke-width:1.25;stroke-miterlimit:10;" points="307.9,86.3 316.3,77.8 316.2,55 
				307.9,63.5 			"/>
			<polygon style="fill:#2484C6;stroke:#0373BD;stroke-width:1.25;stroke-miterlimit:10;" points="307.8,39.4 307.7,13.3 
				299.2,21.9 299.3,48 			"/>
			<polygon style="fill:#2484C6;stroke:#0373BD;stroke-width:1.25;stroke-miterlimit:10;" points="308.2,198.2 316.6,189.7 
				316.5,167.6 308.1,176.1 			"/>
			<polygon style="fill:#2484C6;stroke:#0373BD;stroke-width:1.25;stroke-miterlimit:10;" points="308.1,176.1 316.5,167.6 
				316.5,144.8 308.1,153.3 			"/>
			<polygon style="fill:#2484C6;stroke:#0373BD;stroke-width:1.25;stroke-miterlimit:10;" points="308,108.4 316.3,99.9 316.3,77.8 
				307.9,86.3 			"/>
			<polygon style="fill:#2484C6;stroke:#0373BD;stroke-width:1.25;stroke-miterlimit:10;" points="308,131.9 316.4,123.4 
				316.3,99.9 308,108.4 			"/>
			<polygon style="fill:#2484C6;stroke:#0373BD;stroke-width:1.25;stroke-miterlimit:10;" points="308.1,153.3 316.5,144.8 
				316.4,123.4 308,131.9 			"/>
		</g>
	</g>
</g>
</svg>
