<?xml version="1.0" encoding="utf-8"?>
<!-- Generator: Adobe Illustrator 23.0.0, SVG Export Plug-In . SVG Version: 6.00 Build 0)  -->
<svg version="1.1" id="Layer_1" xmlns="http://www.w3.org/2000/svg" xmlns:xlink="http://www.w3.org/1999/xlink" x="0px" y="0px"
	 width="366.7px" height="217.3px" viewBox="0 0 366.7 217.3" style="enable-background:new 0 0 366.7 217.3;" xml:space="preserve"
	>
<g>
	<path style="fill-rule:evenodd;clip-rule:evenodd;fill:#FCC900;" d="M183.3,1.6c85.8,0,155.5,69.6,155.5,155.5h-55
		c0-55.4-45-100.4-100.4-100.4c-55.4,0-100.4,45-100.4,100.4h-55C27.9,71.2,97.5,1.6,183.3,1.6L183.3,1.6z"/>
	<path style="fill-rule:evenodd;clip-rule:evenodd;fill:#EDBE06;" d="M33.3,151.6h44.4c2.8-55.9,49-100.4,105.6-100.4
		c56.6,0,102.8,44.5,105.6,100.4h44.4c-2.8-80.4-68.9-144.7-150-144.7C102.2,6.9,36.2,71.2,33.3,151.6L33.3,151.6z"/>
	<path style="fill-rule:evenodd;clip-rule:evenodd;fill:#EDBE06;" d="M8.8,156.6h349c3.8,0,6.9,3,6.9,6.9v45.3c0,3.8-3.1,7-6.9,7
		H8.8c-3.8,0-6.9-3.1-6.9-7v-45.3C2,159.6,5.1,156.6,8.8,156.6L8.8,156.6z"/>
	<rect x="2" y="163.5" style="fill-rule:evenodd;clip-rule:evenodd;fill:#FCC900;" width="362.8" height="45.3"/>
	<path style="fill-rule:evenodd;clip-rule:evenodd;fill:#FEFEFE;" d="M20.2,180.7c3,0,5.4,2.5,5.4,5.4c0,3-2.5,5.4-5.4,5.4
		c-3,0-5.5-2.4-5.5-5.4C14.7,183.2,17.2,180.7,20.2,180.7L20.2,180.7z"/>
	<path style="fill-rule:evenodd;clip-rule:evenodd;fill:#4E4C42;" d="M7.6,208.8h2.4V201H7.6V208.8z M24.1,208.8c0.8,0,1.6,0,2.4,0
		c0-2.6,0-5.1,0-7.8c-0.8,0-1.6,0-2.4,0C24.1,203.6,24.1,206.2,24.1,208.8L24.1,208.8z M40.5,208.8c0.8,0,1.6,0,2.4,0
		c0-2.6,0-5.1,0-7.8c-0.8,0-1.6,0-2.4,0C40.5,203.6,40.5,206.2,40.5,208.8L40.5,208.8z M57,208.8c0.8,0,1.6,0,2.4,0
		c0-2.6,0-5.1,0-7.8c-0.8,0-1.6,0-2.4,0C57,203.6,57,206.2,57,208.8L57,208.8z M73.4,208.8c0.8,0,1.6,0,2.4,0c0-2.6,0-5.1,0-7.8
		c-0.8,0-1.6,0-2.4,0C73.4,203.6,73.4,206.2,73.4,208.8L73.4,208.8z M106.3,208.8c0.8,0,1.6,0,2.4,0c0-2.6,0-5.1,0-7.8
		c-0.8,0-1.6,0-2.4,0C106.3,203.6,106.3,206.2,106.3,208.8L106.3,208.8z M122.7,208.8c0.9,0,1.7,0,2.5,0c0-2.6,0-5.1,0-7.8
		c-0.8,0-1.6,0-2.5,0C122.7,203.6,122.7,206.2,122.7,208.8L122.7,208.8z M139.2,208.8c0.8,0,1.6,0,2.4,0c0-2.6,0-5.1,0-7.8
		c-0.8,0-1.6,0-2.4,0C139.2,203.6,139.2,206.2,139.2,208.8L139.2,208.8z M155.6,208.8c0.9,0,1.7,0,2.5,0c0-2.6,0-5.1,0-7.8
		c-0.8,0-1.6,0-2.5,0C155.6,203.6,155.6,206.2,155.6,208.8L155.6,208.8z M188.5,208.8c0.8,0,1.7,0,2.5,0c0-2.6,0-5.1,0-7.8
		c-0.8,0-1.7,0-2.5,0C188.5,203.6,188.5,206.2,188.5,208.8L188.5,208.8z M204.9,208.8c0.8,0,1.6,0,2.4,0c0-2.6,0-5.1,0-7.8
		c-0.8,0-1.6,0-2.4,0C204.9,203.6,204.9,206.2,204.9,208.8L204.9,208.8z M221.3,208.8c0.8,0,1.7,0,2.5,0c0-2.6,0-5.1,0-7.8
		c-0.8,0-1.7,0-2.5,0C221.3,203.6,221.3,206.2,221.3,208.8L221.3,208.8z M237.8,208.8c0.8,0,1.6,0,2.4,0c0-2.6,0-5.1,0-7.8
		c-0.8,0-1.6,0-2.4,0C237.8,203.6,237.8,206.2,237.8,208.8L237.8,208.8z M270.7,208.8c0.8,0,1.6,0,2.4,0c0-2.6,0-5.1,0-7.8
		c-0.8,0-1.6,0-2.4,0C270.7,203.6,270.7,206.2,270.7,208.8L270.7,208.8z M287.1,208.8c0.8,0,1.6,0,2.5,0c0-2.6,0-5.1,0-7.8
		c-0.9,0-1.7,0-2.5,0C287.1,203.6,287.1,206.2,287.1,208.8L287.1,208.8z M303.6,208.8c0.8,0,1.6,0,2.4,0c0-2.6,0-5.1,0-7.8
		c-0.8,0-1.6,0-2.4,0C303.6,203.6,303.6,206.2,303.6,208.8L303.6,208.8z M320,208.8c0.8,0,1.6,0,2.5,0c0-2.6,0-5.1,0-7.8
		c-0.9,0-1.7,0-2.5,0C320,203.6,320,206.2,320,208.8L320,208.8z M352.9,208.8h2.5V201h-2.5V208.8z M336.5,208.8c0.8,0,1.6,0,2.4,0
		c0-5,0-10.2,0-15.3c-0.8,0-1.6,0-2.4,0C336.5,198.6,336.5,203.7,336.5,208.8L336.5,208.8z M254.2,208.8c0.8,0,1.7,0,2.5,0
		c0-5,0-10.2,0-15.3c-0.8,0-1.7,0-2.5,0C254.2,198.6,254.2,203.7,254.2,208.8L254.2,208.8z M172.1,208.8c0.8,0,1.6,0,2.4,0
		c0-5,0-10.2,0-15.3c-0.8,0-1.6,0-2.4,0C172.1,198.6,172.1,203.7,172.1,208.8L172.1,208.8z M89.8,208.8c0.9,0,1.7,0,2.5,0
		c0-5,0-10.2,0-15.3c-0.8,0-1.6,0-2.5,0C89.8,198.6,89.8,203.7,89.8,208.8L89.8,208.8z"/>
	<path style="fill-rule:evenodd;clip-rule:evenodd;fill:#4E4C42;" d="M54,120.4l-0.5,1.8l-12.2-3.3l0.5-1.8L54,120.4z M310.1,81.8
		l1,1.6l-11,6.4l-1-1.7L310.1,81.8z M325,117.1l0.6,1.8l-12.3,3.3l-0.5-1.8L325,117.1z M256,28.4l1.6,1l-6.3,11l-1.6-0.9L256,28.4z
		 M286.6,51.6l1.4,1.3l-9,9l-1.4-1.3L286.6,51.6z M182.4,9.2h1.9v12.7h-1.9V9.2z M220.5,14l1.8,0.5L219,26.7l-1.8-0.5L220.5,14z
		 M117.1,39.4l-1.7,0.9l-6.3-11l1.6-1L117.1,39.4z M149.5,26.2l-1.8,0.5l-3.3-12.2l1.8-0.5L149.5,26.2z M67.6,88.1l-1,1.7l-11-6.4
		l1-1.6L67.6,88.1z M89.1,60.5l-1.3,1.3l-9-9l1.4-1.3L89.1,60.5z"/>
</g>
</svg>
