<?xml version="1.0" encoding="utf-8"?>
<!-- Generator: Adobe Illustrator 23.0.0, SVG Export Plug-In . SVG Version: 6.00 Build 0)  -->
<svg version="1.1" id="레이어_1" xmlns="http://www.w3.org/2000/svg" xmlns:xlink="http://www.w3.org/1999/xlink" x="0px"
	 y="0px" width="138px" height="110px" viewBox="0 0 138 110" style="enable-background:new 0 0 138 110;" xml:space="preserve">
<path style="fill:#FFFFFF;stroke:#231815;stroke-width:2.8347;stroke-linecap:round;stroke-linejoin:round;stroke-miterlimit:10;" d="
	M9.7,98.9c0,0,8.8-0.3,21.8,0.8c12.9,1.2,26.6,3.8,35.4,4.6c10.4,0.9,17.5,0.5,17.5,0.5S91,92.5,94.4,84.9c3.5-7.6,11.7-32,11.7-32
	L45,51.6L9.7,98.9z"/>
<path style="fill:#FFFFFF;stroke:#231815;stroke-width:2.8347;stroke-linecap:round;stroke-linejoin:round;stroke-miterlimit:10;" d="
	M9,82.4v7.9L47.6,104c0,0,6.8,4.4,11.6,0c4.8-4.4,45.9-39.9,45.9-39.9L51.9,51.3L9,82.4z"/>
<path style="fill:#FFFFFF;stroke:#231815;stroke-width:2.8347;stroke-linecap:round;stroke-linejoin:round;stroke-miterlimit:10;" d="
	M9.7,82.4v7.9L48.3,104c0,0,6.8,4.4,11.6,0c4.8-4.4,45.9-39.9,45.9-39.9L52.6,51.3L9.7,82.4z"/>
<g>
	
		<path style="fill:#FFE100;stroke:#231815;stroke-width:2.8347;stroke-linecap:round;stroke-linejoin:round;stroke-miterlimit:10;" d="
		M34.7,58.6c0,0-15.3,7.7-7.5,15.6c5.3,3.5,15.9-2.7,15.9-2.7"/>
	<g>
		
			<polygon style="fill:#E95532;stroke:#231815;stroke-width:2.126;stroke-linecap:round;stroke-linejoin:round;stroke-miterlimit:10;" points="
			35.5,70.5 30.2,72 22.2,47.2 27.4,45.7 		"/>
		<g>
			<polygon style="fill:#FFFFFF;" points="33.2,72.5 30.6,73.2 31.6,76.6 35.5,80.4 36.8,75.1 35.8,71.7 			"/>
			<g>
				<polygon style="fill:#E95532;" points="36.4,76.5 32.6,77.6 35.5,80.4 				"/>
			</g>
		</g>
		
			<polygon style="fill:none;stroke:#231815;stroke-width:2.126;stroke-linecap:round;stroke-linejoin:round;stroke-miterlimit:10;" points="
			33.2,72.5 30.6,73.2 31.6,76.6 35.5,80.4 36.8,75.1 35.8,71.7 		"/>
	</g>
	
		<path style="fill:#FFE100;stroke:#231815;stroke-width:2.8347;stroke-linecap:round;stroke-linejoin:round;stroke-miterlimit:10;" d="
		M35.5,68.7c0,0-2.4,0.8-2.4,2.8c0,2,2.7,3.2,6.2,1.4"/>
</g>
<g>
	<g>
		
			<polygon style="fill:#FFFFFF;stroke:#231815;stroke-width:2.8347;stroke-linecap:round;stroke-linejoin:round;stroke-miterlimit:10;" points="
			111.3,14.4 118.9,11.2 116.8,19.1 		"/>
		
			<path style="fill:#FFE100;stroke:#231815;stroke-width:2.8347;stroke-linecap:round;stroke-linejoin:round;stroke-miterlimit:10;" d="
			M89.3,29.6c0,0-6-16-29.6-13.2c-24.7,3-26,28.3-25.9,34.5c0.1,7.6-0.8,19.8,19,24.4s38.9,3.5,52.7-6.8
			c13.9-10.3,17.5-18.4,19.2-27.5c1.4-7.3,0.6-16.1-9.8-25.5c-10.2-9.2-25.2-7.1-31.7-4.8c-6.6,2.4-10.6,6-10.6,6"/>
		<path style="fill:#231815;" d="M58.4,52.8c-0.1,1.3,0.7,2.4,1.7,2.4c1,0,1.8-1,1.9-2.3c0.1-1.3-0.7-2.4-1.7-2.4
			C59.3,50.5,58.5,51.5,58.4,52.8z"/>
		<path style="fill:#231815;" d="M43.9,52.1c-0.1,1.3,0.7,2.4,1.7,2.4c1,0,1.8-1,1.9-2.3c0.1-1.3-0.7-2.4-1.7-2.4
			C44.8,49.8,44,50.8,43.9,52.1z"/>
		<path style="fill:#231815;" d="M45,42c0.5-0.1,1-0.2,1.5-0.1c0.4,0,0.7,0.7,0.6,1.2c-0.1,0.6-0.5,0.9-0.9,0.9c0.1,0-0.2,0-0.1,0
			c-0.1,0-0.2,0-0.3,0c-0.2,0-0.4,0.1-0.7,0.1C44.1,44.2,44,42.2,45,42z"/>
		<path style="fill:#231815;" d="M62.3,42.7c-0.4-0.2-0.9-0.3-1.3-0.4c-0.4-0.1-0.8,0.5-0.8,1c0,0.6,0.3,1,0.6,1c-0.1,0,0.1,0,0.1,0
			c0.1,0,0.2,0.1,0.2,0.1c0.2,0.1,0.4,0.2,0.6,0.2C62.7,45.1,63.2,43.1,62.3,42.7z"/>
		
			<path style="fill:#FFE100;stroke:#231815;stroke-width:2.8347;stroke-linecap:round;stroke-linejoin:round;stroke-miterlimit:10;" d="
			M34.1,47.2c0,0-2-0.3-3.6,1.9c-2.3,3.3,0.5,11.5,4,15.6C37.9,68.9,50.1,78,72.3,78"/>
		
			<path style="fill:#FFE100;stroke:#231815;stroke-width:2.8347;stroke-linecap:round;stroke-linejoin:round;stroke-miterlimit:10;" d="
			M75,70.5c0,0-11.2,9.7-1.5,15c5.2,3.1,19.8-12,19.8-12"/>
		<path style="fill:#704234;" d="M80.6,13.5c0,0,17.7,3.8,24.7,17.4c7,13.4,6.7,24.2,5.2,31.8c0,0-0.9,0.8-1.8,1.5
			c-0.9,0.8-4.3,3.4-4.3,3.4c1.5-7.6,2.3-19.9-4.6-33.3c-7.1-13.5-25.2-17.7-25.2-17.7s2.2-1.3,3.5-1.9
			C79.4,14.1,80.6,13.5,80.6,13.5z"/>
		<path style="fill:#3A322F;" d="M90.2,10.4c0,0,16.1,3.4,22.6,15.7c6.4,12.3,6.1,22,4.8,29c0,0-0.1,0.2-1.6,2c-1.1,1.4-3.7,4-3.7,4
			c1.4-6.9,1.2-19.7-5.2-31.9c-6.5-12.4-24.1-16.7-24.1-16.7s1.2-0.5,3.5-1.1C88.8,10.7,90.2,10.4,90.2,10.4z"/>
		<g>
			
				<path style="fill:#FFFFFF;stroke:#231815;stroke-width:2.8347;stroke-linecap:round;stroke-linejoin:round;stroke-miterlimit:10;" d="
				M79.9,19.2c-0.4-0.8-0.9-1.7-1.4-2.5c-0.9-1.5-2-3.1-3.4-4.6c-5-5.4-7.8-7.2-10.2-4.7c-1.7,1.7-2.7,4.8-1.6,8.4
				C70.6,15.4,76,17,79.9,19.2z"/>
		</g>
		<g>
			
				<path style="fill:#FFFFFF;stroke:#231815;stroke-width:2.8347;stroke-linecap:round;stroke-linejoin:round;stroke-miterlimit:10;" d="
				M90.1,13.2c5-5.4,7.8-7.2,10.2-4.7c1.7,1.7,2.7,5,1.6,8.6c-0.5,1.6-1.5,3.3-3,5c-3.1,3.4-6.5,5.5-9.3,6.2c-1-1.8-2.6-3.9-4.7-5.7
				L84.6,22c0.4-1.2,1.3-2.8,2.1-4.2C87.6,16.3,88.7,14.7,90.1,13.2z"/>
		</g>
		
			<path style="fill:#FFE100;stroke:#231815;stroke-width:2.8347;stroke-linecap:round;stroke-linejoin:round;stroke-miterlimit:10;" d="
			M123.7,32.4c0,0,11.1-3.8,10.9,7.2c-0.9,7-14.1,10.1-14.1,10.1"/>
		
			<path style="fill:#FFE100;stroke:#231815;stroke-width:2.8347;stroke-linecap:round;stroke-linejoin:round;stroke-miterlimit:10;" d="
			M45.6,59.3c0,0,0.3,3.7,7.8,4.5s9.9-3.2,9.9-3.2"/>
		<g>
			
				<path style="fill:none;stroke:#008BD5;stroke-width:1.4173;stroke-linecap:round;stroke-linejoin:round;stroke-miterlimit:10;" d="
				M52.4,52.9c-0.1,0.5-0.1,1-0.1,1.5c0.2,5,4.1,9.4,9.4,10.4c6.1,1,12.1-2.7,13.3-8.6c1.3-6.3-3.2-12.2-9.9-13
				C58.7,42.4,53.1,46.9,52.4,52.9z"/>
			
				<path style="fill:none;stroke:#008BD5;stroke-width:1.4173;stroke-linecap:round;stroke-linejoin:round;stroke-miterlimit:10;" d="
				M32.1,50.5c0,0.5,0,0.9,0,1.4c0.4,4.6,3.6,8.5,7.6,9.2c4.5,0.8,8.7-2.8,9.2-8.2c0.5-5.7-3.1-10.9-8-11.5
				C36.1,40.9,32.2,45,32.1,50.5z"/>
			
				<path style="fill:none;stroke:#008BD5;stroke-width:1.4173;stroke-linecap:round;stroke-linejoin:round;stroke-miterlimit:10;" d="
				M52.9,55.4c-0.7-3.4-4-3.8-5.4-0.8"/>
		</g>
	</g>
	<g>
		
			<path style="fill:#0096DF;stroke:#231815;stroke-width:2.8347;stroke-linecap:round;stroke-linejoin:round;stroke-miterlimit:10;" d="
			M57.9,6.5C57.9,6.5,57.9,6.5,57.9,6.5c-0.1,0-0.1,0-0.1,0c0,0-0.1,0-0.2,0.1c0,0-0.1,0-0.1,0c-0.1,0-0.2,0.1-0.3,0.1
			c0,0-0.1,0-0.1,0.1C57,6.9,56.9,7,56.7,7c-0.1,0-0.1,0.1-0.2,0.1c-0.1,0.1-0.2,0.1-0.3,0.2c-0.1,0-0.2,0.1-0.3,0.1
			c-0.1,0.1-0.2,0.1-0.4,0.2c-0.2,0.1-0.3,0.2-0.5,0.3c-0.2,0.1-0.3,0.1-0.5,0.2c-0.1,0.1-0.3,0.1-0.4,0.2c-0.1,0.1-0.2,0.1-0.4,0.2
			c-0.2,0.1-0.3,0.2-0.5,0.3c-0.1,0.1-0.2,0.1-0.3,0.2c-0.6,0.3-1.3,0.7-2,1.1c-0.1,0-0.2,0.1-0.3,0.1c-0.2,0.1-0.5,0.3-0.7,0.4
			c-0.1,0-0.2,0.1-0.2,0.1c-8,4.4-18,11.5-12.3,16.4c0,0,8.8,3.3,23.8-0.1c0.1,0,0.2,0,0.2-0.1c0.7-0.2,1.4-0.3,2.1-0.5
			c0.1,0,0.2-0.1,0.3-0.1c0.8-0.2,1.5-0.4,2.3-0.7c0,0,0.1,0,0.1,0c0.8-0.3,1.7-0.5,2.5-0.8c0.1,0,0.2-0.1,0.3-0.1
			c0.7-0.2,1.4-0.5,2.2-0.8c0.3-0.1,0.5-0.2,0.8-0.3c0.6-0.2,1.2-0.5,1.8-0.7c0.3-0.1,0.6-0.3,0.9-0.4c0.6-0.3,1.2-0.5,1.8-0.8
			c0.3-0.1,0.6-0.3,0.9-0.4c0.9-0.4,1.8-0.9,2.7-1.3C80.1,19.8,93,11,57.9,6.5z"/>
		<g>
			<path style="fill:#0080CB;" d="M46.6,27.2c-3.8-8,9.9-18.9,10.5-19.4l0.6,0.8c-0.1,0.1-13.5,11.4-10,18.6L46.6,27.2z"/>
		</g>
		<g>
			<path style="fill:#0080CB;" d="M70.2,22.8C66.8,11,58.9,8.3,58.8,8.3l0.3-1c0.3,0.1,8.6,2.8,12.1,15.1L70.2,22.8z"/>
		</g>
		
			<path style="fill:#0096DF;stroke:#231815;stroke-width:2.8347;stroke-linecap:round;stroke-linejoin:round;stroke-miterlimit:10;" d="
			M61.9,6.4c0.2,1.5-1.5,2.4-3.8,2.6c-2.3,0.3-4.3-0.1-4.5-1.7c-0.2-1.5,1.5-3,3.8-3.3C59.7,3.8,61.7,4.8,61.9,6.4z"/>
	</g>
	<g>
		
			<path style="fill:none;stroke:#231815;stroke-width:1.4173;stroke-linecap:round;stroke-linejoin:round;stroke-miterlimit:10;" d="
			M45.8,30.3c-1.7-6.5-9.9-12.5-16.2-10.8"/>
		
			<path style="fill:none;stroke:#231815;stroke-width:1.4173;stroke-linecap:round;stroke-linejoin:round;stroke-miterlimit:10;" d="
			M58.4,30.8c1.7-6.5,9.9-13.5,16.2-11.8"/>
	</g>
</g>
<path style="fill:#DBDCDC;stroke:#231815;stroke-width:2.8347;stroke-linecap:round;stroke-linejoin:round;stroke-miterlimit:10;" d="
	M52.9,93.1L7.7,77.6c0,0-3.1,1.5-3.1,5.7s1.7,5.7,3.6,6.7c1.9,1,43.6,15.5,43.6,15.5s-3.1-2.2-3.1-6.7
	C48.7,94.2,52.9,93.1,52.9,93.1z"/>
</svg>
