<?xml version="1.0" encoding="utf-8"?>
<!-- Generator: Adobe Illustrator 23.0.0, SVG Export Plug-In . SVG Version: 6.00 Build 0)  -->
<svg version="1.1" id="레이어_1" xmlns="http://www.w3.org/2000/svg" xmlns:xlink="http://www.w3.org/1999/xlink" x="0px"
	 y="0px" width="121.3px" height="127.9px" viewBox="0 0 121.3 127.9" style="enable-background:new 0 0 121.3 127.9;"
	 xml:space="preserve">
<g>
	
		<path style="fill:#FFFFFF;stroke:#231815;stroke-width:2.8347;stroke-linecap:round;stroke-linejoin:round;stroke-miterlimit:10;" d="
		M89.1,59.2c-0.3,0.7-0.5,1.5-0.7,2.3C87,66.3,93.7,69,95,64.2c2-7.4,7.7-6.7,12.5-2.3c2.1,1.9,3.3,4.8,3,7.3
		c-0.4,3.9-5,6.7-8.2,8.3c-7.9,3.8-17.3,2.6-25.6,4.8c-4.3,1.1-8.4,3.2-11.4,6.9c-3.3,4.1-4.4,9.6-4.5,14.9c0,5,7.1,5.7,7.1,0.7
		c0-4.8,0.8-9.8,4.9-12.5c3.9-2.6,8.7-3.1,13.1-3.7c10.3-1.3,21.5-2,28.8-11.3C127.5,60.9,98.1,38.5,89.1,59.2z"/>
	<g>
		
			<path style="fill:#FFFFFF;stroke:#231815;stroke-width:2.8347;stroke-linecap:round;stroke-linejoin:round;stroke-miterlimit:10;" d="
			M81.7,79.6c14.5-4.5,15.8-25.3,12.9-31.1c-3-5.8-16.6-9.9-15,7.7"/>
	</g>
	<g>
		
			<path style="fill:#FFFFFF;stroke:#231815;stroke-width:2.8347;stroke-linecap:round;stroke-linejoin:round;stroke-miterlimit:10;" d="
			M33.4,87C18.3,85,13.6,64.6,15.6,58.5c2-6.2,14.8-12.5,16.1,5.2"/>
	</g>
	<g>
		<path style="fill:#FFFFFF;" d="M82.3,64.7c-1.4-1.4-2.8-2.7-4.3-4.1c-2-1.8-4.6-2.1-7-1.4c-2.1-1.1-4.5-1.2-6.6-0.5
			c-2.5-1.1-5.4-0.6-7.8,0.8c0,0,0,0,0,0c-2-0.2-4.1,0.5-5.8,1.8c-1.7-0.6-3.7-0.6-5.3,0.1c-0.7,0.3-1.3,0.7-1.9,1.1
			c-2.8-0.8-6,0-8.1,2.6c-0.9,1.2-1.6,2.3-2.1,3.7c-0.1,0.2-0.2,0.5-0.3,0.8c-1.4,0.7-2.7,1.9-3.4,3.6c-1.6,3.6-0.1,9,3.9,10.4
			c3.2,1.1,6,1.2,8.7-0.2c2.7,1.6,6,1.1,8.5-0.6c2.9,0.9,6.2,0.1,8.3-2c1.5,0.1,3-0.3,4.4-1c2.1,0.7,4.5,0.4,6.5-0.7
			c2.4,1,5.2,1,7.3-0.2C83.1,79,87.9,70.2,82.3,64.7z"/>
	</g>
	<g>
		<g>
			
				<path style="fill:#FFFFFF;stroke:#231815;stroke-width:2.8347;stroke-linecap:round;stroke-linejoin:round;stroke-miterlimit:10;" d="
				M34.3,80.1c-0.9,4-2.3,10.3-1.6,17.3c0.6,5.8,2.2,21.4,29,18.7c24.6-2.5,25.2-18.3,24.6-24.2c-0.7-7.3-3.2-13.4-4.9-17.1"/>
		</g>
		<path style="fill:#FCEEF4;" d="M77.7,90.5c2.5,7.5-3.2,14.5-17.1,16c-14.2,1.5-19.7-3.9-20-12.1C40.2,84,47.6,80.6,57.8,79.6
			C68,78.5,74.4,80.9,77.7,90.5z"/>
		<g>
			<g>
				
					<path style="fill:#FFFFFF;stroke:#231815;stroke-width:2.8347;stroke-linecap:round;stroke-linejoin:round;stroke-miterlimit:10;" d="
					M35,105.3c0,0-3.9,10.6-4.7,12.5c-1.6,3.6,8.8,8.8,14.3,5.8c0.8-0.4,5.4-3.1,10.6-7.2"/>
			</g>
		</g>
		<path style="fill:#FFFFFF;stroke:#000000;stroke-width:3;stroke-linecap:round;stroke-linejoin:round;" d="M66.5,115.3
			c-1.6,0.4-3.4,0.7-5.4,0.8c-3,0.2-5.5-0.1-7.6-0.6"/>
	</g>
	<path style="fill:#FFFFFF;" d="M73.7,109.1c-0.2-1.2,0.2-2.8,1.2-3.9c0.4-0.4,0.7-0.9,1.1-1.3c0.5-0.5,1-1.1,1.7-1.6
		c1.3-0.9,1.8-1.1,3.4-1.7c1.4-0.5,3.1-0.1,4.2,0.5c1.2,0.7,2.1,1.8,2.2,3.2c0.2,1.3-0.3,2.7-1.2,3.9c-0.4,0.4-0.7,0.7-1.1,1.1
		c-0.3,0.2-0.6,0.4-0.9,0.6c-0.1,0.1-0.2,0.2-0.3,0.4c-0.4,0.4-0.7,0.7-1.1,1.1c-0.9,0.7-1.8,1.2-2.9,1.4c-1.5,0.4-3,0.2-4.2-0.5
		C74.7,111.6,73.9,110.4,73.7,109.1z"/>
	
		<path style="fill:#FFFFFF;stroke:#231815;stroke-width:2.8347;stroke-linecap:round;stroke-linejoin:round;stroke-miterlimit:10;" d="
		M79.5,103.2c-1.5-5.5-2.9-11.8,4.4-15.4c9.7-4.7,14.8,5.8,15.9,11.2c1.3,6.2-1.4,8.7-4.9,10.5c-5.2,2.6-10.9,3.9-20.3,3"/>
	<path style="fill:#FCEEF4;" d="M84.6,101.2c1.9,4.7,4.4,8.8,9.9,7c4.4-1.4,4.6-7.4,2.7-12.1c-1.9-4.7-5-8-9.8-6.6
		C83.1,90.9,82.7,96.6,84.6,101.2z"/>
	<g>
		<path style="fill:#F2A8C8;" d="M88.8,97c0.8-0.5,1.4-1.2,2.3-1.6c0.7-0.3,1.4-0.3,2.2-0.1c0.4,0,0.7,0,1.1,0.1
			c1.8,0.3,3.4,2.5,3.7,4.4c0.4,2.1-0.5,4.1-2.1,4.7l-3.2,1.3c-2,0.8-4.4-0.6-5.4-3.1C86.3,100.4,87.1,98,88.8,97z"/>
		<path style="fill:#F2A8C8;" d="M93.1,91.9c1-0.4,1.8,1.6,0.8,2C92.9,94.3,92.1,92.3,93.1,91.9z"/>
		<path style="fill:#F2A8C8;" d="M88.8,92c1.5-0.6,2.7,2.4,1.2,3C88.4,95.6,87.2,92.6,88.8,92z"/>
		<path style="fill:#F2A8C8;" d="M85.7,95.2c1-0.4,1.8,1.6,0.8,2C85.5,97.6,84.7,95.6,85.7,95.2z"/>
	</g>
	<g>
		
			<line style="fill:none;stroke:#231815;stroke-width:2.8347;stroke-linecap:round;stroke-linejoin:round;stroke-miterlimit:10;" x1="7.3" y1="43.1" x2="10.3" y2="46.2"/>
		
			<line style="fill:none;stroke:#231815;stroke-width:2.8347;stroke-linecap:round;stroke-linejoin:round;stroke-miterlimit:10;" x1="4.4" y1="48.4" x2="8.5" y2="49.6"/>
		
			<line style="fill:none;stroke:#231815;stroke-width:2.8347;stroke-linecap:round;stroke-linejoin:round;stroke-miterlimit:10;" x1="4.5" y1="54.5" x2="8.6" y2="53.4"/>
	</g>
	<g>
		
			<path style="fill:#FFFFFF;stroke:#231815;stroke-width:2.8347;stroke-linecap:round;stroke-linejoin:round;stroke-miterlimit:10;" d="
			M81.8,21L79.1,4.4l-13.8,6.6c-4.8-1.5-10.2-2-16.1-1.3c-6.1,0.7-11.2,2.5-15.5,5.1l-14.8-3.1l1.4,16.8"/>
		
			<path style="fill:#FFFFFF;stroke:#231815;stroke-width:2.8347;stroke-linecap:round;stroke-linejoin:round;stroke-miterlimit:10;" d="
			M23.6,23.1c-7.1,10.2-9.5,21.3-8.3,31.4C17,67.8,26,75.2,57.3,71.4C86,67.9,94.4,57.7,92.8,45.1c-1.5-12.7-6.3-19.8-15.4-28"/>
		<path style="fill:#FCEEF4;" d="M61.9,36.2c-3.8-1.4-8.1-1.1-12,0c-1.9,0.2-3.6,0.8-5.1,1.9c-0.2,0.1-0.4,0.2-0.5,0.3
			c-2.4,1.2-4.3,3.2-5.4,5.3c-0.9,2.7-1,2.9-0.3,0.7c-0.4,1-0.8,1.9-0.9,3c-0.2,2.8,0.4,5.1,2.3,7.3c2.2,2.5,5.5,3.6,9.1,4.2
			c3.5,0.6,7.3-0.6,10.4-2.2c4.1-1.3,7.7-3.7,9.2-7C71.3,44.1,68.3,38.5,61.9,36.2z"/>
		<g>
			<path style="fill:#231815;" d="M44.8,45.9C45,48,44,49.9,42.4,50c-1.8,0.2-3-1.3-3.3-3.4c-0.3-2.1-1.9-2.3-0.3-2.5
				C40.4,43.9,44.5,43.9,44.8,45.9z"/>
			<path style="fill:#231815;" d="M62.2,43.8c0.3,2.1,1.7,3.6,3.3,3.4c1.8-0.2,2.6-2,2.3-4.1c-0.3-2.1,1.2-2.7-0.3-2.5
				C66,40.8,62,41.7,62.2,43.8z"/>
		</g>
		
			<polyline style="fill:none;stroke:#231815;stroke-width:2.8347;stroke-linecap:round;stroke-linejoin:round;stroke-miterlimit:10;" points="
			47.6,55.9 55,58.1 61.8,54.2 		"/>
		<path style="fill:#E64387;" d="M58.4,48.5c0.2,1.8-1.5,4-4,4.3c-2.4,0.3-4.6-1.4-4.9-3.2c-0.1-1.1,1.9-1.1,4.3-1.4
			C56.3,47.8,58.3,47.4,58.4,48.5z"/>
	</g>
	<g>
		
			<path style="fill:#FFFFFF;stroke:#231815;stroke-width:2.8347;stroke-linecap:round;stroke-linejoin:round;stroke-miterlimit:10;" d="
			M17.5,52.3c-0.5-0.4-1-0.6-1.6-0.6c-1.5-0.1-2.6,1.4-2.4,3.3c0.2,1.6,0.5,3.1,1.2,4.6c0.5,1,1.6,1.7,2.5,1.7c1.2,0,2.2-1,2.4-2.4
			c0.2-1.5-0.2-3-0.6-4.4C18.8,53.5,18.2,52.8,17.5,52.3z"/>
		
			<path style="fill:#FFFFFF;stroke:#231815;stroke-width:2.8347;stroke-linecap:round;stroke-linejoin:round;stroke-miterlimit:10;" d="
			M23.1,71.3c4.4-0.2,6.7-5.7,6.3-9.4c-0.3-3-2.7-5.7-5.5-6.7c-2.9-1.1-6.2-0.5-8.1,2c-2.3,3.1-1.4,7.4,0.6,10.4"/>
	</g>
	<g>
		
			<path style="fill:#FFFFFF;stroke:#231815;stroke-width:2.8347;stroke-linecap:round;stroke-linejoin:round;stroke-miterlimit:10;" d="
			M91.7,42.8c0.4-0.5,0.9-0.8,1.5-0.9c1.4-0.3,2.8,1,2.9,2.8c0.1,1.6,0,3.2-0.5,4.7c-0.4,1.1-1.3,1.9-2.2,2.1
			c-1.2,0.2-2.4-0.6-2.8-2c-0.4-1.4-0.3-3-0.1-4.5C90.7,44.2,91.1,43.3,91.7,42.8z"/>
		
			<path style="fill:#FFFFFF;stroke:#231815;stroke-width:2.8347;stroke-linecap:round;stroke-linejoin:round;stroke-miterlimit:10;" d="
			M89.3,62.4c-4.3,0.5-7.5-4.5-7.8-8.3c-0.2-3,1.7-6,4.3-7.5c2.6-1.5,6.1-1.5,8.3,0.7c2.7,2.7,2.6,7.1,1.1,10.3"/>
	</g>
</g>
</svg>
