<?xml version="1.0" encoding="utf-8"?>
<!-- Generator: Adobe Illustrator 23.0.0, SVG Export Plug-In . SVG Version: 6.00 Build 0)  -->
<svg version="1.1" id="레이어_1" xmlns="http://www.w3.org/2000/svg" xmlns:xlink="http://www.w3.org/1999/xlink" x="0px"
	 y="0px" width="96.5px" height="118.4px" viewBox="0 0 96.5 118.4" style="enable-background:new 0 0 96.5 118.4;"
	 xml:space="preserve">
<g>
	
		<path style="fill:#FFFFFF;stroke:#231815;stroke-width:2.8347;stroke-linecap:round;stroke-linejoin:round;stroke-miterlimit:10;" d="
		M89.3,60.5c-6.1,5.3-13.1,7.2-15.6,4.3c-2.5-2.9,0.4-9.5,6.6-14.7c6.1-5.3,9.5-6.8,12-3.9C94.8,49,95.4,55.2,89.3,60.5z"/>
	
		<path style="fill:#FFFFFF;stroke:#231815;stroke-width:2.8347;stroke-linecap:round;stroke-linejoin:round;stroke-miterlimit:10;" d="
		M10.2,60.5c6.1,5.3,13.1,7.2,15.6,4.3c2.5-2.9-0.4-9.5-6.6-14.7c-6.1-5.3-9.5-6.8-12-3.9C4.7,49,4.1,55.2,10.2,60.5z"/>
</g>
<g>
	<g>
		<path style="fill:#FFE100;" d="M50.2,108.6c-19.7,0-33.9-13-33.9-30.9v-30c0-18.7,15.2-33.9,33.9-33.9c18.7,0,33.9,15.2,33.9,33.9
			v30C84.1,95.6,69.9,108.6,50.2,108.6z"/>
		<g>
			<path style="fill:#231815;" d="M50.2,15.2c17.9,0,32.5,14.6,32.5,32.5v30c0,17.9-14.6,29.5-32.5,29.5h0
				c-17.9,0-32.5-11.6-32.5-29.5v-30C17.7,29.8,32.3,15.2,50.2,15.2L50.2,15.2 M50.2,12.3c-19.5,0-35.3,15.9-35.3,35.3v30
				c0,9.3,3.7,17.7,10.5,23.6c6.5,5.6,15.3,8.7,24.8,8.7s18.4-3.1,24.8-8.7c6.8-5.9,10.5-14.3,10.5-23.6v-30
				C85.6,28.2,69.7,12.3,50.2,12.3L50.2,12.3z"/>
		</g>
	</g>
	<path style="fill:#704234;" d="M17.7,72.7c0,0,8.7,3.2,32.6,3.2s32.4-3.2,32.4-3.2v7.2c0,0-3.9,5.2-32.4,5.2s-32.6-4.7-32.6-4.7
		V72.7z"/>
	<path style="fill:#3A322F;" d="M18.3,83.9c0.6,3.3,2.2,6.4,3.6,9.3c4,1.3,11.8,2.9,28.4,2.9c16.7,0,24.5-1.8,28.4-3.3
		c1.4-2.8,2.8-5.8,3.4-8.9c-2.1,0.9-11.2,4-31.8,4C29.7,87.9,20.5,84.8,18.3,83.9z"/>
</g>
<g>
	<g>
		<g>
			
				<path style="fill:none;stroke:#231815;stroke-width:1.4173;stroke-linecap:round;stroke-linejoin:round;stroke-miterlimit:10;" d="
				M58.5,15.5c1-3.9,4.1-8,7.8-10.8"/>
		</g>
		<g>
			
				<path style="fill:none;stroke:#231815;stroke-width:1.4173;stroke-linecap:round;stroke-linejoin:round;stroke-miterlimit:10;" d="
				M42.4,15.5c-1-3.9-4.1-8-7.8-10.8"/>
		</g>
	</g>
	<g>
		<g>
			
				<line style="fill:none;stroke:#231815;stroke-width:1.4173;stroke-linecap:round;stroke-linejoin:round;stroke-miterlimit:10;" x1="58.4" y1="29.1" x2="59.7" y2="29.1"/>
		</g>
		<g>
			
				<line style="fill:none;stroke:#231815;stroke-width:1.4173;stroke-linecap:round;stroke-linejoin:round;stroke-miterlimit:10;" x1="41.4" y1="29.1" x2="42.7" y2="29.1"/>
		</g>
	</g>
	<g>
		<path style="fill:#231815;" d="M61.2,41.7c0,1.4-1,2.5-2.3,2.5c-1.3,0-2.3-1.1-2.3-2.5c0-1.4,1-2.5,2.3-2.5
			C60.2,39.2,61.2,40.3,61.2,41.7z"/>
		<path style="fill:#231815;" d="M44.1,41.7c0,1.4-1,2.5-2.3,2.5c-1.3,0-2.3-1.1-2.3-2.5c0-1.4,1-2.5,2.3-2.5
			C43.1,39.2,44.1,40.3,44.1,41.7z"/>
	</g>
	<g>
		<g>
			<g>
				
					<path style="fill:#EB6D7B;stroke:#231815;stroke-width:2.8347;stroke-linecap:round;stroke-linejoin:round;stroke-miterlimit:10;" d="
					M43.1,48.6c0.6,1.5,1.6,7.7,7.5,7.7c5.4,0,6.8-6.2,7.5-7.7L43.1,48.6z"/>
			</g>
		</g>
	</g>
	<g>
		
			<path style="fill:none;stroke:#008BD5;stroke-width:1.4173;stroke-linecap:round;stroke-linejoin:round;stroke-miterlimit:10;" d="
			M47.4,44c0,0.5,0,1-0.1,1.5c-0.7,5-5,8.8-10.2,8.8c-5.7,0-10.3-4.6-10.3-10.3c0-5.7,4.6-10.3,10.3-10.3
			C42.8,33.7,47.4,38.3,47.4,44z"/>
		
			<path style="fill:none;stroke:#008BD5;stroke-width:1.4173;stroke-linecap:round;stroke-linejoin:round;stroke-miterlimit:10;" d="
			M74.3,44c0,5.7-4.6,10.3-10.3,10.3c-5.7,0-10.3-4.6-10.3-10.3c0-5.7,4.6-10.3,10.3-10.3C69.7,33.7,74.3,38.3,74.3,44z"/>
		
			<path style="fill:none;stroke:#008BD5;stroke-width:1.4173;stroke-linecap:round;stroke-linejoin:round;stroke-miterlimit:10;" d="
			M46.6,46.4c1.6-3.2,6.3-3.2,7.9,0"/>
	</g>
</g>
<g>
	
		<path style="fill:#FFE100;stroke:#231815;stroke-width:2.8347;stroke-linecap:round;stroke-linejoin:round;stroke-miterlimit:10;" d="
		M28.6,100.8c0,0,0,14.2,9,14.2c8.4,0,7.6-9,7.6-9"/>
	
		<path style="fill:#FFE100;stroke:#231815;stroke-width:2.8347;stroke-linecap:round;stroke-linejoin:round;stroke-miterlimit:10;" d="
		M72,100.8c0,0,0,14.2-9,14.2c-8.4,0-7.6-9-7.6-9"/>
</g>
<g>
	
		<path style="fill:#FFE100;stroke:#231815;stroke-width:2.8347;stroke-linecap:round;stroke-linejoin:round;stroke-miterlimit:10;" d="
		M81.5,72c0,0,11.8-7.5,7.4-14.3c-5-7.8-12.6,2.2-12.6,2.2"/>
</g>
<path style="fill:#231815;" d="M43.7,45.7c0,1.6-1,2.9-2.2,2.9c-1.2,0-2.2-1.3-2.2-2.9c0-1.6,1-2.9,2.2-2.9
	C42.8,42.7,43.7,44.1,43.7,45.7z"/>
<path style="fill:#231815;" d="M39.4,31.1c-0.4,0-0.7,0.1-1.1,0.2c-0.3,0.1-0.5,0.7-0.4,1.2c0.1,0.5,0.4,0.7,0.7,0.6
	c-0.1,0,0.1,0,0.1,0c0.1,0,0.1,0,0.2,0c0.2,0,0.3,0,0.5-0.1C40.1,32.9,40.1,31,39.4,31.1z"/>
<g>
	<g>
		<g>
			<path style="fill:#B04612;" d="M20,70.9c-0.3,0-0.6,0-0.9-0.1c-1.4-0.3-2.4-1.1-2-1.8L22,58c0.3-0.7,1.8-1.1,3.2-0.9
				c1.4,0.3,2.4,1.1,2,1.8l-4.9,11C22.1,70.5,21.1,70.9,20,70.9z"/>
			<path style="fill:#E95504;" d="M29.6,28.3c2,0,4.1,0.4,6,1.3C43,33,46.2,41.6,42.9,49c-2.4,5.4-7.7,8.6-13.3,8.6
				c-2,0-4.1-0.4-6-1.3c-7.3-3.3-10.6-12-7.2-19.3C18.7,31.5,24,28.3,29.6,28.3 M29.6,24C29.6,24,29.6,24,29.6,24
				c-7.4,0-14.2,4.4-17.2,11.1c-4.3,9.5-0.1,20.7,9.4,25.1c2.5,1.1,5.1,1.7,7.8,1.7c7.4,0,14.2-4.4,17.2-11.1
				c4.3-9.5,0.1-20.7-9.4-25.1C34.9,24.6,32.3,24,29.6,24L29.6,24z"/>
			<g>
				<path style="fill:#231815;" d="M29.6,24c2.7,0,5.3,0.6,7.8,1.7c9.5,4.3,13.7,15.6,9.4,25.1c-3.1,6.7-9.8,11.1-17.2,11.1
					c-1.2,0-2.4-0.1-3.5-0.3l-3.7,8.4c-0.3,0.6-1.2,0.9-2.3,0.9c0,0,0,0,0,0c-0.3,0-0.6,0-0.9-0.1c-1.4-0.3-2.4-1.1-2-1.8l4.1-9.1
					c-9.1-4.5-13-15.5-8.8-24.8C15.4,28.4,22.2,24,29.6,24C29.6,24,29.6,24,29.6,24 M29.6,57.5c5.5,0,10.9-3.2,13.3-8.6
					c3.3-7.3,0.1-16-7.2-19.3c-2-0.9-4-1.3-6-1.3c0,0,0,0,0,0c-5.5,0-10.9,3.2-13.3,8.6c-3.3,7.3-0.1,16,7.2,19.3
					C25.5,57.1,27.5,57.5,29.6,57.5 M29.6,21.2L29.6,21.2c-8.5,0-16.3,5-19.8,12.8c-4.5,9.9-1.1,21.3,7.7,27.1l-3,6.8
					c-0.5,1-0.4,2.2,0.1,3.2c0.7,1.3,2.1,2.2,4,2.6c0.5,0.1,0.9,0.1,1.4,0.1c2.3,0,4.2-1,4.9-2.6l2.9-6.5c0.6,0.1,1.2,0.1,1.8,0.1
					c8.5,0,16.3-5,19.8-12.8c5-10.9,0.1-23.9-10.8-28.8C35.7,21.8,32.7,21.2,29.6,21.2L29.6,21.2z M29.6,54.7
					c-1.7,0-3.3-0.4-4.9-1.1c-5.9-2.7-8.5-9.7-5.8-15.6c1.9-4.2,6.1-6.9,10.7-6.9c1.7,0,3.3,0.4,4.9,1.1c5.9,2.7,8.5,9.7,5.8,15.6
					C38.4,52,34.2,54.7,29.6,54.7L29.6,54.7z"/>
			</g>
		</g>
		<g>
			<defs>
				<path id="SVGID_1_" d="M44.2,49.1c-3.7,8.1-13.2,11.6-21.2,8c-8.1-3.7-11.6-13.2-8-21.2c3.7-8.1,13.2-11.6,21.2-8
					C44.3,31.6,47.8,41.1,44.2,49.1z"/>
			</defs>
			<use xlink:href="#SVGID_1_"  style="overflow:visible;fill:#FFE100;"/>
			<clipPath id="SVGID_2_">
				<use xlink:href="#SVGID_1_"  style="overflow:visible;"/>
			</clipPath>
			<g style="clip-path:url(#SVGID_2_);">
				<path style="fill:#231815;" d="M37.6,44.1c0,1.9-1.4,3.4-3.2,3.4c-1.8,0-3.2-1.5-3.2-3.4c0-1.9,1.4-3.4,3.2-3.4
					C36.1,40.7,37.6,42.2,37.6,44.1z"/>
				<g>
					
						<path style="fill:#EB6D7B;stroke:#231815;stroke-width:2.8347;stroke-linecap:round;stroke-linejoin:round;stroke-miterlimit:10;" d="
						M34.4,53.1c0,0,0.8,14,12.2,14c11.4,0,11.2-14,11.2-14H34.4z"/>
				</g>
			</g>
		</g>
	</g>
	
		<path style="fill:#FFE100;stroke:#231815;stroke-width:2.8347;stroke-linecap:round;stroke-linejoin:round;stroke-miterlimit:10;" d="
		M24.7,67.7c-0.4-0.3-0.8-0.6-1.2-0.8c-0.6-0.5-1.4-0.9-2.2-1.2c-1.7-0.5-3.8-0.4-5.5,0.4c-1.3,0.1-2.5,1-2.9,2.2
		c-0.7,0.9-1.2,2.1-1.2,3.3c0,0.2-0.1,0.5-0.1,0.8c0,1.7,0.9,3.3,2.2,4.3c0.6,0.4,1.2,0.7,1.9,1c1.1,0.5,2.3,0.7,3.5,0.8
		c2.6,0.1,5.2-0.9,6.7-2.9c0.2-0.3,0.4-0.5,0.6-0.8C27.9,72.2,27.1,69.2,24.7,67.7z"/>
</g>
<line style="fill:#FFE100;stroke:#231815;stroke-width:2.8347;stroke-linecap:round;stroke-linejoin:round;stroke-miterlimit:10;" x1="29.6" y1="29.6" x2="32.2" y2="29.6"/>
</svg>
