<?xml version="1.0" encoding="utf-8"?>
<!-- Generator: Adobe Illustrator 23.0.0, SVG Export Plug-In . SVG Version: 6.00 Build 0)  -->
<svg version="1.1" id="레이어_1" xmlns="http://www.w3.org/2000/svg" xmlns:xlink="http://www.w3.org/1999/xlink" x="0px"
	 y="0px" width="131.3px" height="166.5px" viewBox="0 0 131.3 166.5" style="enable-background:new 0 0 131.3 166.5;"
	 xml:space="preserve">
<g>
	
		<path style="fill:#B28146;stroke:#231815;stroke-width:2.8347;stroke-linecap:round;stroke-linejoin:round;stroke-miterlimit:10;" d="
		M100.5,110.9c5.6-3.3,14.9-9.8,15.4-17c0,0,0.6-5.8,5.9-3.9c5.3,1.9-1.1,7.1-1.1,7.1s2.3-2.2,4.9,1c2.6,3.2-8.2,8.3-8.2,8.3
		s5.4-2.6,4.9,1c-0.5,3.2-11.5,7.8-22.1,6.5L100.5,110.9z"/>
	<g>
		<g>
			
				<path style="fill:#FFFFFF;stroke:#231815;stroke-width:2.8347;stroke-linecap:round;stroke-linejoin:round;stroke-miterlimit:10;" d="
				M49.6,95.8c0,0-32-38.8-43.3-21C-5,92.3,39.7,115.5,39.7,115.5"/>
			<g>
				<path style="fill:#F2A8C8;" d="M8.8,81.3c-1.5,0.6-0.5,3,1,2.3C11.3,83,10.3,80.7,8.8,81.3z"/>
				<path style="fill:#F2A8C8;" d="M9.8,76.6c-1.5,0.6-0.5,3,1,2.3C12.3,78.3,11.3,76,9.8,76.6z"/>
				<path style="fill:#F2A8C8;" d="M14,73.7c-1.5,0.6-0.5,3,1,2.3C16.5,75.3,15.5,73,14,73.7z"/>
				<path style="fill:#F2A8C8;" d="M15.1,77.5l-0.2,0.1c-2.8,1.2-4.1,4.4-2.9,7.2c1.2,2.8,4.4,4.1,7.2,2.9l0.2-0.1
					c2.8-1.2,4.1-4.4,2.9-7.2C21.1,77.7,17.9,76.3,15.1,77.5z"/>
			</g>
			
				<path style="fill:#FFFFFF;stroke:#231815;stroke-width:2.8347;stroke-linecap:round;stroke-linejoin:round;stroke-miterlimit:10;" d="
				M85.4,91c0,0,23.5-44.4,38.2-29.3c14.6,15-24.6,46.6-24.6,46.6"/>
			<g>
				<path style="fill:#F2A8C8;" d="M122.5,68.6c1.6,0.3,1.1,2.8-0.5,2.5C120.4,70.8,120.9,68.3,122.5,68.6z"/>
				<path style="fill:#F2A8C8;" d="M120.5,64.2c1.6,0.3,1.1,2.8-0.5,2.5C118.4,66.4,118.9,63.9,120.5,64.2z"/>
				<path style="fill:#F2A8C8;" d="M115.8,62.2c1.6,0.3,1.1,2.8-0.5,2.5C113.7,64.4,114.2,61.9,115.8,62.2z"/>
				<path style="fill:#F2A8C8;" d="M115.5,66.2l0.2,0c2.9,0.6,4.9,3.5,4.3,6.5c-0.6,2.9-3.5,4.9-6.5,4.3l-0.2,0
					c-2.9-0.6-4.9-3.5-4.3-6.5C109.6,67.5,112.6,65.6,115.5,66.2z"/>
			</g>
			<g>
				<path style="fill:#FFFFFF;" d="M96.7,83.4c-1.6-1.6-3.2-3.1-4.8-4.6c-2.2-2.1-5.2-2.4-7.9-1.6c-2.4-1.2-5.1-1.4-7.4-0.6
					c-2.9-1.2-6.1-0.7-8.8,1c0,0,0,0,0,0c-2.3-0.2-4.6,0.6-6.5,2.1c-2-0.7-4.2-0.7-6,0.1c-0.8,0.4-1.5,0.8-2.1,1.3
					c-3.2-0.9-6.8,0-9.1,2.9c-1,1.3-1.8,2.6-2.4,4.2c-0.1,0.2-0.2,0.6-0.4,0.9c-1.6,0.8-3,2.2-3.9,4.1c-1.9,4.1-0.2,10.2,4.4,11.8
					c3.6,1.2,6.8,1.4,9.8-0.2c3,1.8,6.8,1.3,9.6-0.7c3.2,1.1,7,0.1,9.4-2.3c1.7,0.1,3.4-0.3,4.9-1.1c2.4,0.8,5.1,0.5,7.3-0.8
					c2.7,1.2,5.8,1.1,8.3-0.2C97.6,99.5,103.1,89.7,96.7,83.4z"/>
			</g>
			<g>
				<g>
					
						<path style="fill:#FFFFFF;stroke:#231815;stroke-width:2.8347;stroke-linecap:round;stroke-linejoin:round;stroke-miterlimit:10;" d="
						M37.4,103.1c-1.3,5.3-3.1,13.6-2.1,22.9c0.8,7.8,2.9,28.4,38.5,24.8c32.6-3.3,33.5-24.3,32.7-32.1c-1-9.7-4.2-17.8-6.5-22.7"/>
				</g>
				<path style="fill:#B28146;" d="M95.5,117c3.4,10-4.2,19.3-22.6,21.2c-18.9,2-26.1-5.2-26.5-16.1c-0.5-13.8,9.2-18.3,22.8-19.7
					C82.7,101.1,91.1,104.3,95.5,117z"/>
				<g>
					<g>
						
							<path style="fill:#FFFFFF;stroke:#231815;stroke-width:2.8347;stroke-linecap:round;stroke-linejoin:round;stroke-miterlimit:10;" d="
							M38.3,136.6c0,0-5.1,14.1-6.2,16.6c-2.1,4.8,11.6,11.7,19,7.7c1.1-0.6,7.2-4.2,14.1-9.5"/>
					</g>
				</g>
				<path style="fill:#FFFFFF;stroke:#000000;stroke-width:3;stroke-linecap:round;stroke-linejoin:round;" d="M80.1,149.9
					c-2.1,0.5-4.5,0.9-7.2,1c-3.9,0.2-7.4-0.2-10-0.7"/>
			</g>
			<path style="fill:#FFFFFF;" d="M89.7,141.7c-0.2-1.6,0.2-3.8,1.6-5.2c0.5-0.6,1-1.2,1.5-1.7c0.7-0.7,1.4-1.5,2.2-2.1
				c1.8-1.3,2.4-1.5,4.5-2.2c1.9-0.6,4.2-0.2,5.6,0.6c1.6,0.9,2.7,2.4,3,4.2c0.2,1.7-0.3,3.6-1.6,5.2c-0.5,0.5-0.9,1-1.4,1.4
				c-0.4,0.3-0.7,0.5-1.1,0.8c-0.1,0.2-0.3,0.3-0.4,0.5c-0.5,0.5-0.9,1-1.4,1.4c-1.1,0.9-2.4,1.5-3.8,1.9c-2,0.5-4,0.3-5.6-0.6
				C91,145,89.9,143.4,89.7,141.7z"/>
			<g>
				<path style="fill:#B28146;" d="M89.6,143.3c-0.3-1.6,0-3.9,1.2-5.5c0.5-0.6,0.9-1.3,1.5-1.9c0.7-0.8,1.3-1.7,2.1-2.3
					c1.8-1.4,2.4-1.7,4.5-2.6c1.9-0.8,4.3-0.5,5.9,0.2c1.8,0.8,3,2.3,3.4,4.1c0.4,1.8-0.1,3.8-1.2,5.5c-0.5,0.5-0.9,1.1-1.4,1.6
					c-0.4,0.3-0.7,0.6-1.1,0.9c-0.1,0.2-0.3,0.3-0.4,0.5c-0.5,0.5-0.9,1.1-1.4,1.6c-1.1,1-2.4,1.8-3.8,2.2c-2,0.6-4.2,0.6-5.9-0.2
					C91.2,146.7,90,145.2,89.6,143.3z"/>
				
					<path style="fill:#B28146;stroke:#231815;stroke-width:2.8347;stroke-linecap:round;stroke-linejoin:round;stroke-miterlimit:10;" d="
					M97,134.7c-2.6-7.4-5.2-16.1,4.6-21.7c12.9-7.4,21,6.6,23.1,14c2.4,8.5-2.4,13.4-10.1,16.9c0,0-11.4,6-24.8,2.5"/>
				<path style="fill:#966D3A;" d="M103.8,131.1c3.7,5.9,8.2,10.9,15.2,7c5.6-3,4.4-11.3,0.7-17.2c-3.7-5.9-8.8-9.7-14.9-6.5
					C99.1,117.4,100.1,125.2,103.8,131.1z"/>
				<g>
					<path style="fill:#F2A8C8;" d="M108.4,124.3c0.9-0.9,1.7-1.9,2.7-2.7c0.8-0.6,1.9-0.8,2.9-0.7c0.5-0.1,1-0.1,1.5-0.2
						c2.5-0.1,5.2,2.6,6.1,5.1c1,2.8,0.3,5.7-1.7,6.9l-4,2.5c-2.5,1.5-6.2,0.2-8.1-2.9C105.9,129.5,106.4,126.1,108.4,124.3z"/>
					<path style="fill:#F2A8C8;" d="M113.1,116.3c1.3-0.8,2.9,1.7,1.6,2.5C113.4,119.6,111.8,117.1,113.1,116.3z"/>
					<path style="fill:#F2A8C8;" d="M107.2,117.5c2-1.2,4.3,2.6,2.4,3.8C107.6,122.5,105.2,118.7,107.2,117.5z"/>
					<path style="fill:#F2A8C8;" d="M103.8,122.5c1.3-0.8,2.9,1.7,1.6,2.5C104.1,125.9,102.5,123.4,103.8,122.5z"/>
				</g>
			</g>
		</g>
		<g>
			
				<path style="fill:#B28146;stroke:#231815;stroke-width:2.8347;stroke-linecap:round;stroke-linejoin:round;stroke-miterlimit:10;" d="
				M36.3,142c-1.6,4.2-3.6,9.6-4.2,11.1c-2.1,4.8,11.6,11.7,19,7.7c0.9-0.5,5-2.9,10.2-6.6L36.3,142z"/>
		</g>
	</g>
	<g>
		<g>
			<g>
				
					<path style="fill:#B28146;stroke:#231815;stroke-width:2.8347;stroke-linecap:round;stroke-linejoin:round;stroke-miterlimit:10;" d="
					M36.3,17c0,0-6.1-7.6-9.2-3.6c-3,4-7.7,11.3-7.7,11.3l7.5,5.7L36.3,17z"/>
				
					<path style="fill:#B28146;stroke:#231815;stroke-width:2.8347;stroke-linecap:round;stroke-linejoin:round;stroke-miterlimit:10;" d="
					M74,12c0,0,3.9-8.9,7.9-5.9c4,3,10.4,8.9,10.4,8.9l-5.7,7.5L74,12z"/>
			</g>
			<g>
				
					<path style="fill:#FFFFFF;stroke:#231815;stroke-width:2.8347;stroke-linecap:round;stroke-linejoin:round;stroke-miterlimit:10;" d="
					M89.2,81.4C90.7,92.7,80,94.2,66.7,96c-13.3,1.8-24,3.2-25.5-8.1c-1.5-11.3,8-21.8,21.3-23.6C75.7,62.5,87.7,70.2,89.2,81.4z"/>
				<g>
					<g>
						<path style="fill:#FFFFFF;" d="M42.9,99.2c-7.5,0-13.8-2.6-18.4-7.5c-7.1-7.6-10.1-20.6-8.8-38.5c0.7-10.5,4.5-20.4,10.6-27.9
							c1.9-3.1,5.3-6.1,9.6-8.5c2.3-1.4,4.8-2.5,7.2-3.2c3.8-1.3,7.9-2.3,12.1-2.9c2.8-0.4,5.6-0.6,8.3-0.6c1.7,0,3.4,0.1,5,0.2
							c1.7,0.1,3.4,0.3,5.1,0.7c6.1,1.2,11,3.5,14,6.6c7.5,5.6,13.5,14,16.9,23.6c6.3,17.8,6.6,31.6,0.9,40.8
							c-5,8.2-13.4,10.9-19.6,11.7c-1.9,0.3-3.7,0.4-5.3,0.4c0,0,0,0,0,0c-8.8,0-13.1-3.4-15.3-6.7c-1.5,4.4-5.9,9.9-17.8,11.5
							C46,99.1,44.4,99.2,42.9,99.2z"/>
						<g>
							<path style="fill:#231815;" d="M63.6,11.5c1.7,0,3.3,0.1,4.9,0.2c1.6,0.1,3.3,0.3,4.9,0.7c5.8,1.2,10.6,3.4,13.4,6.3
								c7.1,5.3,13,13.2,16.5,23c13,36.8-2.5,48.6-17.5,50.6c-1.9,0.3-3.6,0.4-5.1,0.4c-13.3,0-15.5-8.4-15.9-10.8
								c0-0.4-0.1-0.6-0.1-0.6s0,0.2,0.1,0.6c0.2,2.7-0.2,13.3-17.3,15.6c-1.5,0.2-3,0.3-4.5,0.3c-13.9,0-28.3-9.4-25.8-44.5
								c0.8-10.7,4.6-20.2,10.3-27.2c1.8-3,5-5.8,9.2-8.1c2.2-1.3,4.5-2.4,6.9-3.1c3.6-1.3,7.6-2.3,11.9-2.9
								C58.3,11.6,61,11.5,63.6,11.5 M63.6,8.6c-2.8,0-5.6,0.2-8.5,0.6c-4.3,0.6-8.5,1.6-12.4,3c-2.6,0.8-5.1,1.9-7.5,3.4
								c-4.5,2.5-8,5.6-10.1,8.9C18.9,32.2,15,42.3,14.3,53.1c-1.3,18.3,1.8,31.6,9.2,39.5c4.9,5.2,11.6,8,19.5,8
								c1.6,0,3.2-0.1,4.8-0.3c10.7-1.4,15.7-6,18-10.2c2.7,2.9,7.2,5.5,14.9,5.5c1.7,0,3.6-0.1,5.5-0.4c6.5-0.9,15.3-3.7,20.6-12.4
								c5.9-9.6,5.6-23.8-0.8-42c-3.5-9.8-9.6-18.4-17.3-24.2c-3.2-3.3-8.3-5.7-14.7-7c-1.7-0.4-3.5-0.6-5.3-0.8
								C67,8.7,65.3,8.6,63.6,8.6L63.6,8.6z"/>
						</g>
					</g>
					<path style="fill:#231815;" d="M64.2,41.8c0.2,1.2-1.7,4.3-4.4,4.7c-2.7,0.4-5.3-2.2-5.4-3.3c-0.2-1.2,2.2-0.6,4.9-0.9
						C62,41.9,64.1,40.7,64.2,41.8z"/>
					
						<line style="fill:none;stroke:#231815;stroke-width:2.8347;stroke-linecap:round;stroke-linejoin:round;stroke-miterlimit:10;" x1="65.4" y1="88.7" x2="59.5" y2="44.3"/>
					<g>
						<path style="fill:#B28146;" d="M20.6,47.5c6.7,2.7,14.6,1.3,21.2-0.9c7.8-2.6,12.7-8.3,14.5-16.3c1.5-6.7-2.2-13.5-7.8-17
							c-1.7,0.4-3.4,0.9-5,1.5c-2.4,0.7-4.7,1.8-6.9,3.1c-4.2,2.3-7.4,5.1-9.2,8.1c-3.4,4.2-6.1,9.2-7.9,14.8
							c-0.5,1.7-1,3.5-1.4,5.3C18.8,46.7,19.7,47.1,20.6,47.5z"/>
					</g>
				</g>
			</g>
			<g>
				
					<path style="fill:#B28146;stroke:#231815;stroke-width:2.8347;stroke-linecap:round;stroke-linejoin:round;stroke-miterlimit:10;" d="
					M82.7,6.7c-1.2-0.8-2.8-0.1-3.1,1.2c-1.1,4.6-2.3,13.9,4.2,17.5c6.9,3.8,11.9-3.3,13.9-6.8c0.5-0.9,0.2-2.1-0.7-2.7L82.7,6.7z"
					/>
				
					<path style="fill:#B28146;stroke:#231815;stroke-width:2.8347;stroke-linecap:round;stroke-linejoin:round;stroke-miterlimit:10;" d="
					M26.5,14.3c0.9-1,2.6-0.9,3.3,0.4c2.3,4.2,5.9,12.8,0.5,18c-5.6,5.5-12.4-0.1-15.2-2.9c-0.8-0.8-0.8-2-0.1-2.8L26.5,14.3z"/>
			</g>
		</g>
		<g>
			<path style="fill:#231815;" d="M50.3,34.9c0.2,1.7-0.5,4.1-1.9,4.3c-1.3,0.2-2.7-1.9-3-3.7L50.3,34.9z"/>
		</g>
		<g>
			
				<path style="fill:none;stroke:#231815;stroke-width:2.8347;stroke-linecap:round;stroke-linejoin:round;stroke-miterlimit:10;" d="
				M42.6,23.7c0,0,0.6-2.7,1.6-3.3c0.9-0.6,2.2,0.7,2.2,0.7"/>
			
				<line style="fill:none;stroke:#231815;stroke-width:2.8347;stroke-linecap:round;stroke-linejoin:round;stroke-miterlimit:10;" x1="71.7" y1="25.9" x2="67.4" y2="24.5"/>
		</g>
		
			<polyline style="fill:none;stroke:#231815;stroke-width:2.8347;stroke-linecap:round;stroke-linejoin:round;stroke-miterlimit:10;" points="
			71.6,31.1 67.7,34.6 72.9,35.1 		"/>
	</g>
</g>
</svg>
