<?xml version="1.0" encoding="utf-8"?>
<!-- Generator: Adobe Illustrator 23.0.0, SVG Export Plug-In . SVG Version: 6.00 Build 0)  -->
<svg version="1.1" id="레이어_1" xmlns="http://www.w3.org/2000/svg" xmlns:xlink="http://www.w3.org/1999/xlink" x="0px"
	 y="0px" width="285px" height="222.9px" viewBox="0 0 285 222.9" style="enable-background:new 0 0 285 222.9;"
	 xml:space="preserve">
<g>
	<g>
		<g>
			<g>
				<g style="opacity:0.2;">
					<g>
						<g>
							<defs>
								<rect id="SVGID_1_" x="167.2" y="210.2" width="72.8" height="12.7"/>
							</defs>
							<clipPath id="SVGID_2_">
								<use xlink:href="#SVGID_1_"  style="overflow:visible;"/>
							</clipPath>
							<path style="clip-path:url(#SVGID_2_);" d="M240,216.6c0,3.5-16.3,6.3-36.4,6.3s-36.4-2.8-36.4-6.3s16.3-6.3,36.4-6.3
								S240,213.1,240,216.6"/>
						</g>
					</g>
				</g>
			</g>
		</g>
	</g>
	<g>
		<polygon style="fill:#E2C500;" points="271.5,5.9 248,64.3 252,65.9 275.6,7.5 275.6,1.5 		"/>
	</g>
	<g>
		<g>
			<g>
				<path style="fill:#FFFFFF;" d="M259.6,17.4c-2.3-0.9-3.4-3.6-2.5-5.9s3.6-3.4,5.9-2.5l16.4,6.6L276,24L259.6,17.4z"/>
			</g>
			<g>
				<path style="fill:#FFFFFF;" d="M281.9,21.5c-0.9,2.3-3.6,3.4-5.9,2.5s-3.4-3.6-2.5-5.9s3.6-3.4,5.9-2.5
					C281.7,16.6,282.8,19.2,281.9,21.5"/>
			</g>
			<g>
				<path style="fill:#D57500;" d="M274.7,23.5l-13.8-5.6c-2.3-0.9-4.9,0.2-5.9,2.5c-0.9,2.3,0.2,4.9,2.5,5.9l13.8,5.6
					c2.3,0.9,4.9-0.2,5.9-2.5S277,24.4,274.7,23.5"/>
			</g>
			<g>
				<path style="fill:#FFFFFF;" d="M252.9,34.2c-2.3-0.9-3.4-3.6-2.5-5.9s3.6-3.4,5.9-2.5l16.4,6.6l-3.4,8.4L252.9,34.2z"/>
			</g>
			<g>
				<path style="fill:#FFFFFF;" d="M275.2,38.3c-0.9,2.3-3.6,3.4-5.9,2.5s-3.4-3.6-2.5-5.9c0.9-2.3,3.6-3.4,5.9-2.5
					C275,33.3,276.1,36,275.2,38.3"/>
			</g>
			<g>
				<path style="fill:#D57500;" d="M268,40.2l-13.8-5.6c-2.3-0.9-4.9,0.2-5.9,2.5c-0.9,2.3,0.2,4.9,2.5,5.9l13.8,5.6
					c2.3,0.9,4.9-0.2,5.9-2.5C271.4,43.8,270.3,41.2,268,40.2"/>
			</g>
			<g>
				<path style="fill:#FFFFFF;" d="M216.8,97.5c0,0,1.3-3,7.3-19.7c5.9-16.7,18.1-28.3,28-24.2c5,2,11.3,9.9,3.5,31.9
					c-7.8,22-11.5,33.8-11.5,33.8"/>
			</g>
			<g>
				<path style="fill:#D3D3D4;" d="M242.3,180.6c-0.2,4.1-0.5,8.2-0.9,12.3c-0.3,3.3-3.1,15.4-4.4,17.5c-2.9,4.8-9.1,4.3-13.9,4.3
					c-3.4,0-7.3-0.5-10.2-2.6c-2.5-1.8-3.3-4.4-4.3-7.2c-2-5.7-3.7-11.5-5.5-17.3c-0.3-1.1-0.6-2.2-1-3.2L242.3,180.6z"/>
			</g>
			<g>
				<path style="fill:#FFFFFF;" d="M193.5,197c0,0,9.9,1.9,18.7,0.8c11.9-1.4,42.1-14.8,39.7-47.4c-1.7-23.1-13.2-49.5-13.2-49.5
					c-6-11.1-18.5-17.9-30.5-16.4c-12.4,1.6-25.2,1.4-37.4,20.9c-9.2,14.7-19.8,30.2-19.8,52.8C151.1,158.2,146.8,192.5,193.5,197"
					/>
			</g>
			<g>
				<path style="fill:#FFFFFF;" d="M239.7,170.3h0.4c5.6,0,10.3,4.5,10.3,9.9s-4.7,9.9-10.3,9.9h-0.4c-5.6,0-10.3-4.5-10.3-9.9"/>
			</g>
			<g>
				<path style="fill:#FFFFFF;" d="M209.2,195.7c0,0-6.2,15-9.3,18.2s-5.9,4.4-13.9,4.7c-8.1,0.3-12.3-2.7-14.1-4.8
					s-6.8-27.8-6.8-27.8"/>
			</g>
			<g>
				<path style="fill:#37484B;" d="M172.5,148.2c16.1,10,27,11.8,27,11.8l3.1-5.6c0,0-10.9-1.8-27-11.8L172.5,148.2z"/>
			</g>
			<g>
				<path style="fill:#FFFFFF;" d="M206.2,33.8c4.4-2.4,6.1-7.9,3.7-12.3c-2.4-4.4-7.9-6.1-12.3-3.7c-4.4,2.4-6.1,7.9-3.7,12.3"/>
			</g>
			<g>
				<path style="fill:#FFFFFF;" d="M225.4,97.7c2.4-1.8,4.4-3.5,6.1-5.3c8.3-8.9,7-20.6,3.5-31.6c-8.9-28.2-33.7-42.4-60.4-34
					c-13.1,4.1-24.2,11.6-30.6,22.9c-2.4,4.3-4.2,9.2-5.1,14.6c-0.7,4.3-1,9-0.6,14l0,0c0,0.1,0,0.1,0,0.2c0,0.5,0.1,1,0.1,1.5
					c0.3,6.5-2.7,9.5-0.1,17.8c3.1,9.9,13.6,20.7,35.4,18.8c13.1-1.1,26-4.9,36.2-9.8C209.9,106.7,220.3,101.4,225.4,97.7"/>
			</g>
			<g>
				<path style="fill:#DFF2FC;" d="M140.1,91.5c-0.3-2.7,1-4.9,2.5-6.8c1.2-1.6,3-2.3,4.9-3c2.4-0.9,5.1-0.1,7.4,1.1
					c2.4,1.3,4.2,4.3,4.8,6.8c0.4,1.3,0.4,2.7,0.2,4c0,0.5-0.1,1.1-0.2,1.6c-0.4,2.2-2,4.3-3.9,5.2c-1.7,0.8-3.5,1.2-5.4,1
					c-1.1-0.1-2.4-0.3-3.5-0.8c-1.5-0.7-2.9-1.3-4-2.7c-0.5-0.6-1.1-1.2-1.4-2C140.5,93.9,140.4,93.7,140.1,91.5"/>
			</g>
			<g>
				<path d="M140.9,85.4c0.6,1.8,2.2,3,3.5,2.5c1.3-0.4,1.8-2.3,1.2-4.1c-0.6-1.8-2.2-3-3.5-2.5C140.8,81.7,140.3,83.5,140.9,85.4"
					/>
			</g>
			<g>
				<path style="fill:#FFFFFF;" d="M160,46.7c-5-0.5-8.6-4.9-8.1-9.9s4.9-8.6,9.9-8.1s8.6,4.9,8.1,9.9"/>
			</g>
			<g>
				<path style="fill:#E84388;" d="M147.8,110.8c3.5-0.6,1.1-9.5-1.7-10.6c-1.4-0.5-2.7,0.8-2.7,0.8c-1.6,1.3-2.9,1.4-2.9,1.4
					l2.7,4.6L147.8,110.8z"/>
			</g>
			<g>
				<path style="fill:#FFFFFF;" d="M184.3,142.3c-2.4,9.2-11.1,18.3-14.8,22.2c-3.8,3.9-21.6,17.7-29.4,7.5c-6.2-8-0.6-17.1,4-24.2
					c6.1-9.5,12.2-19,18.4-28.5c2.6-3.9,8.2-8.9,15.9-10.2c7.7-1.3,11.7,1.6,11.7,1.6"/>
			</g>
			<g>
				<path style="fill:#009DE1;" d="M193.2,112.6c0.3-0.4-5.6-2.8-5.9-2.9c-11.6-3-21.2,3.5-26.1,11.7c0,0,2-13.4,14.8-18.7
					c12.8-5.4,23.1,2.4,23.1,2.4S193.2,112.5,193.2,112.6"/>
			</g>
			<g>
				<polygon style="fill:#37484B;" points="212,93.8 207.3,95.5 202.5,82.6 205.8,77.1 				"/>
			</g>
			<g>
				<polygon style="fill:#37484B;" points="220.1,90.8 224.7,89 219.9,76.1 213.8,74.1 				"/>
			</g>
			<g>
				
					<rect x="206.3" y="75.4" transform="matrix(0.9368 -0.3498 0.3498 0.9368 -13.89 78.577)" style="fill:#37484B;" width="8.6" height="4.7"/>
			</g>
			<g>
				<path style="fill:#009DE1;" d="M191.4,110.8L191.4,110.8C191.4,110.8,191.4,110.7,191.4,110.8L191.4,110.8z"/>
			</g>
			<g>
				<path style="fill:#008CCF;" d="M209.5,177.8l6.6-10.3l-17.8-40.8c-3.4-7.7-3.7-15.8-1.5-22.8c0.5-1.5,1.1-3,1.8-4.4l0,0
					l-5.4,8.4c-0.7,0.9-1.3,1.9-1.9,2.9l0,0c-4.5,8-5.1,18.3-0.8,28l15.7,36C206.9,176.2,208.1,177.3,209.5,177.8"/>
			</g>
			<g>
				<path style="fill:#009DE1;" d="M198.3,126.7l17.8,40.8l46-16.5l10.5-3.8c0.1-1,0-2.1-0.4-3.1l-16.6-38
					c-7.3-16.6-26-25.5-41.9-19.8c-6.9,2.5-12,7.3-15.1,13.2c-0.7,1.4-1.3,2.9-1.8,4.4C194.6,110.9,194.9,118.9,198.3,126.7"/>
			</g>
			<g>
				<path style="fill:#0075C2;" d="M271.8,149.4c0.4-0.7,0.7-1.5,0.8-2.3l-10.5,3.8l-46,16.5l-6.6,10.3c1.2,0.4,2.5,0.5,3.8,0
					l37.1-13.3l13.4-4.8c1.2-0.4,2.2-1.2,2.9-2.3l4.8-7.5L271.8,149.4z"/>
			</g>
			<g>
				<path style="fill:none;stroke:#0075C2;stroke-width:3;stroke-linecap:round;stroke-linejoin:round;stroke-miterlimit:10;" d="
					M271.8,149.4c0.4-0.7,0.7-1.5,0.8-2.3l-10.5,3.8l-46,16.5l-6.6,10.3c1.2,0.4,2.5,0.5,3.8,0l37.1-13.3l13.4-4.8
					c1.2-0.4,2.2-1.2,2.9-2.3l4.8-7.5L271.8,149.4z"/>
			</g>
			<g>
				<polygon style="fill:#FFFFFF;" points="232.6,146.7 228.1,148.3 225.3,142.1 229.7,140.5 				"/>
			</g>
			<g>
				
					<line style="fill:none;stroke:#0075C2;stroke-width:3;stroke-linecap:round;stroke-linejoin:round;" x1="203.2" y1="143.1" x2="196.8" y2="153.2"/>
			</g>
			<g>
				<path style="fill:none;stroke:#FFFFFF;stroke-width:3;stroke-linecap:round;stroke-linejoin:round;" d="M198.3,96
					c-1.3,0.4-1.8,1.7-1.2,3.5"/>
			</g>
			<g>
				<path style="fill:#0075C2;" d="M221.5,146.2c-0.6-1.3,0.1-2.8,1.4-3.3l35.5-12.7l-1.6-4l-35.5,12.7c-1.3,0.5-2,2-1.4,3.3
					L221.5,146.2z"/>
			</g>
			<g>
				<path style="fill:#FFFFFF;" d="M213.2,118l-0.6,0.2c-0.9-2.5-2.9-8.2-5.6-14.1c-0.9-2-2.2-4.6-4.1-6.7c-1.7-1.9-3.4-2.6-4.9-2.2
					c-0.4,0.1-0.6,0.5-0.5,0.9s0.5,0.6,0.9,0.5c1.2-0.3,2.5,0.8,3.4,1.7c1.8,1.9,3,4.3,3.8,6.3c2.6,5.8,4.6,11.4,5.5,13.9l-0.6,0.2
					l1.6,5c-1.4,0.5-2.2,2-1.7,3.4c0.5,1.4,2,2.2,3.4,1.7s2.2-2,1.7-3.4L213.2,118z"/>
			</g>
			<g>
				<path style="fill:#FFFFFF;" d="M222.9,116.8c-0.7-1.3-2.4-1.8-3.7-1l-2.6-4.6l-0.5,0.3c-2.1-3.8-8.4-15-12.6-21.1
					c-0.2-0.3-0.7-0.4-1-0.2c-0.3,0.2-0.4,0.7-0.2,1c4.2,6.1,10.4,17.3,12.5,21l-0.5,0.3l3.9,6.9c0.7,1.3,2.4,1.8,3.7,1
					C223.2,119.7,223.7,118.1,222.9,116.8"/>
			</g>
			<g>
				<path style="fill:#595757;" d="M220.2,118.3c0.5,0.9,1.4,1.3,2.1,0.9c0.7-0.4,0.8-1.4,0.3-2.3s-1.4-1.3-2.1-0.9
					C219.9,116.4,219.7,117.4,220.2,118.3"/>
			</g>
			<g>
				<path style="fill:#D57500;" d="M232.6,103c0,4.4-3.5,7.9-7.9,7.9s-7.9-3.5-7.9-7.9s3.5-7.9,7.9-7.9
					C229,95.1,232.6,98.7,232.6,103"/>
			</g>
			<g>
				<line style="fill:none;" x1="222" y1="102.1" x2="223.7" y2="105.9"/>
			</g>
			<g>
				<line style="fill:none;" x1="225.9" y1="100.4" x2="227.6" y2="104.2"/>
			</g>
			<g>
				<polygon style="fill:#FFFFFF;" points="197,132.4 194.1,136 197,142.7 200,139.1 				"/>
			</g>
			<g>
				<path style="fill:#595757;" d="M213.5,126.3c0.3,1,0,2-0.7,2.2s-1.6-0.4-1.9-1.3c-0.3-1,0-2,0.7-2.2
					C212.3,124.7,213.2,125.3,213.5,126.3"/>
			</g>
			<g>
				<path d="M134.2,89c0.2-0.2,0.4-0.3,0.7-0.5C134.7,88.7,134.5,88.8,134.2,89"/>
			</g>
			<g>
				<path d="M133.4,95.9c-0.1-0.2-0.3-0.3-0.4-0.5C133.2,95.5,133.3,95.7,133.4,95.9"/>
			</g>
			<g>
				<path d="M133,95.3c-0.1-0.1-0.2-0.3-0.2-0.4C132.8,95,132.9,95.1,133,95.3"/>
			</g>
			<g>
				<path d="M132.3,92.2c0-0.1,0.1-0.3,0.1-0.4C132.4,91.9,132.3,92,132.3,92.2"/>
			</g>
			<g>
				<path d="M132.5,91.3c0.1-0.2,0.1-0.3,0.2-0.5C132.7,91,132.6,91.1,132.5,91.3"/>
			</g>
			<g>
				<path d="M133.5,89.7c0.2-0.2,0.3-0.3,0.5-0.5C133.8,89.3,133.7,89.5,133.5,89.7"/>
			</g>
			<g>
				<path d="M132.9,90.5c0.1-0.2,0.2-0.3,0.4-0.5C133.2,90.1,133,90.3,132.9,90.5"/>
			</g>
			<g>
				<path d="M132.3,93.1c0-0.1,0-0.2,0-0.4C132.3,92.9,132.3,93,132.3,93.1"/>
			</g>
			<g>
				<path d="M132.7,94.7c-0.1-0.2-0.2-0.4-0.2-0.6C132.5,94.3,132.6,94.5,132.7,94.7"/>
			</g>
			<g>
				<path d="M133.9,96.3c-0.1-0.1-0.3-0.2-0.4-0.4C133.6,96.1,133.7,96.2,133.9,96.3"/>
			</g>
			<g>
				<path d="M135.8,97.3c-0.2-0.1-0.4-0.1-0.6-0.2C135.4,97.2,135.6,97.3,135.8,97.3"/>
			</g>
			<g>
				<path d="M136.6,97.5c-0.3,0-0.5-0.1-0.8-0.1C136.1,97.4,136.4,97.4,136.6,97.5"/>
			</g>
			<g>
				<path d="M135.1,97.1c-0.4-0.2-0.8-0.4-1.1-0.7C134.3,96.7,134.7,96.9,135.1,97.1"/>
			</g>
			<g>
				<path d="M136,88c-0.3,0.1-0.6,0.3-0.9,0.5C135.4,88.2,135.7,88.1,136,88"/>
			</g>
			<g>
				<path d="M141.4,86.4c-0.1-0.2-0.2-0.3-0.3-0.5C141.2,86.1,141.3,86.2,141.4,86.4"/>
			</g>
			<g>
				<path d="M144.3,82c0.1,0.1,0.2,0.2,0.3,0.3C144.5,82.2,144.5,82,144.3,82"/>
			</g>
			<g>
				<path d="M142.9,81.2c0.1,0,0.1,0,0.2,0C143.1,81.2,143,81.2,142.9,81.2"/>
			</g>
			<g>
				<path d="M143.7,81.5c0.2,0.1,0.4,0.2,0.6,0.4C144.1,81.7,143.9,81.6,143.7,81.5"/>
			</g>
			<g>
				<path d="M142.5,81.2c0.1,0,0.1,0,0.2,0C142.6,81.2,142.5,81.2,142.5,81.2"/>
			</g>
			<g>
				<path d="M143.4,81.3c0.1,0,0.1,0.1,0.2,0.1C143.5,81.4,143.4,81.3,143.4,81.3"/>
			</g>
			<g>
				<path d="M145,82.7c0.1,0.2,0.2,0.3,0.3,0.5C145.2,83,145.1,82.9,145,82.7c-0.1-0.1-0.2-0.3-0.3-0.4
					C144.8,82.5,144.9,82.6,145,82.7"/>
			</g>
			<g>
				<path d="M143,87.8c-0.1,0-0.2-0.1-0.2-0.1C142.9,87.8,143,87.8,143,87.8"/>
			</g>
			<g>
				<path d="M143.9,88c-0.1,0-0.1,0-0.2,0C143.8,88,143.9,88,143.9,88"/>
			</g>
			<g>
				<path d="M143.5,87.9c-0.1,0-0.1,0-0.2,0C143.3,87.9,143.4,87.9,143.5,87.9"/>
			</g>
			<g>
				<path d="M142.7,87.7c-0.2-0.1-0.4-0.3-0.6-0.5C142.3,87.4,142.5,87.5,142.7,87.7"/>
			</g>
			<g>
				<path d="M141.7,86.8c-0.1-0.1-0.2-0.3-0.3-0.4C141.5,86.5,141.6,86.7,141.7,86.8"/>
			</g>
			<g>
				<path d="M142.1,87.2c-0.1-0.1-0.2-0.2-0.3-0.3C141.8,87,141.9,87.1,142.1,87.2"/>
			</g>
			<g>
				<path d="M280,14.3l-4.7-1.9l1.7-4.3c0.1-0.2,0.1-0.4,0.1-0.5l0.1-6c0-0.6-0.4-1.2-0.9-1.4c-0.6-0.2-1.2-0.1-1.7,0.4L270.5,5
					c-0.1,0.1-0.2,0.3-0.3,0.5l-1.7,4.3l-4.8-1.9c-3.1-1.2-6.6,0.3-7.8,3.3c-0.6,1.5-0.6,3.1,0,4.6c0.2,0.4,0.4,0.8,0.7,1.2
					c-1.2,0.6-2.3,1.7-2.8,3.1c-0.6,1.4-0.6,2.9-0.1,4.2c-2,0.3-3.8,1.7-4.6,3.7s-0.4,4.2,0.8,5.8c-1.3,0.7-2.3,1.7-2.8,3.1
					c-1.2,3.1,0.3,6.6,3.3,7.8l3.5,1.4l-2.4,5.9c-3.1-0.9-6.4-0.6-9.7,0.9c-2.2,1-4.3,2.5-6.4,4.3c-4.7-12.5-12.8-22.5-23.1-28.3
					c-0.1,0-0.1-0.1-0.2-0.1c0.7-2.6,0.4-5.4-0.9-7.8c-2.8-5.1-9.2-7.1-14.3-4.3c-2.5,1.3-4.3,3.6-5.1,6.3v0.1
					c-5.7-0.2-11.7,0.6-17.5,2.4c-2.9,0.9-5.6,2-8.2,3.2c-1.2-0.7-2.6-1.1-4.1-1.3c-5.8-0.6-11,3.7-11.5,9.5c-0.1,0.8-0.1,1.6,0,2.3
					c-3,3-5.6,6.3-7.7,9.9c-2.6,4.6-4.4,9.6-5.3,15.1c-0.8,4.5-1,9.3-0.6,14.3v0.1l1.5-0.2l-1.4,0.3v0.2c0,0.4,0.1,0.9,0.1,1.2
					c0.1,2.3-0.2,4.1-0.6,6c-0.1,0.6-0.2,1.2-0.3,1.9c-0.3,0.1-0.6,0.3-0.9,0.5c-0.1,0-0.1,0.1-0.2,0.1c-0.2,0.2-0.5,0.3-0.7,0.5
					c-0.1,0.1-0.2,0.1-0.2,0.2c-0.2,0.2-0.4,0.3-0.5,0.5c-0.1,0.1-0.1,0.2-0.2,0.3c-0.1,0.2-0.2,0.3-0.4,0.5
					c-0.1,0.1-0.1,0.2-0.2,0.3c-0.1,0.2-0.2,0.3-0.2,0.5c-0.1,0.1-0.1,0.3-0.1,0.4s-0.1,0.3-0.1,0.4c0,0.2,0,0.4,0,0.6
					c0,0.1,0,0.2,0,0.4c0,0.3,0.1,0.6,0.2,0.9c0.1,0.2,0.1,0.4,0.2,0.6c0,0.1,0,0.1,0.1,0.2c0.1,0.2,0.2,0.3,0.2,0.4
					c0,0,0,0.1,0.1,0.1c0.1,0.2,0.2,0.3,0.4,0.5c0,0,0,0,0.1,0.1s0.3,0.3,0.4,0.4l0.1,0.1c0.3,0.3,0.7,0.5,1.1,0.7h0.1
					c0.2,0.1,0.4,0.1,0.6,0.2c0,0,0,0,0.1,0c0.2,0.1,0.5,0.1,0.8,0.1c0.1,0.2,0.1,0.5,0.2,0.7c0.8,2.6,2.1,5.3,4,7.7l1.1,1.9
					c0.1,0.2,0.2,0.3,0.3,0.4l2.8,2.2l1.1,0.9l0.7,0.6c0.1,0.1,0.2,0.1,0.3,0.2c3.6,2.5,8,4.4,13.4,5.4c-0.5,1.5-0.8,2.7-0.9,3.3
					c-4.1,6.4-8.3,12.8-12.3,19.1l-4.6,7.1c-4.3,6.7-10.9,16.9-3.9,25.9c2,2.6,4.8,4.1,8.1,4.2c0.3,0,0.5,0,0.8,0
					c1.8,0,3.6-0.3,5.5-0.9c1,1.9,2.2,3.9,3.8,5.8c2,2.5,4.4,4.7,7.1,6.7c1.6,8,4.5,21.5,6.2,25.2c0.2,0.3,0.3,0.6,0.5,0.8
					c1.8,2.1,5.9,5.4,14,5.4c0.4,0,0.8,0,1.2,0c8-0.3,11.4-1.5,15-5.2c0.9-0.9,2-2.6,3.1-4.7c0.9-1.7,1.9-3.7,2.8-5.5
					c0.1,0.3,0.2,0.5,0.3,0.8l0.1,0.3c0.5,1.6,1.1,3.1,2,4.6c0.7,1.1,1.6,2.2,2.8,3.1c2.6,1.9,6.3,2.8,11.1,2.9h1.2
					c0.6,0,1.2,0,1.9,0c3.5,0,7.2-0.3,10-2.5c0.8-0.7,1.5-1.5,2.2-2.5c1.6-2.6,4.3-15.1,4.6-18.2c0.1-0.7,0.1-1.3,0.2-2
					c5-1.3,8.7-5.8,8.7-11c0-2.6-1-5-2.6-7c1.2-2.4,2.1-4.9,2.9-7.6l12.3-4.4l0,0l0,0c1.5-0.5,2.8-1.6,3.6-2.9l3.5-5.6l1.5-2.4
					c0.2-0.3,0.4-0.7,0.5-1.1c0.2-0.6,0.4-1.2,0.5-1.8c0.2-1.3,0-2.7-0.5-3.9l-16.6-38c-1.1-2.6-2.6-5.1-4.2-7.3
					c1.3-3.6,2.7-7.7,4.3-12.2c6-16.9,3.8-25.5,0.6-29.9l3-7.5L264,50c0.7,0.3,1.5,0.4,2.2,0.4c2.4,0,4.6-1.4,5.6-3.8
					c0.5-1.3,0.6-2.8,0.1-4.2c2-0.3,3.8-1.7,4.6-3.7c0.8-2,0.4-4.2-0.8-5.8c1.3-0.7,2.3-1.7,2.8-3.1c0.6-1.4,0.6-2.9,0.1-4.2
					c0.5-0.1,0.9-0.2,1.3-0.4c1.5-0.6,2.6-1.8,3.2-3.3C284.5,19,283,15.5,280,14.3 M265.2,47.2l-13.8-5.6c-1.5-0.6-2.3-2.4-1.7-3.9
					c0.3-0.7,0.9-1.3,1.6-1.6c0.4-0.2,0.8-0.2,1.2-0.2s0.8,0.1,1.1,0.2l13.8,5.6c0.7,0.3,1.3,0.9,1.6,1.6c0.3,0.7,0.3,1.6,0,2.3
					C268.5,47.1,266.7,47.8,265.2,47.2 M271.1,146.1c0,0.3,0,0.6,0,0.9c0,0.3-0.1,0.6-0.2,0.8c-0.1,0.3-0.2,0.6-0.4,0.8l-5.1,8
					c-0.5,0.8-1.2,1.4-2.1,1.7l-50.5,18.1c-0.8,0.3-1.7,0.3-2.5,0.1c-0.1,0-0.2,0-0.3-0.1c-0.4-0.1-0.7-0.3-1-0.6
					c-0.6-0.4-1.1-1-1.4-1.7l-9.1-20.9l-1.4-3.3l-5.1-11.7c-2.9-6.7-3.5-13.7-1.9-20.1c0.1,4.6,1.1,9.2,3,13.7l0.8,2.2l-0.9,1.1
					c-0.4,0.4-0.4,1-0.2,1.5l2.9,6.7c0.2,0.5,0.7,0.8,1.2,0.9c0.1,0,0.1,0,0.2,0c0.4,0,0.9-0.2,1.2-0.6l2.9-3.6
					c0.4-0.4,0.4-1,0.2-1.5l-2.9-6.7c-0.2-0.5-0.7-0.8-1.2-0.9c-0.4-0.1-0.9,0.1-1.2,0.4l-0.2-0.6c-3.1-7.1-3.6-14.8-1.4-21.7v-0.1
					l0.1-0.1l1.8-2.7l3.6-5.6c0-0.1,0.1-0.1,0.1-0.2c0.4-0.8,0.8-1.5,1.3-2.3c-0.1-0.1-0.2-0.2-0.3-0.3c0,0,0,0-0.1-0.1
					s-0.2-0.2-0.3-0.2c0,0-0.1,0-0.1-0.1c-0.1-0.1-0.3-0.2-0.4-0.3c-0.1,0-0.2-0.1-0.2-0.1c-0.1,0-0.1,0-0.2-0.1
					c-0.1,0-0.2-0.1-0.3-0.1s-0.1,0-0.2,0c-0.1,0-0.2,0-0.3,0h-0.1c-0.1,0-0.3,0-0.4,0.1l0,0c-0.4,0.6-0.8,1.3-1.1,2l-1.2,1.9
					l-0.5,0.8c-4.4-1.9-11.8-3.8-20.3-0.2c-7.6,3.2-11.6,9-13.7,13.5c-4.7-0.7-8.4-2.2-11.3-4c0.3-0.5,0.6-1.3,0.7-2.3
					c0.2-2-0.5-5.1-1.8-7.2c-0.7-1.1-1.6-2.1-2.6-2.4c-1-0.4-1.9-0.2-2.7,0.1c-0.6,0.3-1.2,0.7-1.5,1c-0.5,0.4-0.9,0.6-1.3,0.8
					c-0.7-1.4-1.1-2.6-1.4-3.4c-1.5-4.8-1-7.6-0.4-10.7c0.4-2,0.8-4.1,0.6-6.8c0-0.4-0.1-0.8-0.1-1.3v-0.3l0,0c0,0,0,0,0-0.1
					c-0.3-4.8-0.1-9.4,0.6-13.7c0.9-5.1,2.5-9.9,5-14.1c1.6-2.9,3.7-5.6,6-8.1c1.6,3.2,4.7,5.6,8.5,5.9h0.1c0.8,0,1.4-0.6,1.5-1.4
					c0.1-0.8-0.5-1.6-1.4-1.6c-4.1-0.4-7.2-4.1-6.8-8.2s4.1-7.2,8.2-6.8c4.1,0.4,7.2,4.1,6.8,8.2c-0.1,0.8,0.5,1.6,1.4,1.6
					c0.8,0.1,1.6-0.5,1.6-1.3c0.3-3.1-0.8-6-2.8-8.1c2.1-0.9,4.2-1.7,6.5-2.4c12.7-4,25.1-2.9,35.8,3.2c10.5,6,18.6,16.6,22.8,29.9
					c3.1,9.8,3.4,17.5,0.9,23.7c-3.4-1.1-6.9-1.8-10.4-1.8l-2.8-7.4c-0.2-0.4-0.5-0.8-0.9-0.9l-6.1-2.1l0,0c-0.1,0-0.2-0.1-0.4-0.1
					l0,0c-0.1,0-0.2,0-0.4,0h-0.1h-0.1l-8.1,3c0,0,0,0-0.1,0c-0.1,0.1-0.3,0.1-0.4,0.3l0,0c-0.1,0.1-0.2,0.2-0.3,0.3l-3.2,5.5
					c-0.2,0.4-0.3,0.9-0.1,1.3l2.7,7.2l-0.1,0.1c0.1,0.1,0.1,0.2,0.2,0.2c0.2,0.3,0.4,0.6,0.6,0.9c0,0,0,0,0,0.1s0.1,0.1,0.1,0.2
					c0.2,0.4,0.5,0.7,0.7,1.1l0,0c2.5-2.3,5.5-4.2,8.9-5.4c15.1-5.4,33,3.1,40,19l16.6,38C271,145.2,271.1,145.6,271.1,146.1
					 M235.7,209.7c-2.2,3.7-7.1,3.6-11.4,3.6h-1.2c-4.2,0-7.2-0.8-9.4-2.3c-2-1.4-2.8-3.6-3.7-6.2l-0.1-0.3
					c-0.4-1.3-0.9-2.5-1.3-3.8c0.2-0.4,0.4-0.8,0.5-1.2c1.1-0.1,2.1-0.1,3.2-0.3c5.8-0.7,14.2-3.6,22-9.1c1.6,0.8,3.4,1.3,5.3,1.3
					h0.3c0,0.4-0.1,0.9-0.1,1.3C239.5,196.3,236.8,207.9,235.7,209.7 M240,188.5h-0.4c-4.7,0-8.8-3.8-8.8-8.4c0-0.8-0.7-1.5-1.5-1.5
					s-1.5,0.7-1.5,1.5c0,3.2,1.5,6.2,3.8,8.3c-7,4.8-14.5,7.3-19.7,7.9c-0.5,0.1-1,0.1-1.5,0.1c0-0.1,0.1-0.2,0.1-0.2
					c0.3-0.8-0.1-1.6-0.8-2c-0.8-0.3-1.6,0.1-2,0.8c-1.7,4.1-6.6,15.2-9,17.7c-2.8,2.9-5.1,4-12.9,4.3c-8,0.3-11.7-2.9-12.8-4.3
					c-1-1.5-4.1-14.9-6.5-27.1c-0.2-0.8-0.9-1.4-1.8-1.2c-0.3,0.1-0.6,0.2-0.8,0.4c-1.7-1.4-3.3-3-4.7-4.7c-1.3-1.7-2.4-3.4-3.3-5.1
					c6.8-2.8,12.8-8,14.4-9.7c2-2.1,6-6.2,9.5-11.3c10,5.2,16.9,6.8,18.7,7.2l6.1,14c0.8,1.8,2.3,3.2,4.1,3.9
					c0.8,0.3,1.6,0.4,2.5,0.4c0.8,0,1.6-0.1,2.4-0.4l24.3-8.7c0.1,0.7,0.7,1.3,1.5,1.3h0.4c4.7,0,8.8,3.8,8.8,8.4
					C248.8,184.7,244.8,188.5,240,188.5 M141.3,171c-5.2-6.8-1-14.5,4.1-22.5l4.6-7.1c4.4-6.9,9-14,13.5-20.9
					c1.5-2.1,3.3-4.1,5.5-5.8c0.1-0.1,0.3-0.2,0.4-0.3c0,0,0,0,0.1,0c2.5-1.8,5.6-3.2,9.2-3.8c0.3-0.1,0.6-0.1,0.9-0.1
					c2.3-0.2,4.7-0.1,7.3,0.6c0.3,0.1,1.2,0.5,2.2,0.9c-3.9,8.4-3.9,18.2,0.1,27.4l4.7,10.8c-2.6-1-5.8-2.4-9.3-4.2
					c0.5-1.1,0.9-2.3,1.2-3.4c0.2-0.8-0.3-1.6-1.1-1.8s-1.6,0.3-1.8,1.1c-2.4,9-11.2,18.1-14.5,21.6c-2.8,2.9-13.4,11.1-21.2,10.7
					C144.7,174,142.7,173,141.3,171 M148,108.1c0,0.1-0.1,0.5-0.2,0.8l-3.5-2.9l-1.6-2.8c0.5-0.3,1.1-0.6,1.7-1.1
					c0.1,0,0.1-0.1,0.2-0.1c0.1-0.1,0.7-0.6,1.1-0.5C146.6,102,148.3,105.6,148,108.1 M246.9,171c-1.3-1-2.9-1.7-4.6-2l6.2-2.2
					C248.1,168.2,247.6,169.6,246.9,171 M195.3,153.4l0.3,0.7l1.7,3.8c-3-0.8-8.4-2.6-15.6-6.2c0.6-1,1.1-1.9,1.6-2.9
					c4.9,2.5,9.1,4.2,12.2,5.3C195.4,153.9,195.3,153.6,195.3,153.4 M165.6,113.6c2.1-3.5,5.4-7.4,10.9-9.7c3.1-1.3,6-1.8,8.7-1.8
					c3.5,0,6.5,0.9,8.8,1.8l-1.9,3c-0.5,0.7-1,1.5-1.5,2.3c-1.5-0.7-2.9-1.1-2.9-1.1C178.6,105.9,171,108.9,165.6,113.6
					 M195.8,136.3l0.8-1l1.6,3.6l-0.8,1L195.8,136.3z M208.5,22.3c0.8,1.5,1.1,3.3,0.8,4.9c-4.6-2.2-9.5-3.5-14.5-4.1
					c0.6-1.7,1.9-3.1,3.5-4C201.9,17.2,206.5,18.6,208.5,22.3 M218.9,83.4l-2-5.5l-0.5-1.4l2.4,0.8l2.2,5.8
					C220.3,83.2,219.6,83.3,218.9,83.4 M208,87.3c-0.6,0.3-1.1,0.7-1.7,1.1l-2.1-5.7l1.3-2.2L208,87.3z M207.7,78l5.3-2l0.6,1.5
					l-5.3,2L207.7,78z M209.3,82.3l5.3-2l1.4,3.6c-0.9,0.2-1.8,0.5-2.7,0.8s-1.7,0.7-2.6,1.1L209.3,82.3z M250.5,95.5
					c-3.7-4.1-8.2-7.4-13.2-9.5c3.5-8.8,1.4-18.5-0.9-25.6c0-0.1,0-0.1-0.1-0.2c2.1-2.1,4.3-3.7,6.5-4.7c3.1-1.4,6-1.5,8.6-0.5
					c5.6,2.3,9.3,11.4,2.7,30C252.8,88.8,251.6,92.3,250.5,95.5 M255.3,53.8c-0.4-0.3-0.8-0.6-1.2-0.8l2.4-6l1.3,0.5L255.3,53.8z
					 M262.4,10.4l11.6,4.7c-0.8,0.6-1.5,1.5-1.9,2.5s-0.5,2.1-0.4,3.1l-9.1-3.7l-1.1-0.5l0,0l-1.3-0.5c-0.7-0.3-1.3-0.9-1.6-1.6
					c-0.3-0.7-0.3-1.6,0-2.3c0.5-1.2,1.6-1.9,2.8-1.9C261.7,10.2,262.1,10.3,262.4,10.4 M274.1,5.3v1.9l-1.6,4l-1.3-0.5l1.6-4
					L274.1,5.3z M271.9,30.5l-13.8-5.6c-1.5-0.6-2.3-2.4-1.7-3.9c0.5-1.2,1.6-1.9,2.8-1.9c0.4,0,0.8,0.1,1.1,0.2l13.8,5.6
					c1.5,0.6,2.3,2.4,1.7,3.9c-0.3,0.7-0.9,1.3-1.6,1.6C273.5,30.8,272.7,30.8,271.9,30.5 M255.7,27.2l11.6,4.7
					c-0.8,0.6-1.5,1.5-1.9,2.5s-0.5,2.1-0.4,3.1l-8.3-3.3l-2-0.8l0,0l-1.3-0.5c-1.5-0.6-2.3-2.4-1.7-3.9
					C252.4,27.3,254.2,26.6,255.7,27.2 M269.8,39.4c-1.5-0.6-2.3-2.4-1.7-3.9c0.5-1.2,1.6-1.9,2.8-1.9c0.4,0,0.8,0.1,1.1,0.2
					c1.5,0.6,2.3,2.4,1.7,3.9C273.1,39.3,271.4,40,269.8,39.4 M276.6,22.6c-0.7-0.3-1.3-0.9-1.6-1.6c-0.3-0.7-0.3-1.6,0-2.3
					c0.5-1.2,1.6-1.9,2.8-1.9c0.4,0,0.8,0.1,1.1,0.2c1.5,0.6,2.3,2.4,1.7,3.9c-0.3,0.7-0.9,1.3-1.6,1.6
					C278.2,22.9,277.3,22.9,276.6,22.6"/>
			</g>
			<g>
				<path d="M204.2,94c-0.2-0.3-0.4-0.6-0.5-0.8c-0.1-0.2-0.2-0.3-0.3-0.4c-0.2-0.3-0.4-0.6-0.6-0.8c-0.1-0.1-0.1-0.2-0.2-0.3l0,0
					c-1.1,1.1-2.2,2.3-3.1,3.6c0,0,0,0,0,0.1c0.2,0,0.4,0.1,0.6,0.2l0,0c0.2,0.1,0.4,0.2,0.6,0.3l0,0c0.2,0.1,0.4,0.2,0.6,0.4l0,0
					c0.2,0.2,0.4,0.3,0.7,0.5c0.7-0.9,1.4-1.8,2.1-2.6l0,0C204.2,94.1,204.2,94,204.2,94"/>
			</g>
			<g>
				<path d="M248.9,120.1c-0.1,0-0.1,0-0.2,0.1l-30.7,11c-1,0.4-1.9,1.2-2.3,2.2c-0.4,1-0.4,2.2,0,3.2l4.3,9.7
					c0,0.2,0.1,0.3,0.1,0.5c0.1,0.1,0.1,0.2,0.2,0.4l4.3,9.7c0.6,1.5,2.1,2.4,3.7,2.4c0.4,0,0.9-0.1,1.3-0.2l31.9-11.5
					c1-0.4,2.4-1.4,3.1-3c0.5-1.1,0.7-2.9-0.4-5.2l-6.9-15.7C255.5,118.8,250.7,119.8,248.9,120.1 M229,142.3l1.6,3.5l-1.6,0.6
					l-1.6-3.5L229,142.3z M261.9,143.4c-0.3,0.8-1,1.2-1.3,1.4l-31.9,11.5l0,0c-0.5,0.2-1-0.1-1.3-0.6l-4.5-10.3
					c0-0.2,0-0.4,0.1-0.5c0.1-0.3,0.3-0.4,0.6-0.5l1-0.4l2.3,5c0.3,0.5,0.8,0.9,1.4,0.9c0.2,0,0.3,0,0.5-0.1l4.4-1.6
					c0.4-0.1,0.7-0.4,0.9-0.8c0.2-0.4,0.2-0.8,0-1.2l-2.2-4.8l26-9.3l3.8,8.6C262.1,141.6,262.2,142.6,261.9,143.4 M254.6,124.8
					l0.8,1.9l1.1,2.5l-34.1,12.2c-0.4,0.1-0.7,0.4-1.1,0.6l-1.1-2.4l-1.9-4.3c-0.1-0.3-0.1-0.5,0-0.8s0.3-0.4,0.6-0.5l30.5-11
					C252.6,122.5,253.9,122.9,254.6,124.8"/>
			</g>
			<g>
				<path d="M234.1,103c0-5.2-4.2-9.4-9.4-9.4s-9.4,4.2-9.4,9.4c0,5.2,4.2,9.4,9.4,9.4C229.8,112.4,234.1,108.2,234.1,103
					 M224.7,96.6c3.5,0,6.4,2.9,6.4,6.4s-2.9,6.4-6.4,6.4s-6.4-2.9-6.4-6.4S221.1,96.6,224.7,96.6"/>
			</g>
			<g>
				<path d="M223.4,101.5c-0.3-0.8-1.2-1.1-2-0.8c-0.8,0.3-1.1,1.2-0.8,2l1.7,3.8c0.2,0.6,0.8,0.9,1.4,0.9c0.2,0,0.4,0,0.6-0.1
					c0.8-0.3,1.1-1.2,0.8-2L223.4,101.5z"/>
			</g>
			<g>
				<path d="M225.3,99c-0.8,0.3-1.1,1.2-0.8,2l1.7,3.8c0.2,0.6,0.8,0.9,1.4,0.9c0.2,0,0.4,0,0.6-0.1c0.8-0.3,1.1-1.2,0.8-2l-1.7-3.8
					C226.9,99,226.1,98.7,225.3,99"/>
			</g>
			<g>
				<g style="opacity:0.2;">
					<g>
						<g>
							<defs>
								<rect id="SVGID_3_" x="43.9" y="210.2" width="38.2" height="12.7"/>
							</defs>
							<clipPath id="SVGID_4_">
								<use xlink:href="#SVGID_3_"  style="overflow:visible;"/>
							</clipPath>
							<path style="clip-path:url(#SVGID_4_);" d="M82.1,216.6c0,3.5-8.5,6.3-19.1,6.3s-19.1-2.8-19.1-6.3s8.5-6.3,19.1-6.3
								S82.1,213.1,82.1,216.6"/>
						</g>
					</g>
				</g>
			</g>
			<g>
				<path style="fill:#E4007F;" d="M18.1,148.7c2.2,4,0.7,9.1-3.4,11.2c-4,2.2-9.1,0.7-11.2-3.3c-2.2-4-0.7-9.1,3.4-11.2
					C10.9,143.2,15.9,144.7,18.1,148.7"/>
			</g>
			<g>
				<path style="fill:#E4007F;" d="M17.5,147.7c-0.5-0.8-4,0.2-8,2.4s-6.8,4.6-6.4,5.4c0,0,0.1,0.4,0.7,1.4c0.5,1,0.9,1.5,0.9,1.5
					c-0.5-0.8,2.4-3.3,6.4-5.4c4-2.2,7.6-3.2,8-2.4c0,0-0.2-0.5-0.8-1.5C17.7,148,17.5,147.7,17.5,147.7"/>
			</g>
			<g>
				<path style="fill:#FFFFFF;" d="M13.5,157.7c-1,0.5-1.7,1.1-1.2,2l7,13c0.5,1,1.7,1.3,2.7,0.8s1.3-1.7,0.8-2.7l-7-13
					C15.3,156.8,14.5,157.1,13.5,157.7"/>
			</g>
			<g>
				<path style="fill:#FFFFFF;" d="M86.4,182.4c8-4.6,20.5-17,25.2-25.3c4.7-8.3,2.3-14.9,2.3-14.9c1.1-4-0.9-8.4-4.7-6.6
					c-3.8,1.8-35.1,23.2-35.1,23.2s-4.8-2.6-20.6-2.6c-11.3,0-17.4,5.1-23.5,11.3c0,0-7.9-4.8-14.2,1.5c-6.5,6.5,0.6,14.3,7.1,16.9
					c6.7,2.7,14.8,0.7,21.4-1.6"/>
			</g>
			<g>
				<path style="fill:#FFFFFF;" d="M87,169.6c1.4,3.9,3.2,10.3,3.2,17.7c0,12-10.5,24.8-11.5,26.1c-3.6,4.7-13.5,3.7-13.5,0v-8.9
					h-4.4v8.9c0,2.7-9.5,5.2-13.5,0c-0.9-1.2-11.7-14.1-11.7-26.1c0-7.1,2-13.3,3.4-17.2"/>
			</g>
			<g>
				<path style="fill:#FFFFFF;" d="M72,201.7c0,0-3.6,2-9,2s-9-2-9-2"/>
			</g>
			<g>
				<path style="fill:#FFFFFF;" d="M65.8,196.9c7.1,1.6,12.6,2.1,19.5-0.2c4.4-1.5,7.8-4,11-6.5c5.2-3.9,10.5-7.9,17.9-4.8
					c3.2,1.3,5.5,4,6.4,7.4c1.1,3.8,0.4,8-1.8,11.1c-0.6,0.8-1.5,1.3-2.4,1.4c-0.8,0.1-1.7-0.1-2.5-0.6c-1.6-1.1-1.9-3.3-0.8-4.9
					c1-1.3,1.3-3.4,0.8-5.1c-0.3-1-0.9-2.2-2.4-2.9c-3.5-1.5-6,0.2-11,4c-3.6,2.7-7.6,5.7-13.1,7.5c-8.4,2.8-15.1,2.2-23.2,0.4"/>
			</g>
			<g>
				<path style="fill:#EA609E;" d="M49.5,166.4c0,0-3.9-6.4-11.3-8.1c0,0-4.2,0.4-6.6,7.3c7.3,1.7,11.3,8.1,11.3,8.1"/>
			</g>
			<g>
				<path style="fill:#EA609E;" d="M72.1,164.5c0,0,4-10.5,8.6-16.5c0,0,3.5-2.3,9.7,1.6c-4.7,5.9-8.6,16.5-8.6,16.5"/>
			</g>
			<g>
				<path style="fill:#FFFFFF;" d="M57.9,161.9c3.5-0.5,7.3-1.2,11.4-2.3c26.1-6.7,33.1-19.7,29-31.8c-0.8-2.4-4.3-4-5.3-6
					c-4.1-8.2-7.2-14.2-15.6-19.2c0,0-5.7-3.1-13.6-4.3c-4.9-0.6-10.2,0-15.7,1.9c-5.7,1.9-10.3,4.6-13.9,8l-15.1-1l5.4,18"/>
			</g>
			<g>
				<path style="fill:#FFFFFF;" d="M78.4,103.1c7.7,4.9,10.8,10.8,14.7,18.7c1,2,4.4,3.6,5.3,6c4.1,12.1-2.9,25.1-29,31.8
					c-27.8,7.2-39.8,0.4-42.9-8.6"/>
			</g>
			<g>
				<path style="fill:#FDEFF5;" d="M93.2,138.8c-3.6,0.3-7.2,0-9.9-1.9c-2.4-1.7-3.4-3.8-4-6.6c-0.2-1,0-2,0.2-3.1
					c-0.2,2.3-0.2,2.1,0.1-0.7c0.6-2.3,1.9-4.7,4-6.4c0.1-0.1,0.3-0.2,0.5-0.4c1.1-1.4,2.7-2.5,4.5-3.1c0.1-0.1,0.2-0.1,0.3-0.1
					c0.8,1.4,1.5,2.8,2.3,4.3c0.2,0.5,0.5,1,0.7,1.5c0.3,0.6,0.9,1.2,1.5,1.8c0.4,0.4,0.8,0.7,1.2,1.1c0.1,0.1,0.3,0.2,0.4,0.4
					c0.9,0.8,1.8,1.7,2.2,2.8c0.6,1.9,1,3.8,1.1,5.7c0,0.4,0,0.8,0,1.1c0,0.8-0.1,1.6-0.2,2.4C96.4,138.1,94.8,138.6,93.2,138.8"/>
			</g>
			<g>
				<polyline style="fill:#FFFFFF;" points="46.9,107.8 34.1,98.1 27.6,112.6 				"/>
			</g>
			<g>
				<path style="fill:#FFFFFF;" d="M27,119c-4.7,11.4-3.8,22.5-0.6,32c2.2,6.5,9,11.8,23.1,11.6"/>
			</g>
			<g>
				<path d="M88.8,126c0.9,2.4,0.5,4.9-1,5.4s-3.4-1-4.3-3.4s-2.6-2.4-1.1-2.9C83.8,124.5,87.9,123.6,88.8,126"/>
			</g>
			<g>
				<path style="fill:#E84388;" d="M95.4,128.8c4.4,5.8,3.5-2.5,2.2-3.8s-1.7-1.2-2.8-0.2C93.5,126.1,93.6,126.4,95.4,128.8"/>
			</g>
			<g>
				<path style="fill:#E84388;" d="M99.4,133.7c0,0-1.5,0.4-3.8,0.3c-2.3-0.1-4.3,0.6-5.1,2.2c-0.7,1.7,1.7,6.1,6.9,6.1
					C97.4,142.3,99.9,138,99.4,133.7"/>
			</g>
			<g>
				<polygon style="fill:#37484B;" points="58.3,161.4 53.7,161.4 53.7,148.6 58.3,144.8 				"/>
			</g>
			<g>
				<polygon style="fill:#37484B;" points="66.3,161.4 70.9,161.4 70.9,148.6 66.3,144.8 				"/>
			</g>
			<g>
				<rect x="58.3" y="144.8" style="fill:#37484B;" width="8" height="4.3"/>
			</g>
			<g>
				<path style="fill:#EA609E;" d="M62.5,153.4c-10.8,0-19.6,6.7-19.6,15v17.8h39.2v-17.8C82.1,160.2,73.3,153.4,62.5,153.4"/>
			</g>
			<g>
				<path style="fill:#E4007F;" d="M62.5,165.6c-10.8,0-19.6,6.7-19.6,15v15.2c0,1.5,1.2,2.6,2.6,2.6h34c1.5,0,2.6-1.2,2.6-2.6
					v-15.2C82.1,172.3,73.3,165.6,62.5,165.6"/>
			</g>
			<g>
				<path style="fill:#D57500;" d="M69.7,179.9c0,4.1-3.3,7.3-7.3,7.3s-7.3-3.3-7.3-7.3c0-4.1,3.3-7.3,7.3-7.3
					S69.7,175.8,69.7,179.9"/>
			</g>
			<g>
				<line style="fill:none;" x1="60.4" y1="177.9" x2="60.4" y2="181.8"/>
			</g>
			<g>
				<line style="fill:none;" x1="64.3" y1="177.9" x2="64.3" y2="181.8"/>
			</g>
			<g>
				<polygon style="fill:#FFFFFF;" points="72.3,164.1 66,161.6 67.5,157.6 73.8,160.1 				"/>
			</g>
			<g>
				<line style="fill:none;" x1="42.8" y1="192" x2="82.1" y2="192"/>
			</g>
			<g>
				<path d="M122.1,192.4c-1.1-3.9-3.7-6.9-7.3-8.4c-8.2-3.4-14.1,1-19.4,5c-1.4,1-2.8,2.1-4.2,3c0.3-1.6,0.5-3.1,0.5-4.7
					c0-2.1-0.1-4.2-0.4-6.4c7.9-5.9,17.7-16.1,21.6-23.1c4.3-7.6,3-14,2.5-15.7c0.7-3-0.1-5.9-1.9-7.5c-1.4-1.1-3.2-1.3-5-0.5
					c-1.1,0.5-4.3,2.5-8.3,5.2c0.5-1.7,0.9-3.8,0.7-5.9l0,0l0,0l0,0c-0.1-2-0.4-4.1-1.1-6.2c-0.6-1.7-2-3-3.3-4.1
					c-0.8-0.7-1.7-1.5-2-2.1c-0.2-0.5-0.5-0.9-0.7-1.4c-0.2-0.4-0.4-0.8-0.6-1.2c0,0,0-0.1-0.1-0.1c-2.8-5.4-5.6-10.3-11-14.5
					c0,0,0,0-0.1,0c-0.4-0.3-0.8-0.6-1.3-0.9c-0.1-0.1-0.2-0.1-0.2-0.2c-0.4-0.3-0.8-0.6-1.3-0.8c0,0-0.1,0-0.1-0.1l0,0
					c-0.3-0.2-0.6-0.4-1-0.6c-0.2-0.1-6-3.3-14.2-4.5c-5.3-0.6-10.8,0.1-16.4,2c-2.3,0.8-4.5,1.7-6.6,2.8l-6-4.6
					c-0.4-0.3-0.8-0.4-1.3-0.3c-0.4,0.1-0.8,0.4-1,0.8l-4,8.7l-9.6-0.7c-0.5,0-1,0.2-1.3,0.6s-0.4,0.9-0.3,1.4l5.4,18
					c0,0.2,0.1,0.3,0.2,0.4c-1.8,8.2-1.2,16.7,1.8,25.6c0,0.1,0.1,0.3,0.2,0.4c1,2.6,3,6,7.4,8.6c-0.9,1.2-1.7,2.7-2.4,4.6v0.1
					c-0.1,0.1-0.3,0.3-0.4,0.4c-2.1-1-5.3-1.8-8.7-1.2l-3-5.5c1.4-1.7,2.2-3.8,2.3-5.9c1.3-0.8,1.8-2.4,1.2-3.8
					c0-0.1-0.3-0.7-0.9-1.8c-0.5-0.9-0.8-1.3-0.9-1.6c-0.4-0.6-1.4-1.6-3.3-1.6c-0.2,0-0.4,0-0.6,0c-2.9-1.9-6.7-2.2-10-0.4
					c-2.3,1.2-4,3.3-4.7,5.8c-0.3,0.9-0.4,1.9-0.4,2.9c-1,1.4-1.3,2.7-0.7,4c0.1,0.3,0.3,0.7,0.8,1.5c0.6,1.1,1,1.6,1,1.7
					c0.6,0.9,1.5,1.4,2.5,1.4c0.4,0,0.8-0.1,1.2-0.3c1.5,0.9,3.3,1.4,5,1.4c0.4,0,0.8,0,1.3-0.1l2.9,5.4l-0.1,0.1
					c-2.5,2.5-3.4,5.4-2.8,8.4c1,5,6.1,9.2,10.5,11c2.5,1,5.2,1.4,7.9,1.4c1.3,0,2.5-0.1,3.8-0.3c0.5,10,7.5,20.2,11.7,25.6l0.2,0.3
					c3,3.9,8.4,4.3,12.3,3c2.5-0.8,3.9-2.2,3.9-3.9v-7h1.4v7.4c0,1.8,1.3,3.3,3.6,4.1c1.1,0.4,2.4,0.6,3.8,0.6
					c3.3,0,6.8-1.2,8.8-3.7l0.2-0.2c1.7-2.2,4-5.3,6-8.8c0.6-0.2,1.3-0.4,2-0.6c5.7-1.9,9.8-5,13.5-7.7c5-3.8,6.8-4.9,9.5-3.8
					c0.8,0.3,1.3,1,1.6,1.9c0.4,1.3,0.1,2.9-0.5,3.8c-1.6,2.2-1.1,5.4,1.2,7c0.9,0.6,1.9,0.9,2.9,0.9c0.2,0,0.4,0,0.6,0
					c1.4-0.2,2.6-0.9,3.4-2.1C122.5,201.4,123.3,196.6,122.1,192.4 M116.3,203.9c-0.5,0.1-1-0.1-1.4-0.4c-0.9-0.6-1.1-1.9-0.5-2.8
					c1.2-1.7,1.6-4.2,1-6.4c-0.5-1.8-1.7-3.2-3.3-3.8c-4.4-1.9-7.8,0.6-12.4,4.1c-3.5,2.6-7.4,5.5-12.6,7.3
					c-8,2.7-14.6,2.1-22.4,0.4l0,0v-0.1c-0.5,0-1.1,0.1-1.6,0.1c-5,0-8.3-1.8-8.3-1.8c-0.7-0.4-1.6-0.1-2,0.6
					c-0.4,0.7-0.1,1.6,0.6,2c0.1,0.1,2.4,1.3,6,1.9v8.5c-0.1,0.3-1.3,1.2-3.6,1.5c-1.1,0.2-5.1,0.5-7.2-2.3l-0.3-0.3
					c-4.2-5.2-11.1-15.4-11.1-24.9c0-5.6,1.2-10.5,2.7-15c0.7,0.7,1.2,1.4,1.5,1.8v6.5v7.1v8.1c0,2.3,1.9,4.1,4.1,4.1h34
					c0.9,0,1.7-0.3,2.4-0.8c1.3-0.3,2.6-0.6,4-1.1c4.6-1.5,8.1-4.1,11.5-6.7c5.1-3.8,9.8-7.4,16.4-4.6c2.7,1.2,4.7,3.4,5.6,6.4
					c1,3.4,0.3,7.1-1.6,9.8C117.3,203.5,116.8,203.8,116.3,203.9 M77.5,212.5c-1.9,2.5-6.4,3.1-9.2,2.2c-0.9-0.3-1.6-0.8-1.6-1.2
					v-7.7c5.3,1,10,1.4,15.3,0.5c-1.6,2.6-3.2,4.7-4.3,6L77.5,212.5z M23.7,184.5c-3.7-1.5-7.9-5.1-8.7-8.8c-0.4-2,0.3-3.9,2-5.7
					c5.3-5.3,12-1.4,12.3-1.2c0.6,0.4,1.4,0.3,1.9-0.2c0.4-0.4,0.8-0.8,1.1-1.1c2,0.6,3.7,1.6,5.1,2.7c-1.1,3.1-2.9,8.8-3.2,15.4
					C30.6,185.9,26.9,185.9,23.7,184.5 M10.7,159.4c-1,0-2-0.3-2.9-0.7c0.7-0.7,2.3-1.8,4.7-3.1c2.3-1.3,4.1-1.9,5.1-2.2
					c-0.1,1-0.5,2-1,2.9c-0.5-0.4-1.1-0.7-1.8-0.6c-0.7,0-1.4,0.4-2,0.7C10.9,157.3,10.5,158.5,10.7,159.4 M13.8,159.2
					c0.1-0.1,0.2-0.1,0.4-0.3c0.2-0.1,0.3-0.2,0.4-0.2l3.6,6.7c-0.3,0.1-0.6,0.3-0.9,0.5L13.8,159.2z M111.7,137
					c0.8,0.7,1.4,2.6,0.8,4.8c-0.1,0.3-0.1,0.6,0,0.9c0,0.1,2.1,6.1-2.2,13.7c-3.6,6.3-12.2,15.5-19.6,21.2
					c-0.5-2.8-1.3-5.7-2.3-8.5c-0.3-0.8-1.1-1.2-1.9-0.9s-1.2,1.1-0.9,1.9c2.1,5.8,3.1,11.6,3.1,17.2c0,2.2-0.4,4.5-1,6.8
					c-0.9,0.4-1.8,0.8-2.8,1.1c-0.4,0.1-0.8,0.3-1.3,0.4v-7.9v-7.1v-12.2c0-0.7-0.1-1.4-0.2-2.1c0.7-1.8,3.7-9.2,7.3-14.4
					c3-2.2,5.4-4.6,7.1-7.3c5.9-3.9,10.8-7.1,12.1-7.7C110.9,136.5,111.4,136.8,111.7,137 M62.5,154.9c8.4,0,15.5,4.3,17.5,10.1
					c-1.3-1.6-3-2.9-4.9-4l0.2-0.4c0.3-0.8-0.1-1.6-0.8-1.9l-6.3-2.5c-0.4-0.1-0.8-0.1-1.2,0c-0.4,0.2-0.7,0.5-0.8,0.8l-0.4,0.9
					c-1.1-0.1-2.2-0.2-3.3-0.2c-7.3,0-13.7,2.9-17.5,7.3C46.9,159.3,54,154.9,62.5,154.9 M55.2,149.3l1.6-1.3v1.2l0,0v3.4
					c-0.5,0.1-1.1,0.3-1.6,0.4V149.3z M59.8,146.3h5v1.3h-5L59.8,146.3z M67.8,148l1.6,1.3v3.6c-0.5-0.1-1.1-0.3-1.6-0.4V148z
					 M59.8,150.7h5v1.4c-0.8-0.1-1.6-0.1-2.4-0.1c-0.9,0-1.8,0.1-2.7,0.1L59.8,150.7L59.8,150.7z M80.6,195.8c0,0.6-0.5,1.1-1.1,1.1
					h-34c-0.6,0-1.1-0.5-1.1-1.1v-2.2h36.2C80.6,193.6,80.6,195.8,80.6,195.8z M44.3,180.6c0-7.4,8.1-13.5,18.1-13.5
					s18.1,6,18.1,13.5v4.1v5.8H44.3v-5.8V180.6z M62.5,160.8c0.8,0,1.5,0,2.2,0.1l-0.1,0.1c-0.3,0.8,0.1,1.6,0.8,1.9l6.3,2.5
					c0.2,0.1,0.4,0.1,0.6,0.1s0.4,0,0.6-0.1c0.4-0.2,0.7-0.5,0.8-0.8l0.3-0.7c3.2,2,5.5,4.8,6.3,7.9c-3.8-4.6-10.3-7.6-17.8-7.6
					s-14,3.1-17.8,7.6C46.2,165.5,53.6,160.8,62.5,160.8 M68,160.7l0.5-1.2l3.5,1.4l-0.4,1.2L68,160.7z M78.9,158.1
					c2.2-0.9,4.3-1.8,6.2-2.8c-1.3,2.4-2.4,4.8-3.2,6.7C81.1,160.6,80.1,159.3,78.9,158.1 M92.6,138.6c-0.7-0.9-0.8-1.6-0.7-1.8
					c0.4-0.8,1.6-1.3,3.3-1.3c0.1,0,0.2,0,0.3,0c0.9,0,1.8,0,2.4-0.1c-0.1,2.2-0.9,4.2-1.4,5.3C94.3,140.4,93.1,139.1,92.6,138.6
					 M35.4,161.9c1.4,0.6,2.9,1,4.6,1.4c0.1,0,0.2,0.1,0.3,0.1s0.3,0,0.4,0.1c0.5,0.1,1,0.2,1.5,0.3c-0.6,1.5-0.9,3.1-0.9,4.8v1.1
					c-1.8-1.7-4.3-3.7-7.7-4.8C34.2,163.4,34.8,162.5,35.4,161.9 M97.6,125c0.1,0.1,0.1,0.1,0.2,0.2c0,0,0,0,0,0.1s0.1,0.2,0.1,0.3
					l0,0c0,0.1,0.1,0.2,0.1,0.3v0.1c0,0.1,0.1,0.3,0.1,0.4c0,0,0,0,0,0.1s0.1,0.3,0.1,0.4c0,0,0,0,0,0.1c0,0.2,0.1,0.3,0.1,0.5v0.1
					c0,0.2,0,0.3,0.1,0.5l0,0c0,0.2,0,0.3,0,0.5c0,0,0,0,0,0.1c0,0.3,0,0.6,0,0.9c0,0,0,0,0,0.1c0,0.3-0.1,0.5-0.1,0.8l0,0
					c0,0.1-0.1,0.2-0.1,0.3l0,0c-0.1,0.1-0.1,0.1-0.2,0.2l0,0c-0.1,0-0.1,0.1-0.2,0.1l0,0c-0.1,0-0.2,0-0.3,0
					c0.1,0.5,0.2,1.1,0.2,1.6c-0.6,0.1-1.3,0.1-2.2,0.1c-3.2-0.1-5.6,1-6.5,3.1c-0.4,0.9-0.3,2.1,0.2,3.2c0.2,0.4,0.3,0.7,0.6,1.1
					c1.2,1.8,3,3,5.1,3.5c-1.4,2.1-3.3,4-5.6,5.8c-3.4,2.6-7.8,4.9-13.2,6.7c-1.2-0.8-2.4-1.5-3.8-2v-5.3c0-0.5-0.2-0.9-0.6-1.2
					l-4.6-3.8l0,0c-0.1-0.1-0.2-0.1-0.3-0.2l0,0c-0.1,0-0.2-0.1-0.4-0.1h-0.1h-0.1l0,0h-8h-0.1H58c-0.1,0-0.2,0-0.4,0.1l0,0
					c-0.1,0-0.2,0.1-0.3,0.2l0,0l-4.6,3.8c-0.3,0.3-0.6,0.7-0.6,1.2v5.4c-3.6,1.6-6.5,3.9-8.4,6.8c-4.4-0.5-8-1.8-10.8-3.6
					c-0.2-0.1-0.3-0.2-0.5-0.4c-0.1-0.1-0.1-0.1-0.2-0.2c-1.6-1.3-2.7-2.7-3.4-3.9c-0.1-0.2-0.3-0.5-0.4-0.7
					c-0.1-0.1-0.1-0.2-0.2-0.3c-0.2-0.4-0.3-0.7-0.4-1.1l0,0l0,0c-3.7-10.9-3.5-21.3,0.5-30.9c0.3-0.8,0-1.6-0.8-2
					c-0.8-0.3-1.6,0-2,0.8c-0.3,0.8-0.6,1.5-0.9,2.3l-3.6-12l6.3,0.4l-1.3,2.9c-0.3,0.8,0,1.6,0.7,2c0.2,0.1,0.4,0.1,0.6,0.1
					c0.6,0,1.1-0.3,1.4-0.9l5.8-12.8l11.2,8.6c0.7,0.5,1.6,0.4,2.1-0.3c0.5-0.7,0.4-1.6-0.3-2.1l-4.1-3.1c1.5-0.7,3.2-1.4,4.9-2
					c5.2-1.8,10.3-2.4,15-1.8c7.6,1.2,13,4.1,13.1,4.1c0.2,0.1,0.4,0.2,0.5,0.3l0,0c0.1,0.1,0.2,0.2,0.3,0.3
					c5.2,3.3,8.2,7.1,11.1,12.1c1,1.8,2,3.8,3.1,5.9c0.6,1.1,1.6,2,2.6,2.9c0.1-0.1,0.1-0.1,0.2-0.2l0,0c0.1-0.1,0.2-0.2,0.3-0.3
					C95.9,123.7,96.4,123.7,97.6,125 M7.6,146.7c1-0.6,2.1-0.8,3.2-0.8c0.1,0,0.3,0,0.4,0c-1.3,0.6-2.5,1.2-3.2,1.6
					c-1.1,0.6-2.2,1.3-3.2,1.9C5.5,148.2,6.4,147.3,7.6,146.7 M4.1,157.5c-0.1-0.2-0.2-0.4-0.4-0.7c-0.1-0.3-0.2-0.5-0.3-0.6
					c-0.3-0.5-0.3-0.7-0.3-0.7c-0.1-0.1-0.1-0.2,0-0.4s0.2-0.5,0.5-0.8c0.1-0.1,0.2-0.2,0.3-0.3c0.2-0.2,0.5-0.5,0.8-0.7
					c0.4-0.4,0.9-0.8,1.5-1.2s1.2-0.8,1.9-1.2c0.5-0.3,0.9-0.5,1.4-0.8l0,0c0.3-0.2,0.7-0.4,1-0.5c0.1,0,0.2-0.1,0.2-0.1
					c0.3-0.2,0.6-0.3,1-0.5h0.1c0.3-0.1,0.6-0.3,0.9-0.4c0.1,0,0.1-0.1,0.2-0.1c0.3-0.1,0.6-0.2,0.9-0.3h0.1
					c0.2-0.1,0.5-0.2,0.7-0.2c0.1,0,0.1,0,0.2-0.1c0.2-0.1,0.5-0.1,0.7-0.2h0.1c0.2,0,0.4-0.1,0.5-0.1h0.1c0.2,0,0.3,0,0.5,0l0,0
					h0.1h0.1c0.1,0,0.1,0,0.1,0h0.1c0,0,0.1,0,0.1,0.1c0,0,0,0,0.1,0l0.1,0.1c0,0,0,0,0,0.1c0.1,0.1,0.2,0.3,0.4,0.6
					c0,0.1,0.1,0.2,0.2,0.3c0,0,0,0,0,0.1s0.1,0.2,0.1,0.3c0.5,1,0.8,1.5,0.8,1.5l-0.1-0.1c0,0,0,0-0.1,0c0,0-0.1,0-0.1-0.1h-0.1
					h-0.1h-0.1h-0.1l0,0c-0.2,0-0.3,0-0.5,0h-0.1c-0.2,0-0.3,0.1-0.5,0.1H17c-0.2,0.1-0.5,0.1-0.7,0.2c-0.1,0-0.1,0-0.2,0.1
					c-0.2,0.1-0.5,0.1-0.7,0.2h-0.1c-0.3,0.1-0.6,0.2-0.9,0.3c-0.1,0-0.1,0.1-0.2,0.1c-0.3,0.1-0.6,0.2-0.9,0.4h-0.1
					c-0.3,0.1-0.6,0.3-1,0.5l-0.2,0.1c-0.3,0.2-0.7,0.3-1,0.5c-0.2,0.1-0.5,0.3-0.7,0.4c-0.5,0.3-0.9,0.5-1.4,0.8
					c-0.2,0.1-0.4,0.3-0.6,0.4c-1,0.7-1.9,1.3-2.5,1.9c-0.5,0.5-0.9,0.9-1,1.2c-0.1,0.2-0.1,0.3-0.1,0.5c0,0.1,0,0.1,0,0.2
					C4.6,158.3,4.4,158,4.1,157.5"/>
			</g>
			<g>
				<path d="M82.4,125c-1.5,0.5,0.2,0.5,1.1,2.9s2.8,4,4.3,3.4c1.5-0.5,1.9-3,1-5.4C87.9,123.6,83.8,124.5,82.4,125"/>
			</g>
			<g>
				<path d="M62.3,171c-4.9,0-8.8,4-8.8,8.8c0,4.9,4,8.8,8.8,8.8c4.9,0,8.8-4,8.8-8.8C71.2,175,67.2,171,62.3,171 M56.5,179.9
					c0-3.2,2.6-5.8,5.8-5.8s5.8,2.6,5.8,5.8s-2.6,5.8-5.8,5.8S56.5,183.1,56.5,179.9"/>
			</g>
			<g>
				<path d="M60.4,183.3L60.4,183.3c0.8,0,1.5-0.7,1.5-1.5v-3.9c0-0.8-0.7-1.5-1.5-1.5l0,0c-0.8,0-1.5,0.7-1.5,1.5v3.9
					C58.9,182.6,59.5,183.3,60.4,183.3"/>
			</g>
			<g>
				<path d="M64.3,183.3L64.3,183.3c0.8,0,1.5-0.7,1.5-1.5v-3.9c0-0.8-0.7-1.5-1.5-1.5c-0.8,0-1.5,0.7-1.5,1.5v3.9
					C62.8,182.6,63.5,183.3,64.3,183.3"/>
			</g>
		</g>
	</g>
</g>
</svg>
