<?xml version="1.0" encoding="utf-8"?>
<!-- Generator: Adobe Illustrator 23.0.0, SVG Export Plug-In . SVG Version: 6.00 Build 0)  -->
<svg version="1.1" id="레이어_1" xmlns="http://www.w3.org/2000/svg" xmlns:xlink="http://www.w3.org/1999/xlink" x="0px"
	 y="0px" width="50px" height="50px" viewBox="0 0 50 50" style="enable-background:new 0 0 50 50;" xml:space="preserve">
<g>
	<circle style="fill:none;stroke:#FF6600;stroke-width:4;stroke-linejoin:round;stroke-miterlimit:10;" cx="25" cy="25" r="23"/>
	<g>
		<g>
			<path style="fill:#FF6600;" d="M18.4,29.4h-3.8c-2.6,0-4.7-2-4.7-4.5s2.1-4.5,4.7-4.5h3.8V29.4z"/>
			<path style="fill:#FF6600;" d="M18.4,30.4h-3.8c-3.1,0-5.7-2.5-5.7-5.5c0-3.1,2.6-5.5,5.7-5.5h3.8c0.6,0,1,0.4,1,1v9.1
				C19.4,29.9,19,30.4,18.4,30.4z M14.7,21.3c-2,0-3.7,1.6-3.7,3.5s1.7,3.5,3.7,3.5h2.8v-7.1h-2.8V21.3z"/>
		</g>
		<path style="fill:#FF6600;" d="M18.4,20.3l8.3-5.7c1.2-0.9,3,0,3,1.5v17.6c0,1.5-1.7,2.3-3,1.5l-8.3-5.7
			C18.4,29.5,18.4,20.3,18.4,20.3z"/>
		<path style="fill:none;stroke:#FF6600;stroke-miterlimit:10;" d="M27.8,36.4c-0.6,0-1.2-0.2-1.7-0.5l-8.3-5.7
			c-0.3-0.2-0.4-0.5-0.4-0.8v-9.1c0-0.3,0.2-0.6,0.4-0.8l8.3-5.7c0.9-0.6,2-0.7,3-0.2c0.9,0.5,1.5,1.4,1.5,2.5v17.6
			c0,1-0.6,2-1.5,2.5C28.8,36.3,28.3,36.4,27.8,36.4z M19.4,28.9l7.9,5.4c0.3,0.2,0.6,0.2,0.9,0.1c0.1-0.1,0.4-0.3,0.4-0.7V16.1
			c0-0.4-0.3-0.6-0.4-0.7c-0.3-0.2-0.7-0.1-0.9,0.1l-7.9,5.4V28.9z"/>
	</g>
	<path style="fill:none;stroke:#FF6600;stroke-width:2;stroke-linejoin:round;stroke-miterlimit:10;" d="M33.5,19.5
		c2.9,0,5.3,2.4,5.3,5.3s-2.4,5.3-5.3,5.3"/>
</g>
</svg>
