<?xml version="1.0" encoding="utf-8"?>
<!-- Generator: Adobe Illustrator 23.0.0, SVG Export Plug-In . SVG Version: 6.00 Build 0)  -->
<svg version="1.1" id="레이어_1" xmlns="http://www.w3.org/2000/svg" xmlns:xlink="http://www.w3.org/1999/xlink" x="0px"
	 y="0px" width="50px" height="50px" viewBox="0 0 50 50" style="enable-background:new 0 0 50 50;" xml:space="preserve">
<g>
	
		<ellipse style="fill:none;stroke:#FF6600;stroke-width:4;stroke-linejoin:round;stroke-miterlimit:10;" cx="25" cy="25" rx="23" ry="23"/>
	<path style="fill:#FF6600;" d="M33,35H17c-1.1,0-2-0.9-2-2V17c0-1.1,0.9-2,2-2h16c1.1,0,2,0.9,2,2v16C35,34.1,34.1,35,33,35"/>
	<path style="fill:none;stroke:#FF6600;stroke-width:2;stroke-linejoin:round;stroke-miterlimit:10;" d="M33,35H17c-1.1,0-2-0.9-2-2
		V17c0-1.1,0.9-2,2-2h16c1.1,0,2,0.9,2,2v16C35,34.1,34.1,35,33,35z"/>
</g>
</svg>
