<?xml version="1.0" encoding="utf-8"?>
<!-- Generator: Adobe Illustrator 23.0.0, SVG Export Plug-In . SVG Version: 6.00 Build 0)  -->
<svg version="1.1" id="레이어_1" xmlns="http://www.w3.org/2000/svg" xmlns:xlink="http://www.w3.org/1999/xlink" x="0px"
	 y="0px" width="48.1px" height="42.2px" viewBox="0 0 48.1 42.2" style="enable-background:new 0 0 48.1 42.2;"
	 xml:space="preserve">
<g>
	<defs>
		<rect id="SVGID_1_" x="1" y="1" width="46.1" height="40.2"/>
	</defs>
	<clipPath id="SVGID_2_">
		<use xlink:href="#SVGID_1_"  style="overflow:visible;"/>
	</clipPath>
	<path style="clip-path:url(#SVGID_2_);fill:#898989;" d="M15.6,28.7h-12c-1.4,0-2.6-1.2-2.6-2.6v-10c0-1.4,1.2-2.6,2.6-2.6h12V28.7
		z"/>
	<rect x="10.2" y="13.5" style="clip-path:url(#SVGID_2_);fill:#6B6B6B;" width="5.4" height="15.2"/>
	<polygon style="clip-path:url(#SVGID_2_);fill:#898989;" points="36.1,1 15.6,13.5 15.6,21.1 15.6,28.7 36.1,41.2 47.1,41.2 
		47.1,21.1 47.1,1 	"/>
	<rect x="36.3" y="1" style="clip-path:url(#SVGID_2_);fill:#C7C7C7;" width="10.8" height="40.2"/>
	<path style="clip-path:url(#SVGID_2_);fill:#898989;" d="M10.7,38.8H10c-2.7,0-4.9-2.2-4.9-4.9v-5.2h10.5v5.2
		C15.6,36.6,13.4,38.8,10.7,38.8"/>
	<rect x="5.1" y="28.7" style="clip-path:url(#SVGID_2_);fill:#6B6B6B;" width="10.5" height="3.1"/>
</g>
</svg>
