
<svg xmlns="http://www.w3.org/2000/svg" version="1.1" xmlns:xlink="http://www.w3.org/1999/xlink" preserveAspectRatio="none" x="0px" y="0px" width="118px" height="123px" viewBox="0 0 118 123">
<defs>
<g id="___1_0_Layer0_0_FILL">
<path fill="#FF0000" stroke="none" d="
M 112.05 58.55
L 112.05 58.55
Q 112.1 57.311328125 112.1 56.05 112.1 32.85 95.65 16.4 79.25 0 56.05 0 32.85 0 16.4 16.4 0 32.85 0 56.05 0 57.3099609375 0.05 58.55 0.890625 80.140625 16.4 95.65 32.85 112.1 56.05 112.1 79.25 112.1 95.65 95.7
L 95.7 95.65
Q 111.1994140625 80.1505859375 112.05 58.55
M 96.1 56.05
Q 96.1 57.312109375 96 58.55 95.30703125 71.617578125 86.9 81.55 85.7142578125 82.9857421875 84.35 84.35 72.6 96.1 56.05 96.1 39.45 96.1 27.7 84.35 16.91796875 73.56796875 16.05 58.6 16.076953125 58.5875 16.05 58.55 16.0107421875 57.493359375 16 56.4 16.000390625 56.3333984375 16 56.25 16 56.149609375 16 56.05 16 39.45 27.7 27.75
L 27.75 27.7
Q 39.45 16 56.05 16 72.65 16 84.35 27.7 96.1 39.45 96.1 56.05 Z"/>
</g>

<path id="___1_0_Layer0_0_1_STROKES" stroke="#000000" stroke-opacity="0.2" stroke-width="5" stroke-linejoin="round" stroke-linecap="round" fill="none" d="
M 0.05 58.55
Q 0 59.7900390625 0 61.05 0 84.25 16.4 100.65 32.85 117.1 56.05 117.1 79.25 117.1 95.65 100.7
L 95.7 100.65
Q 112.1 84.25 112.1 61.05 112.1 59.80078125 112.05 58.575
M 16.075 58.55
Q 16.891015625 43.558984375 27.7 32.75
L 27.75 32.7
Q 39.45 21 56.05 21 72.65 21 84.35 32.7 95.20390625 43.55390625 96.025 58.55"/>

<path id="___1_0_Layer0_0_2_STROKES" stroke="#FFFFFF" stroke-width="5" stroke-linejoin="round" stroke-linecap="round" fill="none" d="
M 112.05 58.575
Q 111.1994140625 80.1505859375 95.7 95.65
L 95.65 95.7
Q 79.25 112.1 56.05 112.1 32.85 112.1 16.4 95.65 0.890625 80.140625 0.05 58.55 0 57.3099609375 0 56.05 0 32.85 16.4 16.4 32.85 0 56.05 0 79.25 0 95.65 16.4 112.1 32.85 112.1 56.05 112.1 57.311328125 112.05 58.55
L 112.05 58.575 Z
M 96.1 56.05
Q 96.1 57.312109375 96.025 58.55 95.30703125 71.617578125 86.925 81.55 85.7142578125 82.9857421875 84.35 84.35 72.6 96.1 56.05 96.1 39.45 96.1 27.7 84.35 16.91796875 73.56796875 16.075 58.625 16.076953125 58.5875 16.075 58.55 16.0107421875 57.493359375 16 56.425 16.000390625 56.3333984375 16 56.25 16 56.149609375 16 56.05 16 39.45 27.7 27.75
L 27.75 27.7
Q 39.45 16 56.05 16 72.65 16 84.35 27.7 96.1 39.45 96.1 56.05 Z"/>
</defs>

<g transform="matrix( 1, 0, 0, 1, 2.95,2.95) ">
<g transform="matrix( 1, 0, 0, 1, 0,0) ">
<use xlink:href="#___1_0_Layer0_0_FILL"/>

<use xlink:href="#___1_0_Layer0_0_1_STROKES"/>

<use xlink:href="#___1_0_Layer0_0_2_STROKES"/>
</g>
</g>
</svg>
