
<svg xmlns="http://www.w3.org/2000/svg" version="1.1" xmlns:xlink="http://www.w3.org/1999/xlink" preserveAspectRatio="none" x="0px" y="0px" width="118px" height="123px" viewBox="0 0 118 123">
<defs>
<g id="___2_0_Layer0_0_FILL">
<path fill="#E96060" stroke="none" d="
M 85.95 10.6
Q 86.35 9.4267578125 86.35 8.1 86.35 4.8 84 2.45 81.65 0.05 78.4 0.05 75.05 0.05 72.7 2.4
L 43.2 31.9 13.65 2.35
Q 11.3 0 8 0 4.7 0 2.35 2.35 0 4.7 0 8 0 9.3267578125 0.35 10.5 0.944921875 12.244921875 2.35 13.65
L 31.9 43.2 29.4 45.7 2.35 72.75
Q 0 75.1 0 78.4 0 79.7267578125 0.35 80.9 0.944921875 82.644921875 2.35 84.05 4.7 86.4 8 86.4 11.3 86.4 13.65 84.05
L 43.2 54.5 72.7 84
Q 75.05 86.35 78.35 86.35 81.65 86.35 84 84 85.405078125 82.594921875 85.95 80.85 86.35 79.6767578125 86.35 78.35 86.35 75.05 84 72.7
L 57.05 45.75 54.55 43.25 84 13.75
Q 85.405078125 12.344921875 85.95 10.6 Z"/>
</g>

<path id="___2_0_Layer0_0_1_STROKES" stroke="#000000" stroke-opacity="0.2" stroke-width="5" stroke-linejoin="round" stroke-linecap="round" fill="none" d="
M 57.05 45.75
L 84 18.75
Q 86.35 16.4 86.35 13.1 86.35 11.7732421875 85.975 10.6
M 0.375 80.9
Q 0 82.0732421875 0 83.4 0 86.7 2.35 89.05 4.7 91.4 8 91.4 11.3 91.4 13.65 89.05
L 43.2 59.5 72.7 89
Q 75.05 91.35 78.35 91.35 81.65 91.35 84 89 86.35 86.65 86.35 83.35 86.35 82.0232421875 85.975 80.85
M 0.375 10.5
Q 0 11.6732421875 0 13 0 16.3 2.35 18.65
L 29.4 45.7"/>

<path id="___2_0_Layer0_0_2_STROKES" stroke="#FFFFFF" stroke-width="5" stroke-linejoin="round" stroke-linecap="round" fill="none" d="
M 84 72.7
L 57.05 45.75 54.55 43.25 84 13.75
Q 85.405078125 12.344921875 85.975 10.6 86.35 9.4267578125 86.35 8.1 86.35 4.8 84 2.45 81.65 0.05 78.4 0.05 75.05 0.05 72.7 2.4
L 43.2 31.9 13.65 2.35
Q 11.3 0 8 0 4.7 0 2.35 2.35 0 4.7 0 8 0 9.3267578125 0.375 10.5 0.944921875 12.244921875 2.35 13.65
L 31.9 43.2 29.4 45.7 2.35 72.75
Q 0 75.1 0 78.4 0 79.7267578125 0.375 80.9 0.944921875 82.644921875 2.35 84.05 4.7 86.4 8 86.4 11.3 86.4 13.65 84.05
L 43.2 54.5 72.7 84
Q 75.05 86.35 78.35 86.35 81.65 86.35 84 84 85.405078125 82.594921875 85.975 80.85 86.35 79.6767578125 86.35 78.35 86.35 75.05 84 72.7 Z"/>

<path id="___2_0_Layer0_1_1_STROKES" stroke="#FF0000" stroke-width="16" stroke-linejoin="round" stroke-linecap="round" fill="none" d="
M 78.36216735839844 8.044924926757815
L 8.006484985351562 78.40060729980469"/>

<path id="___2_0_Layer0_2_1_STROKES" stroke="#FF0000" stroke-width="16" stroke-linejoin="round" stroke-linecap="round" fill="none" d="
M 78.35507507324219 78.36216735839844
L 7.999392700195315 8.006484985351562"/>
</defs>

<g transform="matrix( 1, 0, 0, 1, 15.85,15.8) ">
<g transform="matrix( 1, 0, 0, 1, 0,0) ">
<use xlink:href="#___2_0_Layer0_0_FILL"/>

<use xlink:href="#___2_0_Layer0_0_1_STROKES"/>

<use xlink:href="#___2_0_Layer0_0_2_STROKES"/>
</g>

<g transform="matrix( 0.70709228515625, 0.70709228515625, -0.70709228515625, 0.70709228515625, 43.75,41.95) ">
<use xlink:href="#___2_0_Layer0_1_1_STROKES" transform="matrix( 0.7071075439453125, -0.7071075439453125, 0.7071075439453125, 0.7071075439453125, -60.6,1.25) "/>
</g>

<g transform="matrix( -0.70709228515625, 0.70709228515625, -0.70709228515625, -0.70709228515625, 44.45,43.75) ">
<use xlink:href="#___2_0_Layer0_2_1_STROKES" transform="matrix( -0.7071075439453125, -0.7071075439453125, 0.7071075439453125, -0.7071075439453125, 0.45,62.35) "/>
</g>
</g>
</svg>
