<?xml version="1.0" encoding="utf-8"?>
<!-- Generator: Adobe Illustrator 23.0.0, SVG Export Plug-In . SVG Version: 6.00 Build 0)  -->
<svg version="1.1" id="레이어_1" xmlns="http://www.w3.org/2000/svg" xmlns:xlink="http://www.w3.org/1999/xlink" x="0px"
	 y="0px" width="193px" height="206px" viewBox="0 0 193 206" style="enable-background:new 0 0 193 206;" xml:space="preserve">
<g>
	<path style="fill:#68645D;stroke:#231916;stroke-width:2.8347;stroke-linecap:round;stroke-linejoin:round;" d="M174.5,127.2H18.6
		c-2.1,0-2.3-3.4-0.3-3.7c0,0,25.1-6.2,25.2-6.2c0,0,106.2,0,106.3,0l25,6.1C176.8,123.8,176.6,127.2,174.5,127.2z"/>
	<circle style="fill:#FFFFFF;stroke:#1DBBEB;stroke-width:7;stroke-miterlimit:10;" cx="98.4" cy="79.5" r="73"/>
	<g style="display:none;">
		<g style="display:inline;">
			<path style="fill:#FFFFFF;stroke:#231916;stroke-width:2.8347;stroke-linecap:round;stroke-linejoin:round;" d="M75.1,81.5
				c0,0-23.2-47.4-46.2-32.7c-20.6,13.2,21.3,68,21.3,68l6.5,8.1"/>
			<g>
				<path style="fill:#CCE5F3;" d="M29.5,58.1c-2.3,0.2-2,3.7,0.3,3.5C32.1,61.5,31.8,58,29.5,58.1z"/>
				<path style="fill:#CCE5F3;" d="M33,52.3c-2.3,0.2-2,3.7,0.3,3.5C35.6,55.7,35.3,52.2,33,52.3z"/>
				<path style="fill:#CCE5F3;" d="M39.9,50.3c-2.3,0.2-2,3.7,0.3,3.5C42.4,53.6,42.2,50.1,39.9,50.3z"/>
				<path style="fill:#CCE5F3;" d="M39.6,55.9l-0.3,0c-4.2,0.3-7.4,4.1-7,8.3c0.3,4.2,4.1,7.4,8.3,7.1l0.3,0c4.2-0.3,7.4-4.1,7-8.3
					C47.6,58.7,43.8,55.5,39.6,55.9z"/>
			</g>
		</g>
		<g style="display:inline;">
			<path style="fill:#FFFFFF;stroke:#231916;stroke-width:2.8347;stroke-linecap:round;stroke-linejoin:round;" d="M141.8,121.1
				c26.5-6.4,31.3-43.6,26.6-54.2c-4.7-10.7-29.5-14.3-28.8,17.4"/>
		</g>
		<rect x="53.3" y="79" style="display:inline;fill:#FFFFFF;" width="95.2" height="36.7"/>
		<path style="display:inline;fill:#FFFFFF;stroke:#231916;stroke-width:2.8347;stroke-linecap:round;stroke-linejoin:round;" d="
			M56,106.5c0,0-8.3,15.8-8.3,34.8c0,26.1,20.9,49,22.7,51.3c7.8,10.2,28.3,5.4,28.3,0c0-3.3,0-19.2,0-19.2h4.5c0,0,0,15.9,0,19.2
			c0,5.4,20.5,10.2,28.3,0c1.8-2.4,22.7-25.3,22.7-51.3c0-19.7-8.3-34.8-8.3-34.8"/>
		<path style="display:inline;fill:#FFFFFF;stroke:#231916;stroke-width:2.8347;stroke-linecap:round;stroke-linejoin:round;" d="
			M118.9,171.8c0,0-7,3.9-17.7,3.9c-10.7,0-17.7-3.9-17.7-3.9"/>
		<path style="display:inline;fill:#EEF7FD;" d="M141,135.7c3.8,16.4-9.9,30.1-40,30.2C70.2,166,59.7,153.4,60.8,136
			c1.4-22,17.9-27.6,40-27.7C123,108.2,136.1,114.7,141,135.7z"/>
		<g style="display:inline;">
			<path style="fill:#FFFFFF;stroke:#231916;stroke-width:2.8347;stroke-linecap:round;stroke-linejoin:round;" d="M97.3,97.3
				c27.8,3.4,51.1-3.8,54.4-29.6c4.1-31.8-16.1-53-43.9-56.5C79.8,8,55.2,23.7,51.6,55.5C48.6,81.4,69.5,94,97.3,97.3z"/>
			<g>
				<g>
					<g>
						<path style="fill:#FFFFFF;stroke:#231916;stroke-width:2.8347;stroke-linecap:round;stroke-linejoin:round;" d="M139.1,29.5
							c5.5-0.6,9.5-5.6,8.8-11.1c-0.6-5.5-5.6-9.5-11.1-8.8c-5.5,0.6-9.5,5.6-8.8,11.1"/>
					</g>
				</g>
				<g>
					<g>
						<path style="fill:#FFFFFF;stroke:#231916;stroke-width:2.8347;stroke-linecap:round;stroke-linejoin:round;" d="M72.8,21.8
							c-5.2-2-7.8-7.8-5.8-13c2-5.2,7.8-7.8,13-5.8c5.2,2,7.8,7.8,5.8,13"/>
					</g>
				</g>
			</g>
			<path style="fill:none;stroke:#231916;stroke-width:2.8347;stroke-linecap:round;stroke-linejoin:round;" d="M89,65.5
				c-0.3,2.4,4.9,4.3,11.5,5c6.6,0.8,12.1,0.1,12.3-2.3"/>
			<path style="fill:#DEF1FB;" d="M69.9,52.5c0.8-2.5,3-4.1,5.1-5.4c1.8-1.1,3.9-1.1,5.9-1.1c2.6,0,4.9,1.7,6.6,3.5
				c1.7,1.9,2.3,5.3,1.8,7.8c-0.2,1.3-0.7,2.6-1.5,3.6c-0.2,0.5-0.5,0.9-0.8,1.4c-1.2,1.8-3.7,3.2-5.8,3.3c-1.9,0.1-3.8-0.1-5.6-0.9
				c-1-0.5-2.1-1.1-3-1.9c-1.2-1.2-2.2-2.2-2.8-3.8c-0.2-0.7-0.5-1.5-0.6-2.3C69.2,54.8,69.2,54.5,69.9,52.5z"/>
			<path style="fill:#DEF1FB;" d="M134.6,60.4c-0.2-2.7-1.9-4.7-3.7-6.4c-1.5-1.5-3.5-2-5.4-2.5c-2.5-0.6-5.1,0.5-7.2,1.9
				c-2.1,1.5-3.5,4.6-3.6,7.2c-0.1,1.3,0,2.6,0.5,3.9c0.1,0.5,0.3,1,0.4,1.5c0.8,2.1,2.8,4,4.8,4.6c1.8,0.6,3.7,0.9,5.6,0.4
				c1.1-0.2,2.3-0.5,3.3-1.1c1.4-0.8,2.7-1.6,3.6-3c0.4-0.6,0.9-1.3,1.1-2.1C134.7,62.7,134.7,62.5,134.6,60.4z"/>
			<path style="fill:#231916;" d="M86.3,48.1c-0.6,1.6-0.5,3,1.2,3.8c1.6,0.7,3-0.1,3.7-1.6c0.7-1.6,0.5-3.3-1.3-4
				C88.2,45.6,86.9,46.5,86.3,48.1z"/>
			<path style="fill:#231916;" d="M119.7,52.2c0.2,1.7-0.2,3-2.1,3.4c-1.7,0.3-2.9-0.8-3.2-2.5c-0.3-1.7,0.4-3.4,2.2-3.6
				C118.5,49.3,119.5,50.5,119.7,52.2z"/>
			<path style="fill:#231916;" d="M110,59.2c-0.3,2.7-4.1,4.6-8.5,4.1c-4.4-0.5-7.7-3.1-7.4-5.9c0.3-2.7,4.1-4.6,8.5-4.1
				C107,53.8,110.3,56.4,110,59.2z"/>
		</g>
		<g style="display:inline;">
			<path style="fill:#FFFFFF;stroke:#231916;stroke-width:2.8347;stroke-linecap:round;stroke-linejoin:round;" d="M156.7,80
				c-5,0.5-7.4-0.8-10-5c-2.7-4.3-2.9-9.9,0.6-13.8c4.2-4.7,8.8-6.4,14.2-4c0.6,0.2,1.1,0.5,1.5,0.9c3.4,1.5,7.3,7.9,6.4,12.7"/>
		</g>
	</g>
	<g>
		<g>
			<g>
				<g>
					<rect x="16.9" y="123.6" style="fill:#FDEBC7;" width="159.3" height="80"/>
					<rect x="16.9" y="123.6" style="opacity:0.3;fill:#231916;" width="159.3" height="60"/>
				</g>
				
					<rect x="16.9" y="123.6" style="fill:none;stroke:#231916;stroke-width:2.8347;stroke-linecap:round;stroke-linejoin:round;" width="159.3" height="80"/>
			</g>
			<g>
				<g>
					<polygon style="fill:#FDEBC7;" points="190.6,163.6 2.4,163.6 16.9,123.6 176.2,123.6 					"/>
					<polygon style="fill:#B5A89C;" points="190.6,163.6 2.4,163.6 8.9,167.6 184.2,167.6 					"/>
					
						<polyline style="fill:none;stroke:#8D817B;stroke-width:1.8;stroke-linecap:round;stroke-linejoin:bevel;stroke-miterlimit:10;" points="
						8.9,168.5 8.9,163.5 15,168.5 15.3,163.5 21,168.5 21.6,163.5 27,168.5 28,163.5 33.1,168.5 34.3,163.5 39.1,168.5 40.7,163.5 
						45.2,168.5 47,163.5 51.2,168.5 53.4,163.5 57.3,168.5 59.7,163.5 63.3,168.5 66.1,163.5 69.4,168.5 72.4,163.5 75.4,168.5 
						78.8,163.5 81.5,168.5 85.1,163.5 87.5,168.5 91.5,163.5 93.5,168.5 97.8,163.5 99.6,168.5 104.2,163.5 105.6,168.5 
						110.5,163.5 111.7,168.5 116.9,163.5 117.7,168.5 123.2,163.5 123.8,168.5 129.6,163.5 129.8,168.5 135.9,163.5 135.9,168.5 
						142.3,163.5 141.9,168.5 148.6,163.5 148,168.5 155,163.5 154,168.5 161.3,163.5 160,168.5 167.7,163.5 166.1,168.5 174,163.5 
						172.1,168.5 180.4,163.5 178.2,168.5 186.7,163.5 184.2,168.5 					"/>
				</g>
				<polygon style="fill:none;stroke:#231916;stroke-width:2.8347;stroke-linecap:round;stroke-linejoin:round;" points="
					176.2,123.6 16.9,123.6 2.4,163.6 8.9,167.6 184.2,167.6 190.6,163.6 				"/>
			</g>
		</g>
		<g style="opacity:0.3;">
			<polygon style="fill:#231916;" points="80.8,203.6 80.8,188.6 83.6,191.4 85.1,188.6 88.6,191.2 90.3,188.6 92.4,190 94,187.3 
				98,190.5 101,187.3 104.2,190.3 106.2,187.3 109,190.1 111.3,187.3 111.3,203.6 			"/>
		</g>
	</g>
</g>
<g>
</g>
<g>
</g>
<g>
</g>
<g>
</g>
<g>
</g>
<g>
</g>
<g>
</g>
<g>
</g>
<g>
</g>
<g>
</g>
<g>
</g>
<g>
</g>
<g>
</g>
<g>
</g>
<g>
</g>
</svg>
