<?xml version="1.0" encoding="utf-8"?>
<!-- Generator: Adobe Illustrator 23.0.0, SVG Export Plug-In . SVG Version: 6.00 Build 0)  -->
<svg version="1.1" xmlns="http://www.w3.org/2000/svg" xmlns:xlink="http://www.w3.org/1999/xlink" x="0px" y="0px" width="120.5px"
	 height="148.4px" viewBox="0 0 120.5 148.4" style="enable-background:new 0 0 120.5 148.4;" xml:space="preserve">
<g>
	<g>
		<path style="opacity:0.2;" d="M110.9,5.6L12.6,6.1c-3.9,0-7,3-7,6.5l0.2,38L6.3,141c0,3.6,3.2,6.5,7,6.5l98.3-0.5
			c3.9,0,7-2.9,7-6.5l-0.4-90.4l-0.2-38C117.9,8.5,114.7,5.6,110.9,5.6z"/>
		<path style="fill:#141314;" d="M114.8,137c0,3.6-3.1,6.5-7,6.5L9.6,144c-3.9,0-7-2.9-7-6.5L2,9.2c0-3.6,3.1-6.5,7-6.5l98.3-0.5
			c3.9,0,7,2.9,7,6.5L114.8,137z"/>
		<path style="fill:#FFFFFF;" d="M2.2,47.1l0.4,90.4c0,3.6,3.2,6.5,7,6.5l98.3-0.5c3.9,0,7-3,7-6.5l-0.4-90.4L2.2,47.1z"/>
		
			<rect x="13.4" y="13.4" transform="matrix(1 -4.636946e-03 4.636946e-03 1 -0.1135 0.2699)" style="fill:#A0A0A0;" width="89.5" height="22.4"/>
		
			<rect x="13.4" y="14.9" transform="matrix(1 -4.636946e-03 4.636946e-03 1 -0.117 0.2699)" style="fill:#A8A8A8;" width="89.5" height="20.9"/>
		<path style="fill:#108E8E;" d="M39.4,73c0,2.1-1.8,3.8-4,3.8l-15,0.1c-2.2,0-4-1.7-4-3.7L16.3,59c0-2.1,1.8-3.8,4-3.8l15-0.1
			c2.2,0,4,1.7,4,3.7L39.4,73z"/>
		<path style="fill:#C4262E;" d="M69.9,72.9c0,2.1-1.8,3.8-4,3.8l-15,0.1c-2.2,0-4-1.7-4-3.7l-0.1-14.1c0-2.1,1.8-3.8,4-3.8l15-0.1
			c2.2,0,4,1.7,4,3.7L69.9,72.9z"/>
		<path style="fill:#E09620;" d="M100.4,72.7c0,2.1-1.8,3.8-4,3.8l-15,0.1c-2.2,0-4-1.7-4-3.7l-0.1-14.1c0-2.1,1.8-3.8,4-3.8l15-0.1
			c2.2,0,4,1.7,4,3.7L100.4,72.7z"/>
		<path style="fill:#BCBCBC;" d="M39.5,101.9c0,2.1-1.8,3.8-4,3.8l-15,0.1c-2.2,0-4-1.7-4-3.7l-0.1-14.1c0-2.1,1.8-3.8,4-3.8l15-0.1
			c2.2,0,4,1.7,4,3.7L39.5,101.9z"/>
		<path style="fill:#BCBCBC;" d="M70,101.7c0,2.1-1.8,3.8-4,3.8l-15,0.1c-2.2,0-4-1.7-4-3.7l-0.1-14.1c0-2.1,1.8-3.8,4-3.8l15-0.1
			c2.2,0,4,1.7,4,3.7L70,101.7z"/>
		<path style="fill:#BCBCBC;" d="M100.5,101.6c0,2.1-1.8,3.8-4,3.8l-15,0.1c-2.2,0-4-1.7-4-3.7l-0.1-14.1c0-2.1,1.8-3.8,4-3.8
			l15-0.1c2.2,0,4,1.7,4,3.7L100.5,101.6z"/>
		<path style="fill:#BCBCBC;" d="M39.7,130.7c0,2.1-1.8,3.8-4,3.8l-15,0.1c-2.2,0-4-1.7-4-3.7l-0.1-14.1c0-2.1,1.8-3.8,4-3.8l15-0.1
			c2.2,0,4,1.7,4,3.7L39.7,130.7z"/>
		<path style="fill:#BCBCBC;" d="M70.1,130.6c0,2.1-1.8,3.8-4,3.8l-15,0.1c-2.2,0-4-1.7-4-3.7l-0.1-14.1c0-2.1,1.8-3.8,4-3.8l15-0.1
			c2.2,0,4,1.7,4,3.7L70.1,130.6z"/>
		<path style="fill:#BCBCBC;" d="M100.6,130.4c0,2.1-1.8,3.8-4,3.8l-15,0.1c-2.2,0-4-1.7-4-3.7l-0.1-14.1c0-2.1,1.8-3.8,4-3.8
			l15-0.1c2.2,0,4,1.7,4,3.7L100.6,130.4z"/>
		<g>
			<path style="fill:#1BB6B8;" d="M37.9,73c0,2.1-1.8,3.8-4,3.8l-15,0.1c-2.2,0-4-1.7-4-3.7l-0.1-14.1c0-2.1,1.8-3.8,4-3.8l15-0.1
				c2.2,0,4,1.7,4,3.7L37.9,73z"/>
			<path style="fill:#EE4445;" d="M68.4,72.9c0,2.1-1.8,3.8-4,3.8l-15,0.1c-2.2,0-4-1.7-4-3.7l-0.1-14.1c0-2.1,1.8-3.8,4-3.8l15-0.1
				c2.2,0,4,1.7,4,3.7L68.4,72.9z"/>
			<path style="fill:#FFBE4A;" d="M98.9,72.8c0,2.1-1.8,3.8-4,3.8l-15,0.1c-2.2,0-4-1.7-4-3.7l-0.1-14.1c0-2.1,1.8-3.8,4-3.8l15-0.1
				c2.2,0,4,1.7,4,3.7L98.9,72.8z"/>
			<path style="fill:#141314;" d="M38,101.9c0,2.1-1.8,3.8-4,3.8l-15,0.1c-2.2,0-4-1.7-4-3.7l-0.1-14.1c0-2.1,1.8-3.8,4-3.8l15-0.1
				c2.2,0,4,1.7,4,3.7L38,101.9z"/>
			<path style="fill:#141314;" d="M68.5,101.7c0,2.1-1.8,3.8-4,3.8l-15,0.1c-2.2,0-4-1.7-4-3.7l-0.1-14.1c0-2.1,1.8-3.8,4-3.8
				l15-0.1c2.2,0,4,1.7,4,3.7L68.5,101.7z"/>
			<path style="fill:#141314;" d="M99,101.6c0,2.1-1.8,3.8-4,3.8l-15,0.1c-2.2,0-4-1.7-4-3.7l-0.1-14.1c0-2.1,1.8-3.8,4-3.8l15-0.1
				c2.2,0,4,1.7,4,3.7L99,101.6z"/>
			<path style="fill:#141314;" d="M38.1,130.7c0,2.1-1.8,3.8-4,3.8l-15,0.1c-2.2,0-4-1.7-4-3.7l-0.1-14.1c0-2.1,1.8-3.8,4-3.8
				l15-0.1c2.2,0,4,1.7,4,3.7L38.1,130.7z"/>
			<path style="fill:#141314;" d="M68.6,130.6c0,2.1-1.8,3.8-4,3.8l-15,0.1c-2.2,0-4-1.7-4-3.7l-0.1-14.1c0-2.1,1.8-3.8,4-3.8
				l15-0.1c2.2,0,4,1.7,4,3.7L68.6,130.6z"/>
			<path style="fill:#141314;" d="M99.1,130.4c0,2.1-1.8,3.8-4,3.8l-15,0.1c-2.2,0-4-1.7-4-3.7L76,116.5c0-2.1,1.8-3.8,4-3.8l15-0.1
				c2.2,0,4,1.7,4,3.7L99.1,130.4z"/>
		</g>
		<g>
			<path d="M27,71.5c-0.1,0-0.2,0-0.2-0.1c0,0-0.1-0.1-0.1-0.2l0-8.4l-0.9,0.9c-0.2,0.1-0.3,0.2-0.4,0l-0.9-1
				c-0.1-0.1-0.1-0.1-0.1-0.2c0-0.1,0.1-0.1,0.2-0.2l2.3-2.1c0.1-0.1,0.2-0.1,0.4-0.1l1,0c0.2,0,0.3,0,0.4,0.1
				c0,0.1,0.1,0.2,0.1,0.4l0,10.6c0,0.1,0,0.2-0.1,0.2c0,0-0.1,0.1-0.2,0.1L27,71.5z"/>
		</g>
		<g>
			<path d="M53.4,71.4c-0.1,0-0.2,0-0.3,0c-0.1,0-0.1-0.1-0.1-0.2l0-1c0-0.1,0-0.2,0.1-0.3c0-0.1,0.1-0.2,0.2-0.2l2.1-2.6
				c0.8-1,1.4-1.8,1.7-2.4c0.4-0.6,0.5-1.1,0.5-1.5c0-0.4-0.1-0.7-0.3-1c-0.2-0.2-0.5-0.4-0.9-0.4c-0.4,0-0.8,0-1.1,0.1
				c-0.4,0.1-0.8,0.3-1.3,0.6c-0.1,0.1-0.2,0.1-0.3,0.1c-0.1,0-0.1-0.1-0.1-0.2l-0.3-1.3c0-0.1,0-0.1,0-0.2c0,0,0.1-0.1,0.2-0.2
				c0.2-0.1,0.4-0.2,0.6-0.4c0.2-0.1,0.5-0.2,0.7-0.3c0.2-0.1,0.5-0.1,0.7-0.2c0.2,0,0.5-0.1,0.7-0.1c0.5,0,0.9,0.1,1.3,0.2
				c0.4,0.1,0.8,0.3,1.1,0.6c0.3,0.3,0.5,0.6,0.7,1c0.2,0.4,0.3,0.9,0.3,1.4c0,0.5-0.1,0.9-0.3,1.4c-0.2,0.5-0.4,0.9-0.7,1.3
				c-0.3,0.4-0.6,0.9-0.9,1.3c-0.3,0.4-0.6,0.8-0.9,1.1c-0.2,0.2-0.4,0.5-0.6,0.7c-0.2,0.3-0.4,0.5-0.6,0.7l3.9,0
				c0.1,0,0.2,0,0.3,0.1c0,0,0.1,0.1,0.1,0.3l0,1.1c0,0.1,0,0.2-0.1,0.3c0,0-0.1,0.1-0.3,0.1L53.4,71.4z"/>
		</g>
		<g>
			<path d="M90.8,67.9c0,0.5-0.1,1-0.3,1.4c-0.2,0.4-0.4,0.8-0.8,1.1c-0.4,0.3-0.8,0.6-1.3,0.7c-0.5,0.2-1.1,0.3-1.8,0.3
				c-0.4,0-0.9,0-1.3-0.1c-0.5-0.1-0.9-0.2-1.2-0.3c-0.1,0-0.2-0.1-0.3-0.2c0-0.1,0-0.2,0-0.3l0.1-1.2c0-0.1,0.1-0.2,0.1-0.3
				c0.1,0,0.2,0,0.3,0c0.2,0.1,0.5,0.2,0.8,0.2c0.3,0.1,0.6,0.1,0.8,0.1c0.3,0,0.7,0,1,0c0.3,0,0.6-0.1,0.9-0.3
				c0.3-0.1,0.5-0.3,0.6-0.6c0.2-0.2,0.2-0.5,0.2-0.9c0-0.2-0.1-0.4-0.2-0.6c-0.1-0.2-0.2-0.4-0.4-0.5c-0.2-0.2-0.5-0.3-0.8-0.4
				c-0.3-0.1-0.6-0.1-1.1-0.1l-0.8,0c-0.1,0-0.2,0-0.2-0.1c0,0-0.1-0.1-0.1-0.2l0-1.2c0-0.1,0-0.2,0-0.3c0,0,0.1,0,0.2,0l0.8,0
				c0.2,0,0.4,0,0.7-0.1c0.3-0.1,0.5-0.2,0.7-0.3c0.2-0.1,0.4-0.3,0.6-0.5c0.2-0.2,0.2-0.4,0.2-0.7c0-0.4-0.1-0.7-0.4-0.9
				c-0.3-0.3-0.7-0.4-1.2-0.4c-0.3,0-0.7,0-1.1,0.2c-0.4,0.1-0.7,0.2-1.1,0.4c-0.1,0.1-0.2,0.1-0.3,0.1c-0.1,0-0.1-0.1-0.1-0.2
				l-0.2-1.2c0-0.1,0-0.2,0-0.2c0-0.1,0.1-0.1,0.3-0.2c0.4-0.2,0.8-0.3,1.3-0.4c0.4-0.1,0.9-0.2,1.3-0.2c0.4,0,0.9,0.1,1.3,0.2
				c0.4,0.1,0.8,0.3,1.2,0.5c0.3,0.2,0.6,0.5,0.8,0.9c0.2,0.4,0.3,0.8,0.3,1.3c0,0.3,0,0.6-0.2,0.8c-0.1,0.3-0.2,0.5-0.4,0.7
				c-0.2,0.2-0.4,0.4-0.6,0.6c-0.2,0.2-0.5,0.3-0.8,0.5c0.7,0.3,1.3,0.7,1.7,1.2C90.6,66.9,90.8,67.4,90.8,67.9z"/>
		</g>
		<g>
			<path style="fill:#A8A8A8;" d="M30.2,98.5l0,2.1c0,0.2,0,0.3,0,0.3c0,0-0.1,0.1-0.3,0.1l-1.2,0c-0.2,0-0.3,0-0.3-0.1
				c0-0.1-0.1-0.2-0.1-0.3l0-2.1l-4.5,0c-0.1,0-0.2,0-0.3,0c0,0-0.1-0.1-0.1-0.2l0-1c0-0.1,0-0.2,0.1-0.3c0-0.1,0.1-0.2,0.1-0.2
				c0.7-1.1,1.5-2.3,2.2-3.5c0.7-1.2,1.5-2.3,2.3-3.4c0-0.1,0.1-0.1,0.2-0.2c0.1,0,0.1,0,0.2,0l1.4,0c0.2,0,0.3,0,0.3,0.1
				c0,0.1,0,0.1,0,0.2l0,6.8l1.2,0c0.1,0,0.2,0,0.3,0c0,0,0.1,0.1,0.1,0.3l0,1.1c0,0.2,0,0.3-0.1,0.3c0,0-0.1,0-0.3,0L30.2,98.5z
				 M25.7,96.7l2.6,0l0-4L25.7,96.7z"/>
		</g>
		<g>
			<path style="fill:#A8A8A8;" d="M59.3,99.9c-0.4,0.3-0.8,0.6-1.3,0.7c-0.5,0.2-1,0.2-1.6,0.2c-0.2,0-0.4,0-0.6,0
				c-0.2,0-0.4-0.1-0.7-0.1c-0.2,0-0.4-0.1-0.6-0.1c-0.2-0.1-0.4-0.1-0.5-0.2c-0.1,0-0.1-0.1-0.2-0.1c0,0,0-0.1,0-0.2l0-1.4
				c0-0.1,0-0.2,0.1-0.2c0,0,0.1,0,0.2,0c0.1,0.1,0.3,0.1,0.5,0.2c0.2,0,0.4,0.1,0.6,0.1c0.2,0,0.4,0.1,0.7,0.1c0.2,0,0.4,0,0.6,0
				c0.6,0,1-0.2,1.4-0.5c0.4-0.3,0.5-0.8,0.5-1.4c0-0.5-0.2-1-0.5-1.4c-0.3-0.4-0.8-0.5-1.5-0.5c-0.3,0-0.6,0-0.9,0.1
				c-0.3,0.1-0.7,0.2-1,0.3c-0.1,0-0.2,0.1-0.3,0.1c-0.1,0-0.2,0-0.2,0c-0.1,0-0.1-0.1-0.2-0.1c0-0.1-0.1-0.2-0.1-0.3l0.1-5.5
				c0-0.1,0-0.2,0.1-0.3c0.1,0,0.2-0.1,0.3-0.1l5.3,0c0.1,0,0.2,0,0.2,0.1c0,0,0.1,0.1,0.1,0.2l0,1.2c0,0.1,0,0.2,0,0.2
				c0,0.1-0.1,0.1-0.2,0.1l-3.8,0l0,2.4c0.2,0,0.3-0.1,0.5-0.1c0.2,0,0.4,0,0.5,0c0.5,0,1,0.1,1.4,0.2c0.4,0.1,0.8,0.4,1.1,0.7
				c0.3,0.3,0.6,0.6,0.8,1.1c0.2,0.4,0.3,0.9,0.3,1.5C60.4,98.2,60,99.2,59.3,99.9z"/>
		</g>
		<g>
			<path style="fill:#A8A8A8;" d="M87.6,100.8c-1.2,0-2.1-0.4-2.7-1.4c-0.6-0.9-0.9-2.3-0.9-4.1c0-0.8,0.1-1.6,0.2-2.4
				c0.2-0.8,0.4-1.4,0.8-2c0.4-0.6,0.9-1,1.5-1.4c0.6-0.3,1.4-0.5,2.3-0.5c0.1,0,0.3,0,0.5,0c0.2,0,0.3,0,0.5,0.1
				c0.2,0,0.3,0,0.5,0.1c0.2,0,0.3,0.1,0.4,0.1c0.1,0,0.2,0.1,0.2,0.1c0,0,0,0.1,0,0.2l-0.1,1.4c0,0.1,0,0.2-0.1,0.2
				c-0.1,0-0.2,0-0.3,0c-0.2,0-0.3-0.1-0.4-0.1c-0.1,0-0.3-0.1-0.4-0.1c-0.1,0-0.3,0-0.4,0c-0.1,0-0.3,0-0.5,0
				c-0.8,0-1.5,0.3-1.9,0.8c-0.5,0.5-0.7,1.2-0.8,2.1c0.2-0.2,0.5-0.4,0.8-0.6c0.3-0.2,0.7-0.2,1-0.2c0.5,0,0.9,0.1,1.3,0.2
				c0.4,0.2,0.8,0.4,1.1,0.7c0.3,0.3,0.6,0.7,0.7,1.2c0.2,0.5,0.3,1,0.3,1.5c0,0.6-0.1,1.1-0.3,1.6c-0.2,0.5-0.4,0.9-0.7,1.3
				c-0.3,0.4-0.7,0.6-1.2,0.8C88.7,100.7,88.2,100.8,87.6,100.8z M87.7,94.9c-0.6,0-1,0.2-1.3,0.5c-0.3,0.3-0.5,0.8-0.5,1.4
				c0,0.3,0,0.6,0.1,0.9c0.1,0.3,0.2,0.5,0.4,0.7c0.2,0.2,0.3,0.3,0.5,0.5c0.2,0.1,0.4,0.2,0.6,0.2c0.5,0,0.9-0.2,1.2-0.6
				c0.3-0.4,0.5-0.9,0.5-1.5c0-0.6-0.1-1.1-0.4-1.4C88.6,95.1,88.2,94.9,87.7,94.9z"/>
		</g>
		<g>
			<path style="fill:#A8A8A8;" d="M31,120c-0.3,0.9-0.6,1.7-1,2.5c-0.3,0.8-0.6,1.6-0.9,2.3c-0.3,0.8-0.6,1.5-0.9,2.3
				c-0.3,0.8-0.6,1.5-0.9,2.3c-0.1,0.1-0.1,0.2-0.1,0.3c0,0-0.1,0-0.3,0l-1.4,0c-0.2,0-0.3,0-0.3-0.1c0,0,0-0.2,0.1-0.4l3.5-9
				l-4.3,0c-0.1,0-0.2,0-0.3-0.1c0,0-0.1-0.1-0.1-0.3l0-1.2c0-0.2,0-0.3,0.1-0.3c0,0,0.1-0.1,0.3-0.1l6.2,0c0.2,0,0.3,0,0.3,0.1
				c0.1,0,0.1,0.1,0.1,0.3l0,1C31.1,119.9,31.1,120,31,120z"/>
		</g>
		<g>
			<path style="fill:#A8A8A8;" d="M57,130c-0.4,0-0.9-0.1-1.4-0.2c-0.5-0.1-0.9-0.3-1.3-0.6c-0.4-0.3-0.7-0.6-0.9-1.1
				c-0.2-0.4-0.4-0.9-0.4-1.5c0-0.4,0.1-0.7,0.2-1c0.1-0.3,0.3-0.6,0.5-0.8c0.2-0.2,0.4-0.4,0.7-0.6c0.3-0.2,0.5-0.4,0.8-0.5
				c-0.2-0.2-0.5-0.3-0.7-0.5c-0.2-0.2-0.4-0.4-0.6-0.6c-0.2-0.2-0.3-0.4-0.4-0.7c-0.1-0.2-0.2-0.5-0.2-0.8c0-0.5,0.1-0.9,0.3-1.2
				c0.2-0.4,0.5-0.7,0.8-1c0.3-0.3,0.7-0.5,1.1-0.6c0.4-0.2,0.9-0.2,1.4-0.2c0.5,0,1,0.1,1.4,0.2c0.4,0.1,0.8,0.3,1.1,0.6
				c0.3,0.3,0.6,0.6,0.8,0.9c0.2,0.4,0.3,0.8,0.3,1.3c0,0.5-0.2,1-0.5,1.4c-0.3,0.4-0.8,0.9-1.3,1.3c0.3,0.2,0.6,0.4,0.8,0.6
				c0.3,0.2,0.5,0.4,0.7,0.6c0.2,0.2,0.4,0.5,0.5,0.8c0.1,0.3,0.2,0.6,0.2,0.9c0,0.6-0.1,1.1-0.3,1.5c-0.2,0.4-0.5,0.8-0.9,1.1
				c-0.4,0.3-0.8,0.5-1.3,0.6C58,129.9,57.5,130,57,130z M57,124.8c-0.2,0.1-0.4,0.2-0.6,0.3c-0.2,0.1-0.4,0.2-0.6,0.4
				c-0.2,0.2-0.3,0.3-0.4,0.5c-0.1,0.2-0.2,0.4-0.2,0.7c0,0.2,0.1,0.4,0.2,0.6c0.1,0.2,0.3,0.3,0.4,0.5c0.2,0.1,0.4,0.2,0.6,0.3
				c0.2,0.1,0.4,0.1,0.7,0.1c0.2,0,0.5,0,0.7-0.1c0.2-0.1,0.4-0.2,0.6-0.3c0.2-0.1,0.3-0.3,0.4-0.5c0.1-0.2,0.2-0.4,0.2-0.6
				c0-0.2-0.1-0.3-0.2-0.5c-0.1-0.2-0.2-0.4-0.4-0.5c-0.2-0.2-0.4-0.3-0.6-0.5C57.5,125,57.2,124.8,57,124.8z M57,119.8
				c-0.2,0-0.4,0-0.6,0.1c-0.2,0.1-0.3,0.2-0.5,0.3c-0.1,0.1-0.3,0.3-0.3,0.4c-0.1,0.2-0.1,0.3-0.1,0.5c0,0.2,0.1,0.3,0.2,0.5
				c0.1,0.2,0.2,0.3,0.4,0.5c0.2,0.2,0.3,0.3,0.5,0.4c0.2,0.1,0.3,0.2,0.5,0.3c0.1-0.1,0.3-0.2,0.5-0.3c0.2-0.1,0.3-0.3,0.5-0.5
				c0.2-0.2,0.3-0.3,0.4-0.5c0.1-0.2,0.2-0.3,0.2-0.5c0-0.2,0-0.3-0.1-0.5c-0.1-0.2-0.2-0.3-0.3-0.4c-0.1-0.1-0.3-0.2-0.5-0.3
				C57.4,119.9,57.2,119.8,57,119.8z"/>
		</g>
		<g>
			<path style="fill:#A8A8A8;" d="M87.7,118c1.2,0,2.1,0.4,2.7,1.4c0.6,0.9,0.9,2.3,0.9,4.1c0,0.8-0.1,1.6-0.2,2.4
				c-0.2,0.8-0.4,1.4-0.8,2c-0.4,0.6-0.9,1-1.5,1.4c-0.6,0.3-1.4,0.5-2.3,0.5c-0.1,0-0.3,0-0.5,0c-0.2,0-0.3,0-0.5,0
				c-0.2,0-0.3,0-0.5-0.1c-0.2,0-0.3-0.1-0.4-0.1c-0.1,0-0.2-0.1-0.2-0.1c0,0,0-0.1,0-0.2l0.1-1.4c0-0.1,0-0.2,0.1-0.2
				c0.1,0,0.2,0,0.3,0c0.2,0.1,0.3,0.1,0.4,0.1c0.1,0,0.3,0.1,0.4,0.1c0.1,0,0.3,0,0.4,0c0.1,0,0.3,0,0.5,0c0.8,0,1.5-0.3,1.9-0.8
				c0.5-0.5,0.7-1.2,0.8-2.1c-0.2,0.2-0.5,0.4-0.8,0.6c-0.3,0.1-0.7,0.2-1,0.2c-0.5,0-0.9-0.1-1.3-0.3c-0.4-0.2-0.8-0.4-1.1-0.7
				c-0.3-0.3-0.6-0.7-0.7-1.2c-0.2-0.5-0.3-1-0.3-1.5c0-0.6,0.1-1.1,0.3-1.6c0.2-0.5,0.4-0.9,0.7-1.3c0.3-0.4,0.7-0.6,1.2-0.8
				C86.6,118.1,87.1,118,87.7,118z M87.5,123.9c0.6,0,1-0.2,1.3-0.5c0.3-0.3,0.5-0.8,0.5-1.4c0-0.3,0-0.6-0.1-0.9
				c-0.1-0.3-0.2-0.5-0.4-0.7c-0.1-0.2-0.3-0.3-0.5-0.5c-0.2-0.1-0.4-0.2-0.6-0.2c-0.5,0-0.9,0.2-1.2,0.6c-0.3,0.4-0.5,0.9-0.5,1.5
				c0,0.6,0.1,1.1,0.4,1.5C86.7,123.7,87,123.9,87.5,123.9z"/>
		</g>
	</g>
</g>
<g id="Layer_2">
</g>
</svg>
