<?xml version="1.0" encoding="utf-8"?>
<!-- Generator: Adobe Illustrator 23.0.0, SVG Export Plug-In . SVG Version: 6.00 Build 0)  -->
<svg version="1.1" id="Layer_1" xmlns="http://www.w3.org/2000/svg" xmlns:xlink="http://www.w3.org/1999/xlink" x="0px" y="0px"
	 width="456px" height="286.7px" viewBox="0 0 456 286.7" style="enable-background:new 0 0 456 286.7;" xml:space="preserve">
<g>
	<path style="fill:#D6F4FC;" d="M429,98.2c-10.4-9.2-23.4-14.7-37.1-16c-3.3-10.8-9.5-20.7-18-28.5c-12.1-11.2-27.8-17.3-44.2-17.3
		c-12.2,0-24.1,3.5-34.3,9.8c-4.7-8.1-10.9-15.4-18.3-21.4C263.3,13.5,245.9,7.3,228,7.3s-35.3,6.2-49.2,17.5
		c-7.4,6-13.6,13.3-18.3,21.4c-10.2-6.3-22.1-9.8-34.3-9.8c-16.4,0-32.1,6.2-44.2,17.3c-8.5,7.9-14.6,17.7-18,28.5
		C31,85.2,5,113.1,5,147c0,18.6,8,36.4,22,48.7c10.4,9.2,23.3,14.7,36.9,16c8.1,26.9,33.2,46.5,62.4,46.5c12.3,0,24.3-3.6,34.5-10
		c4.7,8,10.9,15.2,18.3,21.2c13.8,11.1,31.2,17.3,49,17.3s35.2-6.1,49-17.3c7.3-5.9,13.5-13.1,18.3-21.2c10.2,6.4,22.2,10,34.5,10
		c29.2,0,54.3-19.5,62.4-46.5c13.6-1.3,26.5-6.8,36.9-16c14-12.3,22-30.1,22-48.7C451,128.3,443,110.6,429,98.2L429,98.2z"/>
</g>
</svg>
