<?xml version="1.0" encoding="utf-8"?>
<!-- Generator: Adobe Illustrator 23.0.0, SVG Export Plug-In . SVG Version: 6.00 Build 0)  -->
<svg version="1.1" id="레이어_1" xmlns="http://www.w3.org/2000/svg" xmlns:xlink="http://www.w3.org/1999/xlink" x="0px"
	 y="0px" width="541.8px" height="222.9px" viewBox="0 0 541.8 222.9" style="enable-background:new 0 0 541.8 222.9;"
	 xml:space="preserve">
<g>
	<defs>
		<rect id="SVGID_1_" width="541.8" height="222.9"/>
	</defs>
	<clipPath id="SVGID_2_">
		<use xlink:href="#SVGID_1_"  style="overflow:visible;"/>
	</clipPath>
	<g style="clip-path:url(#SVGID_2_);">
		<defs>
			<rect id="SVGID_3_" width="541.8" height="222.9"/>
		</defs>
		<clipPath id="SVGID_4_">
			<use xlink:href="#SVGID_3_"  style="overflow:visible;"/>
		</clipPath>
		<g style="opacity:0.2;clip-path:url(#SVGID_4_);">
			<g>
				<defs>
					<rect id="SVGID_5_" x="167.2" y="210.2" width="72.8" height="12.7"/>
				</defs>
				<clipPath id="SVGID_6_">
					<use xlink:href="#SVGID_5_"  style="overflow:visible;"/>
				</clipPath>
				<path style="clip-path:url(#SVGID_6_);" d="M240,216.6c0,3.5-16.3,6.3-36.4,6.3s-36.4-2.8-36.4-6.3c0-3.5,16.3-6.3,36.4-6.3
					S240,213.1,240,216.6"/>
			</g>
		</g>
	</g>
	<polygon style="clip-path:url(#SVGID_2_);fill:#E2C500;" points="271.5,5.9 248,64.3 252,65.9 275.6,7.5 275.6,1.5 	"/>
	<g style="clip-path:url(#SVGID_2_);">
		<defs>
			<rect id="SVGID_7_" width="541.8" height="222.9"/>
		</defs>
		<clipPath id="SVGID_8_">
			<use xlink:href="#SVGID_7_"  style="overflow:visible;"/>
		</clipPath>
		<path style="clip-path:url(#SVGID_8_);fill:#FFFFFF;" d="M259.6,17.4c-2.3-0.9-3.4-3.6-2.5-5.9s3.6-3.4,5.9-2.5l16.4,6.6L276,24
			L259.6,17.4z"/>
		<path style="clip-path:url(#SVGID_8_);fill:#FFFFFF;" d="M281.9,21.5c-0.9,2.3-3.6,3.4-5.9,2.5c-2.3-0.9-3.4-3.6-2.5-5.9
			c0.9-2.3,3.6-3.4,5.9-2.5C281.7,16.6,282.8,19.2,281.9,21.5"/>
		<path style="clip-path:url(#SVGID_8_);fill:#D57500;" d="M274.7,23.5l-13.8-5.6c-2.3-0.9-4.9,0.2-5.9,2.5
			c-0.9,2.3,0.2,4.9,2.5,5.9l13.8,5.6c2.3,0.9,4.9-0.2,5.9-2.5S277,24.4,274.7,23.5"/>
		<path style="clip-path:url(#SVGID_8_);fill:#FFFFFF;" d="M252.9,34.2c-2.3-0.9-3.4-3.6-2.5-5.9c0.9-2.3,3.6-3.4,5.9-2.5l16.4,6.6
			l-3.4,8.4L252.9,34.2z"/>
		<path style="clip-path:url(#SVGID_8_);fill:#FFFFFF;" d="M275.2,38.3c-0.9,2.3-3.6,3.4-5.9,2.5c-2.3-0.9-3.4-3.6-2.5-5.9
			c0.9-2.3,3.6-3.4,5.9-2.5C275,33.3,276.1,36,275.2,38.3"/>
		<path style="clip-path:url(#SVGID_8_);fill:#D57500;" d="M268,40.2l-13.8-5.6c-2.3-0.9-4.9,0.2-5.9,2.5c-0.9,2.3,0.2,4.9,2.5,5.9
			l13.8,5.6c2.3,0.9,4.9-0.2,5.9-2.5C271.4,43.8,270.3,41.2,268,40.2"/>
		<path style="clip-path:url(#SVGID_8_);fill:#FFFFFF;" d="M216.8,97.5c0,0,1.3-3,7.3-19.7c5.9-16.7,18.1-28.3,28-24.2
			c5,2,11.3,9.9,3.5,31.9c-7.8,22-11.5,33.8-11.5,33.8"/>
		<path style="clip-path:url(#SVGID_8_);fill:#D3D3D4;" d="M242.3,180.6c-0.2,4.1-0.5,8.2-0.9,12.3c-0.3,3.3-3.1,15.4-4.4,17.5
			c-2.9,4.8-9.1,4.3-13.9,4.3c-3.4,0-7.3-0.5-10.2-2.6c-2.5-1.8-3.3-4.4-4.3-7.2c-2-5.7-3.7-11.5-5.5-17.3c-0.3-1.1-0.6-2.2-1-3.2
			L242.3,180.6z"/>
		<path style="clip-path:url(#SVGID_8_);fill:#FFFFFF;" d="M193.5,197c0,0,9.9,1.9,18.7,0.8c11.9-1.4,42.1-14.8,39.7-47.4
			c-1.7-23.1-13.2-49.5-13.2-49.5c-6-11.1-18.5-17.9-30.5-16.4c-12.4,1.6-25.2,1.4-37.4,20.9c-9.2,14.7-19.8,30.2-19.8,52.8
			C151.1,158.2,146.8,192.5,193.5,197"/>
		<path style="clip-path:url(#SVGID_8_);fill:#FFFFFF;" d="M239.7,170.3h0.4c5.6,0,10.3,4.5,10.3,9.9c0,5.4-4.7,9.9-10.3,9.9h-0.4
			c-5.6,0-10.3-4.5-10.3-9.9"/>
		<path style="clip-path:url(#SVGID_8_);fill:#FFFFFF;" d="M209.2,195.7c0,0-6.2,15-9.3,18.2c-3.1,3.2-5.9,4.4-13.9,4.7
			c-8.1,0.3-12.3-2.7-14.1-4.8c-1.8-2.1-6.8-27.8-6.8-27.8"/>
		<path style="clip-path:url(#SVGID_8_);fill:#37484B;" d="M172.5,148.2c16.1,10,27,11.8,27,11.8l3.1-5.6c0,0-10.9-1.8-27-11.8
			L172.5,148.2z"/>
		<path style="clip-path:url(#SVGID_8_);fill:#FFFFFF;" d="M206.2,33.8c4.4-2.4,6.1-7.9,3.7-12.3c-2.4-4.4-7.9-6.1-12.3-3.7
			c-4.4,2.4-6.1,7.9-3.7,12.3"/>
		<path style="clip-path:url(#SVGID_8_);fill:#FFFFFF;" d="M225.4,97.7c2.4-1.8,4.4-3.5,6.1-5.3c8.3-8.9,7-20.6,3.5-31.6
			c-8.9-28.2-33.7-42.4-60.4-34c-13.1,4.1-24.2,11.6-30.6,22.9c-2.4,4.3-4.2,9.2-5.1,14.6c-0.7,4.3-1,9-0.6,14l0,0
			c0,0.1,0,0.1,0,0.2c0,0.5,0.1,1,0.1,1.5c0.3,6.5-2.7,9.5-0.1,17.8c3.1,9.9,13.6,20.7,35.4,18.8c13.1-1.1,26-4.9,36.2-9.8
			C209.9,106.7,220.3,101.4,225.4,97.7"/>
		<path style="clip-path:url(#SVGID_8_);fill:#DFF2FC;" d="M140.1,91.5c-0.3-2.7,1-4.9,2.5-6.8c1.2-1.6,3-2.3,4.9-3
			c2.4-0.9,5.1-0.1,7.4,1.1c2.4,1.3,4.2,4.3,4.8,6.8c0.4,1.3,0.4,2.7,0.2,4c0,0.5-0.1,1.1-0.2,1.6c-0.4,2.2-2,4.3-3.9,5.2
			c-1.7,0.8-3.5,1.2-5.4,1c-1.1-0.1-2.4-0.3-3.5-0.8c-1.5-0.7-2.9-1.3-4-2.7c-0.5-0.6-1.1-1.2-1.4-2
			C140.5,93.9,140.4,93.7,140.1,91.5"/>
		<path style="clip-path:url(#SVGID_8_);" d="M140.9,85.4c0.6,1.8,2.2,3,3.5,2.5c1.3-0.4,1.8-2.3,1.2-4.1c-0.6-1.8-2.2-3-3.5-2.5
			C140.8,81.7,140.3,83.5,140.9,85.4"/>
		<path style="clip-path:url(#SVGID_8_);fill:#FFFFFF;" d="M160,46.7c-5-0.5-8.6-4.9-8.1-9.9c0.5-5,4.9-8.6,9.9-8.1
			c5,0.5,8.6,4.9,8.1,9.9"/>
		<path style="clip-path:url(#SVGID_8_);fill:#E84388;" d="M147.8,110.8c3.5-0.6,1.1-9.5-1.7-10.6c-1.4-0.5-2.7,0.8-2.7,0.8
			c-1.6,1.3-2.9,1.4-2.9,1.4l2.7,4.6L147.8,110.8z"/>
		<path style="clip-path:url(#SVGID_8_);fill:#FFFFFF;" d="M184.3,142.3c-2.4,9.2-11.1,18.3-14.8,22.2c-3.8,3.9-21.6,17.7-29.4,7.5
			c-6.2-8-0.6-17.1,4-24.2c6.1-9.5,12.2-19,18.4-28.5c2.6-3.9,8.2-8.9,15.9-10.2c7.7-1.3,11.7,1.6,11.7,1.6"/>
		<path style="clip-path:url(#SVGID_8_);fill:#009DE1;" d="M193.2,112.6c0.3-0.4-5.6-2.8-5.9-2.9c-11.6-3-21.2,3.5-26.1,11.7
			c0,0,2-13.4,14.8-18.7c12.8-5.4,23.1,2.4,23.1,2.4S193.2,112.5,193.2,112.6"/>
		<polygon style="clip-path:url(#SVGID_8_);fill:#37484B;" points="212,93.8 207.3,95.5 202.5,82.6 205.8,77.1 		"/>
		<polygon style="clip-path:url(#SVGID_8_);fill:#37484B;" points="220.1,90.8 224.7,89 219.9,76.1 213.8,74.1 		"/>
		
			<rect x="206.3" y="75.4" transform="matrix(0.9368 -0.3498 0.3498 0.9368 -13.8989 78.5734)" style="clip-path:url(#SVGID_8_);fill:#37484B;" width="8.6" height="4.7"/>
		<path style="clip-path:url(#SVGID_8_);fill:#009DE1;" d="M191.4,110.8L191.4,110.8C191.4,110.8,191.4,110.7,191.4,110.8
			L191.4,110.8z"/>
		<path style="clip-path:url(#SVGID_8_);fill:#008CCF;" d="M209.5,177.8l6.6-10.3l-17.8-40.8c-3.4-7.7-3.7-15.8-1.5-22.8
			c0.5-1.5,1.1-3,1.8-4.4l0,0l-5.4,8.4c-0.7,0.9-1.3,1.9-1.9,2.9c0,0,0,0,0,0c-4.5,8-5.1,18.3-0.8,28l15.7,36
			C206.9,176.2,208.1,177.3,209.5,177.8"/>
		<path style="clip-path:url(#SVGID_8_);fill:#009DE1;" d="M198.3,126.7l17.8,40.8l46-16.5l10.5-3.8c0.1-1,0-2.1-0.4-3.1l-16.6-38
			c-7.3-16.6-26-25.5-41.9-19.8c-6.9,2.5-12,7.3-15.1,13.2c-0.7,1.4-1.3,2.9-1.8,4.4C194.6,110.9,194.9,118.9,198.3,126.7"/>
		<path style="clip-path:url(#SVGID_8_);fill:#0075C2;" d="M271.8,149.4c0.4-0.7,0.7-1.5,0.8-2.3l-10.5,3.8l-46,16.5l-6.6,10.3
			c1.2,0.4,2.5,0.5,3.8,0l37.1-13.3l13.4-4.8c1.2-0.4,2.2-1.2,2.9-2.3l4.8-7.5L271.8,149.4z"/>
		
			<path style="clip-path:url(#SVGID_8_);fill:none;stroke:#0075C2;stroke-width:3;stroke-linecap:round;stroke-linejoin:round;stroke-miterlimit:10;" d="
			M271.8,149.4c0.4-0.7,0.7-1.5,0.8-2.3l-10.5,3.8l-46,16.5l-6.6,10.3c1.2,0.4,2.5,0.5,3.8,0l37.1-13.3l13.4-4.8
			c1.2-0.4,2.2-1.2,2.9-2.3l4.8-7.5L271.8,149.4z"/>
		<polygon style="clip-path:url(#SVGID_8_);fill:#FFFFFF;" points="232.6,146.7 228.1,148.3 225.3,142.1 229.7,140.5 		"/>
		
			<line style="clip-path:url(#SVGID_8_);fill:none;stroke:#0075C2;stroke-width:3;stroke-linecap:round;stroke-linejoin:round;" x1="203.2" y1="143.1" x2="196.8" y2="153.2"/>
		<path style="clip-path:url(#SVGID_8_);fill:none;stroke:#FFFFFF;stroke-width:3;stroke-linecap:round;stroke-linejoin:round;" d="
			M198.3,96c-1.3,0.4-1.8,1.7-1.2,3.5"/>
		<path style="clip-path:url(#SVGID_8_);fill:#0075C2;" d="M221.5,146.2c-0.6-1.3,0.1-2.8,1.4-3.3l35.5-12.7l-1.6-4l-35.5,12.7
			c-1.3,0.5-2,2-1.4,3.3L221.5,146.2z"/>
		<path style="clip-path:url(#SVGID_8_);fill:#FFFFFF;" d="M213.2,118l-0.6,0.2c-0.9-2.5-2.9-8.2-5.6-14.1c-0.9-2-2.2-4.6-4.1-6.7
			c-1.7-1.9-3.4-2.6-4.9-2.2c-0.4,0.1-0.6,0.5-0.5,0.9c0.1,0.4,0.5,0.6,0.9,0.5c1.2-0.3,2.5,0.8,3.4,1.7c1.8,1.9,3,4.3,3.8,6.3
			c2.6,5.8,4.6,11.4,5.5,13.9l-0.6,0.2l1.6,5c-1.4,0.5-2.2,2-1.7,3.4c0.5,1.4,2,2.2,3.4,1.7c1.4-0.5,2.2-2,1.7-3.4L213.2,118z"/>
		<path style="clip-path:url(#SVGID_8_);fill:#FFFFFF;" d="M222.9,116.8c-0.7-1.3-2.4-1.8-3.7-1l-2.6-4.6l-0.5,0.3
			c-2.1-3.8-8.4-15-12.6-21.1c-0.2-0.3-0.7-0.4-1-0.2c-0.3,0.2-0.4,0.7-0.2,1c4.2,6.1,10.4,17.3,12.5,21l-0.5,0.3l3.9,6.9
			c0.7,1.3,2.4,1.8,3.7,1C223.2,119.7,223.7,118.1,222.9,116.8"/>
		<path style="clip-path:url(#SVGID_8_);fill:#595757;" d="M220.2,118.3c0.5,0.9,1.4,1.3,2.1,0.9c0.7-0.4,0.8-1.4,0.3-2.3
			c-0.5-0.9-1.4-1.3-2.1-0.9C219.9,116.4,219.7,117.4,220.2,118.3"/>
		<path style="clip-path:url(#SVGID_8_);fill:#D57500;" d="M232.6,103c0,4.4-3.5,7.9-7.9,7.9c-4.4,0-7.9-3.5-7.9-7.9
			c0-4.4,3.5-7.9,7.9-7.9C229,95.1,232.6,98.7,232.6,103"/>
		<line style="clip-path:url(#SVGID_8_);fill:#37484B;" x1="222" y1="102.1" x2="223.7" y2="105.9"/>
		<line style="clip-path:url(#SVGID_8_);fill:#37484B;" x1="225.9" y1="100.4" x2="227.6" y2="104.2"/>
		<polygon style="clip-path:url(#SVGID_8_);fill:#FFFFFF;" points="197,132.4 194.1,136 197,142.7 200,139.1 		"/>
		<path style="clip-path:url(#SVGID_8_);fill:#595757;" d="M213.5,126.3c0.3,1,0,2-0.7,2.2c-0.7,0.2-1.6-0.4-1.9-1.3
			c-0.3-1,0-2,0.7-2.2C212.3,124.7,213.2,125.3,213.5,126.3"/>
		<path style="clip-path:url(#SVGID_8_);" d="M134.2,89c0.2-0.2,0.4-0.3,0.7-0.5C134.7,88.7,134.5,88.8,134.2,89"/>
		<path style="clip-path:url(#SVGID_8_);" d="M133.4,95.9c-0.1-0.2-0.3-0.3-0.4-0.5C133.2,95.5,133.3,95.7,133.4,95.9"/>
		<path style="clip-path:url(#SVGID_8_);" d="M133,95.3c-0.1-0.1-0.2-0.3-0.2-0.4C132.8,95,132.9,95.1,133,95.3"/>
		<path style="clip-path:url(#SVGID_8_);" d="M132.3,92.2c0-0.1,0.1-0.3,0.1-0.4C132.4,91.9,132.3,92,132.3,92.2"/>
		<path style="clip-path:url(#SVGID_8_);" d="M132.5,91.3c0.1-0.2,0.1-0.3,0.2-0.5C132.7,91,132.6,91.1,132.5,91.3"/>
		<path style="clip-path:url(#SVGID_8_);" d="M133.5,89.7c0.2-0.2,0.3-0.3,0.5-0.5C133.8,89.3,133.7,89.5,133.5,89.7"/>
		<path style="clip-path:url(#SVGID_8_);" d="M132.9,90.5c0.1-0.2,0.2-0.3,0.4-0.5C133.2,90.1,133,90.3,132.9,90.5"/>
		<path style="clip-path:url(#SVGID_8_);" d="M132.3,93.1c0-0.1,0-0.2,0-0.4C132.3,92.9,132.3,93,132.3,93.1"/>
		<path style="clip-path:url(#SVGID_8_);" d="M132.7,94.7c-0.1-0.2-0.2-0.4-0.2-0.6C132.5,94.3,132.6,94.5,132.7,94.7"/>
		<path style="clip-path:url(#SVGID_8_);" d="M133.9,96.3c-0.1-0.1-0.3-0.2-0.4-0.4C133.6,96.1,133.7,96.2,133.9,96.3"/>
		<path style="clip-path:url(#SVGID_8_);" d="M135.8,97.3c-0.2-0.1-0.4-0.1-0.6-0.2C135.4,97.2,135.6,97.3,135.8,97.3"/>
		<path style="clip-path:url(#SVGID_8_);" d="M136.6,97.5c-0.3,0-0.5-0.1-0.8-0.1C136.1,97.4,136.4,97.4,136.6,97.5"/>
		<path style="clip-path:url(#SVGID_8_);" d="M135.1,97.1c-0.4-0.2-0.8-0.4-1.1-0.7C134.3,96.7,134.7,96.9,135.1,97.1"/>
		<path style="clip-path:url(#SVGID_8_);" d="M136,88c-0.3,0.1-0.6,0.3-0.9,0.5C135.4,88.2,135.7,88.1,136,88"/>
		<path style="clip-path:url(#SVGID_8_);" d="M141.4,86.4c-0.1-0.2-0.2-0.3-0.3-0.5C141.2,86.1,141.3,86.2,141.4,86.4"/>
		<path style="clip-path:url(#SVGID_8_);" d="M144.3,82c0.1,0.1,0.2,0.2,0.3,0.3C144.5,82.2,144.5,82,144.3,82"/>
		<path style="clip-path:url(#SVGID_8_);" d="M142.9,81.2c0.1,0,0.1,0,0.2,0C143.1,81.2,143,81.2,142.9,81.2"/>
		<path style="clip-path:url(#SVGID_8_);" d="M143.7,81.5c0.2,0.1,0.4,0.2,0.6,0.4C144.1,81.7,143.9,81.6,143.7,81.5"/>
		<path style="clip-path:url(#SVGID_8_);" d="M142.5,81.2c0.1,0,0.1,0,0.2,0C142.6,81.2,142.5,81.2,142.5,81.2"/>
		<path style="clip-path:url(#SVGID_8_);" d="M143.4,81.3c0.1,0,0.1,0.1,0.2,0.1C143.5,81.4,143.4,81.3,143.4,81.3"/>
		<path style="clip-path:url(#SVGID_8_);" d="M145,82.7c0.1,0.2,0.2,0.3,0.3,0.5C145.2,83,145.1,82.9,145,82.7
			c-0.1-0.1-0.2-0.3-0.3-0.4C144.8,82.5,144.9,82.6,145,82.7"/>
		<path style="clip-path:url(#SVGID_8_);" d="M143,87.8c-0.1,0-0.2-0.1-0.2-0.1C142.9,87.8,143,87.8,143,87.8"/>
		<path style="clip-path:url(#SVGID_8_);" d="M143.9,88c-0.1,0-0.1,0-0.2,0C143.8,88,143.9,88,143.9,88"/>
		<path style="clip-path:url(#SVGID_8_);" d="M143.5,87.9c-0.1,0-0.1,0-0.2,0C143.3,87.9,143.4,87.9,143.5,87.9"/>
		<path style="clip-path:url(#SVGID_8_);" d="M142.7,87.7c-0.2-0.1-0.4-0.3-0.6-0.5C142.3,87.4,142.5,87.5,142.7,87.7"/>
		<path style="clip-path:url(#SVGID_8_);" d="M141.7,86.8c-0.1-0.1-0.2-0.3-0.3-0.4C141.5,86.5,141.6,86.7,141.7,86.8"/>
		<path style="clip-path:url(#SVGID_8_);" d="M142.1,87.2c-0.1-0.1-0.2-0.2-0.3-0.3C141.8,87,141.9,87.1,142.1,87.2"/>
		<path style="clip-path:url(#SVGID_8_);" d="M280,14.3l-4.7-1.9l1.7-4.3c0.1-0.2,0.1-0.4,0.1-0.5l0.1-6c0-0.6-0.4-1.2-0.9-1.4
			c-0.6-0.2-1.2-0.1-1.7,0.4l-4.1,4.4c-0.1,0.1-0.2,0.3-0.3,0.5l-1.7,4.3l-4.8-1.9c-3.1-1.2-6.6,0.3-7.8,3.3c-0.6,1.5-0.6,3.1,0,4.6
			c0.2,0.4,0.4,0.8,0.7,1.2c-1.2,0.6-2.3,1.7-2.8,3.1c-0.6,1.4-0.6,2.9-0.1,4.2c-2,0.3-3.8,1.7-4.6,3.7c-0.8,2-0.4,4.2,0.8,5.8
			c-1.3,0.7-2.3,1.7-2.8,3.1c-1.2,3.1,0.3,6.6,3.3,7.8l3.5,1.4l-2.4,5.9c-3.1-0.9-6.4-0.6-9.7,0.9c-2.2,1-4.3,2.5-6.4,4.3
			c-4.7-12.5-12.8-22.5-23.1-28.3c-0.1,0-0.1-0.1-0.2-0.1c0.7-2.6,0.4-5.4-0.9-7.8c-2.8-5.1-9.2-7.1-14.3-4.3
			c-2.5,1.3-4.3,3.6-5.1,6.3c0,0,0,0.1,0,0.1c-5.7-0.2-11.7,0.6-17.5,2.4c-2.9,0.9-5.6,2-8.2,3.2c-1.2-0.7-2.6-1.1-4.1-1.3
			c-5.8-0.6-11,3.7-11.5,9.5c-0.1,0.8-0.1,1.6,0,2.3c-3,3-5.6,6.3-7.7,9.9c-2.6,4.6-4.4,9.6-5.3,15.1c-0.8,4.5-1,9.3-0.6,14.3
			c0,0,0,0.1,0,0.1l1.5-0.2l-1.4,0.3l0,0.2c0,0.4,0.1,0.9,0.1,1.2c0.1,2.3-0.2,4.1-0.6,6c-0.1,0.6-0.2,1.2-0.3,1.9
			c-0.3,0.1-0.6,0.3-0.9,0.5c-0.1,0-0.1,0.1-0.2,0.1c-0.2,0.2-0.5,0.3-0.7,0.5c-0.1,0.1-0.2,0.1-0.2,0.2c-0.2,0.2-0.4,0.3-0.5,0.5
			c-0.1,0.1-0.1,0.2-0.2,0.3c-0.1,0.2-0.2,0.3-0.4,0.5c-0.1,0.1-0.1,0.2-0.2,0.3c-0.1,0.2-0.2,0.3-0.2,0.5c-0.1,0.1-0.1,0.3-0.1,0.4
			c0,0.1-0.1,0.3-0.1,0.4c0,0.2,0,0.4,0,0.6c0,0.1,0,0.2,0,0.4c0,0.3,0.1,0.6,0.2,0.9c0.1,0.2,0.1,0.4,0.2,0.6c0,0.1,0,0.1,0.1,0.2
			c0.1,0.2,0.2,0.3,0.2,0.4c0,0,0,0.1,0.1,0.1c0.1,0.2,0.2,0.3,0.4,0.5c0,0,0,0,0.1,0.1c0.1,0.1,0.3,0.3,0.4,0.4
			c0,0,0.1,0.1,0.1,0.1c0.3,0.3,0.7,0.5,1.1,0.7c0,0,0.1,0,0.1,0c0.2,0.1,0.4,0.1,0.6,0.2c0,0,0,0,0.1,0c0.2,0.1,0.5,0.1,0.8,0.1
			c0.1,0.2,0.1,0.5,0.2,0.7c0.8,2.6,2.1,5.3,4,7.7l1.1,1.9c0.1,0.2,0.2,0.3,0.3,0.4l2.8,2.2l1.1,0.9l0.7,0.6
			c0.1,0.1,0.2,0.1,0.3,0.2c3.6,2.5,8,4.4,13.4,5.4c-0.5,1.5-0.8,2.7-0.9,3.3c-4.1,6.4-8.3,12.8-12.3,19.1l-4.6,7.1
			c-4.3,6.7-10.9,16.9-3.9,25.9c2,2.6,4.8,4.1,8.1,4.2c0.3,0,0.5,0,0.8,0c1.8,0,3.6-0.3,5.5-0.9c1,1.9,2.2,3.9,3.8,5.8
			c2,2.5,4.4,4.7,7.1,6.7c1.6,8,4.5,21.5,6.2,25.2c0.2,0.3,0.3,0.6,0.5,0.8c1.8,2.1,5.9,5.4,14,5.4c0.4,0,0.8,0,1.2,0
			c8-0.3,11.4-1.5,15-5.2c0.9-0.9,2-2.6,3.1-4.7c0.9-1.7,1.9-3.7,2.8-5.5c0.1,0.3,0.2,0.5,0.3,0.8l0.1,0.3c0.5,1.6,1.1,3.1,2,4.6
			c0.7,1.1,1.6,2.2,2.8,3.1c2.6,1.9,6.3,2.8,11.1,2.9l1.2,0c0.6,0,1.2,0,1.9,0c3.5,0,7.2-0.3,10-2.5c0.8-0.7,1.5-1.5,2.2-2.5
			c1.6-2.6,4.3-15.1,4.6-18.2c0.1-0.7,0.1-1.3,0.2-2c5-1.3,8.7-5.8,8.7-11c0-2.6-1-5-2.6-7c1.2-2.4,2.1-4.9,2.9-7.6l12.3-4.4
			c0,0,0,0,0,0c0,0,0,0,0,0c1.5-0.5,2.8-1.6,3.6-2.9l3.5-5.6l1.5-2.4c0.2-0.3,0.4-0.7,0.5-1.1c0.2-0.6,0.4-1.2,0.5-1.8
			c0.2-1.3,0-2.7-0.5-3.9l-16.6-38c-1.1-2.6-2.6-5.1-4.2-7.3c1.3-3.6,2.7-7.7,4.3-12.2c6-16.9,3.8-25.5,0.6-29.9l3-7.5L264,50
			c0.7,0.3,1.5,0.4,2.2,0.4c2.4,0,4.6-1.4,5.6-3.8c0.5-1.3,0.6-2.8,0.1-4.2c2-0.3,3.8-1.7,4.6-3.7c0.8-2,0.4-4.2-0.8-5.8
			c1.3-0.7,2.3-1.7,2.8-3.1c0.6-1.4,0.6-2.9,0.1-4.2c0.5-0.1,0.9-0.2,1.3-0.4c1.5-0.6,2.6-1.8,3.2-3.3C284.5,19,283,15.5,280,14.3
			 M265.2,47.2l-13.8-5.6c-1.5-0.6-2.3-2.4-1.7-3.9c0.3-0.7,0.9-1.3,1.6-1.6c0.4-0.2,0.8-0.2,1.2-0.2c0.4,0,0.8,0.1,1.1,0.2
			l13.8,5.6c0.7,0.3,1.3,0.9,1.6,1.6c0.3,0.7,0.3,1.6,0,2.3C268.5,47.1,266.7,47.8,265.2,47.2 M271.1,146.1c0,0.3,0,0.6,0,0.9
			c0,0.3-0.1,0.6-0.2,0.8c-0.1,0.3-0.2,0.6-0.4,0.8l-5.1,8c-0.5,0.8-1.2,1.4-2.1,1.7l-50.5,18.1c-0.8,0.3-1.7,0.3-2.5,0.1
			c-0.1,0-0.2,0-0.3-0.1c-0.4-0.1-0.7-0.3-1-0.6c-0.6-0.4-1.1-1-1.4-1.7l-9.1-20.9l-1.4-3.3l-5.1-11.7c-2.9-6.7-3.5-13.7-1.9-20.1
			c0.1,4.6,1.1,9.2,3,13.7l0.8,2.2l-0.9,1.1c-0.4,0.4-0.4,1-0.2,1.5l2.9,6.7c0.2,0.5,0.7,0.8,1.2,0.9c0.1,0,0.1,0,0.2,0
			c0.4,0,0.9-0.2,1.2-0.6l2.9-3.6c0.4-0.4,0.4-1,0.2-1.5l-2.9-6.7c-0.2-0.5-0.7-0.8-1.2-0.9c-0.4-0.1-0.9,0.1-1.2,0.4l-0.2-0.6
			c-3.1-7.1-3.6-14.8-1.4-21.7c0,0,0-0.1,0-0.1c0,0,0.1-0.1,0.1-0.1l1.8-2.7l3.6-5.6c0-0.1,0.1-0.1,0.1-0.2c0.4-0.8,0.8-1.5,1.3-2.3
			c-0.1-0.1-0.2-0.2-0.3-0.3c0,0,0,0-0.1-0.1c-0.1-0.1-0.2-0.2-0.3-0.2c0,0-0.1,0-0.1-0.1c-0.1-0.1-0.3-0.2-0.4-0.3
			c-0.1,0-0.2-0.1-0.2-0.1c-0.1,0-0.1,0-0.2-0.1c-0.1,0-0.2-0.1-0.3-0.1c-0.1,0-0.1,0-0.2,0c-0.1,0-0.2,0-0.3,0c0,0-0.1,0-0.1,0
			c-0.1,0-0.3,0-0.4,0.1c0,0,0,0,0,0c-0.4,0.6-0.8,1.3-1.1,2l-1.2,1.9l-0.5,0.8c-4.4-1.9-11.8-3.8-20.3-0.2
			c-7.6,3.2-11.6,9-13.7,13.5c-4.7-0.7-8.4-2.2-11.3-4c0.3-0.5,0.6-1.3,0.7-2.3c0.2-2-0.5-5.1-1.8-7.2c-0.7-1.1-1.6-2.1-2.6-2.4
			c-1-0.4-1.9-0.2-2.7,0.1c-0.6,0.3-1.2,0.7-1.5,1c-0.5,0.4-0.9,0.6-1.3,0.8c-0.7-1.4-1.1-2.6-1.4-3.4c-1.5-4.8-1-7.6-0.4-10.7
			c0.4-2,0.8-4.1,0.6-6.8c0-0.4-0.1-0.8-0.1-1.3l0-0.3c0,0,0,0,0,0c0,0,0,0,0-0.1c-0.3-4.8-0.1-9.4,0.6-13.7c0.9-5.1,2.5-9.9,5-14.1
			c1.6-2.9,3.7-5.6,6-8.1c1.6,3.2,4.7,5.6,8.5,5.9c0,0,0.1,0,0.1,0c0.8,0,1.4-0.6,1.5-1.4c0.1-0.8-0.5-1.6-1.4-1.6
			c-4.1-0.4-7.2-4.1-6.8-8.2c0.4-4.1,4.1-7.2,8.2-6.8c4.1,0.4,7.2,4.1,6.8,8.2c-0.1,0.8,0.5,1.6,1.4,1.6c0.8,0.1,1.6-0.5,1.6-1.3
			c0.3-3.1-0.8-6-2.8-8.1c2.1-0.9,4.2-1.7,6.5-2.4c12.7-4,25.1-2.9,35.8,3.2c10.5,6,18.6,16.6,22.8,29.9c3.1,9.8,3.4,17.5,0.9,23.7
			c-3.4-1.1-6.9-1.8-10.4-1.8l-2.8-7.4c-0.2-0.4-0.5-0.8-0.9-0.9l-6.1-2.1c0,0,0,0,0,0c-0.1,0-0.2-0.1-0.4-0.1c0,0,0,0,0,0
			c-0.1,0-0.2,0-0.4,0c0,0-0.1,0-0.1,0c0,0-0.1,0-0.1,0l-8.1,3c0,0,0,0-0.1,0c-0.1,0.1-0.3,0.1-0.4,0.3c0,0,0,0,0,0
			c-0.1,0.1-0.2,0.2-0.3,0.3l-3.2,5.5c-0.2,0.4-0.3,0.9-0.1,1.3l2.7,7.2c0,0-0.1,0.1-0.1,0.1c0.1,0.1,0.1,0.2,0.2,0.2
			c0.2,0.3,0.4,0.6,0.6,0.9c0,0,0,0,0,0.1c0,0.1,0.1,0.1,0.1,0.2c0.2,0.4,0.5,0.7,0.7,1.1c0,0,0,0,0,0c2.5-2.3,5.5-4.2,8.9-5.4
			c15.1-5.4,33,3.1,40,19l16.6,38C271,145.2,271.1,145.6,271.1,146.1 M235.7,209.7c-2.2,3.7-7.1,3.6-11.4,3.6l-1.2,0
			c-4.2,0-7.2-0.8-9.4-2.3c-2-1.4-2.8-3.6-3.7-6.2l-0.1-0.3c-0.4-1.3-0.9-2.5-1.3-3.8c0.2-0.4,0.4-0.8,0.5-1.2
			c1.1-0.1,2.1-0.1,3.2-0.3c5.8-0.7,14.2-3.6,22-9.1c1.6,0.8,3.4,1.3,5.3,1.3h0.3c0,0.4-0.1,0.9-0.1,1.3
			C239.5,196.3,236.8,207.9,235.7,209.7 M240,188.5h-0.4c-4.7,0-8.8-3.8-8.8-8.4c0-0.8-0.7-1.5-1.5-1.5s-1.5,0.7-1.5,1.5
			c0,3.2,1.5,6.2,3.8,8.3c-7,4.8-14.5,7.3-19.7,7.9c-0.5,0.1-1,0.1-1.5,0.1c0-0.1,0.1-0.2,0.1-0.2c0.3-0.8-0.1-1.6-0.8-2
			c-0.8-0.3-1.6,0.1-2,0.8c-1.7,4.1-6.6,15.2-9,17.7c-2.8,2.9-5.1,4-12.9,4.3c-8,0.3-11.7-2.9-12.8-4.3c-1-1.5-4.1-14.9-6.5-27.1
			c-0.2-0.8-0.9-1.4-1.8-1.2c-0.3,0.1-0.6,0.2-0.8,0.4c-1.7-1.4-3.3-3-4.7-4.7c-1.3-1.7-2.4-3.4-3.3-5.1c6.8-2.8,12.8-8,14.4-9.7
			c2-2.1,6-6.2,9.5-11.3c10,5.2,16.9,6.8,18.7,7.2l6.1,14c0.8,1.8,2.3,3.2,4.1,3.9c0.8,0.3,1.6,0.4,2.5,0.4c0.8,0,1.6-0.1,2.4-0.4
			l24.3-8.7c0.1,0.7,0.7,1.3,1.5,1.3h0.4c4.7,0,8.8,3.8,8.8,8.4C248.8,184.7,244.8,188.5,240,188.5 M141.3,171
			c-5.2-6.8-1-14.5,4.1-22.5l4.6-7.1c4.4-6.9,9-14,13.5-20.9c1.5-2.1,3.3-4.1,5.5-5.8c0.1-0.1,0.3-0.2,0.4-0.3c0,0,0,0,0.1,0
			c2.5-1.8,5.6-3.2,9.2-3.8c0.3-0.1,0.6-0.1,0.9-0.1c2.3-0.2,4.7-0.1,7.3,0.6c0.3,0.1,1.2,0.5,2.2,0.9c-3.9,8.4-3.9,18.2,0.1,27.4
			l4.7,10.8c-2.6-1-5.8-2.4-9.3-4.2c0.5-1.1,0.9-2.3,1.2-3.4c0.2-0.8-0.3-1.6-1.1-1.8c-0.8-0.2-1.6,0.3-1.8,1.1
			c-2.4,9-11.2,18.1-14.5,21.6c-2.8,2.9-13.4,11.1-21.2,10.7C144.7,174,142.7,173,141.3,171 M148,108.1c0,0.1-0.1,0.5-0.2,0.8
			l-3.5-2.9l-1.6-2.8c0.5-0.3,1.1-0.6,1.7-1.1c0.1,0,0.1-0.1,0.2-0.1c0.1-0.1,0.7-0.6,1.1-0.5C146.6,102,148.3,105.6,148,108.1
			 M246.9,171c-1.3-1-2.9-1.7-4.6-2l6.2-2.2C248.1,168.2,247.6,169.6,246.9,171 M195.3,153.4l0.3,0.7l1.7,3.8
			c-3-0.8-8.4-2.6-15.6-6.2c0.6-1,1.1-1.9,1.6-2.9c4.9,2.5,9.1,4.2,12.2,5.3C195.4,153.9,195.3,153.6,195.3,153.4 M165.6,113.6
			c2.1-3.5,5.4-7.4,10.9-9.7c3.1-1.3,6-1.8,8.7-1.8c3.5,0,6.5,0.9,8.8,1.8l-1.9,3c-0.5,0.7-1,1.5-1.5,2.3c-1.5-0.7-2.9-1.1-2.9-1.1
			C178.6,105.9,171,108.9,165.6,113.6 M195.8,136.3l0.8-1l1.6,3.6l-0.8,1L195.8,136.3z M208.5,22.3c0.8,1.5,1.1,3.3,0.8,4.9
			c-4.6-2.2-9.5-3.5-14.5-4.1c0.6-1.7,1.9-3.1,3.5-4C201.9,17.2,206.5,18.6,208.5,22.3 M218.9,83.4l-2-5.5l-0.5-1.4l2.4,0.8l2.2,5.8
			C220.3,83.2,219.6,83.3,218.9,83.4 M208,87.3c-0.6,0.3-1.1,0.7-1.7,1.1l-2.1-5.7l1.3-2.2L208,87.3z M207.7,78l5.3-2l0.6,1.5
			l-5.3,2L207.7,78z M209.3,82.3l5.3-2l1.4,3.6c-0.9,0.2-1.8,0.5-2.7,0.8c-0.9,0.3-1.7,0.7-2.6,1.1L209.3,82.3z M250.5,95.5
			c-3.7-4.1-8.2-7.4-13.2-9.5c3.5-8.8,1.4-18.5-0.9-25.6c0-0.1,0-0.1-0.1-0.2c2.1-2.1,4.3-3.7,6.5-4.7c3.1-1.4,6-1.5,8.6-0.5
			c5.6,2.3,9.3,11.4,2.7,30C252.8,88.8,251.6,92.3,250.5,95.5 M255.3,53.8c-0.4-0.3-0.8-0.6-1.2-0.8l2.4-6l1.3,0.5L255.3,53.8z
			 M262.4,10.4l11.6,4.7c-0.8,0.6-1.5,1.5-1.9,2.5c-0.4,1-0.5,2.1-0.4,3.1l-9.1-3.7l-1.1-0.5h0l-1.3-0.5c-0.7-0.3-1.3-0.9-1.6-1.6
			c-0.3-0.7-0.3-1.6,0-2.3c0.5-1.2,1.6-1.9,2.8-1.9C261.7,10.2,262.1,10.3,262.4,10.4 M274.1,5.3l0,1.9l-1.6,4l-1.3-0.5l1.6-4
			L274.1,5.3z M271.9,30.5l-13.8-5.6c-1.5-0.6-2.3-2.4-1.7-3.9c0.5-1.2,1.6-1.9,2.8-1.9c0.4,0,0.8,0.1,1.1,0.2l13.8,5.6
			c1.5,0.6,2.3,2.4,1.7,3.9c-0.3,0.7-0.9,1.3-1.6,1.6C273.5,30.8,272.7,30.8,271.9,30.5 M255.7,27.2l11.6,4.7
			c-0.8,0.6-1.5,1.5-1.9,2.5c-0.4,1-0.5,2.1-0.4,3.1l-8.3-3.3l-2-0.8c0,0,0,0,0,0l-1.3-0.5c-1.5-0.6-2.3-2.4-1.7-3.9
			C252.4,27.3,254.2,26.6,255.7,27.2 M269.8,39.4c-1.5-0.6-2.3-2.4-1.7-3.9c0.5-1.2,1.6-1.9,2.8-1.9c0.4,0,0.8,0.1,1.1,0.2
			c1.5,0.6,2.3,2.4,1.7,3.9C273.1,39.3,271.4,40,269.8,39.4 M276.6,22.6c-0.7-0.3-1.3-0.9-1.6-1.6c-0.3-0.7-0.3-1.6,0-2.3
			c0.5-1.2,1.6-1.9,2.8-1.9c0.4,0,0.8,0.1,1.1,0.2c1.5,0.6,2.3,2.4,1.7,3.9c-0.3,0.7-0.9,1.3-1.6,1.6
			C278.2,22.9,277.3,22.9,276.6,22.6"/>
		<path style="clip-path:url(#SVGID_8_);" d="M204.2,94c-0.2-0.3-0.4-0.6-0.5-0.8c-0.1-0.2-0.2-0.3-0.3-0.4
			c-0.2-0.3-0.4-0.6-0.6-0.8c-0.1-0.1-0.1-0.2-0.2-0.3c0,0,0,0,0,0c-1.1,1.1-2.2,2.3-3.1,3.6c0,0,0,0,0,0.1c0.2,0,0.4,0.1,0.6,0.2
			c0,0,0,0,0,0c0.2,0.1,0.4,0.2,0.6,0.3c0,0,0,0,0,0c0.2,0.1,0.4,0.2,0.6,0.4c0,0,0,0,0,0c0.2,0.2,0.4,0.3,0.7,0.5
			c0.7-0.9,1.4-1.8,2.1-2.6c0,0,0,0,0,0C204.2,94.1,204.2,94,204.2,94"/>
		<path style="clip-path:url(#SVGID_8_);" d="M248.9,120.1c-0.1,0-0.1,0-0.2,0.1l-30.7,11c-1,0.4-1.9,1.2-2.3,2.2
			c-0.4,1-0.4,2.2,0,3.2l4.3,9.7c0,0.2,0.1,0.3,0.1,0.5c0.1,0.1,0.1,0.2,0.2,0.4l4.3,9.7c0.6,1.5,2.1,2.4,3.7,2.4
			c0.4,0,0.9-0.1,1.3-0.2l31.9-11.5c1-0.4,2.4-1.4,3.1-3c0.5-1.1,0.7-2.9-0.4-5.2l-6.9-15.7C255.5,118.8,250.7,119.8,248.9,120.1
			 M229,142.3l1.6,3.5l-1.6,0.6l-1.6-3.5L229,142.3z M261.9,143.4c-0.3,0.8-1,1.2-1.3,1.4l-31.9,11.5v0c-0.5,0.2-1-0.1-1.3-0.6
			l-4.5-10.3c0-0.2,0-0.4,0.1-0.5c0.1-0.3,0.3-0.4,0.6-0.5l1-0.4l2.3,5c0.3,0.5,0.8,0.9,1.4,0.9c0.2,0,0.3,0,0.5-0.1l4.4-1.6
			c0.4-0.1,0.7-0.4,0.9-0.8c0.2-0.4,0.2-0.8,0-1.2l-2.2-4.8l26-9.3l3.8,8.6C262.1,141.6,262.2,142.6,261.9,143.4 M254.6,124.8
			l0.8,1.9l1.1,2.5l-34.1,12.2c-0.4,0.1-0.7,0.4-1.1,0.6l-1.1-2.4l-1.9-4.3c-0.1-0.3-0.1-0.5,0-0.8c0.1-0.3,0.3-0.4,0.6-0.5l30.5-11
			C252.6,122.5,253.9,122.9,254.6,124.8"/>
		<path style="clip-path:url(#SVGID_8_);" d="M234.1,103c0-5.2-4.2-9.4-9.4-9.4c-5.2,0-9.4,4.2-9.4,9.4c0,5.2,4.2,9.4,9.4,9.4
			C229.8,112.4,234.1,108.2,234.1,103 M224.7,96.6c3.5,0,6.4,2.9,6.4,6.4c0,3.5-2.9,6.4-6.4,6.4c-3.5,0-6.4-2.9-6.4-6.4
			C218.3,99.5,221.1,96.6,224.7,96.6"/>
		<path style="clip-path:url(#SVGID_8_);" d="M223.4,101.5c-0.3-0.8-1.2-1.1-2-0.8c-0.8,0.3-1.1,1.2-0.8,2l1.7,3.8
			c0.2,0.6,0.8,0.9,1.4,0.9c0.2,0,0.4,0,0.6-0.1c0.8-0.3,1.1-1.2,0.8-2L223.4,101.5z"/>
		<path style="clip-path:url(#SVGID_8_);" d="M225.3,99c-0.8,0.3-1.1,1.2-0.8,2l1.7,3.8c0.2,0.6,0.8,0.9,1.4,0.9
			c0.2,0,0.4,0,0.6-0.1c0.8-0.3,1.1-1.2,0.8-2l-1.7-3.8C226.9,99,226.1,98.7,225.3,99"/>
		<g style="opacity:0.2;clip-path:url(#SVGID_8_);">
			<g>
				<defs>
					<rect id="SVGID_9_" x="43.9" y="210.2" width="38.2" height="12.7"/>
				</defs>
				<clipPath id="SVGID_10_">
					<use xlink:href="#SVGID_9_"  style="overflow:visible;"/>
				</clipPath>
				<path style="clip-path:url(#SVGID_10_);" d="M82.1,216.6c0,3.5-8.5,6.3-19.1,6.3s-19.1-2.8-19.1-6.3c0-3.5,8.5-6.3,19.1-6.3
					S82.1,213.1,82.1,216.6"/>
			</g>
		</g>
		<path style="clip-path:url(#SVGID_8_);fill:#E4007F;" d="M18.1,148.7c2.2,4,0.7,9.1-3.4,11.2c-4,2.2-9.1,0.7-11.2-3.3
			c-2.2-4-0.7-9.1,3.4-11.2C10.9,143.2,15.9,144.7,18.1,148.7"/>
		<path style="clip-path:url(#SVGID_8_);fill:#E4007F;" d="M17.5,147.7c-0.5-0.8-4,0.2-8,2.4c-4,2.2-6.8,4.6-6.4,5.4
			c0,0,0.1,0.4,0.7,1.4c0.5,1,0.9,1.5,0.9,1.5c-0.5-0.8,2.4-3.3,6.4-5.4c4-2.2,7.6-3.2,8-2.4c0,0-0.2-0.5-0.8-1.5
			C17.7,148,17.5,147.7,17.5,147.7"/>
		<path style="clip-path:url(#SVGID_8_);fill:#FFFFFF;" d="M13.5,157.7c-1,0.5-1.7,1.1-1.2,2l7,13c0.5,1,1.7,1.3,2.7,0.8
			c1-0.5,1.3-1.7,0.8-2.7l-7-13C15.3,156.8,14.5,157.1,13.5,157.7"/>
		<path style="clip-path:url(#SVGID_8_);fill:#FFFFFF;" d="M86.4,182.4c8-4.6,20.5-17,25.2-25.3c4.7-8.3,2.3-14.9,2.3-14.9
			c1.1-4-0.9-8.4-4.7-6.6c-3.8,1.8-35.1,23.2-35.1,23.2s-4.8-2.6-20.6-2.6c-11.3,0-17.4,5.1-23.5,11.3c0,0-7.9-4.8-14.2,1.5
			c-6.5,6.5,0.6,14.3,7.1,16.9c6.7,2.7,14.8,0.7,21.4-1.6"/>
		<path style="clip-path:url(#SVGID_8_);fill:#FFFFFF;" d="M87,169.6c1.4,3.9,3.2,10.3,3.2,17.7c0,12-10.5,24.8-11.5,26.1
			c-3.6,4.7-13.5,3.7-13.5,0v-8.9h-4.4v8.9c0,2.7-9.5,5.2-13.5,0c-0.9-1.2-11.7-14.1-11.7-26.1c0-7.1,2-13.3,3.4-17.2"/>
		<path style="clip-path:url(#SVGID_8_);fill:#FFFFFF;" d="M72,201.7c0,0-3.6,2-9,2c-5.4,0-9-2-9-2"/>
		<path style="clip-path:url(#SVGID_8_);fill:#FFFFFF;" d="M65.8,196.9c7.1,1.6,12.6,2.1,19.5-0.2c4.4-1.5,7.8-4,11-6.5
			c5.2-3.9,10.5-7.9,17.9-4.8c3.2,1.3,5.5,4,6.4,7.4c1.1,3.8,0.4,8-1.8,11.1c-0.6,0.8-1.5,1.3-2.4,1.4c-0.8,0.1-1.7-0.1-2.5-0.6
			c-1.6-1.1-1.9-3.3-0.8-4.9c1-1.3,1.3-3.4,0.8-5.1c-0.3-1-0.9-2.2-2.4-2.9c-3.5-1.5-6,0.2-11,4c-3.6,2.7-7.6,5.7-13.1,7.5
			c-8.4,2.8-15.1,2.2-23.2,0.4"/>
		<path style="clip-path:url(#SVGID_8_);fill:#EA609E;" d="M49.5,166.4c0,0-3.9-6.4-11.3-8.1c0,0-4.2,0.4-6.6,7.3
			c7.3,1.7,11.3,8.1,11.3,8.1"/>
		<path style="clip-path:url(#SVGID_8_);fill:#EA609E;" d="M72.1,164.5c0,0,4-10.5,8.6-16.5c0,0,3.5-2.3,9.7,1.6
			c-4.7,5.9-8.6,16.5-8.6,16.5"/>
		<path style="clip-path:url(#SVGID_8_);fill:#FFFFFF;" d="M57.9,161.9c3.5-0.5,7.3-1.2,11.4-2.3c26.1-6.7,33.1-19.7,29-31.8
			c-0.8-2.4-4.3-4-5.3-6c-4.1-8.2-7.2-14.2-15.6-19.2c0,0-5.7-3.1-13.6-4.3c-4.9-0.6-10.2,0-15.7,1.9c-5.7,1.9-10.3,4.6-13.9,8
			l-15.1-1l5.4,18"/>
		<path style="clip-path:url(#SVGID_8_);fill:#FFFFFF;" d="M78.4,103.1c7.7,4.9,10.8,10.8,14.7,18.7c1,2,4.4,3.6,5.3,6
			c4.1,12.1-2.9,25.1-29,31.8c-27.8,7.2-39.8,0.4-42.9-8.6"/>
		<path style="clip-path:url(#SVGID_8_);fill:#FDEFF5;" d="M93.2,138.8c-3.6,0.3-7.2,0-9.9-1.9c-2.4-1.7-3.4-3.8-4-6.6
			c-0.2-1,0-2,0.2-3.1c-0.2,2.3-0.2,2.1,0.1-0.7c0.6-2.3,1.9-4.7,4-6.4c0.1-0.1,0.3-0.2,0.5-0.4c1.1-1.4,2.7-2.5,4.5-3.1
			c0.1-0.1,0.2-0.1,0.3-0.1c0.8,1.4,1.5,2.8,2.3,4.3c0.2,0.5,0.5,1,0.7,1.5c0.3,0.6,0.9,1.2,1.5,1.8c0.4,0.4,0.8,0.7,1.2,1.1
			c0.1,0.1,0.3,0.2,0.4,0.4c0.9,0.8,1.8,1.7,2.2,2.8c0.6,1.9,1,3.8,1.1,5.7c0,0.4,0,0.8,0,1.1c0,0.8-0.1,1.6-0.2,2.4
			C96.4,138.1,94.8,138.6,93.2,138.8"/>
		<polyline style="clip-path:url(#SVGID_8_);fill:#FFFFFF;" points="46.9,107.8 34.1,98.1 27.6,112.6 		"/>
		<path style="clip-path:url(#SVGID_8_);fill:#FFFFFF;" d="M27,119c-4.7,11.4-3.8,22.5-0.6,32c2.2,6.5,9,11.8,23.1,11.6"/>
		<path style="clip-path:url(#SVGID_8_);" d="M88.8,126c0.9,2.4,0.5,4.9-1,5.4c-1.5,0.5-3.4-1-4.3-3.4c-0.9-2.4-2.6-2.4-1.1-2.9
			C83.8,124.5,87.9,123.6,88.8,126"/>
		<path style="clip-path:url(#SVGID_8_);fill:#E84388;" d="M95.4,128.8c4.4,5.8,3.5-2.5,2.2-3.8s-1.7-1.2-2.8-0.2
			C93.5,126.1,93.6,126.4,95.4,128.8"/>
		<path style="clip-path:url(#SVGID_8_);fill:#E84388;" d="M99.4,133.7c0,0-1.5,0.4-3.8,0.3c-2.3-0.1-4.3,0.6-5.1,2.2
			c-0.7,1.7,1.7,6.1,6.9,6.1C97.4,142.3,99.9,138,99.4,133.7"/>
		<polygon style="clip-path:url(#SVGID_8_);fill:#37484B;" points="58.3,161.4 53.7,161.4 53.7,148.6 58.3,144.8 		"/>
		<polygon style="clip-path:url(#SVGID_8_);fill:#37484B;" points="66.3,161.4 70.9,161.4 70.9,148.6 66.3,144.8 		"/>
		<rect x="58.3" y="144.8" style="clip-path:url(#SVGID_8_);fill:#37484B;" width="8" height="4.3"/>
		<path style="clip-path:url(#SVGID_8_);fill:#EA609E;" d="M62.5,153.4c-10.8,0-19.6,6.7-19.6,15v17.8h39.2v-17.8
			C82.1,160.2,73.3,153.4,62.5,153.4"/>
		<path style="clip-path:url(#SVGID_8_);fill:#E4007F;" d="M62.5,165.6c-10.8,0-19.6,6.7-19.6,15v15.2c0,1.5,1.2,2.6,2.6,2.6h34
			c1.5,0,2.6-1.2,2.6-2.6v-15.2C82.1,172.3,73.3,165.6,62.5,165.6"/>
		<path style="clip-path:url(#SVGID_8_);fill:#D57500;" d="M69.7,179.9c0,4.1-3.3,7.3-7.3,7.3s-7.3-3.3-7.3-7.3
			c0-4.1,3.3-7.3,7.3-7.3S69.7,175.8,69.7,179.9"/>
		<line style="clip-path:url(#SVGID_8_);fill:#37484B;" x1="60.4" y1="177.9" x2="60.4" y2="181.8"/>
		<line style="clip-path:url(#SVGID_8_);fill:#37484B;" x1="64.3" y1="177.9" x2="64.3" y2="181.8"/>
		<polygon style="clip-path:url(#SVGID_8_);fill:#FFFFFF;" points="72.3,164.1 66,161.6 67.5,157.6 73.8,160.1 		"/>
		<line style="clip-path:url(#SVGID_8_);fill:#BDD63E;" x1="42.8" y1="192" x2="82.1" y2="192"/>
		<path style="clip-path:url(#SVGID_8_);" d="M122.1,192.4c-1.1-3.9-3.7-6.9-7.3-8.4c-8.2-3.4-14.1,1-19.4,5c-1.4,1-2.8,2.1-4.2,3
			c0.3-1.6,0.5-3.1,0.5-4.7c0-2.1-0.1-4.2-0.4-6.4c7.9-5.9,17.7-16.1,21.6-23.1c4.3-7.6,3-14,2.5-15.7c0.7-3-0.1-5.9-1.9-7.5
			c-1.4-1.1-3.2-1.3-5-0.5c-1.1,0.5-4.3,2.5-8.3,5.2c0.5-1.7,0.9-3.8,0.7-5.9c0,0,0,0,0,0v0v0c-0.1-2-0.4-4.1-1.1-6.2
			c-0.6-1.7-2-3-3.3-4.1c-0.8-0.7-1.7-1.5-2-2.1c-0.2-0.5-0.5-0.9-0.7-1.4c-0.2-0.4-0.4-0.8-0.6-1.2c0,0,0-0.1-0.1-0.1
			c-2.8-5.4-5.6-10.3-11-14.5c0,0,0,0-0.1,0c-0.4-0.3-0.8-0.6-1.3-0.9c-0.1-0.1-0.2-0.1-0.2-0.2c-0.4-0.3-0.8-0.6-1.3-0.8
			c0,0-0.1,0-0.1-0.1c0,0,0,0,0,0c-0.3-0.2-0.6-0.4-1-0.6c-0.2-0.1-6-3.3-14.2-4.5c-5.3-0.6-10.8,0.1-16.4,2
			c-2.3,0.8-4.5,1.7-6.6,2.8l-6-4.6c-0.4-0.3-0.8-0.4-1.3-0.3c-0.4,0.1-0.8,0.4-1,0.8l-4,8.7l-9.6-0.7c-0.5,0-1,0.2-1.3,0.6
			c-0.3,0.4-0.4,0.9-0.3,1.4l5.4,18c0,0.2,0.1,0.3,0.2,0.4c-1.8,8.2-1.2,16.7,1.8,25.6c0,0.1,0.1,0.3,0.2,0.4c1,2.6,3,6,7.4,8.6
			c-0.9,1.2-1.7,2.7-2.4,4.6c0,0,0,0.1,0,0.1c-0.1,0.1-0.3,0.3-0.4,0.4c-2.1-1-5.3-1.8-8.7-1.2l-3-5.5c1.4-1.7,2.2-3.8,2.3-5.9
			c1.3-0.8,1.8-2.4,1.2-3.8c0-0.1-0.3-0.7-0.9-1.8c-0.5-0.9-0.8-1.3-0.9-1.6c-0.4-0.6-1.4-1.6-3.3-1.6c-0.2,0-0.4,0-0.6,0
			c-2.9-1.9-6.7-2.2-10-0.4c-2.3,1.2-4,3.3-4.7,5.8c-0.3,0.9-0.4,1.9-0.4,2.9c-1,1.4-1.3,2.7-0.7,4c0.1,0.3,0.3,0.7,0.8,1.5
			c0.6,1.1,1,1.6,1,1.7c0.6,0.9,1.5,1.4,2.5,1.4c0.4,0,0.8-0.1,1.2-0.3c1.5,0.9,3.3,1.4,5,1.4c0.4,0,0.8,0,1.3-0.1l2.9,5.4
			c0,0-0.1,0.1-0.1,0.1c-2.5,2.5-3.4,5.4-2.8,8.4c1,5,6.1,9.2,10.5,11c2.5,1,5.2,1.4,7.9,1.4c1.3,0,2.5-0.1,3.8-0.3
			c0.5,10,7.5,20.2,11.7,25.6l0.2,0.3c3,3.9,8.4,4.3,12.3,3c2.5-0.8,3.9-2.2,3.9-3.9V206h1.4v7.4c0,1.8,1.3,3.3,3.6,4.1
			c1.1,0.4,2.4,0.6,3.8,0.6c3.3,0,6.8-1.2,8.8-3.7l0.2-0.2c1.7-2.2,4-5.3,6-8.8c0.6-0.2,1.3-0.4,2-0.6c5.7-1.9,9.8-5,13.5-7.7
			c5-3.8,6.8-4.9,9.5-3.8c0.8,0.3,1.3,1,1.6,1.9c0.4,1.3,0.1,2.9-0.5,3.8c-1.6,2.2-1.1,5.4,1.2,7c0.9,0.6,1.9,0.9,2.9,0.9
			c0.2,0,0.4,0,0.6,0c1.4-0.2,2.6-0.9,3.4-2.1C122.5,201.4,123.3,196.6,122.1,192.4 M116.3,203.9c-0.5,0.1-1-0.1-1.4-0.4
			c-0.9-0.6-1.1-1.9-0.5-2.8c1.2-1.7,1.6-4.2,1-6.4c-0.5-1.8-1.7-3.2-3.3-3.8c-4.4-1.9-7.8,0.6-12.4,4.1c-3.5,2.6-7.4,5.5-12.6,7.3
			c-8,2.7-14.6,2.1-22.4,0.4h0l0-0.1c-0.5,0-1.1,0.1-1.6,0.1c-5,0-8.3-1.8-8.3-1.8c-0.7-0.4-1.6-0.1-2,0.6c-0.4,0.7-0.1,1.6,0.6,2
			c0.1,0.1,2.4,1.3,6,1.9l0,8.5c-0.1,0.3-1.3,1.2-3.6,1.5c-1.1,0.2-5.1,0.5-7.2-2.3l-0.3-0.3c-4.2-5.2-11.1-15.4-11.1-24.9
			c0-5.6,1.2-10.5,2.7-15c0.7,0.7,1.2,1.4,1.5,1.8v6.5v7.1v8.1c0,2.3,1.9,4.1,4.1,4.1h34c0.9,0,1.7-0.3,2.4-0.8
			c1.3-0.3,2.6-0.6,4-1.1c4.6-1.5,8.1-4.1,11.5-6.7c5.1-3.8,9.8-7.4,16.4-4.6c2.7,1.2,4.7,3.4,5.6,6.4c1,3.4,0.3,7.1-1.6,9.8
			C117.3,203.5,116.8,203.8,116.3,203.9 M77.5,212.5c-1.9,2.5-6.4,3.1-9.2,2.2c-0.9-0.3-1.6-0.8-1.6-1.2v-7.7c5.3,1,10,1.4,15.3,0.5
			c-1.6,2.6-3.2,4.7-4.3,6L77.5,212.5z M23.7,184.5c-3.7-1.5-7.9-5.1-8.7-8.8c-0.4-2,0.3-3.9,2-5.7c5.3-5.3,12-1.4,12.3-1.2
			c0.6,0.4,1.4,0.3,1.9-0.2c0.4-0.4,0.8-0.8,1.1-1.1c2,0.6,3.7,1.6,5.1,2.7c-1.1,3.1-2.9,8.8-3.2,15.4
			C30.6,185.9,26.9,185.9,23.7,184.5 M10.7,159.4c-1,0-2-0.3-2.9-0.7c0.7-0.7,2.3-1.8,4.7-3.1c2.3-1.3,4.1-1.9,5.1-2.2
			c-0.1,1-0.5,2-1,2.9c-0.5-0.4-1.1-0.7-1.8-0.6c-0.7,0-1.4,0.4-2,0.7C10.9,157.3,10.5,158.5,10.7,159.4 M13.8,159.2
			c0.1-0.1,0.2-0.1,0.4-0.3c0.2-0.1,0.3-0.2,0.4-0.2l3.6,6.7c-0.3,0.1-0.6,0.3-0.9,0.5L13.8,159.2z M111.7,137
			c0.8,0.7,1.4,2.6,0.8,4.8c-0.1,0.3-0.1,0.6,0,0.9c0,0.1,2.1,6.1-2.2,13.7c-3.6,6.3-12.2,15.5-19.6,21.2c-0.5-2.8-1.3-5.7-2.3-8.5
			c-0.3-0.8-1.1-1.2-1.9-0.9c-0.8,0.3-1.2,1.1-0.9,1.9c2.1,5.8,3.1,11.6,3.1,17.2c0,2.2-0.4,4.5-1,6.8c-0.9,0.4-1.8,0.8-2.8,1.1
			c-0.4,0.1-0.8,0.3-1.3,0.4v-7.9v-7.1v-12.2c0-0.7-0.1-1.4-0.2-2.1c0.7-1.8,3.7-9.2,7.3-14.4c3-2.2,5.4-4.6,7.1-7.3
			c5.9-3.9,10.8-7.1,12.1-7.7C110.9,136.5,111.4,136.8,111.7,137 M62.5,154.9c8.4,0,15.5,4.3,17.5,10.1c-1.3-1.6-3-2.9-4.9-4
			l0.2-0.4c0.3-0.8-0.1-1.6-0.8-1.9l-6.3-2.5c-0.4-0.1-0.8-0.1-1.2,0c-0.4,0.2-0.7,0.5-0.8,0.8l-0.4,0.9c-1.1-0.1-2.2-0.2-3.3-0.2
			c-7.3,0-13.7,2.9-17.5,7.3C46.9,159.3,54,154.9,62.5,154.9 M55.2,149.3l1.6-1.3l0,1.2v0l0,3.4c-0.5,0.1-1.1,0.3-1.6,0.4
			L55.2,149.3z M59.8,146.3l5,0l0,1.3l-5,0L59.8,146.3z M67.8,148l1.6,1.3l0,3.6c-0.5-0.1-1.1-0.3-1.6-0.4L67.8,148z M59.8,150.7
			l5,0v1.4c-0.8-0.1-1.6-0.1-2.4-0.1c-0.9,0-1.8,0.1-2.7,0.1V150.7z M80.6,195.8c0,0.6-0.5,1.1-1.1,1.1h-34c-0.6,0-1.1-0.5-1.1-1.1
			v-2.2h36.2V195.8z M44.3,180.6c0-7.4,8.1-13.5,18.1-13.5c10,0,18.1,6,18.1,13.5v4.1v5.8H44.3v-5.8V180.6z M62.5,160.8
			c0.8,0,1.5,0,2.2,0.1l-0.1,0.1c-0.3,0.8,0.1,1.6,0.8,1.9l6.3,2.5c0.2,0.1,0.4,0.1,0.6,0.1c0.2,0,0.4,0,0.6-0.1
			c0.4-0.2,0.7-0.5,0.8-0.8l0.3-0.7c3.2,2,5.5,4.8,6.3,7.9c-3.8-4.6-10.3-7.6-17.8-7.6c-7.5,0-14,3.1-17.8,7.6
			C46.2,165.5,53.6,160.8,62.5,160.8 M68,160.7l0.5-1.2l3.5,1.4l-0.4,1.2L68,160.7z M78.9,158.1c2.2-0.9,4.3-1.8,6.2-2.8
			c-1.3,2.4-2.4,4.8-3.2,6.7C81.1,160.6,80.1,159.3,78.9,158.1 M92.6,138.6c-0.7-0.9-0.8-1.6-0.7-1.8c0.4-0.8,1.6-1.3,3.3-1.3
			c0.1,0,0.2,0,0.3,0c0.9,0,1.8,0,2.4-0.1c-0.1,2.2-0.9,4.2-1.4,5.3C94.3,140.4,93.1,139.1,92.6,138.6 M35.4,161.9
			c1.4,0.6,2.9,1,4.6,1.4c0.1,0,0.2,0.1,0.3,0.1c0.1,0,0.3,0,0.4,0.1c0.5,0.1,1,0.2,1.5,0.3c-0.6,1.5-0.9,3.1-0.9,4.8v1.1
			c-1.8-1.7-4.3-3.7-7.7-4.8C34.2,163.4,34.8,162.5,35.4,161.9 M97.6,125c0.1,0.1,0.1,0.1,0.2,0.2c0,0,0,0,0,0.1
			c0,0.1,0.1,0.2,0.1,0.3c0,0,0,0,0,0c0,0.1,0.1,0.2,0.1,0.3c0,0,0,0.1,0,0.1c0,0.1,0.1,0.3,0.1,0.4c0,0,0,0,0,0.1
			c0,0.1,0.1,0.3,0.1,0.4c0,0,0,0,0,0.1c0,0.2,0.1,0.3,0.1,0.5c0,0,0,0.1,0,0.1c0,0.2,0,0.3,0.1,0.5l0,0c0,0.2,0,0.3,0,0.5
			c0,0,0,0,0,0.1c0,0.3,0,0.6,0,0.9c0,0,0,0,0,0.1c0,0.3-0.1,0.5-0.1,0.8c0,0,0,0,0,0c0,0.1-0.1,0.2-0.1,0.3c0,0,0,0,0,0
			c-0.1,0.1-0.1,0.1-0.2,0.2c0,0,0,0,0,0c-0.1,0-0.1,0.1-0.2,0.1c0,0,0,0,0,0c-0.1,0-0.2,0-0.3,0c0.1,0.5,0.2,1.1,0.2,1.6
			c-0.6,0.1-1.3,0.1-2.2,0.1c-3.2-0.1-5.6,1-6.5,3.1c-0.4,0.9-0.3,2.1,0.2,3.2c0.2,0.4,0.3,0.7,0.6,1.1c1.2,1.8,3,3,5.1,3.5
			c-1.4,2.1-3.3,4-5.6,5.8c-3.4,2.6-7.8,4.9-13.2,6.7c-1.2-0.8-2.4-1.5-3.8-2l0-5.3c0-0.5-0.2-0.9-0.6-1.2l-4.6-3.8c0,0,0,0,0,0
			c-0.1-0.1-0.2-0.1-0.3-0.2c0,0,0,0,0,0c-0.1,0-0.2-0.1-0.4-0.1c0,0-0.1,0-0.1,0c0,0-0.1,0-0.1,0h0l-8,0c0,0-0.1,0-0.1,0
			c0,0-0.1,0-0.1,0c-0.1,0-0.2,0-0.4,0.1c0,0,0,0,0,0c-0.1,0-0.2,0.1-0.3,0.2c0,0,0,0,0,0l-4.6,3.8c-0.3,0.3-0.6,0.7-0.6,1.2l0,5.4
			c-3.6,1.6-6.5,3.9-8.4,6.8c-4.4-0.5-8-1.8-10.8-3.6c-0.2-0.1-0.3-0.2-0.5-0.4c-0.1-0.1-0.1-0.1-0.2-0.2c-1.6-1.3-2.7-2.7-3.4-3.9
			c-0.1-0.2-0.3-0.5-0.4-0.7c-0.1-0.1-0.1-0.2-0.2-0.3c-0.2-0.4-0.3-0.7-0.4-1.1c0,0,0,0,0,0s0,0,0,0c-3.7-10.9-3.5-21.3,0.5-30.9
			c0.3-0.8,0-1.6-0.8-2c-0.8-0.3-1.6,0-2,0.8c-0.3,0.8-0.6,1.5-0.9,2.3l-3.6-12l6.3,0.4l-1.3,2.9c-0.3,0.8,0,1.6,0.7,2
			c0.2,0.1,0.4,0.1,0.6,0.1c0.6,0,1.1-0.3,1.4-0.9l5.8-12.8l11.2,8.6c0.7,0.5,1.6,0.4,2.1-0.3c0.5-0.7,0.4-1.6-0.3-2.1l-4.1-3.1
			c1.5-0.7,3.2-1.4,4.9-2c5.2-1.8,10.3-2.4,15-1.8c7.6,1.2,13,4.1,13.1,4.1c0.2,0.1,0.4,0.2,0.5,0.3l0,0c0.1,0.1,0.2,0.2,0.3,0.3
			c5.2,3.3,8.2,7.1,11.1,12.1c1,1.8,2,3.8,3.1,5.9c0.6,1.1,1.6,2,2.6,2.9c0.1-0.1,0.1-0.1,0.2-0.2c0,0,0,0,0,0
			c0.1-0.1,0.2-0.2,0.3-0.3C95.9,123.7,96.4,123.7,97.6,125 M7.6,146.7c1-0.6,2.1-0.8,3.2-0.8c0.1,0,0.3,0,0.4,0
			c-1.3,0.6-2.5,1.2-3.2,1.6c-1.1,0.6-2.2,1.3-3.2,1.9C5.5,148.2,6.4,147.3,7.6,146.7 M4.1,157.5c-0.1-0.2-0.2-0.4-0.4-0.7
			c-0.1-0.3-0.2-0.5-0.3-0.6c-0.3-0.5-0.3-0.7-0.3-0.7c-0.1-0.1-0.1-0.2,0-0.4c0.1-0.2,0.2-0.5,0.5-0.8c0.1-0.1,0.2-0.2,0.3-0.3
			c0.2-0.2,0.5-0.5,0.8-0.7c0.4-0.4,0.9-0.8,1.5-1.2c0.6-0.4,1.2-0.8,1.9-1.2c0.5-0.3,0.9-0.5,1.4-0.8l0,0c0.3-0.2,0.7-0.4,1-0.5
			c0.1,0,0.2-0.1,0.2-0.1c0.3-0.2,0.6-0.3,1-0.5c0,0,0.1,0,0.1,0c0.3-0.1,0.6-0.3,0.9-0.4c0.1,0,0.1-0.1,0.2-0.1
			c0.3-0.1,0.6-0.2,0.9-0.3c0,0,0.1,0,0.1,0c0.2-0.1,0.5-0.2,0.7-0.2c0.1,0,0.1,0,0.2-0.1c0.2-0.1,0.5-0.1,0.7-0.2c0,0,0.1,0,0.1,0
			c0.2,0,0.4-0.1,0.5-0.1c0,0,0.1,0,0.1,0c0.2,0,0.3,0,0.5,0c0,0,0,0,0,0c0,0,0.1,0,0.1,0c0,0,0.1,0,0.1,0c0.1,0,0.1,0,0.1,0
			c0,0,0.1,0,0.1,0c0,0,0.1,0,0.1,0.1c0,0,0,0,0.1,0c0,0,0.1,0.1,0.1,0.1c0,0,0,0,0,0.1c0.1,0.1,0.2,0.3,0.4,0.6
			c0,0.1,0.1,0.2,0.2,0.3c0,0,0,0,0,0.1c0,0.1,0.1,0.2,0.1,0.3c0.5,1,0.8,1.5,0.8,1.5c0,0-0.1-0.1-0.1-0.1c0,0,0,0-0.1,0
			c0,0-0.1,0-0.1-0.1c0,0-0.1,0-0.1,0c0,0-0.1,0-0.1,0c0,0-0.1,0-0.1,0c0,0-0.1,0-0.1,0c0,0,0,0,0,0c-0.2,0-0.3,0-0.5,0
			c0,0-0.1,0-0.1,0c-0.2,0-0.3,0.1-0.5,0.1c0,0-0.1,0-0.1,0c-0.2,0.1-0.5,0.1-0.7,0.2c-0.1,0-0.1,0-0.2,0.1
			c-0.2,0.1-0.5,0.1-0.7,0.2c0,0-0.1,0-0.1,0c-0.3,0.1-0.6,0.2-0.9,0.3c-0.1,0-0.1,0.1-0.2,0.1c-0.3,0.1-0.6,0.2-0.9,0.4
			c0,0-0.1,0-0.1,0c-0.3,0.1-0.6,0.3-1,0.5l-0.2,0.1c-0.3,0.2-0.7,0.3-1,0.5c-0.2,0.1-0.5,0.3-0.7,0.4c-0.5,0.3-0.9,0.5-1.4,0.8
			c-0.2,0.1-0.4,0.3-0.6,0.4c-1,0.7-1.9,1.3-2.5,1.9c-0.5,0.5-0.9,0.9-1,1.2c-0.1,0.2-0.1,0.3-0.1,0.5c0,0.1,0,0.1,0,0.2
			C4.6,158.3,4.4,158,4.1,157.5"/>
		<path style="clip-path:url(#SVGID_8_);" d="M82.4,125c-1.5,0.5,0.2,0.5,1.1,2.9c0.9,2.4,2.8,4,4.3,3.4c1.5-0.5,1.9-3,1-5.4
			C87.9,123.6,83.8,124.5,82.4,125"/>
		<path style="clip-path:url(#SVGID_8_);" d="M62.3,171c-4.9,0-8.8,4-8.8,8.8c0,4.9,4,8.8,8.8,8.8c4.9,0,8.8-4,8.8-8.8
			C71.2,175,67.2,171,62.3,171 M56.5,179.9c0-3.2,2.6-5.8,5.8-5.8c3.2,0,5.8,2.6,5.8,5.8c0,3.2-2.6,5.8-5.8,5.8
			C59.1,185.7,56.5,183.1,56.5,179.9"/>
		<path style="clip-path:url(#SVGID_8_);" d="M60.4,183.3L60.4,183.3c0.8,0,1.5-0.7,1.5-1.5l0-3.9c0-0.8-0.7-1.5-1.5-1.5h0
			c-0.8,0-1.5,0.7-1.5,1.5l0,3.9C58.9,182.6,59.5,183.3,60.4,183.3"/>
		<path style="clip-path:url(#SVGID_8_);" d="M64.3,183.3L64.3,183.3c0.8,0,1.5-0.7,1.5-1.5l0-3.9c0-0.8-0.7-1.5-1.5-1.5
			c-0.8,0-1.5,0.7-1.5,1.5l0,3.9C62.8,182.6,63.5,183.3,64.3,183.3"/>
		<g style="opacity:0.2;clip-path:url(#SVGID_8_);">
			<g>
				<defs>
					<rect id="SVGID_11_" x="442" y="210.2" width="62.5" height="12.7"/>
				</defs>
				<clipPath id="SVGID_12_">
					<use xlink:href="#SVGID_11_"  style="overflow:visible;"/>
				</clipPath>
				<path style="clip-path:url(#SVGID_12_);" d="M504.5,216.6c0,3.5-14,6.3-31.3,6.3c-17.3,0-31.3-2.8-31.3-6.3
					c0-3.5,14-6.3,31.3-6.3C490.5,210.2,504.5,213.1,504.5,216.6"/>
			</g>
		</g>
		<path style="clip-path:url(#SVGID_8_);fill:#C3D83F;" d="M456.7,189.3l-14.2,8.3c-3.8,2.3-8.7,1.1-11-2.7l-3.4-5.5
			c-2.3-3.8-1.1-8.7,2.7-11l14.2-8.3c3.8-2.3,8.7-1.1,11,2.7l3.4,5.5C461.6,182.1,460.4,187,456.7,189.3"/>
		<path style="clip-path:url(#SVGID_8_);fill:none;stroke:#000000;stroke-width:3;stroke-linecap:round;stroke-linejoin:round;" d="
			M456.7,189.3l-14.2,8.3c-3.8,2.3-8.7,1.1-11-2.7l-3.4-5.5c-2.3-3.8-1.1-8.7,2.7-11l14.2-8.3c3.8-2.3,8.7-1.1,11,2.7l3.4,5.5
			C461.6,182.1,460.4,187,456.7,189.3z"/>
		<polygon style="clip-path:url(#SVGID_8_);fill:#76A32D;" points="455.8,172.6 427.9,189.2 429.8,192.1 457.6,175.5 		"/>
		<path style="clip-path:url(#SVGID_8_);fill:#FFFFFF;" d="M450.2,188.6l1.6-1c0.8-0.5,1-1.5,0.6-2.3l-2.9-4.7l-4.5,2.8l2.9,4.7
			C448.4,188.9,449.4,189.1,450.2,188.6"/>
		<path style="clip-path:url(#SVGID_8_);fill:#FFF100;" d="M532.8,180.8c-4.6,0.4-8.6-2.9-9-7.5c-0.4-4.6,2.9-8.6,7.5-9
			c4.6-0.4,8.6,2.9,9,7.5C540.7,176.4,537.4,180.4,532.8,180.8"/>
		<path style="clip-path:url(#SVGID_8_);fill:#FFF100;" d="M534,180.7c0.9-0.1,1.4-3.8,1-8.3c-0.4-4.5-1.5-8.1-2.5-8
			c0,0-0.4,0-1.5,0.1c-1.1,0.1-1.7,0.2-1.7,0.2c0.9-0.1,2,3.5,2.5,8c0.4,4.5,0,8.2-1,8.3c0,0,0.6,0,1.7-0.1
			C533.6,180.7,534,180.7,534,180.7"/>
		<path style="clip-path:url(#SVGID_8_);fill:#FFFFFF;" d="M526.3,173.1c-0.1-1.1-0.3-2-1.4-1.9l-14.7,1.4c-1.1,0.1-1.9,1.1-1.8,2.2
			c0.1,1.1,1.1,1.9,2.2,1.8l14.7-1.4C526.4,175.1,526.4,174.2,526.3,173.1"/>
		<path style="clip-path:url(#SVGID_8_);fill:#FFE100;" d="M504.3,163.2c0,0,13.6,3.4,11.5,11.3c-2.3,9-12.7,1.9-12.7,1.9"/>
		
			<path style="clip-path:url(#SVGID_8_);fill:none;stroke:#008CD6;stroke-width:1.417;stroke-linecap:round;stroke-linejoin:round;stroke-miterlimit:10;" d="
			M442.5,139.1c-0.1,0.5-0.2,0.9-0.2,1.4c-0.6,4.8,0.6,8.8,2.9,9.2c1.7,0.3,3.5-1.3,4.9-4c0.7-1.4,1.3-3,1.6-4.8
			c0.4-2.1,0.5-4.2,0.2-5.9c-0.4-2.6-1.4-4.4-2.9-4.7C446.4,129.8,443.5,133.7,442.5,139.1z"/>
		<path style="clip-path:url(#SVGID_8_);fill:#B39B2A;" d="M476.9,203.5c0.6,1.9,1.7,3.6,2.6,5.4c1.6,3.1,3.2,6.4,6.8,7.5
			c2.8,0.8,6.9,0.5,7.6-2.9c0.7-3.4-1-7-1.6-10.3"/>
		<path style="clip-path:url(#SVGID_8_);fill:#FFE100;" d="M468.5,206.8L468.5,206.8c-17.6-3.4-29.7-17.6-26.3-35.1l5.7-29.5
			c3.4-17.6,20.5-29.1,38.1-25.7c17.5,3.4,29.1,20.5,25.7,38.1L506,184C502.6,201.5,486,210.2,468.5,206.8"/>
		<path style="clip-path:url(#SVGID_8_);fill:#714234;" d="M443.1,166.8c0,0,7.9,4.8,31.4,9.4c23.5,4.5,32.4,3,32.4,3l-1.4,7.1
			c0,0-4.8,4.4-32.8-1c-28-5.4-31.2-10.8-31.2-10.8L443.1,166.8z"/>
		<path style="clip-path:url(#SVGID_8_);fill:#3B322F;" d="M441.5,177.9c-0.1,3.3,0.9,6.7,1.8,9.8c3.7,2.1,11,5.1,27.3,8.3
			c16.4,3.2,24.4,2.9,28.5,2.2c1.9-2.5,3.9-5.1,5-8.1c-2.2,0.4-11.7,1.8-32-2.1C452,184,443.5,179.1,441.5,177.9"/>
		<path style="clip-path:url(#SVGID_8_);" d="M457.9,130.3c-0.3-0.2-0.6-0.4-0.9-0.6c-0.3-0.1-0.7,0.3-0.9,0.7
			c-0.2,0.5-0.1,0.9,0.2,1c-0.1,0,0.1,0.1,0.1,0.1c0.1,0,0.1,0.1,0.2,0.1c0.1,0.1,0.3,0.2,0.4,0.3
			C457.5,132.3,458.4,130.8,457.9,130.3"/>
		<path style="clip-path:url(#SVGID_8_);fill:#FFE100;" d="M456.9,203.5c1.1,3.5,2,8.1,4.4,11c2.9,3.5,7.6,3.7,10.5,0.9
			c2.1-2.1,1.8-9.6,1.4-12.1"/>
		<path style="clip-path:url(#SVGID_8_);fill:#FFFFFF;" d="M471.4,145.6c0,0-1.1,3.3,1.5,3.8c2.6,0.5,2.8-3,2.8-3"/>
		<path style="clip-path:url(#SVGID_8_);fill:#FFFFFF;" d="M492,201.1c-1.8,1.9-0.6,3.7-0.6,3.7l7.5,2.6l-3.1-6.8
			C495.7,200.6,493.2,199.8,492,201.1"/>
		<path style="clip-path:url(#SVGID_8_);fill:#FFFFFF;" d="M489.9,161.2c0.6-3.3-2.2-8.6-7.1-13c-6-5.4-9.3-7-11.9-4.1
			c-2.5,2.8-3.3,9,2.6,14.4c5,4.5,10.6,6.6,13.8,5.6"/>
		<path style="clip-path:url(#SVGID_8_);fill:#FFFFFF;" d="M506.1,162.9c-0.3-2.9,2.7-7.7,6-9.5c4.1-2.2,7.2-2.9,9,0.5
			c1.8,3.3,0.8,9.2-3.3,11.4c-3.5,1.9-7.8,3.2-10.1,1"/>
		<path style="clip-path:url(#SVGID_8_);fill:#FFE100;" d="M451.4,155.3c0,0-9.5-9-13.7-3.4c-5.6,7.4,6.9,14.1,6.9,14.1"/>
		<path style="clip-path:url(#SVGID_8_);" d="M454,137.7c-1.8,0.4-3.3,2.8-3.3,5.3c0,2.6,1.6,4.4,3.4,4c1.8-0.4,3.3-2.8,3.3-5.3
			C457.4,139.2,455.8,137.4,454,137.7 M452.8,145.4c-0.6,0.2-1.2-0.5-1.3-1.5c-0.1-1,0.2-2,0.8-2.2c0.6-0.2,1.2,0.5,1.3,1.5
			C453.7,144.2,453.3,145.2,452.8,145.4 M456.9,142.3c0,0.3,0,0.6-0.3,1.6c-0.3,1-0.9,1.7-1.4,1.9c-0.5,0.2-1.2-0.1-0.8-1.1
			c0.1-0.3,0.3-0.5,0.5-0.7c0.4-0.5,0.6-1,0.7-1.7c0.1-0.3,0.2-0.6,0.4-0.9c0.1-0.1,0.2-0.2,0.4-0.2c0.1,0,0.2,0,0.3,0.1
			C456.8,141.6,456.9,142,456.9,142.3"/>
		<path style="clip-path:url(#SVGID_8_);fill:#C3D83F;" d="M443.2,191.7c0,0,25.8-2.7,37.8-6.3c17.9-5.4,29.7-12.6,29.7-12.6
			c0.6-0.3,0.9-1,0.7-1.7l-0.9-2.7c-0.3-0.9-1.3-1.2-2-0.8c0,0-10.4,6.8-29.9,12.5c-14,4.1-37.9,6.1-37.9,6.1
			c-0.7,0.4-0.9,1.2-0.6,1.9l1.3,3C441.7,191.8,442.5,192.1,443.2,191.7"/>
		<path style="clip-path:url(#SVGID_8_);" d="M450.7,143.1c0,2.6,1.6,4.4,3.4,4c1.8-0.4,3.3-2.8,3.3-5.3c-0.1-2.6-1.6-4.4-3.4-4
			C452.1,138.1,450.7,140.5,450.7,143.1"/>
		<g style="opacity:0.5;clip-path:url(#SVGID_8_);">
			<g>
				<defs>
					<rect id="SVGID_13_" x="454.3" y="141.3" width="2.6" height="4.6"/>
				</defs>
				<clipPath id="SVGID_14_">
					<use xlink:href="#SVGID_13_"  style="overflow:visible;"/>
				</clipPath>
				<path style="clip-path:url(#SVGID_14_);fill:#FFFFFF;" d="M456.4,141.3c-0.1,0-0.3,0.1-0.4,0.2c-0.2,0.2-0.3,0.6-0.4,0.9
					c-0.2,0.7-0.4,1.2-0.7,1.7c-0.2,0.2-0.4,0.4-0.5,0.7c-0.4,0.9,0.2,1.3,0.8,1.1c0.5-0.2,1.1-0.9,1.4-1.9c0.3-1,0.3-1.3,0.3-1.6
					c0-0.4,0-0.8-0.3-1C456.6,141.3,456.5,141.3,456.4,141.3"/>
			</g>
		</g>
		<path style="clip-path:url(#SVGID_8_);fill:#FFFFFF;" d="M451.5,143.9c0.1,1,0.7,1.7,1.3,1.5c0.6-0.2,0.9-1.2,0.8-2.2
			c-0.1-1-0.7-1.7-1.3-1.5C451.7,141.9,451.3,142.9,451.5,143.9"/>
		<path style="clip-path:url(#SVGID_8_);fill:#FFFFFF;" d="M453.2,139.9c0,0.6,0.4,1.1,0.9,1c0.5-0.1,0.8-0.7,0.8-1.3
			c0-0.6-0.4-1.1-0.9-1C453.5,138.6,453.2,139.2,453.2,139.9"/>
		<path style="clip-path:url(#SVGID_8_);fill:#FFFFFF;" d="M429,165.4c0,0,1.5,2.1,3.1,3.2"/>
		<path style="clip-path:url(#SVGID_8_);fill:#FFFFFF;" d="M431.1,160.5c0,0,1.5,3.8,4.9,5.4"/>
		<path style="clip-path:url(#SVGID_8_);fill:#008CD6;" d="M443.9,147.9c-0.9-1.5-1.3-4.2-0.9-7.3c0.1-0.4,0.1-0.9,0.2-1.3
			c1-5.3,3.8-8.6,5.6-8.3c0.1,0,0.1,0,0.2,0.1c0.2-0.4,0.5-0.8,0.7-1.3c-0.2-0.1-0.4-0.2-0.6-0.2c-3-0.6-6.2,3.6-7.3,9.4
			c0,0,0,0,0,0c-0.1,0.5-0.2,1-0.2,1.4c-0.4,3.5,0.1,6.6,1.3,8.3c0.3,0,0.6,0.1,0.9,0.2L443.9,147.9z"/>
		<path style="clip-path:url(#SVGID_8_);" d="M541.8,171.7c-0.3-3.7-2.7-6.7-5.9-8.1c-0.7-1.1-1.7-2.2-3.4-2.2c0,0,0,0-0.1,0h0
			c-0.3,0-0.8,0-1.7,0.1c-1.2,0.1-1.9,0.2-2,0.2c-1.5,0.3-2.5,1.5-2.5,3c-1.7,1.3-3,3.1-3.6,5.2l-5.6,0.5c-0.2-0.4-0.4-0.9-0.6-1.3
			c-0.2-0.4-0.5-0.8-0.9-1.2c1.1-0.4,2.2-0.9,3-1.4c2.1-1.1,3.7-3.2,4.4-5.7c0.8-2.7,0.6-5.5-0.6-7.6c-1.9-3.4-4.8-3.4-7.4-2.6
			c0.5-7.7-1.6-15.4-6-22c-5.3-7.8-13.3-13.1-22.5-14.9c-2.2-0.4-4.5-0.6-6.7-0.6h0h0c-1.3,0-2.6,0.1-3.8,0.2c0.2-3-0.2-6.2-1.4-9
			c-1.3-3.2-3.2-5.3-5.6-6.3c-0.4-0.1-0.8,0-0.9,0.4c-0.1,0.4,0,0.8,0.4,0.9c2,0.8,3.7,2.8,4.8,5.5c1.1,2.7,1.5,5.8,1.2,8.7
			c-2.9,0.4-5.7,1.2-8.3,2.3c-0.9-3.4-3.1-7-5.9-9.5c-2.6-2.3-5.4-3.4-8-3.2c-0.4,0-0.7,0.4-0.7,0.8c0,0.4,0.4,0.7,0.8,0.7
			c2.2-0.1,4.7,0.9,6.9,2.9c2.7,2.4,4.8,5.8,5.6,9c-6.2,2.9-11.5,7.6-15.2,13.5c-0.3,0.4-0.5,0.8-0.7,1.3c-1.8,3.2-3.2,6.8-3.9,10.6
			l-1.2,6.2l-0.2,1.1c-0.3-0.1-0.6-0.1-0.9-0.2c-0.6-0.1-1.3-0.2-1.9-0.1c-1.7,0.1-3.2,1-4.3,2.4c-1.5,2-2,4.2-1.5,6.4
			c0.7,3.1,3.3,5.7,5.5,7.5l-1.2,6.1c0,0.2-0.1,0.4-0.1,0.7l-9.2,5.4c-2.2,1.3-3.7,3.4-4.3,5.9c-0.6,2.5-0.2,5,1.1,7.2l3.4,5.5
			c1.8,2.9,4.9,4.6,8.1,4.6c1.7,0,3.4-0.4,4.9-1.4l2.8-1.6c2.7,3.2,6.1,5.9,9.9,8c0.1,0.3,0.2,0.7,0.3,1c0.9,3.1,1.9,6.6,4,9
			c1.7,2,4,3.2,6.5,3.3c0.1,0,0.3,0,0.4,0c2.1,0,4.2-0.8,5.7-2.4c1.3-1.2,1.8-3.6,2-6c0.4,0,0.8,0,1.1,0c0.9,0,1.8,0,2.7-0.1
			c1.6,3,3.4,6.3,7.3,7.5c0.9,0.3,1.9,0.4,3,0.4c1.3,0,2.7-0.3,3.9-1c1.3-0.8,2.1-2,2.4-3.5c0.4-2.1,0.1-4.2-0.4-6.2l3.5,1.2
			c0.2,0.1,0.3,0.1,0.5,0.1c0.4,0,0.8-0.2,1.1-0.5c0.4-0.4,0.5-1,0.2-1.5l-1.9-4.1c5.5-4.6,9.1-10.8,10.5-18.2l0.8-4.1
			c0.3,0,0.7,0.1,1,0.1c0.8,0,1.7-0.1,2.4-0.4c1.3-0.5,2.3-1.3,3.1-2.5l7.2-0.7c1,2,2.6,3.5,4.5,4.5c0.2,1.5,1.5,2.6,3,2.6h0
			c0.1,0,0.8,0,2-0.1c0.9-0.1,1.4-0.2,1.7-0.2c1.4-0.2,2.4-1.2,3-2.9C540.4,178.8,542.1,175.4,541.8,171.7 M430.3,190.1l-0.9-1.4
			c-0.1-0.1-0.1-0.2-0.1-0.3c-0.8-1.4-1-3.1-0.6-4.7c0.4-1.7,1.4-3.1,2.9-4l7.3-4.2c-0.1,2.4,0,4.7,0.4,7c0.1,0.7,0.2,1.3,0.4,2
			L430.3,190.1z M441.7,196.3c-3.1,1.9-7.1,0.9-8.9-2.2l-0.9-1.6l6.8-4c0,0,0,0.1,0.1,0.1l1.3,3c0,0,0,0.1,0,0.1
			c0.4,0.7,1,1.2,1.7,1.4c0.3,0.1,0.6,0.1,0.8,0.1c0.2,0,0.4,0,0.6-0.1c0.3,0.5,0.7,1.1,1,1.6L441.7,196.3z M492.5,213.2
			c-0.1,0.7-0.5,1.2-1.1,1.6c-1.3,0.7-3.2,0.7-4.6,0.2c-2.4-0.7-3.8-2.8-5.1-5.1c3.6-0.5,7-1.6,10.1-3.1
			C492.4,209.1,493,211.2,492.5,213.2 M492.4,203.7c-0.1-0.3,0-0.9,0.6-1.6v0c0.3-0.3,1.1-0.3,1.7-0.2l1.4,3.1L492.4,203.7z
			 M506.9,179.1l-1.4,7.1c0,0,0,0,0,0c0,0,0,0,0,0c0,0-0.1,0-0.1,0.1c-0.4,1.3-0.8,2.5-1.3,3.7c0,0,0.1,0,0.1,0
			c-1.1,3-3.1,5.6-5,8.1c-0.1,0-0.2,0-0.3,0.1c0,0,0,0,0,0c-0.6,0.6-1.2,1.2-1.9,1.8c-0.2-0.4-0.5-0.6-0.8-0.7
			c-0.3-0.1-3.4-1-5.2,0.9c-1.5,1.6-1.5,3.3-1.2,4.5c-3.6,1.6-7.6,2.6-11.9,2.8c-0.2,0-0.4,0-0.5,0c-0.4,0-0.8,0-1.2,0
			c-0.1,0-0.2,0-0.3,0c-0.1,0-0.3,0-0.4,0c-0.2,0-0.4,0-0.6,0c0-2.1-0.2-3.9-0.3-4.6c-0.1-0.8-0.9-1.3-1.6-1.2
			c-0.7,0.1-1.2,0.7-1.2,1.4c0,0.1,0,0.1,0,0.2c0.5,3,0.5,9.5-1,10.9c-1.1,1.1-2.5,1.6-4,1.5c-1.7-0.1-3.2-0.9-4.4-2.3
			c-1.7-2-2.6-5.1-3.4-8c-0.2-0.7-0.4-1.4-0.6-2.1l0.2,0h0c0,0,0,0-0.1,0c-0.1,0-0.1-0.1-0.2-0.1c0-0.1-0.1-0.2-0.1-0.3
			c-0.2-0.7-1-1.2-1.8-0.9c-0.1,0-0.1,0.1-0.2,0.1c-0.5-0.3-1-0.6-1.4-0.9c-0.1,0-0.1-0.1-0.2-0.1c-0.4-0.3-0.8-0.6-1.2-0.8
			c-0.1-0.1-0.1-0.1-0.2-0.2c-0.4-0.3-0.8-0.6-1.2-0.9c-0.1,0-0.1-0.1-0.2-0.1c-2.2-1.8-4.1-3.9-5.6-6.2l0,0
			c1.9-0.2,4.6-0.5,7.7-0.9c6.4-0.8,14.5-2,21.2-3.5c2.3-0.5,4.5-1,6.3-1.6c0.1,0,0.3-0.1,0.4-0.1c7.8-2.4,14.4-5.1,19.4-7.3
			c2.5-1.2,4.6-2.2,6.2-3L506.9,179.1z M480.5,184c-11.7,3.5-37.2,6.2-37.5,6.2c-0.2,0-0.3,0.1-0.4,0.2l-1.2-2.8
			c4.2-0.4,24.7-2.4,37.5-6.1c18.4-5.4,28.7-11.6,30.1-12.6l0.8,2.6C509.8,171.6,498,178.7,480.5,184 M514.4,174.2
			c-0.5,1.7-1.2,2.8-2.4,3.2c-0.6,0.2-1.3,0.3-1.9,0.2l0.6-3.1c0.4-0.2,0.7-0.4,0.7-0.4c1.2-0.7,1.8-2.1,1.4-3.4l-0.6-1.9
			c0.1,0,0.2,0,0.2,0c0.6,0.6,1.2,1.1,1.5,1.8C514.6,171.7,514.8,172.9,514.4,174.2 M508.8,165.3c-0.4-0.4-1.1-0.5-1.6-0.3
			c-0.1,0.1-0.3,0.1-0.4,0.3c-0.5,0.5-0.5,1.1-0.2,1.7c-2.8,1.6-11.2,6.2-24.6,10.5c-1.3,0.4-2.5,0.8-3.9,1.2
			c-5.2,1.5-11.7,2.7-17.9,3.7c-2.2,0.3-4.3,0.6-6.3,0.9c-4.8,0.6-9,1.1-11.3,1.3c0,0,0,0,0,0c0-0.1,0-0.2-0.1-0.3
			c-0.1-0.3-0.2-0.7-0.2-1c0,0,0,0,0,0c0,0,0,0,0,0v0c0-0.2-0.1-0.4-0.1-0.6l0,0v0c-0.1-0.4-0.1-0.8-0.2-1.1c0,0,0-0.1,0-0.1
			c-0.1-0.3-0.1-0.7-0.1-1c0-0.1,0-0.3,0-0.4c0-0.3-0.1-0.5-0.1-0.8c0-0.4,0-0.8,0-1.2c0,0,0,0,0,0v0c0-0.6,0-1.1,0-1.7c0,0,0,0,0,0
			c0-0.6,0.1-1.1,0.1-1.7c0,0-0.1-0.1-0.1-0.1l0,0c0,0,0,0,0,0l0.5-2.8v0l0.9-4.9c0.5,0.3,0.8,0.5,0.9,0.5c0.2,0.1,0.4,0.2,0.7,0.2
			c0.5,0,1-0.3,1.3-0.7c0.4-0.7,0.1-1.5-0.5-1.9c0,0-0.1,0-0.1-0.1c-0.1,0-6.5-3.5-7.5-7.9c-0.3-1.4,0-2.8,1-4.1
			c0.6-0.8,1.3-1.2,2.2-1.3c3.2-0.2,7.8,3.4,9.4,4.8c0.1,0.1,0.2,0.1,0.2,0.1c0.6,0.4,1.3,0.3,1.8-0.2c0.5-0.6,0.5-1.5,0-2
			c-0.4-0.4-3-2.8-6.1-4.3l1.5-7.8c0.1-0.8,0.3-1.5,0.5-2.2c0-0.2,0.1-0.3,0.1-0.5c0.2-0.7,0.4-1.4,0.7-2.1c0-0.1,0-0.1,0.1-0.2
			c0.2-0.6,0.5-1.3,0.8-1.9c0.1-0.1,0.1-0.3,0.2-0.4c0.3-0.7,0.6-1.3,1-1.9c0-0.1,0.1-0.2,0.1-0.2c0.3-0.6,0.7-1.1,1-1.7
			c0.1-0.1,0.1-0.2,0.2-0.4c0.4-0.6,0.8-1.2,1.3-1.8c0.1-0.1,0.1-0.2,0.2-0.2c0.4-0.5,0.8-1,1.3-1.5c0.1-0.1,0.1-0.2,0.2-0.2
			c0.5-0.5,1-1.1,1.5-1.6c0.1-0.1,0.1-0.1,0.2-0.2c0.5-0.5,1-0.9,1.5-1.4c0,0,0.1-0.1,0.1-0.1c0.6-0.5,1.2-0.9,1.8-1.4
			c0.1-0.1,0.2-0.1,0.2-0.2c1.2-0.9,2.5-1.7,3.8-2.4c0.1,0,0.2-0.1,0.2-0.1c1.3-0.7,2.7-1.3,4.2-1.8c0.1,0,0.2-0.1,0.3-0.1
			c1.4-0.5,2.9-0.9,4.4-1.2c0,0,0.1,0,0.1,0c0,0,0,0,0,0c-0.1,0.4-0.3,0.8-0.4,1.2c-0.2,0.4,0,0.8,0.4,0.9c0.1,0,0.2,0.1,0.3,0.1
			c0.3,0,0.5-0.2,0.6-0.4c0.3-0.6,0.5-1.3,0.7-2c0,0,0,0,0,0c0.1,0,0.1,0,0.2,0c0.6-0.1,1.2-0.1,1.7-0.2c0.1,0,0.2,0,0.2,0
			c0.7,0,1.3-0.1,2-0.1c0.1,0,0.1,0,0.2,0c0.2,0,0.5,0,0.7,0c0.2,0,0.4,0,0.7,0c0.3,0,0.6,0,1,0.1c0.2,0,0.4,0,0.6,0
			c0.4,0,0.7,0.1,1.1,0.1c0.2,0,0.3,0,0.5,0.1c0.5,0.1,1.1,0.2,1.6,0.3c0.5,0.1,1.1,0.2,1.6,0.3c0.2,0,0.3,0.1,0.5,0.1
			c0.3,0.1,0.7,0.2,1,0.3c0.2,0.1,0.4,0.1,0.6,0.2c0.3,0.1,0.6,0.2,0.9,0.3c0.2,0.1,0.4,0.2,0.7,0.2c0.3,0.1,0.6,0.2,0.8,0.3
			c0.2,0.1,0.4,0.2,0.7,0.3c0.3,0.1,0.5,0.2,0.8,0.3c0.2,0.1,0.4,0.2,0.7,0.3c0.2,0.1,0.5,0.2,0.7,0.4c0.2,0.1,0.4,0.2,0.7,0.4
			c0.2,0.1,0.5,0.3,0.7,0.4c0.2,0.1,0.4,0.3,0.7,0.4c0.2,0.1,0.4,0.3,0.6,0.4c0.2,0.1,0.4,0.3,0.7,0.4c0.2,0.1,0.4,0.3,0.6,0.4
			c0.2,0.2,0.4,0.3,0.7,0.5c0.2,0.1,0.4,0.3,0.5,0.4c0.2,0.2,0.4,0.4,0.7,0.5c0.2,0.1,0.3,0.3,0.5,0.4c0.2,0.2,0.4,0.4,0.7,0.6
			c0.1,0.1,0.3,0.3,0.4,0.4c0.2,0.2,0.4,0.4,0.7,0.7c0.1,0.1,0.3,0.3,0.4,0.4c0.2,0.2,0.4,0.5,0.7,0.7c0.1,0.1,0.2,0.2,0.3,0.4
			c0.2,0.3,0.5,0.5,0.7,0.8c0.1,0.1,0.2,0.2,0.2,0.3c0.2,0.3,0.5,0.6,0.7,0.9c0,0.1,0.1,0.1,0.1,0.2c3.2,4.4,5.3,9.5,6,14.9
			c0,0,0,0,0,0c0.1,0.5,0.1,1,0.2,1.5c0,0,0,0,0,0c0,0.5,0.1,1,0.1,1.5c0,0,0,0,0,0c0,0.5,0,1,0,1.5v0c0,0.5,0,1-0.1,1.5
			c0,0,0,0,0,0c0,0.5-0.1,1-0.1,1.5c-0.2,0.1-0.4,0.2-0.6,0.3c-3.9,2.1-7.1,7.4-6.7,10.9c0.1,0.8,0.8,1.3,1.6,1.2
			c0.2,0,0.3-0.1,0.5-0.1c0.5-0.3,0.9-0.8,0.8-1.4c-0.3-2.2,2.2-6.5,5.2-8.1c5.1-2.8,6.3-1.6,7.1-0.1c0.8,1.4,0.9,3.5,0.4,5.5
			c-0.5,1.8-1.6,3.2-3.1,4C514.2,165.7,510.4,166.9,508.8,165.3 M517.3,174.4c0.1-0.3,0.1-0.7,0.1-1l7.4-0.7c0,0.1,0,0.3,0.1,0.5
			c0,0.2,0,0.4,0,0.5L517.3,174.4z M528.7,178.5c-0.9-0.5-1.7-1.2-2.3-2.1c0.9-0.4,1.6-1.4,1.4-3.5h0c-0.2-2.1-1.1-2.9-2-3.2
			c0.4-0.9,1-1.8,1.8-2.4c0.3,0.9,0.8,2.8,1.1,5.5C529,175.6,528.9,177.5,528.7,178.5 M534,180.7c0,0-0.1,0-0.2,0
			c-0.2,0-0.6,0.1-1.3,0.2c-1.1,0.1-1.7,0.1-1.7,0.1c0.9-0.1,1.4-3.8,1-8.3c0-0.3-0.1-0.6-0.1-0.8c0-0.1,0-0.2,0-0.3
			c0-0.2,0-0.3-0.1-0.5c0-0.1,0-0.2,0-0.3c0-0.2,0-0.3-0.1-0.5c0-0.1,0-0.2,0-0.3c0-0.2-0.1-0.3-0.1-0.5c0-0.1,0-0.2-0.1-0.3
			c0-0.1-0.1-0.3-0.1-0.4c0-0.1,0-0.2-0.1-0.3c0-0.1-0.1-0.3-0.1-0.4c0-0.1,0-0.2-0.1-0.3c0-0.1-0.1-0.2-0.1-0.3
			c0-0.1,0-0.2-0.1-0.3c0-0.1-0.1-0.2-0.1-0.3c0-0.1-0.1-0.2-0.1-0.2c0-0.1-0.1-0.2-0.1-0.3c0-0.1-0.1-0.1-0.1-0.2
			c0-0.1-0.1-0.2-0.1-0.2c0-0.1-0.1-0.1-0.1-0.2c0-0.1-0.1-0.1-0.1-0.2c0-0.1-0.1-0.1-0.1-0.2c0-0.1-0.1-0.1-0.1-0.2
			c0,0-0.1-0.1-0.1-0.1c0,0-0.1-0.1-0.1-0.1c0,0-0.1-0.1-0.1-0.1c0,0-0.1-0.1-0.1-0.1c0,0-0.1,0-0.1-0.1c0,0-0.1,0-0.1-0.1
			c0,0-0.1,0-0.1,0c0,0-0.1,0-0.1,0c0,0,0,0,0,0c0,0,0.6-0.1,1.7-0.2c0.2,0,0.4,0,0.5,0c0,0,0.1,0,0.1,0c0.1,0,0.3,0,0.4,0
			c0,0,0,0,0,0c0.1,0,0.2,0,0.2,0c0,0,0,0,0,0c0.1,0,0.1,0,0.1,0h0h0c0,0,0.1,0,0.1,0c0,0,0,0,0,0c0,0,0.1,0,0.1,0c0,0,0.1,0,0.1,0
			c0,0,0.1,0,0.1,0.1c0,0,0.1,0,0.1,0.1c0,0,0.1,0.1,0.1,0.1c0,0,0.1,0.1,0.1,0.1c0,0,0.1,0.1,0.1,0.1c0,0,0.1,0.1,0.1,0.1
			c0,0.1,0.1,0.1,0.1,0.2c0,0.1,0.1,0.1,0.1,0.2c0,0.1,0.1,0.1,0.1,0.2c0,0.1,0.1,0.1,0.1,0.2c0,0.1,0.1,0.2,0.1,0.2
			c0,0.1,0.1,0.1,0.1,0.2c0,0.1,0.1,0.2,0.1,0.3c0,0.1,0.1,0.2,0.1,0.3c0,0.1,0.1,0.2,0.1,0.3c0,0.1,0.1,0.2,0.1,0.3
			c0,0.1,0.1,0.2,0.1,0.3c0,0.1,0.1,0.2,0.1,0.3c0,0.1,0.1,0.2,0.1,0.3c0,0.1,0,0.2,0.1,0.3c0,0.1,0,0.2,0.1,0.4
			c0,0.1,0,0.2,0.1,0.3c0,0.1,0,0.3,0.1,0.4c0,0.1,0,0.2,0.1,0.4c0,0.1,0,0.3,0.1,0.4c0,0.1,0,0.2,0.1,0.3c0,0.2,0,0.3,0.1,0.5
			c0,0.1,0,0.2,0,0.3c0,0.3,0.1,0.5,0.1,0.8C535.3,176.8,534.9,180.6,534,180.7 M538.1,175.6c0-1.1-0.1-2.3-0.2-3.6
			c-0.1-1.3-0.3-2.5-0.5-3.7c0.8,1,1.3,2.2,1.4,3.5C538.9,173.3,538.6,174.5,538.1,175.6"/>
		<path style="clip-path:url(#SVGID_8_);" d="M457,129.7c-0.3-0.1-0.7,0.3-0.9,0.7c-0.2,0.5-0.1,0.9,0.2,1c-0.1,0,0.1,0.1,0.1,0.1
			c0.1,0,0.1,0.1,0.2,0.1c0.1,0.1,0.3,0.2,0.4,0.3c0.6,0.5,1.5-1.1,1-1.6C457.6,130.1,457.3,129.9,457,129.7"/>
		<path style="clip-path:url(#SVGID_8_);" d="M483.7,147.2c-4.9-4.4-10-8.3-13.9-4c-1.6,1.8-2.4,4.3-2.3,6.9c0.1,2.4,1.1,6,5,9.5
			c4.4,3.9,9.3,6.2,13,6.2c0.8,0,1.5-0.1,2.2-0.3c0.7-0.2,1.2-1,0.9-1.8c-0.1-0.3-0.2-0.5-0.4-0.6c-0.4-0.3-0.9-0.4-1.4-0.3
			c-2.4,0.8-7.4-0.8-12.5-5.3c-3.2-2.9-4-5.7-4.1-7.5c-0.1-1.9,0.5-3.7,1.5-4.9c1.2-1.4,2.9-2,9.9,4.2c4.9,4.4,7.1,9.2,6.6,11.7
			c-0.1,0.5,0.1,1,0.5,1.3c0.2,0.2,0.4,0.3,0.7,0.3c0.8,0.1,1.5-0.4,1.6-1.2C491.9,157.5,488.9,151.8,483.7,147.2"/>
		<path style="clip-path:url(#SVGID_8_);" d="M431.3,169.7c0.3,0.2,0.5,0.3,0.8,0.3c0.4,0,0.9-0.2,1.2-0.6c0.5-0.6,0.3-1.5-0.3-2
			c-1.3-1-2.8-2.9-2.8-2.9c-0.5-0.6-1.4-0.8-2-0.3c-0.6,0.5-0.8,1.4-0.3,2C427.9,166.3,429.6,168.5,431.3,169.7"/>
		<path style="clip-path:url(#SVGID_8_);" d="M435.4,167.2c0.2,0.1,0.4,0.1,0.6,0.1c0.5,0,1.1-0.3,1.3-0.8c0.3-0.7,0-1.6-0.7-1.9
			c-2.9-1.3-4.2-4.6-4.2-4.6c-0.3-0.7-1.1-1.1-1.8-0.8c-0.7,0.3-1.1,1.1-0.8,1.8C429.8,161.2,431.5,165.4,435.4,167.2"/>
		<polygon style="clip-path:url(#SVGID_8_);fill:#FFFFFF;" points="387.5,161.2 385,157 413.2,139.3 415.6,143.5 		"/>
		<path style="clip-path:url(#SVGID_8_);fill:#FFFFFF;" d="M413.6,153.8c-8.8-2.5-14-11.8-11.6-20.8c2.4-9,11.4-14.3,20.1-11.9
			c8.8,2.5,14,11.8,11.6,20.8C431.4,151,422.4,156.3,413.6,153.8"/>
		<path style="clip-path:url(#SVGID_8_);fill:#EEB557;" d="M406.1,136.1c0,0,0.6-2.4,3-4.1c2.5-1.7,4.4-2.4,4.4-2.4
			s-2.9,5.5-1.5,9.6c0,0,0.2,2.9-0.9,2.2C409.9,140.8,407.6,139.4,406.1,136.1"/>
		<path style="clip-path:url(#SVGID_8_);fill:#F6DD67;" d="M412.5,140.9c0,0-1.1-4.3,2.1-10.1c0,0,5-0.8,6.5,2
			c-4.5,3.1-7.4,6.6-7.4,10.1C413.3,142.4,412.7,141.4,412.5,140.9"/>
		<path style="clip-path:url(#SVGID_8_);fill:#D94768;" d="M415.5,145c0,0-5,3.5-9.4,1.2c0,0-2.5-2.3-0.6-8.6c0,0,3.8,5,7,5.3
			C412.5,142.9,413.8,144.3,415.5,145"/>
		<path style="clip-path:url(#SVGID_8_);fill:#A3C97F;" d="M414.4,143.3c0,0,0.2-1.9,2.9-5.1c3.2-3.7,4.9-3.8,4.9-3.8s3.2,7.7-3,9.8
			C414.5,145.8,414.4,143.3,414.4,143.3"/>
		<path style="clip-path:url(#SVGID_8_);fill:#F6DD67;" d="M423.2,139.8c0,0.2,0,0.3,0.1,0.5c0.1,1.6-1.1,2.7-1.9,3.9
			c1.4,0.8,3.2,2.4,4,4c0.8,1.6,1.3,3.3,0.2,4.8c2-1.2,3.8-2.3,5.1-4.2C429.4,144.9,428.9,142.5,423.2,139.8"/>
		<path style="clip-path:url(#SVGID_8_);fill:#EEB557;" d="M422,132.2c0.9,1.4,1.7,5,1.6,6.8c1.8,0.2,3.2,1,4.8,2.1
			c2.4,1.7,3.2,4,3.2,6.4c1-1.5,1.8-3.3,2.3-5.2c0.1-0.5,0-2.8,0.1-3.2c-0.7-1.1-1.6-2.2-2.5-3.1C428.9,133.1,425.5,132.4,422,132.2
			"/>
		<path style="clip-path:url(#SVGID_8_);fill:#D94768;" d="M411.9,130.6c0.8,0,3.9-1,7.7,0.4c10.6-2.1,13.7,4.3,13.9,4.4
			c-0.5-3-0.1-6.8-4.4-10.8C424,123.3,418.9,123.9,411.9,130.6"/>
		<path style="clip-path:url(#SVGID_8_);fill:#93639F;" d="M405.8,135.1c1.7-2.1,3.8-4.2,5.6-4.9c0.8-1.5,1.6-3.4,6.1-5.9
			c2.1-1.2,4.9-1.9,7.3-1.7c-2.1-1.8-11.1-2.2-12.6-1.1C408.5,124.6,406.6,129.3,405.8,135.1"/>
		<path style="clip-path:url(#SVGID_8_);fill:#60ADD9;" d="M404.6,139.3c0.2,0,0.1-1.2,0.7-2.1c-1.3-4.1,1.8-11.6,2.5-13.3
			c-1.3,1.7-5.4,6.8-6,9.1c-0.2,0.6-0.3,1.2-0.4,1.7C402.2,136.4,403.2,138,404.6,139.3"/>
		<path style="clip-path:url(#SVGID_8_);fill:#93639F;" d="M418.1,145c-0.9,0.2-1.8,0.3-2.3,0c-1.8,3-5.8,3.6-9.3,2.6
			c1.2,1.4,4.3,4.1,6,4.9C415.2,150.7,417.4,148.1,418.1,145"/>
		<path style="clip-path:url(#SVGID_8_);fill:#A3C97F;" d="M404.8,140.4c-0.1-0.1-2-1.3-3.7-2.8c0.2,1.7,1.8,6.5,2.4,8
			c0.9,0,1.3-0.4,2.2-0.5C405.4,143.7,404.7,141.9,404.8,140.4"/>
		<path style="clip-path:url(#SVGID_8_);fill:#60ADD9;" d="M419.4,144.8c0,0,2.5,0.7,4.1,3.7c1.6,3,0.1,4.8,0.1,4.8
			s-5.5,2.4-9.8,0.3c0,0,6-4,5-8.5C418.8,145,418.6,145.2,419.4,144.8"/>
		<path style="clip-path:url(#SVGID_8_);fill:#FFFFFF;" d="M380.8,151.5c0,0,5.9-9.3,14.6-3c8.7,6.3,2,20.8-6.9,24.1
			c-8.9,3.2-13.8,2.5-20.2,0.6c-1.9-0.6-6.8-5.8-6.8-5.8"/>
		<path style="clip-path:url(#SVGID_8_);fill:#FFFFFF;" d="M310.3,169.5c0,0-10,28.9-24.9,18.3c-8.9-6.4-0.7-19.9,5-27
			c7.2-9,15.5-17.2,24.9-24c6.9-4.9,37.3-13.4,66,16.8c2.1,2.2,4.4,5.7,4.4,5.7"/>
		<path style="clip-path:url(#SVGID_8_);fill:#FFFFFF;" d="M305.4,164.6c-0.8,4-1.3,8.6-1.3,13.4c0,15.4,13.8,31.9,15,33.4
			c5.1,6.6,18,3.5,18,0v-11.4h3.7v11.8c0,4.7,13.7,5.6,18.4-0.4c1.3-1.7,14.8-18,14.8-33.4c0-4.9-0.6-9.4-1.4-13.3"/>
		<path style="clip-path:url(#SVGID_8_);fill:#B28247;" d="M363.9,205.2l-4.5,6.4c0,0-3.2,4-11,4c-7.1,0-7.6-3.8-7.6-3.8v-6.6H363.9
			z"/>
		<path style="clip-path:url(#SVGID_8_);fill:#B28247;" d="M313.9,205.2l4.5,6.4c0,0,3.2,4,11,4c7.1,0,7.6-3.8,7.6-3.8v-6.6H313.9z"
			/>
		<path style="clip-path:url(#SVGID_8_);fill:#FFFFFF;" d="M347.4,197.6c-2,0.6-4.9,1.3-8.4,1.3c-2.8,0-5.2-0.4-7.1-0.9"/>
		<path style="clip-path:url(#SVGID_8_);fill:#B28247;" d="M342,196.1c5.8,3,20.3,23.8,26,21.6c5.7-2.3-1.4-7.7-1.4-7.7
			s2.5,2.3,5.3-1.3c2.7-3.5-9.2-8.7-9.2-8.7s5.9,2.6,5.2-1.3c-0.6-3.5-13.2-9.5-24.9-7"/>
		
			<rect x="328.8" y="151.2" transform="matrix(0.9483 -0.3173 0.3173 0.9483 -31.4225 113.186)" style="clip-path:url(#SVGID_8_);fill:#FFFFFF;" width="6" height="3.7"/>
		<path style="clip-path:url(#SVGID_8_);fill:#37484B;" d="M317,182c0,0-4.4-2.3-12.2-10.4c0,0-3.4,3.9-1.2,6.2
			c7.9,7.9,12.2,10.4,12.2,10.4"/>
		<path style="clip-path:url(#SVGID_8_);fill:#FDD000;" d="M327.7,162.7c0,0-5.3-12.4-9.8-21.7c0,0-6.2-1.8-13.5,6.2
			c0,0,2.2,4.2,9.9,22.5L327.7,162.7z"/>
		<path style="clip-path:url(#SVGID_8_);fill:#FDD000;" d="M350.2,162.7c0,0,5.3-12.4,9.8-21.7c0,0,6.2-1.8,13.5,6.2
			c0,0-2.2,4.2-9.9,22.5L350.2,162.7z"/>
		<path style="clip-path:url(#SVGID_8_);fill:#37484B;" d="M361,182c0,0,4.4-2.3,12.2-10.4c0,0,3.4,3.9,1.2,6.2
			c-7.9,7.9-12.2,10.4-12.2,10.4"/>
		<path style="clip-path:url(#SVGID_8_);fill:#FDD000;" d="M314.2,173.2c0-12.6,11.1-22.9,24.8-22.9c13.7,0,24.8,10.2,24.8,22.9v8.4
			h-49.6V173.2z"/>
		<path style="clip-path:url(#SVGID_8_);fill:#CF7B0E;" d="M314.8,188.2c0.4,1.5,0.9,3,1.6,4.4h45.4c0.7-1.4,1.2-2.9,1.6-4.4H314.8z
			"/>
		<path style="clip-path:url(#SVGID_8_);fill:#F6AB00;" d="M339,206.3c10.1,0,18.9-5.6,22.7-13.7h-45.4
			C320.2,200.6,328.9,206.3,339,206.3"/>
		<path style="clip-path:url(#SVGID_8_);fill:#F6AB00;" d="M363.8,183.4c0-12.6-11.1-22.9-24.8-22.9c-13.7,0-24.8,10.2-24.8,22.9
			c0,1.6,0.2,3.3,0.6,4.8h48.5C363.6,186.6,363.8,185,363.8,183.4"/>
		<rect x="325.6" y="192.6" style="clip-path:url(#SVGID_8_);fill:#FFFFFF;" width="4.9" height="5"/>
		<path style="clip-path:url(#SVGID_8_);fill:#CF7B0E;" d="M346.9,175.5c0,4.4-3.5,7.9-7.9,7.9c-4.4,0-7.9-3.5-7.9-7.9
			c0-4.4,3.5-7.9,7.9-7.9C343.4,167.6,346.9,171.1,346.9,175.5"/>
		<line style="clip-path:url(#SVGID_8_);fill:#37484B;" x1="336.9" y1="173.4" x2="336.9" y2="177.6"/>
		<line style="clip-path:url(#SVGID_8_);fill:#37484B;" x1="341.2" y1="173.4" x2="341.1" y2="177.6"/>
		<path style="clip-path:url(#SVGID_8_);fill:#FFFFFF;" d="M295.6,104.7c2.1-10.1,6.9-18.8,13.3-25c2.4-3.3,6.8-6.1,12.4-8.1
			c1.6-0.6,3.1-1,4.8-1.3c4-0.9,8.3-1.4,12.9-1.4c4.3,0,8.4,0.4,12.2,1.2c2.5,0.4,4.9,1.1,7.3,2.2c4.4,1.8,8,4.1,10.2,6.8
			c6.6,6.2,11.7,15.1,13.9,25.6c7.9,38.2-9.2,45.2-24.1,47.8c-15.8,2.8-32.9,3.3-48-2.9c-9.4-3.8-15-11.4-16.4-21.4
			C292.9,120.4,294,112.4,295.6,104.7"/>
		<path style="clip-path:url(#SVGID_8_);fill:#B28247;" d="M380.9,98.6c-7.6-25.1-26.8-27.7-26.8-27.7c-2.1-0.4-4.7-0.4-6.7,0.5
			c-3.9,1.7-6.3,5.7-7.2,9.8c-1.2,5.1,0.5,9.9,2.5,14.5c1.7,3.8,3.8,7.4,7.4,9.5c9,5.2,24.2,4.7,30-5.2
			C380.4,99.5,380.7,99,380.9,98.6"/>
		<path style="clip-path:url(#SVGID_8_);fill:#B28247;" d="M320.8,76.8c-2.9-4.1-7.9-6.7-12.8-7.3c-3.9-0.4-4.8,1-5.9,1.6
			c-1.2,0.6-6.7,6.1-7.7,9.3c-0.3,0.8-0.2,1.7,0.4,2.4c1.2,1.5,2.9,0.7,4.4,0.6c1.4-0.1,2.9,0.5,4.1,1.2c1.6,0.9,3,2.2,4.1,3.6"/>
		<path style="clip-path:url(#SVGID_8_);fill:#B28247;" d="M357.1,76.8c2.9-4.1,7.9-6.7,12.8-7.3c3.9-0.4,4.8,1,5.9,1.6
			c1.2,0.6,6.7,6.1,7.7,9.3c0.3,0.8,0.2,1.7-0.4,2.4c-1.2,1.5-2.9,0.7-4.4,0.6c-1.4-0.1-2.9,0.5-4.1,1.2c-1.6,0.9-3,2.2-4.1,3.6"/>
		<path style="clip-path:url(#SVGID_8_);" d="M425.8,121c-1.1-0.6-2.2-1-3.5-1.4c-4.6-1.3-9.3-0.7-13.5,1.7
			c-4.2,2.4-7.3,6.4-8.5,11.3c-1.1,4.3-0.7,8.7,1,12.4l-4.5,2.9c-0.2-0.2-0.4-0.3-0.6-0.5c-2.9-2.1-5.8-2.8-8.7-2.3
			c-4,0.8-6.6,3.8-7.6,5.1c-0.8-0.8-1.6-1.6-2.4-2.3c1.7-1.4,3.3-3.1,4.6-5.1c5.8-8.6,6.9-21.2,3.3-38.7c-1.4-7-4.2-13.5-8-19.1
			c0.4-0.1,0.9-0.2,1.3-0.1c0.3,0,0.6,0.1,1,0.1c1.3,0.2,3.3,0.5,4.7-1.3c0.8-1,1-2.5,0.6-3.8c-1.1-3.6-6.9-9.3-8.4-10.2
			c-0.2-0.1-0.3-0.2-0.5-0.3c-1-0.7-2.6-1.8-6.3-1.4c-2.8,0.3-5.5,1.2-7.9,2.6c-0.8-0.4-1.5-0.7-2.3-1c-2.6-1.1-5.3-1.9-7.9-2.3
			c-4.1-0.9-8.3-1.3-12.7-1.3c-4.7,0-9.3,0.5-13.6,1.5c-1.7,0.3-3.5,0.8-5.1,1.5c-1.5,0.5-2.9,1.1-4.3,1.7c-2.4-1.3-5.1-2.2-7.9-2.5
			c-3.7-0.4-5.3,0.7-6.3,1.4c-0.2,0.1-0.3,0.2-0.5,0.3c-1.5,0.8-7.3,6.5-8.4,10.2c-0.4,1.3-0.2,2.8,0.6,3.8c1.4,1.8,3.4,1.5,4.7,1.3
			c0.3-0.1,0.6-0.1,1-0.1c0.4,0,0.9,0.1,1.4,0.2c-3.8,5.6-6.5,12.1-7.9,19c-1.4,6.7-2.8,15.6-1.6,24.6c1,7.6,4.4,13.9,9.6,18.5
			c-4,3.9-7.8,8.1-11.4,12.6c-3.9,4.9-10.3,14.2-9.2,22c0.4,3,1.9,5.4,4.4,7.2c2.5,1.8,5,2.6,7.4,2.6c1.1,0,2.2-0.2,3.4-0.5
			c3.1-1,5.9-3.3,8.2-6.1c1.6,7.2,5.3,14.2,9,19.7c-0.1,0.4-0.1,0.9,0.2,1.3l4.6,6.5c0.1,0.2,3.7,4.6,12.2,4.6c7.1,0,8.7-3.5,9-4.7
			c0.1-0.3,0.2-0.6,0.2-1v-3.7c0.2,0,0.3,0,0.5,0c0.1,0,0.2,0,0.2,0v4.1c0,2,1.5,3.7,4.1,4.6c0.5,0.2,1.1,0.3,1.7,0.4
			c0.2,0,0.4,0.1,0.6,0.1c0.2,0,0.5,0.1,0.8,0.1c0.2,0,0.3,0,0.5,0.1c0.5,0,1,0.1,1.5,0.1c0.4,0,0.9,0,1.3-0.1c0.1,0,0.1,0,0.2,0
			c0.2,0,0.4,0,0.6-0.1c3.7-0.4,6.3-1.6,7.9-2.7c3.4,3.2,6.3,5.1,8.6,5.1c0.5,0,1-0.1,1.5-0.3c2.3-0.9,3-2.3,3.1-3.4
			c0.2-1.4-0.4-2.7-1.2-3.8c0.9-0.4,1.8-1.1,2.6-2.2c0.7-0.9,0.9-1.9,0.6-2.9c-0.5-1.9-2.7-3.8-5-5.2c0.5-0.5,1-1.4,0.7-3
			c0,0,0,0,0,0c3.1-5.9,5.8-12.9,6-19.7c0,0,0,0,0,0c0.8-0.8,1.1-1.7,1.2-2.6c0.4,0,0.7,0,1.1,0c3.3,0,6.8-0.7,11.3-2.3
			c5.8-2.1,10.9-8.7,11.8-15.2c0.2-1.5,0.2-2.9,0-4.2l5.3-3.3c1.1,1,2.4,1.9,3.7,2.6c1.1,0.6,2.2,1,3.5,1.4c1.6,0.4,3.2,0.7,4.8,0.7
			c3,0,6-0.8,8.7-2.3c4.2-2.4,7.3-6.4,8.5-11.3C437.4,133.7,433.3,124.8,425.8,121 M397.8,158.4c-0.8,5.5-5.1,11.1-9.8,12.8
			c-5.1,1.8-8.7,2.3-12,2.1c-0.3-0.6-0.6-1.1-0.9-1.6c-0.2-2.4-0.6-4.9-1.1-7.3c-0.2-0.8-1-1.3-1.8-1.2c-0.8,0.2-1.3,1-1.2,1.8
			c0.4,1.9,0.7,3.9,0.9,5.8c-2.6,2.7-4.9,4.8-6.7,6.3c0-0.3,0-0.6-0.1-0.8v-3c0-1.1-0.1-2.2-0.2-3.2c4.3-10.4,6.9-16.2,8.3-19.3
			c0.6-0.3,1.2-0.7,1.7-1.1c1.7,1.5,3.4,3.2,5.1,4.9c2,2.1,4.2,5.5,4.2,5.5c0.5,0.7,1.4,0.9,2.1,0.4c0.7-0.5,0.9-1.4,0.4-2.1
			c-0.1-0.1-2.4-3.6-4.6-5.9c-0.1-0.1-0.2-0.2-0.3-0.3c0.3-0.4,2.5-3.6,6-4.3c2.1-0.4,4.2,0.2,6.4,1.8
			C397.9,152.2,398.2,155.8,397.8,158.4 M370.7,207.9c-0.4,0.6-1.1,1.3-1.9,1.4c-0.5,0.1-0.9-0.2-1.1-0.3c-0.1,0-0.1-0.1-0.1-0.1
			c-0.6-0.5-1.6-0.4-2.1,0.2c-0.5,0.6-0.4,1.5,0.2,2.1c0,0,0.1,0.1,0.2,0.2c1.3,1.1,3,3,2.9,4c-0.1,0.5-0.8,0.8-1.3,1
			c-2.5,1-10.2-7.2-14.8-12.1c0,0,0,0,0,0c3.7-2.1,6.8-5.1,9-8.6c1,0.5,1.9,1,2.7,1.5c1.6,1,2.1,1.8,2.1,2.1c0,0.1,0,0.2,0,0.3
			c-0.5,0.1-2-0.2-3.2-0.7c-0.8-0.3-1.6,0-2,0.8c-0.3,0.8,0,1.6,0.8,2l0,0c3.2,1.4,8.2,4.3,8.7,6
			C370.8,207.7,370.8,207.8,370.7,207.9 M294.4,188.2c-2.7,0.9-5.4,0.3-8.2-1.7c-1.9-1.3-2.9-3-3.2-5.2c-1-6.9,5.7-16,8.5-19.7
			c3.6-4.6,7.5-8.8,11.5-12.7c0.3,0.2,0.7,0.5,1.1,0.7c1.3,2.7,4,8.7,8.9,20.4c0,0,0,0.1,0.1,0.1c-0.1,1-0.2,2-0.2,3v3
			c0,0.3,0,0.6-0.1,0.8c-1.8-1.5-4.1-3.6-6.7-6.4c0.2-2,0.5-4,0.9-5.8c0.2-0.8-0.3-1.6-1.2-1.8c-0.8-0.2-1.6,0.3-1.8,1.2
			c-0.5,2.3-0.9,4.9-1.1,7.5c-1.3,2-2.3,5-0.3,7.1c0,0,0,0,0,0c0,0.7,0.1,1.3,0.1,2C300.5,184.2,297.7,187.2,294.4,188.2 M333,157.4
			c1.5,0.1,3,0.1,4.5,0.1c2.3,0,4.6-0.1,7-0.2c6.9,1.5,12.6,5.9,15.6,11.6c-4.8-6-12.4-9.9-21.1-9.9c-8.6,0-16.3,3.9-21.1,9.9
			C320.9,163.3,326.4,159,333,157.4 M351.5,156.6c0.6-0.1,1.3-0.2,1.9-0.2c2.3,1.7,4.3,3.8,5.8,6.1
			C357.1,160.1,354.5,158.1,351.5,156.6 M373.3,176.8c-3.4,3.4-6.1,5.8-8.1,7.4c0-0.3,0-0.5,0-0.8c0-0.5,0-0.9,0-1.4
			c0-0.1,0-0.2,0-0.3v-0.7c1.9-1.5,4.5-3.7,7.7-6.9C373.5,175,373.9,176.1,373.3,176.8 M342.3,211.6v-4.1c1.5-0.2,2.9-0.5,4.3-0.8
			h4.3c1.9,2,3.7,3.9,5.3,5.5c-1.6,0.9-4.1,1.9-7.8,1.9C343.2,214.1,342.4,212,342.3,211.6 M319.6,210.7l-2.8-4h14.7
			c1.3,0.4,2.6,0.6,4,0.8v4.1c-0.1,0.4-1,2.5-6.1,2.5C322.5,214.1,319.7,210.8,319.6,210.7 M362.4,183.4c0,1.7-0.2,3.3-0.6,4.8
			c-0.3,1-0.6,2-1,2.9h-30.3h-4.9h-8.4c-0.4-0.9-0.7-1.9-1-2.9c-0.4-1.5-0.6-3.2-0.6-4.8c0-11.8,10.5-21.5,23.4-21.5
			C351.9,161.9,362.4,171.5,362.4,183.4 M329,196.1h-1.9v-2h1.9V196.1z M312.8,184.1c-2-1.6-4.7-4-8.1-7.4c-0.6-0.6-0.2-1.8,0.3-2.7
			c3.3,3.3,5.9,5.5,7.7,6.9v0.7c0,0.1,0,0.2,0,0.3c0,0.5,0,0.9,0,1.4C312.8,183.6,312.8,183.9,312.8,184.1 M313.4,188.3
			c0.3,1.5,0.8,3,1.5,4.5c0,0.4,0.2,0.7,0.4,0.9c2.1,4.1,5.3,7.5,9.3,10h-9.3c-5.1-7.7-8.3-15.1-9.3-21.5
			C309.3,185.3,311.8,187.2,313.4,188.3 M366,194.5c-0.8-0.6-1.8-1.1-2.8-1.6c0-0.1,0-0.1,0-0.2c0.6-1.4,1.1-2.9,1.5-4.5
			c1.5-1.1,4-3,7.4-6.2c-0.7,4.7-2.5,9.3-4.6,13.6C367.1,195.3,366.6,194.9,366,194.5 M363.9,165.4c-1.4-3.7-3.7-7-6.6-9.7
			c0.6-0.1,1.1-0.2,1.7-0.3c3.3-0.6,6.9-1.4,10.5-2.8C368.1,155.5,366.3,159.6,363.9,165.4 M318.8,162.5c1.5-2.3,3.4-4.3,5.6-6
			c0.6,0.1,1.2,0.2,1.8,0.3C323.4,158.3,320.8,160.2,318.8,162.5 M314.1,165.7c-2.7-6.4-4.6-10.8-5.9-13.7c0.3,0.2,0.7,0.3,1,0.5
			c3.6,1.5,7.4,2.6,11.5,3.4C317.7,158.6,315.5,161.9,314.1,165.7 M318.8,194.1h5.4v3.5c0,0.8,0.7,1.5,1.5,1.5h4.9
			c0.8,0,1.5-0.7,1.5-1.5v-3.5h27.2c-4,6.4-11.6,10.7-20.2,10.7C330.4,204.8,322.8,200.5,318.8,194.1 M403.9,149.1l-4.1,2.6
			c-0.3-0.5-0.6-1.1-0.9-1.6l3.9-2.5C403.2,148.1,403.5,148.6,403.9,149.1 M413.2,152c-1.9-0.8-3.4-2.2-4.6-4
			c-0.3-0.4-0.5-0.8-0.7-1.2c-1.2-2.3-1.7-5.1-1.3-7.9c0.1-0.4,0.1-0.8,0.2-1.1c0-0.1,0.1-0.2,0.1-0.2c0.6-2.2,2-3.9,3.9-5
			c0.6-0.3,1.1-0.6,1.8-0.7c0.6-0.2,1.1-0.3,1.7-0.3c0.9-0.1,1.9,0,2.8,0.3c1.2,0.3,2.2,1,3,1.9c0.3,0.4,0.6,0.8,0.9,1.2
			c0.8,1.5,1.1,3.3,0.6,5.1c-0.3,1.3-1.2,2.4-2.3,3.1c-1.1,0.6-2.4,0.8-3.6,0.4c-0.5-0.1-0.9-0.4-1.3-0.6c-0.3-0.2-0.5-0.4-0.7-0.7
			c-0.7-0.9-0.9-2.1-0.6-3.2c0.2-0.7-0.1-1.4-0.8-1.7c-0.1-0.1-0.2-0.1-0.3-0.1c-0.2,0-0.4-0.1-0.5,0c-0.6,0.1-1.1,0.5-1.3,1.1
			c-0.3,1-0.3,1.9-0.1,2.9c0.1,0.4,0.2,0.9,0.4,1.3c0.6,1.6,1.8,2.9,3.3,3.6c0.3,0.1,0.6,0.3,0.9,0.4c0.1,0,0.1,0,0.2,0.1
			c0.9,0.3,1.8,0.3,2.7,0.3c0.5,0,0.9-0.1,1.3-0.2c0.6-0.2,1.3-0.4,1.9-0.8c0,0,0.1-0.1,0.1-0.1c0.4-0.2,0.8-0.5,1.1-0.8
			c1.2-1,2.1-2.4,2.5-4c0-0.1,0-0.1,0-0.2c0.1-0.4,0.2-0.9,0.2-1.3c0.2-2.5-0.5-5-2-6.9c-0.4-0.6-0.9-1.1-1.4-1.5
			c-1-0.8-2.2-1.5-3.5-1.8c-1.2-0.3-2.4-0.5-3.6-0.4c-0.7,0-1.3,0.1-2,0.3c-1,0.2-2,0.6-2.9,1.2c-1.2,0.7-2.2,1.6-3.1,2.6
			c-0.5,0.6-0.9,1.2-1.3,1.9c-0.4,0.8-0.8,1.7-1,2.6c-0.1,0.4-0.2,0.8-0.3,1.2c-0.1,0.4-0.1,0.8-0.2,1.2c-0.1,0.8-0.1,1.6,0,2.4
			c-0.3-0.9-0.5-1.9-0.6-2.9c0,0,0,0,0,0c0,0,0.1,0.1,0.1,0.1c-0.1-0.6-0.1-1.2-0.1-1.8c0-0.1-0.1-0.1-0.1-0.2
			c0-1.3,0.2-2.6,0.5-3.8c0.6-2.4,1.7-4.5,3.3-6.2c0,0.1-0.1,0.3-0.1,0.4c0.9-1.1,1.8-2,3-2.8c0.1-0.1,0.1-0.2,0.2-0.3c0,0,0,0,0,0
			c0.3-0.2,0.5-0.4,0.8-0.5c2.2-1.3,4.7-1.9,7.2-1.9c1.3,0,2.7,0.2,4,0.6c0.2,0.1,0.5,0.2,0.7,0.2c0,0,0,0,0,0c0,0,0,0,0,0
			c0.8,0.3,1.5,0.6,2.3,0.9c0.2,0.1,0.5,0.3,0.7,0.4c3.6,2.1,6.1,5.7,7.1,9.7c0.3,1.1,0.4,2.2,0.4,3.4c0,1.4-0.1,2.9-0.5,4.3
			c-0.3,1-0.6,2-1.1,3c-0.3,0.7-0.8,1.4-1.2,2c-1,1.5-2.3,2.7-3.8,3.8c-0.3,0.2-0.7,0.5-1.1,0.7c-0.2,0.1-0.5,0.3-0.8,0.4
			c-2.8,1.4-6,1.9-9.1,1.3c-0.3-0.1-0.6-0.1-0.9-0.2C413.8,152.2,413.5,152.1,413.2,152 M294,128.2c-0.9-6.7-0.3-13.6,0.9-20.2
			c0.1-0.3,0.1-0.6,0.2-0.9c0.2-0.8,0.3-1.6,0.5-2.4c0.2-0.8,0.3-1.5,0.5-2.3c0.1-0.2,0.1-0.4,0.2-0.6c0.2-0.6,0.3-1.2,0.5-1.7
			c0.1-0.2,0.1-0.4,0.2-0.6c0.2-0.7,0.5-1.5,0.7-2.2c0-0.1,0.1-0.2,0.1-0.2c0.2-0.6,0.5-1.3,0.8-1.9c0.1-0.2,0.1-0.3,0.2-0.5
			c0.3-0.6,0.5-1.2,0.8-1.8c0-0.1,0.1-0.2,0.1-0.3c0.3-0.7,0.7-1.4,1.1-2c0-0.1,0.1-0.2,0.1-0.2c0.3-0.6,0.7-1.1,1-1.7
			c0.1-0.1,0.2-0.3,0.2-0.4c0.4-0.6,0.8-1.2,1.2-1.8c1,0.7,2,1.6,2.8,2.7c0.3,0.4,0.7,0.6,1.2,0.6c0.3,0,0.6-0.1,0.9-0.3
			c0.7-0.5,0.8-1.4,0.3-2.1c0,0,0,0,0,0c-1.3-1.7-2.9-3.1-4.5-4c-1.2-0.7-3-1.4-4.9-1.3c-0.5,0-0.9,0.1-1.3,0.2
			c-1.3,0.2-1.6,0.2-1.9-0.2c-0.2-0.2-0.2-0.7-0.1-1c0.8-2.7,6.1-7.9,7-8.4c0.2-0.1,0.5-0.3,0.8-0.5c0.8-0.6,1.7-1.2,4.3-0.9
			c4.7,0.5,9.2,3.1,11.8,6.7c0,0,0.1,0.1,0.1,0.1c0.5,0.6,1.4,0.7,2,0.3c0.7-0.5,0.8-1.4,0.4-2.1c-0.9-1.2-2-2.4-3.1-3.4h0
			c0.8-0.3,1.6-0.6,2.4-0.9c0,0,0,0,0,0c1.6-0.6,3.1-1,4.8-1.3c2-0.5,4.1-0.8,6.2-1c2.2-0.2,4.4-0.4,6.7-0.4c4.3,0,8.4,0.4,12.2,1.2
			c0.6,0.1,1.2,0.2,1.7,0.3c0.6,0.1,1.1,0.3,1.7,0.4l0,0l0,0c0.1,0,0.2,0,0.3,0.1c0,0,0,0,0.1,0c0.1,0,0.2,0.1,0.4,0.1
			c0,0,0,0,0.1,0c0.9,0.2,2.3,0.6,3.9,1.3l0,0c-1.3,1-2.4,2.2-3.4,3.5c-0.5,0.7-0.3,1.6,0.4,2.1c0.7,0.5,1.6,0.3,2.1-0.4
			c2.5-3.6,7-6.1,11.8-6.7c2.6-0.3,3.4,0.3,4.3,0.9c0.3,0.2,0.5,0.4,0.8,0.5c0.9,0.5,6.2,5.7,7,8.4c0.1,0.4,0.1,0.8-0.1,1
			c-0.3,0.3-0.6,0.4-1.9,0.2c-0.4-0.1-0.8-0.1-1.3-0.2c-2-0.1-3.8,0.7-4.9,1.3c-1.7,0.9-3.2,2.3-4.5,4c-0.5,0.7-0.4,1.6,0.3,2.1
			c0.3,0.2,0.6,0.3,0.9,0.3c0.4,0,0.9-0.2,1.2-0.6c1-1.3,2.2-2.3,3.4-3.1c0.3,0.4,0.5,0.8,0.8,1.3c0,0,0,0,0,0.1
			c0.7,1.2,1.4,2.5,2,3.8c0.1,0.2,0.2,0.4,0.3,0.6c0.1,0.3,0.3,0.6,0.4,0.9c0.1,0.3,0.3,0.6,0.4,1c0.1,0.3,0.2,0.6,0.3,0.9
			c0.2,0.4,0.3,0.8,0.5,1.2c0.1,0.2,0.2,0.5,0.3,0.7c0.2,0.7,0.5,1.4,0.7,2.1c0,0,0,0,0,0.1c0.3,0.9,0.6,1.9,0.9,2.8
			c0,0.1,0.1,0.3,0.1,0.4c0.3,0.9,0.5,1.9,0.7,2.9c2,9.5,2.4,17.1,1.7,23.2c-0.2,1.5-0.4,2.9-0.7,4.3c-0.8,3.3-2,6.1-3.5,8.4
			c-0.9,1.4-1.9,2.6-3,3.7c-0.7,0.7-1.5,1.4-2.3,2c-0.8,0.6-1.6,1.2-2.5,1.7c-1.7,1-3.5,1.8-5.4,2.5c-1.8,0.7-3.7,1.2-5.6,1.6
			c-0.9,0.2-1.9,0.4-2.8,0.6c-0.9,0.2-1.9,0.3-2.8,0.5c-0.3,0-0.6,0.1-0.9,0.1c-0.1,0-0.2,0-0.3,0.1c-0.5,0.1-1,0.2-1.6,0.2
			c-0.4,0-0.7,0.1-1.1,0.1c0,0,0,0,0,0c-0.6,0.1-1.2,0.1-1.7,0.2c-0.4,0-0.8,0.1-1.1,0.1c-0.6,0.1-1.2,0.1-1.8,0.2
			c-0.4,0-0.7,0.1-1.1,0.1c-0.6,0.1-1.2,0.1-1.9,0.1c-0.3,0-0.7,0-1,0.1c-0.8,0-1.6,0.1-2.4,0.1c-0.1,0-0.3,0-0.4,0
			c-0.9,0-1.8,0-2.7,0c0,0-0.1,0-0.1,0c-1.1,0-2.2,0-3.3-0.1c-0.2,0-0.3,0-0.5,0c-0.9,0-1.8-0.1-2.8-0.2c-0.4,0-0.7-0.1-1.1-0.1
			c-0.7-0.1-1.4-0.1-2.1-0.2c-0.4-0.1-0.8-0.1-1.3-0.2c-0.7-0.1-1.3-0.2-2-0.3c-0.2,0-0.4-0.1-0.7-0.1c-0.2,0-0.4-0.1-0.6-0.1
			c-0.6-0.1-1.3-0.2-1.9-0.4c-0.4-0.1-0.9-0.2-1.3-0.3c-0.7-0.2-1.3-0.3-1.9-0.5c-0.4-0.1-0.8-0.2-1.2-0.3c-0.7-0.2-1.4-0.4-2.1-0.7
			c-0.3-0.1-0.7-0.2-1-0.3c-1-0.4-2.1-0.7-3.1-1.2c-1.8-0.7-3.4-1.6-4.9-2.5C299,142.9,295.1,136.4,294,128.2"/>
		<path style="clip-path:url(#SVGID_8_);" d="M348.4,175.5c0-5.2-4.2-9.4-9.4-9.4c-5.2,0-9.4,4.2-9.4,9.4c0,5.2,4.2,9.4,9.4,9.4
			C344.2,184.9,348.4,180.7,348.4,175.5 M332.6,175.5c0-3.5,2.9-6.4,6.4-6.4c3.5,0,6.4,2.9,6.4,6.4c0,3.5-2.9,6.4-6.4,6.4
			C335.5,181.9,332.6,179,332.6,175.5"/>
		<path style="clip-path:url(#SVGID_8_);" d="M338.4,177.6l0-4.2c0-0.8-0.7-1.5-1.5-1.5h0c-0.8,0-1.5,0.7-1.5,1.5l0,4.2
			c0,0.8,0.7,1.5,1.5,1.5h0C337.7,179.1,338.4,178.4,338.4,177.6"/>
		<path style="clip-path:url(#SVGID_8_);" d="M341.1,179.1L341.1,179.1c0.8,0,1.5-0.7,1.5-1.5l0-4.2c0-0.8-0.7-1.5-1.5-1.5h0
			c-0.8,0-1.5,0.7-1.5,1.5l0,4.2C339.6,178.4,340.3,179.1,341.1,179.1"/>
	</g>
</g>
</svg>
