<?xml version="1.0" encoding="utf-8"?>
<!-- Generator: Adobe Illustrator 23.0.0, SVG Export Plug-In . SVG Version: 6.00 Build 0)  -->
<svg version="1.1" id="레이어_1" xmlns="http://www.w3.org/2000/svg" xmlns:xlink="http://www.w3.org/1999/xlink" x="0px"
	 y="0px" width="142.8px" height="199px" viewBox="0 0 142.8 199" style="enable-background:new 0 0 142.8 199;"
	 xml:space="preserve">
<g>
	<path style="fill:#FFFFFF;stroke:#231815;stroke-width:2.8347;stroke-linecap:round;stroke-linejoin:round;" d="M4.3,118.3
		c0-15.7,11.3-28.6,27.2-40.6c13.1-9.9,30-20.5,40.9-20.5c11.2,0,26.7,11.5,38.9,21.7"/>
	<g>
		<path style="fill:#FFFFFF;stroke:#231815;stroke-width:2.8347;stroke-linecap:round;stroke-linejoin:round;" d="M110,120.1
			c26.5-6.4,31.3-43.6,26.6-54.2c-4.7-10.7-29.5-14.3-28.8,17.4"/>
	</g>
	<rect x="21.5" y="78" style="fill:#FFFFFF;" width="95.2" height="36.7"/>
	<path style="fill:#FFFFFF;stroke:#231815;stroke-width:2.8347;stroke-linecap:round;stroke-linejoin:round;" d="M24.2,105.5
		c0,0-8.3,15.8-8.3,34.8c0,26.1,20.9,49,22.7,51.3c7.8,10.2,28.3,5.4,28.3,0c0-3.3,0-19.2,0-19.2h4.5c0,0,0,15.9,0,19.2
		c0,5.4,20.5,10.2,28.3,0c1.8-2.4,22.7-25.3,22.7-51.3c0-19.7-8.3-34.8-8.3-34.8"/>
	<path style="fill:#FFFFFF;stroke:#231815;stroke-width:2.8347;stroke-linecap:round;stroke-linejoin:round;" d="M87.2,170.5
		c0,0-7,3.9-17.7,3.9c-10.7,0-17.7-3.9-17.7-3.9"/>
	<path style="fill:#EEF7FD;" d="M109.3,134.7c3.8,16.4-9.9,30.1-40,30.2C38.4,165,27.9,152.4,29,135c1.4-22,17.9-27.6,40-27.7
		C91.2,107.2,104.4,113.7,109.3,134.7z"/>
	<g>
		<path style="fill:#FFFFFF;stroke:#231815;stroke-width:2.8347;stroke-linecap:round;stroke-linejoin:round;" d="M65.5,96.3
			c27.8,3.4,51.1-3.8,54.4-29.6c4.1-31.8-16.1-53-43.9-56.5C48.1,7,23.5,22.7,19.8,54.5C16.9,80.4,37.8,93,65.5,96.3z"/>
		<g>
			<g>
				<g>
					<path style="fill:#FFFFFF;stroke:#231815;stroke-width:2.8347;stroke-linecap:round;stroke-linejoin:round;" d="M107.3,28.5
						c5.5-0.6,9.5-5.6,8.8-11.1c-0.6-5.5-5.6-9.5-11.1-8.8c-5.5,0.6-9.5,5.6-8.8,11.1"/>
				</g>
			</g>
			<g>
				<g>
					<path style="fill:#FFFFFF;stroke:#231815;stroke-width:2.8347;stroke-linecap:round;stroke-linejoin:round;" d="M41.1,20.8
						c-5.2-2-7.8-7.8-5.8-13c2-5.2,7.8-7.8,13-5.8c5.2,2,7.8,7.8,5.8,13"/>
				</g>
			</g>
		</g>
		<g>
			<path style="fill:none;stroke:#231815;stroke-width:2.8347;stroke-linecap:round;stroke-linejoin:round;" d="M57.3,64.5
				c-0.3,2.4,4.9,4.3,11.5,5c6.6,0.8,12.1,0.1,12.3-2.3"/>
			<path style="fill:#DEF1FB;" d="M38.1,51.5c0.8-2.5,3-4.1,5.1-5.4c1.8-1.1,3.9-1.1,5.9-1.1c2.6,0,4.9,1.7,6.6,3.5
				c1.7,1.9,2.3,5.3,1.8,7.8c-0.2,1.3-0.7,2.6-1.5,3.6c-0.2,0.5-0.5,0.9-0.8,1.4c-1.2,1.8-3.7,3.2-5.8,3.3c-1.9,0.1-3.8-0.1-5.6-0.9
				c-1-0.5-2.1-1.1-3-1.9c-1.2-1.2-2.2-2.2-2.8-3.8c-0.2-0.7-0.5-1.5-0.6-2.3C37.5,53.8,37.5,53.5,38.1,51.5z"/>
			<path style="fill:#DEF1FB;" d="M102.9,59.4c-0.2-2.7-1.9-4.7-3.7-6.4c-1.5-1.5-3.5-2-5.4-2.5c-2.5-0.6-5.1,0.5-7.2,1.9
				c-2.1,1.5-3.5,4.6-3.6,7.2c-0.1,1.3,0,2.6,0.5,3.9c0.1,0.5,0.3,1,0.4,1.5c0.8,2.1,2.8,4,4.8,4.6c1.8,0.6,3.7,0.9,5.6,0.4
				c1.1-0.2,2.3-0.5,3.3-1.1c1.4-0.8,2.7-1.6,3.6-3c0.4-0.6,0.9-1.3,1.1-2.1C102.9,61.7,103,61.5,102.9,59.4z"/>
			<path style="fill:#231815;" d="M54.6,47.1c-0.6,1.6-0.5,3,1.2,3.8c1.6,0.7,3-0.1,3.7-1.6c0.7-1.6,0.5-3.3-1.3-4
				C56.4,44.6,55.2,45.5,54.6,47.1z"/>
			<path style="fill:#231815;" d="M88,51.2c0.2,1.7-0.2,3-2.1,3.4c-1.7,0.3-2.9-0.8-3.2-2.5c-0.3-1.7,0.4-3.4,2.2-3.6
				C86.8,48.3,87.7,49.5,88,51.2z"/>
			<path style="fill:#231815;" d="M78.2,58.2c-0.3,2.7-4.1,4.6-8.5,4.1c-4.4-0.5-7.7-3.1-7.4-5.9c0.3-2.7,4.1-4.6,8.5-4.1
				C75.2,52.8,78.5,55.4,78.2,58.2z"/>
		</g>
	</g>
	<g>
		
			<line style="fill:#FFFFFF;stroke:#231815;stroke-width:2.8347;stroke-linecap:round;stroke-linejoin:round;" x1="125" y1="33.4" x2="125" y2="40.4"/>
		
			<line style="fill:#FFFFFF;stroke:#231815;stroke-width:2.8347;stroke-linecap:round;stroke-linejoin:round;" x1="134.5" y1="36.3" x2="131" y2="42.3"/>
		
			<line style="fill:#FFFFFF;stroke:#231815;stroke-width:2.8347;stroke-linecap:round;stroke-linejoin:round;" x1="141.3" y1="43.5" x2="135.3" y2="47"/>
	</g>
	<g>
		<path style="fill:#FFFFFF;stroke:#231815;stroke-width:2.8347;stroke-linecap:round;stroke-linejoin:round;" d="M121.9,50.1
			c0.5-0.9,1.2-1.5,2.1-1.9c2.3-0.9,4.9,0.8,5.6,3.8c0.6,2.6,0.9,5.1,0.6,7.9c-0.3,1.9-1.6,3.5-3,4.1c-1.9,0.8-4-0.3-5.1-2.4
			c-1.1-2.2-1.4-4.7-1.5-7.3C120.6,52.6,121.1,51.1,121.9,50.1z"/>
		<path style="fill:#FFFFFF;stroke:#231815;stroke-width:2.8347;stroke-linecap:round;stroke-linejoin:round;" d="M124.9,79
			c-5,0.5-7.4-0.8-10-5c-2.7-4.3-2.9-9.9,0.6-13.8c4.2-4.7,8.8-6.4,14.2-4c0.6,0.2,1.1,0.5,1.5,0.9c3.4,1.5,7.3,7.9,6.4,12.7"/>
	</g>
	<path style="fill:#B04612;" d="M6.7,131.7l21.6-59.5c0.4-1,2.5-1.7,4.7-1.5c2.2,0.1,3.6,1.1,3.2,2.1l-21.8,61.2
		C14,134.7,6.3,132.7,6.7,131.7z"/>
	<circle style="fill:#E95504;" cx="34.5" cy="58.2" r="31.7"/>
	<g>
		<defs>
			<path id="SVGID_1_" d="M57.8,68.5C51.9,81.3,36.8,87,24,81.1c-12.8-5.8-18.5-21-12.7-33.8c5.8-12.8,21-18.5,33.8-12.7
				C57.9,40.5,63.6,55.6,57.8,68.5z"/>
		</defs>
		<use xlink:href="#SVGID_1_"  style="overflow:visible;fill:#FFFFFF;"/>
		<clipPath id="SVGID_2_">
			<use xlink:href="#SVGID_1_"  style="overflow:visible;"/>
		</clipPath>
		<g style="clip-path:url(#SVGID_2_);">
			<path style="fill:none;stroke:#231815;stroke-width:2.8347;stroke-linecap:round;stroke-linejoin:round;" d="M54.4,71.6
				c-0.1,3.5,7.5,5.6,17.1,6c9.6,0.4,17.3-1.1,17.5-4.6"/>
			<path style="fill:#DEF1FB;" d="M25.4,55c0.9-3.7,3.8-6.2,6.8-8.2c2.5-1.7,5.4-2,8.3-2.2c3.8-0.3,7.2,1.9,9.8,4.4
				c2.7,2.6,3.9,7.4,3.4,11c-0.1,2-0.7,3.7-1.7,5.4c-0.3,0.7-0.6,1.4-1,2.1c-1.6,2.7-4.9,5-8,5.4c-2.8,0.4-5.5,0.3-8.1-0.7
				c-1.5-0.6-3.2-1.3-4.5-2.4c-1.8-1.5-3.4-2.9-4.4-5.2c-0.4-1-0.9-2.1-1.1-3.2C24.8,58.3,24.7,57.9,25.4,55z"/>
			<path style="fill:#DEF1FB;" d="M119.3,59.3c-0.5-3.8-3.3-6.6-6-8.8c-2.4-1.9-5.2-2.5-8.1-2.9c-3.7-0.6-7.3,1.2-10.2,3.5
				c-2.9,2.3-4.5,7-4.4,10.7c-0.1,2,0.3,3.8,1.2,5.5c0.2,0.7,0.5,1.4,0.8,2.1c1.3,2.9,4.4,5.4,7.4,6.1c2.7,0.7,5.4,0.8,8.1,0
				c1.6-0.5,3.3-1,4.7-2c1.9-1.4,3.7-2.6,4.8-4.8c0.5-1,1.1-2,1.3-3.1C119.6,62.7,119.7,62.3,119.3,59.3z"/>
			<path style="fill:#231815;" d="M48.6,46.8c-0.7,2.3-0.4,4.3,2.1,5.3c2.4,0.9,4.4-0.4,5.1-2.8c0.8-2.4,0.3-4.8-2.3-5.6
				C51,43.1,49.3,44.5,48.6,46.8z"/>
			<path style="fill:#231815;" d="M97,49.1c0.5,2.4,0,4.4-2.6,5.1c-2.5,0.7-4.3-0.8-4.9-3.2c-0.6-2.5,0.2-4.9,2.8-5.4
				C95,45.1,96.5,46.7,97,49.1z"/>
			<path style="fill:#231815;" d="M83.8,60.2c-0.2,4-5.4,7-11.8,6.7c-6.4-0.2-11.4-3.7-11.2-7.6c0.2-4,5.4-7,11.8-6.7
				C78.9,52.8,83.9,56.2,83.8,60.2z"/>
		</g>
	</g>
	<g>
		<path style="fill:#231815;" d="M34.5,26.5c17.5,0,31.7,14.2,31.7,31.7c0,17.5-14.2,31.7-31.7,31.7c-1.5,0-3-0.1-4.4-0.3
			l-15.8,44.4c-0.1,0.1-0.3,0.2-0.7,0.2c-1.9,0-7.3-1.5-7-2.4l16-44.2C11,82.9,2.8,71.5,2.8,58.2C2.8,40.7,17,26.5,34.5,26.5
			 M34.5,23.7C15.5,23.7,0,39.2,0,58.2c0,13.2,7.4,25.1,19.1,30.9L4,130.8c-0.3,0.9-0.2,2,0.4,2.8c1.6,2.4,8.2,3.4,9.3,3.4
			c2.3,0,3-1.4,3.3-2c0,0,0-0.1,0-0.1L32,92.6c0.8,0.1,1.7,0.1,2.5,0.1c19,0,34.5-15.5,34.5-34.5C69,39.2,53.5,23.7,34.5,23.7
			L34.5,23.7z"/>
	</g>
	<g>
		<g>
			<path style="fill:#FFFFFF;stroke:#231815;stroke-width:2.8347;stroke-linecap:round;stroke-linejoin:round;" d="M15.4,98
				c3.6,0,9.4,2,9.5,12.6c0,2.7-0.1,10.7-0.8,13.3c-0.6,2.6-2.6,4.9-4.7,4.8c0,0-14.7,4.7-16.2-13.8c-0.4-4.8,1.3-9.5,4-12.7"/>
		</g>
	</g>
</g>
</svg>
