<?xml version="1.0" encoding="utf-8"?>
<!-- Generator: Adobe Illustrator 23.0.0, SVG Export Plug-In . SVG Version: 6.00 Build 0)  -->
<svg version="1.1" id="레이어_1" xmlns="http://www.w3.org/2000/svg" xmlns:xlink="http://www.w3.org/1999/xlink" x="0px"
	 y="0px" width="102.2px" height="75.5px" viewBox="0 0 102.2 75.5" style="enable-background:new 0 0 102.2 75.5;"
	 xml:space="preserve">
<g>
	<g>
		<path style="fill:#E95532;" d="M9.1,30.3C9,30.2,9,30.1,8.9,29.8c0-0.2,0-0.5,0-0.7C9,28.9,9,28.6,9,28.4c0-0.2,0.1-0.4,0.1-0.6
			c0.1-0.4,0.2-0.8,0.5-1.1c0.3-0.3,0.6-0.6,1-0.7c0.5-0.2,0.9-0.3,1.3-0.2c0.4,0,0.8,0.2,1.2,0.4c0.4,0.2,0.7,0.5,1,0.9
			c0.3,0.4,0.5,0.8,0.7,1.2c0.2,0.4,0.3,0.9,0.3,1.3c0.1,0.4,0.1,0.8,0,1.3c0,0.4-0.1,0.8-0.1,1.3c-0.1,0.4-0.2,0.9-0.2,1.3
			c-0.1,0.7-0.3,1.4-0.5,2c-0.2,0.6-0.5,1.3-0.8,2c0,0.1-0.1,0.2-0.1,0.4c-0.1,0.2-0.1,0.3-0.2,0.5c-0.1,0.2-0.2,0.3-0.3,0.5
			c-0.1,0.1-0.2,0.2-0.3,0.3c-0.1,0-0.2,0.1-0.3,0c-0.1,0-0.2,0-0.3-0.1c-0.1,0-0.2-0.1-0.3-0.1c-0.1,0-0.2-0.1-0.3-0.1
			c-0.7-0.2-1.4-0.4-2-0.7c-0.7-0.3-1.3-0.6-1.9-1c-0.6-0.4-1.2-0.8-1.8-1.2c-0.5-0.5-1.1-1-1.5-1.6c-0.3-0.4-0.6-0.9-0.8-1.4
			C3.1,32.1,3,31.5,3,31c0-0.6,0.1-1.1,0.4-1.6c0.3-0.5,0.7-0.9,1.3-1.1C5.1,28.1,5.5,28,5.9,28c0.4,0,0.7,0.1,1,0.2
			c0.3,0.1,0.6,0.3,0.8,0.5c0.2,0.2,0.5,0.4,0.7,0.6L9.1,30.3z"/>
	</g>
	<g>
		<path style="fill:#FCD13E;" d="M95.3,29.4c0-0.1,0.1-0.3,0.2-0.4c0.1-0.1,0.2-0.3,0.4-0.4c0.2-0.1,0.3-0.3,0.5-0.4
			c0.2-0.1,0.3-0.2,0.4-0.3c0.3-0.2,0.6-0.3,0.9-0.4c0.3,0,0.7,0,1,0.1c0.4,0.1,0.7,0.3,0.9,0.6c0.2,0.3,0.4,0.6,0.5,0.9
			c0.1,0.3,0.1,0.7,0.1,1.1c0,0.4-0.1,0.7-0.2,1.1c-0.1,0.4-0.3,0.7-0.5,1c-0.2,0.3-0.4,0.5-0.7,0.8c-0.3,0.2-0.5,0.5-0.8,0.7
			c-0.3,0.2-0.6,0.4-0.9,0.6c-0.5,0.4-1,0.7-1.5,0.9c-0.5,0.3-1,0.5-1.6,0.8c-0.1,0-0.2,0.1-0.3,0.1s-0.3,0.1-0.4,0.2
			c-0.1,0.1-0.3,0.1-0.4,0.1c-0.1,0-0.2,0-0.3,0c-0.1,0-0.1-0.1-0.2-0.1c-0.1-0.1-0.1-0.1-0.2-0.2c0-0.1-0.1-0.2-0.1-0.3
			c0-0.1-0.1-0.2-0.1-0.2c-0.3-0.5-0.6-1-0.8-1.6c-0.3-0.5-0.5-1.1-0.6-1.7c-0.2-0.6-0.3-1.1-0.4-1.7c-0.1-0.6-0.1-1.2,0-1.8
			c0-0.4,0.1-0.9,0.3-1.3c0.2-0.5,0.4-0.9,0.7-1.2c0.3-0.3,0.7-0.6,1.1-0.8c0.4-0.2,0.9-0.1,1.4,0.1c0.4,0.1,0.7,0.3,0.9,0.5
			c0.2,0.2,0.4,0.4,0.5,0.7c0.1,0.2,0.2,0.5,0.2,0.7c0,0.3,0.1,0.5,0.1,0.7L95.3,29.4z"/>
	</g>
</g>
<g>
	<g>
		
			<path style="fill:#FFFFFF;stroke:#231815;stroke-width:2.8347;stroke-linecap:round;stroke-linejoin:round;stroke-miterlimit:10;" d="
			M92.8,59.5c-6.1,5.3-13.1,7.2-15.6,4.3c-2.5-2.9,0.4-9.5,6.6-14.7c6.1-5.3,9.5-6.8,12-3.9C98.2,48,98.9,54.2,92.8,59.5z"/>
		
			<path style="fill:#FFFFFF;stroke:#231815;stroke-width:2.8347;stroke-linecap:round;stroke-linejoin:round;stroke-miterlimit:10;" d="
			M13.6,59.5c6.1,5.3,13.1,7.2,15.6,4.3c2.5-2.9-0.4-9.5-6.6-14.7c-6.1-5.3-9.5-6.8-12-3.9C8.2,48,7.5,54.2,13.6,59.5z"/>
	</g>
	<g>
		<g>
			<path style="fill:#FFE100;" d="M20.7,72.1c-0.8,0-1.4-0.6-1.4-1.4v-24c0-18.7,15.2-33.9,33.9-33.9s33.9,15.2,33.9,33.9v24
				c0,0.8-0.6,1.4-1.4,1.4H20.7z"/>
			<path style="fill:#231815;" d="M53.2,14.2c17.9,0,32.5,14.6,32.5,32.5v24h-65v-24C20.7,28.8,35.3,14.2,53.2,14.2 M53.2,11.3
				c-19.5,0-35.3,15.9-35.3,35.3v24c0,1.6,1.3,2.8,2.8,2.8h65c1.6,0,2.8-1.3,2.8-2.8v-24C88.6,27.2,72.7,11.3,53.2,11.3L53.2,11.3z"
				/>
		</g>
	</g>
	<g>
		<g>
			
				<path style="fill:none;stroke:#231815;stroke-width:1.4173;stroke-linecap:round;stroke-linejoin:round;stroke-miterlimit:10;" d="
				M61.1,15.5c1-3.9,4.1-8,7.8-10.8"/>
		</g>
		<g>
			
				<path style="fill:none;stroke:#231815;stroke-width:1.4173;stroke-linecap:round;stroke-linejoin:round;stroke-miterlimit:10;" d="
				M45,15.5c-1-3.9-4.1-8-7.8-10.8"/>
		</g>
	</g>
	<g>
		
			<line style="fill:none;stroke:#231815;stroke-width:1.4173;stroke-linecap:round;stroke-linejoin:round;stroke-miterlimit:10;" x1="61" y1="31.1" x2="62.3" y2="31.1"/>
	</g>
	<g>
		
			<line style="fill:none;stroke:#231815;stroke-width:1.4173;stroke-linecap:round;stroke-linejoin:round;stroke-miterlimit:10;" x1="44" y1="31.1" x2="45.3" y2="31.1"/>
	</g>
	<g>
		<g>
			<g>
				<path style="fill:none;stroke:#231815;stroke-width:2.8347;stroke-linecap:round;stroke-linejoin:round;" d="M45.8,50.6
					c0.6,1.5,3.1,3.4,7.5,3.4s6.8-1.9,7.5-3.4"/>
			</g>
		</g>
	</g>
	<g>
		
			<path style="fill:none;stroke:#008BD5;stroke-width:1.4173;stroke-linecap:round;stroke-linejoin:round;stroke-miterlimit:10;" d="
			M50.1,46c0,0.5,0,1-0.1,1.5c-0.7,5-5,8.8-10.2,8.8c-5.7,0-10.3-4.6-10.3-10.3c0-5.7,4.6-10.3,10.3-10.3
			C45.4,35.7,50.1,40.3,50.1,46z"/>
		
			<path style="fill:none;stroke:#008BD5;stroke-width:1.4173;stroke-linecap:round;stroke-linejoin:round;stroke-miterlimit:10;" d="
			M77,46c0,5.7-4.6,10.3-10.3,10.3c-5.7,0-10.3-4.6-10.3-10.3c0-5.7,4.6-10.3,10.3-10.3C72.4,35.7,77,40.3,77,46z"/>
		
			<path style="fill:none;stroke:#008BD5;stroke-width:1.4173;stroke-linecap:round;stroke-linejoin:round;stroke-miterlimit:10;" d="
			M49.3,48.4c1.6-3.2,6.3-3.2,7.9,0"/>
	</g>
	<g>
		<polyline style="fill:none;stroke:#231815;stroke-width:2.126;stroke-linecap:round;stroke-linejoin:round;" points="42.4,42.2 
			46.6,44.3 42.4,46.2 		"/>
		<polyline style="fill:none;stroke:#231815;stroke-width:2.126;stroke-linecap:round;stroke-linejoin:round;" points="64.1,42.2 
			59.8,44.3 64.1,46.2 		"/>
	</g>
</g>
</svg>
