<?xml version="1.0" encoding="utf-8"?>
<!-- Generator: Adobe Illustrator 23.0.0, SVG Export Plug-In . SVG Version: 6.00 Build 0)  -->
<svg version="1.1" id="레이어_1" xmlns="http://www.w3.org/2000/svg" xmlns:xlink="http://www.w3.org/1999/xlink" x="0px"
	 y="0px" width="171px" height="203.2px" viewBox="0 0 171 203.2" style="enable-background:new 0 0 171 203.2;"
	 xml:space="preserve">
<g>
	<g>
		<rect x="45.1" y="84.6" style="fill:#FFFFFF;" width="86.6" height="29.2"/>
		<g>
			<path style="fill:#FFFFFF;stroke:#231815;stroke-width:2.8347;stroke-linecap:round;stroke-linejoin:round;" d="M59.9,83.6
				c0,0-29.3-43.9-50.2-26.2C-9,73.2,39.1,116.3,39.1,116.3l7.6,7.2"/>
			<g>
				<path style="fill:#CCE5F3;" d="M12,66.5c-2.2,0.5-1.5,4,0.8,3.5C14.9,69.5,14.2,66,12,66.5z"/>
				<path style="fill:#CCE5F3;" d="M14.6,60.3c-2.2,0.5-1.5,4,0.8,3.5C17.6,63.3,16.9,59.8,14.6,60.3z"/>
				<path style="fill:#CCE5F3;" d="M21.1,57.3c-2.2,0.5-1.5,4,0.8,3.5C24.1,60.3,23.4,56.8,21.1,57.3z"/>
				<path style="fill:#CCE5F3;" d="M21.7,62.9L21.4,63c-4.1,0.9-6.8,5-5.9,9.1c0.9,4.1,5,6.8,9.1,5.9l0.3-0.1c4.1-0.9,6.8-5,5.9-9.2
					C29.9,64.7,25.8,62,21.7,62.9z"/>
			</g>
		</g>
		<g>
			<path style="fill:#FFFFFF;stroke:#231815;stroke-width:2.8347;stroke-linecap:round;stroke-linejoin:round;" d="M115.6,85.3
				c0,0,21-48.4,44.7-34.8c21.2,12.3-18.4,63.2-18.4,63.2l-6.2,8.4"/>
			<g>
				<path style="fill:#CCE5F3;" d="M159.8,59.9c2.3,0.1,2.2,3.6-0.1,3.5C157.3,63.4,157.5,59.8,159.8,59.9z"/>
				<path style="fill:#CCE5F3;" d="M156,54.3c2.3,0.1,2.2,3.6-0.1,3.5C153.6,57.8,153.7,54.2,156,54.3z"/>
				<path style="fill:#CCE5F3;" d="M149.1,52.5c2.3,0.1,2.2,3.6-0.1,3.5C146.7,56,146.8,52.5,149.1,52.5z"/>
				<path style="fill:#CCE5F3;" d="M149.6,58.1l0.3,0c4.2,0.1,7.6,3.8,7.4,7.9c-0.1,4.2-3.8,7.6-7.9,7.4l-0.3,0
					c-4.2-0.1-7.6-3.8-7.4-8C141.7,61.4,145.4,58,149.6,58.1z"/>
			</g>
		</g>
		<path style="fill:#FFFFFF;stroke:#231815;stroke-width:2.8347;stroke-linecap:round;stroke-linejoin:round;" d="M106.5,172.1
			c0,0-7,3.9-17.7,3.9S71,172.1,71,172.1"/>
		<path style="fill:#FFFFFF;stroke:#231815;stroke-width:2.8347;stroke-linecap:round;stroke-linejoin:round;" d="M43.5,106.7
			c0,0-8.3,17.1-8.3,34.8c0,3.1,0.6,6,1.6,8.5c-5.2,8.5-9.9,18-11.5,20.2c-4.6,6.5,13,24.5,25.1,20.9c1.8-0.5,18.9-10.3,30.4-15.8
			l-0.3-0.2c2.4,0.4,5.1,0.8,8.1,0.8c0.7,0,1.4,0,2.1-0.1c0,4.5,0,14.4,0,16.9c0,5.4,20.5,10.2,28.3,0c1.8-2.4,22.7-25.3,22.7-51.3
			c0-19.7-8.3-34.8-8.3-34.8"/>
		<path style="fill:#EEF7FD;" d="M128.6,136c3.8,16.4-9.9,30.1-40,30.2c-30.8,0.1-41.3-12.5-40.2-29.9c1.4-22,17.9-27.6,40-27.7
			C110.5,108.5,123.7,115,128.6,136z"/>
		<path style="fill:#FFFFFF;stroke:#231815;stroke-width:2.8347;stroke-linecap:round;stroke-linejoin:round;" d="M96.5,174.3
			c0,0-8.3,2.8-19.7,0.7c-3.5-0.6-6.6-1.6-9.2-2.7"/>
	</g>
	<g>
		<g>
			
				<rect x="62.9" y="81.1" style="fill:#003541;stroke:#000000;stroke-width:2.8347;stroke-linecap:round;stroke-linejoin:round;stroke-miterlimit:10;" width="51.7" height="11.5"/>
			<g>
				<g>
					<polygon style="fill:#1784AB;" points="91.2,109.3 91.2,109.3 91.2,109.3 85.9,109.3 85.9,109.3 					"/>
					<polygon style="fill:#2291D1;" points="85.9,109.3 85.9,109.3 85.9,109.3 80.6,109.3 80.6,109.3 					"/>
					<polygon style="fill:#0075C1;" points="123.2,90.8 96.5,109.3 91.2,109.3 120.5,87.5 					"/>
					<polygon style="fill:#008BD5;" points="120.5,87.5 91.2,109.3 91.2,109.3 85.9,109.3 117.7,84.2 					"/>
					<polygon style="fill:#0075C1;" points="117.7,84.2 85.9,109.3 85.9,109.3 80.6,109.3 115,80.9 					"/>
				</g>
				<polygon style="fill:none;stroke:#000000;stroke-width:2.8347;stroke-linecap:round;stroke-linejoin:round;" points="
					80.6,109.3 115,80.9 117.7,84.2 120.5,87.5 123.2,90.8 96.5,109.3 91.2,109.3 91.2,109.3 85.9,109.3 80.6,109.3 				"/>
			</g>
		</g>
		<g>
			<g>
				<path style="fill:#FFE100;" d="M63.6,116.1c-0.1-0.1-0.2-0.2-0.4-0.3c-0.2-0.1-0.4-0.3-0.6-0.4c-0.2-0.1-0.4-0.3-0.6-0.4
					c-0.1-0.1-0.3-0.2-0.4-0.3c-0.1-0.1-0.2-0.2-0.3-0.3c-0.1-0.1-0.1-0.2-0.1-0.3c0-0.1,0.1-0.2,0.2-0.3c0.2-0.1,0.3-0.2,0.5-0.2
					c0.2-0.1,0.4-0.1,0.5-0.1c0.2,0,0.4-0.1,0.6-0.1c0.2,0,0.4-0.1,0.6-0.1c0.1,0,0.2,0,0.4-0.1c0.1,0,0.3,0,0.4-0.1
					c0.1,0,0.2-0.1,0.3-0.1c0.1-0.1,0.2-0.2,0.2-0.3c0-0.1,0.1-0.2,0.1-0.4c0-0.2,0.1-0.4,0.1-0.6c0.1-0.2,0.1-0.5,0.2-0.7
					c0.1-0.2,0.2-0.5,0.3-0.6c0.1-0.2,0.2-0.3,0.3-0.4c0.1-0.1,0.3-0.1,0.4,0c0.1,0.1,0.2,0.1,0.3,0.2c0.1,0.1,0.1,0.2,0.2,0.3
					c0.1,0.1,0.1,0.2,0.2,0.3c0.1,0.1,0.1,0.2,0.2,0.3c0.1,0.1,0.2,0.3,0.3,0.4c0.1,0.2,0.2,0.3,0.3,0.4c0.1,0.1,0.2,0.3,0.3,0.4
					c0.1,0.1,0.3,0.2,0.5,0.3c0.2,0.1,0.4,0.1,0.6,0.1c0.2,0,0.4,0,0.6,0c0.3,0,0.5-0.1,0.8-0.1c0.3,0,0.6,0,0.8,0
					c0.2,0,0.4,0.1,0.4,0.2c0,0.1,0,0.2,0,0.4c-0.1,0.2-0.2,0.3-0.3,0.5c-0.1,0.2-0.3,0.4-0.5,0.5c-0.2,0.2-0.3,0.3-0.4,0.5
					c-0.1,0.1-0.2,0.2-0.3,0.3c0,0.1-0.1,0.1-0.2,0.2c-0.1,0.1-0.1,0.1-0.2,0.2c-0.1,0.1-0.1,0.1-0.2,0.2c0,0.1-0.1,0.1-0.1,0.2
					c0,0.2,0,0.5,0,0.7c0,0.2,0.1,0.4,0.2,0.6c0,0.1,0.1,0.2,0.1,0.3c0,0.1,0.1,0.2,0.1,0.3c0,0.1,0.1,0.2,0.1,0.3
					c0,0.1,0.1,0.2,0.1,0.3c0,0.1,0.1,0.2,0.1,0.3c0,0.1,0.1,0.2,0.1,0.3c0,0.1,0,0.2,0,0.3c0,0.1,0,0.2-0.1,0.3
					c-0.1,0.1-0.2,0.2-0.4,0.2c-0.2,0-0.4-0.1-0.6-0.2c-0.2-0.1-0.4-0.2-0.7-0.4c-0.2-0.2-0.5-0.3-0.7-0.4c-0.2-0.1-0.4-0.3-0.6-0.4
					c-0.2-0.1-0.4-0.2-0.5-0.1c-0.1,0-0.3,0.1-0.4,0.2c-0.2,0.1-0.3,0.2-0.5,0.4c-0.2,0.2-0.4,0.3-0.6,0.5c-0.2,0.2-0.4,0.3-0.6,0.5
					c-0.1,0.1-0.3,0.2-0.4,0.3c-0.2,0.1-0.3,0.1-0.5,0c-0.1,0-0.1-0.1-0.1-0.2c0-0.1,0-0.2-0.1-0.3c0-0.1,0-0.2,0-0.3
					c0-0.1,0-0.2,0-0.2c0-0.3,0-0.7,0.1-1c0-0.3,0.1-0.7,0.1-1c0-0.1,0-0.1,0-0.2c0-0.1,0-0.1,0-0.2
					C63.7,116.3,63.7,116.2,63.6,116.1z"/>
			</g>
			<g>
				<path style="fill:#F9BE00;" d="M59,129c-0.1,0-0.2-0.1-0.4-0.1c-0.2,0-0.4-0.1-0.7-0.2c-0.2-0.1-0.4-0.1-0.7-0.1
					c-0.1,0-0.3-0.1-0.4-0.1c-0.1,0-0.3-0.1-0.4-0.1c-0.1-0.1-0.2-0.1-0.2-0.2c0-0.1,0-0.2,0.1-0.3c0.1-0.1,0.2-0.3,0.4-0.4
					c0.1-0.1,0.3-0.2,0.4-0.3c0.1-0.1,0.3-0.2,0.5-0.3c0.2-0.1,0.3-0.2,0.5-0.3c0.1-0.1,0.2-0.1,0.3-0.2c0.1-0.1,0.2-0.1,0.3-0.2
					c0.1-0.1,0.2-0.1,0.2-0.2c0.1-0.1,0.1-0.2,0.1-0.3c0-0.1,0-0.2,0-0.4c0-0.2-0.1-0.4-0.1-0.6c0-0.2-0.1-0.5-0.1-0.7
					c0-0.2,0-0.4,0-0.6c0-0.2,0.1-0.3,0.1-0.5c0.1-0.1,0.2-0.2,0.4-0.2c0.1,0,0.2,0,0.3,0.1c0.1,0.1,0.2,0.1,0.3,0.2
					c0.1,0.1,0.2,0.1,0.3,0.2c0.1,0.1,0.2,0.1,0.3,0.2c0.1,0.1,0.3,0.2,0.4,0.3c0.1,0.1,0.3,0.2,0.4,0.3c0.1,0.1,0.3,0.2,0.4,0.2
					c0.1,0.1,0.3,0.1,0.5,0.1c0.2,0,0.3,0,0.5-0.1c0.2-0.1,0.4-0.1,0.5-0.2c0.2-0.1,0.5-0.2,0.7-0.3c0.2-0.1,0.5-0.2,0.7-0.3
					c0.2-0.1,0.3,0,0.4,0c0.1,0.1,0.1,0.2,0.1,0.4c0,0.2,0,0.3-0.1,0.6c-0.1,0.2-0.1,0.4-0.2,0.6c-0.1,0.2-0.2,0.4-0.2,0.6
					c-0.1,0.2-0.1,0.3-0.2,0.4c0,0.1-0.1,0.1-0.1,0.2c0,0.1-0.1,0.1-0.1,0.2c0,0.1-0.1,0.2-0.1,0.2c0,0.1,0,0.1,0,0.2
					c0,0.2,0.1,0.4,0.2,0.6c0.1,0.1,0.2,0.3,0.4,0.5c0.1,0.1,0.1,0.1,0.2,0.2c0.1,0.1,0.1,0.2,0.2,0.2c0.1,0.1,0.1,0.2,0.2,0.2
					c0.1,0.1,0.1,0.1,0.2,0.2c0,0.1,0.1,0.1,0.2,0.2c0.1,0.1,0.1,0.2,0.2,0.2c0.1,0.1,0.1,0.2,0.1,0.3c0,0.1,0,0.2,0,0.3
					c0,0.1-0.1,0.2-0.3,0.2c-0.1,0-0.3,0-0.5,0c-0.2,0-0.5-0.1-0.7-0.1c-0.3-0.1-0.5-0.1-0.8-0.2c-0.2-0.1-0.5-0.1-0.7-0.1
					c-0.2,0-0.4,0-0.5,0c-0.1,0-0.2,0.1-0.3,0.3c-0.1,0.1-0.2,0.3-0.3,0.5c-0.1,0.2-0.2,0.4-0.3,0.6c-0.1,0.2-0.2,0.4-0.4,0.6
					c-0.1,0.1-0.2,0.2-0.3,0.4c-0.1,0.1-0.3,0.2-0.4,0.1c-0.1,0-0.1-0.1-0.2-0.1c-0.1-0.1-0.1-0.1-0.1-0.2c0-0.1-0.1-0.2-0.1-0.2
					c0-0.1,0-0.2-0.1-0.2c-0.1-0.3-0.2-0.6-0.3-0.9c-0.1-0.3-0.2-0.6-0.3-0.9c0-0.1,0-0.1-0.1-0.2c0,0-0.1-0.1-0.1-0.1
					C59.2,129.1,59.1,129.1,59,129z"/>
			</g>
			<g>
				<path style="fill:#F29600;" d="M59.7,141.5c-0.1,0-0.2,0-0.4,0c-0.2,0-0.4,0-0.6,0.1c-0.2,0-0.4,0-0.6,0.1c-0.1,0-0.2,0-0.4,0
					c-0.1,0-0.2,0-0.3,0c-0.1,0-0.2-0.1-0.2-0.1c0-0.1-0.1-0.1,0-0.3c0-0.1,0.1-0.3,0.2-0.4c0.1-0.1,0.2-0.2,0.3-0.3
					c0.1-0.1,0.2-0.2,0.3-0.3c0.1-0.1,0.2-0.2,0.3-0.4c0.1-0.1,0.1-0.1,0.2-0.2c0.1-0.1,0.1-0.1,0.2-0.2c0.1-0.1,0.1-0.2,0.1-0.2
					c0-0.1,0-0.2,0-0.3c0-0.1-0.1-0.2-0.1-0.3c-0.1-0.1-0.2-0.3-0.2-0.4c-0.1-0.2-0.2-0.3-0.2-0.5c-0.1-0.2-0.1-0.3-0.2-0.5
					c0-0.2,0-0.3,0-0.4c0-0.1,0.1-0.2,0.2-0.2c0.1,0,0.2,0,0.3,0c0.1,0,0.2,0,0.3,0.1c0.1,0,0.2,0.1,0.3,0.1c0.1,0,0.2,0.1,0.3,0.1
					c0.1,0,0.3,0.1,0.4,0.1c0.1,0,0.3,0.1,0.4,0.1c0.1,0,0.3,0.1,0.4,0.1c0.1,0,0.3,0,0.4-0.1c0.1-0.1,0.3-0.1,0.4-0.2
					c0.1-0.1,0.2-0.2,0.3-0.3c0.1-0.2,0.3-0.3,0.4-0.5c0.2-0.2,0.3-0.3,0.5-0.4c0.1-0.1,0.3-0.1,0.3-0.1c0.1,0,0.1,0.1,0.2,0.3
					c0,0.1,0.1,0.3,0.1,0.5c0,0.2,0,0.4,0,0.6c0,0.2,0,0.4,0,0.5c0,0.2,0,0.3,0,0.3c0,0.1,0,0.1,0,0.2c0,0.1,0,0.1,0,0.2
					c0,0.1,0,0.1,0,0.2c0,0.1,0,0.1,0.1,0.2c0.1,0.2,0.2,0.3,0.3,0.4c0.1,0.1,0.3,0.2,0.4,0.3c0.1,0,0.1,0.1,0.2,0.1
					c0.1,0,0.1,0.1,0.2,0.1c0.1,0,0.1,0.1,0.2,0.1c0.1,0,0.1,0.1,0.2,0.1c0.1,0,0.1,0.1,0.2,0.1c0.1,0,0.1,0.1,0.2,0.1
					c0.1,0,0.1,0.1,0.2,0.2c0,0.1,0.1,0.1,0.1,0.2c0,0.1,0,0.2-0.1,0.3c-0.1,0.1-0.2,0.1-0.4,0.2c-0.2,0-0.4,0.1-0.6,0.1
					c-0.2,0-0.4,0.1-0.6,0.1c-0.2,0-0.4,0.1-0.6,0.1c-0.2,0-0.3,0.1-0.4,0.2c-0.1,0.1-0.1,0.2-0.2,0.3c0,0.1-0.1,0.3-0.1,0.5
					c0,0.2-0.1,0.4-0.1,0.6c0,0.2-0.1,0.4-0.1,0.6c0,0.1-0.1,0.2-0.1,0.4c-0.1,0.1-0.2,0.2-0.3,0.2c-0.1,0-0.1,0-0.2,0
					c-0.1,0-0.1-0.1-0.2-0.1c-0.1-0.1-0.1-0.1-0.1-0.2c0-0.1-0.1-0.1-0.1-0.2c-0.2-0.2-0.3-0.4-0.5-0.6c-0.1-0.2-0.3-0.4-0.5-0.7
					c0,0-0.1-0.1-0.1-0.1c0,0-0.1-0.1-0.1-0.1C59.9,141.5,59.8,141.5,59.7,141.5z"/>
			</g>
		</g>
		<path style="fill:#FFE100;stroke:#040000;stroke-width:2.8347;" d="M98.1,108.1H80c-0.8,0-1.5,0.7-1.5,1.5v0.6
			c0,0.8,0.7,1.5,1.5,1.5h8v2.8h2.1v-2.8h8c0.8,0,1.5-0.7,1.5-1.5v-0.6C99.6,108.8,98.9,108.1,98.1,108.1z"/>
		<g>
			<path style="fill:#FFE100;stroke:#040000;stroke-width:2.8347;" d="M108.5,135.1c0,10.8-8.6,19.5-19.3,19.5
				c-10.6,0-19.3-8.7-19.3-19.5c0-10.8,8.6-19.5,19.3-19.5C99.9,115.7,108.5,124.4,108.5,135.1z"/>
		</g>
		<g>
			<g>
				<polygon style="fill:#1784AB;" points="86.4,109.3 86.4,109.3 86.4,109.3 91.7,109.3 91.7,109.3 				"/>
				<polygon style="fill:#2291D1;" points="91.7,109.3 91.7,109.3 91.7,109.3 97,109.3 97,109.3 				"/>
				<polygon style="fill:#008BD5;" points="54.4,90.8 81.1,109.3 86.4,109.3 57.1,87.5 				"/>
				<polygon style="fill:#0075C1;" points="57.1,87.5 86.4,109.3 86.4,109.3 91.7,109.3 59.8,84.2 				"/>
				<polygon style="fill:#008BD5;" points="59.8,84.2 91.7,109.3 91.7,109.3 97,109.3 62.5,80.9 				"/>
			</g>
			<polygon style="fill:none;stroke:#000000;stroke-width:2.8347;stroke-linecap:round;stroke-linejoin:round;" points="97,109.3 
				62.5,80.9 59.8,84.2 57.1,87.5 54.4,90.8 81.1,109.3 86.4,109.3 86.4,109.3 91.7,109.3 97,109.3 			"/>
		</g>
		
			<ellipse transform="matrix(0.1675 -0.9859 0.9859 0.1675 -58.9148 200.47)" style="fill:#F9BE00;" cx="89.2" cy="135.1" rx="13.7" ry="13.7"/>
		<g>
			<path style="fill:#FFE100;" d="M92.6,131.9c0.2,0,0.5,0,0.8,0.1c0.4,0,0.8,0,1.3,0.1c0.4,0,0.9,0,1.3,0c0.3,0,0.6,0,0.8,0.1
				c0.3,0,0.5,0.1,0.7,0.1c0.2,0.1,0.3,0.2,0.4,0.3c0.1,0.1,0.1,0.3,0,0.6c-0.1,0.3-0.3,0.6-0.5,0.8c-0.2,0.2-0.4,0.5-0.7,0.7
				c-0.2,0.2-0.5,0.4-0.8,0.6c-0.3,0.2-0.5,0.4-0.8,0.7c-0.1,0.1-0.3,0.3-0.5,0.4c-0.2,0.1-0.3,0.3-0.5,0.4s-0.3,0.3-0.3,0.5
				c-0.1,0.2-0.1,0.4-0.1,0.6c0,0.1,0.1,0.4,0.2,0.7c0.1,0.3,0.2,0.7,0.4,1.1c0.1,0.4,0.2,0.8,0.3,1.2c0.1,0.4,0.2,0.8,0.2,1.2
				c0,0.4,0,0.7-0.1,0.9c-0.1,0.2-0.3,0.4-0.6,0.4c-0.2,0-0.4,0-0.6-0.1c-0.2-0.1-0.4-0.1-0.6-0.2c-0.2-0.1-0.4-0.2-0.5-0.3
				c-0.2-0.1-0.4-0.2-0.5-0.3c-0.3-0.1-0.6-0.2-0.8-0.4c-0.3-0.2-0.5-0.3-0.8-0.4c-0.3-0.1-0.5-0.2-0.8-0.3c-0.3-0.1-0.6-0.1-0.9,0
				c-0.3,0.1-0.6,0.2-1,0.3c-0.3,0.2-0.6,0.3-0.9,0.5c-0.4,0.3-0.8,0.6-1.2,0.9c-0.4,0.3-0.8,0.5-1.2,0.7c-0.3,0.2-0.6,0.2-0.8,0.1
				c-0.2-0.1-0.3-0.3-0.3-0.6c0-0.3,0-0.6,0-1.1c0.1-0.4,0.1-0.8,0.2-1.2c0.1-0.4,0.2-0.8,0.2-1.1c0.1-0.3,0.1-0.6,0.2-0.7
				c0-0.1,0.1-0.3,0.1-0.4c0.1-0.1,0.1-0.3,0.1-0.4c0-0.2,0.1-0.3,0.1-0.5c0-0.1,0-0.3-0.1-0.4c-0.2-0.4-0.3-0.7-0.6-1
				c-0.2-0.2-0.5-0.5-0.9-0.7c-0.1-0.1-0.3-0.2-0.4-0.3c-0.1-0.1-0.3-0.2-0.4-0.4c-0.1-0.1-0.3-0.2-0.4-0.3
				c-0.1-0.1-0.3-0.2-0.4-0.3c-0.1-0.1-0.2-0.2-0.4-0.3c-0.1-0.1-0.3-0.2-0.4-0.4c-0.1-0.1-0.2-0.3-0.3-0.4
				c-0.1-0.1-0.1-0.3-0.1-0.5c0-0.2,0.1-0.4,0.4-0.5c0.3-0.1,0.6-0.2,1-0.2c0.4,0,0.9,0,1.3,0c0.5,0,1,0,1.4,0c0.5,0,0.9,0,1.3,0
				c0.4,0,0.7-0.1,0.8-0.2c0.2-0.1,0.3-0.3,0.5-0.6c0.1-0.3,0.3-0.6,0.4-1c0.1-0.4,0.3-0.8,0.4-1.2c0.1-0.4,0.3-0.9,0.5-1.3
				c0.1-0.2,0.2-0.5,0.4-0.7c0.2-0.3,0.4-0.4,0.7-0.4c0.1,0,0.3,0.1,0.4,0.2c0.1,0.1,0.2,0.2,0.3,0.3c0.1,0.1,0.2,0.3,0.3,0.4
				c0.1,0.1,0.1,0.3,0.2,0.4c0.3,0.5,0.5,1,0.8,1.6c0.2,0.5,0.5,1.1,0.8,1.6c0,0.1,0.1,0.2,0.2,0.3c0.1,0.1,0.1,0.1,0.2,0.2
				C92.2,131.8,92.4,131.9,92.6,131.9z"/>
		</g>
	</g>
	<g>
		<path style="fill:#FFFFFF;stroke:#231815;stroke-width:2.8347;stroke-linecap:round;stroke-linejoin:round;" d="M88.7,97.6
			c28,0,50.2-10,50.4-36C139.4,29.6,116,11,88.7,10.8C61.4,11,38.1,29.6,38.3,61.6C38.5,87.7,60.7,97.6,88.7,97.6z"/>
		<g>
			<g>
				<g>
					<path style="fill:#FFFFFF;stroke:#231815;stroke-width:2.8347;stroke-linecap:round;stroke-linejoin:round;" d="M122,25.2
						c5.4-1.3,8.7-6.7,7.4-12.1c-1.3-5.4-6.7-8.7-12.1-7.4c-5.4,1.3-8.7,6.7-7.4,12.1"/>
				</g>
			</g>
			<g>
				<g>
					<path style="fill:#FFFFFF;stroke:#231815;stroke-width:2.8347;stroke-linecap:round;stroke-linejoin:round;" d="M55.3,25.6
						c-5.4-1.3-8.7-6.8-7.3-12.2c1.3-5.4,6.8-8.7,12.2-7.3c5.4,1.3,8.7,6.8,7.3,12.2"/>
				</g>
			</g>
		</g>
		<path style="fill:none;stroke:#231815;stroke-width:2.8347;stroke-linecap:round;stroke-linejoin:round;" d="M76.7,66.5
			c0,2.4,5.4,3.7,12,3.6c6.7,0,12-1.3,12-3.8"/>
		<path style="fill:#DEF1FB;" d="M56.1,56.4c0.5-2.6,2.5-4.5,4.4-5.9c1.7-1.3,3.7-1.5,5.7-1.8c2.6-0.3,5.1,1.1,6.9,2.7
			c2,1.7,2.9,5,2.7,7.5c0,1.4-0.4,2.6-1,3.8c-0.2,0.5-0.4,1-0.6,1.5c-1,1.9-3.2,3.6-5.3,4c-1.9,0.4-3.8,0.4-5.6-0.2
			c-1.1-0.4-2.3-0.8-3.2-1.5c-1.3-1-2.5-1.9-3.2-3.5c-0.3-0.7-0.7-1.4-0.8-2.2C55.8,58.8,55.7,58.5,56.1,56.4z"/>
		<path style="fill:#DEF1FB;" d="M121.3,56.4c-0.5-2.6-2.5-4.5-4.4-5.9c-1.7-1.3-3.7-1.5-5.7-1.8c-2.6-0.3-5.1,1.1-6.9,2.7
			c-2,1.7-2.9,5-2.7,7.5c0,1.4,0.4,2.6,1,3.8c0.2,0.5,0.4,1,0.6,1.5c1,1.9,3.2,3.6,5.3,4c1.9,0.4,3.8,0.4,5.6-0.2
			c1.1-0.4,2.3-0.8,3.2-1.5c1.3-1,2.5-1.9,3.2-3.5c0.3-0.7,0.7-1.4,0.8-2.2C121.7,58.8,121.7,58.5,121.3,56.4z"/>
		<path style="fill:#231815;" d="M71.9,50.1c-0.4,1.6-0.2,3,1.6,3.6c1.7,0.5,3-0.4,3.5-2.1c0.5-1.7,0-3.4-1.8-3.8
			C73.4,47.4,72.3,48.4,71.9,50.1z"/>
		<path style="fill:#231815;" d="M105.5,50.1c0.4,1.6,0.2,3-1.6,3.6c-1.7,0.5-3-0.4-3.5-2.1c-0.5-1.7,0-3.4,1.8-3.8
			C104,47.4,105.1,48.4,105.5,50.1z"/>
		<path style="fill:#231815;" d="M96.7,58.2c0,2.8-3.5,5-8,5.1c-4.4,0-8-2.2-8-4.9c0-2.8,3.5-5,8-5.1C93.1,53.2,96.7,55.5,96.7,58.2
			z"/>
	</g>
</g>
</svg>
