<?xml version="1.0" encoding="utf-8"?>
<!-- Generator: Adobe Illustrator 23.0.0, SVG Export Plug-In . SVG Version: 6.00 Build 0)  -->
<svg version="1.1" id="레이어_1" xmlns="http://www.w3.org/2000/svg" xmlns:xlink="http://www.w3.org/1999/xlink" x="0px"
	 y="0px" width="202px" height="210px" viewBox="0 0 202 210" style="enable-background:new 0 0 202 210;" xml:space="preserve">
<style type="text/css">
	.st0{fill:#FFFFFF;stroke:#231815;stroke-width:2.8347;stroke-linecap:round;stroke-linejoin:round;stroke-miterlimit:10;}
	.st1{fill:#CCE5F3;}
	.st2{fill:#0296E0;stroke:#231815;stroke-width:2.8347;stroke-linecap:round;stroke-linejoin:round;}
	.st3{fill:#FFFFFF;stroke:#231815;stroke-width:2.8347;stroke-linecap:round;stroke-linejoin:round;}
	.st4{fill:#FFFFFF;}
	.st5{fill:#EEF7FD;}
	.st6{fill:none;stroke:#231815;stroke-width:2.8347;stroke-linecap:round;stroke-linejoin:round;}
	.st7{fill:#DEF1FB;}
	.st8{fill:#231815;}
	.st9{fill:#EF8200;stroke:#231815;stroke-width:2.8347;stroke-linecap:round;stroke-linejoin:round;}
	.st10{fill:#0296E0;}
</style>
<g>
	<path class="st0" d="M127.4,128c0,0,42.7-9.1,36.5-44.3c-9.2-25.4-72.4,25.8-72.4,25.8"/>
	<g>
		<path class="st1" d="M157.6,84.3c0.1-2.1-3.2-2.2-3.2-0.1C154.3,86.3,157.6,86.4,157.6,84.3z"/>
		<path class="st1" d="M162.5,88c0-2.1-3.2-2.2-3.2-0.1S162.5,90.1,162.5,88z"/>
		<path class="st1" d="M163.8,94.4c0-2.1-3.2-2.2-3.2-0.1C160.5,96.4,163.7,96.5,163.8,94.4z"/>
		<path class="st1" d="M158.7,93.7v-0.3c0.1-3.8-3-7.1-6.9-7.2c-3.8-0.1-7.1,3-7.2,6.9v0.3c-0.1,3.8,3,7.1,6.9,7.2
			C155.4,100.6,158.6,97.5,158.7,93.7z"/>
	</g>
	<path class="st2" d="M148.5,103.7l6.2-1.4c3.1-0.7,5.1-3.8,4.4-7l-5.8-25.4l-11.9,2.7L148.5,103.7z"/>
	<path class="st0" d="M139.2,80.2c2.8-1.2,5.5-1.7,7,1.4s-0.9,5.5-3.3,6.8"/>
	<path class="st0" d="M157.8,100.1c0,0-8.6-0.4-8.2-13.4c0.4-13.1,7.7-9.9,9.6-8.5c1.9,1.4,1.9,1.4,1.9,1.4s4.8,4,4.7,12.7
		c-0.1,7.1-3.9,12.5-6.2,15.6"/>
</g>
<g>
	<path class="st3" d="M59,87.5c0,0-25.2-50.1-46.2-32.7c-20.6,17,21.3,68,21.3,68l6.5,8.1"/>
	<g>
		<path class="st1" d="M13.5,64.2c-2.3,0.2-2,3.7,0.3,3.5S15.8,64,13.5,64.2z"/>
		<path class="st1" d="M17,58.4c-2.3,0.2-2,3.7,0.3,3.5S19.3,58.2,17,58.4z"/>
		<path class="st1" d="M23.8,56.3c-2.3,0.2-2,3.7,0.3,3.5S26.1,56.1,23.8,56.3z"/>
		<path class="st1" d="M23.6,61.9h-0.3c-4.2,0.3-7.4,4.1-7,8.3c0.3,4.2,4.1,7.4,8.3,7.1h0.3c4.2-0.3,7.4-4.1,7-8.3
			C31.6,64.7,27.8,61.5,23.6,61.9z"/>
	</g>
</g>
<rect x="40.7" y="98.2" class="st4" width="88.3" height="36.7"/>
<path class="st3" d="M39.9,112.5c0,0-8.3,15.8-8.3,34.8c0,26.1,20.9,49,22.7,51.3c7.8,10.2,28.3,5.4,28.3,0c0-3.3,0-19.2,0-19.2h4.5
	c0,0,0,15.9,0,19.2c0,5.4,20.5,10.2,28.3,0c1.8-2.4,22.7-25.3,22.7-51.3c0-19.7-8.3-34.8-8.3-34.8"/>
<path class="st3" d="M102.9,177.8c0,0-7,3.9-17.7,3.9s-17.7-3.9-17.7-3.9"/>
<path class="st5" d="M125,141.7c3.8,16.4-9.9,30.1-40,30.2C54.1,172,43.6,159.4,44.7,142c1.4-22,17.9-27.6,40-27.7
	C106.9,114.2,120.1,120.7,125,141.7z"/>
<g>
	<path class="st3" d="M81.2,103.4c27.8,3.4,51.1-3.8,54.4-29.6c4.1-31.8-16.1-53-43.9-56.5C63.8,14,39.2,29.7,35.5,61.5
		C32.6,87.4,53.5,100,81.2,103.4z"/>
	<g>
		<g>
			<g>
				<path class="st3" d="M123,35.5c5.5-0.6,9.5-5.6,8.8-11.1c-0.6-5.5-5.6-9.5-11.1-8.8c-5.5,0.6-9.5,5.6-8.8,11.1"/>
			</g>
		</g>
		<g>
			<g>
				<path class="st3" d="M56.8,27.9c-5.2-2-7.8-7.8-5.8-13s7.8-7.8,13-5.8s7.8,7.8,5.8,13"/>
			</g>
		</g>
	</g>
	<path class="st6" d="M73,71.5c-0.3,2.4,4.9,4.3,11.5,5c6.6,0.8,12.1,0.1,12.3-2.3"/>
	<path class="st7" d="M53.8,58.5c0.8-2.5,3-4.1,5.1-5.4c1.8-1.1,3.9-1.1,5.9-1.1c2.6,0,4.9,1.7,6.6,3.5c1.7,1.9,2.3,5.3,1.8,7.8
		c-0.2,1.3-0.7,2.6-1.5,3.6c-0.2,0.5-0.5,0.9-0.8,1.4c-1.2,1.8-3.7,3.2-5.8,3.3c-1.9,0.1-3.8-0.1-5.6-0.9c-1-0.5-2.1-1.1-3-1.9
		c-1.2-1.2-2.2-2.2-2.8-3.8c-0.2-0.7-0.5-1.5-0.6-2.3C53.2,60.8,53.2,60.5,53.8,58.5z"/>
	<path class="st7" d="M118.6,66.4c-0.2-2.7-1.9-4.7-3.7-6.4c-1.5-1.5-3.5-2-5.4-2.5c-2.5-0.6-5.1,0.5-7.2,1.9
		c-2.1,1.5-3.5,4.6-3.6,7.2c-0.1,1.3,0,2.6,0.5,3.9c0.1,0.5,0.3,1,0.4,1.5c0.8,2.1,2.8,4,4.8,4.6c1.8,0.6,3.7,0.9,5.6,0.4
		c1.1-0.2,2.3-0.5,3.3-1.1c1.4-0.8,2.7-1.6,3.6-3c0.4-0.6,0.9-1.3,1.1-2.1C118.6,68.7,118.7,68.5,118.6,66.4z"/>
	<path class="st8" d="M70.1,54c-0.6,1.7-0.6,3.2,1.3,4c1.7,0.8,3.2-0.1,3.9-1.8c0.7-1.7,0.5-3.6-1.4-4.3
		C72.1,51.4,70.8,52.4,70.1,54z"/>
	<path class="st8" d="M103.8,58.1c0.2,1.8-0.2,3.2-2.2,3.6c-1.9,0.3-3.1-0.8-3.4-2.6s0.4-3.6,2.4-3.8
		C102.6,55.1,103.6,56.3,103.8,58.1z"/>
	<path class="st8" d="M93.9,65.2c-0.3,2.7-4.1,4.6-8.5,4.1s-7.7-3.1-7.4-5.9c0.3-2.7,4.1-4.6,8.5-4.1C90.9,59.8,94.2,62.4,93.9,65.2
		z"/>
</g>
<g>
	<path class="st2" d="M143.1,76.2l2.2-0.5l-4.8-21.3l-2.2,0.5c-5.9,1.3-9.6,7.2-8.2,13.1l0,0C131.3,73.8,137.2,77.5,143.1,76.2z"/>
	<path class="st9" d="M149.4,52.4l-9,2l0,0c-2,0.4-2.5,5.6-1.1,11.5c1.3,5.9,4,10.3,6,9.8l0,0l9-2L149.4,52.4z"/>
	<path class="st2" d="M180.3,32.2c-0.7,0.2-30.9,20.1-30.9,20.1l0,0c-2.3,0.5-3.1,5.7-1.8,11.6s4.3,10.2,6.6,9.7l0,0
		c0,0,35.9,5,36.6,4.8c4.6-1,5.9-12.2,3-25C190.9,40.7,184.9,31.2,180.3,32.2z"/>
	<ellipse transform="matrix(0.9752 -0.2215 0.2215 0.9752 -7.6702 42.4201)" class="st8" cx="185.3" cy="55.4" rx="4.9" ry="17.8"/>
	<g>
		<g>
			<path class="st10" d="M183.6,62.3c-0.7-1.9-1.2-4-1.7-6.1s-0.8-4.2-1.1-6.2l7.1-1.6c0,0,0.1,0.1,0.3,0.3c0.8,0.7,1.9,2.6,2.6,5.5
				s0.5,5.2,0.1,6.1c-0.1,0.3-0.2,0.4-0.2,0.4L183.6,62.3z"/>
			<path class="st8" d="M188.3,49.7L188.3,49.7L188.3,49.7 M187.5,49.9c0.6,0.7,1.4,2.3,1.9,4.6s0.5,4.1,0.2,5l-5.1,1.2
				c-0.5-1.5-0.9-3.1-1.3-4.7c-0.4-1.6-0.7-3.2-0.9-4.8L187.5,49.9 M187.9,46.9c-0.1,0-0.2,0-0.3,0l0,0l-8.4,1.9
				c0.2,2.4,0.6,4.9,1.2,7.6c0.6,2.7,1.4,5.2,2.2,7.4L191,62l0,0c0.5-0.1,0.9-0.5,1.2-1.2c0.6-1.5,0.6-4.1,0-7
				c-0.7-2.9-1.8-5.2-3-6.3C188.8,47.1,188.3,46.9,187.9,46.9L187.9,46.9z"/>
		</g>
		<path class="st10" d="M188.9,54.6c0.5,2.4,0.8,4.4,0.3,4.5s-1.4-1.7-2-4.1c-0.5-2.4-0.5-4.4,0-4.6S188.4,52.2,188.9,54.6z"/>
	</g>
</g>
</svg>
